ISO-10303-21;
HEADER;
FILE_DESCRIPTION(('Open CASCADE Model'),'2;1');
FILE_NAME('Open CASCADE Shape Model','2026-09-14T12:39:50',('Author'),(
    'Open CASCADE'),'Open CASCADE STEP processor 7.9','Open CASCADE 7.9'
  ,'Unknown');
FILE_SCHEMA(('AUTOMOTIVE_DESIGN { 1 0 10303 214 1 1 1 1 }'));
ENDSEC;
DATA;
#1 = APPLICATION_PROTOCOL_DEFINITION('international standard',
  'automotive_design',2000,#2);
#2 = APPLICATION_CONTEXT(
  'core data for automotive mechanical design processes');
#3 = SHAPE_DEFINITION_REPRESENTATION(#4,#10);
#4 = PRODUCT_DEFINITION_SHAPE('','',#5);
#5 = PRODUCT_DEFINITION('design','',#6,#9);
#6 = PRODUCT_DEFINITION_FORMATION('','',#7);
#7 = PRODUCT('Open CASCADE STEP translator 7.9 5',
  'Open CASCADE STEP translator 7.9 5','',(#8));
#8 = PRODUCT_CONTEXT('',#2,'mechanical');
#9 = PRODUCT_DEFINITION_CONTEXT('part definition',#2,'design');
#10 = ADVANCED_BREP_SHAPE_REPRESENTATION('',(#11,#15),#1499);
#11 = AXIS2_PLACEMENT_3D('',#12,#13,#14);
#12 = CARTESIAN_POINT('',(0.,0.,0.));
#13 = DIRECTION('',(0.,0.,1.));
#14 = DIRECTION('',(1.,0.,-0.));
#15 = MANIFOLD_SOLID_BREP('',#16);
#16 = CLOSED_SHELL('',(#17,#234,#289,#324,#353,#421,#568,#627,#804,#833,
    #901,#1031,#1144,#1277,#1283,#1314,#1345,#1376,#1435,#1469,#1475,
    #1481,#1487,#1493));
#17 = ADVANCED_FACE('',(#18,#203),#33,.F.);
#18 = FACE_BOUND('',#19,.T.);
#19 = EDGE_LOOP('',(#20,#60,#89,#118,#147,#176));
#20 = ORIENTED_EDGE('',*,*,#21,.T.);
#21 = EDGE_CURVE('',#22,#24,#26,.T.);
#22 = VERTEX_POINT('',#23);
#23 = CARTESIAN_POINT('',(4.33012700645,2.500000021602,0.));
#24 = VERTEX_POINT('',#25);
#25 = CARTESIAN_POINT('',(4.330126956043,-2.50000010891,0.));
#26 = SURFACE_CURVE('',#27,(#32,#48),.PCURVE_S1.);
#27 = CIRCLE('',#28,5.);
#28 = AXIS2_PLACEMENT_3D('',#29,#30,#31);
#29 = CARTESIAN_POINT('',(0.,0.,0.));
#30 = DIRECTION('',(0.,0.,-1.));
#31 = DIRECTION('',(0.86602540129,0.50000000432,0.));
#32 = PCURVE('',#33,#38);
#33 = PLANE('',#34);
#34 = AXIS2_PLACEMENT_3D('',#35,#36,#37);
#35 = CARTESIAN_POINT('',(0.,0.,0.));
#36 = DIRECTION('',(0.,0.,1.));
#37 = DIRECTION('',(1.,0.,-0.));
#38 = DEFINITIONAL_REPRESENTATION('',(#39),#47);
#39 = ( BOUNDED_CURVE() B_SPLINE_CURVE(2,(#40,#41,#42,#43,#44,#45,#46),
.UNSPECIFIED.,.T.,.F.) B_SPLINE_CURVE_WITH_KNOTS((1,2,2,2,2,1),(
    -2.094395102393,0.,2.094395102393,4.188790204786,6.28318530718,
8.377580409573),.UNSPECIFIED.) CURVE() GEOMETRIC_REPRESENTATION_ITEM() 
RATIONAL_B_SPLINE_CURVE((1.,0.5,1.,0.5,1.,0.5,1.)) REPRESENTATION_ITEM(
  '') );
#40 = CARTESIAN_POINT('',(4.33012700645,2.500000021602));
#41 = CARTESIAN_POINT('',(8.660254062788,-4.999999956796));
#42 = CARTESIAN_POINT('',(2.494369333306E-08,-5.));
#43 = CARTESIAN_POINT('',(-8.660254012901,-5.000000043204));
#44 = CARTESIAN_POINT('',(-4.330127031394,2.499999978398));
#45 = CARTESIAN_POINT('',(-4.988739377154E-08,10.));
#46 = CARTESIAN_POINT('',(4.33012700645,2.500000021602));
#47 = ( GEOMETRIC_REPRESENTATION_CONTEXT(2) 
PARAMETRIC_REPRESENTATION_CONTEXT() REPRESENTATION_CONTEXT('2D SPACE',''
  ) );
#48 = PCURVE('',#49,#54);
#49 = CONICAL_SURFACE('',#50,5.,1.308996938996);
#50 = AXIS2_PLACEMENT_3D('',#51,#52,#53);
#51 = CARTESIAN_POINT('',(0.,0.,0.));
#52 = DIRECTION('',(0.,0.,1.));
#53 = DIRECTION('',(1.,0.,-0.));
#54 = DEFINITIONAL_REPRESENTATION('',(#55),#59);
#55 = LINE('',#56,#57);
#56 = CARTESIAN_POINT('',(6.806784087767,0.));
#57 = VECTOR('',#58,1.);
#58 = DIRECTION('',(-1.,-0.));
#59 = ( GEOMETRIC_REPRESENTATION_CONTEXT(2) 
PARAMETRIC_REPRESENTATION_CONTEXT() REPRESENTATION_CONTEXT('2D SPACE',''
  ) );
#60 = ORIENTED_EDGE('',*,*,#61,.F.);
#61 = EDGE_CURVE('',#62,#24,#64,.T.);
#62 = VERTEX_POINT('',#63);
#63 = CARTESIAN_POINT('',(-4.580020897388E-08,-5.,0.));
#64 = SURFACE_CURVE('',#65,(#70,#77),.PCURVE_S1.);
#65 = CIRCLE('',#66,5.);
#66 = AXIS2_PLACEMENT_3D('',#67,#68,#69);
#67 = CARTESIAN_POINT('',(0.,0.,0.));
#68 = DIRECTION('',(0.,0.,1.));
#69 = DIRECTION('',(1.,0.,-0.));
#70 = PCURVE('',#33,#71);
#71 = DEFINITIONAL_REPRESENTATION('',(#72),#76);
#72 = CIRCLE('',#73,5.);
#73 = AXIS2_PLACEMENT_2D('',#74,#75);
#74 = CARTESIAN_POINT('',(0.,0.));
#75 = DIRECTION('',(1.,-0.));
#76 = ( GEOMETRIC_REPRESENTATION_CONTEXT(2) 
PARAMETRIC_REPRESENTATION_CONTEXT() REPRESENTATION_CONTEXT('2D SPACE',''
  ) );
#77 = PCURVE('',#78,#83);
#78 = CONICAL_SURFACE('',#79,5.,1.308996938996);
#79 = AXIS2_PLACEMENT_3D('',#80,#81,#82);
#80 = CARTESIAN_POINT('',(0.,0.,0.));
#81 = DIRECTION('',(0.,0.,1.));
#82 = DIRECTION('',(1.,0.,-0.));
#83 = DEFINITIONAL_REPRESENTATION('',(#84),#88);
#84 = LINE('',#85,#86);
#85 = CARTESIAN_POINT('',(0.,0.));
#86 = VECTOR('',#87,1.);
#87 = DIRECTION('',(1.,0.));
#88 = ( GEOMETRIC_REPRESENTATION_CONTEXT(2) 
PARAMETRIC_REPRESENTATION_CONTEXT() REPRESENTATION_CONTEXT('2D SPACE',''
  ) );
#89 = ORIENTED_EDGE('',*,*,#90,.F.);
#90 = EDGE_CURVE('',#91,#62,#93,.T.);
#91 = VERTEX_POINT('',#92);
#92 = CARTESIAN_POINT('',(-4.330127037604,-2.499999967642,0.));
#93 = SURFACE_CURVE('',#94,(#99,#106),.PCURVE_S1.);
#94 = CIRCLE('',#95,5.);
#95 = AXIS2_PLACEMENT_3D('',#96,#97,#98);
#96 = CARTESIAN_POINT('',(0.,0.,0.));
#97 = DIRECTION('',(0.,0.,1.));
#98 = DIRECTION('',(1.,0.,-0.));
#99 = PCURVE('',#33,#100);
#100 = DEFINITIONAL_REPRESENTATION('',(#101),#105);
#101 = CIRCLE('',#102,5.);
#102 = AXIS2_PLACEMENT_2D('',#103,#104);
#103 = CARTESIAN_POINT('',(0.,0.));
#104 = DIRECTION('',(1.,-0.));
#105 = ( GEOMETRIC_REPRESENTATION_CONTEXT(2) 
PARAMETRIC_REPRESENTATION_CONTEXT() REPRESENTATION_CONTEXT('2D SPACE',''
  ) );
#106 = PCURVE('',#107,#112);
#107 = CONICAL_SURFACE('',#108,5.,1.308996938996);
#108 = AXIS2_PLACEMENT_3D('',#109,#110,#111);
#109 = CARTESIAN_POINT('',(0.,0.,0.));
#110 = DIRECTION('',(0.,0.,1.));
#111 = DIRECTION('',(1.,0.,-0.));
#112 = DEFINITIONAL_REPRESENTATION('',(#113),#117);
#113 = LINE('',#114,#115);
#114 = CARTESIAN_POINT('',(0.,0.));
#115 = VECTOR('',#116,1.);
#116 = DIRECTION('',(1.,0.));
#117 = ( GEOMETRIC_REPRESENTATION_CONTEXT(2) 
PARAMETRIC_REPRESENTATION_CONTEXT() REPRESENTATION_CONTEXT('2D SPACE',''
  ) );
#118 = ORIENTED_EDGE('',*,*,#119,.F.);
#119 = EDGE_CURVE('',#120,#91,#122,.T.);
#120 = VERTEX_POINT('',#121);
#121 = CARTESIAN_POINT('',(-4.330126975297,2.500000075562,0.));
#122 = SURFACE_CURVE('',#123,(#128,#135),.PCURVE_S1.);
#123 = CIRCLE('',#124,5.);
#124 = AXIS2_PLACEMENT_3D('',#125,#126,#127);
#125 = CARTESIAN_POINT('',(0.,0.,0.));
#126 = DIRECTION('',(0.,0.,1.));
#127 = DIRECTION('',(1.,0.,-0.));
#128 = PCURVE('',#33,#129);
#129 = DEFINITIONAL_REPRESENTATION('',(#130),#134);
#130 = CIRCLE('',#131,5.);
#131 = AXIS2_PLACEMENT_2D('',#132,#133);
#132 = CARTESIAN_POINT('',(0.,0.));
#133 = DIRECTION('',(1.,-0.));
#134 = ( GEOMETRIC_REPRESENTATION_CONTEXT(2) 
PARAMETRIC_REPRESENTATION_CONTEXT() REPRESENTATION_CONTEXT('2D SPACE',''
  ) );
#135 = PCURVE('',#136,#141);
#136 = CONICAL_SURFACE('',#137,5.,1.308996938996);
#137 = AXIS2_PLACEMENT_3D('',#138,#139,#140);
#138 = CARTESIAN_POINT('',(0.,0.,0.));
#139 = DIRECTION('',(0.,0.,1.));
#140 = DIRECTION('',(1.,0.,-0.));
#141 = DEFINITIONAL_REPRESENTATION('',(#142),#146);
#142 = LINE('',#143,#144);
#143 = CARTESIAN_POINT('',(0.,0.));
#144 = VECTOR('',#145,1.);
#145 = DIRECTION('',(1.,0.));
#146 = ( GEOMETRIC_REPRESENTATION_CONTEXT(2) 
PARAMETRIC_REPRESENTATION_CONTEXT() REPRESENTATION_CONTEXT('2D SPACE',''
  ) );
#147 = ORIENTED_EDGE('',*,*,#148,.F.);
#148 = EDGE_CURVE('',#149,#120,#151,.T.);
#149 = VERTEX_POINT('',#150);
#150 = CARTESIAN_POINT('',(2.997671926006E-08,5.,0.));
#151 = SURFACE_CURVE('',#152,(#157,#164),.PCURVE_S1.);
#152 = CIRCLE('',#153,5.);
#153 = AXIS2_PLACEMENT_3D('',#154,#155,#156);
#154 = CARTESIAN_POINT('',(0.,0.,0.));
#155 = DIRECTION('',(0.,0.,1.));
#156 = DIRECTION('',(1.,0.,-0.));
#157 = PCURVE('',#33,#158);
#158 = DEFINITIONAL_REPRESENTATION('',(#159),#163);
#159 = CIRCLE('',#160,5.);
#160 = AXIS2_PLACEMENT_2D('',#161,#162);
#161 = CARTESIAN_POINT('',(0.,0.));
#162 = DIRECTION('',(1.,-0.));
#163 = ( GEOMETRIC_REPRESENTATION_CONTEXT(2) 
PARAMETRIC_REPRESENTATION_CONTEXT() REPRESENTATION_CONTEXT('2D SPACE',''
  ) );
#164 = PCURVE('',#165,#170);
#165 = CONICAL_SURFACE('',#166,5.,1.308996938996);
#166 = AXIS2_PLACEMENT_3D('',#167,#168,#169);
#167 = CARTESIAN_POINT('',(0.,0.,0.));
#168 = DIRECTION('',(0.,0.,1.));
#169 = DIRECTION('',(1.,0.,-0.));
#170 = DEFINITIONAL_REPRESENTATION('',(#171),#175);
#171 = LINE('',#172,#173);
#172 = CARTESIAN_POINT('',(0.,0.));
#173 = VECTOR('',#174,1.);
#174 = DIRECTION('',(1.,0.));
#175 = ( GEOMETRIC_REPRESENTATION_CONTEXT(2) 
PARAMETRIC_REPRESENTATION_CONTEXT() REPRESENTATION_CONTEXT('2D SPACE',''
  ) );
#176 = ORIENTED_EDGE('',*,*,#177,.F.);
#177 = EDGE_CURVE('',#22,#149,#178,.T.);
#178 = SURFACE_CURVE('',#179,(#184,#191),.PCURVE_S1.);
#179 = CIRCLE('',#180,5.);
#180 = AXIS2_PLACEMENT_3D('',#181,#182,#183);
#181 = CARTESIAN_POINT('',(0.,0.,0.));
#182 = DIRECTION('',(0.,0.,1.));
#183 = DIRECTION('',(1.,0.,-0.));
#184 = PCURVE('',#33,#185);
#185 = DEFINITIONAL_REPRESENTATION('',(#186),#190);
#186 = CIRCLE('',#187,5.);
#187 = AXIS2_PLACEMENT_2D('',#188,#189);
#188 = CARTESIAN_POINT('',(0.,0.));
#189 = DIRECTION('',(1.,-0.));
#190 = ( GEOMETRIC_REPRESENTATION_CONTEXT(2) 
PARAMETRIC_REPRESENTATION_CONTEXT() REPRESENTATION_CONTEXT('2D SPACE',''
  ) );
#191 = PCURVE('',#192,#197);
#192 = CONICAL_SURFACE('',#193,5.,1.308996938996);
#193 = AXIS2_PLACEMENT_3D('',#194,#195,#196);
#194 = CARTESIAN_POINT('',(0.,0.,0.));
#195 = DIRECTION('',(0.,0.,1.));
#196 = DIRECTION('',(1.,0.,-0.));
#197 = DEFINITIONAL_REPRESENTATION('',(#198),#202);
#198 = LINE('',#199,#200);
#199 = CARTESIAN_POINT('',(0.,0.));
#200 = VECTOR('',#201,1.);
#201 = DIRECTION('',(1.,0.));
#202 = ( GEOMETRIC_REPRESENTATION_CONTEXT(2) 
PARAMETRIC_REPRESENTATION_CONTEXT() REPRESENTATION_CONTEXT('2D SPACE',''
  ) );
#203 = FACE_BOUND('',#204,.T.);
#204 = EDGE_LOOP('',(#205));
#205 = ORIENTED_EDGE('',*,*,#206,.T.);
#206 = EDGE_CURVE('',#207,#207,#209,.T.);
#207 = VERTEX_POINT('',#208);
#208 = CARTESIAN_POINT('',(-3.,7.347880794884E-16,0.));
#209 = SURFACE_CURVE('',#210,(#215,#222),.PCURVE_S1.);
#210 = CIRCLE('',#211,3.);
#211 = AXIS2_PLACEMENT_3D('',#212,#213,#214);
#212 = CARTESIAN_POINT('',(0.,0.,0.));
#213 = DIRECTION('',(0.,0.,1.));
#214 = DIRECTION('',(-1.,0.,0.));
#215 = PCURVE('',#33,#216);
#216 = DEFINITIONAL_REPRESENTATION('',(#217),#221);
#217 = CIRCLE('',#218,3.);
#218 = AXIS2_PLACEMENT_2D('',#219,#220);
#219 = CARTESIAN_POINT('',(0.,0.));
#220 = DIRECTION('',(-1.,0.));
#221 = ( GEOMETRIC_REPRESENTATION_CONTEXT(2) 
PARAMETRIC_REPRESENTATION_CONTEXT() REPRESENTATION_CONTEXT('2D SPACE',''
  ) );
#222 = PCURVE('',#223,#228);
#223 = CYLINDRICAL_SURFACE('',#224,3.);
#224 = AXIS2_PLACEMENT_3D('',#225,#226,#227);
#225 = CARTESIAN_POINT('',(0.,0.,0.));
#226 = DIRECTION('',(0.,0.,1.));
#227 = DIRECTION('',(-1.,0.,0.));
#228 = DEFINITIONAL_REPRESENTATION('',(#229),#233);
#229 = LINE('',#230,#231);
#230 = CARTESIAN_POINT('',(0.,0.));
#231 = VECTOR('',#232,1.);
#232 = DIRECTION('',(1.,0.));
#233 = ( GEOMETRIC_REPRESENTATION_CONTEXT(2) 
PARAMETRIC_REPRESENTATION_CONTEXT() REPRESENTATION_CONTEXT('2D SPACE',''
  ) );
#234 = ADVANCED_FACE('',(#235),#223,.F.);
#235 = FACE_BOUND('',#236,.F.);
#236 = EDGE_LOOP('',(#237,#266,#287,#288));
#237 = ORIENTED_EDGE('',*,*,#238,.F.);
#238 = EDGE_CURVE('',#239,#239,#241,.T.);
#239 = VERTEX_POINT('',#240);
#240 = CARTESIAN_POINT('',(-3.,7.347880794884E-16,5.));
#241 = SURFACE_CURVE('',#242,(#247,#254),.PCURVE_S1.);
#242 = CIRCLE('',#243,3.);
#243 = AXIS2_PLACEMENT_3D('',#244,#245,#246);
#244 = CARTESIAN_POINT('',(0.,0.,5.));
#245 = DIRECTION('',(0.,0.,1.));
#246 = DIRECTION('',(-1.,0.,0.));
#247 = PCURVE('',#223,#248);
#248 = DEFINITIONAL_REPRESENTATION('',(#249),#253);
#249 = LINE('',#250,#251);
#250 = CARTESIAN_POINT('',(0.,5.));
#251 = VECTOR('',#252,1.);
#252 = DIRECTION('',(1.,0.));
#253 = ( GEOMETRIC_REPRESENTATION_CONTEXT(2) 
PARAMETRIC_REPRESENTATION_CONTEXT() REPRESENTATION_CONTEXT('2D SPACE',''
  ) );
#254 = PCURVE('',#255,#260);
#255 = PLANE('',#256);
#256 = AXIS2_PLACEMENT_3D('',#257,#258,#259);
#257 = CARTESIAN_POINT('',(0.,0.,5.));
#258 = DIRECTION('',(0.,0.,1.));
#259 = DIRECTION('',(1.,0.,-0.));
#260 = DEFINITIONAL_REPRESENTATION('',(#261),#265);
#261 = CIRCLE('',#262,3.);
#262 = AXIS2_PLACEMENT_2D('',#263,#264);
#263 = CARTESIAN_POINT('',(0.,0.));
#264 = DIRECTION('',(-1.,0.));
#265 = ( GEOMETRIC_REPRESENTATION_CONTEXT(2) 
PARAMETRIC_REPRESENTATION_CONTEXT() REPRESENTATION_CONTEXT('2D SPACE',''
  ) );
#266 = ORIENTED_EDGE('',*,*,#267,.F.);
#267 = EDGE_CURVE('',#207,#239,#268,.T.);
#268 = SEAM_CURVE('',#269,(#273,#280),.PCURVE_S1.);
#269 = LINE('',#270,#271);
#270 = CARTESIAN_POINT('',(-3.,7.347880794884E-16,0.));
#271 = VECTOR('',#272,1.);
#272 = DIRECTION('',(0.,0.,1.));
#273 = PCURVE('',#223,#274);
#274 = DEFINITIONAL_REPRESENTATION('',(#275),#279);
#275 = LINE('',#276,#277);
#276 = CARTESIAN_POINT('',(6.28318530718,-0.));
#277 = VECTOR('',#278,1.);
#278 = DIRECTION('',(0.,1.));
#279 = ( GEOMETRIC_REPRESENTATION_CONTEXT(2) 
PARAMETRIC_REPRESENTATION_CONTEXT() REPRESENTATION_CONTEXT('2D SPACE',''
  ) );
#280 = PCURVE('',#223,#281);
#281 = DEFINITIONAL_REPRESENTATION('',(#282),#286);
#282 = LINE('',#283,#284);
#283 = CARTESIAN_POINT('',(0.,-0.));
#284 = VECTOR('',#285,1.);
#285 = DIRECTION('',(0.,1.));
#286 = ( GEOMETRIC_REPRESENTATION_CONTEXT(2) 
PARAMETRIC_REPRESENTATION_CONTEXT() REPRESENTATION_CONTEXT('2D SPACE',''
  ) );
#287 = ORIENTED_EDGE('',*,*,#206,.T.);
#288 = ORIENTED_EDGE('',*,*,#267,.T.);
#289 = ADVANCED_FACE('',(#290,#321),#255,.T.);
#290 = FACE_BOUND('',#291,.T.);
#291 = EDGE_LOOP('',(#292));
#292 = ORIENTED_EDGE('',*,*,#293,.T.);
#293 = EDGE_CURVE('',#294,#294,#296,.T.);
#294 = VERTEX_POINT('',#295);
#295 = CARTESIAN_POINT('',(3.75,0.,5.));
#296 = SURFACE_CURVE('',#297,(#302,#309),.PCURVE_S1.);
#297 = CIRCLE('',#298,3.75);
#298 = AXIS2_PLACEMENT_3D('',#299,#300,#301);
#299 = CARTESIAN_POINT('',(0.,0.,5.));
#300 = DIRECTION('',(0.,0.,1.));
#301 = DIRECTION('',(1.,0.,-0.));
#302 = PCURVE('',#255,#303);
#303 = DEFINITIONAL_REPRESENTATION('',(#304),#308);
#304 = CIRCLE('',#305,3.75);
#305 = AXIS2_PLACEMENT_2D('',#306,#307);
#306 = CARTESIAN_POINT('',(0.,0.));
#307 = DIRECTION('',(1.,0.));
#308 = ( GEOMETRIC_REPRESENTATION_CONTEXT(2) 
PARAMETRIC_REPRESENTATION_CONTEXT() REPRESENTATION_CONTEXT('2D SPACE',''
  ) );
#309 = PCURVE('',#310,#315);
#310 = SPHERICAL_SURFACE('',#311,3.75);
#311 = AXIS2_PLACEMENT_3D('',#312,#313,#314);
#312 = CARTESIAN_POINT('',(6.661338147751E-16,0.,5.));
#313 = DIRECTION('',(-0.,-0.,-1.));
#314 = DIRECTION('',(1.,0.,-0.));
#315 = DEFINITIONAL_REPRESENTATION('',(#316),#320);
#316 = LINE('',#317,#318);
#317 = CARTESIAN_POINT('',(-0.,0.));
#318 = VECTOR('',#319,1.);
#319 = DIRECTION('',(-1.,0.));
#320 = ( GEOMETRIC_REPRESENTATION_CONTEXT(2) 
PARAMETRIC_REPRESENTATION_CONTEXT() REPRESENTATION_CONTEXT('2D SPACE',''
  ) );
#321 = FACE_BOUND('',#322,.T.);
#322 = EDGE_LOOP('',(#323));
#323 = ORIENTED_EDGE('',*,*,#238,.F.);
#324 = ADVANCED_FACE('',(#325),#310,.F.);
#325 = FACE_BOUND('',#326,.T.);
#326 = EDGE_LOOP('',(#327,#351,#352));
#327 = ORIENTED_EDGE('',*,*,#328,.T.);
#328 = EDGE_CURVE('',#329,#294,#331,.T.);
#329 = VERTEX_POINT('',#330);
#330 = CARTESIAN_POINT('',(-2.087467462838E-16,0.,8.75));
#331 = SEAM_CURVE('',#332,(#337,#344),.PCURVE_S1.);
#332 = CIRCLE('',#333,3.75);
#333 = AXIS2_PLACEMENT_3D('',#334,#335,#336);
#334 = CARTESIAN_POINT('',(6.661338147751E-16,0.,5.));
#335 = DIRECTION('',(0.,1.,0.));
#336 = DIRECTION('',(-2.33301482949E-16,0.,1.));
#337 = PCURVE('',#310,#338);
#338 = DEFINITIONAL_REPRESENTATION('',(#339),#343);
#339 = LINE('',#340,#341);
#340 = CARTESIAN_POINT('',(-0.,-1.570796326795));
#341 = VECTOR('',#342,1.);
#342 = DIRECTION('',(-0.,1.));
#343 = ( GEOMETRIC_REPRESENTATION_CONTEXT(2) 
PARAMETRIC_REPRESENTATION_CONTEXT() REPRESENTATION_CONTEXT('2D SPACE',''
  ) );
#344 = PCURVE('',#310,#345);
#345 = DEFINITIONAL_REPRESENTATION('',(#346),#350);
#346 = LINE('',#347,#348);
#347 = CARTESIAN_POINT('',(-6.28318530718,-1.570796326795));
#348 = VECTOR('',#349,1.);
#349 = DIRECTION('',(-0.,1.));
#350 = ( GEOMETRIC_REPRESENTATION_CONTEXT(2) 
PARAMETRIC_REPRESENTATION_CONTEXT() REPRESENTATION_CONTEXT('2D SPACE',''
  ) );
#351 = ORIENTED_EDGE('',*,*,#293,.F.);
#352 = ORIENTED_EDGE('',*,*,#328,.F.);
#353 = ADVANCED_FACE('',(#354),#192,.T.);
#354 = FACE_BOUND('',#355,.T.);
#355 = EDGE_LOOP('',(#356,#389,#390));
#356 = ORIENTED_EDGE('',*,*,#357,.F.);
#357 = EDGE_CURVE('',#22,#358,#360,.T.);
#358 = VERTEX_POINT('',#359);
#359 = CARTESIAN_POINT('',(2.886751345948,5.,0.207259421637));
#360 = SURFACE_CURVE('',#361,(#366,#377),.PCURVE_S1.);
#361 = HYPERBOLA('',#362,1.339745962156,5.);
#362 = AXIS2_PLACEMENT_3D('',#363,#364,#365);
#363 = CARTESIAN_POINT('',(4.330127018922,2.5,-1.339745962156));
#364 = DIRECTION('',(-0.866025403784,-0.5,0.));
#365 = DIRECTION('',(0.,0.,1.));
#366 = PCURVE('',#192,#367);
#367 = DEFINITIONAL_REPRESENTATION('',(#368),#376);
#368 = B_SPLINE_CURVE_WITH_KNOTS('',6,(#369,#370,#371,#372,#373,#374,
    #375),.UNSPECIFIED.,.F.,.F.,(7,7),(8.881784197001E-17,0.549306144334
    ),.PIECEWISE_BEZIER_KNOTS.);
#369 = CARTESIAN_POINT('',(0.523598775598,0.));
#370 = CARTESIAN_POINT('',(0.615149799654,1.125251695035E-17));
#371 = CARTESIAN_POINT('',(0.706700396581,1.347504752384E-02));
#372 = CARTESIAN_POINT('',(0.796872741496,4.042510130557E-02));
#373 = CARTESIAN_POINT('',(0.884271562013,8.118912527463E-02));
#374 = CARTESIAN_POINT('',(0.967912038622,0.136444458084));
#375 = CARTESIAN_POINT('',(1.047197551197,0.207259421637));
#376 = ( GEOMETRIC_REPRESENTATION_CONTEXT(2) 
PARAMETRIC_REPRESENTATION_CONTEXT() REPRESENTATION_CONTEXT('2D SPACE',''
  ) );
#377 = PCURVE('',#378,#383);
#378 = PLANE('',#379);
#379 = AXIS2_PLACEMENT_3D('',#380,#381,#382);
#380 = CARTESIAN_POINT('',(5.773502691896,0.,0.));
#381 = DIRECTION('',(-0.866025403784,-0.5,0.));
#382 = DIRECTION('',(-0.5,0.866025403784,0.));
#383 = DEFINITIONAL_REPRESENTATION('',(#384),#388);
#384 = ( BOUNDED_CURVE() B_SPLINE_CURVE(2,(#385,#386,#387),
.UNSPECIFIED.,.F.,.F.) B_SPLINE_CURVE_WITH_KNOTS((3,3),(
8.881784197001E-17,0.549306144334),.PIECEWISE_BEZIER_KNOTS.) CURVE() 
GEOMETRIC_REPRESENTATION_ITEM() RATIONAL_B_SPLINE_CURVE((1.,
1.037954849302,1.)) REPRESENTATION_ITEM('') );
#385 = CARTESIAN_POINT('',(2.886751345948,0.));
#386 = CARTESIAN_POINT('',(4.226497308104,0.));
#387 = CARTESIAN_POINT('',(5.773502691896,-0.207259421637));
#388 = ( GEOMETRIC_REPRESENTATION_CONTEXT(2) 
PARAMETRIC_REPRESENTATION_CONTEXT() REPRESENTATION_CONTEXT('2D SPACE',''
  ) );
#389 = ORIENTED_EDGE('',*,*,#177,.T.);
#390 = ORIENTED_EDGE('',*,*,#391,.F.);
#391 = EDGE_CURVE('',#358,#149,#392,.T.);
#392 = SURFACE_CURVE('',#393,(#398,#409),.PCURVE_S1.);
#393 = HYPERBOLA('',#394,1.339745962156,5.);
#394 = AXIS2_PLACEMENT_3D('',#395,#396,#397);
#395 = CARTESIAN_POINT('',(7.691850745534E-16,5.,-1.339745962156));
#396 = DIRECTION('',(-1.538370149107E-16,-1.,0.));
#397 = DIRECTION('',(0.,0.,1.));
#398 = PCURVE('',#192,#399);
#399 = DEFINITIONAL_REPRESENTATION('',(#400),#408);
#400 = B_SPLINE_CURVE_WITH_KNOTS('',6,(#401,#402,#403,#404,#405,#406,
    #407),.UNSPECIFIED.,.F.,.F.,(7,7),(-0.549306144334,
    9.260467495332E-17),.PIECEWISE_BEZIER_KNOTS.);
#401 = CARTESIAN_POINT('',(1.047197551197,0.207259421637));
#402 = CARTESIAN_POINT('',(1.126483063771,0.136444458084));
#403 = CARTESIAN_POINT('',(1.21012354038,8.118912527463E-02));
#404 = CARTESIAN_POINT('',(1.297522360897,4.042510130557E-02));
#405 = CARTESIAN_POINT('',(1.387694705812,1.347504752384E-02));
#406 = CARTESIAN_POINT('',(1.479245302739,-1.135843703832E-17));
#407 = CARTESIAN_POINT('',(1.570796326795,0.));
#408 = ( GEOMETRIC_REPRESENTATION_CONTEXT(2) 
PARAMETRIC_REPRESENTATION_CONTEXT() REPRESENTATION_CONTEXT('2D SPACE',''
  ) );
#409 = PCURVE('',#410,#415);
#410 = PLANE('',#411);
#411 = AXIS2_PLACEMENT_3D('',#412,#413,#414);
#412 = CARTESIAN_POINT('',(2.886751345948,5.,0.));
#413 = DIRECTION('',(-1.538370149107E-16,-1.,0.));
#414 = DIRECTION('',(-1.,1.538370149107E-16,0.));
#415 = DEFINITIONAL_REPRESENTATION('',(#416),#420);
#416 = ( BOUNDED_CURVE() B_SPLINE_CURVE(2,(#417,#418,#419),
.UNSPECIFIED.,.F.,.F.) B_SPLINE_CURVE_WITH_KNOTS((3,3),(-0.549306144334,
9.260467495332E-17),.PIECEWISE_BEZIER_KNOTS.) CURVE() 
GEOMETRIC_REPRESENTATION_ITEM() RATIONAL_B_SPLINE_CURVE((1.,
1.037954849302,1.)) REPRESENTATION_ITEM('') );
#417 = CARTESIAN_POINT('',(3.552713678801E-15,-0.207259421637));
#418 = CARTESIAN_POINT('',(1.547005383793,0.));
#419 = CARTESIAN_POINT('',(2.886751345948,0.));
#420 = ( GEOMETRIC_REPRESENTATION_CONTEXT(2) 
PARAMETRIC_REPRESENTATION_CONTEXT() REPRESENTATION_CONTEXT('2D SPACE',''
  ) );
#421 = ADVANCED_FACE('',(#422),#410,.F.);
#422 = FACE_BOUND('',#423,.F.);
#423 = EDGE_LOOP('',(#424,#425,#448,#481,#514,#542));
#424 = ORIENTED_EDGE('',*,*,#391,.F.);
#425 = ORIENTED_EDGE('',*,*,#426,.T.);
#426 = EDGE_CURVE('',#358,#427,#429,.T.);
#427 = VERTEX_POINT('',#428);
#428 = CARTESIAN_POINT('',(2.886751345948,5.,4.792740578363));
#429 = SURFACE_CURVE('',#430,(#434,#441),.PCURVE_S1.);
#430 = LINE('',#431,#432);
#431 = CARTESIAN_POINT('',(2.886751345948,5.,0.));
#432 = VECTOR('',#433,1.);
#433 = DIRECTION('',(0.,0.,1.));
#434 = PCURVE('',#410,#435);
#435 = DEFINITIONAL_REPRESENTATION('',(#436),#440);
#436 = LINE('',#437,#438);
#437 = CARTESIAN_POINT('',(0.,0.));
#438 = VECTOR('',#439,1.);
#439 = DIRECTION('',(0.,-1.));
#440 = ( GEOMETRIC_REPRESENTATION_CONTEXT(2) 
PARAMETRIC_REPRESENTATION_CONTEXT() REPRESENTATION_CONTEXT('2D SPACE',''
  ) );
#441 = PCURVE('',#378,#442);
#442 = DEFINITIONAL_REPRESENTATION('',(#443),#447);
#443 = LINE('',#444,#445);
#444 = CARTESIAN_POINT('',(5.773502691896,0.));
#445 = VECTOR('',#446,1.);
#446 = DIRECTION('',(0.,-1.));
#447 = ( GEOMETRIC_REPRESENTATION_CONTEXT(2) 
PARAMETRIC_REPRESENTATION_CONTEXT() REPRESENTATION_CONTEXT('2D SPACE',''
  ) );
#448 = ORIENTED_EDGE('',*,*,#449,.F.);
#449 = EDGE_CURVE('',#450,#427,#452,.T.);
#450 = VERTEX_POINT('',#451);
#451 = CARTESIAN_POINT('',(3.061616997868E-16,5.,5.));
#452 = SURFACE_CURVE('',#453,(#458,#465),.PCURVE_S1.);
#453 = HYPERBOLA('',#454,1.339745962156,5.);
#454 = AXIS2_PLACEMENT_3D('',#455,#456,#457);
#455 = CARTESIAN_POINT('',(7.691850745534E-16,5.,6.339745962156));
#456 = DIRECTION('',(-1.538370149107E-16,-1.,0.));
#457 = DIRECTION('',(-0.,0.,-1.));
#458 = PCURVE('',#410,#459);
#459 = DEFINITIONAL_REPRESENTATION('',(#460),#464);
#460 = ( BOUNDED_CURVE() B_SPLINE_CURVE(2,(#461,#462,#463),
.UNSPECIFIED.,.F.,.F.) B_SPLINE_CURVE_WITH_KNOTS((3,3),(
-9.260467495332E-17,0.549306144334),.PIECEWISE_BEZIER_KNOTS.) CURVE() 
GEOMETRIC_REPRESENTATION_ITEM() RATIONAL_B_SPLINE_CURVE((1.,
1.037954849302,1.)) REPRESENTATION_ITEM('') );
#461 = CARTESIAN_POINT('',(2.886751345948,-5.));
#462 = CARTESIAN_POINT('',(1.547005383793,-5.));
#463 = CARTESIAN_POINT('',(8.881784197001E-16,-4.792740578363));
#464 = ( GEOMETRIC_REPRESENTATION_CONTEXT(2) 
PARAMETRIC_REPRESENTATION_CONTEXT() REPRESENTATION_CONTEXT('2D SPACE',''
  ) );
#465 = PCURVE('',#466,#471);
#466 = CONICAL_SURFACE('',#467,5.773502691896,1.308996938996);
#467 = AXIS2_PLACEMENT_3D('',#468,#469,#470);
#468 = CARTESIAN_POINT('',(0.,0.,4.792740578363));
#469 = DIRECTION('',(-0.,-0.,-1.));
#470 = DIRECTION('',(1.,0.,-0.));
#471 = DEFINITIONAL_REPRESENTATION('',(#472),#480);
#472 = B_SPLINE_CURVE_WITH_KNOTS('',6,(#473,#474,#475,#476,#477,#478,
    #479),.UNSPECIFIED.,.F.,.F.,(7,7),(-9.260467495332E-17,
    0.549306144334),.PIECEWISE_BEZIER_KNOTS.);
#473 = CARTESIAN_POINT('',(-1.570796326795,-0.207259421637));
#474 = CARTESIAN_POINT('',(-1.479245302739,-0.207259421637));
#475 = CARTESIAN_POINT('',(-1.387694705812,-0.193784374113));
#476 = CARTESIAN_POINT('',(-1.297522360897,-0.166834320331));
#477 = CARTESIAN_POINT('',(-1.21012354038,-0.126070296362));
#478 = CARTESIAN_POINT('',(-1.126483063771,-7.081496355292E-02));
#479 = CARTESIAN_POINT('',(-1.047197551197,0.));
#480 = ( GEOMETRIC_REPRESENTATION_CONTEXT(2) 
PARAMETRIC_REPRESENTATION_CONTEXT() REPRESENTATION_CONTEXT('2D SPACE',''
  ) );
#481 = ORIENTED_EDGE('',*,*,#482,.F.);
#482 = EDGE_CURVE('',#483,#450,#485,.T.);
#483 = VERTEX_POINT('',#484);
#484 = CARTESIAN_POINT('',(-2.886751345948,5.,4.792740578363));
#485 = SURFACE_CURVE('',#486,(#491,#498),.PCURVE_S1.);
#486 = HYPERBOLA('',#487,1.339745962156,5.);
#487 = AXIS2_PLACEMENT_3D('',#488,#489,#490);
#488 = CARTESIAN_POINT('',(7.691850745534E-16,5.,6.339745962156));
#489 = DIRECTION('',(-1.538370149107E-16,-1.,0.));
#490 = DIRECTION('',(-0.,0.,-1.));
#491 = PCURVE('',#410,#492);
#492 = DEFINITIONAL_REPRESENTATION('',(#493),#497);
#493 = ( BOUNDED_CURVE() B_SPLINE_CURVE(2,(#494,#495,#496),
.UNSPECIFIED.,.F.,.F.) B_SPLINE_CURVE_WITH_KNOTS((3,3),(-0.549306144334,
-9.260467495332E-17),.PIECEWISE_BEZIER_KNOTS.) CURVE() 
GEOMETRIC_REPRESENTATION_ITEM() RATIONAL_B_SPLINE_CURVE((1.,
1.037954849302,1.)) REPRESENTATION_ITEM('') );
#494 = CARTESIAN_POINT('',(5.773502691896,-4.792740578363));
#495 = CARTESIAN_POINT('',(4.226497308104,-5.));
#496 = CARTESIAN_POINT('',(2.886751345948,-5.));
#497 = ( GEOMETRIC_REPRESENTATION_CONTEXT(2) 
PARAMETRIC_REPRESENTATION_CONTEXT() REPRESENTATION_CONTEXT('2D SPACE',''
  ) );
#498 = PCURVE('',#499,#504);
#499 = CONICAL_SURFACE('',#500,5.773502691896,1.308996938996);
#500 = AXIS2_PLACEMENT_3D('',#501,#502,#503);
#501 = CARTESIAN_POINT('',(0.,0.,4.792740578363));
#502 = DIRECTION('',(-0.,-0.,-1.));
#503 = DIRECTION('',(1.,0.,-0.));
#504 = DEFINITIONAL_REPRESENTATION('',(#505),#513);
#505 = B_SPLINE_CURVE_WITH_KNOTS('',6,(#506,#507,#508,#509,#510,#511,
    #512),.UNSPECIFIED.,.F.,.F.,(7,7),(-0.549306144334,
    -9.260467495332E-17),.PIECEWISE_BEZIER_KNOTS.);
#506 = CARTESIAN_POINT('',(-2.094395102393,-2.22044604925E-16));
#507 = CARTESIAN_POINT('',(-2.015109589818,-7.081496355292E-02));
#508 = CARTESIAN_POINT('',(-1.93146911321,-0.126070296362));
#509 = CARTESIAN_POINT('',(-1.844070292693,-0.166834320331));
#510 = CARTESIAN_POINT('',(-1.753897947778,-0.193784374113));
#511 = CARTESIAN_POINT('',(-1.662347350851,-0.207259421637));
#512 = CARTESIAN_POINT('',(-1.570796326795,-0.207259421637));
#513 = ( GEOMETRIC_REPRESENTATION_CONTEXT(2) 
PARAMETRIC_REPRESENTATION_CONTEXT() REPRESENTATION_CONTEXT('2D SPACE',''
  ) );
#514 = ORIENTED_EDGE('',*,*,#515,.F.);
#515 = EDGE_CURVE('',#516,#483,#518,.T.);
#516 = VERTEX_POINT('',#517);
#517 = CARTESIAN_POINT('',(-2.886751345948,5.,0.207259421637));
#518 = SURFACE_CURVE('',#519,(#523,#530),.PCURVE_S1.);
#519 = LINE('',#520,#521);
#520 = CARTESIAN_POINT('',(-2.886751345948,5.,0.));
#521 = VECTOR('',#522,1.);
#522 = DIRECTION('',(0.,0.,1.));
#523 = PCURVE('',#410,#524);
#524 = DEFINITIONAL_REPRESENTATION('',(#525),#529);
#525 = LINE('',#526,#527);
#526 = CARTESIAN_POINT('',(5.773502691896,0.));
#527 = VECTOR('',#528,1.);
#528 = DIRECTION('',(0.,-1.));
#529 = ( GEOMETRIC_REPRESENTATION_CONTEXT(2) 
PARAMETRIC_REPRESENTATION_CONTEXT() REPRESENTATION_CONTEXT('2D SPACE',''
  ) );
#530 = PCURVE('',#531,#536);
#531 = PLANE('',#532);
#532 = AXIS2_PLACEMENT_3D('',#533,#534,#535);
#533 = CARTESIAN_POINT('',(-2.886751345948,5.,0.));
#534 = DIRECTION('',(0.866025403784,-0.5,0.));
#535 = DIRECTION('',(-0.5,-0.866025403784,0.));
#536 = DEFINITIONAL_REPRESENTATION('',(#537),#541);
#537 = LINE('',#538,#539);
#538 = CARTESIAN_POINT('',(0.,0.));
#539 = VECTOR('',#540,1.);
#540 = DIRECTION('',(0.,-1.));
#541 = ( GEOMETRIC_REPRESENTATION_CONTEXT(2) 
PARAMETRIC_REPRESENTATION_CONTEXT() REPRESENTATION_CONTEXT('2D SPACE',''
  ) );
#542 = ORIENTED_EDGE('',*,*,#543,.F.);
#543 = EDGE_CURVE('',#149,#516,#544,.T.);
#544 = SURFACE_CURVE('',#545,(#550,#557),.PCURVE_S1.);
#545 = HYPERBOLA('',#546,1.339745962156,5.);
#546 = AXIS2_PLACEMENT_3D('',#547,#548,#549);
#547 = CARTESIAN_POINT('',(7.691850745534E-16,5.,-1.339745962156));
#548 = DIRECTION('',(-1.538370149107E-16,-1.,0.));
#549 = DIRECTION('',(0.,0.,1.));
#550 = PCURVE('',#410,#551);
#551 = DEFINITIONAL_REPRESENTATION('',(#552),#556);
#552 = ( BOUNDED_CURVE() B_SPLINE_CURVE(2,(#553,#554,#555),
.UNSPECIFIED.,.F.,.F.) B_SPLINE_CURVE_WITH_KNOTS((3,3),(
9.260467495332E-17,0.549306144334),.PIECEWISE_BEZIER_KNOTS.) CURVE() 
GEOMETRIC_REPRESENTATION_ITEM() RATIONAL_B_SPLINE_CURVE((1.,
1.037954849302,1.)) REPRESENTATION_ITEM('') );
#553 = CARTESIAN_POINT('',(2.886751345948,0.));
#554 = CARTESIAN_POINT('',(4.226497308104,0.));
#555 = CARTESIAN_POINT('',(5.773502691896,-0.207259421637));
#556 = ( GEOMETRIC_REPRESENTATION_CONTEXT(2) 
PARAMETRIC_REPRESENTATION_CONTEXT() REPRESENTATION_CONTEXT('2D SPACE',''
  ) );
#557 = PCURVE('',#165,#558);
#558 = DEFINITIONAL_REPRESENTATION('',(#559),#567);
#559 = B_SPLINE_CURVE_WITH_KNOTS('',6,(#560,#561,#562,#563,#564,#565,
    #566),.UNSPECIFIED.,.F.,.F.,(7,7),(9.260467495332E-17,0.549306144334
    ),.PIECEWISE_BEZIER_KNOTS.);
#560 = CARTESIAN_POINT('',(1.570796326795,0.));
#561 = CARTESIAN_POINT('',(1.662347350851,1.135843703832E-17));
#562 = CARTESIAN_POINT('',(1.753897947778,1.347504752384E-02));
#563 = CARTESIAN_POINT('',(1.844070292693,4.042510130558E-02));
#564 = CARTESIAN_POINT('',(1.93146911321,8.118912527463E-02));
#565 = CARTESIAN_POINT('',(2.015109589818,0.136444458084));
#566 = CARTESIAN_POINT('',(2.094395102393,0.207259421637));
#567 = ( GEOMETRIC_REPRESENTATION_CONTEXT(2) 
PARAMETRIC_REPRESENTATION_CONTEXT() REPRESENTATION_CONTEXT('2D SPACE',''
  ) );
#568 = ADVANCED_FACE('',(#569),#466,.T.);
#569 = FACE_BOUND('',#570,.T.);
#570 = EDGE_LOOP('',(#571,#599,#600));
#571 = ORIENTED_EDGE('',*,*,#572,.F.);
#572 = EDGE_CURVE('',#427,#573,#575,.T.);
#573 = VERTEX_POINT('',#574);
#574 = CARTESIAN_POINT('',(4.330127018922,2.5,5.));
#575 = SURFACE_CURVE('',#576,(#581,#592),.PCURVE_S1.);
#576 = HYPERBOLA('',#577,1.339745962156,5.);
#577 = AXIS2_PLACEMENT_3D('',#578,#579,#580);
#578 = CARTESIAN_POINT('',(4.330127018922,2.5,6.339745962156));
#579 = DIRECTION('',(-0.866025403784,-0.5,0.));
#580 = DIRECTION('',(-0.,0.,-1.));
#581 = PCURVE('',#466,#582);
#582 = DEFINITIONAL_REPRESENTATION('',(#583),#591);
#583 = B_SPLINE_CURVE_WITH_KNOTS('',6,(#584,#585,#586,#587,#588,#589,
    #590),.UNSPECIFIED.,.F.,.F.,(7,7),(-0.549306144334,
    -2.426548568807E-16),.PIECEWISE_BEZIER_KNOTS.);
#584 = CARTESIAN_POINT('',(-1.047197551197,-2.22044604925E-16));
#585 = CARTESIAN_POINT('',(-0.967912038622,-7.081496355292E-02));
#586 = CARTESIAN_POINT('',(-0.884271562013,-0.126070296362));
#587 = CARTESIAN_POINT('',(-0.796872741496,-0.166834320331));
#588 = CARTESIAN_POINT('',(-0.706700396581,-0.193784374113));
#589 = CARTESIAN_POINT('',(-0.615149799654,-0.207259421637));
#590 = CARTESIAN_POINT('',(-0.523598775598,-0.207259421637));
#591 = ( GEOMETRIC_REPRESENTATION_CONTEXT(2) 
PARAMETRIC_REPRESENTATION_CONTEXT() REPRESENTATION_CONTEXT('2D SPACE',''
  ) );
#592 = PCURVE('',#378,#593);
#593 = DEFINITIONAL_REPRESENTATION('',(#594),#598);
#594 = ( BOUNDED_CURVE() B_SPLINE_CURVE(2,(#595,#596,#597),
.UNSPECIFIED.,.F.,.F.) B_SPLINE_CURVE_WITH_KNOTS((3,3),(-0.549306144334,
-2.426548568807E-16),.PIECEWISE_BEZIER_KNOTS.) CURVE() 
GEOMETRIC_REPRESENTATION_ITEM() RATIONAL_B_SPLINE_CURVE((1.,
1.037954849302,1.)) REPRESENTATION_ITEM('') );
#595 = CARTESIAN_POINT('',(5.773502691896,-4.792740578363));
#596 = CARTESIAN_POINT('',(4.226497308104,-5.));
#597 = CARTESIAN_POINT('',(2.886751345948,-5.));
#598 = ( GEOMETRIC_REPRESENTATION_CONTEXT(2) 
PARAMETRIC_REPRESENTATION_CONTEXT() REPRESENTATION_CONTEXT('2D SPACE',''
  ) );
#599 = ORIENTED_EDGE('',*,*,#449,.F.);
#600 = ORIENTED_EDGE('',*,*,#601,.F.);
#601 = EDGE_CURVE('',#573,#450,#602,.T.);
#602 = SURFACE_CURVE('',#603,(#608,#615),.PCURVE_S1.);
#603 = CIRCLE('',#604,5.);
#604 = AXIS2_PLACEMENT_3D('',#605,#606,#607);
#605 = CARTESIAN_POINT('',(0.,0.,5.));
#606 = DIRECTION('',(0.,0.,1.));
#607 = DIRECTION('',(1.,0.,-0.));
#608 = PCURVE('',#466,#609);
#609 = DEFINITIONAL_REPRESENTATION('',(#610),#614);
#610 = LINE('',#611,#612);
#611 = CARTESIAN_POINT('',(-0.,-0.207259421637));
#612 = VECTOR('',#613,1.);
#613 = DIRECTION('',(-1.,-0.));
#614 = ( GEOMETRIC_REPRESENTATION_CONTEXT(2) 
PARAMETRIC_REPRESENTATION_CONTEXT() REPRESENTATION_CONTEXT('2D SPACE',''
  ) );
#615 = PCURVE('',#616,#621);
#616 = PLANE('',#617);
#617 = AXIS2_PLACEMENT_3D('',#618,#619,#620);
#618 = CARTESIAN_POINT('',(0.,0.,5.));
#619 = DIRECTION('',(0.,0.,1.));
#620 = DIRECTION('',(1.,0.,-0.));
#621 = DEFINITIONAL_REPRESENTATION('',(#622),#626);
#622 = CIRCLE('',#623,5.);
#623 = AXIS2_PLACEMENT_2D('',#624,#625);
#624 = CARTESIAN_POINT('',(0.,0.));
#625 = DIRECTION('',(1.,0.));
#626 = ( GEOMETRIC_REPRESENTATION_CONTEXT(2) 
PARAMETRIC_REPRESENTATION_CONTEXT() REPRESENTATION_CONTEXT('2D SPACE',''
  ) );
#627 = ADVANCED_FACE('',(#628,#773),#616,.T.);
#628 = FACE_BOUND('',#629,.T.);
#629 = EDGE_LOOP('',(#630,#663,#664,#688,#717,#746));
#630 = ORIENTED_EDGE('',*,*,#631,.F.);
#631 = EDGE_CURVE('',#573,#632,#634,.T.);
#632 = VERTEX_POINT('',#633);
#633 = CARTESIAN_POINT('',(4.330126952282,-2.500000115424,5.));
#634 = SURFACE_CURVE('',#635,(#640,#651),.PCURVE_S1.);
#635 = CIRCLE('',#636,5.);
#636 = AXIS2_PLACEMENT_3D('',#637,#638,#639);
#637 = CARTESIAN_POINT('',(0.,0.,5.));
#638 = DIRECTION('',(0.,0.,-1.));
#639 = DIRECTION('',(0.866025403784,0.5,0.));
#640 = PCURVE('',#616,#641);
#641 = DEFINITIONAL_REPRESENTATION('',(#642),#650);
#642 = ( BOUNDED_CURVE() B_SPLINE_CURVE(2,(#643,#644,#645,#646,#647,#648
,#649),.UNSPECIFIED.,.T.,.F.) B_SPLINE_CURVE_WITH_KNOTS((1,2,2,2,2,1),(
    -2.094395102393,0.,2.094395102393,4.188790204786,6.28318530718,
8.377580409573),.UNSPECIFIED.) CURVE() GEOMETRIC_REPRESENTATION_ITEM() 
RATIONAL_B_SPLINE_CURVE((1.,0.5,1.,0.5,1.,0.5,1.)) REPRESENTATION_ITEM(
  '') );
#643 = CARTESIAN_POINT('',(4.330127018922,2.5));
#644 = CARTESIAN_POINT('',(8.660254037844,-5.));
#645 = CARTESIAN_POINT('',(1.7763568394E-15,-5.));
#646 = CARTESIAN_POINT('',(-8.660254037844,-5.));
#647 = CARTESIAN_POINT('',(-4.330127018922,2.5));
#648 = CARTESIAN_POINT('',(-7.993605777301E-15,10.));
#649 = CARTESIAN_POINT('',(4.330127018922,2.5));
#650 = ( GEOMETRIC_REPRESENTATION_CONTEXT(2) 
PARAMETRIC_REPRESENTATION_CONTEXT() REPRESENTATION_CONTEXT('2D SPACE',''
  ) );
#651 = PCURVE('',#652,#657);
#652 = CONICAL_SURFACE('',#653,5.773502691896,1.308996938996);
#653 = AXIS2_PLACEMENT_3D('',#654,#655,#656);
#654 = CARTESIAN_POINT('',(0.,0.,4.792740578363));
#655 = DIRECTION('',(-0.,-0.,-1.));
#656 = DIRECTION('',(1.,0.,-0.));
#657 = DEFINITIONAL_REPRESENTATION('',(#658),#662);
#658 = LINE('',#659,#660);
#659 = CARTESIAN_POINT('',(-6.806784082778,-0.207259421637));
#660 = VECTOR('',#661,1.);
#661 = DIRECTION('',(1.,-0.));
#662 = ( GEOMETRIC_REPRESENTATION_CONTEXT(2) 
PARAMETRIC_REPRESENTATION_CONTEXT() REPRESENTATION_CONTEXT('2D SPACE',''
  ) );
#663 = ORIENTED_EDGE('',*,*,#601,.T.);
#664 = ORIENTED_EDGE('',*,*,#665,.T.);
#665 = EDGE_CURVE('',#450,#666,#668,.T.);
#666 = VERTEX_POINT('',#667);
#667 = CARTESIAN_POINT('',(-4.330127018922,2.5,5.));
#668 = SURFACE_CURVE('',#669,(#674,#681),.PCURVE_S1.);
#669 = CIRCLE('',#670,5.);
#670 = AXIS2_PLACEMENT_3D('',#671,#672,#673);
#671 = CARTESIAN_POINT('',(0.,0.,5.));
#672 = DIRECTION('',(0.,0.,1.));
#673 = DIRECTION('',(1.,0.,-0.));
#674 = PCURVE('',#616,#675);
#675 = DEFINITIONAL_REPRESENTATION('',(#676),#680);
#676 = CIRCLE('',#677,5.);
#677 = AXIS2_PLACEMENT_2D('',#678,#679);
#678 = CARTESIAN_POINT('',(0.,0.));
#679 = DIRECTION('',(1.,0.));
#680 = ( GEOMETRIC_REPRESENTATION_CONTEXT(2) 
PARAMETRIC_REPRESENTATION_CONTEXT() REPRESENTATION_CONTEXT('2D SPACE',''
  ) );
#681 = PCURVE('',#499,#682);
#682 = DEFINITIONAL_REPRESENTATION('',(#683),#687);
#683 = LINE('',#684,#685);
#684 = CARTESIAN_POINT('',(-0.,-0.207259421637));
#685 = VECTOR('',#686,1.);
#686 = DIRECTION('',(-1.,-0.));
#687 = ( GEOMETRIC_REPRESENTATION_CONTEXT(2) 
PARAMETRIC_REPRESENTATION_CONTEXT() REPRESENTATION_CONTEXT('2D SPACE',''
  ) );
#688 = ORIENTED_EDGE('',*,*,#689,.T.);
#689 = EDGE_CURVE('',#666,#690,#692,.T.);
#690 = VERTEX_POINT('',#691);
#691 = CARTESIAN_POINT('',(-4.330127018922,-2.5,5.));
#692 = SURFACE_CURVE('',#693,(#698,#705),.PCURVE_S1.);
#693 = CIRCLE('',#694,5.);
#694 = AXIS2_PLACEMENT_3D('',#695,#696,#697);
#695 = CARTESIAN_POINT('',(0.,0.,5.));
#696 = DIRECTION('',(0.,0.,1.));
#697 = DIRECTION('',(1.,0.,-0.));
#698 = PCURVE('',#616,#699);
#699 = DEFINITIONAL_REPRESENTATION('',(#700),#704);
#700 = CIRCLE('',#701,5.);
#701 = AXIS2_PLACEMENT_2D('',#702,#703);
#702 = CARTESIAN_POINT('',(0.,0.));
#703 = DIRECTION('',(1.,0.));
#704 = ( GEOMETRIC_REPRESENTATION_CONTEXT(2) 
PARAMETRIC_REPRESENTATION_CONTEXT() REPRESENTATION_CONTEXT('2D SPACE',''
  ) );
#705 = PCURVE('',#706,#711);
#706 = CONICAL_SURFACE('',#707,5.773502691896,1.308996938996);
#707 = AXIS2_PLACEMENT_3D('',#708,#709,#710);
#708 = CARTESIAN_POINT('',(0.,0.,4.792740578363));
#709 = DIRECTION('',(-0.,-0.,-1.));
#710 = DIRECTION('',(1.,0.,-0.));
#711 = DEFINITIONAL_REPRESENTATION('',(#712),#716);
#712 = LINE('',#713,#714);
#713 = CARTESIAN_POINT('',(-0.,-0.207259421637));
#714 = VECTOR('',#715,1.);
#715 = DIRECTION('',(-1.,-0.));
#716 = ( GEOMETRIC_REPRESENTATION_CONTEXT(2) 
PARAMETRIC_REPRESENTATION_CONTEXT() REPRESENTATION_CONTEXT('2D SPACE',''
  ) );
#717 = ORIENTED_EDGE('',*,*,#718,.T.);
#718 = EDGE_CURVE('',#690,#719,#721,.T.);
#719 = VERTEX_POINT('',#720);
#720 = CARTESIAN_POINT('',(-9.184850993605E-16,-5.,5.));
#721 = SURFACE_CURVE('',#722,(#727,#734),.PCURVE_S1.);
#722 = CIRCLE('',#723,5.);
#723 = AXIS2_PLACEMENT_3D('',#724,#725,#726);
#724 = CARTESIAN_POINT('',(0.,0.,5.));
#725 = DIRECTION('',(0.,0.,1.));
#726 = DIRECTION('',(1.,0.,-0.));
#727 = PCURVE('',#616,#728);
#728 = DEFINITIONAL_REPRESENTATION('',(#729),#733);
#729 = CIRCLE('',#730,5.);
#730 = AXIS2_PLACEMENT_2D('',#731,#732);
#731 = CARTESIAN_POINT('',(0.,0.));
#732 = DIRECTION('',(1.,0.));
#733 = ( GEOMETRIC_REPRESENTATION_CONTEXT(2) 
PARAMETRIC_REPRESENTATION_CONTEXT() REPRESENTATION_CONTEXT('2D SPACE',''
  ) );
#734 = PCURVE('',#735,#740);
#735 = CONICAL_SURFACE('',#736,5.773502691896,1.308996938996);
#736 = AXIS2_PLACEMENT_3D('',#737,#738,#739);
#737 = CARTESIAN_POINT('',(0.,0.,4.792740578363));
#738 = DIRECTION('',(-0.,-0.,-1.));
#739 = DIRECTION('',(1.,0.,-0.));
#740 = DEFINITIONAL_REPRESENTATION('',(#741),#745);
#741 = LINE('',#742,#743);
#742 = CARTESIAN_POINT('',(-0.,-0.207259421637));
#743 = VECTOR('',#744,1.);
#744 = DIRECTION('',(-1.,-0.));
#745 = ( GEOMETRIC_REPRESENTATION_CONTEXT(2) 
PARAMETRIC_REPRESENTATION_CONTEXT() REPRESENTATION_CONTEXT('2D SPACE',''
  ) );
#746 = ORIENTED_EDGE('',*,*,#747,.T.);
#747 = EDGE_CURVE('',#719,#632,#748,.T.);
#748 = SURFACE_CURVE('',#749,(#754,#761),.PCURVE_S1.);
#749 = CIRCLE('',#750,5.);
#750 = AXIS2_PLACEMENT_3D('',#751,#752,#753);
#751 = CARTESIAN_POINT('',(0.,0.,5.));
#752 = DIRECTION('',(0.,0.,1.));
#753 = DIRECTION('',(1.,0.,-0.));
#754 = PCURVE('',#616,#755);
#755 = DEFINITIONAL_REPRESENTATION('',(#756),#760);
#756 = CIRCLE('',#757,5.);
#757 = AXIS2_PLACEMENT_2D('',#758,#759);
#758 = CARTESIAN_POINT('',(0.,0.));
#759 = DIRECTION('',(1.,0.));
#760 = ( GEOMETRIC_REPRESENTATION_CONTEXT(2) 
PARAMETRIC_REPRESENTATION_CONTEXT() REPRESENTATION_CONTEXT('2D SPACE',''
  ) );
#761 = PCURVE('',#762,#767);
#762 = CONICAL_SURFACE('',#763,5.773502691896,1.308996938996);
#763 = AXIS2_PLACEMENT_3D('',#764,#765,#766);
#764 = CARTESIAN_POINT('',(0.,0.,4.792740578363));
#765 = DIRECTION('',(-0.,-0.,-1.));
#766 = DIRECTION('',(1.,0.,-0.));
#767 = DEFINITIONAL_REPRESENTATION('',(#768),#772);
#768 = LINE('',#769,#770);
#769 = CARTESIAN_POINT('',(-0.,-0.207259421637));
#770 = VECTOR('',#771,1.);
#771 = DIRECTION('',(-1.,-0.));
#772 = ( GEOMETRIC_REPRESENTATION_CONTEXT(2) 
PARAMETRIC_REPRESENTATION_CONTEXT() REPRESENTATION_CONTEXT('2D SPACE',''
  ) );
#773 = FACE_BOUND('',#774,.T.);
#774 = EDGE_LOOP('',(#775));
#775 = ORIENTED_EDGE('',*,*,#776,.F.);
#776 = EDGE_CURVE('',#777,#777,#779,.T.);
#777 = VERTEX_POINT('',#778);
#778 = CARTESIAN_POINT('',(4.75,0.,5.));
#779 = SURFACE_CURVE('',#780,(#785,#792),.PCURVE_S1.);
#780 = CIRCLE('',#781,4.75);
#781 = AXIS2_PLACEMENT_3D('',#782,#783,#784);
#782 = CARTESIAN_POINT('',(0.,0.,5.));
#783 = DIRECTION('',(0.,0.,1.));
#784 = DIRECTION('',(1.,0.,-0.));
#785 = PCURVE('',#616,#786);
#786 = DEFINITIONAL_REPRESENTATION('',(#787),#791);
#787 = CIRCLE('',#788,4.75);
#788 = AXIS2_PLACEMENT_2D('',#789,#790);
#789 = CARTESIAN_POINT('',(0.,0.));
#790 = DIRECTION('',(1.,0.));
#791 = ( GEOMETRIC_REPRESENTATION_CONTEXT(2) 
PARAMETRIC_REPRESENTATION_CONTEXT() REPRESENTATION_CONTEXT('2D SPACE',''
  ) );
#792 = PCURVE('',#793,#798);
#793 = SPHERICAL_SURFACE('',#794,4.75);
#794 = AXIS2_PLACEMENT_3D('',#795,#796,#797);
#795 = CARTESIAN_POINT('',(5.551115123126E-16,0.,5.));
#796 = DIRECTION('',(0.,0.,1.));
#797 = DIRECTION('',(1.,0.,-0.));
#798 = DEFINITIONAL_REPRESENTATION('',(#799),#803);
#799 = LINE('',#800,#801);
#800 = CARTESIAN_POINT('',(0.,0.));
#801 = VECTOR('',#802,1.);
#802 = DIRECTION('',(1.,0.));
#803 = ( GEOMETRIC_REPRESENTATION_CONTEXT(2) 
PARAMETRIC_REPRESENTATION_CONTEXT() REPRESENTATION_CONTEXT('2D SPACE',''
  ) );
#804 = ADVANCED_FACE('',(#805),#793,.T.);
#805 = FACE_BOUND('',#806,.T.);
#806 = EDGE_LOOP('',(#807,#808,#832));
#807 = ORIENTED_EDGE('',*,*,#776,.T.);
#808 = ORIENTED_EDGE('',*,*,#809,.T.);
#809 = EDGE_CURVE('',#777,#810,#812,.T.);
#810 = VERTEX_POINT('',#811);
#811 = CARTESIAN_POINT('',(-2.087467462838E-16,0.,9.75));
#812 = SEAM_CURVE('',#813,(#818,#825),.PCURVE_S1.);
#813 = CIRCLE('',#814,4.75);
#814 = AXIS2_PLACEMENT_3D('',#815,#816,#817);
#815 = CARTESIAN_POINT('',(5.551115123126E-16,0.,5.));
#816 = DIRECTION('',(0.,-1.,0.));
#817 = DIRECTION('',(1.,0.,0.));
#818 = PCURVE('',#793,#819);
#819 = DEFINITIONAL_REPRESENTATION('',(#820),#824);
#820 = LINE('',#821,#822);
#821 = CARTESIAN_POINT('',(0.,0.));
#822 = VECTOR('',#823,1.);
#823 = DIRECTION('',(0.,1.));
#824 = ( GEOMETRIC_REPRESENTATION_CONTEXT(2) 
PARAMETRIC_REPRESENTATION_CONTEXT() REPRESENTATION_CONTEXT('2D SPACE',''
  ) );
#825 = PCURVE('',#793,#826);
#826 = DEFINITIONAL_REPRESENTATION('',(#827),#831);
#827 = LINE('',#828,#829);
#828 = CARTESIAN_POINT('',(6.28318530718,0.));
#829 = VECTOR('',#830,1.);
#830 = DIRECTION('',(0.,1.));
#831 = ( GEOMETRIC_REPRESENTATION_CONTEXT(2) 
PARAMETRIC_REPRESENTATION_CONTEXT() REPRESENTATION_CONTEXT('2D SPACE',''
  ) );
#832 = ORIENTED_EDGE('',*,*,#809,.F.);
#833 = ADVANCED_FACE('',(#834),#762,.T.);
#834 = FACE_BOUND('',#835,.T.);
#835 = EDGE_LOOP('',(#836,#869,#900));
#836 = ORIENTED_EDGE('',*,*,#837,.F.);
#837 = EDGE_CURVE('',#838,#719,#840,.T.);
#838 = VERTEX_POINT('',#839);
#839 = CARTESIAN_POINT('',(2.886751345948,-5.,4.792740578363));
#840 = SURFACE_CURVE('',#841,(#846,#857),.PCURVE_S1.);
#841 = HYPERBOLA('',#842,1.339745962156,5.);
#842 = AXIS2_PLACEMENT_3D('',#843,#844,#845);
#843 = CARTESIAN_POINT('',(-2.30755522366E-15,-5.,6.339745962156));
#844 = DIRECTION('',(4.615110447321E-16,1.,0.));
#845 = DIRECTION('',(0.,-0.,-1.));
#846 = PCURVE('',#762,#847);
#847 = DEFINITIONAL_REPRESENTATION('',(#848),#856);
#848 = B_SPLINE_CURVE_WITH_KNOTS('',6,(#849,#850,#851,#852,#853,#854,
    #855),.UNSPECIFIED.,.F.,.F.,(7,7),(-0.549306144334,-2.7781402486E-16
    ),.PIECEWISE_BEZIER_KNOTS.);
#849 = CARTESIAN_POINT('',(-5.235987755983,-2.22044604925E-16));
#850 = CARTESIAN_POINT('',(-5.156702243408,-7.081496355292E-02));
#851 = CARTESIAN_POINT('',(-5.073061766799,-0.126070296362));
#852 = CARTESIAN_POINT('',(-4.985662946282,-0.166834320331));
#853 = CARTESIAN_POINT('',(-4.895490601367,-0.193784374113));
#854 = CARTESIAN_POINT('',(-4.80394000444,-0.207259421637));
#855 = CARTESIAN_POINT('',(-4.712388980385,-0.207259421637));
#856 = ( GEOMETRIC_REPRESENTATION_CONTEXT(2) 
PARAMETRIC_REPRESENTATION_CONTEXT() REPRESENTATION_CONTEXT('2D SPACE',''
  ) );
#857 = PCURVE('',#858,#863);
#858 = PLANE('',#859);
#859 = AXIS2_PLACEMENT_3D('',#860,#861,#862);
#860 = CARTESIAN_POINT('',(-2.886751345948,-5.,0.));
#861 = DIRECTION('',(4.615110447321E-16,1.,-0.));
#862 = DIRECTION('',(1.,-4.615110447321E-16,0.));
#863 = DEFINITIONAL_REPRESENTATION('',(#864),#868);
#864 = ( BOUNDED_CURVE() B_SPLINE_CURVE(2,(#865,#866,#867),
.UNSPECIFIED.,.F.,.F.) B_SPLINE_CURVE_WITH_KNOTS((3,3),(-0.549306144334,
-2.7781402486E-16),.PIECEWISE_BEZIER_KNOTS.) CURVE() 
GEOMETRIC_REPRESENTATION_ITEM() RATIONAL_B_SPLINE_CURVE((1.,
1.037954849302,1.)) REPRESENTATION_ITEM('') );
#865 = CARTESIAN_POINT('',(5.773502691896,-4.792740578363));
#866 = CARTESIAN_POINT('',(4.226497308104,-5.));
#867 = CARTESIAN_POINT('',(2.886751345948,-5.));
#868 = ( GEOMETRIC_REPRESENTATION_CONTEXT(2) 
PARAMETRIC_REPRESENTATION_CONTEXT() REPRESENTATION_CONTEXT('2D SPACE',''
  ) );
#869 = ORIENTED_EDGE('',*,*,#870,.F.);
#870 = EDGE_CURVE('',#632,#838,#871,.T.);
#871 = SURFACE_CURVE('',#872,(#877,#888),.PCURVE_S1.);
#872 = HYPERBOLA('',#873,1.339745962156,5.);
#873 = AXIS2_PLACEMENT_3D('',#874,#875,#876);
#874 = CARTESIAN_POINT('',(4.330127018922,-2.5,6.339745962156));
#875 = DIRECTION('',(-0.866025403784,0.5,0.));
#876 = DIRECTION('',(-0.,0.,-1.));
#877 = PCURVE('',#762,#878);
#878 = DEFINITIONAL_REPRESENTATION('',(#879),#887);
#879 = B_SPLINE_CURVE_WITH_KNOTS('',6,(#880,#881,#882,#883,#884,#885,
    #886),.UNSPECIFIED.,.F.,.F.,(7,7),(-2.665600697184E-08,
    0.549306144334),.PIECEWISE_BEZIER_KNOTS.);
#880 = CARTESIAN_POINT('',(-5.759586558237,-0.207259421637));
#881 = CARTESIAN_POINT('',(-5.668035529739,-0.207259424906));
#882 = CARTESIAN_POINT('',(-5.576484928102,-0.193784379344));
#883 = CARTESIAN_POINT('',(-5.486312578407,-0.166834326266));
#884 = CARTESIAN_POINT('',(-5.398913753284,-0.126070301725));
#885 = CARTESIAN_POINT('',(-5.315273272405,-7.081496698934E-02));
#886 = CARTESIAN_POINT('',(-5.235987755983,-2.22044604925E-16));
#887 = ( GEOMETRIC_REPRESENTATION_CONTEXT(2) 
PARAMETRIC_REPRESENTATION_CONTEXT() REPRESENTATION_CONTEXT('2D SPACE',''
  ) );
#888 = PCURVE('',#889,#894);
#889 = PLANE('',#890);
#890 = AXIS2_PLACEMENT_3D('',#891,#892,#893);
#891 = CARTESIAN_POINT('',(2.886751345948,-5.,0.));
#892 = DIRECTION('',(-0.866025403784,0.5,0.));
#893 = DIRECTION('',(0.5,0.866025403784,0.));
#894 = DEFINITIONAL_REPRESENTATION('',(#895),#899);
#895 = ( BOUNDED_CURVE() B_SPLINE_CURVE(2,(#896,#897,#898),
.UNSPECIFIED.,.F.,.F.) B_SPLINE_CURVE_WITH_KNOTS((3,3),(
-2.665600697184E-08,0.549306144334),.PIECEWISE_BEZIER_KNOTS.) CURVE() 
GEOMETRIC_REPRESENTATION_ITEM() RATIONAL_B_SPLINE_CURVE((1.,
1.037954853009,1.)) REPRESENTATION_ITEM('') );
#896 = CARTESIAN_POINT('',(2.886751479228,-5.));
#897 = CARTESIAN_POINT('',(1.547005455217,-5.000000009569));
#898 = CARTESIAN_POINT('',(0.,-4.792740578363));
#899 = ( GEOMETRIC_REPRESENTATION_CONTEXT(2) 
PARAMETRIC_REPRESENTATION_CONTEXT() REPRESENTATION_CONTEXT('2D SPACE',''
  ) );
#900 = ORIENTED_EDGE('',*,*,#747,.F.);
#901 = ADVANCED_FACE('',(#902),#889,.F.);
#902 = FACE_BOUND('',#903,.F.);
#903 = EDGE_LOOP('',(#904,#932,#953,#954,#982,#1005));
#904 = ORIENTED_EDGE('',*,*,#905,.F.);
#905 = EDGE_CURVE('',#906,#24,#908,.T.);
#906 = VERTEX_POINT('',#907);
#907 = CARTESIAN_POINT('',(2.886751345948,-5.,0.207259421637));
#908 = SURFACE_CURVE('',#909,(#914,#921),.PCURVE_S1.);
#909 = HYPERBOLA('',#910,1.339745962156,5.);
#910 = AXIS2_PLACEMENT_3D('',#911,#912,#913);
#911 = CARTESIAN_POINT('',(4.330127018922,-2.5,-1.339745962156));
#912 = DIRECTION('',(-0.866025403784,0.5,0.));
#913 = DIRECTION('',(0.,0.,1.));
#914 = PCURVE('',#889,#915);
#915 = DEFINITIONAL_REPRESENTATION('',(#916),#920);
#916 = ( BOUNDED_CURVE() B_SPLINE_CURVE(2,(#917,#918,#919),
.UNSPECIFIED.,.F.,.F.) B_SPLINE_CURVE_WITH_KNOTS((3,3),(-0.549306144334,
-2.665600817322E-08),.PIECEWISE_BEZIER_KNOTS.) CURVE() 
GEOMETRIC_REPRESENTATION_ITEM() RATIONAL_B_SPLINE_CURVE((1.,
1.037954845595,1.)) REPRESENTATION_ITEM('') );
#917 = CARTESIAN_POINT('',(0.,-0.207259421637));
#918 = CARTESIAN_POINT('',(1.547005312368,-9.569075976046E-09));
#919 = CARTESIAN_POINT('',(2.886751212668,-2.22044604925E-16));
#920 = ( GEOMETRIC_REPRESENTATION_CONTEXT(2) 
PARAMETRIC_REPRESENTATION_CONTEXT() REPRESENTATION_CONTEXT('2D SPACE',''
  ) );
#921 = PCURVE('',#78,#922);
#922 = DEFINITIONAL_REPRESENTATION('',(#923),#931);
#923 = B_SPLINE_CURVE_WITH_KNOTS('',6,(#924,#925,#926,#927,#928,#929,
    #930),.UNSPECIFIED.,.F.,.F.,(7,7),(-0.549306144334,
    -2.665600817322E-08),.PIECEWISE_BEZIER_KNOTS.);
#924 = CARTESIAN_POINT('',(5.235987755983,0.207259421637));
#925 = CARTESIAN_POINT('',(5.31527326471,0.13644446152));
#926 = CARTESIAN_POINT('',(5.398913737049,8.118913063735E-02));
#927 = CARTESIAN_POINT('',(5.486312552959,4.042510724E-02));
#928 = CARTESIAN_POINT('',(5.576484893096,1.347505275503E-02));
#929 = CARTESIAN_POINT('',(5.668035485312,3.269495607936E-09));
#930 = CARTESIAN_POINT('',(5.759586504925,1.487416814334E-17));
#931 = ( GEOMETRIC_REPRESENTATION_CONTEXT(2) 
PARAMETRIC_REPRESENTATION_CONTEXT() REPRESENTATION_CONTEXT('2D SPACE',''
  ) );
#932 = ORIENTED_EDGE('',*,*,#933,.T.);
#933 = EDGE_CURVE('',#906,#838,#934,.T.);
#934 = SURFACE_CURVE('',#935,(#939,#946),.PCURVE_S1.);
#935 = LINE('',#936,#937);
#936 = CARTESIAN_POINT('',(2.886751345948,-5.,0.));
#937 = VECTOR('',#938,1.);
#938 = DIRECTION('',(0.,0.,1.));
#939 = PCURVE('',#889,#940);
#940 = DEFINITIONAL_REPRESENTATION('',(#941),#945);
#941 = LINE('',#942,#943);
#942 = CARTESIAN_POINT('',(0.,0.));
#943 = VECTOR('',#944,1.);
#944 = DIRECTION('',(0.,-1.));
#945 = ( GEOMETRIC_REPRESENTATION_CONTEXT(2) 
PARAMETRIC_REPRESENTATION_CONTEXT() REPRESENTATION_CONTEXT('2D SPACE',''
  ) );
#946 = PCURVE('',#858,#947);
#947 = DEFINITIONAL_REPRESENTATION('',(#948),#952);
#948 = LINE('',#949,#950);
#949 = CARTESIAN_POINT('',(5.773502691896,0.));
#950 = VECTOR('',#951,1.);
#951 = DIRECTION('',(0.,-1.));
#952 = ( GEOMETRIC_REPRESENTATION_CONTEXT(2) 
PARAMETRIC_REPRESENTATION_CONTEXT() REPRESENTATION_CONTEXT('2D SPACE',''
  ) );
#953 = ORIENTED_EDGE('',*,*,#870,.F.);
#954 = ORIENTED_EDGE('',*,*,#955,.F.);
#955 = EDGE_CURVE('',#956,#632,#958,.T.);
#956 = VERTEX_POINT('',#957);
#957 = CARTESIAN_POINT('',(5.773502691896,0.,4.792740578363));
#958 = SURFACE_CURVE('',#959,(#964,#971),.PCURVE_S1.);
#959 = HYPERBOLA('',#960,1.339745962156,5.);
#960 = AXIS2_PLACEMENT_3D('',#961,#962,#963);
#961 = CARTESIAN_POINT('',(4.330127018922,-2.5,6.339745962156));
#962 = DIRECTION('',(-0.866025403784,0.5,0.));
#963 = DIRECTION('',(-0.,0.,-1.));
#964 = PCURVE('',#889,#965);
#965 = DEFINITIONAL_REPRESENTATION('',(#966),#970);
#966 = ( BOUNDED_CURVE() B_SPLINE_CURVE(2,(#967,#968,#969),
.UNSPECIFIED.,.F.,.F.) B_SPLINE_CURVE_WITH_KNOTS((3,3),(-0.549306144334,
-2.665600697184E-08),.PIECEWISE_BEZIER_KNOTS.) CURVE() 
GEOMETRIC_REPRESENTATION_ITEM() RATIONAL_B_SPLINE_CURVE((1.,
1.037954845595,1.)) REPRESENTATION_ITEM('') );
#967 = CARTESIAN_POINT('',(5.773502691896,-4.792740578363));
#968 = CARTESIAN_POINT('',(4.226497379528,-4.999999990431));
#969 = CARTESIAN_POINT('',(2.886751479228,-5.));
#970 = ( GEOMETRIC_REPRESENTATION_CONTEXT(2) 
PARAMETRIC_REPRESENTATION_CONTEXT() REPRESENTATION_CONTEXT('2D SPACE',''
  ) );
#971 = PCURVE('',#652,#972);
#972 = DEFINITIONAL_REPRESENTATION('',(#973),#981);
#973 = B_SPLINE_CURVE_WITH_KNOTS('',6,(#974,#975,#976,#977,#978,#979,
    #980),.UNSPECIFIED.,.F.,.F.,(7,7),(-0.549306144334,
    -2.665600697184E-08),.PIECEWISE_BEZIER_KNOTS.);
#974 = CARTESIAN_POINT('',(-6.28318530718,-2.22044604925E-16));
#975 = CARTESIAN_POINT('',(-6.203899798452,-7.081496011651E-02));
#976 = CARTESIAN_POINT('',(-6.120259326114,-0.126070291));
#977 = CARTESIAN_POINT('',(-6.032860510203,-0.166834314397));
#978 = CARTESIAN_POINT('',(-5.942688170067,-0.193784368882));
#979 = CARTESIAN_POINT('',(-5.85113757785,-0.207259418367));
#980 = CARTESIAN_POINT('',(-5.759586558237,-0.207259421637));
#981 = ( GEOMETRIC_REPRESENTATION_CONTEXT(2) 
PARAMETRIC_REPRESENTATION_CONTEXT() REPRESENTATION_CONTEXT('2D SPACE',''
  ) );
#982 = ORIENTED_EDGE('',*,*,#983,.F.);
#983 = EDGE_CURVE('',#984,#956,#986,.T.);
#984 = VERTEX_POINT('',#985);
#985 = CARTESIAN_POINT('',(5.773502691896,0.,0.207259421637));
#986 = SURFACE_CURVE('',#987,(#991,#998),.PCURVE_S1.);
#987 = LINE('',#988,#989);
#988 = CARTESIAN_POINT('',(5.773502691896,0.,0.207259421637));
#989 = VECTOR('',#990,1.);
#990 = DIRECTION('',(0.,0.,1.));
#991 = PCURVE('',#889,#992);
#992 = DEFINITIONAL_REPRESENTATION('',(#993),#997);
#993 = LINE('',#994,#995);
#994 = CARTESIAN_POINT('',(5.773502691896,-0.207259421637));
#995 = VECTOR('',#996,1.);
#996 = DIRECTION('',(0.,-1.));
#997 = ( GEOMETRIC_REPRESENTATION_CONTEXT(2) 
PARAMETRIC_REPRESENTATION_CONTEXT() REPRESENTATION_CONTEXT('2D SPACE',''
  ) );
#998 = PCURVE('',#378,#999);
#999 = DEFINITIONAL_REPRESENTATION('',(#1000),#1004);
#1000 = LINE('',#1001,#1002);
#1001 = CARTESIAN_POINT('',(0.,-0.207259421637));
#1002 = VECTOR('',#1003,1.);
#1003 = DIRECTION('',(0.,-1.));
#1004 = ( GEOMETRIC_REPRESENTATION_CONTEXT(2) 
PARAMETRIC_REPRESENTATION_CONTEXT() REPRESENTATION_CONTEXT('2D SPACE',''
  ) );
#1005 = ORIENTED_EDGE('',*,*,#1006,.F.);
#1006 = EDGE_CURVE('',#24,#984,#1007,.T.);
#1007 = SURFACE_CURVE('',#1008,(#1013,#1020),.PCURVE_S1.);
#1008 = HYPERBOLA('',#1009,1.339745962156,5.);
#1009 = AXIS2_PLACEMENT_3D('',#1010,#1011,#1012);
#1010 = CARTESIAN_POINT('',(4.330127018922,-2.5,-1.339745962156));
#1011 = DIRECTION('',(-0.866025403784,0.5,0.));
#1012 = DIRECTION('',(0.,0.,1.));
#1013 = PCURVE('',#889,#1014);
#1014 = DEFINITIONAL_REPRESENTATION('',(#1015),#1019);
#1015 = ( BOUNDED_CURVE() B_SPLINE_CURVE(2,(#1016,#1017,#1018),
.UNSPECIFIED.,.F.,.F.) B_SPLINE_CURVE_WITH_KNOTS((3,3),(
-2.665600817322E-08,0.549306144334),.PIECEWISE_BEZIER_KNOTS.) CURVE() 
GEOMETRIC_REPRESENTATION_ITEM() RATIONAL_B_SPLINE_CURVE((1.,
1.037954853009,1.)) REPRESENTATION_ITEM('') );
#1016 = CARTESIAN_POINT('',(2.886751212668,-2.22044604925E-16));
#1017 = CARTESIAN_POINT('',(4.226497236679,9.569076864224E-09));
#1018 = CARTESIAN_POINT('',(5.773502691896,-0.207259421637));
#1019 = ( GEOMETRIC_REPRESENTATION_CONTEXT(2) 
PARAMETRIC_REPRESENTATION_CONTEXT() REPRESENTATION_CONTEXT('2D SPACE',''
  ) );
#1020 = PCURVE('',#49,#1021);
#1021 = DEFINITIONAL_REPRESENTATION('',(#1022),#1030);
#1022 = B_SPLINE_CURVE_WITH_KNOTS('',6,(#1023,#1024,#1025,#1026,#1027,
    #1028,#1029),.UNSPECIFIED.,.F.,.F.,(7,7),(-2.665600817322E-08,
    0.549306144334),.PIECEWISE_BEZIER_KNOTS.);
#1023 = CARTESIAN_POINT('',(5.759586504925,1.487416814334E-17));
#1024 = CARTESIAN_POINT('',(5.851137533424,-3.269495895503E-09));
#1025 = CARTESIAN_POINT('',(5.942688135061,1.347504229265E-02));
#1026 = CARTESIAN_POINT('',(6.032860484755,4.042509537115E-02));
#1027 = CARTESIAN_POINT('',(6.120259309878,8.118911991191E-02));
#1028 = CARTESIAN_POINT('',(6.203899790757,0.136444454648));
#1029 = CARTESIAN_POINT('',(6.28318530718,0.207259421637));
#1030 = ( GEOMETRIC_REPRESENTATION_CONTEXT(2) 
PARAMETRIC_REPRESENTATION_CONTEXT() REPRESENTATION_CONTEXT('2D SPACE',''
  ) );
#1031 = ADVANCED_FACE('',(#1032),#858,.F.);
#1032 = FACE_BOUND('',#1033,.F.);
#1033 = EDGE_LOOP('',(#1034,#1062,#1090,#1116,#1117,#1118));
#1034 = ORIENTED_EDGE('',*,*,#1035,.F.);
#1035 = EDGE_CURVE('',#1036,#62,#1038,.T.);
#1036 = VERTEX_POINT('',#1037);
#1037 = CARTESIAN_POINT('',(-2.886751345948,-5.,0.207259421637));
#1038 = SURFACE_CURVE('',#1039,(#1044,#1051),.PCURVE_S1.);
#1039 = HYPERBOLA('',#1040,1.339745962156,5.);
#1040 = AXIS2_PLACEMENT_3D('',#1041,#1042,#1043);
#1041 = CARTESIAN_POINT('',(-2.30755522366E-15,-5.,-1.339745962156));
#1042 = DIRECTION('',(4.615110447321E-16,1.,-0.));
#1043 = DIRECTION('',(0.,0.,1.));
#1044 = PCURVE('',#858,#1045);
#1045 = DEFINITIONAL_REPRESENTATION('',(#1046),#1050);
#1046 = ( BOUNDED_CURVE() B_SPLINE_CURVE(2,(#1047,#1048,#1049),
.UNSPECIFIED.,.F.,.F.) B_SPLINE_CURVE_WITH_KNOTS((3,3),(-0.549306144334,
2.7781402486E-16),.PIECEWISE_BEZIER_KNOTS.) CURVE() 
GEOMETRIC_REPRESENTATION_ITEM() RATIONAL_B_SPLINE_CURVE((1.,
1.037954849302,1.)) REPRESENTATION_ITEM('') );
#1047 = CARTESIAN_POINT('',(0.,-0.207259421637));
#1048 = CARTESIAN_POINT('',(1.547005383793,-2.22044604925E-16));
#1049 = CARTESIAN_POINT('',(2.886751345948,-2.22044604925E-16));
#1050 = ( GEOMETRIC_REPRESENTATION_CONTEXT(2) 
PARAMETRIC_REPRESENTATION_CONTEXT() REPRESENTATION_CONTEXT('2D SPACE',''
  ) );
#1051 = PCURVE('',#107,#1052);
#1052 = DEFINITIONAL_REPRESENTATION('',(#1053),#1061);
#1053 = B_SPLINE_CURVE_WITH_KNOTS('',6,(#1054,#1055,#1056,#1057,#1058,
    #1059,#1060),.UNSPECIFIED.,.F.,.F.,(7,7),(-0.549306144334,
    2.7781402486E-16),.PIECEWISE_BEZIER_KNOTS.);
#1054 = CARTESIAN_POINT('',(4.188790204786,0.207259421637));
#1055 = CARTESIAN_POINT('',(4.268075717361,0.136444458084));
#1056 = CARTESIAN_POINT('',(4.35171619397,8.118912527463E-02));
#1057 = CARTESIAN_POINT('',(4.439115014486,4.042510130557E-02));
#1058 = CARTESIAN_POINT('',(4.529287359402,1.347504752384E-02));
#1059 = CARTESIAN_POINT('',(4.620837956329,2.028434619534E-16));
#1060 = CARTESIAN_POINT('',(4.712388980385,2.369187730684E-16));
#1061 = ( GEOMETRIC_REPRESENTATION_CONTEXT(2) 
PARAMETRIC_REPRESENTATION_CONTEXT() REPRESENTATION_CONTEXT('2D SPACE',''
  ) );
#1062 = ORIENTED_EDGE('',*,*,#1063,.T.);
#1063 = EDGE_CURVE('',#1036,#1064,#1066,.T.);
#1064 = VERTEX_POINT('',#1065);
#1065 = CARTESIAN_POINT('',(-2.886751345948,-5.,4.792740578363));
#1066 = SURFACE_CURVE('',#1067,(#1071,#1078),.PCURVE_S1.);
#1067 = LINE('',#1068,#1069);
#1068 = CARTESIAN_POINT('',(-2.886751345948,-5.,0.));
#1069 = VECTOR('',#1070,1.);
#1070 = DIRECTION('',(0.,0.,1.));
#1071 = PCURVE('',#858,#1072);
#1072 = DEFINITIONAL_REPRESENTATION('',(#1073),#1077);
#1073 = LINE('',#1074,#1075);
#1074 = CARTESIAN_POINT('',(0.,0.));
#1075 = VECTOR('',#1076,1.);
#1076 = DIRECTION('',(0.,-1.));
#1077 = ( GEOMETRIC_REPRESENTATION_CONTEXT(2) 
PARAMETRIC_REPRESENTATION_CONTEXT() REPRESENTATION_CONTEXT('2D SPACE',''
  ) );
#1078 = PCURVE('',#1079,#1084);
#1079 = PLANE('',#1080);
#1080 = AXIS2_PLACEMENT_3D('',#1081,#1082,#1083);
#1081 = CARTESIAN_POINT('',(-5.773502691896,7.070501591499E-16,0.));
#1082 = DIRECTION('',(0.866025403784,0.5,-0.));
#1083 = DIRECTION('',(0.5,-0.866025403784,0.));
#1084 = DEFINITIONAL_REPRESENTATION('',(#1085),#1089);
#1085 = LINE('',#1086,#1087);
#1086 = CARTESIAN_POINT('',(5.773502691896,0.));
#1087 = VECTOR('',#1088,1.);
#1088 = DIRECTION('',(0.,-1.));
#1089 = ( GEOMETRIC_REPRESENTATION_CONTEXT(2) 
PARAMETRIC_REPRESENTATION_CONTEXT() REPRESENTATION_CONTEXT('2D SPACE',''
  ) );
#1090 = ORIENTED_EDGE('',*,*,#1091,.F.);
#1091 = EDGE_CURVE('',#719,#1064,#1092,.T.);
#1092 = SURFACE_CURVE('',#1093,(#1098,#1105),.PCURVE_S1.);
#1093 = HYPERBOLA('',#1094,1.339745962156,5.);
#1094 = AXIS2_PLACEMENT_3D('',#1095,#1096,#1097);
#1095 = CARTESIAN_POINT('',(-2.30755522366E-15,-5.,6.339745962156));
#1096 = DIRECTION('',(4.615110447321E-16,1.,0.));
#1097 = DIRECTION('',(0.,-0.,-1.));
#1098 = PCURVE('',#858,#1099);
#1099 = DEFINITIONAL_REPRESENTATION('',(#1100),#1104);
#1100 = ( BOUNDED_CURVE() B_SPLINE_CURVE(2,(#1101,#1102,#1103),
.UNSPECIFIED.,.F.,.F.) B_SPLINE_CURVE_WITH_KNOTS((3,3),(
-2.7781402486E-16,0.549306144334),.PIECEWISE_BEZIER_KNOTS.) CURVE() 
GEOMETRIC_REPRESENTATION_ITEM() RATIONAL_B_SPLINE_CURVE((1.,
1.037954849302,1.)) REPRESENTATION_ITEM('') );
#1101 = CARTESIAN_POINT('',(2.886751345948,-5.));
#1102 = CARTESIAN_POINT('',(1.547005383793,-5.));
#1103 = CARTESIAN_POINT('',(0.,-4.792740578363));
#1104 = ( GEOMETRIC_REPRESENTATION_CONTEXT(2) 
PARAMETRIC_REPRESENTATION_CONTEXT() REPRESENTATION_CONTEXT('2D SPACE',''
  ) );
#1105 = PCURVE('',#735,#1106);
#1106 = DEFINITIONAL_REPRESENTATION('',(#1107),#1115);
#1107 = B_SPLINE_CURVE_WITH_KNOTS('',6,(#1108,#1109,#1110,#1111,#1112,
    #1113,#1114),.UNSPECIFIED.,.F.,.F.,(7,7),(-2.7781402486E-16,
    0.549306144334),.PIECEWISE_BEZIER_KNOTS.);
#1108 = CARTESIAN_POINT('',(-4.712388980385,-0.207259421637));
#1109 = CARTESIAN_POINT('',(-4.620837956329,-0.207259421637));
#1110 = CARTESIAN_POINT('',(-4.529287359402,-0.193784374113));
#1111 = CARTESIAN_POINT('',(-4.439115014486,-0.166834320331));
#1112 = CARTESIAN_POINT('',(-4.35171619397,-0.126070296362));
#1113 = CARTESIAN_POINT('',(-4.268075717361,-7.081496355292E-02));
#1114 = CARTESIAN_POINT('',(-4.188790204786,2.22044604925E-16));
#1115 = ( GEOMETRIC_REPRESENTATION_CONTEXT(2) 
PARAMETRIC_REPRESENTATION_CONTEXT() REPRESENTATION_CONTEXT('2D SPACE',''
  ) );
#1116 = ORIENTED_EDGE('',*,*,#837,.F.);
#1117 = ORIENTED_EDGE('',*,*,#933,.F.);
#1118 = ORIENTED_EDGE('',*,*,#1119,.F.);
#1119 = EDGE_CURVE('',#62,#906,#1120,.T.);
#1120 = SURFACE_CURVE('',#1121,(#1126,#1133),.PCURVE_S1.);
#1121 = HYPERBOLA('',#1122,1.339745962156,5.);
#1122 = AXIS2_PLACEMENT_3D('',#1123,#1124,#1125);
#1123 = CARTESIAN_POINT('',(-2.30755522366E-15,-5.,-1.339745962156));
#1124 = DIRECTION('',(4.615110447321E-16,1.,-0.));
#1125 = DIRECTION('',(0.,0.,1.));
#1126 = PCURVE('',#858,#1127);
#1127 = DEFINITIONAL_REPRESENTATION('',(#1128),#1132);
#1128 = ( BOUNDED_CURVE() B_SPLINE_CURVE(2,(#1129,#1130,#1131),
.UNSPECIFIED.,.F.,.F.) B_SPLINE_CURVE_WITH_KNOTS((3,3),(2.7781402486E-16
,0.549306144334),.PIECEWISE_BEZIER_KNOTS.) CURVE() 
GEOMETRIC_REPRESENTATION_ITEM() RATIONAL_B_SPLINE_CURVE((1.,
1.037954849302,1.)) REPRESENTATION_ITEM('') );
#1129 = CARTESIAN_POINT('',(2.886751345948,-2.22044604925E-16));
#1130 = CARTESIAN_POINT('',(4.226497308104,-2.22044604925E-16));
#1131 = CARTESIAN_POINT('',(5.773502691896,-0.207259421637));
#1132 = ( GEOMETRIC_REPRESENTATION_CONTEXT(2) 
PARAMETRIC_REPRESENTATION_CONTEXT() REPRESENTATION_CONTEXT('2D SPACE',''
  ) );
#1133 = PCURVE('',#78,#1134);
#1134 = DEFINITIONAL_REPRESENTATION('',(#1135),#1143);
#1135 = B_SPLINE_CURVE_WITH_KNOTS('',6,(#1136,#1137,#1138,#1139,#1140,
    #1141,#1142),.UNSPECIFIED.,.F.,.F.,(7,7),(2.7781402486E-16,
    0.549306144334),.PIECEWISE_BEZIER_KNOTS.);
#1136 = CARTESIAN_POINT('',(4.712388980385,2.369187730684E-16));
#1137 = CARTESIAN_POINT('',(4.80394000444,2.709940841833E-16));
#1138 = CARTESIAN_POINT('',(4.895490601367,1.347504752384E-02));
#1139 = CARTESIAN_POINT('',(4.985662946283,4.042510130558E-02));
#1140 = CARTESIAN_POINT('',(5.073061766799,8.118912527463E-02));
#1141 = CARTESIAN_POINT('',(5.156702243408,0.136444458084));
#1142 = CARTESIAN_POINT('',(5.235987755983,0.207259421637));
#1143 = ( GEOMETRIC_REPRESENTATION_CONTEXT(2) 
PARAMETRIC_REPRESENTATION_CONTEXT() REPRESENTATION_CONTEXT('2D SPACE',''
  ) );
#1144 = ADVANCED_FACE('',(#1145),#1079,.F.);
#1145 = FACE_BOUND('',#1146,.F.);
#1146 = EDGE_LOOP('',(#1147,#1175,#1198,#1224,#1250,#1251));
#1147 = ORIENTED_EDGE('',*,*,#1148,.F.);
#1148 = EDGE_CURVE('',#1149,#91,#1151,.T.);
#1149 = VERTEX_POINT('',#1150);
#1150 = CARTESIAN_POINT('',(-5.773502691896,-7.87754075447E-14,
    0.207259421637));
#1151 = SURFACE_CURVE('',#1152,(#1157,#1164),.PCURVE_S1.);
#1152 = HYPERBOLA('',#1153,1.339745962156,5.);
#1153 = AXIS2_PLACEMENT_3D('',#1154,#1155,#1156);
#1154 = CARTESIAN_POINT('',(-4.330127018922,-2.5,-1.339745962156));
#1155 = DIRECTION('',(0.866025403784,0.5,-0.));
#1156 = DIRECTION('',(0.,0.,1.));
#1157 = PCURVE('',#1079,#1158);
#1158 = DEFINITIONAL_REPRESENTATION('',(#1159),#1163);
#1159 = ( BOUNDED_CURVE() B_SPLINE_CURVE(2,(#1160,#1161,#1162),
.UNSPECIFIED.,.F.,.F.) B_SPLINE_CURVE_WITH_KNOTS((3,3),(-0.549306144334,
0.),.PIECEWISE_BEZIER_KNOTS.) CURVE() GEOMETRIC_REPRESENTATION_ITEM() 
RATIONAL_B_SPLINE_CURVE((1.,1.037954849302,1.)) REPRESENTATION_ITEM('') 
  );
#1160 = CARTESIAN_POINT('',(4.440892098501E-16,-0.207259421637));
#1161 = CARTESIAN_POINT('',(1.547005383793,-2.22044604925E-16));
#1162 = CARTESIAN_POINT('',(2.886751345948,-2.22044604925E-16));
#1163 = ( GEOMETRIC_REPRESENTATION_CONTEXT(2) 
PARAMETRIC_REPRESENTATION_CONTEXT() REPRESENTATION_CONTEXT('2D SPACE',''
  ) );
#1164 = PCURVE('',#136,#1165);
#1165 = DEFINITIONAL_REPRESENTATION('',(#1166),#1174);
#1166 = B_SPLINE_CURVE_WITH_KNOTS('',6,(#1167,#1168,#1169,#1170,#1171,
    #1172,#1173),.UNSPECIFIED.,.F.,.F.,(7,7),(-0.549306144334,0.),
  .PIECEWISE_BEZIER_KNOTS.);
#1167 = CARTESIAN_POINT('',(3.14159265359,0.207259421637));
#1168 = CARTESIAN_POINT('',(3.220878166164,0.136444458084));
#1169 = CARTESIAN_POINT('',(3.304518642773,8.118912527463E-02));
#1170 = CARTESIAN_POINT('',(3.39191746329,4.042510130557E-02));
#1171 = CARTESIAN_POINT('',(3.482089808206,1.347504752384E-02));
#1172 = CARTESIAN_POINT('',(3.573640405132,6.748796729245E-17));
#1173 = CARTESIAN_POINT('',(3.665191429188,1.487416814334E-17));
#1174 = ( GEOMETRIC_REPRESENTATION_CONTEXT(2) 
PARAMETRIC_REPRESENTATION_CONTEXT() REPRESENTATION_CONTEXT('2D SPACE',''
  ) );
#1175 = ORIENTED_EDGE('',*,*,#1176,.T.);
#1176 = EDGE_CURVE('',#1149,#1177,#1179,.T.);
#1177 = VERTEX_POINT('',#1178);
#1178 = CARTESIAN_POINT('',(-5.773502691896,-7.87754075447E-14,
    4.792740578363));
#1179 = SURFACE_CURVE('',#1180,(#1184,#1191),.PCURVE_S1.);
#1180 = LINE('',#1181,#1182);
#1181 = CARTESIAN_POINT('',(-5.773502691896,7.070501591499E-16,0.));
#1182 = VECTOR('',#1183,1.);
#1183 = DIRECTION('',(0.,0.,1.));
#1184 = PCURVE('',#1079,#1185);
#1185 = DEFINITIONAL_REPRESENTATION('',(#1186),#1190);
#1186 = LINE('',#1187,#1188);
#1187 = CARTESIAN_POINT('',(0.,0.));
#1188 = VECTOR('',#1189,1.);
#1189 = DIRECTION('',(0.,-1.));
#1190 = ( GEOMETRIC_REPRESENTATION_CONTEXT(2) 
PARAMETRIC_REPRESENTATION_CONTEXT() REPRESENTATION_CONTEXT('2D SPACE',''
  ) );
#1191 = PCURVE('',#531,#1192);
#1192 = DEFINITIONAL_REPRESENTATION('',(#1193),#1197);
#1193 = LINE('',#1194,#1195);
#1194 = CARTESIAN_POINT('',(5.773502691896,0.));
#1195 = VECTOR('',#1196,1.);
#1196 = DIRECTION('',(0.,-1.));
#1197 = ( GEOMETRIC_REPRESENTATION_CONTEXT(2) 
PARAMETRIC_REPRESENTATION_CONTEXT() REPRESENTATION_CONTEXT('2D SPACE',''
  ) );
#1198 = ORIENTED_EDGE('',*,*,#1199,.F.);
#1199 = EDGE_CURVE('',#690,#1177,#1200,.T.);
#1200 = SURFACE_CURVE('',#1201,(#1206,#1213),.PCURVE_S1.);
#1201 = HYPERBOLA('',#1202,1.339745962156,5.);
#1202 = AXIS2_PLACEMENT_3D('',#1203,#1204,#1205);
#1203 = CARTESIAN_POINT('',(-4.330127018922,-2.5,6.339745962156));
#1204 = DIRECTION('',(0.866025403784,0.5,0.));
#1205 = DIRECTION('',(0.,-0.,-1.));
#1206 = PCURVE('',#1079,#1207);
#1207 = DEFINITIONAL_REPRESENTATION('',(#1208),#1212);
#1208 = ( BOUNDED_CURVE() B_SPLINE_CURVE(2,(#1209,#1210,#1211),
.UNSPECIFIED.,.F.,.F.) B_SPLINE_CURVE_WITH_KNOTS((3,3),(0.,
0.549306144334),.PIECEWISE_BEZIER_KNOTS.) CURVE() 
GEOMETRIC_REPRESENTATION_ITEM() RATIONAL_B_SPLINE_CURVE((1.,
1.037954849302,1.)) REPRESENTATION_ITEM('') );
#1209 = CARTESIAN_POINT('',(2.886751345948,-5.));
#1210 = CARTESIAN_POINT('',(1.547005383793,-5.));
#1211 = CARTESIAN_POINT('',(4.440892098501E-16,-4.792740578363));
#1212 = ( GEOMETRIC_REPRESENTATION_CONTEXT(2) 
PARAMETRIC_REPRESENTATION_CONTEXT() REPRESENTATION_CONTEXT('2D SPACE',''
  ) );
#1213 = PCURVE('',#706,#1214);
#1214 = DEFINITIONAL_REPRESENTATION('',(#1215),#1223);
#1215 = B_SPLINE_CURVE_WITH_KNOTS('',6,(#1216,#1217,#1218,#1219,#1220,
    #1221,#1222),.UNSPECIFIED.,.F.,.F.,(7,7),(0.,0.549306144334),
  .PIECEWISE_BEZIER_KNOTS.);
#1216 = CARTESIAN_POINT('',(-3.665191429188,-0.207259421637));
#1217 = CARTESIAN_POINT('',(-3.573640405132,-0.207259421637));
#1218 = CARTESIAN_POINT('',(-3.482089808205,-0.193784374113));
#1219 = CARTESIAN_POINT('',(-3.39191746329,-0.166834320331));
#1220 = CARTESIAN_POINT('',(-3.304518642773,-0.126070296362));
#1221 = CARTESIAN_POINT('',(-3.220878166164,-7.081496355292E-02));
#1222 = CARTESIAN_POINT('',(-3.14159265359,0.));
#1223 = ( GEOMETRIC_REPRESENTATION_CONTEXT(2) 
PARAMETRIC_REPRESENTATION_CONTEXT() REPRESENTATION_CONTEXT('2D SPACE',''
  ) );
#1224 = ORIENTED_EDGE('',*,*,#1225,.F.);
#1225 = EDGE_CURVE('',#1064,#690,#1226,.T.);
#1226 = SURFACE_CURVE('',#1227,(#1232,#1239),.PCURVE_S1.);
#1227 = HYPERBOLA('',#1228,1.339745962156,5.);
#1228 = AXIS2_PLACEMENT_3D('',#1229,#1230,#1231);
#1229 = CARTESIAN_POINT('',(-4.330127018922,-2.5,6.339745962156));
#1230 = DIRECTION('',(0.866025403784,0.5,0.));
#1231 = DIRECTION('',(0.,-0.,-1.));
#1232 = PCURVE('',#1079,#1233);
#1233 = DEFINITIONAL_REPRESENTATION('',(#1234),#1238);
#1234 = ( BOUNDED_CURVE() B_SPLINE_CURVE(2,(#1235,#1236,#1237),
.UNSPECIFIED.,.F.,.F.) B_SPLINE_CURVE_WITH_KNOTS((3,3),(-0.549306144334,
0.),.PIECEWISE_BEZIER_KNOTS.) CURVE() GEOMETRIC_REPRESENTATION_ITEM() 
RATIONAL_B_SPLINE_CURVE((1.,1.037954849302,1.)) REPRESENTATION_ITEM('') 
  );
#1235 = CARTESIAN_POINT('',(5.773502691896,-4.792740578363));
#1236 = CARTESIAN_POINT('',(4.226497308104,-5.));
#1237 = CARTESIAN_POINT('',(2.886751345948,-5.));
#1238 = ( GEOMETRIC_REPRESENTATION_CONTEXT(2) 
PARAMETRIC_REPRESENTATION_CONTEXT() REPRESENTATION_CONTEXT('2D SPACE',''
  ) );
#1239 = PCURVE('',#735,#1240);
#1240 = DEFINITIONAL_REPRESENTATION('',(#1241),#1249);
#1241 = B_SPLINE_CURVE_WITH_KNOTS('',6,(#1242,#1243,#1244,#1245,#1246,
    #1247,#1248),.UNSPECIFIED.,.F.,.F.,(7,7),(-0.549306144334,0.),
  .PIECEWISE_BEZIER_KNOTS.);
#1242 = CARTESIAN_POINT('',(-4.188790204786,-7.256304873484E-16));
#1243 = CARTESIAN_POINT('',(-4.109504692212,-7.081496355292E-02));
#1244 = CARTESIAN_POINT('',(-4.025864215603,-0.126070296362));
#1245 = CARTESIAN_POINT('',(-3.938465395086,-0.166834320331));
#1246 = CARTESIAN_POINT('',(-3.848293050171,-0.193784374113));
#1247 = CARTESIAN_POINT('',(-3.756742453244,-0.207259421637));
#1248 = CARTESIAN_POINT('',(-3.665191429188,-0.207259421637));
#1249 = ( GEOMETRIC_REPRESENTATION_CONTEXT(2) 
PARAMETRIC_REPRESENTATION_CONTEXT() REPRESENTATION_CONTEXT('2D SPACE',''
  ) );
#1250 = ORIENTED_EDGE('',*,*,#1063,.F.);
#1251 = ORIENTED_EDGE('',*,*,#1252,.F.);
#1252 = EDGE_CURVE('',#91,#1036,#1253,.T.);
#1253 = SURFACE_CURVE('',#1254,(#1259,#1266),.PCURVE_S1.);
#1254 = HYPERBOLA('',#1255,1.339745962156,5.);
#1255 = AXIS2_PLACEMENT_3D('',#1256,#1257,#1258);
#1256 = CARTESIAN_POINT('',(-4.330127018922,-2.5,-1.339745962156));
#1257 = DIRECTION('',(0.866025403784,0.5,-0.));
#1258 = DIRECTION('',(0.,0.,1.));
#1259 = PCURVE('',#1079,#1260);
#1260 = DEFINITIONAL_REPRESENTATION('',(#1261),#1265);
#1261 = ( BOUNDED_CURVE() B_SPLINE_CURVE(2,(#1262,#1263,#1264),
.UNSPECIFIED.,.F.,.F.) B_SPLINE_CURVE_WITH_KNOTS((3,3),(0.,
0.549306144334),.PIECEWISE_BEZIER_KNOTS.) CURVE() 
GEOMETRIC_REPRESENTATION_ITEM() RATIONAL_B_SPLINE_CURVE((1.,
1.037954849302,1.)) REPRESENTATION_ITEM('') );
#1262 = CARTESIAN_POINT('',(2.886751345948,-2.22044604925E-16));
#1263 = CARTESIAN_POINT('',(4.226497308104,-2.22044604925E-16));
#1264 = CARTESIAN_POINT('',(5.773502691896,-0.207259421637));
#1265 = ( GEOMETRIC_REPRESENTATION_CONTEXT(2) 
PARAMETRIC_REPRESENTATION_CONTEXT() REPRESENTATION_CONTEXT('2D SPACE',''
  ) );
#1266 = PCURVE('',#107,#1267);
#1267 = DEFINITIONAL_REPRESENTATION('',(#1268),#1276);
#1268 = B_SPLINE_CURVE_WITH_KNOTS('',6,(#1269,#1270,#1271,#1272,#1273,
    #1274,#1275),.UNSPECIFIED.,.F.,.F.,(7,7),(0.,0.549306144334),
  .PIECEWISE_BEZIER_KNOTS.);
#1269 = CARTESIAN_POINT('',(3.665191429188,1.487416814334E-17));
#1270 = CARTESIAN_POINT('',(3.756742453244,-3.773963100577E-17));
#1271 = CARTESIAN_POINT('',(3.848293050171,1.347504752384E-02));
#1272 = CARTESIAN_POINT('',(3.938465395086,4.042510130557E-02));
#1273 = CARTESIAN_POINT('',(4.025864215603,8.118912527463E-02));
#1274 = CARTESIAN_POINT('',(4.109504692212,0.136444458084));
#1275 = CARTESIAN_POINT('',(4.188790204786,0.207259421637));
#1276 = ( GEOMETRIC_REPRESENTATION_CONTEXT(2) 
PARAMETRIC_REPRESENTATION_CONTEXT() REPRESENTATION_CONTEXT('2D SPACE',''
  ) );
#1277 = ADVANCED_FACE('',(#1278),#735,.T.);
#1278 = FACE_BOUND('',#1279,.T.);
#1279 = EDGE_LOOP('',(#1280,#1281,#1282));
#1280 = ORIENTED_EDGE('',*,*,#1225,.F.);
#1281 = ORIENTED_EDGE('',*,*,#1091,.F.);
#1282 = ORIENTED_EDGE('',*,*,#718,.F.);
#1283 = ADVANCED_FACE('',(#1284),#706,.T.);
#1284 = FACE_BOUND('',#1285,.T.);
#1285 = EDGE_LOOP('',(#1286,#1312,#1313));
#1286 = ORIENTED_EDGE('',*,*,#1287,.F.);
#1287 = EDGE_CURVE('',#1177,#666,#1288,.T.);
#1288 = SURFACE_CURVE('',#1289,(#1294,#1305),.PCURVE_S1.);
#1289 = HYPERBOLA('',#1290,1.339745962156,5.);
#1290 = AXIS2_PLACEMENT_3D('',#1291,#1292,#1293);
#1291 = CARTESIAN_POINT('',(-4.330127018922,2.5,6.339745962156));
#1292 = DIRECTION('',(0.866025403784,-0.5,0.));
#1293 = DIRECTION('',(0.,-0.,-1.));
#1294 = PCURVE('',#706,#1295);
#1295 = DEFINITIONAL_REPRESENTATION('',(#1296),#1304);
#1296 = B_SPLINE_CURVE_WITH_KNOTS('',6,(#1297,#1298,#1299,#1300,#1301,
    #1302,#1303),.UNSPECIFIED.,.F.,.F.,(7,7),(-0.549306144334,
    1.538370149107E-16),.PIECEWISE_BEZIER_KNOTS.);
#1297 = CARTESIAN_POINT('',(-3.14159265359,0.));
#1298 = CARTESIAN_POINT('',(-3.062307141015,-7.081496355292E-02));
#1299 = CARTESIAN_POINT('',(-2.978666664406,-0.126070296362));
#1300 = CARTESIAN_POINT('',(-2.891267843889,-0.166834320331));
#1301 = CARTESIAN_POINT('',(-2.801095498974,-0.193784374113));
#1302 = CARTESIAN_POINT('',(-2.709544902047,-0.207259421637));
#1303 = CARTESIAN_POINT('',(-2.617993877991,-0.207259421637));
#1304 = ( GEOMETRIC_REPRESENTATION_CONTEXT(2) 
PARAMETRIC_REPRESENTATION_CONTEXT() REPRESENTATION_CONTEXT('2D SPACE',''
  ) );
#1305 = PCURVE('',#531,#1306);
#1306 = DEFINITIONAL_REPRESENTATION('',(#1307),#1311);
#1307 = ( BOUNDED_CURVE() B_SPLINE_CURVE(2,(#1308,#1309,#1310),
.UNSPECIFIED.,.F.,.F.) B_SPLINE_CURVE_WITH_KNOTS((3,3),(-0.549306144334,
1.538370149107E-16),.PIECEWISE_BEZIER_KNOTS.) CURVE() 
GEOMETRIC_REPRESENTATION_ITEM() RATIONAL_B_SPLINE_CURVE((1.,
1.037954849302,1.)) REPRESENTATION_ITEM('') );
#1308 = CARTESIAN_POINT('',(5.773502691896,-4.792740578363));
#1309 = CARTESIAN_POINT('',(4.226497308104,-5.));
#1310 = CARTESIAN_POINT('',(2.886751345948,-5.));
#1311 = ( GEOMETRIC_REPRESENTATION_CONTEXT(2) 
PARAMETRIC_REPRESENTATION_CONTEXT() REPRESENTATION_CONTEXT('2D SPACE',''
  ) );
#1312 = ORIENTED_EDGE('',*,*,#1199,.F.);
#1313 = ORIENTED_EDGE('',*,*,#689,.F.);
#1314 = ADVANCED_FACE('',(#1315),#652,.T.);
#1315 = FACE_BOUND('',#1316,.T.);
#1316 = EDGE_LOOP('',(#1317,#1318,#1319));
#1317 = ORIENTED_EDGE('',*,*,#631,.T.);
#1318 = ORIENTED_EDGE('',*,*,#955,.F.);
#1319 = ORIENTED_EDGE('',*,*,#1320,.F.);
#1320 = EDGE_CURVE('',#573,#956,#1321,.T.);
#1321 = SURFACE_CURVE('',#1322,(#1327,#1338),.PCURVE_S1.);
#1322 = HYPERBOLA('',#1323,1.339745962156,5.);
#1323 = AXIS2_PLACEMENT_3D('',#1324,#1325,#1326);
#1324 = CARTESIAN_POINT('',(4.330127018922,2.5,6.339745962156));
#1325 = DIRECTION('',(-0.866025403784,-0.5,0.));
#1326 = DIRECTION('',(-0.,0.,-1.));
#1327 = PCURVE('',#652,#1328);
#1328 = DEFINITIONAL_REPRESENTATION('',(#1329),#1337);
#1329 = B_SPLINE_CURVE_WITH_KNOTS('',6,(#1330,#1331,#1332,#1333,#1334,
    #1335,#1336),.UNSPECIFIED.,.F.,.F.,(7,7),(-2.426548568807E-16,
    0.549306144334),.PIECEWISE_BEZIER_KNOTS.);
#1330 = CARTESIAN_POINT('',(-6.806784082778,-0.207259421637));
#1331 = CARTESIAN_POINT('',(-6.715233058722,-0.207259421637));
#1332 = CARTESIAN_POINT('',(-6.623682461795,-0.193784374113));
#1333 = CARTESIAN_POINT('',(-6.53351011688,-0.166834320331));
#1334 = CARTESIAN_POINT('',(-6.446111296363,-0.126070296362));
#1335 = CARTESIAN_POINT('',(-6.362470819754,-7.081496355292E-02));
#1336 = CARTESIAN_POINT('',(-6.28318530718,2.22044604925E-16));
#1337 = ( GEOMETRIC_REPRESENTATION_CONTEXT(2) 
PARAMETRIC_REPRESENTATION_CONTEXT() REPRESENTATION_CONTEXT('2D SPACE',''
  ) );
#1338 = PCURVE('',#378,#1339);
#1339 = DEFINITIONAL_REPRESENTATION('',(#1340),#1344);
#1340 = ( BOUNDED_CURVE() B_SPLINE_CURVE(2,(#1341,#1342,#1343),
.UNSPECIFIED.,.F.,.F.) B_SPLINE_CURVE_WITH_KNOTS((3,3),(
-2.426548568807E-16,0.549306144334),.PIECEWISE_BEZIER_KNOTS.) CURVE() 
GEOMETRIC_REPRESENTATION_ITEM() RATIONAL_B_SPLINE_CURVE((1.,
1.037954849302,1.)) REPRESENTATION_ITEM('') );
#1341 = CARTESIAN_POINT('',(2.886751345948,-5.));
#1342 = CARTESIAN_POINT('',(1.547005383793,-5.));
#1343 = CARTESIAN_POINT('',(0.,-4.792740578363));
#1344 = ( GEOMETRIC_REPRESENTATION_CONTEXT(2) 
PARAMETRIC_REPRESENTATION_CONTEXT() REPRESENTATION_CONTEXT('2D SPACE',''
  ) );
#1345 = ADVANCED_FACE('',(#1346),#499,.T.);
#1346 = FACE_BOUND('',#1347,.T.);
#1347 = EDGE_LOOP('',(#1348,#1349,#1375));
#1348 = ORIENTED_EDGE('',*,*,#482,.F.);
#1349 = ORIENTED_EDGE('',*,*,#1350,.F.);
#1350 = EDGE_CURVE('',#666,#483,#1351,.T.);
#1351 = SURFACE_CURVE('',#1352,(#1357,#1368),.PCURVE_S1.);
#1352 = HYPERBOLA('',#1353,1.339745962156,5.);
#1353 = AXIS2_PLACEMENT_3D('',#1354,#1355,#1356);
#1354 = CARTESIAN_POINT('',(-4.330127018922,2.5,6.339745962156));
#1355 = DIRECTION('',(0.866025403784,-0.5,0.));
#1356 = DIRECTION('',(0.,-0.,-1.));
#1357 = PCURVE('',#499,#1358);
#1358 = DEFINITIONAL_REPRESENTATION('',(#1359),#1367);
#1359 = B_SPLINE_CURVE_WITH_KNOTS('',6,(#1360,#1361,#1362,#1363,#1364,
    #1365,#1366),.UNSPECIFIED.,.F.,.F.,(7,7),(1.538370149107E-16,
    0.549306144334),.PIECEWISE_BEZIER_KNOTS.);
#1360 = CARTESIAN_POINT('',(-2.617993877991,-0.207259421637));
#1361 = CARTESIAN_POINT('',(-2.526442853936,-0.207259421637));
#1362 = CARTESIAN_POINT('',(-2.434892257009,-0.193784374113));
#1363 = CARTESIAN_POINT('',(-2.344719912093,-0.166834320331));
#1364 = CARTESIAN_POINT('',(-2.257321091577,-0.126070296362));
#1365 = CARTESIAN_POINT('',(-2.173680614968,-7.081496355292E-02));
#1366 = CARTESIAN_POINT('',(-2.094395102393,-2.22044604925E-16));
#1367 = ( GEOMETRIC_REPRESENTATION_CONTEXT(2) 
PARAMETRIC_REPRESENTATION_CONTEXT() REPRESENTATION_CONTEXT('2D SPACE',''
  ) );
#1368 = PCURVE('',#531,#1369);
#1369 = DEFINITIONAL_REPRESENTATION('',(#1370),#1374);
#1370 = ( BOUNDED_CURVE() B_SPLINE_CURVE(2,(#1371,#1372,#1373),
.UNSPECIFIED.,.F.,.F.) B_SPLINE_CURVE_WITH_KNOTS((3,3),(
1.538370149107E-16,0.549306144334),.PIECEWISE_BEZIER_KNOTS.) CURVE() 
GEOMETRIC_REPRESENTATION_ITEM() RATIONAL_B_SPLINE_CURVE((1.,
1.037954849302,1.)) REPRESENTATION_ITEM('') );
#1371 = CARTESIAN_POINT('',(2.886751345948,-5.));
#1372 = CARTESIAN_POINT('',(1.547005383793,-5.));
#1373 = CARTESIAN_POINT('',(2.22044604925E-15,-4.792740578363));
#1374 = ( GEOMETRIC_REPRESENTATION_CONTEXT(2) 
PARAMETRIC_REPRESENTATION_CONTEXT() REPRESENTATION_CONTEXT('2D SPACE',''
  ) );
#1375 = ORIENTED_EDGE('',*,*,#665,.F.);
#1376 = ADVANCED_FACE('',(#1377),#531,.F.);
#1377 = FACE_BOUND('',#1378,.F.);
#1378 = EDGE_LOOP('',(#1379,#1405,#1406,#1407,#1408,#1409));
#1379 = ORIENTED_EDGE('',*,*,#1380,.F.);
#1380 = EDGE_CURVE('',#516,#120,#1381,.T.);
#1381 = SURFACE_CURVE('',#1382,(#1387,#1394),.PCURVE_S1.);
#1382 = HYPERBOLA('',#1383,1.339745962156,5.);
#1383 = AXIS2_PLACEMENT_3D('',#1384,#1385,#1386);
#1384 = CARTESIAN_POINT('',(-4.330127018922,2.5,-1.339745962156));
#1385 = DIRECTION('',(0.866025403784,-0.5,0.));
#1386 = DIRECTION('',(0.,0.,1.));
#1387 = PCURVE('',#531,#1388);
#1388 = DEFINITIONAL_REPRESENTATION('',(#1389),#1393);
#1389 = ( BOUNDED_CURVE() B_SPLINE_CURVE(2,(#1390,#1391,#1392),
.UNSPECIFIED.,.F.,.F.) B_SPLINE_CURVE_WITH_KNOTS((3,3),(-0.549306144334,
-1.538370149107E-16),.PIECEWISE_BEZIER_KNOTS.) CURVE() 
GEOMETRIC_REPRESENTATION_ITEM() RATIONAL_B_SPLINE_CURVE((1.,
1.037954849302,1.)) REPRESENTATION_ITEM('') );
#1390 = CARTESIAN_POINT('',(2.22044604925E-15,-0.207259421637));
#1391 = CARTESIAN_POINT('',(1.547005383793,0.));
#1392 = CARTESIAN_POINT('',(2.886751345948,0.));
#1393 = ( GEOMETRIC_REPRESENTATION_CONTEXT(2) 
PARAMETRIC_REPRESENTATION_CONTEXT() REPRESENTATION_CONTEXT('2D SPACE',''
  ) );
#1394 = PCURVE('',#165,#1395);
#1395 = DEFINITIONAL_REPRESENTATION('',(#1396),#1404);
#1396 = B_SPLINE_CURVE_WITH_KNOTS('',6,(#1397,#1398,#1399,#1400,#1401,
    #1402,#1403),.UNSPECIFIED.,.F.,.F.,(7,7),(-0.549306144334,
    -1.538370149107E-16),.PIECEWISE_BEZIER_KNOTS.);
#1397 = CARTESIAN_POINT('',(2.094395102393,0.207259421637));
#1398 = CARTESIAN_POINT('',(2.173680614968,0.136444458084));
#1399 = CARTESIAN_POINT('',(2.257321091577,8.118912527463E-02));
#1400 = CARTESIAN_POINT('',(2.344719912093,4.042510130558E-02));
#1401 = CARTESIAN_POINT('',(2.434892257009,1.347504752384E-02));
#1402 = CARTESIAN_POINT('',(2.526442853936,2.443541009946E-16));
#1403 = CARTESIAN_POINT('',(2.617993877991,2.22044604925E-16));
#1404 = ( GEOMETRIC_REPRESENTATION_CONTEXT(2) 
PARAMETRIC_REPRESENTATION_CONTEXT() REPRESENTATION_CONTEXT('2D SPACE',''
  ) );
#1405 = ORIENTED_EDGE('',*,*,#515,.T.);
#1406 = ORIENTED_EDGE('',*,*,#1350,.F.);
#1407 = ORIENTED_EDGE('',*,*,#1287,.F.);
#1408 = ORIENTED_EDGE('',*,*,#1176,.F.);
#1409 = ORIENTED_EDGE('',*,*,#1410,.F.);
#1410 = EDGE_CURVE('',#120,#1149,#1411,.T.);
#1411 = SURFACE_CURVE('',#1412,(#1417,#1424),.PCURVE_S1.);
#1412 = HYPERBOLA('',#1413,1.339745962156,5.);
#1413 = AXIS2_PLACEMENT_3D('',#1414,#1415,#1416);
#1414 = CARTESIAN_POINT('',(-4.330127018922,2.5,-1.339745962156));
#1415 = DIRECTION('',(0.866025403784,-0.5,0.));
#1416 = DIRECTION('',(0.,0.,1.));
#1417 = PCURVE('',#531,#1418);
#1418 = DEFINITIONAL_REPRESENTATION('',(#1419),#1423);
#1419 = ( BOUNDED_CURVE() B_SPLINE_CURVE(2,(#1420,#1421,#1422),
.UNSPECIFIED.,.F.,.F.) B_SPLINE_CURVE_WITH_KNOTS((3,3),(
-1.538370149107E-16,0.549306144334),.PIECEWISE_BEZIER_KNOTS.) CURVE() 
GEOMETRIC_REPRESENTATION_ITEM() RATIONAL_B_SPLINE_CURVE((1.,
1.037954849302,1.)) REPRESENTATION_ITEM('') );
#1420 = CARTESIAN_POINT('',(2.886751345948,0.));
#1421 = CARTESIAN_POINT('',(4.226497308104,4.440892098501E-16));
#1422 = CARTESIAN_POINT('',(5.773502691896,-0.207259421637));
#1423 = ( GEOMETRIC_REPRESENTATION_CONTEXT(2) 
PARAMETRIC_REPRESENTATION_CONTEXT() REPRESENTATION_CONTEXT('2D SPACE',''
  ) );
#1424 = PCURVE('',#136,#1425);
#1425 = DEFINITIONAL_REPRESENTATION('',(#1426),#1434);
#1426 = B_SPLINE_CURVE_WITH_KNOTS('',6,(#1427,#1428,#1429,#1430,#1431,
    #1432,#1433),.UNSPECIFIED.,.F.,.F.,(7,7),(-1.538370149107E-16,
    0.549306144334),.PIECEWISE_BEZIER_KNOTS.);
#1427 = CARTESIAN_POINT('',(2.617993877991,2.22044604925E-16));
#1428 = CARTESIAN_POINT('',(2.709544902047,1.997351088554E-16));
#1429 = CARTESIAN_POINT('',(2.801095498974,1.347504752384E-02));
#1430 = CARTESIAN_POINT('',(2.891267843889,4.042510130558E-02));
#1431 = CARTESIAN_POINT('',(2.978666664406,8.118912527463E-02));
#1432 = CARTESIAN_POINT('',(3.062307141015,0.136444458084));
#1433 = CARTESIAN_POINT('',(3.14159265359,0.207259421637));
#1434 = ( GEOMETRIC_REPRESENTATION_CONTEXT(2) 
PARAMETRIC_REPRESENTATION_CONTEXT() REPRESENTATION_CONTEXT('2D SPACE',''
  ) );
#1435 = ADVANCED_FACE('',(#1436),#378,.F.);
#1436 = FACE_BOUND('',#1437,.F.);
#1437 = EDGE_LOOP('',(#1438,#1464,#1465,#1466,#1467,#1468));
#1438 = ORIENTED_EDGE('',*,*,#1439,.F.);
#1439 = EDGE_CURVE('',#984,#22,#1440,.T.);
#1440 = SURFACE_CURVE('',#1441,(#1446,#1453),.PCURVE_S1.);
#1441 = HYPERBOLA('',#1442,1.339745962156,5.);
#1442 = AXIS2_PLACEMENT_3D('',#1443,#1444,#1445);
#1443 = CARTESIAN_POINT('',(4.330127018922,2.5,-1.339745962156));
#1444 = DIRECTION('',(-0.866025403784,-0.5,0.));
#1445 = DIRECTION('',(0.,0.,1.));
#1446 = PCURVE('',#378,#1447);
#1447 = DEFINITIONAL_REPRESENTATION('',(#1448),#1452);
#1448 = ( BOUNDED_CURVE() B_SPLINE_CURVE(2,(#1449,#1450,#1451),
.UNSPECIFIED.,.F.,.F.) B_SPLINE_CURVE_WITH_KNOTS((3,3),(-0.549306144334,
8.881784197001E-17),.PIECEWISE_BEZIER_KNOTS.) CURVE() 
GEOMETRIC_REPRESENTATION_ITEM() RATIONAL_B_SPLINE_CURVE((1.,
1.037954849302,1.)) REPRESENTATION_ITEM('') );
#1449 = CARTESIAN_POINT('',(0.,-0.207259421637));
#1450 = CARTESIAN_POINT('',(1.547005383793,0.));
#1451 = CARTESIAN_POINT('',(2.886751345948,0.));
#1452 = ( GEOMETRIC_REPRESENTATION_CONTEXT(2) 
PARAMETRIC_REPRESENTATION_CONTEXT() REPRESENTATION_CONTEXT('2D SPACE',''
  ) );
#1453 = PCURVE('',#49,#1454);
#1454 = DEFINITIONAL_REPRESENTATION('',(#1455),#1463);
#1455 = B_SPLINE_CURVE_WITH_KNOTS('',6,(#1456,#1457,#1458,#1459,#1460,
    #1461,#1462),.UNSPECIFIED.,.F.,.F.,(7,7),(-0.549306144334,
    8.881784197001E-17),.PIECEWISE_BEZIER_KNOTS.);
#1456 = CARTESIAN_POINT('',(6.28318530718,0.207259421637));
#1457 = CARTESIAN_POINT('',(6.362470819754,0.136444458084));
#1458 = CARTESIAN_POINT('',(6.446111296363,8.118912527463E-02));
#1459 = CARTESIAN_POINT('',(6.53351011688,4.042510130557E-02));
#1460 = CARTESIAN_POINT('',(6.623682461795,1.347504752384E-02));
#1461 = CARTESIAN_POINT('',(6.715233058722,-1.125251695035E-17));
#1462 = CARTESIAN_POINT('',(6.806784082778,0.));
#1463 = ( GEOMETRIC_REPRESENTATION_CONTEXT(2) 
PARAMETRIC_REPRESENTATION_CONTEXT() REPRESENTATION_CONTEXT('2D SPACE',''
  ) );
#1464 = ORIENTED_EDGE('',*,*,#983,.T.);
#1465 = ORIENTED_EDGE('',*,*,#1320,.F.);
#1466 = ORIENTED_EDGE('',*,*,#572,.F.);
#1467 = ORIENTED_EDGE('',*,*,#426,.F.);
#1468 = ORIENTED_EDGE('',*,*,#357,.F.);
#1469 = ADVANCED_FACE('',(#1470),#165,.T.);
#1470 = FACE_BOUND('',#1471,.T.);
#1471 = EDGE_LOOP('',(#1472,#1473,#1474));
#1472 = ORIENTED_EDGE('',*,*,#543,.F.);
#1473 = ORIENTED_EDGE('',*,*,#148,.T.);
#1474 = ORIENTED_EDGE('',*,*,#1380,.F.);
#1475 = ADVANCED_FACE('',(#1476),#136,.T.);
#1476 = FACE_BOUND('',#1477,.T.);
#1477 = EDGE_LOOP('',(#1478,#1479,#1480));
#1478 = ORIENTED_EDGE('',*,*,#1410,.F.);
#1479 = ORIENTED_EDGE('',*,*,#119,.T.);
#1480 = ORIENTED_EDGE('',*,*,#1148,.F.);
#1481 = ADVANCED_FACE('',(#1482),#107,.T.);
#1482 = FACE_BOUND('',#1483,.T.);
#1483 = EDGE_LOOP('',(#1484,#1485,#1486));
#1484 = ORIENTED_EDGE('',*,*,#90,.T.);
#1485 = ORIENTED_EDGE('',*,*,#1035,.F.);
#1486 = ORIENTED_EDGE('',*,*,#1252,.F.);
#1487 = ADVANCED_FACE('',(#1488),#78,.T.);
#1488 = FACE_BOUND('',#1489,.T.);
#1489 = EDGE_LOOP('',(#1490,#1491,#1492));
#1490 = ORIENTED_EDGE('',*,*,#61,.T.);
#1491 = ORIENTED_EDGE('',*,*,#905,.F.);
#1492 = ORIENTED_EDGE('',*,*,#1119,.F.);
#1493 = ADVANCED_FACE('',(#1494),#49,.T.);
#1494 = FACE_BOUND('',#1495,.T.);
#1495 = EDGE_LOOP('',(#1496,#1497,#1498));
#1496 = ORIENTED_EDGE('',*,*,#1439,.F.);
#1497 = ORIENTED_EDGE('',*,*,#1006,.F.);
#1498 = ORIENTED_EDGE('',*,*,#21,.F.);
#1499 = ( GEOMETRIC_REPRESENTATION_CONTEXT(3) 
GLOBAL_UNCERTAINTY_ASSIGNED_CONTEXT((#1503)) 
GLOBAL_UNIT_ASSIGNED_CONTEXT((#1500,#1501,#1502)) REPRESENTATION_CONTEXT
('Context #1','3D Context with UNIT and UNCERTAINTY') );
#1500 = ( LENGTH_UNIT() NAMED_UNIT(*) SI_UNIT(.MILLI.,.METRE.) );
#1501 = ( NAMED_UNIT(*) PLANE_ANGLE_UNIT() SI_UNIT($,.RADIAN.) );
#1502 = ( NAMED_UNIT(*) SI_UNIT($,.STERADIAN.) SOLID_ANGLE_UNIT() );
#1503 = UNCERTAINTY_MEASURE_WITH_UNIT(LENGTH_MEASURE(1.E-07),#1500,
  'distance_accuracy_value','confusion accuracy');
#1504 = PRODUCT_RELATED_PRODUCT_CATEGORY('part',$,(#7));
ENDSEC;
END-ISO-10303-21;
