ISO-10303-21;
HEADER;
FILE_DESCRIPTION(('Open CASCADE Model'),'2;1');
FILE_NAME('Open CASCADE Shape Model','2026-09-14T12:39:50',('Author'),(
    'Open CASCADE'),'Open CASCADE STEP processor 7.9','Open CASCADE 7.9'
  ,'Unknown');
FILE_SCHEMA(('AUTOMOTIVE_DESIGN { 1 0 10303 214 1 1 1 1 }'));
ENDSEC;
DATA;
#1 = APPLICATION_PROTOCOL_DEFINITION('international standard',
  'automotive_design',2000,#2);
#2 = APPLICATION_CONTEXT(
  'core data for automotive mechanical design processes');
#3 = SHAPE_DEFINITION_REPRESENTATION(#4,#10);
#4 = PRODUCT_DEFINITION_SHAPE('','',#5);
#5 = PRODUCT_DEFINITION('design','',#6,#9);
#6 = PRODUCT_DEFINITION_FORMATION('','',#7);
#7 = PRODUCT('Open CASCADE STEP translator 7.9 4',
  'Open CASCADE STEP translator 7.9 4','',(#8));
#8 = PRODUCT_CONTEXT('',#2,'mechanical');
#9 = PRODUCT_DEFINITION_CONTEXT('part definition',#2,'design');
#10 = ADVANCED_BREP_SHAPE_REPRESENTATION('',(#11,#15),#1627);
#11 = AXIS2_PLACEMENT_3D('',#12,#13,#14);
#12 = CARTESIAN_POINT('',(0.,0.,0.));
#13 = DIRECTION('',(0.,0.,1.));
#14 = DIRECTION('',(1.,0.,-0.));
#15 = MANIFOLD_SOLID_BREP('',#16);
#16 = CLOSED_SHELL('',(#17,#85,#141,#593,#703,#786,#954,#1036,#1118,
    #1200,#1282,#1337,#1362,#1388,#1413,#1439,#1464,#1490,#1515,#1541,
    #1566,#1592,#1600));
#17 = ADVANCED_FACE('',(#18,#54),#31,.F.);
#18 = FACE_BOUND('',#19,.T.);
#19 = EDGE_LOOP('',(#20));
#20 = ORIENTED_EDGE('',*,*,#21,.T.);
#21 = EDGE_CURVE('',#22,#22,#24,.T.);
#22 = VERTEX_POINT('',#23);
#23 = CARTESIAN_POINT('',(-4.,-2.089542682843E-16,0.));
#24 = SURFACE_CURVE('',#25,(#30,#42),.PCURVE_S1.);
#25 = CIRCLE('',#26,4.);
#26 = AXIS2_PLACEMENT_3D('',#27,#28,#29);
#27 = CARTESIAN_POINT('',(0.,0.,0.));
#28 = DIRECTION('',(0.,0.,1.));
#29 = DIRECTION('',(-1.,0.,0.));
#30 = PCURVE('',#31,#36);
#31 = PLANE('',#32);
#32 = AXIS2_PLACEMENT_3D('',#33,#34,#35);
#33 = CARTESIAN_POINT('',(0.,0.,0.));
#34 = DIRECTION('',(0.,0.,1.));
#35 = DIRECTION('',(1.,0.,-0.));
#36 = DEFINITIONAL_REPRESENTATION('',(#37),#41);
#37 = CIRCLE('',#38,4.);
#38 = AXIS2_PLACEMENT_2D('',#39,#40);
#39 = CARTESIAN_POINT('',(0.,0.));
#40 = DIRECTION('',(-1.,0.));
#41 = ( GEOMETRIC_REPRESENTATION_CONTEXT(2) 
PARAMETRIC_REPRESENTATION_CONTEXT() REPRESENTATION_CONTEXT('2D SPACE',''
  ) );
#42 = PCURVE('',#43,#48);
#43 = CYLINDRICAL_SURFACE('',#44,4.);
#44 = AXIS2_PLACEMENT_3D('',#45,#46,#47);
#45 = CARTESIAN_POINT('',(0.,0.,0.));
#46 = DIRECTION('',(0.,0.,1.));
#47 = DIRECTION('',(-1.,0.,0.));
#48 = DEFINITIONAL_REPRESENTATION('',(#49),#53);
#49 = LINE('',#50,#51);
#50 = CARTESIAN_POINT('',(0.,0.));
#51 = VECTOR('',#52,1.);
#52 = DIRECTION('',(1.,0.));
#53 = ( GEOMETRIC_REPRESENTATION_CONTEXT(2) 
PARAMETRIC_REPRESENTATION_CONTEXT() REPRESENTATION_CONTEXT('2D SPACE',''
  ) );
#54 = FACE_BOUND('',#55,.T.);
#55 = EDGE_LOOP('',(#56));
#56 = ORIENTED_EDGE('',*,*,#57,.F.);
#57 = EDGE_CURVE('',#58,#58,#60,.T.);
#58 = VERTEX_POINT('',#59);
#59 = CARTESIAN_POINT('',(8.35,0.,1.665334536938E-16));
#60 = SURFACE_CURVE('',#61,(#66,#73),.PCURVE_S1.);
#61 = CIRCLE('',#62,8.35);
#62 = AXIS2_PLACEMENT_3D('',#63,#64,#65);
#63 = CARTESIAN_POINT('',(0.,0.,1.665334536938E-16));
#64 = DIRECTION('',(0.,0.,1.));
#65 = DIRECTION('',(1.,0.,-0.));
#66 = PCURVE('',#31,#67);
#67 = DEFINITIONAL_REPRESENTATION('',(#68),#72);
#68 = CIRCLE('',#69,8.35);
#69 = AXIS2_PLACEMENT_2D('',#70,#71);
#70 = CARTESIAN_POINT('',(0.,0.));
#71 = DIRECTION('',(1.,-0.));
#72 = ( GEOMETRIC_REPRESENTATION_CONTEXT(2) 
PARAMETRIC_REPRESENTATION_CONTEXT() REPRESENTATION_CONTEXT('2D SPACE',''
  ) );
#73 = PCURVE('',#74,#79);
#74 = TOROIDAL_SURFACE('',#75,8.35,0.6);
#75 = AXIS2_PLACEMENT_3D('',#76,#77,#78);
#76 = CARTESIAN_POINT('',(0.,0.,0.6));
#77 = DIRECTION('',(0.,0.,1.));
#78 = DIRECTION('',(1.,0.,-0.));
#79 = DEFINITIONAL_REPRESENTATION('',(#80),#84);
#80 = LINE('',#81,#82);
#81 = CARTESIAN_POINT('',(0.,4.712388980385));
#82 = VECTOR('',#83,1.);
#83 = DIRECTION('',(1.,0.));
#84 = ( GEOMETRIC_REPRESENTATION_CONTEXT(2) 
PARAMETRIC_REPRESENTATION_CONTEXT() REPRESENTATION_CONTEXT('2D SPACE',''
  ) );
#85 = ADVANCED_FACE('',(#86),#74,.T.);
#86 = FACE_BOUND('',#87,.T.);
#87 = EDGE_LOOP('',(#88,#89,#113,#140));
#88 = ORIENTED_EDGE('',*,*,#57,.T.);
#89 = ORIENTED_EDGE('',*,*,#90,.T.);
#90 = EDGE_CURVE('',#58,#91,#93,.T.);
#91 = VERTEX_POINT('',#92);
#92 = CARTESIAN_POINT('',(8.603570957044,0.,1.143784672222));
#93 = SEAM_CURVE('',#94,(#99,#106),.PCURVE_S1.);
#94 = CIRCLE('',#95,0.6);
#95 = AXIS2_PLACEMENT_3D('',#96,#97,#98);
#96 = CARTESIAN_POINT('',(8.35,0.,0.6));
#97 = DIRECTION('',(0.,-1.,0.));
#98 = DIRECTION('',(-2.960594732334E-15,-0.,-1.));
#99 = PCURVE('',#74,#100);
#100 = DEFINITIONAL_REPRESENTATION('',(#101),#105);
#101 = LINE('',#102,#103);
#102 = CARTESIAN_POINT('',(0.,4.712388980385));
#103 = VECTOR('',#104,1.);
#104 = DIRECTION('',(0.,1.));
#105 = ( GEOMETRIC_REPRESENTATION_CONTEXT(2) 
PARAMETRIC_REPRESENTATION_CONTEXT() REPRESENTATION_CONTEXT('2D SPACE',''
  ) );
#106 = PCURVE('',#74,#107);
#107 = DEFINITIONAL_REPRESENTATION('',(#108),#112);
#108 = LINE('',#109,#110);
#109 = CARTESIAN_POINT('',(6.28318530718,4.712388980385));
#110 = VECTOR('',#111,1.);
#111 = DIRECTION('',(0.,1.));
#112 = ( GEOMETRIC_REPRESENTATION_CONTEXT(2) 
PARAMETRIC_REPRESENTATION_CONTEXT() REPRESENTATION_CONTEXT('2D SPACE',''
  ) );
#113 = ORIENTED_EDGE('',*,*,#114,.F.);
#114 = EDGE_CURVE('',#91,#91,#115,.T.);
#115 = SURFACE_CURVE('',#116,(#121,#128),.PCURVE_S1.);
#116 = CIRCLE('',#117,8.603570957044);
#117 = AXIS2_PLACEMENT_3D('',#118,#119,#120);
#118 = CARTESIAN_POINT('',(0.,0.,1.143784672222));
#119 = DIRECTION('',(0.,0.,1.));
#120 = DIRECTION('',(1.,0.,-0.));
#121 = PCURVE('',#74,#122);
#122 = DEFINITIONAL_REPRESENTATION('',(#123),#127);
#123 = LINE('',#124,#125);
#124 = CARTESIAN_POINT('',(0.,7.417649320976));
#125 = VECTOR('',#126,1.);
#126 = DIRECTION('',(1.,0.));
#127 = ( GEOMETRIC_REPRESENTATION_CONTEXT(2) 
PARAMETRIC_REPRESENTATION_CONTEXT() REPRESENTATION_CONTEXT('2D SPACE',''
  ) );
#128 = PCURVE('',#129,#134);
#129 = CONICAL_SURFACE('',#130,8.603570957044,1.134464013796);
#130 = AXIS2_PLACEMENT_3D('',#131,#132,#133);
#131 = CARTESIAN_POINT('',(0.,0.,1.143784672222));
#132 = DIRECTION('',(-0.,-0.,-1.));
#133 = DIRECTION('',(1.,0.,-0.));
#134 = DEFINITIONAL_REPRESENTATION('',(#135),#139);
#135 = LINE('',#136,#137);
#136 = CARTESIAN_POINT('',(-0.,-0.));
#137 = VECTOR('',#138,1.);
#138 = DIRECTION('',(-1.,-0.));
#139 = ( GEOMETRIC_REPRESENTATION_CONTEXT(2) 
PARAMETRIC_REPRESENTATION_CONTEXT() REPRESENTATION_CONTEXT('2D SPACE',''
  ) );
#140 = ORIENTED_EDGE('',*,*,#90,.F.);
#141 = ADVANCED_FACE('',(#142),#129,.T.);
#142 = FACE_BOUND('',#143,.T.);
#143 = EDGE_LOOP('',(#144,#145,#168,#197,#235,#264,#302,#331,#369,#398,
    #436,#465,#503,#532,#570,#592));
#144 = ORIENTED_EDGE('',*,*,#114,.T.);
#145 = ORIENTED_EDGE('',*,*,#146,.T.);
#146 = EDGE_CURVE('',#91,#147,#149,.T.);
#147 = VERTEX_POINT('',#148);
#148 = CARTESIAN_POINT('',(7.504553499465,0.,1.656264929137));
#149 = SEAM_CURVE('',#150,(#154,#161),.PCURVE_S1.);
#150 = LINE('',#151,#152);
#151 = CARTESIAN_POINT('',(8.603570957044,0.,1.143784672222));
#152 = VECTOR('',#153,1.);
#153 = DIRECTION('',(-0.906307787037,0.,0.422618261741));
#154 = PCURVE('',#129,#155);
#155 = DEFINITIONAL_REPRESENTATION('',(#156),#160);
#156 = LINE('',#157,#158);
#157 = CARTESIAN_POINT('',(-0.,-0.));
#158 = VECTOR('',#159,1.);
#159 = DIRECTION('',(-0.,-1.));
#160 = ( GEOMETRIC_REPRESENTATION_CONTEXT(2) 
PARAMETRIC_REPRESENTATION_CONTEXT() REPRESENTATION_CONTEXT('2D SPACE',''
  ) );
#161 = PCURVE('',#129,#162);
#162 = DEFINITIONAL_REPRESENTATION('',(#163),#167);
#163 = LINE('',#164,#165);
#164 = CARTESIAN_POINT('',(-6.28318530718,-0.));
#165 = VECTOR('',#166,1.);
#166 = DIRECTION('',(-0.,-1.));
#167 = ( GEOMETRIC_REPRESENTATION_CONTEXT(2) 
PARAMETRIC_REPRESENTATION_CONTEXT() REPRESENTATION_CONTEXT('2D SPACE',''
  ) );
#168 = ORIENTED_EDGE('',*,*,#169,.F.);
#169 = EDGE_CURVE('',#170,#147,#172,.T.);
#170 = VERTEX_POINT('',#171);
#171 = CARTESIAN_POINT('',(7.504553299507,-1.732397146012E-03,
    1.656264929137));
#172 = SURFACE_CURVE('',#173,(#178,#185),.PCURVE_S1.);
#173 = CIRCLE('',#174,7.504553499465);
#174 = AXIS2_PLACEMENT_3D('',#175,#176,#177);
#175 = CARTESIAN_POINT('',(0.,0.,1.656264929137));
#176 = DIRECTION('',(0.,0.,1.));
#177 = DIRECTION('',(0.,-1.,0.));
#178 = PCURVE('',#129,#179);
#179 = DEFINITIONAL_REPRESENTATION('',(#180),#184);
#180 = LINE('',#181,#182);
#181 = CARTESIAN_POINT('',(-4.712388980385,-0.512480256915));
#182 = VECTOR('',#183,1.);
#183 = DIRECTION('',(-1.,-0.));
#184 = ( GEOMETRIC_REPRESENTATION_CONTEXT(2) 
PARAMETRIC_REPRESENTATION_CONTEXT() REPRESENTATION_CONTEXT('2D SPACE',''
  ) );
#185 = PCURVE('',#186,#191);
#186 = CYLINDRICAL_SURFACE('',#187,7.504553499465);
#187 = AXIS2_PLACEMENT_3D('',#188,#189,#190);
#188 = CARTESIAN_POINT('',(0.,0.,0.269437248128));
#189 = DIRECTION('',(0.,0.,1.));
#190 = DIRECTION('',(1.,0.,-0.));
#191 = DEFINITIONAL_REPRESENTATION('',(#192),#196);
#192 = LINE('',#193,#194);
#193 = CARTESIAN_POINT('',(4.712388980385,1.386827681009));
#194 = VECTOR('',#195,1.);
#195 = DIRECTION('',(1.,0.));
#196 = ( GEOMETRIC_REPRESENTATION_CONTEXT(2) 
PARAMETRIC_REPRESENTATION_CONTEXT() REPRESENTATION_CONTEXT('2D SPACE',''
  ) );
#197 = ORIENTED_EDGE('',*,*,#198,.T.);
#198 = EDGE_CURVE('',#170,#199,#201,.T.);
#199 = VERTEX_POINT('',#200);
#200 = CARTESIAN_POINT('',(3.753776949691,-6.498267602854,1.656264929137
    ));
#201 = SURFACE_CURVE('',#202,(#207,#223),.PCURVE_S1.);
#202 = HYPERBOLA('',#203,3.030999778007,6.5);
#203 = AXIS2_PLACEMENT_3D('',#204,#205,#206);
#204 = CARTESIAN_POINT('',(5.629165124599,-3.25,5.155695696972));
#205 = DIRECTION('',(-0.866025403784,0.5,0.));
#206 = DIRECTION('',(-0.,0.,-1.));
#207 = PCURVE('',#129,#208);
#208 = DEFINITIONAL_REPRESENTATION('',(#209),#222);
#209 = B_SPLINE_CURVE_WITH_KNOTS('',6,(#210,#211,#212,#213,#214,#215,
    #216,#217,#218,#219,#220,#221),.UNSPECIFIED.,.F.,.F.,(7,5,7),(
    -0.549306144334,4.858254465805E-02,0.64647123365),.UNSPECIFIED.);
#210 = CARTESIAN_POINT('',(-6.28318530718,-0.512013949257));
#211 = CARTESIAN_POINT('',(-6.196887508296,-0.686393022097));
#212 = CARTESIAN_POINT('',(-6.105430641679,-0.819068411696));
#213 = CARTESIAN_POINT('',(-6.009582231392,-0.913156685677));
#214 = CARTESIAN_POINT('',(-5.910661167758,-0.970533088867));
#215 = CARTESIAN_POINT('',(-5.810553719384,-0.992012888587));
#216 = CARTESIAN_POINT('',(-5.611492454462,-0.962654239099));
#217 = CARTESIAN_POINT('',(-5.512539877157,-0.911815780259));
#218 = CARTESIAN_POINT('',(-5.415933217267,-0.824556035455));
#219 = CARTESIAN_POINT('',(-5.323370802457,-0.69953474142));
#220 = CARTESIAN_POINT('',(-5.235869392348,-0.534321350136));
#221 = CARTESIAN_POINT('',(-5.153944986018,-0.325178005058));
#222 = ( GEOMETRIC_REPRESENTATION_CONTEXT(2) 
PARAMETRIC_REPRESENTATION_CONTEXT() REPRESENTATION_CONTEXT('2D SPACE',''
  ) );
#223 = PCURVE('',#224,#229);
#224 = PLANE('',#225);
#225 = AXIS2_PLACEMENT_3D('',#226,#227,#228);
#226 = CARTESIAN_POINT('',(3.752776749733,-6.5,0.));
#227 = DIRECTION('',(-0.866025403784,0.5,0.));
#228 = DIRECTION('',(0.5,0.866025403784,0.));
#229 = DEFINITIONAL_REPRESENTATION('',(#230),#234);
#230 = ( BOUNDED_CURVE() B_SPLINE_CURVE(2,(#231,#232,#233),
.UNSPECIFIED.,.F.,.F.) B_SPLINE_CURVE_WITH_KNOTS((3,3),(-0.549306144334,
0.64647123365),.PIECEWISE_BEZIER_KNOTS.) CURVE() 
GEOMETRIC_REPRESENTATION_ITEM() RATIONAL_B_SPLINE_CURVE((1.,
1.184123685714,1.)) REPRESENTATION_ITEM('') );
#231 = CARTESIAN_POINT('',(7.505553499465,-1.655798621479));
#232 = CARTESIAN_POINT('',(3.485988083989,-2.592975689325));
#233 = CARTESIAN_POINT('',(-0.748154870046,-1.46896267728));
#234 = ( GEOMETRIC_REPRESENTATION_CONTEXT(2) 
PARAMETRIC_REPRESENTATION_CONTEXT() REPRESENTATION_CONTEXT('2D SPACE',''
  ) );
#235 = ORIENTED_EDGE('',*,*,#236,.F.);
#236 = EDGE_CURVE('',#237,#199,#239,.T.);
#237 = VERTEX_POINT('',#238);
#238 = CARTESIAN_POINT('',(3.750776349815,-6.5,1.656264929137));
#239 = SURFACE_CURVE('',#240,(#245,#252),.PCURVE_S1.);
#240 = CIRCLE('',#241,7.504553499465);
#241 = AXIS2_PLACEMENT_3D('',#242,#243,#244);
#242 = CARTESIAN_POINT('',(0.,0.,1.656264929137));
#243 = DIRECTION('',(0.,0.,1.));
#244 = DIRECTION('',(0.,-1.,0.));
#245 = PCURVE('',#129,#246);
#246 = DEFINITIONAL_REPRESENTATION('',(#247),#251);
#247 = LINE('',#248,#249);
#248 = CARTESIAN_POINT('',(-4.712388980385,-0.512480256915));
#249 = VECTOR('',#250,1.);
#250 = DIRECTION('',(-1.,-0.));
#251 = ( GEOMETRIC_REPRESENTATION_CONTEXT(2) 
PARAMETRIC_REPRESENTATION_CONTEXT() REPRESENTATION_CONTEXT('2D SPACE',''
  ) );
#252 = PCURVE('',#253,#258);
#253 = CYLINDRICAL_SURFACE('',#254,7.504553499465);
#254 = AXIS2_PLACEMENT_3D('',#255,#256,#257);
#255 = CARTESIAN_POINT('',(0.,0.,0.269437248128));
#256 = DIRECTION('',(0.,0.,1.));
#257 = DIRECTION('',(1.,0.,-0.));
#258 = DEFINITIONAL_REPRESENTATION('',(#259),#263);
#259 = LINE('',#260,#261);
#260 = CARTESIAN_POINT('',(4.712388980385,1.386827681009));
#261 = VECTOR('',#262,1.);
#262 = DIRECTION('',(1.,0.));
#263 = ( GEOMETRIC_REPRESENTATION_CONTEXT(2) 
PARAMETRIC_REPRESENTATION_CONTEXT() REPRESENTATION_CONTEXT('2D SPACE',''
  ) );
#264 = ORIENTED_EDGE('',*,*,#265,.T.);
#265 = EDGE_CURVE('',#237,#266,#268,.T.);
#266 = VERTEX_POINT('',#267);
#267 = CARTESIAN_POINT('',(-3.750776349815,-6.5,1.656264929137));
#268 = SURFACE_CURVE('',#269,(#274,#290),.PCURVE_S1.);
#269 = HYPERBOLA('',#270,3.030999778007,6.5);
#270 = AXIS2_PLACEMENT_3D('',#271,#272,#273);
#271 = CARTESIAN_POINT('',(-3.076740298214E-15,-6.5,5.155695696972));
#272 = DIRECTION('',(4.733446612636E-16,1.,0.));
#273 = DIRECTION('',(0.,-0.,-1.));
#274 = PCURVE('',#129,#275);
#275 = DEFINITIONAL_REPRESENTATION('',(#276),#289);
#276 = B_SPLINE_CURVE_WITH_KNOTS('',6,(#277,#278,#279,#280,#281,#282,
    #283,#284,#285,#286,#287,#288),.UNSPECIFIED.,.F.,.F.,(7,5,7),(
    -0.64647123365,2.22044604925E-16,0.64647123365),.UNSPECIFIED.);
#277 = CARTESIAN_POINT('',(-5.318030525948,-0.325178005058));
#278 = CARTESIAN_POINT('',(-5.229449201362,-0.551315677156));
#279 = CARTESIAN_POINT('',(-5.134347929118,-0.726094138601));
#280 = CARTESIAN_POINT('',(-5.033377671476,-0.854238369113));
#281 = CARTESIAN_POINT('',(-4.927878569624,-0.938686839104));
#282 = CARTESIAN_POINT('',(-4.820134185993,-0.980911246742));
#283 = CARTESIAN_POINT('',(-4.604643774776,-0.980911246742));
#284 = CARTESIAN_POINT('',(-4.496899391145,-0.938686839104));
#285 = CARTESIAN_POINT('',(-4.391400289293,-0.854238369113));
#286 = CARTESIAN_POINT('',(-4.290430031651,-0.726094138601));
#287 = CARTESIAN_POINT('',(-4.195328759408,-0.551315677156));
#288 = CARTESIAN_POINT('',(-4.106747434822,-0.325178005058));
#289 = ( GEOMETRIC_REPRESENTATION_CONTEXT(2) 
PARAMETRIC_REPRESENTATION_CONTEXT() REPRESENTATION_CONTEXT('2D SPACE',''
  ) );
#290 = PCURVE('',#291,#296);
#291 = PLANE('',#292);
#292 = AXIS2_PLACEMENT_3D('',#293,#294,#295);
#293 = CARTESIAN_POINT('',(-3.752776749733,-6.5,0.));
#294 = DIRECTION('',(4.733446612636E-16,1.,-0.));
#295 = DIRECTION('',(1.,-4.733446612636E-16,0.));
#296 = DEFINITIONAL_REPRESENTATION('',(#297),#301);
#297 = ( BOUNDED_CURVE() B_SPLINE_CURVE(2,(#298,#299,#300),
.UNSPECIFIED.,.F.,.F.) B_SPLINE_CURVE_WITH_KNOTS((3,3),(-0.64647123365,
0.64647123365),.PIECEWISE_BEZIER_KNOTS.) CURVE() 
GEOMETRIC_REPRESENTATION_ITEM() RATIONAL_B_SPLINE_CURVE((1.,
1.216342226892,1.)) REPRESENTATION_ITEM('') );
#298 = CARTESIAN_POINT('',(8.253708369511,-1.46896267728));
#299 = CARTESIAN_POINT('',(3.752776749733,-2.663798506366));
#300 = CARTESIAN_POINT('',(-0.748154870046,-1.46896267728));
#301 = ( GEOMETRIC_REPRESENTATION_CONTEXT(2) 
PARAMETRIC_REPRESENTATION_CONTEXT() REPRESENTATION_CONTEXT('2D SPACE',''
  ) );
#302 = ORIENTED_EDGE('',*,*,#303,.F.);
#303 = EDGE_CURVE('',#304,#266,#306,.T.);
#304 = VERTEX_POINT('',#305);
#305 = CARTESIAN_POINT('',(-3.753776949691,-6.498267602854,
    1.656264929137));
#306 = SURFACE_CURVE('',#307,(#312,#319),.PCURVE_S1.);
#307 = CIRCLE('',#308,7.504553499465);
#308 = AXIS2_PLACEMENT_3D('',#309,#310,#311);
#309 = CARTESIAN_POINT('',(0.,0.,1.656264929137));
#310 = DIRECTION('',(0.,0.,1.));
#311 = DIRECTION('',(0.,-1.,0.));
#312 = PCURVE('',#129,#313);
#313 = DEFINITIONAL_REPRESENTATION('',(#314),#318);
#314 = LINE('',#315,#316);
#315 = CARTESIAN_POINT('',(1.570796326795,-0.512480256915));
#316 = VECTOR('',#317,1.);
#317 = DIRECTION('',(-1.,-0.));
#318 = ( GEOMETRIC_REPRESENTATION_CONTEXT(2) 
PARAMETRIC_REPRESENTATION_CONTEXT() REPRESENTATION_CONTEXT('2D SPACE',''
  ) );
#319 = PCURVE('',#320,#325);
#320 = CYLINDRICAL_SURFACE('',#321,7.504553499465);
#321 = AXIS2_PLACEMENT_3D('',#322,#323,#324);
#322 = CARTESIAN_POINT('',(0.,0.,0.269437248128));
#323 = DIRECTION('',(0.,0.,1.));
#324 = DIRECTION('',(1.,0.,-0.));
#325 = DEFINITIONAL_REPRESENTATION('',(#326),#330);
#326 = LINE('',#327,#328);
#327 = CARTESIAN_POINT('',(-1.570796326795,1.386827681009));
#328 = VECTOR('',#329,1.);
#329 = DIRECTION('',(1.,0.));
#330 = ( GEOMETRIC_REPRESENTATION_CONTEXT(2) 
PARAMETRIC_REPRESENTATION_CONTEXT() REPRESENTATION_CONTEXT('2D SPACE',''
  ) );
#331 = ORIENTED_EDGE('',*,*,#332,.T.);
#332 = EDGE_CURVE('',#304,#333,#335,.T.);
#333 = VERTEX_POINT('',#334);
#334 = CARTESIAN_POINT('',(-7.504553299507,-1.732397146012E-03,
    1.656264929137));
#335 = SURFACE_CURVE('',#336,(#341,#357),.PCURVE_S1.);
#336 = HYPERBOLA('',#337,3.030999778007,6.5);
#337 = AXIS2_PLACEMENT_3D('',#338,#339,#340);
#338 = CARTESIAN_POINT('',(-5.629165124599,-3.25,5.155695696972));
#339 = DIRECTION('',(0.866025403784,0.5,0.));
#340 = DIRECTION('',(0.,-0.,-1.));
#341 = PCURVE('',#129,#342);
#342 = DEFINITIONAL_REPRESENTATION('',(#343),#356);
#343 = B_SPLINE_CURVE_WITH_KNOTS('',6,(#344,#345,#346,#347,#348,#349,
    #350,#351,#352,#353,#354,#355),.UNSPECIFIED.,.F.,.F.,(7,5,7),(
    -0.64647123365,0.,0.64647123365),.UNSPECIFIED.);
#344 = CARTESIAN_POINT('',(-4.270832974751,-0.325178005058));
#345 = CARTESIAN_POINT('',(-4.182251650165,-0.551315677156));
#346 = CARTESIAN_POINT('',(-4.087150377921,-0.726094138601));
#347 = CARTESIAN_POINT('',(-3.98618012028,-0.854238369113));
#348 = CARTESIAN_POINT('',(-3.880681018427,-0.938686839104));
#349 = CARTESIAN_POINT('',(-3.772936634796,-0.980911246742));
#350 = CARTESIAN_POINT('',(-3.55744622358,-0.980911246742));
#351 = CARTESIAN_POINT('',(-3.449701839949,-0.938686839104));
#352 = CARTESIAN_POINT('',(-3.344202738096,-0.854238369113));
#353 = CARTESIAN_POINT('',(-3.243232480455,-0.726094138601));
#354 = CARTESIAN_POINT('',(-3.148131208211,-0.551315677156));
#355 = CARTESIAN_POINT('',(-3.059549883625,-0.325178005058));
#356 = ( GEOMETRIC_REPRESENTATION_CONTEXT(2) 
PARAMETRIC_REPRESENTATION_CONTEXT() REPRESENTATION_CONTEXT('2D SPACE',''
  ) );
#357 = PCURVE('',#358,#363);
#358 = PLANE('',#359);
#359 = AXIS2_PLACEMENT_3D('',#360,#361,#362);
#360 = CARTESIAN_POINT('',(-7.505553499465,9.191652068949E-16,0.));
#361 = DIRECTION('',(0.866025403784,0.5,-0.));
#362 = DIRECTION('',(0.5,-0.866025403784,0.));
#363 = DEFINITIONAL_REPRESENTATION('',(#364),#368);
#364 = ( BOUNDED_CURVE() B_SPLINE_CURVE(2,(#365,#366,#367),
.UNSPECIFIED.,.F.,.F.) B_SPLINE_CURVE_WITH_KNOTS((3,3),(-0.64647123365,
0.64647123365),.PIECEWISE_BEZIER_KNOTS.) CURVE() 
GEOMETRIC_REPRESENTATION_ITEM() RATIONAL_B_SPLINE_CURVE((1.,
1.216342226892,1.)) REPRESENTATION_ITEM('') );
#365 = CARTESIAN_POINT('',(8.253708369511,-1.46896267728));
#366 = CARTESIAN_POINT('',(3.752776749733,-2.663798506366));
#367 = CARTESIAN_POINT('',(-0.748154870046,-1.46896267728));
#368 = ( GEOMETRIC_REPRESENTATION_CONTEXT(2) 
PARAMETRIC_REPRESENTATION_CONTEXT() REPRESENTATION_CONTEXT('2D SPACE',''
  ) );
#369 = ORIENTED_EDGE('',*,*,#370,.F.);
#370 = EDGE_CURVE('',#371,#333,#373,.T.);
#371 = VERTEX_POINT('',#372);
#372 = CARTESIAN_POINT('',(-7.504553299507,1.732397146015E-03,
    1.656264929137));
#373 = SURFACE_CURVE('',#374,(#379,#386),.PCURVE_S1.);
#374 = CIRCLE('',#375,7.504553499465);
#375 = AXIS2_PLACEMENT_3D('',#376,#377,#378);
#376 = CARTESIAN_POINT('',(0.,0.,1.656264929137));
#377 = DIRECTION('',(0.,0.,1.));
#378 = DIRECTION('',(0.,-1.,0.));
#379 = PCURVE('',#129,#380);
#380 = DEFINITIONAL_REPRESENTATION('',(#381),#385);
#381 = LINE('',#382,#383);
#382 = CARTESIAN_POINT('',(1.570796326795,-0.512480256915));
#383 = VECTOR('',#384,1.);
#384 = DIRECTION('',(-1.,-0.));
#385 = ( GEOMETRIC_REPRESENTATION_CONTEXT(2) 
PARAMETRIC_REPRESENTATION_CONTEXT() REPRESENTATION_CONTEXT('2D SPACE',''
  ) );
#386 = PCURVE('',#387,#392);
#387 = CYLINDRICAL_SURFACE('',#388,7.504553499465);
#388 = AXIS2_PLACEMENT_3D('',#389,#390,#391);
#389 = CARTESIAN_POINT('',(0.,0.,0.269437248128));
#390 = DIRECTION('',(0.,0.,1.));
#391 = DIRECTION('',(1.,0.,-0.));
#392 = DEFINITIONAL_REPRESENTATION('',(#393),#397);
#393 = LINE('',#394,#395);
#394 = CARTESIAN_POINT('',(-1.570796326795,1.386827681009));
#395 = VECTOR('',#396,1.);
#396 = DIRECTION('',(1.,0.));
#397 = ( GEOMETRIC_REPRESENTATION_CONTEXT(2) 
PARAMETRIC_REPRESENTATION_CONTEXT() REPRESENTATION_CONTEXT('2D SPACE',''
  ) );
#398 = ORIENTED_EDGE('',*,*,#399,.T.);
#399 = EDGE_CURVE('',#371,#400,#402,.T.);
#400 = VERTEX_POINT('',#401);
#401 = CARTESIAN_POINT('',(-3.753776949691,6.498267602854,1.656264929137
    ));
#402 = SURFACE_CURVE('',#403,(#408,#424),.PCURVE_S1.);
#403 = HYPERBOLA('',#404,3.030999778007,6.5);
#404 = AXIS2_PLACEMENT_3D('',#405,#406,#407);
#405 = CARTESIAN_POINT('',(-5.629165124599,3.25,5.155695696972));
#406 = DIRECTION('',(0.866025403784,-0.5,0.));
#407 = DIRECTION('',(0.,-0.,-1.));
#408 = PCURVE('',#129,#409);
#409 = DEFINITIONAL_REPRESENTATION('',(#410),#423);
#410 = B_SPLINE_CURVE_WITH_KNOTS('',6,(#411,#412,#413,#414,#415,#416,
    #417,#418,#419,#420,#421,#422),.UNSPECIFIED.,.F.,.F.,(7,5,7),(
    -0.64647123365,0.,0.64647123365),.UNSPECIFIED.);
#411 = CARTESIAN_POINT('',(-3.223635423555,-0.325178005058));
#412 = CARTESIAN_POINT('',(-3.135054098968,-0.551315677156));
#413 = CARTESIAN_POINT('',(-3.039952826725,-0.726094138601));
#414 = CARTESIAN_POINT('',(-2.938982569083,-0.854238369113));
#415 = CARTESIAN_POINT('',(-2.833483467231,-0.938686839104));
#416 = CARTESIAN_POINT('',(-2.7257390836,-0.980911246742));
#417 = CARTESIAN_POINT('',(-2.510248672383,-0.980911246742));
#418 = CARTESIAN_POINT('',(-2.402504288752,-0.938686839104));
#419 = CARTESIAN_POINT('',(-2.2970051869,-0.854238369113));
#420 = CARTESIAN_POINT('',(-2.196034929258,-0.726094138601));
#421 = CARTESIAN_POINT('',(-2.100933657015,-0.551315677156));
#422 = CARTESIAN_POINT('',(-2.012352332428,-0.325178005058));
#423 = ( GEOMETRIC_REPRESENTATION_CONTEXT(2) 
PARAMETRIC_REPRESENTATION_CONTEXT() REPRESENTATION_CONTEXT('2D SPACE',''
  ) );
#424 = PCURVE('',#425,#430);
#425 = PLANE('',#426);
#426 = AXIS2_PLACEMENT_3D('',#427,#428,#429);
#427 = CARTESIAN_POINT('',(-3.752776749733,6.5,0.));
#428 = DIRECTION('',(0.866025403784,-0.5,0.));
#429 = DIRECTION('',(-0.5,-0.866025403784,0.));
#430 = DEFINITIONAL_REPRESENTATION('',(#431),#435);
#431 = ( BOUNDED_CURVE() B_SPLINE_CURVE(2,(#432,#433,#434),
.UNSPECIFIED.,.F.,.F.) B_SPLINE_CURVE_WITH_KNOTS((3,3),(-0.64647123365,
0.64647123365),.PIECEWISE_BEZIER_KNOTS.) CURVE() 
GEOMETRIC_REPRESENTATION_ITEM() RATIONAL_B_SPLINE_CURVE((1.,
1.216342226892,1.)) REPRESENTATION_ITEM('') );
#432 = CARTESIAN_POINT('',(8.253708369511,-1.46896267728));
#433 = CARTESIAN_POINT('',(3.752776749733,-2.663798506366));
#434 = CARTESIAN_POINT('',(-0.748154870046,-1.46896267728));
#435 = ( GEOMETRIC_REPRESENTATION_CONTEXT(2) 
PARAMETRIC_REPRESENTATION_CONTEXT() REPRESENTATION_CONTEXT('2D SPACE',''
  ) );
#436 = ORIENTED_EDGE('',*,*,#437,.F.);
#437 = EDGE_CURVE('',#438,#400,#440,.T.);
#438 = VERTEX_POINT('',#439);
#439 = CARTESIAN_POINT('',(-3.750776349815,6.5,1.656264929137));
#440 = SURFACE_CURVE('',#441,(#446,#453),.PCURVE_S1.);
#441 = CIRCLE('',#442,7.504553499465);
#442 = AXIS2_PLACEMENT_3D('',#443,#444,#445);
#443 = CARTESIAN_POINT('',(0.,0.,1.656264929137));
#444 = DIRECTION('',(0.,0.,1.));
#445 = DIRECTION('',(0.,-1.,0.));
#446 = PCURVE('',#129,#447);
#447 = DEFINITIONAL_REPRESENTATION('',(#448),#452);
#448 = LINE('',#449,#450);
#449 = CARTESIAN_POINT('',(1.570796326795,-0.512480256915));
#450 = VECTOR('',#451,1.);
#451 = DIRECTION('',(-1.,-0.));
#452 = ( GEOMETRIC_REPRESENTATION_CONTEXT(2) 
PARAMETRIC_REPRESENTATION_CONTEXT() REPRESENTATION_CONTEXT('2D SPACE',''
  ) );
#453 = PCURVE('',#454,#459);
#454 = CYLINDRICAL_SURFACE('',#455,7.504553499465);
#455 = AXIS2_PLACEMENT_3D('',#456,#457,#458);
#456 = CARTESIAN_POINT('',(0.,0.,0.269437248128));
#457 = DIRECTION('',(0.,0.,1.));
#458 = DIRECTION('',(1.,0.,-0.));
#459 = DEFINITIONAL_REPRESENTATION('',(#460),#464);
#460 = LINE('',#461,#462);
#461 = CARTESIAN_POINT('',(-1.570796326795,1.386827681009));
#462 = VECTOR('',#463,1.);
#463 = DIRECTION('',(1.,0.));
#464 = ( GEOMETRIC_REPRESENTATION_CONTEXT(2) 
PARAMETRIC_REPRESENTATION_CONTEXT() REPRESENTATION_CONTEXT('2D SPACE',''
  ) );
#465 = ORIENTED_EDGE('',*,*,#466,.T.);
#466 = EDGE_CURVE('',#438,#467,#469,.T.);
#467 = VERTEX_POINT('',#468);
#468 = CARTESIAN_POINT('',(3.750776349815,6.5,1.656264929137));
#469 = SURFACE_CURVE('',#470,(#475,#491),.PCURVE_S1.);
#470 = HYPERBOLA('',#471,3.030999778007,6.5);
#471 = AXIS2_PLACEMENT_3D('',#472,#473,#474);
#472 = CARTESIAN_POINT('',(7.691850745534E-16,6.5,5.155695696972));
#473 = DIRECTION('',(-1.183361653159E-16,-1.,0.));
#474 = DIRECTION('',(-0.,0.,-1.));
#475 = PCURVE('',#129,#476);
#476 = DEFINITIONAL_REPRESENTATION('',(#477),#490);
#477 = B_SPLINE_CURVE_WITH_KNOTS('',6,(#478,#479,#480,#481,#482,#483,
    #484,#485,#486,#487,#488,#489),.UNSPECIFIED.,.F.,.F.,(7,5,7),(
    -0.64647123365,-1.110223024625E-16,0.64647123365),.UNSPECIFIED.);
#478 = CARTESIAN_POINT('',(-2.176437872358,-0.325178005058));
#479 = CARTESIAN_POINT('',(-2.087856547772,-0.551315677156));
#480 = CARTESIAN_POINT('',(-1.992755275528,-0.726094138601));
#481 = CARTESIAN_POINT('',(-1.891785017887,-0.854238369113));
#482 = CARTESIAN_POINT('',(-1.786285916034,-0.938686839104));
#483 = CARTESIAN_POINT('',(-1.678541532403,-0.980911246742));
#484 = CARTESIAN_POINT('',(-1.463051121187,-0.980911246742));
#485 = CARTESIAN_POINT('',(-1.355306737556,-0.938686839104));
#486 = CARTESIAN_POINT('',(-1.249807635703,-0.854238369113));
#487 = CARTESIAN_POINT('',(-1.148837378062,-0.726094138601));
#488 = CARTESIAN_POINT('',(-1.053736105818,-0.551315677156));
#489 = CARTESIAN_POINT('',(-0.965154781232,-0.325178005058));
#490 = ( GEOMETRIC_REPRESENTATION_CONTEXT(2) 
PARAMETRIC_REPRESENTATION_CONTEXT() REPRESENTATION_CONTEXT('2D SPACE',''
  ) );
#491 = PCURVE('',#492,#497);
#492 = PLANE('',#493);
#493 = AXIS2_PLACEMENT_3D('',#494,#495,#496);
#494 = CARTESIAN_POINT('',(3.752776749733,6.5,0.));
#495 = DIRECTION('',(-1.183361653159E-16,-1.,0.));
#496 = DIRECTION('',(-1.,1.183361653159E-16,0.));
#497 = DEFINITIONAL_REPRESENTATION('',(#498),#502);
#498 = ( BOUNDED_CURVE() B_SPLINE_CURVE(2,(#499,#500,#501),
.UNSPECIFIED.,.F.,.F.) B_SPLINE_CURVE_WITH_KNOTS((3,3),(-0.64647123365,
0.64647123365),.PIECEWISE_BEZIER_KNOTS.) CURVE() 
GEOMETRIC_REPRESENTATION_ITEM() RATIONAL_B_SPLINE_CURVE((1.,
1.216342226892,1.)) REPRESENTATION_ITEM('') );
#499 = CARTESIAN_POINT('',(8.253708369511,-1.46896267728));
#500 = CARTESIAN_POINT('',(3.752776749733,-2.663798506366));
#501 = CARTESIAN_POINT('',(-0.748154870046,-1.46896267728));
#502 = ( GEOMETRIC_REPRESENTATION_CONTEXT(2) 
PARAMETRIC_REPRESENTATION_CONTEXT() REPRESENTATION_CONTEXT('2D SPACE',''
  ) );
#503 = ORIENTED_EDGE('',*,*,#504,.F.);
#504 = EDGE_CURVE('',#505,#467,#507,.T.);
#505 = VERTEX_POINT('',#506);
#506 = CARTESIAN_POINT('',(3.753776949691,6.498267602854,1.656264929137)
  );
#507 = SURFACE_CURVE('',#508,(#513,#520),.PCURVE_S1.);
#508 = CIRCLE('',#509,7.504553499465);
#509 = AXIS2_PLACEMENT_3D('',#510,#511,#512);
#510 = CARTESIAN_POINT('',(0.,0.,1.656264929137));
#511 = DIRECTION('',(0.,0.,1.));
#512 = DIRECTION('',(0.,-1.,0.));
#513 = PCURVE('',#129,#514);
#514 = DEFINITIONAL_REPRESENTATION('',(#515),#519);
#515 = LINE('',#516,#517);
#516 = CARTESIAN_POINT('',(1.570796326795,-0.512480256915));
#517 = VECTOR('',#518,1.);
#518 = DIRECTION('',(-1.,-0.));
#519 = ( GEOMETRIC_REPRESENTATION_CONTEXT(2) 
PARAMETRIC_REPRESENTATION_CONTEXT() REPRESENTATION_CONTEXT('2D SPACE',''
  ) );
#520 = PCURVE('',#521,#526);
#521 = CYLINDRICAL_SURFACE('',#522,7.504553499465);
#522 = AXIS2_PLACEMENT_3D('',#523,#524,#525);
#523 = CARTESIAN_POINT('',(0.,0.,0.269437248128));
#524 = DIRECTION('',(0.,0.,1.));
#525 = DIRECTION('',(1.,0.,-0.));
#526 = DEFINITIONAL_REPRESENTATION('',(#527),#531);
#527 = LINE('',#528,#529);
#528 = CARTESIAN_POINT('',(-1.570796326795,1.386827681009));
#529 = VECTOR('',#530,1.);
#530 = DIRECTION('',(1.,0.));
#531 = ( GEOMETRIC_REPRESENTATION_CONTEXT(2) 
PARAMETRIC_REPRESENTATION_CONTEXT() REPRESENTATION_CONTEXT('2D SPACE',''
  ) );
#532 = ORIENTED_EDGE('',*,*,#533,.T.);
#533 = EDGE_CURVE('',#505,#534,#536,.T.);
#534 = VERTEX_POINT('',#535);
#535 = CARTESIAN_POINT('',(7.504553299507,1.732397146012E-03,
    1.656264929137));
#536 = SURFACE_CURVE('',#537,(#542,#558),.PCURVE_S1.);
#537 = HYPERBOLA('',#538,3.030999778007,6.5);
#538 = AXIS2_PLACEMENT_3D('',#539,#540,#541);
#539 = CARTESIAN_POINT('',(5.629165124599,3.25,5.155695696972));
#540 = DIRECTION('',(-0.866025403784,-0.5,0.));
#541 = DIRECTION('',(-0.,0.,-1.));
#542 = PCURVE('',#129,#543);
#543 = DEFINITIONAL_REPRESENTATION('',(#544),#557);
#544 = B_SPLINE_CURVE_WITH_KNOTS('',6,(#545,#546,#547,#548,#549,#550,
    #551,#552,#553,#554,#555,#556),.UNSPECIFIED.,.F.,.F.,(7,5,7),(
    -0.64647123365,-4.858254465805E-02,0.549306144334),.UNSPECIFIED.);
#545 = CARTESIAN_POINT('',(-1.129240321161,-0.325178005058));
#546 = CARTESIAN_POINT('',(-1.047315914832,-0.534321350136));
#547 = CARTESIAN_POINT('',(-0.959814504722,-0.699534741419));
#548 = CARTESIAN_POINT('',(-0.867252089912,-0.824556035456));
#549 = CARTESIAN_POINT('',(-0.770645430022,-0.911815780259));
#550 = CARTESIAN_POINT('',(-0.671692852717,-0.962654239099));
#551 = CARTESIAN_POINT('',(-0.472631587796,-0.992012888587));
#552 = CARTESIAN_POINT('',(-0.372524139422,-0.970533088867));
#553 = CARTESIAN_POINT('',(-0.273603075787,-0.913156685677));
#554 = CARTESIAN_POINT('',(-0.177754665501,-0.819068411696));
#555 = CARTESIAN_POINT('',(-8.629779888376E-02,-0.686393022097));
#556 = CARTESIAN_POINT('',(0.,-0.512013949257));
#557 = ( GEOMETRIC_REPRESENTATION_CONTEXT(2) 
PARAMETRIC_REPRESENTATION_CONTEXT() REPRESENTATION_CONTEXT('2D SPACE',''
  ) );
#558 = PCURVE('',#559,#564);
#559 = PLANE('',#560);
#560 = AXIS2_PLACEMENT_3D('',#561,#562,#563);
#561 = CARTESIAN_POINT('',(7.505553499465,0.,0.));
#562 = DIRECTION('',(-0.866025403784,-0.5,0.));
#563 = DIRECTION('',(-0.5,0.866025403784,0.));
#564 = DEFINITIONAL_REPRESENTATION('',(#565),#569);
#565 = ( BOUNDED_CURVE() B_SPLINE_CURVE(2,(#566,#567,#568),
.UNSPECIFIED.,.F.,.F.) B_SPLINE_CURVE_WITH_KNOTS((3,3),(-0.64647123365,
0.549306144334),.PIECEWISE_BEZIER_KNOTS.) CURVE() 
GEOMETRIC_REPRESENTATION_ITEM() RATIONAL_B_SPLINE_CURVE((1.,
1.184123685714,1.)) REPRESENTATION_ITEM('') );
#566 = CARTESIAN_POINT('',(8.253708369511,-1.46896267728));
#567 = CARTESIAN_POINT('',(4.019565415476,-2.592975689325));
#568 = CARTESIAN_POINT('',(-8.881784197001E-16,-1.655798621479));
#569 = ( GEOMETRIC_REPRESENTATION_CONTEXT(2) 
PARAMETRIC_REPRESENTATION_CONTEXT() REPRESENTATION_CONTEXT('2D SPACE',''
  ) );
#570 = ORIENTED_EDGE('',*,*,#571,.F.);
#571 = EDGE_CURVE('',#147,#534,#572,.T.);
#572 = SURFACE_CURVE('',#573,(#578,#585),.PCURVE_S1.);
#573 = CIRCLE('',#574,7.504553499465);
#574 = AXIS2_PLACEMENT_3D('',#575,#576,#577);
#575 = CARTESIAN_POINT('',(0.,0.,1.656264929137));
#576 = DIRECTION('',(0.,0.,1.));
#577 = DIRECTION('',(0.,-1.,0.));
#578 = PCURVE('',#129,#579);
#579 = DEFINITIONAL_REPRESENTATION('',(#580),#584);
#580 = LINE('',#581,#582);
#581 = CARTESIAN_POINT('',(1.570796326795,-0.512480256915));
#582 = VECTOR('',#583,1.);
#583 = DIRECTION('',(-1.,-0.));
#584 = ( GEOMETRIC_REPRESENTATION_CONTEXT(2) 
PARAMETRIC_REPRESENTATION_CONTEXT() REPRESENTATION_CONTEXT('2D SPACE',''
  ) );
#585 = PCURVE('',#186,#586);
#586 = DEFINITIONAL_REPRESENTATION('',(#587),#591);
#587 = LINE('',#588,#589);
#588 = CARTESIAN_POINT('',(4.712388980385,1.386827681009));
#589 = VECTOR('',#590,1.);
#590 = DIRECTION('',(1.,0.));
#591 = ( GEOMETRIC_REPRESENTATION_CONTEXT(2) 
PARAMETRIC_REPRESENTATION_CONTEXT() REPRESENTATION_CONTEXT('2D SPACE',''
  ) );
#592 = ORIENTED_EDGE('',*,*,#146,.F.);
#593 = ADVANCED_FACE('',(#594),#224,.F.);
#594 = FACE_BOUND('',#595,.F.);
#595 = EDGE_LOOP('',(#596,#617,#618,#639,#672));
#596 = ORIENTED_EDGE('',*,*,#597,.F.);
#597 = EDGE_CURVE('',#170,#598,#600,.T.);
#598 = VERTEX_POINT('',#599);
#599 = CARTESIAN_POINT('',(7.504553299507,-1.732397146013E-03,
    7.730562751872));
#600 = SURFACE_CURVE('',#601,(#605,#611),.PCURVE_S1.);
#601 = LINE('',#602,#603);
#602 = CARTESIAN_POINT('',(7.504553299507,-1.732397146012E-03,
    0.269437248128));
#603 = VECTOR('',#604,1.);
#604 = DIRECTION('',(0.,0.,1.));
#605 = PCURVE('',#224,#606);
#606 = DEFINITIONAL_REPRESENTATION('',(#607),#610);
#607 = B_SPLINE_CURVE_WITH_KNOTS('',1,(#608,#609),.UNSPECIFIED.,.F.,.F.,
  (2,2),(-6.000000000173E-07,7.461126103744),.PIECEWISE_BEZIER_KNOTS.);
#608 = CARTESIAN_POINT('',(7.503553099548,-0.269436648128));
#609 = CARTESIAN_POINT('',(7.503553099548,-7.730563351872));
#610 = ( GEOMETRIC_REPRESENTATION_CONTEXT(2) 
PARAMETRIC_REPRESENTATION_CONTEXT() REPRESENTATION_CONTEXT('2D SPACE',''
  ) );
#611 = PCURVE('',#186,#612);
#612 = DEFINITIONAL_REPRESENTATION('',(#613),#616);
#613 = B_SPLINE_CURVE_WITH_KNOTS('',1,(#614,#615),.UNSPECIFIED.,.F.,.F.,
  (2,2),(0.,7.461125503744),.PIECEWISE_BEZIER_KNOTS.);
#614 = CARTESIAN_POINT('',(6.282954461046,0.));
#615 = CARTESIAN_POINT('',(6.282954461046,7.461125503744));
#616 = ( GEOMETRIC_REPRESENTATION_CONTEXT(2) 
PARAMETRIC_REPRESENTATION_CONTEXT() REPRESENTATION_CONTEXT('2D SPACE',''
  ) );
#617 = ORIENTED_EDGE('',*,*,#198,.T.);
#618 = ORIENTED_EDGE('',*,*,#619,.T.);
#619 = EDGE_CURVE('',#199,#620,#622,.T.);
#620 = VERTEX_POINT('',#621);
#621 = CARTESIAN_POINT('',(3.753776949691,-6.498267602854,7.730562751872
    ));
#622 = SURFACE_CURVE('',#623,(#627,#633),.PCURVE_S1.);
#623 = LINE('',#624,#625);
#624 = CARTESIAN_POINT('',(3.753776949691,-6.498267602854,0.269437248128
    ));
#625 = VECTOR('',#626,1.);
#626 = DIRECTION('',(0.,0.,1.));
#627 = PCURVE('',#224,#628);
#628 = DEFINITIONAL_REPRESENTATION('',(#629),#632);
#629 = B_SPLINE_CURVE_WITH_KNOTS('',1,(#630,#631),.UNSPECIFIED.,.F.,.F.,
  (2,2),(-6.000000000173E-07,7.461126103744),.PIECEWISE_BEZIER_KNOTS.);
#630 = CARTESIAN_POINT('',(2.000399917186E-03,-0.269436648128));
#631 = CARTESIAN_POINT('',(2.000399917186E-03,-7.730563351872));
#632 = ( GEOMETRIC_REPRESENTATION_CONTEXT(2) 
PARAMETRIC_REPRESENTATION_CONTEXT() REPRESENTATION_CONTEXT('2D SPACE',''
  ) );
#633 = PCURVE('',#253,#634);
#634 = DEFINITIONAL_REPRESENTATION('',(#635),#638);
#635 = B_SPLINE_CURVE_WITH_KNOTS('',1,(#636,#637),.UNSPECIFIED.,.F.,.F.,
  (2,2),(-6.000000000173E-07,7.461126103744),.PIECEWISE_BEZIER_KNOTS.);
#636 = CARTESIAN_POINT('',(5.236218602117,-6.000000000173E-07));
#637 = CARTESIAN_POINT('',(5.236218602117,7.461126103744));
#638 = ( GEOMETRIC_REPRESENTATION_CONTEXT(2) 
PARAMETRIC_REPRESENTATION_CONTEXT() REPRESENTATION_CONTEXT('2D SPACE',''
  ) );
#639 = ORIENTED_EDGE('',*,*,#640,.F.);
#640 = EDGE_CURVE('',#641,#620,#643,.T.);
#641 = VERTEX_POINT('',#642);
#642 = CARTESIAN_POINT('',(5.629165135718,-3.249999980741,8.));
#643 = SURFACE_CURVE('',#644,(#649,#656),.PCURVE_S1.);
#644 = HYPERBOLA('',#645,1.74340352581,6.5);
#645 = AXIS2_PLACEMENT_3D('',#646,#647,#648);
#646 = CARTESIAN_POINT('',(5.629165124599,-3.25,9.74340352581));
#647 = DIRECTION('',(-0.866025403784,0.5,0.));
#648 = DIRECTION('',(-0.,0.,-1.));
#649 = PCURVE('',#224,#650);
#650 = DEFINITIONAL_REPRESENTATION('',(#651),#655);
#651 = ( BOUNDED_CURVE() B_SPLINE_CURVE(2,(#652,#653,#654),
.UNSPECIFIED.,.F.,.F.) B_SPLINE_CURVE_WITH_KNOTS((3,3),(
-2.246168653295E-08,0.549039603938),.PIECEWISE_BEZIER_KNOTS.) CURVE() 
GEOMETRIC_REPRESENTATION_ITEM() RATIONAL_B_SPLINE_CURVE((1.,
1.037917796645,1.)) REPRESENTATION_ITEM('') );
#652 = CARTESIAN_POINT('',(3.752776895734,-8.));
#653 = CARTESIAN_POINT('',(2.011911167759,-8.000000010488));
#654 = CARTESIAN_POINT('',(2.000399917184E-03,-7.730562751872));
#655 = ( GEOMETRIC_REPRESENTATION_CONTEXT(2) 
PARAMETRIC_REPRESENTATION_CONTEXT() REPRESENTATION_CONTEXT('2D SPACE',''
  ) );
#656 = PCURVE('',#657,#662);
#657 = CONICAL_SURFACE('',#658,7.504553499465,1.30874808881);
#658 = AXIS2_PLACEMENT_3D('',#659,#660,#661);
#659 = CARTESIAN_POINT('',(0.,0.,7.730562751872));
#660 = DIRECTION('',(-0.,-0.,-1.));
#661 = DIRECTION('',(1.,0.,-0.));
#662 = DEFINITIONAL_REPRESENTATION('',(#663),#671);
#663 = B_SPLINE_CURVE_WITH_KNOTS('',6,(#664,#665,#666,#667,#668,#669,
    #670),.UNSPECIFIED.,.F.,.F.,(7,7),(-2.246168653295E-08,
    0.549039603938),.PIECEWISE_BEZIER_KNOTS.);
#664 = CARTESIAN_POINT('',(-5.759586554043,-0.269437248128));
#665 = CARTESIAN_POINT('',(-5.668079949643,-0.269437251711));
#666 = CARTESIAN_POINT('',(-5.576573771155,-0.25191926687));
#667 = CARTESIAN_POINT('',(-5.486443842293,-0.216883347148));
#668 = CARTESIAN_POINT('',(-5.39908338876,-0.163889256613));
#669 = CARTESIAN_POINT('',(-5.315476206003,-9.205728710199E-02));
#670 = CARTESIAN_POINT('',(-5.236218602117,4.444719785301E-16));
#671 = ( GEOMETRIC_REPRESENTATION_CONTEXT(2) 
PARAMETRIC_REPRESENTATION_CONTEXT() REPRESENTATION_CONTEXT('2D SPACE',''
  ) );
#672 = ORIENTED_EDGE('',*,*,#673,.F.);
#673 = EDGE_CURVE('',#598,#641,#674,.T.);
#674 = SURFACE_CURVE('',#675,(#680,#687),.PCURVE_S1.);
#675 = HYPERBOLA('',#676,1.74340352581,6.5);
#676 = AXIS2_PLACEMENT_3D('',#677,#678,#679);
#677 = CARTESIAN_POINT('',(5.629165124599,-3.25,9.74340352581));
#678 = DIRECTION('',(-0.866025403784,0.5,0.));
#679 = DIRECTION('',(-0.,0.,-1.));
#680 = PCURVE('',#224,#681);
#681 = DEFINITIONAL_REPRESENTATION('',(#682),#686);
#682 = ( BOUNDED_CURVE() B_SPLINE_CURVE(2,(#683,#684,#685),
.UNSPECIFIED.,.F.,.F.) B_SPLINE_CURVE_WITH_KNOTS((3,3),(-0.549039603938,
-2.246168653295E-08),.PIECEWISE_BEZIER_KNOTS.) CURVE() 
GEOMETRIC_REPRESENTATION_ITEM() RATIONAL_B_SPLINE_CURVE((1.,
1.037917790402,1.)) REPRESENTATION_ITEM('') );
#683 = CARTESIAN_POINT('',(7.503553099548,-7.730562751872));
#684 = CARTESIAN_POINT('',(5.49364248818,-7.999999989512));
#685 = CARTESIAN_POINT('',(3.752776895734,-8.));
#686 = ( GEOMETRIC_REPRESENTATION_CONTEXT(2) 
PARAMETRIC_REPRESENTATION_CONTEXT() REPRESENTATION_CONTEXT('2D SPACE',''
  ) );
#687 = PCURVE('',#688,#693);
#688 = CONICAL_SURFACE('',#689,7.504553499465,1.30874808881);
#689 = AXIS2_PLACEMENT_3D('',#690,#691,#692);
#690 = CARTESIAN_POINT('',(0.,0.,7.730562751872));
#691 = DIRECTION('',(-0.,-0.,-1.));
#692 = DIRECTION('',(1.,0.,-0.));
#693 = DEFINITIONAL_REPRESENTATION('',(#694),#702);
#694 = B_SPLINE_CURVE_WITH_KNOTS('',6,(#695,#696,#697,#698,#699,#700,
    #701),.UNSPECIFIED.,.F.,.F.,(7,7),(-0.549039603938,
    -2.246168653295E-08),.PIECEWISE_BEZIER_KNOTS.);
#695 = CARTESIAN_POINT('',(-6.282954461046,1.62628757381E-16));
#696 = CARTESIAN_POINT('',(-6.203696863645,-9.20572795697E-02));
#697 = CARTESIAN_POINT('',(-6.120089688084,-0.163889244858));
#698 = CARTESIAN_POINT('',(-6.032729242314,-0.216883334139));
#699 = CARTESIAN_POINT('',(-5.942599321505,-0.251919255403));
#700 = CARTESIAN_POINT('',(-5.851093150956,-0.269437244545));
#701 = CARTESIAN_POINT('',(-5.759586554043,-0.269437248128));
#702 = ( GEOMETRIC_REPRESENTATION_CONTEXT(2) 
PARAMETRIC_REPRESENTATION_CONTEXT() REPRESENTATION_CONTEXT('2D SPACE',''
  ) );
#703 = ADVANCED_FACE('',(#704),#657,.T.);
#704 = FACE_BOUND('',#705,.T.);
#705 = EDGE_LOOP('',(#706,#730,#731,#760));
#706 = ORIENTED_EDGE('',*,*,#707,.T.);
#707 = EDGE_CURVE('',#708,#620,#710,.T.);
#708 = VERTEX_POINT('',#709);
#709 = CARTESIAN_POINT('',(3.750776349815,-6.5,7.730562751872));
#710 = SURFACE_CURVE('',#711,(#716,#723),.PCURVE_S1.);
#711 = CIRCLE('',#712,7.504553499465);
#712 = AXIS2_PLACEMENT_3D('',#713,#714,#715);
#713 = CARTESIAN_POINT('',(0.,0.,7.730562751872));
#714 = DIRECTION('',(0.,0.,1.));
#715 = DIRECTION('',(1.,0.,-0.));
#716 = PCURVE('',#657,#717);
#717 = DEFINITIONAL_REPRESENTATION('',(#718),#722);
#718 = LINE('',#719,#720);
#719 = CARTESIAN_POINT('',(-0.,-0.));
#720 = VECTOR('',#721,1.);
#721 = DIRECTION('',(-1.,-0.));
#722 = ( GEOMETRIC_REPRESENTATION_CONTEXT(2) 
PARAMETRIC_REPRESENTATION_CONTEXT() REPRESENTATION_CONTEXT('2D SPACE',''
  ) );
#723 = PCURVE('',#253,#724);
#724 = DEFINITIONAL_REPRESENTATION('',(#725),#729);
#725 = LINE('',#726,#727);
#726 = CARTESIAN_POINT('',(0.,7.461125503744));
#727 = VECTOR('',#728,1.);
#728 = DIRECTION('',(1.,0.));
#729 = ( GEOMETRIC_REPRESENTATION_CONTEXT(2) 
PARAMETRIC_REPRESENTATION_CONTEXT() REPRESENTATION_CONTEXT('2D SPACE',''
  ) );
#730 = ORIENTED_EDGE('',*,*,#640,.F.);
#731 = ORIENTED_EDGE('',*,*,#732,.F.);
#732 = EDGE_CURVE('',#733,#641,#735,.T.);
#733 = VERTEX_POINT('',#734);
#734 = CARTESIAN_POINT('',(-6.709496775833E-13,-6.5,8.));
#735 = SURFACE_CURVE('',#736,(#741,#748),.PCURVE_S1.);
#736 = CIRCLE('',#737,6.5);
#737 = AXIS2_PLACEMENT_3D('',#738,#739,#740);
#738 = CARTESIAN_POINT('',(0.,0.,8.));
#739 = DIRECTION('',(0.,0.,1.));
#740 = DIRECTION('',(1.,0.,-0.));
#741 = PCURVE('',#657,#742);
#742 = DEFINITIONAL_REPRESENTATION('',(#743),#747);
#743 = LINE('',#744,#745);
#744 = CARTESIAN_POINT('',(-0.,-0.269437248128));
#745 = VECTOR('',#746,1.);
#746 = DIRECTION('',(-1.,-0.));
#747 = ( GEOMETRIC_REPRESENTATION_CONTEXT(2) 
PARAMETRIC_REPRESENTATION_CONTEXT() REPRESENTATION_CONTEXT('2D SPACE',''
  ) );
#748 = PCURVE('',#749,#754);
#749 = PLANE('',#750);
#750 = AXIS2_PLACEMENT_3D('',#751,#752,#753);
#751 = CARTESIAN_POINT('',(0.,0.,8.));
#752 = DIRECTION('',(0.,0.,1.));
#753 = DIRECTION('',(1.,0.,-0.));
#754 = DEFINITIONAL_REPRESENTATION('',(#755),#759);
#755 = CIRCLE('',#756,6.5);
#756 = AXIS2_PLACEMENT_2D('',#757,#758);
#757 = CARTESIAN_POINT('',(0.,0.));
#758 = DIRECTION('',(1.,0.));
#759 = ( GEOMETRIC_REPRESENTATION_CONTEXT(2) 
PARAMETRIC_REPRESENTATION_CONTEXT() REPRESENTATION_CONTEXT('2D SPACE',''
  ) );
#760 = ORIENTED_EDGE('',*,*,#761,.F.);
#761 = EDGE_CURVE('',#708,#733,#762,.T.);
#762 = SURFACE_CURVE('',#763,(#768,#779),.PCURVE_S1.);
#763 = HYPERBOLA('',#764,1.74340352581,6.5);
#764 = AXIS2_PLACEMENT_3D('',#765,#766,#767);
#765 = CARTESIAN_POINT('',(-3.076740298214E-15,-6.5,9.74340352581));
#766 = DIRECTION('',(4.733446612636E-16,1.,0.));
#767 = DIRECTION('',(0.,-0.,-1.));
#768 = PCURVE('',#657,#769);
#769 = DEFINITIONAL_REPRESENTATION('',(#770),#778);
#770 = B_SPLINE_CURVE_WITH_KNOTS('',6,(#771,#772,#773,#774,#775,#776,
    #777),.UNSPECIFIED.,.F.,.F.,(7,7),(-0.549039603938,
    -2.896476413915E-16),.PIECEWISE_BEZIER_KNOTS.);
#771 = CARTESIAN_POINT('',(-5.235756909849,0.));
#772 = CARTESIAN_POINT('',(-5.156499309206,-9.205728333584E-02));
#773 = CARTESIAN_POINT('',(-5.072892130047,-0.163889250736));
#774 = CARTESIAN_POINT('',(-4.985531680395,-0.216883340643));
#775 = CARTESIAN_POINT('',(-4.89540175556,-0.251919261136));
#776 = CARTESIAN_POINT('',(-4.803895581041,-0.269437248128));
#777 = CARTESIAN_POINT('',(-4.712388980385,-0.269437248128));
#778 = ( GEOMETRIC_REPRESENTATION_CONTEXT(2) 
PARAMETRIC_REPRESENTATION_CONTEXT() REPRESENTATION_CONTEXT('2D SPACE',''
  ) );
#779 = PCURVE('',#291,#780);
#780 = DEFINITIONAL_REPRESENTATION('',(#781),#785);
#781 = ( BOUNDED_CURVE() B_SPLINE_CURVE(2,(#782,#783,#784),
.UNSPECIFIED.,.F.,.F.) B_SPLINE_CURVE_WITH_KNOTS((3,3),(-0.549039603938,
-2.896476413915E-16),.PIECEWISE_BEZIER_KNOTS.) CURVE() 
GEOMETRIC_REPRESENTATION_ITEM() RATIONAL_B_SPLINE_CURVE((1.,
1.037917793524,1.)) REPRESENTATION_ITEM('') );
#782 = CARTESIAN_POINT('',(7.503553099548,-7.730562751872));
#783 = CARTESIAN_POINT('',(5.493642409943,-8.));
#784 = CARTESIAN_POINT('',(3.752776749733,-8.));
#785 = ( GEOMETRIC_REPRESENTATION_CONTEXT(2) 
PARAMETRIC_REPRESENTATION_CONTEXT() REPRESENTATION_CONTEXT('2D SPACE',''
  ) );
#786 = ADVANCED_FACE('',(#787,#928),#749,.T.);
#787 = FACE_BOUND('',#788,.T.);
#788 = EDGE_LOOP('',(#789,#813,#842,#871,#900,#927));
#789 = ORIENTED_EDGE('',*,*,#790,.T.);
#790 = EDGE_CURVE('',#641,#791,#793,.T.);
#791 = VERTEX_POINT('',#792);
#792 = CARTESIAN_POINT('',(5.629165108067,3.250000028634,8.));
#793 = SURFACE_CURVE('',#794,(#799,#806),.PCURVE_S1.);
#794 = CIRCLE('',#795,6.5);
#795 = AXIS2_PLACEMENT_3D('',#796,#797,#798);
#796 = CARTESIAN_POINT('',(0.,0.,8.));
#797 = DIRECTION('',(0.,0.,1.));
#798 = DIRECTION('',(0.866025405495,-0.499999997037,0.));
#799 = PCURVE('',#749,#800);
#800 = DEFINITIONAL_REPRESENTATION('',(#801),#805);
#801 = CIRCLE('',#802,6.5);
#802 = AXIS2_PLACEMENT_2D('',#803,#804);
#803 = CARTESIAN_POINT('',(0.,0.));
#804 = DIRECTION('',(0.866025405495,-0.499999997037));
#805 = ( GEOMETRIC_REPRESENTATION_CONTEXT(2) 
PARAMETRIC_REPRESENTATION_CONTEXT() REPRESENTATION_CONTEXT('2D SPACE',''
  ) );
#806 = PCURVE('',#688,#807);
#807 = DEFINITIONAL_REPRESENTATION('',(#808),#812);
#808 = LINE('',#809,#810);
#809 = CARTESIAN_POINT('',(-5.759586535003,-0.269437248128));
#810 = VECTOR('',#811,1.);
#811 = DIRECTION('',(-1.,-0.));
#812 = ( GEOMETRIC_REPRESENTATION_CONTEXT(2) 
PARAMETRIC_REPRESENTATION_CONTEXT() REPRESENTATION_CONTEXT('2D SPACE',''
  ) );
#813 = ORIENTED_EDGE('',*,*,#814,.T.);
#814 = EDGE_CURVE('',#791,#815,#817,.T.);
#815 = VERTEX_POINT('',#816);
#816 = CARTESIAN_POINT('',(2.11240581463E-08,6.5,8.));
#817 = SURFACE_CURVE('',#818,(#823,#830),.PCURVE_S1.);
#818 = CIRCLE('',#819,6.5);
#819 = AXIS2_PLACEMENT_3D('',#820,#821,#822);
#820 = CARTESIAN_POINT('',(0.,0.,8.));
#821 = DIRECTION('',(0.,0.,1.));
#822 = DIRECTION('',(1.,0.,-0.));
#823 = PCURVE('',#749,#824);
#824 = DEFINITIONAL_REPRESENTATION('',(#825),#829);
#825 = CIRCLE('',#826,6.5);
#826 = AXIS2_PLACEMENT_2D('',#827,#828);
#827 = CARTESIAN_POINT('',(0.,0.));
#828 = DIRECTION('',(1.,0.));
#829 = ( GEOMETRIC_REPRESENTATION_CONTEXT(2) 
PARAMETRIC_REPRESENTATION_CONTEXT() REPRESENTATION_CONTEXT('2D SPACE',''
  ) );
#830 = PCURVE('',#831,#836);
#831 = CONICAL_SURFACE('',#832,7.504553499465,1.30874808881);
#832 = AXIS2_PLACEMENT_3D('',#833,#834,#835);
#833 = CARTESIAN_POINT('',(0.,0.,7.730562751872));
#834 = DIRECTION('',(-0.,-0.,-1.));
#835 = DIRECTION('',(1.,0.,-0.));
#836 = DEFINITIONAL_REPRESENTATION('',(#837),#841);
#837 = LINE('',#838,#839);
#838 = CARTESIAN_POINT('',(-0.,-0.269437248128));
#839 = VECTOR('',#840,1.);
#840 = DIRECTION('',(-1.,-0.));
#841 = ( GEOMETRIC_REPRESENTATION_CONTEXT(2) 
PARAMETRIC_REPRESENTATION_CONTEXT() REPRESENTATION_CONTEXT('2D SPACE',''
  ) );
#842 = ORIENTED_EDGE('',*,*,#843,.T.);
#843 = EDGE_CURVE('',#815,#844,#846,.T.);
#844 = VERTEX_POINT('',#845);
#845 = CARTESIAN_POINT('',(-5.629165114594,3.250000017329,8.));
#846 = SURFACE_CURVE('',#847,(#852,#859),.PCURVE_S1.);
#847 = CIRCLE('',#848,6.5);
#848 = AXIS2_PLACEMENT_3D('',#849,#850,#851);
#849 = CARTESIAN_POINT('',(0.,0.,8.));
#850 = DIRECTION('',(0.,0.,1.));
#851 = DIRECTION('',(1.,0.,-0.));
#852 = PCURVE('',#749,#853);
#853 = DEFINITIONAL_REPRESENTATION('',(#854),#858);
#854 = CIRCLE('',#855,6.5);
#855 = AXIS2_PLACEMENT_2D('',#856,#857);
#856 = CARTESIAN_POINT('',(0.,0.));
#857 = DIRECTION('',(1.,0.));
#858 = ( GEOMETRIC_REPRESENTATION_CONTEXT(2) 
PARAMETRIC_REPRESENTATION_CONTEXT() REPRESENTATION_CONTEXT('2D SPACE',''
  ) );
#859 = PCURVE('',#860,#865);
#860 = CONICAL_SURFACE('',#861,7.504553499465,1.30874808881);
#861 = AXIS2_PLACEMENT_3D('',#862,#863,#864);
#862 = CARTESIAN_POINT('',(0.,0.,7.730562751872));
#863 = DIRECTION('',(-0.,-0.,-1.));
#864 = DIRECTION('',(1.,0.,-0.));
#865 = DEFINITIONAL_REPRESENTATION('',(#866),#870);
#866 = LINE('',#867,#868);
#867 = CARTESIAN_POINT('',(-0.,-0.269437248128));
#868 = VECTOR('',#869,1.);
#869 = DIRECTION('',(-1.,-0.));
#870 = ( GEOMETRIC_REPRESENTATION_CONTEXT(2) 
PARAMETRIC_REPRESENTATION_CONTEXT() REPRESENTATION_CONTEXT('2D SPACE',''
  ) );
#871 = ORIENTED_EDGE('',*,*,#872,.T.);
#872 = EDGE_CURVE('',#844,#873,#875,.T.);
#873 = VERTEX_POINT('',#874);
#874 = CARTESIAN_POINT('',(-5.629165108067,-3.250000028635,8.));
#875 = SURFACE_CURVE('',#876,(#881,#888),.PCURVE_S1.);
#876 = CIRCLE('',#877,6.5);
#877 = AXIS2_PLACEMENT_3D('',#878,#879,#880);
#878 = CARTESIAN_POINT('',(0.,0.,8.));
#879 = DIRECTION('',(0.,0.,1.));
#880 = DIRECTION('',(1.,0.,-0.));
#881 = PCURVE('',#749,#882);
#882 = DEFINITIONAL_REPRESENTATION('',(#883),#887);
#883 = CIRCLE('',#884,6.5);
#884 = AXIS2_PLACEMENT_2D('',#885,#886);
#885 = CARTESIAN_POINT('',(0.,0.));
#886 = DIRECTION('',(1.,0.));
#887 = ( GEOMETRIC_REPRESENTATION_CONTEXT(2) 
PARAMETRIC_REPRESENTATION_CONTEXT() REPRESENTATION_CONTEXT('2D SPACE',''
  ) );
#888 = PCURVE('',#889,#894);
#889 = CONICAL_SURFACE('',#890,7.504553499465,1.30874808881);
#890 = AXIS2_PLACEMENT_3D('',#891,#892,#893);
#891 = CARTESIAN_POINT('',(0.,0.,7.730562751872));
#892 = DIRECTION('',(-0.,-0.,-1.));
#893 = DIRECTION('',(1.,0.,-0.));
#894 = DEFINITIONAL_REPRESENTATION('',(#895),#899);
#895 = LINE('',#896,#897);
#896 = CARTESIAN_POINT('',(-0.,-0.269437248128));
#897 = VECTOR('',#898,1.);
#898 = DIRECTION('',(-1.,-0.));
#899 = ( GEOMETRIC_REPRESENTATION_CONTEXT(2) 
PARAMETRIC_REPRESENTATION_CONTEXT() REPRESENTATION_CONTEXT('2D SPACE',''
  ) );
#900 = ORIENTED_EDGE('',*,*,#901,.T.);
#901 = EDGE_CURVE('',#873,#733,#902,.T.);
#902 = SURFACE_CURVE('',#903,(#908,#915),.PCURVE_S1.);
#903 = CIRCLE('',#904,6.5);
#904 = AXIS2_PLACEMENT_3D('',#905,#906,#907);
#905 = CARTESIAN_POINT('',(0.,0.,8.));
#906 = DIRECTION('',(0.,0.,1.));
#907 = DIRECTION('',(1.,0.,-0.));
#908 = PCURVE('',#749,#909);
#909 = DEFINITIONAL_REPRESENTATION('',(#910),#914);
#910 = CIRCLE('',#911,6.5);
#911 = AXIS2_PLACEMENT_2D('',#912,#913);
#912 = CARTESIAN_POINT('',(0.,0.));
#913 = DIRECTION('',(1.,0.));
#914 = ( GEOMETRIC_REPRESENTATION_CONTEXT(2) 
PARAMETRIC_REPRESENTATION_CONTEXT() REPRESENTATION_CONTEXT('2D SPACE',''
  ) );
#915 = PCURVE('',#916,#921);
#916 = CONICAL_SURFACE('',#917,7.504553499465,1.30874808881);
#917 = AXIS2_PLACEMENT_3D('',#918,#919,#920);
#918 = CARTESIAN_POINT('',(0.,0.,7.730562751872));
#919 = DIRECTION('',(-0.,-0.,-1.));
#920 = DIRECTION('',(1.,0.,-0.));
#921 = DEFINITIONAL_REPRESENTATION('',(#922),#926);
#922 = LINE('',#923,#924);
#923 = CARTESIAN_POINT('',(-0.,-0.269437248128));
#924 = VECTOR('',#925,1.);
#925 = DIRECTION('',(-1.,-0.));
#926 = ( GEOMETRIC_REPRESENTATION_CONTEXT(2) 
PARAMETRIC_REPRESENTATION_CONTEXT() REPRESENTATION_CONTEXT('2D SPACE',''
  ) );
#927 = ORIENTED_EDGE('',*,*,#732,.T.);
#928 = FACE_BOUND('',#929,.T.);
#929 = EDGE_LOOP('',(#930));
#930 = ORIENTED_EDGE('',*,*,#931,.F.);
#931 = EDGE_CURVE('',#932,#932,#934,.T.);
#932 = VERTEX_POINT('',#933);
#933 = CARTESIAN_POINT('',(-4.,9.797174393179E-16,8.));
#934 = SURFACE_CURVE('',#935,(#940,#947),.PCURVE_S1.);
#935 = CIRCLE('',#936,4.);
#936 = AXIS2_PLACEMENT_3D('',#937,#938,#939);
#937 = CARTESIAN_POINT('',(0.,0.,8.));
#938 = DIRECTION('',(0.,0.,1.));
#939 = DIRECTION('',(-1.,0.,0.));
#940 = PCURVE('',#749,#941);
#941 = DEFINITIONAL_REPRESENTATION('',(#942),#946);
#942 = CIRCLE('',#943,4.);
#943 = AXIS2_PLACEMENT_2D('',#944,#945);
#944 = CARTESIAN_POINT('',(0.,0.));
#945 = DIRECTION('',(-1.,0.));
#946 = ( GEOMETRIC_REPRESENTATION_CONTEXT(2) 
PARAMETRIC_REPRESENTATION_CONTEXT() REPRESENTATION_CONTEXT('2D SPACE',''
  ) );
#947 = PCURVE('',#43,#948);
#948 = DEFINITIONAL_REPRESENTATION('',(#949),#953);
#949 = LINE('',#950,#951);
#950 = CARTESIAN_POINT('',(0.,8.));
#951 = VECTOR('',#952,1.);
#952 = DIRECTION('',(1.,0.));
#953 = ( GEOMETRIC_REPRESENTATION_CONTEXT(2) 
PARAMETRIC_REPRESENTATION_CONTEXT() REPRESENTATION_CONTEXT('2D SPACE',''
  ) );
#954 = ADVANCED_FACE('',(#955),#916,.T.);
#955 = FACE_BOUND('',#956,.T.);
#956 = EDGE_LOOP('',(#957,#985,#986,#1014));
#957 = ORIENTED_EDGE('',*,*,#958,.F.);
#958 = EDGE_CURVE('',#733,#959,#961,.T.);
#959 = VERTEX_POINT('',#960);
#960 = CARTESIAN_POINT('',(-3.750776349815,-6.5,7.730562751872));
#961 = SURFACE_CURVE('',#962,(#967,#978),.PCURVE_S1.);
#962 = HYPERBOLA('',#963,1.74340352581,6.5);
#963 = AXIS2_PLACEMENT_3D('',#964,#965,#966);
#964 = CARTESIAN_POINT('',(-3.076740298214E-15,-6.5,9.74340352581));
#965 = DIRECTION('',(4.733446612636E-16,1.,0.));
#966 = DIRECTION('',(0.,-0.,-1.));
#967 = PCURVE('',#916,#968);
#968 = DEFINITIONAL_REPRESENTATION('',(#969),#977);
#969 = B_SPLINE_CURVE_WITH_KNOTS('',6,(#970,#971,#972,#973,#974,#975,
    #976),.UNSPECIFIED.,.F.,.F.,(7,7),(-2.896476413915E-16,
    0.549039603938),.PIECEWISE_BEZIER_KNOTS.);
#970 = CARTESIAN_POINT('',(-4.712388980385,-0.269437248128));
#971 = CARTESIAN_POINT('',(-4.620882379728,-0.269437248128));
#972 = CARTESIAN_POINT('',(-4.529376205209,-0.251919261136));
#973 = CARTESIAN_POINT('',(-4.439246280374,-0.216883340643));
#974 = CARTESIAN_POINT('',(-4.351885830722,-0.163889250736));
#975 = CARTESIAN_POINT('',(-4.268278651563,-9.205728333584E-02));
#976 = CARTESIAN_POINT('',(-4.18902105092,2.22235989265E-16));
#977 = ( GEOMETRIC_REPRESENTATION_CONTEXT(2) 
PARAMETRIC_REPRESENTATION_CONTEXT() REPRESENTATION_CONTEXT('2D SPACE',''
  ) );
#978 = PCURVE('',#291,#979);
#979 = DEFINITIONAL_REPRESENTATION('',(#980),#984);
#980 = ( BOUNDED_CURVE() B_SPLINE_CURVE(2,(#981,#982,#983),
.UNSPECIFIED.,.F.,.F.) B_SPLINE_CURVE_WITH_KNOTS((3,3),(
-2.896476413915E-16,0.549039603938),.PIECEWISE_BEZIER_KNOTS.) CURVE() 
GEOMETRIC_REPRESENTATION_ITEM() RATIONAL_B_SPLINE_CURVE((1.,
1.037917793524,1.)) REPRESENTATION_ITEM('') );
#981 = CARTESIAN_POINT('',(3.752776749733,-8.));
#982 = CARTESIAN_POINT('',(2.011911089522,-8.));
#983 = CARTESIAN_POINT('',(2.000399917186E-03,-7.730562751872));
#984 = ( GEOMETRIC_REPRESENTATION_CONTEXT(2) 
PARAMETRIC_REPRESENTATION_CONTEXT() REPRESENTATION_CONTEXT('2D SPACE',''
  ) );
#985 = ORIENTED_EDGE('',*,*,#901,.F.);
#986 = ORIENTED_EDGE('',*,*,#987,.F.);
#987 = EDGE_CURVE('',#988,#873,#990,.T.);
#988 = VERTEX_POINT('',#989);
#989 = CARTESIAN_POINT('',(-3.753776949691,-6.498267602854,
    7.730562751872));
#990 = SURFACE_CURVE('',#991,(#996,#1007),.PCURVE_S1.);
#991 = HYPERBOLA('',#992,1.74340352581,6.5);
#992 = AXIS2_PLACEMENT_3D('',#993,#994,#995);
#993 = CARTESIAN_POINT('',(-5.629165124599,-3.25,9.74340352581));
#994 = DIRECTION('',(0.866025403784,0.5,0.));
#995 = DIRECTION('',(0.,-0.,-1.));
#996 = PCURVE('',#916,#997);
#997 = DEFINITIONAL_REPRESENTATION('',(#998),#1006);
#998 = B_SPLINE_CURVE_WITH_KNOTS('',6,(#999,#1000,#1001,#1002,#1003,
    #1004,#1005),.UNSPECIFIED.,.F.,.F.,(7,7),(-0.549039603938,
    5.733051333898E-11),.PIECEWISE_BEZIER_KNOTS.);
#999 = CARTESIAN_POINT('',(-4.188559358653,-2.818432211491E-16));
#1000 = CARTESIAN_POINT('',(-4.109301758001,-9.205728334546E-02));
#1001 = CARTESIAN_POINT('',(-4.025694578833,-0.163889250751));
#1002 = CARTESIAN_POINT('',(-3.938334129171,-0.21688334066));
#1003 = CARTESIAN_POINT('',(-3.848204204325,-0.251919261151));
#1004 = CARTESIAN_POINT('',(-3.756698029797,-0.269437248137));
#1005 = CARTESIAN_POINT('',(-3.665191429131,-0.269437248128));
#1006 = ( GEOMETRIC_REPRESENTATION_CONTEXT(2) 
PARAMETRIC_REPRESENTATION_CONTEXT() REPRESENTATION_CONTEXT('2D SPACE',''
  ) );
#1007 = PCURVE('',#358,#1008);
#1008 = DEFINITIONAL_REPRESENTATION('',(#1009),#1013);
#1009 = ( BOUNDED_CURVE() B_SPLINE_CURVE(2,(#1010,#1011,#1012),
.UNSPECIFIED.,.F.,.F.) B_SPLINE_CURVE_WITH_KNOTS((3,3),(-0.549039603938,
5.733051333898E-11),.PIECEWISE_BEZIER_KNOTS.) CURVE() 
GEOMETRIC_REPRESENTATION_ITEM() RATIONAL_B_SPLINE_CURVE((1.,
1.037917793531,1.)) REPRESENTATION_ITEM('') );
#1010 = CARTESIAN_POINT('',(7.503553099548,-7.730562751872));
#1011 = CARTESIAN_POINT('',(5.493642409743,-8.000000000027));
#1012 = CARTESIAN_POINT('',(3.75277674936,-8.));
#1013 = ( GEOMETRIC_REPRESENTATION_CONTEXT(2) 
PARAMETRIC_REPRESENTATION_CONTEXT() REPRESENTATION_CONTEXT('2D SPACE',''
  ) );
#1014 = ORIENTED_EDGE('',*,*,#1015,.T.);
#1015 = EDGE_CURVE('',#988,#959,#1016,.T.);
#1016 = SURFACE_CURVE('',#1017,(#1022,#1029),.PCURVE_S1.);
#1017 = CIRCLE('',#1018,7.504553499465);
#1018 = AXIS2_PLACEMENT_3D('',#1019,#1020,#1021);
#1019 = CARTESIAN_POINT('',(0.,0.,7.730562751872));
#1020 = DIRECTION('',(0.,0.,1.));
#1021 = DIRECTION('',(1.,0.,-0.));
#1022 = PCURVE('',#916,#1023);
#1023 = DEFINITIONAL_REPRESENTATION('',(#1024),#1028);
#1024 = LINE('',#1025,#1026);
#1025 = CARTESIAN_POINT('',(-0.,-0.));
#1026 = VECTOR('',#1027,1.);
#1027 = DIRECTION('',(-1.,-0.));
#1028 = ( GEOMETRIC_REPRESENTATION_CONTEXT(2) 
PARAMETRIC_REPRESENTATION_CONTEXT() REPRESENTATION_CONTEXT('2D SPACE',''
  ) );
#1029 = PCURVE('',#320,#1030);
#1030 = DEFINITIONAL_REPRESENTATION('',(#1031),#1035);
#1031 = LINE('',#1032,#1033);
#1032 = CARTESIAN_POINT('',(0.,7.461125503744));
#1033 = VECTOR('',#1034,1.);
#1034 = DIRECTION('',(1.,0.));
#1035 = ( GEOMETRIC_REPRESENTATION_CONTEXT(2) 
PARAMETRIC_REPRESENTATION_CONTEXT() REPRESENTATION_CONTEXT('2D SPACE',''
  ) );
#1036 = ADVANCED_FACE('',(#1037),#889,.T.);
#1037 = FACE_BOUND('',#1038,.T.);
#1038 = EDGE_LOOP('',(#1039,#1040,#1068,#1092));
#1039 = ORIENTED_EDGE('',*,*,#872,.F.);
#1040 = ORIENTED_EDGE('',*,*,#1041,.F.);
#1041 = EDGE_CURVE('',#1042,#844,#1044,.T.);
#1042 = VERTEX_POINT('',#1043);
#1043 = CARTESIAN_POINT('',(-7.504553299507,1.732397146015E-03,
    7.730562751872));
#1044 = SURFACE_CURVE('',#1045,(#1050,#1061),.PCURVE_S1.);
#1045 = HYPERBOLA('',#1046,1.74340352581,6.5);
#1046 = AXIS2_PLACEMENT_3D('',#1047,#1048,#1049);
#1047 = CARTESIAN_POINT('',(-5.629165124599,3.25,9.74340352581));
#1048 = DIRECTION('',(0.866025403784,-0.5,0.));
#1049 = DIRECTION('',(0.,-0.,-1.));
#1050 = PCURVE('',#889,#1051);
#1051 = DEFINITIONAL_REPRESENTATION('',(#1052),#1060);
#1052 = B_SPLINE_CURVE_WITH_KNOTS('',6,(#1053,#1054,#1055,#1056,#1057,
    #1058,#1059),.UNSPECIFIED.,.F.,.F.,(7,7),(-0.549039603938,
    6.832141690001E-17),.PIECEWISE_BEZIER_KNOTS.);
#1053 = CARTESIAN_POINT('',(-3.141361807456,2.22235989265E-16));
#1054 = CARTESIAN_POINT('',(-3.062104206813,-9.205728333584E-02));
#1055 = CARTESIAN_POINT('',(-2.978497027654,-0.163889250736));
#1056 = CARTESIAN_POINT('',(-2.891136578002,-0.216883340643));
#1057 = CARTESIAN_POINT('',(-2.801006653167,-0.251919261136));
#1058 = CARTESIAN_POINT('',(-2.709500478648,-0.269437248128));
#1059 = CARTESIAN_POINT('',(-2.617993877991,-0.269437248128));
#1060 = ( GEOMETRIC_REPRESENTATION_CONTEXT(2) 
PARAMETRIC_REPRESENTATION_CONTEXT() REPRESENTATION_CONTEXT('2D SPACE',''
  ) );
#1061 = PCURVE('',#425,#1062);
#1062 = DEFINITIONAL_REPRESENTATION('',(#1063),#1067);
#1063 = ( BOUNDED_CURVE() B_SPLINE_CURVE(2,(#1064,#1065,#1066),
.UNSPECIFIED.,.F.,.F.) B_SPLINE_CURVE_WITH_KNOTS((3,3),(-0.549039603938,
6.832141690001E-17),.PIECEWISE_BEZIER_KNOTS.) CURVE() 
GEOMETRIC_REPRESENTATION_ITEM() RATIONAL_B_SPLINE_CURVE((1.,
1.037917793524,1.)) REPRESENTATION_ITEM('') );
#1064 = CARTESIAN_POINT('',(7.503553099548,-7.730562751872));
#1065 = CARTESIAN_POINT('',(5.493642409943,-8.));
#1066 = CARTESIAN_POINT('',(3.752776749733,-8.));
#1067 = ( GEOMETRIC_REPRESENTATION_CONTEXT(2) 
PARAMETRIC_REPRESENTATION_CONTEXT() REPRESENTATION_CONTEXT('2D SPACE',''
  ) );
#1068 = ORIENTED_EDGE('',*,*,#1069,.T.);
#1069 = EDGE_CURVE('',#1042,#1070,#1072,.T.);
#1070 = VERTEX_POINT('',#1071);
#1071 = CARTESIAN_POINT('',(-7.504553299507,-1.732397146013E-03,
    7.730562751872));
#1072 = SURFACE_CURVE('',#1073,(#1078,#1085),.PCURVE_S1.);
#1073 = CIRCLE('',#1074,7.504553499465);
#1074 = AXIS2_PLACEMENT_3D('',#1075,#1076,#1077);
#1075 = CARTESIAN_POINT('',(0.,0.,7.730562751872));
#1076 = DIRECTION('',(0.,0.,1.));
#1077 = DIRECTION('',(1.,0.,-0.));
#1078 = PCURVE('',#889,#1079);
#1079 = DEFINITIONAL_REPRESENTATION('',(#1080),#1084);
#1080 = LINE('',#1081,#1082);
#1081 = CARTESIAN_POINT('',(-0.,-0.));
#1082 = VECTOR('',#1083,1.);
#1083 = DIRECTION('',(-1.,-0.));
#1084 = ( GEOMETRIC_REPRESENTATION_CONTEXT(2) 
PARAMETRIC_REPRESENTATION_CONTEXT() REPRESENTATION_CONTEXT('2D SPACE',''
  ) );
#1085 = PCURVE('',#387,#1086);
#1086 = DEFINITIONAL_REPRESENTATION('',(#1087),#1091);
#1087 = LINE('',#1088,#1089);
#1088 = CARTESIAN_POINT('',(0.,7.461125503744));
#1089 = VECTOR('',#1090,1.);
#1090 = DIRECTION('',(1.,0.));
#1091 = ( GEOMETRIC_REPRESENTATION_CONTEXT(2) 
PARAMETRIC_REPRESENTATION_CONTEXT() REPRESENTATION_CONTEXT('2D SPACE',''
  ) );
#1092 = ORIENTED_EDGE('',*,*,#1093,.F.);
#1093 = EDGE_CURVE('',#873,#1070,#1094,.T.);
#1094 = SURFACE_CURVE('',#1095,(#1100,#1111),.PCURVE_S1.);
#1095 = HYPERBOLA('',#1096,1.74340352581,6.5);
#1096 = AXIS2_PLACEMENT_3D('',#1097,#1098,#1099);
#1097 = CARTESIAN_POINT('',(-5.629165124599,-3.25,9.74340352581));
#1098 = DIRECTION('',(0.866025403784,0.5,0.));
#1099 = DIRECTION('',(0.,-0.,-1.));
#1100 = PCURVE('',#889,#1101);
#1101 = DEFINITIONAL_REPRESENTATION('',(#1102),#1110);
#1102 = B_SPLINE_CURVE_WITH_KNOTS('',6,(#1103,#1104,#1105,#1106,#1107,
    #1108,#1109),.UNSPECIFIED.,.F.,.F.,(7,7),(5.733051333898E-11,
    0.549039603938),.PIECEWISE_BEZIER_KNOTS.);
#1103 = CARTESIAN_POINT('',(-3.665191429131,-0.269437248128));
#1104 = CARTESIAN_POINT('',(-3.573684828484,-0.269437248119));
#1105 = CARTESIAN_POINT('',(-3.482178653975,-0.251919261122));
#1106 = CARTESIAN_POINT('',(-3.39204872915,-0.216883340627));
#1107 = CARTESIAN_POINT('',(-3.304688279509,-0.163889250721));
#1108 = CARTESIAN_POINT('',(-3.221081100359,-9.205728332623E-02));
#1109 = CARTESIAN_POINT('',(-3.141823499724,-5.960723188407E-17));
#1110 = ( GEOMETRIC_REPRESENTATION_CONTEXT(2) 
PARAMETRIC_REPRESENTATION_CONTEXT() REPRESENTATION_CONTEXT('2D SPACE',''
  ) );
#1111 = PCURVE('',#358,#1112);
#1112 = DEFINITIONAL_REPRESENTATION('',(#1113),#1117);
#1113 = ( BOUNDED_CURVE() B_SPLINE_CURVE(2,(#1114,#1115,#1116),
.UNSPECIFIED.,.F.,.F.) B_SPLINE_CURVE_WITH_KNOTS((3,3),(
5.733051333898E-11,0.549039603938),.PIECEWISE_BEZIER_KNOTS.) CURVE() 
GEOMETRIC_REPRESENTATION_ITEM() RATIONAL_B_SPLINE_CURVE((1.,
1.037917793516,1.)) REPRESENTATION_ITEM('') );
#1114 = CARTESIAN_POINT('',(3.75277674936,-8.));
#1115 = CARTESIAN_POINT('',(2.011911089322,-7.999999999973));
#1116 = CARTESIAN_POINT('',(2.000399917189E-03,-7.730562751872));
#1117 = ( GEOMETRIC_REPRESENTATION_CONTEXT(2) 
PARAMETRIC_REPRESENTATION_CONTEXT() REPRESENTATION_CONTEXT('2D SPACE',''
  ) );
#1118 = ADVANCED_FACE('',(#1119),#860,.T.);
#1119 = FACE_BOUND('',#1120,.T.);
#1120 = EDGE_LOOP('',(#1121,#1122,#1150,#1174));
#1121 = ORIENTED_EDGE('',*,*,#843,.F.);
#1122 = ORIENTED_EDGE('',*,*,#1123,.F.);
#1123 = EDGE_CURVE('',#1124,#815,#1126,.T.);
#1124 = VERTEX_POINT('',#1125);
#1125 = CARTESIAN_POINT('',(-3.750776349815,6.5,7.730562751872));
#1126 = SURFACE_CURVE('',#1127,(#1132,#1143),.PCURVE_S1.);
#1127 = HYPERBOLA('',#1128,1.74340352581,6.5);
#1128 = AXIS2_PLACEMENT_3D('',#1129,#1130,#1131);
#1129 = CARTESIAN_POINT('',(7.691850745534E-16,6.5,9.74340352581));
#1130 = DIRECTION('',(-1.183361653159E-16,-1.,0.));
#1131 = DIRECTION('',(-0.,0.,-1.));
#1132 = PCURVE('',#860,#1133);
#1133 = DEFINITIONAL_REPRESENTATION('',(#1134),#1142);
#1134 = B_SPLINE_CURVE_WITH_KNOTS('',6,(#1135,#1136,#1137,#1138,#1139,
    #1140,#1141),.UNSPECIFIED.,.F.,.F.,(7,7),(-0.549039603938,
    -5.710382535854E-17),.PIECEWISE_BEZIER_KNOTS.);
#1135 = CARTESIAN_POINT('',(-2.094164256259,0.));
#1136 = CARTESIAN_POINT('',(-2.014906655616,-9.205728333584E-02));
#1137 = CARTESIAN_POINT('',(-1.931299476457,-0.163889250736));
#1138 = CARTESIAN_POINT('',(-1.843939026805,-0.216883340643));
#1139 = CARTESIAN_POINT('',(-1.75380910197,-0.251919261136));
#1140 = CARTESIAN_POINT('',(-1.662302927451,-0.269437248128));
#1141 = CARTESIAN_POINT('',(-1.570796326795,-0.269437248128));
#1142 = ( GEOMETRIC_REPRESENTATION_CONTEXT(2) 
PARAMETRIC_REPRESENTATION_CONTEXT() REPRESENTATION_CONTEXT('2D SPACE',''
  ) );
#1143 = PCURVE('',#492,#1144);
#1144 = DEFINITIONAL_REPRESENTATION('',(#1145),#1149);
#1145 = ( BOUNDED_CURVE() B_SPLINE_CURVE(2,(#1146,#1147,#1148),
.UNSPECIFIED.,.F.,.F.) B_SPLINE_CURVE_WITH_KNOTS((3,3),(-0.549039603938,
-5.710382535854E-17),.PIECEWISE_BEZIER_KNOTS.) CURVE() 
GEOMETRIC_REPRESENTATION_ITEM() RATIONAL_B_SPLINE_CURVE((1.,
1.037917793524,1.)) REPRESENTATION_ITEM('') );
#1146 = CARTESIAN_POINT('',(7.503553099548,-7.730562751872));
#1147 = CARTESIAN_POINT('',(5.493642409943,-8.));
#1148 = CARTESIAN_POINT('',(3.752776749733,-8.));
#1149 = ( GEOMETRIC_REPRESENTATION_CONTEXT(2) 
PARAMETRIC_REPRESENTATION_CONTEXT() REPRESENTATION_CONTEXT('2D SPACE',''
  ) );
#1150 = ORIENTED_EDGE('',*,*,#1151,.T.);
#1151 = EDGE_CURVE('',#1124,#1152,#1154,.T.);
#1152 = VERTEX_POINT('',#1153);
#1153 = CARTESIAN_POINT('',(-3.753776949691,6.498267602854,
    7.730562751872));
#1154 = SURFACE_CURVE('',#1155,(#1160,#1167),.PCURVE_S1.);
#1155 = CIRCLE('',#1156,7.504553499465);
#1156 = AXIS2_PLACEMENT_3D('',#1157,#1158,#1159);
#1157 = CARTESIAN_POINT('',(0.,0.,7.730562751872));
#1158 = DIRECTION('',(0.,0.,1.));
#1159 = DIRECTION('',(1.,0.,-0.));
#1160 = PCURVE('',#860,#1161);
#1161 = DEFINITIONAL_REPRESENTATION('',(#1162),#1166);
#1162 = LINE('',#1163,#1164);
#1163 = CARTESIAN_POINT('',(-0.,-0.));
#1164 = VECTOR('',#1165,1.);
#1165 = DIRECTION('',(-1.,-0.));
#1166 = ( GEOMETRIC_REPRESENTATION_CONTEXT(2) 
PARAMETRIC_REPRESENTATION_CONTEXT() REPRESENTATION_CONTEXT('2D SPACE',''
  ) );
#1167 = PCURVE('',#454,#1168);
#1168 = DEFINITIONAL_REPRESENTATION('',(#1169),#1173);
#1169 = LINE('',#1170,#1171);
#1170 = CARTESIAN_POINT('',(0.,7.461125503744));
#1171 = VECTOR('',#1172,1.);
#1172 = DIRECTION('',(1.,0.));
#1173 = ( GEOMETRIC_REPRESENTATION_CONTEXT(2) 
PARAMETRIC_REPRESENTATION_CONTEXT() REPRESENTATION_CONTEXT('2D SPACE',''
  ) );
#1174 = ORIENTED_EDGE('',*,*,#1175,.F.);
#1175 = EDGE_CURVE('',#844,#1152,#1176,.T.);
#1176 = SURFACE_CURVE('',#1177,(#1182,#1193),.PCURVE_S1.);
#1177 = HYPERBOLA('',#1178,1.74340352581,6.5);
#1178 = AXIS2_PLACEMENT_3D('',#1179,#1180,#1181);
#1179 = CARTESIAN_POINT('',(-5.629165124599,3.25,9.74340352581));
#1180 = DIRECTION('',(0.866025403784,-0.5,0.));
#1181 = DIRECTION('',(0.,-0.,-1.));
#1182 = PCURVE('',#860,#1183);
#1183 = DEFINITIONAL_REPRESENTATION('',(#1184),#1192);
#1184 = B_SPLINE_CURVE_WITH_KNOTS('',6,(#1185,#1186,#1187,#1188,#1189,
    #1190,#1191),.UNSPECIFIED.,.F.,.F.,(7,7),(6.832141690001E-17,
    0.549039603938),.PIECEWISE_BEZIER_KNOTS.);
#1185 = CARTESIAN_POINT('',(-2.617993877991,-0.269437248128));
#1186 = CARTESIAN_POINT('',(-2.526487277335,-0.269437248128));
#1187 = CARTESIAN_POINT('',(-2.434981102816,-0.251919261136));
#1188 = CARTESIAN_POINT('',(-2.344851177981,-0.216883340643));
#1189 = CARTESIAN_POINT('',(-2.257490728329,-0.163889250736));
#1190 = CARTESIAN_POINT('',(-2.17388354917,-9.205728333584E-02));
#1191 = CARTESIAN_POINT('',(-2.094625948527,-5.960723188407E-17));
#1192 = ( GEOMETRIC_REPRESENTATION_CONTEXT(2) 
PARAMETRIC_REPRESENTATION_CONTEXT() REPRESENTATION_CONTEXT('2D SPACE',''
  ) );
#1193 = PCURVE('',#425,#1194);
#1194 = DEFINITIONAL_REPRESENTATION('',(#1195),#1199);
#1195 = ( BOUNDED_CURVE() B_SPLINE_CURVE(2,(#1196,#1197,#1198),
.UNSPECIFIED.,.F.,.F.) B_SPLINE_CURVE_WITH_KNOTS((3,3),(
6.832141690001E-17,0.549039603938),.PIECEWISE_BEZIER_KNOTS.) CURVE() 
GEOMETRIC_REPRESENTATION_ITEM() RATIONAL_B_SPLINE_CURVE((1.,
1.037917793524,1.)) REPRESENTATION_ITEM('') );
#1196 = CARTESIAN_POINT('',(3.752776749733,-8.));
#1197 = CARTESIAN_POINT('',(2.011911089522,-8.));
#1198 = CARTESIAN_POINT('',(2.000399917187E-03,-7.730562751872));
#1199 = ( GEOMETRIC_REPRESENTATION_CONTEXT(2) 
PARAMETRIC_REPRESENTATION_CONTEXT() REPRESENTATION_CONTEXT('2D SPACE',''
  ) );
#1200 = ADVANCED_FACE('',(#1201),#831,.T.);
#1201 = FACE_BOUND('',#1202,.T.);
#1202 = EDGE_LOOP('',(#1203,#1231,#1255,#1281));
#1203 = ORIENTED_EDGE('',*,*,#1204,.F.);
#1204 = EDGE_CURVE('',#1205,#791,#1207,.T.);
#1205 = VERTEX_POINT('',#1206);
#1206 = CARTESIAN_POINT('',(3.753776949691,6.498267602854,7.730562751872
    ));
#1207 = SURFACE_CURVE('',#1208,(#1213,#1224),.PCURVE_S1.);
#1208 = HYPERBOLA('',#1209,1.74340352581,6.5);
#1209 = AXIS2_PLACEMENT_3D('',#1210,#1211,#1212);
#1210 = CARTESIAN_POINT('',(5.629165124599,3.25,9.74340352581));
#1211 = DIRECTION('',(-0.866025403784,-0.5,0.));
#1212 = DIRECTION('',(-0.,0.,-1.));
#1213 = PCURVE('',#831,#1214);
#1214 = DEFINITIONAL_REPRESENTATION('',(#1215),#1223);
#1215 = B_SPLINE_CURVE_WITH_KNOTS('',6,(#1216,#1217,#1218,#1219,#1220,
    #1221,#1222),.UNSPECIFIED.,.F.,.F.,(7,7),(-0.549039603938,
    -3.733151644318E-16),.PIECEWISE_BEZIER_KNOTS.);
#1216 = CARTESIAN_POINT('',(-1.046966705063,2.22235989265E-16));
#1217 = CARTESIAN_POINT('',(-0.96770910442,-9.205728333584E-02));
#1218 = CARTESIAN_POINT('',(-0.88410192526,-0.163889250736));
#1219 = CARTESIAN_POINT('',(-0.796741475609,-0.216883340643));
#1220 = CARTESIAN_POINT('',(-0.706611550773,-0.251919261136));
#1221 = CARTESIAN_POINT('',(-0.615105376255,-0.269437248128));
#1222 = CARTESIAN_POINT('',(-0.523598775598,-0.269437248128));
#1223 = ( GEOMETRIC_REPRESENTATION_CONTEXT(2) 
PARAMETRIC_REPRESENTATION_CONTEXT() REPRESENTATION_CONTEXT('2D SPACE',''
  ) );
#1224 = PCURVE('',#559,#1225);
#1225 = DEFINITIONAL_REPRESENTATION('',(#1226),#1230);
#1226 = ( BOUNDED_CURVE() B_SPLINE_CURVE(2,(#1227,#1228,#1229),
.UNSPECIFIED.,.F.,.F.) B_SPLINE_CURVE_WITH_KNOTS((3,3),(-0.549039603938,
-3.733151644318E-16),.PIECEWISE_BEZIER_KNOTS.) CURVE() 
GEOMETRIC_REPRESENTATION_ITEM() RATIONAL_B_SPLINE_CURVE((1.,
1.037917793524,1.)) REPRESENTATION_ITEM('') );
#1227 = CARTESIAN_POINT('',(7.503553099548,-7.730562751872));
#1228 = CARTESIAN_POINT('',(5.493642409943,-8.));
#1229 = CARTESIAN_POINT('',(3.752776749733,-8.));
#1230 = ( GEOMETRIC_REPRESENTATION_CONTEXT(2) 
PARAMETRIC_REPRESENTATION_CONTEXT() REPRESENTATION_CONTEXT('2D SPACE',''
  ) );
#1231 = ORIENTED_EDGE('',*,*,#1232,.T.);
#1232 = EDGE_CURVE('',#1205,#1233,#1235,.T.);
#1233 = VERTEX_POINT('',#1234);
#1234 = CARTESIAN_POINT('',(3.750776349815,6.5,7.730562751872));
#1235 = SURFACE_CURVE('',#1236,(#1241,#1248),.PCURVE_S1.);
#1236 = CIRCLE('',#1237,7.504553499465);
#1237 = AXIS2_PLACEMENT_3D('',#1238,#1239,#1240);
#1238 = CARTESIAN_POINT('',(0.,0.,7.730562751872));
#1239 = DIRECTION('',(0.,0.,1.));
#1240 = DIRECTION('',(1.,0.,-0.));
#1241 = PCURVE('',#831,#1242);
#1242 = DEFINITIONAL_REPRESENTATION('',(#1243),#1247);
#1243 = LINE('',#1244,#1245);
#1244 = CARTESIAN_POINT('',(-0.,-0.));
#1245 = VECTOR('',#1246,1.);
#1246 = DIRECTION('',(-1.,-0.));
#1247 = ( GEOMETRIC_REPRESENTATION_CONTEXT(2) 
PARAMETRIC_REPRESENTATION_CONTEXT() REPRESENTATION_CONTEXT('2D SPACE',''
  ) );
#1248 = PCURVE('',#521,#1249);
#1249 = DEFINITIONAL_REPRESENTATION('',(#1250),#1254);
#1250 = LINE('',#1251,#1252);
#1251 = CARTESIAN_POINT('',(0.,7.461125503744));
#1252 = VECTOR('',#1253,1.);
#1253 = DIRECTION('',(1.,0.));
#1254 = ( GEOMETRIC_REPRESENTATION_CONTEXT(2) 
PARAMETRIC_REPRESENTATION_CONTEXT() REPRESENTATION_CONTEXT('2D SPACE',''
  ) );
#1255 = ORIENTED_EDGE('',*,*,#1256,.F.);
#1256 = EDGE_CURVE('',#815,#1233,#1257,.T.);
#1257 = SURFACE_CURVE('',#1258,(#1263,#1274),.PCURVE_S1.);
#1258 = HYPERBOLA('',#1259,1.74340352581,6.5);
#1259 = AXIS2_PLACEMENT_3D('',#1260,#1261,#1262);
#1260 = CARTESIAN_POINT('',(7.691850745534E-16,6.5,9.74340352581));
#1261 = DIRECTION('',(-1.183361653159E-16,-1.,0.));
#1262 = DIRECTION('',(-0.,0.,-1.));
#1263 = PCURVE('',#831,#1264);
#1264 = DEFINITIONAL_REPRESENTATION('',(#1265),#1273);
#1265 = B_SPLINE_CURVE_WITH_KNOTS('',6,(#1266,#1267,#1268,#1269,#1270,
    #1271,#1272),.UNSPECIFIED.,.F.,.F.,(7,7),(-5.710382535854E-17,
    0.549039603938),.PIECEWISE_BEZIER_KNOTS.);
#1266 = CARTESIAN_POINT('',(-1.570796326795,-0.269437248128));
#1267 = CARTESIAN_POINT('',(-1.479289726138,-0.269437248128));
#1268 = CARTESIAN_POINT('',(-1.38778355162,-0.251919261136));
#1269 = CARTESIAN_POINT('',(-1.297653626784,-0.216883340643));
#1270 = CARTESIAN_POINT('',(-1.210293177133,-0.163889250736));
#1271 = CARTESIAN_POINT('',(-1.126685997974,-9.205728333584E-02));
#1272 = CARTESIAN_POINT('',(-1.04742839733,0.));
#1273 = ( GEOMETRIC_REPRESENTATION_CONTEXT(2) 
PARAMETRIC_REPRESENTATION_CONTEXT() REPRESENTATION_CONTEXT('2D SPACE',''
  ) );
#1274 = PCURVE('',#492,#1275);
#1275 = DEFINITIONAL_REPRESENTATION('',(#1276),#1280);
#1276 = ( BOUNDED_CURVE() B_SPLINE_CURVE(2,(#1277,#1278,#1279),
.UNSPECIFIED.,.F.,.F.) B_SPLINE_CURVE_WITH_KNOTS((3,3),(
-5.710382535854E-17,0.549039603938),.PIECEWISE_BEZIER_KNOTS.) CURVE() 
GEOMETRIC_REPRESENTATION_ITEM() RATIONAL_B_SPLINE_CURVE((1.,
1.037917793524,1.)) REPRESENTATION_ITEM('') );
#1277 = CARTESIAN_POINT('',(3.752776749733,-8.));
#1278 = CARTESIAN_POINT('',(2.011911089522,-8.));
#1279 = CARTESIAN_POINT('',(2.000399917187E-03,-7.730562751872));
#1280 = ( GEOMETRIC_REPRESENTATION_CONTEXT(2) 
PARAMETRIC_REPRESENTATION_CONTEXT() REPRESENTATION_CONTEXT('2D SPACE',''
  ) );
#1281 = ORIENTED_EDGE('',*,*,#814,.F.);
#1282 = ADVANCED_FACE('',(#1283),#688,.T.);
#1283 = FACE_BOUND('',#1284,.T.);
#1284 = EDGE_LOOP('',(#1285,#1286,#1287,#1311));
#1285 = ORIENTED_EDGE('',*,*,#790,.F.);
#1286 = ORIENTED_EDGE('',*,*,#673,.F.);
#1287 = ORIENTED_EDGE('',*,*,#1288,.F.);
#1288 = EDGE_CURVE('',#1289,#598,#1291,.T.);
#1289 = VERTEX_POINT('',#1290);
#1290 = CARTESIAN_POINT('',(7.504553299507,1.732397146012E-03,
    7.730562751872));
#1291 = SURFACE_CURVE('',#1292,(#1297,#1304),.PCURVE_S1.);
#1292 = CIRCLE('',#1293,7.504553499465);
#1293 = AXIS2_PLACEMENT_3D('',#1294,#1295,#1296);
#1294 = CARTESIAN_POINT('',(0.,0.,7.730562751872));
#1295 = DIRECTION('',(0.,0.,-1.));
#1296 = DIRECTION('',(0.999999973355,2.308461317699E-04,0.));
#1297 = PCURVE('',#688,#1298);
#1298 = DEFINITIONAL_REPRESENTATION('',(#1299),#1303);
#1299 = LINE('',#1300,#1301);
#1300 = CARTESIAN_POINT('',(-6.283416153313,-0.));
#1301 = VECTOR('',#1302,1.);
#1302 = DIRECTION('',(1.,-0.));
#1303 = ( GEOMETRIC_REPRESENTATION_CONTEXT(2) 
PARAMETRIC_REPRESENTATION_CONTEXT() REPRESENTATION_CONTEXT('2D SPACE',''
  ) );
#1304 = PCURVE('',#186,#1305);
#1305 = DEFINITIONAL_REPRESENTATION('',(#1306),#1310);
#1306 = LINE('',#1307,#1308);
#1307 = CARTESIAN_POINT('',(6.283416153313,7.461125503744));
#1308 = VECTOR('',#1309,1.);
#1309 = DIRECTION('',(-1.,-0.));
#1310 = ( GEOMETRIC_REPRESENTATION_CONTEXT(2) 
PARAMETRIC_REPRESENTATION_CONTEXT() REPRESENTATION_CONTEXT('2D SPACE',''
  ) );
#1311 = ORIENTED_EDGE('',*,*,#1312,.F.);
#1312 = EDGE_CURVE('',#791,#1289,#1313,.T.);
#1313 = SURFACE_CURVE('',#1314,(#1319,#1330),.PCURVE_S1.);
#1314 = HYPERBOLA('',#1315,1.74340352581,6.5);
#1315 = AXIS2_PLACEMENT_3D('',#1316,#1317,#1318);
#1316 = CARTESIAN_POINT('',(5.629165124599,3.25,9.74340352581));
#1317 = DIRECTION('',(-0.866025403784,-0.5,0.));
#1318 = DIRECTION('',(-0.,0.,-1.));
#1319 = PCURVE('',#688,#1320);
#1320 = DEFINITIONAL_REPRESENTATION('',(#1321),#1329);
#1321 = B_SPLINE_CURVE_WITH_KNOTS('',6,(#1322,#1323,#1324,#1325,#1326,
    #1327,#1328),.UNSPECIFIED.,.F.,.F.,(7,7),(-3.733151644318E-16,
    0.549039603938),.PIECEWISE_BEZIER_KNOTS.);
#1322 = CARTESIAN_POINT('',(-6.806784082778,-0.269437248128));
#1323 = CARTESIAN_POINT('',(-6.715277482121,-0.269437248128));
#1324 = CARTESIAN_POINT('',(-6.623771307603,-0.251919261136));
#1325 = CARTESIAN_POINT('',(-6.533641382767,-0.216883340643));
#1326 = CARTESIAN_POINT('',(-6.446280933116,-0.163889250736));
#1327 = CARTESIAN_POINT('',(-6.362673753957,-9.205728333584E-02));
#1328 = CARTESIAN_POINT('',(-6.283416153313,2.22235989265E-16));
#1329 = ( GEOMETRIC_REPRESENTATION_CONTEXT(2) 
PARAMETRIC_REPRESENTATION_CONTEXT() REPRESENTATION_CONTEXT('2D SPACE',''
  ) );
#1330 = PCURVE('',#559,#1331);
#1331 = DEFINITIONAL_REPRESENTATION('',(#1332),#1336);
#1332 = ( BOUNDED_CURVE() B_SPLINE_CURVE(2,(#1333,#1334,#1335),
.UNSPECIFIED.,.F.,.F.) B_SPLINE_CURVE_WITH_KNOTS((3,3),(
-3.733151644318E-16,0.549039603938),.PIECEWISE_BEZIER_KNOTS.) CURVE() 
GEOMETRIC_REPRESENTATION_ITEM() RATIONAL_B_SPLINE_CURVE((1.,
1.037917793524,1.)) REPRESENTATION_ITEM('') );
#1333 = CARTESIAN_POINT('',(3.752776749733,-8.));
#1334 = CARTESIAN_POINT('',(2.011911089522,-8.));
#1335 = CARTESIAN_POINT('',(2.000399917187E-03,-7.730562751872));
#1336 = ( GEOMETRIC_REPRESENTATION_CONTEXT(2) 
PARAMETRIC_REPRESENTATION_CONTEXT() REPRESENTATION_CONTEXT('2D SPACE',''
  ) );
#1337 = ADVANCED_FACE('',(#1338),#253,.T.);
#1338 = FACE_BOUND('',#1339,.T.);
#1339 = EDGE_LOOP('',(#1340,#1359,#1360,#1361));
#1340 = ORIENTED_EDGE('',*,*,#1341,.F.);
#1341 = EDGE_CURVE('',#237,#708,#1342,.T.);
#1342 = SURFACE_CURVE('',#1343,(#1347,#1353),.PCURVE_S1.);
#1343 = LINE('',#1344,#1345);
#1344 = CARTESIAN_POINT('',(3.750776349815,-6.5,0.269437248128));
#1345 = VECTOR('',#1346,1.);
#1346 = DIRECTION('',(0.,0.,1.));
#1347 = PCURVE('',#253,#1348);
#1348 = DEFINITIONAL_REPRESENTATION('',(#1349),#1352);
#1349 = B_SPLINE_CURVE_WITH_KNOTS('',1,(#1350,#1351),.UNSPECIFIED.,.F.,
  .F.,(2,2),(-6.000000000173E-07,7.461126103744),
  .PIECEWISE_BEZIER_KNOTS.);
#1350 = CARTESIAN_POINT('',(5.235756909849,-6.000000000173E-07));
#1351 = CARTESIAN_POINT('',(5.235756909849,7.461126103744));
#1352 = ( GEOMETRIC_REPRESENTATION_CONTEXT(2) 
PARAMETRIC_REPRESENTATION_CONTEXT() REPRESENTATION_CONTEXT('2D SPACE',''
  ) );
#1353 = PCURVE('',#291,#1354);
#1354 = DEFINITIONAL_REPRESENTATION('',(#1355),#1358);
#1355 = B_SPLINE_CURVE_WITH_KNOTS('',1,(#1356,#1357),.UNSPECIFIED.,.F.,
  .F.,(2,2),(-6.000000000173E-07,7.461126103744),
  .PIECEWISE_BEZIER_KNOTS.);
#1356 = CARTESIAN_POINT('',(7.503553099548,-0.269436648128));
#1357 = CARTESIAN_POINT('',(7.503553099548,-7.730563351872));
#1358 = ( GEOMETRIC_REPRESENTATION_CONTEXT(2) 
PARAMETRIC_REPRESENTATION_CONTEXT() REPRESENTATION_CONTEXT('2D SPACE',''
  ) );
#1359 = ORIENTED_EDGE('',*,*,#236,.T.);
#1360 = ORIENTED_EDGE('',*,*,#619,.T.);
#1361 = ORIENTED_EDGE('',*,*,#707,.F.);
#1362 = ADVANCED_FACE('',(#1363),#291,.F.);
#1363 = FACE_BOUND('',#1364,.F.);
#1364 = EDGE_LOOP('',(#1365,#1366,#1367,#1386,#1387));
#1365 = ORIENTED_EDGE('',*,*,#1341,.F.);
#1366 = ORIENTED_EDGE('',*,*,#265,.T.);
#1367 = ORIENTED_EDGE('',*,*,#1368,.T.);
#1368 = EDGE_CURVE('',#266,#959,#1369,.T.);
#1369 = SURFACE_CURVE('',#1370,(#1374,#1380),.PCURVE_S1.);
#1370 = LINE('',#1371,#1372);
#1371 = CARTESIAN_POINT('',(-3.750776349815,-6.5,0.269437248128));
#1372 = VECTOR('',#1373,1.);
#1373 = DIRECTION('',(0.,0.,1.));
#1374 = PCURVE('',#291,#1375);
#1375 = DEFINITIONAL_REPRESENTATION('',(#1376),#1379);
#1376 = B_SPLINE_CURVE_WITH_KNOTS('',1,(#1377,#1378),.UNSPECIFIED.,.F.,
  .F.,(2,2),(-6.000000000173E-07,7.461126103744),
  .PIECEWISE_BEZIER_KNOTS.);
#1377 = CARTESIAN_POINT('',(2.000399917188E-03,-0.269436648128));
#1378 = CARTESIAN_POINT('',(2.000399917188E-03,-7.730563351872));
#1379 = ( GEOMETRIC_REPRESENTATION_CONTEXT(2) 
PARAMETRIC_REPRESENTATION_CONTEXT() REPRESENTATION_CONTEXT('2D SPACE',''
  ) );
#1380 = PCURVE('',#320,#1381);
#1381 = DEFINITIONAL_REPRESENTATION('',(#1382),#1385);
#1382 = B_SPLINE_CURVE_WITH_KNOTS('',1,(#1383,#1384),.UNSPECIFIED.,.F.,
  .F.,(2,2),(-6.000000000173E-07,7.461126103744),
  .PIECEWISE_BEZIER_KNOTS.);
#1383 = CARTESIAN_POINT('',(4.18902105092,-6.000000000173E-07));
#1384 = CARTESIAN_POINT('',(4.18902105092,7.461126103744));
#1385 = ( GEOMETRIC_REPRESENTATION_CONTEXT(2) 
PARAMETRIC_REPRESENTATION_CONTEXT() REPRESENTATION_CONTEXT('2D SPACE',''
  ) );
#1386 = ORIENTED_EDGE('',*,*,#958,.F.);
#1387 = ORIENTED_EDGE('',*,*,#761,.F.);
#1388 = ADVANCED_FACE('',(#1389),#320,.T.);
#1389 = FACE_BOUND('',#1390,.T.);
#1390 = EDGE_LOOP('',(#1391,#1410,#1411,#1412));
#1391 = ORIENTED_EDGE('',*,*,#1392,.F.);
#1392 = EDGE_CURVE('',#304,#988,#1393,.T.);
#1393 = SURFACE_CURVE('',#1394,(#1398,#1404),.PCURVE_S1.);
#1394 = LINE('',#1395,#1396);
#1395 = CARTESIAN_POINT('',(-3.753776949691,-6.498267602854,
    0.269437248128));
#1396 = VECTOR('',#1397,1.);
#1397 = DIRECTION('',(0.,0.,1.));
#1398 = PCURVE('',#320,#1399);
#1399 = DEFINITIONAL_REPRESENTATION('',(#1400),#1403);
#1400 = B_SPLINE_CURVE_WITH_KNOTS('',1,(#1401,#1402),.UNSPECIFIED.,.F.,
  .F.,(2,2),(-6.000000000173E-07,7.461126103744),
  .PIECEWISE_BEZIER_KNOTS.);
#1401 = CARTESIAN_POINT('',(4.188559358653,-6.000000000173E-07));
#1402 = CARTESIAN_POINT('',(4.188559358653,7.461126103744));
#1403 = ( GEOMETRIC_REPRESENTATION_CONTEXT(2) 
PARAMETRIC_REPRESENTATION_CONTEXT() REPRESENTATION_CONTEXT('2D SPACE',''
  ) );
#1404 = PCURVE('',#358,#1405);
#1405 = DEFINITIONAL_REPRESENTATION('',(#1406),#1409);
#1406 = B_SPLINE_CURVE_WITH_KNOTS('',1,(#1407,#1408),.UNSPECIFIED.,.F.,
  .F.,(2,2),(-6.000000000173E-07,7.461126103744),
  .PIECEWISE_BEZIER_KNOTS.);
#1407 = CARTESIAN_POINT('',(7.503553099548,-0.269436648128));
#1408 = CARTESIAN_POINT('',(7.503553099548,-7.730563351872));
#1409 = ( GEOMETRIC_REPRESENTATION_CONTEXT(2) 
PARAMETRIC_REPRESENTATION_CONTEXT() REPRESENTATION_CONTEXT('2D SPACE',''
  ) );
#1410 = ORIENTED_EDGE('',*,*,#303,.T.);
#1411 = ORIENTED_EDGE('',*,*,#1368,.T.);
#1412 = ORIENTED_EDGE('',*,*,#1015,.F.);
#1413 = ADVANCED_FACE('',(#1414),#358,.F.);
#1414 = FACE_BOUND('',#1415,.F.);
#1415 = EDGE_LOOP('',(#1416,#1417,#1418,#1437,#1438));
#1416 = ORIENTED_EDGE('',*,*,#1392,.F.);
#1417 = ORIENTED_EDGE('',*,*,#332,.T.);
#1418 = ORIENTED_EDGE('',*,*,#1419,.T.);
#1419 = EDGE_CURVE('',#333,#1070,#1420,.T.);
#1420 = SURFACE_CURVE('',#1421,(#1425,#1431),.PCURVE_S1.);
#1421 = LINE('',#1422,#1423);
#1422 = CARTESIAN_POINT('',(-7.504553299507,-1.732397146012E-03,
    0.269437248128));
#1423 = VECTOR('',#1424,1.);
#1424 = DIRECTION('',(0.,0.,1.));
#1425 = PCURVE('',#358,#1426);
#1426 = DEFINITIONAL_REPRESENTATION('',(#1427),#1430);
#1427 = B_SPLINE_CURVE_WITH_KNOTS('',1,(#1428,#1429),.UNSPECIFIED.,.F.,
  .F.,(2,2),(-6.000000000173E-07,7.461126103744),
  .PIECEWISE_BEZIER_KNOTS.);
#1428 = CARTESIAN_POINT('',(2.000399917187E-03,-0.269436648128));
#1429 = CARTESIAN_POINT('',(2.000399917187E-03,-7.730563351872));
#1430 = ( GEOMETRIC_REPRESENTATION_CONTEXT(2) 
PARAMETRIC_REPRESENTATION_CONTEXT() REPRESENTATION_CONTEXT('2D SPACE',''
  ) );
#1431 = PCURVE('',#387,#1432);
#1432 = DEFINITIONAL_REPRESENTATION('',(#1433),#1436);
#1433 = B_SPLINE_CURVE_WITH_KNOTS('',1,(#1434,#1435),.UNSPECIFIED.,.F.,
  .F.,(2,2),(-6.000000000173E-07,7.461126103744),
  .PIECEWISE_BEZIER_KNOTS.);
#1434 = CARTESIAN_POINT('',(3.141823499724,-6.000000000173E-07));
#1435 = CARTESIAN_POINT('',(3.141823499724,7.461126103744));
#1436 = ( GEOMETRIC_REPRESENTATION_CONTEXT(2) 
PARAMETRIC_REPRESENTATION_CONTEXT() REPRESENTATION_CONTEXT('2D SPACE',''
  ) );
#1437 = ORIENTED_EDGE('',*,*,#1093,.F.);
#1438 = ORIENTED_EDGE('',*,*,#987,.F.);
#1439 = ADVANCED_FACE('',(#1440),#387,.T.);
#1440 = FACE_BOUND('',#1441,.T.);
#1441 = EDGE_LOOP('',(#1442,#1461,#1462,#1463));
#1442 = ORIENTED_EDGE('',*,*,#1443,.F.);
#1443 = EDGE_CURVE('',#371,#1042,#1444,.T.);
#1444 = SURFACE_CURVE('',#1445,(#1449,#1455),.PCURVE_S1.);
#1445 = LINE('',#1446,#1447);
#1446 = CARTESIAN_POINT('',(-7.504553299507,1.732397146015E-03,
    0.269437248128));
#1447 = VECTOR('',#1448,1.);
#1448 = DIRECTION('',(0.,0.,1.));
#1449 = PCURVE('',#387,#1450);
#1450 = DEFINITIONAL_REPRESENTATION('',(#1451),#1454);
#1451 = B_SPLINE_CURVE_WITH_KNOTS('',1,(#1452,#1453),.UNSPECIFIED.,.F.,
  .F.,(2,2),(-6.000000000173E-07,7.461126103744),
  .PIECEWISE_BEZIER_KNOTS.);
#1452 = CARTESIAN_POINT('',(3.141361807456,-6.000000000173E-07));
#1453 = CARTESIAN_POINT('',(3.141361807456,7.461126103744));
#1454 = ( GEOMETRIC_REPRESENTATION_CONTEXT(2) 
PARAMETRIC_REPRESENTATION_CONTEXT() REPRESENTATION_CONTEXT('2D SPACE',''
  ) );
#1455 = PCURVE('',#425,#1456);
#1456 = DEFINITIONAL_REPRESENTATION('',(#1457),#1460);
#1457 = B_SPLINE_CURVE_WITH_KNOTS('',1,(#1458,#1459),.UNSPECIFIED.,.F.,
  .F.,(2,2),(-6.000000000173E-07,7.461126103744),
  .PIECEWISE_BEZIER_KNOTS.);
#1458 = CARTESIAN_POINT('',(7.503553099548,-0.269436648128));
#1459 = CARTESIAN_POINT('',(7.503553099548,-7.730563351872));
#1460 = ( GEOMETRIC_REPRESENTATION_CONTEXT(2) 
PARAMETRIC_REPRESENTATION_CONTEXT() REPRESENTATION_CONTEXT('2D SPACE',''
  ) );
#1461 = ORIENTED_EDGE('',*,*,#370,.T.);
#1462 = ORIENTED_EDGE('',*,*,#1419,.T.);
#1463 = ORIENTED_EDGE('',*,*,#1069,.F.);
#1464 = ADVANCED_FACE('',(#1465),#425,.F.);
#1465 = FACE_BOUND('',#1466,.F.);
#1466 = EDGE_LOOP('',(#1467,#1468,#1469,#1488,#1489));
#1467 = ORIENTED_EDGE('',*,*,#1443,.F.);
#1468 = ORIENTED_EDGE('',*,*,#399,.T.);
#1469 = ORIENTED_EDGE('',*,*,#1470,.T.);
#1470 = EDGE_CURVE('',#400,#1152,#1471,.T.);
#1471 = SURFACE_CURVE('',#1472,(#1476,#1482),.PCURVE_S1.);
#1472 = LINE('',#1473,#1474);
#1473 = CARTESIAN_POINT('',(-3.753776949691,6.498267602854,
    0.269437248128));
#1474 = VECTOR('',#1475,1.);
#1475 = DIRECTION('',(0.,0.,1.));
#1476 = PCURVE('',#425,#1477);
#1477 = DEFINITIONAL_REPRESENTATION('',(#1478),#1481);
#1478 = B_SPLINE_CURVE_WITH_KNOTS('',1,(#1479,#1480),.UNSPECIFIED.,.F.,
  .F.,(2,2),(-6.000000000173E-07,7.461126103744),
  .PIECEWISE_BEZIER_KNOTS.);
#1479 = CARTESIAN_POINT('',(2.000399917186E-03,-0.269436648128));
#1480 = CARTESIAN_POINT('',(2.000399917186E-03,-7.730563351872));
#1481 = ( GEOMETRIC_REPRESENTATION_CONTEXT(2) 
PARAMETRIC_REPRESENTATION_CONTEXT() REPRESENTATION_CONTEXT('2D SPACE',''
  ) );
#1482 = PCURVE('',#454,#1483);
#1483 = DEFINITIONAL_REPRESENTATION('',(#1484),#1487);
#1484 = B_SPLINE_CURVE_WITH_KNOTS('',1,(#1485,#1486),.UNSPECIFIED.,.F.,
  .F.,(2,2),(-6.000000000173E-07,7.461126103744),
  .PIECEWISE_BEZIER_KNOTS.);
#1485 = CARTESIAN_POINT('',(2.094625948527,-6.000000000173E-07));
#1486 = CARTESIAN_POINT('',(2.094625948527,7.461126103744));
#1487 = ( GEOMETRIC_REPRESENTATION_CONTEXT(2) 
PARAMETRIC_REPRESENTATION_CONTEXT() REPRESENTATION_CONTEXT('2D SPACE',''
  ) );
#1488 = ORIENTED_EDGE('',*,*,#1175,.F.);
#1489 = ORIENTED_EDGE('',*,*,#1041,.F.);
#1490 = ADVANCED_FACE('',(#1491),#454,.T.);
#1491 = FACE_BOUND('',#1492,.T.);
#1492 = EDGE_LOOP('',(#1493,#1512,#1513,#1514));
#1493 = ORIENTED_EDGE('',*,*,#1494,.F.);
#1494 = EDGE_CURVE('',#438,#1124,#1495,.T.);
#1495 = SURFACE_CURVE('',#1496,(#1500,#1506),.PCURVE_S1.);
#1496 = LINE('',#1497,#1498);
#1497 = CARTESIAN_POINT('',(-3.750776349815,6.5,0.269437248128));
#1498 = VECTOR('',#1499,1.);
#1499 = DIRECTION('',(0.,0.,1.));
#1500 = PCURVE('',#454,#1501);
#1501 = DEFINITIONAL_REPRESENTATION('',(#1502),#1505);
#1502 = B_SPLINE_CURVE_WITH_KNOTS('',1,(#1503,#1504),.UNSPECIFIED.,.F.,
  .F.,(2,2),(-6.000000000173E-07,7.461126103744),
  .PIECEWISE_BEZIER_KNOTS.);
#1503 = CARTESIAN_POINT('',(2.094164256259,-6.000000000173E-07));
#1504 = CARTESIAN_POINT('',(2.094164256259,7.461126103744));
#1505 = ( GEOMETRIC_REPRESENTATION_CONTEXT(2) 
PARAMETRIC_REPRESENTATION_CONTEXT() REPRESENTATION_CONTEXT('2D SPACE',''
  ) );
#1506 = PCURVE('',#492,#1507);
#1507 = DEFINITIONAL_REPRESENTATION('',(#1508),#1511);
#1508 = B_SPLINE_CURVE_WITH_KNOTS('',1,(#1509,#1510),.UNSPECIFIED.,.F.,
  .F.,(2,2),(-6.000000000173E-07,7.461126103744),
  .PIECEWISE_BEZIER_KNOTS.);
#1509 = CARTESIAN_POINT('',(7.503553099548,-0.269436648128));
#1510 = CARTESIAN_POINT('',(7.503553099548,-7.730563351872));
#1511 = ( GEOMETRIC_REPRESENTATION_CONTEXT(2) 
PARAMETRIC_REPRESENTATION_CONTEXT() REPRESENTATION_CONTEXT('2D SPACE',''
  ) );
#1512 = ORIENTED_EDGE('',*,*,#437,.T.);
#1513 = ORIENTED_EDGE('',*,*,#1470,.T.);
#1514 = ORIENTED_EDGE('',*,*,#1151,.F.);
#1515 = ADVANCED_FACE('',(#1516),#492,.F.);
#1516 = FACE_BOUND('',#1517,.F.);
#1517 = EDGE_LOOP('',(#1518,#1519,#1520,#1539,#1540));
#1518 = ORIENTED_EDGE('',*,*,#1494,.F.);
#1519 = ORIENTED_EDGE('',*,*,#466,.T.);
#1520 = ORIENTED_EDGE('',*,*,#1521,.T.);
#1521 = EDGE_CURVE('',#467,#1233,#1522,.T.);
#1522 = SURFACE_CURVE('',#1523,(#1527,#1533),.PCURVE_S1.);
#1523 = LINE('',#1524,#1525);
#1524 = CARTESIAN_POINT('',(3.750776349815,6.5,0.269437248128));
#1525 = VECTOR('',#1526,1.);
#1526 = DIRECTION('',(0.,0.,1.));
#1527 = PCURVE('',#492,#1528);
#1528 = DEFINITIONAL_REPRESENTATION('',(#1529),#1532);
#1529 = B_SPLINE_CURVE_WITH_KNOTS('',1,(#1530,#1531),.UNSPECIFIED.,.F.,
  .F.,(2,2),(-6.000000000173E-07,7.461126103744),
  .PIECEWISE_BEZIER_KNOTS.);
#1530 = CARTESIAN_POINT('',(2.000399917187E-03,-0.269436648128));
#1531 = CARTESIAN_POINT('',(2.000399917187E-03,-7.730563351872));
#1532 = ( GEOMETRIC_REPRESENTATION_CONTEXT(2) 
PARAMETRIC_REPRESENTATION_CONTEXT() REPRESENTATION_CONTEXT('2D SPACE',''
  ) );
#1533 = PCURVE('',#521,#1534);
#1534 = DEFINITIONAL_REPRESENTATION('',(#1535),#1538);
#1535 = B_SPLINE_CURVE_WITH_KNOTS('',1,(#1536,#1537),.UNSPECIFIED.,.F.,
  .F.,(2,2),(-6.000000000173E-07,7.461126103744),
  .PIECEWISE_BEZIER_KNOTS.);
#1536 = CARTESIAN_POINT('',(1.04742839733,-6.000000000173E-07));
#1537 = CARTESIAN_POINT('',(1.04742839733,7.461126103744));
#1538 = ( GEOMETRIC_REPRESENTATION_CONTEXT(2) 
PARAMETRIC_REPRESENTATION_CONTEXT() REPRESENTATION_CONTEXT('2D SPACE',''
  ) );
#1539 = ORIENTED_EDGE('',*,*,#1256,.F.);
#1540 = ORIENTED_EDGE('',*,*,#1123,.F.);
#1541 = ADVANCED_FACE('',(#1542),#521,.T.);
#1542 = FACE_BOUND('',#1543,.T.);
#1543 = EDGE_LOOP('',(#1544,#1563,#1564,#1565));
#1544 = ORIENTED_EDGE('',*,*,#1545,.F.);
#1545 = EDGE_CURVE('',#505,#1205,#1546,.T.);
#1546 = SURFACE_CURVE('',#1547,(#1551,#1557),.PCURVE_S1.);
#1547 = LINE('',#1548,#1549);
#1548 = CARTESIAN_POINT('',(3.753776949691,6.498267602854,0.269437248128
    ));
#1549 = VECTOR('',#1550,1.);
#1550 = DIRECTION('',(0.,0.,1.));
#1551 = PCURVE('',#521,#1552);
#1552 = DEFINITIONAL_REPRESENTATION('',(#1553),#1556);
#1553 = B_SPLINE_CURVE_WITH_KNOTS('',1,(#1554,#1555),.UNSPECIFIED.,.F.,
  .F.,(2,2),(-6.000000000173E-07,7.461126103744),
  .PIECEWISE_BEZIER_KNOTS.);
#1554 = CARTESIAN_POINT('',(1.046966705063,-6.000000000173E-07));
#1555 = CARTESIAN_POINT('',(1.046966705063,7.461126103744));
#1556 = ( GEOMETRIC_REPRESENTATION_CONTEXT(2) 
PARAMETRIC_REPRESENTATION_CONTEXT() REPRESENTATION_CONTEXT('2D SPACE',''
  ) );
#1557 = PCURVE('',#559,#1558);
#1558 = DEFINITIONAL_REPRESENTATION('',(#1559),#1562);
#1559 = B_SPLINE_CURVE_WITH_KNOTS('',1,(#1560,#1561),.UNSPECIFIED.,.F.,
  .F.,(2,2),(-6.000000000173E-07,7.461126103744),
  .PIECEWISE_BEZIER_KNOTS.);
#1560 = CARTESIAN_POINT('',(7.503553099548,-0.269436648128));
#1561 = CARTESIAN_POINT('',(7.503553099548,-7.730563351872));
#1562 = ( GEOMETRIC_REPRESENTATION_CONTEXT(2) 
PARAMETRIC_REPRESENTATION_CONTEXT() REPRESENTATION_CONTEXT('2D SPACE',''
  ) );
#1563 = ORIENTED_EDGE('',*,*,#504,.T.);
#1564 = ORIENTED_EDGE('',*,*,#1521,.T.);
#1565 = ORIENTED_EDGE('',*,*,#1232,.F.);
#1566 = ADVANCED_FACE('',(#1567),#559,.F.);
#1567 = FACE_BOUND('',#1568,.F.);
#1568 = EDGE_LOOP('',(#1569,#1570,#1571,#1590,#1591));
#1569 = ORIENTED_EDGE('',*,*,#1545,.F.);
#1570 = ORIENTED_EDGE('',*,*,#533,.T.);
#1571 = ORIENTED_EDGE('',*,*,#1572,.T.);
#1572 = EDGE_CURVE('',#534,#1289,#1573,.T.);
#1573 = SURFACE_CURVE('',#1574,(#1578,#1584),.PCURVE_S1.);
#1574 = LINE('',#1575,#1576);
#1575 = CARTESIAN_POINT('',(7.504553299507,1.732397146012E-03,
    0.269437248128));
#1576 = VECTOR('',#1577,1.);
#1577 = DIRECTION('',(0.,0.,1.));
#1578 = PCURVE('',#559,#1579);
#1579 = DEFINITIONAL_REPRESENTATION('',(#1580),#1583);
#1580 = B_SPLINE_CURVE_WITH_KNOTS('',1,(#1581,#1582),.UNSPECIFIED.,.F.,
  .F.,(2,2),(-6.000000000173E-07,7.461126103744),
  .PIECEWISE_BEZIER_KNOTS.);
#1581 = CARTESIAN_POINT('',(2.000399917186E-03,-0.269436648128));
#1582 = CARTESIAN_POINT('',(2.000399917186E-03,-7.730563351872));
#1583 = ( GEOMETRIC_REPRESENTATION_CONTEXT(2) 
PARAMETRIC_REPRESENTATION_CONTEXT() REPRESENTATION_CONTEXT('2D SPACE',''
  ) );
#1584 = PCURVE('',#186,#1585);
#1585 = DEFINITIONAL_REPRESENTATION('',(#1586),#1589);
#1586 = B_SPLINE_CURVE_WITH_KNOTS('',1,(#1587,#1588),.UNSPECIFIED.,.F.,
  .F.,(2,2),(0.,7.461125503744),.PIECEWISE_BEZIER_KNOTS.);
#1587 = CARTESIAN_POINT('',(6.283416153313,0.));
#1588 = CARTESIAN_POINT('',(6.283416153313,7.461125503744));
#1589 = ( GEOMETRIC_REPRESENTATION_CONTEXT(2) 
PARAMETRIC_REPRESENTATION_CONTEXT() REPRESENTATION_CONTEXT('2D SPACE',''
  ) );
#1590 = ORIENTED_EDGE('',*,*,#1312,.F.);
#1591 = ORIENTED_EDGE('',*,*,#1204,.F.);
#1592 = ADVANCED_FACE('',(#1593),#186,.T.);
#1593 = FACE_BOUND('',#1594,.T.);
#1594 = EDGE_LOOP('',(#1595,#1596,#1597,#1598,#1599));
#1595 = ORIENTED_EDGE('',*,*,#1572,.T.);
#1596 = ORIENTED_EDGE('',*,*,#1288,.T.);
#1597 = ORIENTED_EDGE('',*,*,#597,.F.);
#1598 = ORIENTED_EDGE('',*,*,#169,.T.);
#1599 = ORIENTED_EDGE('',*,*,#571,.T.);
#1600 = ADVANCED_FACE('',(#1601),#43,.F.);
#1601 = FACE_BOUND('',#1602,.F.);
#1602 = EDGE_LOOP('',(#1603,#1604,#1625,#1626));
#1603 = ORIENTED_EDGE('',*,*,#21,.T.);
#1604 = ORIENTED_EDGE('',*,*,#1605,.F.);
#1605 = EDGE_CURVE('',#932,#22,#1606,.T.);
#1606 = SEAM_CURVE('',#1607,(#1611,#1618),.PCURVE_S1.);
#1607 = LINE('',#1608,#1609);
#1608 = CARTESIAN_POINT('',(-4.,9.797174393179E-16,8.));
#1609 = VECTOR('',#1610,1.);
#1610 = DIRECTION('',(0.,-1.485839634503E-16,-1.));
#1611 = PCURVE('',#43,#1612);
#1612 = DEFINITIONAL_REPRESENTATION('',(#1613),#1617);
#1613 = LINE('',#1614,#1615);
#1614 = CARTESIAN_POINT('',(6.28318530718,8.));
#1615 = VECTOR('',#1616,1.);
#1616 = DIRECTION('',(-0.,-1.));
#1617 = ( GEOMETRIC_REPRESENTATION_CONTEXT(2) 
PARAMETRIC_REPRESENTATION_CONTEXT() REPRESENTATION_CONTEXT('2D SPACE',''
  ) );
#1618 = PCURVE('',#43,#1619);
#1619 = DEFINITIONAL_REPRESENTATION('',(#1620),#1624);
#1620 = LINE('',#1621,#1622);
#1621 = CARTESIAN_POINT('',(0.,8.));
#1622 = VECTOR('',#1623,1.);
#1623 = DIRECTION('',(-0.,-1.));
#1624 = ( GEOMETRIC_REPRESENTATION_CONTEXT(2) 
PARAMETRIC_REPRESENTATION_CONTEXT() REPRESENTATION_CONTEXT('2D SPACE',''
  ) );
#1625 = ORIENTED_EDGE('',*,*,#931,.F.);
#1626 = ORIENTED_EDGE('',*,*,#1605,.T.);
#1627 = ( GEOMETRIC_REPRESENTATION_CONTEXT(3) 
GLOBAL_UNCERTAINTY_ASSIGNED_CONTEXT((#1631)) 
GLOBAL_UNIT_ASSIGNED_CONTEXT((#1628,#1629,#1630)) REPRESENTATION_CONTEXT
('Context #1','3D Context with UNIT and UNCERTAINTY') );
#1628 = ( LENGTH_UNIT() NAMED_UNIT(*) SI_UNIT(.MILLI.,.METRE.) );
#1629 = ( NAMED_UNIT(*) PLANE_ANGLE_UNIT() SI_UNIT($,.RADIAN.) );
#1630 = ( NAMED_UNIT(*) SI_UNIT($,.STERADIAN.) SOLID_ANGLE_UNIT() );
#1631 = UNCERTAINTY_MEASURE_WITH_UNIT(LENGTH_MEASURE(2.E-07),#1628,
  'distance_accuracy_value','confusion accuracy');
#1632 = PRODUCT_RELATED_PRODUCT_CATEGORY('part',$,(#7));
ENDSEC;
END-ISO-10303-21;
