ISO-10303-21;
HEADER;
FILE_DESCRIPTION(('Open CASCADE Model'),'2;1');
FILE_NAME('Open CASCADE Shape Model','2026-09-14T09:30:52',('Author'),(
    'Open CASCADE'),'Open CASCADE STEP processor 7.9','Open CASCADE 7.9'
  ,'Unknown');
FILE_SCHEMA(('AUTOMOTIVE_DESIGN { 1 0 10303 214 1 1 1 1 }'));
ENDSEC;
DATA;
#1 = APPLICATION_PROTOCOL_DEFINITION('international standard',
  'automotive_design',2000,#2);
#2 = APPLICATION_CONTEXT(
  'core data for automotive mechanical design processes');
#3 = SHAPE_DEFINITION_REPRESENTATION(#4,#10);
#4 = PRODUCT_DEFINITION_SHAPE('','',#5);
#5 = PRODUCT_DEFINITION('design','',#6,#9);
#6 = PRODUCT_DEFINITION_FORMATION('','',#7);
#7 = PRODUCT('Open CASCADE STEP translator 7.9 16',
  'Open CASCADE STEP translator 7.9 16','',(#8));
#8 = PRODUCT_CONTEXT('',#2,'mechanical');
#9 = PRODUCT_DEFINITION_CONTEXT('part definition',#2,'design');
#10 = ADVANCED_BREP_SHAPE_REPRESENTATION('',(#11,#15),#1061);
#11 = AXIS2_PLACEMENT_3D('',#12,#13,#14);
#12 = CARTESIAN_POINT('',(0.,0.,0.));
#13 = DIRECTION('',(0.,0.,1.));
#14 = DIRECTION('',(1.,0.,-0.));
#15 = MANIFOLD_SOLID_BREP('',#16);
#16 = CLOSED_SHELL('',(#17,#256,#423,#547,#653,#759,#814,#850,#857,#963,
    #998,#1054));
#17 = ADVANCED_FACE('',(#18),#42,.F.);
#18 = FACE_BOUND('',#19,.F.);
#19 = EDGE_LOOP('',(#20,#109,#154,#214));
#20 = ORIENTED_EDGE('',*,*,#21,.T.);
#21 = EDGE_CURVE('',#22,#24,#26,.T.);
#22 = VERTEX_POINT('',#23);
#23 = CARTESIAN_POINT('',(17.555000194586,1.913403586684E-07,
    2.111666666834));
#24 = VERTEX_POINT('',#25);
#25 = CARTESIAN_POINT('',(12.413259546025,-12.41325981662,5.815833333166
    ));
#26 = SURFACE_CURVE('',#27,(#41,#75),.PCURVE_S1.);
#27 = B_SPLINE_CURVE_WITH_KNOTS('',12,(#28,#29,#30,#31,#32,#33,#34,#35,
    #36,#37,#38,#39,#40),.UNSPECIFIED.,.F.,.F.,(13,13),(0.,
    6.629216708841),.PIECEWISE_BEZIER_KNOTS.);
#28 = CARTESIAN_POINT('',(17.555,-4.440892098501E-15,2.111666666667));
#29 = CARTESIAN_POINT('',(17.554999999998,8.042804442428,2.420347222223)
  );
#30 = CARTESIAN_POINT('',(13.535198043873,16.085578299761,2.729027777776
    ));
#31 = CARTESIAN_POINT('',(5.495783005836,21.918640701515,3.037708333337)
  );
#32 = CARTESIAN_POINT('',(-5.214255912597,23.330433936262,3.346388888883
    ));
#33 = CARTESIAN_POINT('',(-15.89119597226,19.043901550038,3.655069444453
    ));
#34 = CARTESIAN_POINT('',(-23.22407455342,9.619726653534,3.963749999991)
  );
#35 = CARTESIAN_POINT('',(-24.70284435938,-2.229299493043,4.272430555563
    ));
#36 = CARTESIAN_POINT('',(-20.18414375902,-12.81007232977,4.581111111106
    ));
#37 = CARTESIAN_POINT('',(-11.61271404305,-19.38492490575,4.889791666669
    ));
#38 = CARTESIAN_POINT('',(-1.803391173551,-20.9450518166,5.198472222221)
  );
#39 = CARTESIAN_POINT('',(6.726137982733,-18.10038110472,5.507152777778)
  );
#40 = CARTESIAN_POINT('',(12.41325954373,-12.41325954373,5.815833333333)
  );
#41 = PCURVE('',#42,#69);
#42 = B_SPLINE_SURFACE_WITH_KNOTS('',12,1,(
    (#43,#44)
    ,(#45,#46)
    ,(#47,#48)
    ,(#49,#50)
    ,(#51,#52)
    ,(#53,#54)
    ,(#55,#56)
    ,(#57,#58)
    ,(#59,#60)
    ,(#61,#62)
    ,(#63,#64)
    ,(#65,#66)
    ,(#67,#68
    )),.UNSPECIFIED.,.F.,.F.,.F.,(13,13),(2,2),(0.,6.629216708841),(0.,
    1.),.PIECEWISE_BEZIER_KNOTS.);
#43 = CARTESIAN_POINT('',(17.555,-4.440892098501E-15,2.111666666667));
#44 = CARTESIAN_POINT('',(17.555,-4.440892098501E-15,3.101837559624));
#45 = CARTESIAN_POINT('',(17.554999999998,8.042804442428,2.420347222223)
  );
#46 = CARTESIAN_POINT('',(17.554999999998,8.042804442428,3.410518115179)
  );
#47 = CARTESIAN_POINT('',(13.535198043873,16.085578299761,2.729027777776
    ));
#48 = CARTESIAN_POINT('',(13.535198043873,16.085578299761,3.719198670733
    ));
#49 = CARTESIAN_POINT('',(5.495783005836,21.918640701515,3.037708333337)
  );
#50 = CARTESIAN_POINT('',(5.495783005836,21.918640701515,4.027879226294)
  );
#51 = CARTESIAN_POINT('',(-5.214255912597,23.330433936262,3.346388888883
    ));
#52 = CARTESIAN_POINT('',(-5.214255912597,23.330433936262,4.33655978184)
  );
#53 = CARTESIAN_POINT('',(-15.89119597226,19.043901550038,3.655069444453
    ));
#54 = CARTESIAN_POINT('',(-15.89119597226,19.043901550038,4.645240337409
    ));
#55 = CARTESIAN_POINT('',(-23.22407455342,9.619726653534,3.963749999991)
  );
#56 = CARTESIAN_POINT('',(-23.22407455342,9.619726653534,4.953920892948)
  );
#57 = CARTESIAN_POINT('',(-24.70284435938,-2.229299493043,4.272430555563
    ));
#58 = CARTESIAN_POINT('',(-24.70284435938,-2.229299493043,5.26260144852)
  );
#59 = CARTESIAN_POINT('',(-20.18414375902,-12.81007232977,4.581111111106
    ));
#60 = CARTESIAN_POINT('',(-20.18414375902,-12.81007232977,5.571282004063
    ));
#61 = CARTESIAN_POINT('',(-11.61271404305,-19.38492490575,4.889791666669
    ));
#62 = CARTESIAN_POINT('',(-11.61271404305,-19.38492490575,5.879962559626
    ));
#63 = CARTESIAN_POINT('',(-1.803391173551,-20.9450518166,5.198472222221)
  );
#64 = CARTESIAN_POINT('',(-1.803391173551,-20.9450518166,6.188643115178)
  );
#65 = CARTESIAN_POINT('',(6.726137982733,-18.10038110472,5.507152777778)
  );
#66 = CARTESIAN_POINT('',(6.726137982733,-18.10038110472,6.497323670735)
  );
#67 = CARTESIAN_POINT('',(12.41325954373,-12.41325954373,5.815833333333)
  );
#68 = CARTESIAN_POINT('',(12.41325954373,-12.41325954373,6.80600422629)
  );
#69 = DEFINITIONAL_REPRESENTATION('',(#70),#74);
#70 = LINE('',#71,#72);
#71 = CARTESIAN_POINT('',(0.,0.));
#72 = VECTOR('',#73,1.);
#73 = DIRECTION('',(1.,0.));
#74 = ( GEOMETRIC_REPRESENTATION_CONTEXT(2) 
PARAMETRIC_REPRESENTATION_CONTEXT() REPRESENTATION_CONTEXT('2D SPACE',''
  ) );
#75 = PCURVE('',#76,#103);
#76 = B_SPLINE_SURFACE_WITH_KNOTS('',12,1,(
    (#77,#78)
    ,(#79,#80)
    ,(#81,#82)
    ,(#83,#84)
    ,(#85,#86)
    ,(#87,#88)
    ,(#89,#90)
    ,(#91,#92)
    ,(#93,#94)
    ,(#95,#96)
    ,(#97,#98)
    ,(#99,#100)
    ,(#101,#102
    )),.UNSPECIFIED.,.F.,.F.,.F.,(13,13),(2,2),(0.,6.629216708841),(0.,
    1.),.PIECEWISE_BEZIER_KNOTS.);
#77 = CARTESIAN_POINT('',(18.746,-8.881784197001E-16,0.921666666667));
#78 = CARTESIAN_POINT('',(17.555,-4.440892098501E-15,2.111666666667));
#79 = CARTESIAN_POINT('',(18.745999999998,8.588459816449,1.230347222223)
  );
#80 = CARTESIAN_POINT('',(17.554999999998,8.042804442428,2.420347222223)
  );
#81 = CARTESIAN_POINT('',(14.453478925118,17.176886972788,1.539027777776
    ));
#82 = CARTESIAN_POINT('',(13.535198043873,16.085578299761,2.729027777776
    ));
#83 = CARTESIAN_POINT('',(5.868638463536,23.405687188302,1.847708333337)
  );
#84 = CARTESIAN_POINT('',(5.495783005836,21.918640701515,3.037708333337)
  );
#85 = CARTESIAN_POINT('',(-5.568011468954,24.913262009063,2.156388888883
    ));
#86 = CARTESIAN_POINT('',(-5.214255912597,23.330433936262,3.346388888883
    ));
#87 = CARTESIAN_POINT('',(-16.96931698639,20.335914466369,2.465069444453
    ));
#88 = CARTESIAN_POINT('',(-15.89119597226,19.043901550038,3.655069444453
    ));
#89 = CARTESIAN_POINT('',(-24.79968678885,10.272366610484,2.773749999991
    ));
#90 = CARTESIAN_POINT('',(-23.22407455342,9.619726653534,3.963749999991)
  );
#91 = CARTESIAN_POINT('',(-26.37878213393,-2.38054390752,3.082430555563)
  );
#92 = CARTESIAN_POINT('',(-24.70284435938,-2.229299493043,4.272430555563
    ));
#93 = CARTESIAN_POINT('',(-21.55351517554,-13.67915784073,3.391111111106
    ));
#94 = CARTESIAN_POINT('',(-20.18414375902,-12.81007232977,4.581111111106
    ));
#95 = CARTESIAN_POINT('',(-12.40056607525,-20.70007418304,3.699791666669
    ));
#96 = CARTESIAN_POINT('',(-11.61271404305,-19.38492490575,4.889791666669
    ));
#97 = CARTESIAN_POINT('',(-1.925740298456,-22.36604621783,4.008472222221
    ));
#98 = CARTESIAN_POINT('',(-1.803391173551,-20.9450518166,5.198472222221)
  );
#99 = CARTESIAN_POINT('',(7.182465543965,-19.32838189627,4.317152777778)
  );
#100 = CARTESIAN_POINT('',(6.726137982733,-18.10038110472,5.507152777778
    ));
#101 = CARTESIAN_POINT('',(13.255423720123,-13.25542372012,
    4.625833333333));
#102 = CARTESIAN_POINT('',(12.41325954373,-12.41325954373,5.815833333333
    ));
#103 = DEFINITIONAL_REPRESENTATION('',(#104),#108);
#104 = LINE('',#105,#106);
#105 = CARTESIAN_POINT('',(0.,1.));
#106 = VECTOR('',#107,1.);
#107 = DIRECTION('',(1.,0.));
#108 = ( GEOMETRIC_REPRESENTATION_CONTEXT(2) 
PARAMETRIC_REPRESENTATION_CONTEXT() REPRESENTATION_CONTEXT('2D SPACE',''
  ) );
#109 = ORIENTED_EDGE('',*,*,#110,.T.);
#110 = EDGE_CURVE('',#24,#111,#113,.T.);
#111 = VERTEX_POINT('',#112);
#112 = CARTESIAN_POINT('',(12.413259546025,-12.41325981662,
    6.806004226123));
#113 = SURFACE_CURVE('',#114,(#117,#124),.PCURVE_S1.);
#114 = B_SPLINE_CURVE_WITH_KNOTS('',1,(#115,#116),.UNSPECIFIED.,.F.,.F.,
  (2,2),(0.,1.),.PIECEWISE_BEZIER_KNOTS.);
#115 = CARTESIAN_POINT('',(12.41325954373,-12.41325954373,5.815833333333
    ));
#116 = CARTESIAN_POINT('',(12.41325954373,-12.41325954373,6.80600422629)
  );
#117 = PCURVE('',#42,#118);
#118 = DEFINITIONAL_REPRESENTATION('',(#119),#123);
#119 = LINE('',#120,#121);
#120 = CARTESIAN_POINT('',(6.629216708841,0.));
#121 = VECTOR('',#122,1.);
#122 = DIRECTION('',(0.,1.));
#123 = ( GEOMETRIC_REPRESENTATION_CONTEXT(2) 
PARAMETRIC_REPRESENTATION_CONTEXT() REPRESENTATION_CONTEXT('2D SPACE',''
  ) );
#124 = PCURVE('',#125,#148);
#125 = B_SPLINE_SURFACE_WITH_KNOTS('',6,1,(
    (#126,#127)
    ,(#128,#129)
    ,(#130,#131)
    ,(#132,#133)
    ,(#134,#135)
    ,(#136,#137)
    ,(#138,#139)
    ,(#140,#141)
    ,(#142,#143)
    ,(#144,#145)
    ,(#146,#147
    )),.UNSPECIFIED.,.F.,.F.,.F.,(7,4,7),(2,2),(0.,0.495895634038,1.),(
    0.,1.),.UNSPECIFIED.);
#126 = CARTESIAN_POINT('',(12.41325954832,-12.41326008951,5.815833332999
    ));
#127 = CARTESIAN_POINT('',(12.41325954832,-12.41326008951,6.806004225956
    ));
#128 = CARTESIAN_POINT('',(14.20617273263,-10.84816233375,5.906964774597
    ));
#129 = CARTESIAN_POINT('',(14.20617273263,-10.84816233375,6.897135667554
    ));
#130 = CARTESIAN_POINT('',(15.743918757289,-8.990721857723,5.99709874996
    ));
#131 = CARTESIAN_POINT('',(15.743918757289,-8.990721857723,
    6.987269642917));
#132 = CARTESIAN_POINT('',(16.966949988663,-6.89289736196,6.086289856035
    ));
#133 = CARTESIAN_POINT('',(16.966949988663,-6.89289736196,7.076460748992
    ));
#134 = CARTESIAN_POINT('',(17.83003993724,-4.623337941083,6.174640533197
    ));
#135 = CARTESIAN_POINT('',(17.83003993724,-4.623337941083,7.164811426153
    ));
#136 = CARTESIAN_POINT('',(18.796540693117,0.142097588244,6.351357531343
    ));
#137 = CARTESIAN_POINT('',(18.796540693117,0.142097588244,7.3415284243)
  );
#138 = CARTESIAN_POINT('',(18.191608757101,4.968973803215,6.525702089795
    ));
#139 = CARTESIAN_POINT('',(18.191608757101,4.968973803215,7.515872982752
    ));
#140 = CARTESIAN_POINT('',(17.484550146835,7.335369006207,6.613127954928
    ));
#141 = CARTESIAN_POINT('',(17.484550146835,7.335369006207,7.603298847884
    ));
#142 = CARTESIAN_POINT('',(16.395335384933,9.551875390794,6.700244233999
    ));
#143 = CARTESIAN_POINT('',(16.395335384933,9.551875390794,7.690415126956
    ));
#144 = CARTESIAN_POINT('',(14.966294083817,11.544552058337,
    6.787205425416));
#145 = CARTESIAN_POINT('',(14.966294083817,11.544552058337,
    7.777376318373));
#146 = CARTESIAN_POINT('',(13.255423525786,13.255424093265,
    6.874166667802));
#147 = CARTESIAN_POINT('',(13.255423525786,13.255424093265,
    7.864337560759));
#148 = DEFINITIONAL_REPRESENTATION('',(#149),#153);
#149 = LINE('',#150,#151);
#150 = CARTESIAN_POINT('',(0.,0.));
#151 = VECTOR('',#152,1.);
#152 = DIRECTION('',(0.,1.));
#153 = ( GEOMETRIC_REPRESENTATION_CONTEXT(2) 
PARAMETRIC_REPRESENTATION_CONTEXT() REPRESENTATION_CONTEXT('2D SPACE',''
  ) );
#154 = ORIENTED_EDGE('',*,*,#155,.F.);
#155 = EDGE_CURVE('',#156,#111,#158,.T.);
#156 = VERTEX_POINT('',#157);
#157 = CARTESIAN_POINT('',(17.555000194586,1.913403586684E-07,
    3.101837559791));
#158 = SURFACE_CURVE('',#159,(#173,#180),.PCURVE_S1.);
#159 = B_SPLINE_CURVE_WITH_KNOTS('',12,(#160,#161,#162,#163,#164,#165,
    #166,#167,#168,#169,#170,#171,#172),.UNSPECIFIED.,.F.,.F.,(13,13),(
    0.,6.629216708841),.PIECEWISE_BEZIER_KNOTS.);
#160 = CARTESIAN_POINT('',(17.555,-4.440892098501E-15,3.101837559624));
#161 = CARTESIAN_POINT('',(17.554999999998,8.042804442428,3.410518115179
    ));
#162 = CARTESIAN_POINT('',(13.535198043873,16.085578299761,
    3.719198670733));
#163 = CARTESIAN_POINT('',(5.495783005836,21.918640701515,4.027879226294
    ));
#164 = CARTESIAN_POINT('',(-5.214255912597,23.330433936262,4.33655978184
    ));
#165 = CARTESIAN_POINT('',(-15.89119597226,19.043901550038,
    4.645240337409));
#166 = CARTESIAN_POINT('',(-23.22407455342,9.619726653534,4.953920892948
    ));
#167 = CARTESIAN_POINT('',(-24.70284435938,-2.229299493043,5.26260144852
    ));
#168 = CARTESIAN_POINT('',(-20.18414375902,-12.81007232977,
    5.571282004063));
#169 = CARTESIAN_POINT('',(-11.61271404305,-19.38492490575,
    5.879962559626));
#170 = CARTESIAN_POINT('',(-1.803391173551,-20.9450518166,6.188643115178
    ));
#171 = CARTESIAN_POINT('',(6.726137982733,-18.10038110472,6.497323670735
    ));
#172 = CARTESIAN_POINT('',(12.41325954373,-12.41325954373,6.80600422629)
  );
#173 = PCURVE('',#42,#174);
#174 = DEFINITIONAL_REPRESENTATION('',(#175),#179);
#175 = LINE('',#176,#177);
#176 = CARTESIAN_POINT('',(0.,1.));
#177 = VECTOR('',#178,1.);
#178 = DIRECTION('',(1.,0.));
#179 = ( GEOMETRIC_REPRESENTATION_CONTEXT(2) 
PARAMETRIC_REPRESENTATION_CONTEXT() REPRESENTATION_CONTEXT('2D SPACE',''
  ) );
#180 = PCURVE('',#181,#208);
#181 = B_SPLINE_SURFACE_WITH_KNOTS('',12,1,(
    (#182,#183)
    ,(#184,#185)
    ,(#186,#187)
    ,(#188,#189)
    ,(#190,#191)
    ,(#192,#193)
    ,(#194,#195)
    ,(#196,#197)
    ,(#198,#199)
    ,(#200,#201)
    ,(#202,#203)
    ,(#204,#205)
    ,(#206,#207
    )),.UNSPECIFIED.,.F.,.F.,.F.,(13,13),(2,2),(0.,6.629216708841),(0.,
    1.),.PIECEWISE_BEZIER_KNOTS.);
#182 = CARTESIAN_POINT('',(17.555,-4.440892098501E-15,3.101837559624));
#183 = CARTESIAN_POINT('',(18.746,-8.881784197001E-16,3.311666666667));
#184 = CARTESIAN_POINT('',(17.554999999998,8.042804442428,3.410518115179
    ));
#185 = CARTESIAN_POINT('',(18.745999999998,8.588459816449,3.620347222223
    ));
#186 = CARTESIAN_POINT('',(13.535198043873,16.085578299761,
    3.719198670733));
#187 = CARTESIAN_POINT('',(14.453478925118,17.176886972788,
    3.929027777776));
#188 = CARTESIAN_POINT('',(5.495783005836,21.918640701515,4.027879226294
    ));
#189 = CARTESIAN_POINT('',(5.868638463536,23.405687188302,4.237708333337
    ));
#190 = CARTESIAN_POINT('',(-5.214255912597,23.330433936262,4.33655978184
    ));
#191 = CARTESIAN_POINT('',(-5.568011468954,24.913262009063,
    4.546388888883));
#192 = CARTESIAN_POINT('',(-15.89119597226,19.043901550038,
    4.645240337409));
#193 = CARTESIAN_POINT('',(-16.96931698639,20.335914466369,
    4.855069444453));
#194 = CARTESIAN_POINT('',(-23.22407455342,9.619726653534,4.953920892948
    ));
#195 = CARTESIAN_POINT('',(-24.79968678885,10.272366610484,
    5.163749999991));
#196 = CARTESIAN_POINT('',(-24.70284435938,-2.229299493043,5.26260144852
    ));
#197 = CARTESIAN_POINT('',(-26.37878213393,-2.38054390752,5.472430555563
    ));
#198 = CARTESIAN_POINT('',(-20.18414375902,-12.81007232977,
    5.571282004063));
#199 = CARTESIAN_POINT('',(-21.55351517554,-13.67915784073,
    5.781111111106));
#200 = CARTESIAN_POINT('',(-11.61271404305,-19.38492490575,
    5.879962559626));
#201 = CARTESIAN_POINT('',(-12.40056607525,-20.70007418304,
    6.089791666669));
#202 = CARTESIAN_POINT('',(-1.803391173551,-20.9450518166,6.188643115178
    ));
#203 = CARTESIAN_POINT('',(-1.925740298456,-22.36604621783,
    6.398472222221));
#204 = CARTESIAN_POINT('',(6.726137982733,-18.10038110472,6.497323670735
    ));
#205 = CARTESIAN_POINT('',(7.182465543965,-19.32838189627,6.707152777778
    ));
#206 = CARTESIAN_POINT('',(12.41325954373,-12.41325954373,6.80600422629)
  );
#207 = CARTESIAN_POINT('',(13.255423720123,-13.25542372012,
    7.015833333333));
#208 = DEFINITIONAL_REPRESENTATION('',(#209),#213);
#209 = LINE('',#210,#211);
#210 = CARTESIAN_POINT('',(0.,0.));
#211 = VECTOR('',#212,1.);
#212 = DIRECTION('',(1.,0.));
#213 = ( GEOMETRIC_REPRESENTATION_CONTEXT(2) 
PARAMETRIC_REPRESENTATION_CONTEXT() REPRESENTATION_CONTEXT('2D SPACE',''
  ) );
#214 = ORIENTED_EDGE('',*,*,#215,.F.);
#215 = EDGE_CURVE('',#22,#156,#216,.T.);
#216 = SURFACE_CURVE('',#217,(#220,#227),.PCURVE_S1.);
#217 = B_SPLINE_CURVE_WITH_KNOTS('',1,(#218,#219),.UNSPECIFIED.,.F.,.F.,
  (2,2),(0.,1.),.PIECEWISE_BEZIER_KNOTS.);
#218 = CARTESIAN_POINT('',(17.555,-4.440892098501E-15,2.111666666667));
#219 = CARTESIAN_POINT('',(17.555,-4.440892098501E-15,3.101837559624));
#220 = PCURVE('',#42,#221);
#221 = DEFINITIONAL_REPRESENTATION('',(#222),#226);
#222 = LINE('',#223,#224);
#223 = CARTESIAN_POINT('',(0.,0.));
#224 = VECTOR('',#225,1.);
#225 = DIRECTION('',(0.,1.));
#226 = ( GEOMETRIC_REPRESENTATION_CONTEXT(2) 
PARAMETRIC_REPRESENTATION_CONTEXT() REPRESENTATION_CONTEXT('2D SPACE',''
  ) );
#227 = PCURVE('',#228,#251);
#228 = B_SPLINE_SURFACE_WITH_KNOTS('',6,1,(
    (#229,#230)
    ,(#231,#232)
    ,(#233,#234)
    ,(#235,#236)
    ,(#237,#238)
    ,(#239,#240)
    ,(#241,#242)
    ,(#243,#244)
    ,(#245,#246)
    ,(#247,#248)
    ,(#249,#250
    )),.UNSPECIFIED.,.F.,.F.,.F.,(7,4,7),(2,2),(0.,0.495895634038,1.),(
    0.,1.),.UNSPECIFIED.);
#229 = CARTESIAN_POINT('',(17.555000389173,3.826807173368E-07,
    3.101837559958));
#230 = CARTESIAN_POINT('',(17.555000389173,3.826807173368E-07,
    2.111666667001));
#231 = CARTESIAN_POINT('',(17.716090223561,-2.374471924338,3.01070611836
    ));
#232 = CARTESIAN_POINT('',(17.716090223561,-2.374471924338,
    2.020535225403));
#233 = CARTESIAN_POINT('',(17.490032109087,-4.775231322371,
    2.920572142997));
#234 = CARTESIAN_POINT('',(17.490032109087,-4.775231322371,1.93040125004
    ));
#235 = CARTESIAN_POINT('',(16.871459859702,-7.123430926371,
    2.831381036922));
#236 = CARTESIAN_POINT('',(16.871459859702,-7.123430926371,
    1.841210143965));
#237 = CARTESIAN_POINT('',(15.876935758307,-9.338548538592,2.74303035976
    ));
#238 = CARTESIAN_POINT('',(15.876935758307,-9.338548538592,
    1.752859466803));
#239 = CARTESIAN_POINT('',(13.190683218714,-13.39163955518,
    2.566313361614));
#240 = CARTESIAN_POINT('',(13.190683218714,-13.39163955518,
    1.576142468657));
#241 = CARTESIAN_POINT('',(9.349814841047,-16.37700498463,2.391968803162
    ));
#242 = CARTESIAN_POINT('',(9.349814841047,-16.37700498463,1.401797910205
    ));
#243 = CARTESIAN_POINT('',(7.176554808029,-17.55033314161,2.304542938029
    ));
#244 = CARTESIAN_POINT('',(7.176554808029,-17.55033314161,1.314372045072
    ));
#245 = CARTESIAN_POINT('',(4.839056968634,-18.34744869239,2.217426658958
    ));
#246 = CARTESIAN_POINT('',(4.839056968634,-18.34744869239,1.227255766001
    ));
#247 = CARTESIAN_POINT('',(2.419536989688,-18.74599908211,2.130465467541
    ));
#248 = CARTESIAN_POINT('',(2.419536989688,-18.74599908211,1.140294574584
    ));
#249 = CARTESIAN_POINT('',(-4.012681262822E-07,-18.74600012643,
    2.043504225155));
#250 = CARTESIAN_POINT('',(-4.012681262822E-07,-18.74600012643,
    1.053333332198));
#251 = DEFINITIONAL_REPRESENTATION('',(#252),#255);
#252 = B_SPLINE_CURVE_WITH_KNOTS('',1,(#253,#254),.UNSPECIFIED.,.F.,.F.,
  (2,2),(0.,1.),.PIECEWISE_BEZIER_KNOTS.);
#253 = CARTESIAN_POINT('',(0.,1.));
#254 = CARTESIAN_POINT('',(0.,0.));
#255 = ( GEOMETRIC_REPRESENTATION_CONTEXT(2) 
PARAMETRIC_REPRESENTATION_CONTEXT() REPRESENTATION_CONTEXT('2D SPACE',''
  ) );
#256 = ADVANCED_FACE('',(#257),#181,.F.);
#257 = FACE_BOUND('',#258,.F.);
#258 = EDGE_LOOP('',(#259,#260,#313,#373));
#259 = ORIENTED_EDGE('',*,*,#155,.T.);
#260 = ORIENTED_EDGE('',*,*,#261,.T.);
#261 = EDGE_CURVE('',#111,#262,#264,.T.);
#262 = VERTEX_POINT('',#263);
#263 = CARTESIAN_POINT('',(13.255423668543,-13.25542390952,
    7.015833333333));
#264 = SURFACE_CURVE('',#265,(#268,#275),.PCURVE_S1.);
#265 = B_SPLINE_CURVE_WITH_KNOTS('',1,(#266,#267),.UNSPECIFIED.,.F.,.F.,
  (2,2),(0.,1.),.PIECEWISE_BEZIER_KNOTS.);
#266 = CARTESIAN_POINT('',(12.41325954373,-12.41325954373,6.80600422629)
  );
#267 = CARTESIAN_POINT('',(13.255423720123,-13.25542372012,
    7.015833333333));
#268 = PCURVE('',#181,#269);
#269 = DEFINITIONAL_REPRESENTATION('',(#270),#274);
#270 = LINE('',#271,#272);
#271 = CARTESIAN_POINT('',(6.629216708841,0.));
#272 = VECTOR('',#273,1.);
#273 = DIRECTION('',(0.,1.));
#274 = ( GEOMETRIC_REPRESENTATION_CONTEXT(2) 
PARAMETRIC_REPRESENTATION_CONTEXT() REPRESENTATION_CONTEXT('2D SPACE',''
  ) );
#275 = PCURVE('',#276,#307);
#276 = B_SPLINE_SURFACE_WITH_KNOTS('',6,1,(
    (#277,#278)
    ,(#279,#280)
    ,(#281,#282)
    ,(#283,#284)
    ,(#285,#286)
    ,(#287,#288)
    ,(#289,#290)
    ,(#291,#292)
    ,(#293,#294)
    ,(#295,#296)
    ,(#297,#298)
    ,(#299,#300)
    ,(#301,#302)
    ,(#303,#304)
    ,(#305,#306
    )),.UNSPECIFIED.,.F.,.F.,.F.,(7,4,4,7),(2,2),(0.,0.495895634038,0.5,
    1.),(0.,1.),.UNSPECIFIED.);
#277 = CARTESIAN_POINT('',(12.41325954832,-12.41326008951,6.806004225956
    ));
#278 = CARTESIAN_POINT('',(13.255423616964,-13.25542409891,
    7.015833333333));
#279 = CARTESIAN_POINT('',(14.20617273263,-10.84816233375,6.897135667554
    ));
#280 = CARTESIAN_POINT('',(14.976312285115,-11.53453309007,
    7.045456384678));
#281 = CARTESIAN_POINT('',(15.743918757289,-8.990721857723,
    6.987269642917));
#282 = CARTESIAN_POINT('',(16.429098285402,-9.545560755092,
    7.075079436022));
#283 = CARTESIAN_POINT('',(16.966949988663,-6.89289736196,7.076460748992
    ));
#284 = CARTESIAN_POINT('',(17.561594163807,-7.340656338438,
    7.104702487366));
#285 = CARTESIAN_POINT('',(17.83003993724,-4.623337941083,7.164811426153
    ));
#286 = CARTESIAN_POINT('',(18.335091714301,-4.985716103133,
    7.134325538711));
#287 = CARTESIAN_POINT('',(18.313290315178,-2.24062017642,7.253169925227
    ));
#288 = CARTESIAN_POINT('',(18.733187997355,-2.534386219077,
    7.164193770361));
#289 = CARTESIAN_POINT('',(18.403682520144,0.157457759655,7.340935314376
    ));
#290 = CARTESIAN_POINT('',(18.745844111634,-8.05716607362E-02,
    7.194062002012));
#291 = CARTESIAN_POINT('',(18.404398051952,0.177143929075,7.341655717038
    ));
#292 = CARTESIAN_POINT('',(18.745922029795,-6.042882926469E-02,
    7.194307182319));
#293 = CARTESIAN_POINT('',(18.405087108792,0.196831044491,7.342376079887
    ));
#294 = CARTESIAN_POINT('',(18.745973975291,-4.028591408052E-02,
    7.194552362626));
#295 = CARTESIAN_POINT('',(18.486466245813,2.614942725053,7.430847241717
    ));
#296 = CARTESIAN_POINT('',(18.749163986782,2.43370219531,7.224665774584)
  );
#297 = CARTESIAN_POINT('',(18.16842965436,5.045981813029,7.518720109601)
  );
#298 = CARTESIAN_POINT('',(18.360552016027,4.9076903047,7.254779186541)
  );
#299 = CARTESIAN_POINT('',(17.457877772235,7.389464163432,7.605426692511
    ));
#300 = CARTESIAN_POINT('',(17.589648205289,7.28586417383,7.284647418192)
  );
#301 = CARTESIAN_POINT('',(16.372046487389,9.584305047276,7.691831185134
    ));
#302 = CARTESIAN_POINT('',(16.45312838857,9.512618243729,7.314515649843)
  );
#303 = CARTESIAN_POINT('',(14.952364351487,11.558481802692,
    7.778084347875));
#304 = CARTESIAN_POINT('',(14.990555517734,11.520289838074,
    7.344383881494));
#305 = CARTESIAN_POINT('',(13.255423525786,13.255424093265,
    7.864337560759));
#306 = CARTESIAN_POINT('',(13.255423616966,13.255424098919,
    7.374252113145));
#307 = DEFINITIONAL_REPRESENTATION('',(#308),#312);
#308 = LINE('',#309,#310);
#309 = CARTESIAN_POINT('',(0.,0.));
#310 = VECTOR('',#311,1.);
#311 = DIRECTION('',(0.,1.));
#312 = ( GEOMETRIC_REPRESENTATION_CONTEXT(2) 
PARAMETRIC_REPRESENTATION_CONTEXT() REPRESENTATION_CONTEXT('2D SPACE',''
  ) );
#313 = ORIENTED_EDGE('',*,*,#314,.F.);
#314 = EDGE_CURVE('',#315,#262,#317,.T.);
#315 = VERTEX_POINT('',#316);
#316 = CARTESIAN_POINT('',(18.746000097452,1.703970848865E-07,
    3.311666666667));
#317 = SURFACE_CURVE('',#318,(#332,#339),.PCURVE_S1.);
#318 = B_SPLINE_CURVE_WITH_KNOTS('',12,(#319,#320,#321,#322,#323,#324,
    #325,#326,#327,#328,#329,#330,#331),.UNSPECIFIED.,.F.,.F.,(13,13),(
    0.,6.629216708841),.PIECEWISE_BEZIER_KNOTS.);
#319 = CARTESIAN_POINT('',(18.746,-8.881784197001E-16,3.311666666667));
#320 = CARTESIAN_POINT('',(18.745999999998,8.588459816449,3.620347222223
    ));
#321 = CARTESIAN_POINT('',(14.453478925118,17.176886972788,
    3.929027777776));
#322 = CARTESIAN_POINT('',(5.868638463536,23.405687188302,4.237708333337
    ));
#323 = CARTESIAN_POINT('',(-5.568011468954,24.913262009063,
    4.546388888883));
#324 = CARTESIAN_POINT('',(-16.96931698639,20.335914466369,
    4.855069444453));
#325 = CARTESIAN_POINT('',(-24.79968678885,10.272366610484,
    5.163749999991));
#326 = CARTESIAN_POINT('',(-26.37878213393,-2.38054390752,5.472430555563
    ));
#327 = CARTESIAN_POINT('',(-21.55351517554,-13.67915784073,
    5.781111111106));
#328 = CARTESIAN_POINT('',(-12.40056607525,-20.70007418304,
    6.089791666669));
#329 = CARTESIAN_POINT('',(-1.925740298456,-22.36604621783,
    6.398472222221));
#330 = CARTESIAN_POINT('',(7.182465543965,-19.32838189627,6.707152777778
    ));
#331 = CARTESIAN_POINT('',(13.255423720123,-13.25542372012,
    7.015833333333));
#332 = PCURVE('',#181,#333);
#333 = DEFINITIONAL_REPRESENTATION('',(#334),#338);
#334 = LINE('',#335,#336);
#335 = CARTESIAN_POINT('',(0.,1.));
#336 = VECTOR('',#337,1.);
#337 = DIRECTION('',(1.,0.));
#338 = ( GEOMETRIC_REPRESENTATION_CONTEXT(2) 
PARAMETRIC_REPRESENTATION_CONTEXT() REPRESENTATION_CONTEXT('2D SPACE',''
  ) );
#339 = PCURVE('',#340,#367);
#340 = B_SPLINE_SURFACE_WITH_KNOTS('',12,1,(
    (#341,#342)
    ,(#343,#344)
    ,(#345,#346)
    ,(#347,#348)
    ,(#349,#350)
    ,(#351,#352)
    ,(#353,#354)
    ,(#355,#356)
    ,(#357,#358)
    ,(#359,#360)
    ,(#361,#362)
    ,(#363,#364)
    ,(#365,#366
    )),.UNSPECIFIED.,.F.,.F.,.F.,(13,13),(2,2),(0.,6.629216708841),(0.,
    1.),.PIECEWISE_BEZIER_KNOTS.);
#341 = CARTESIAN_POINT('',(18.746,-8.881784197001E-16,3.311666666667));
#342 = CARTESIAN_POINT('',(18.746,-8.881784197001E-16,0.921666666667));
#343 = CARTESIAN_POINT('',(18.745999999998,8.588459816449,3.620347222223
    ));
#344 = CARTESIAN_POINT('',(18.745999999998,8.588459816449,1.230347222223
    ));
#345 = CARTESIAN_POINT('',(14.453478925118,17.176886972788,
    3.929027777776));
#346 = CARTESIAN_POINT('',(14.453478925118,17.176886972788,
    1.539027777776));
#347 = CARTESIAN_POINT('',(5.868638463536,23.405687188302,4.237708333337
    ));
#348 = CARTESIAN_POINT('',(5.868638463536,23.405687188302,1.847708333337
    ));
#349 = CARTESIAN_POINT('',(-5.568011468954,24.913262009063,
    4.546388888883));
#350 = CARTESIAN_POINT('',(-5.568011468954,24.913262009063,
    2.156388888883));
#351 = CARTESIAN_POINT('',(-16.96931698639,20.335914466369,
    4.855069444453));
#352 = CARTESIAN_POINT('',(-16.96931698639,20.335914466369,
    2.465069444453));
#353 = CARTESIAN_POINT('',(-24.79968678885,10.272366610484,
    5.163749999991));
#354 = CARTESIAN_POINT('',(-24.79968678885,10.272366610484,
    2.773749999991));
#355 = CARTESIAN_POINT('',(-26.37878213393,-2.38054390752,5.472430555563
    ));
#356 = CARTESIAN_POINT('',(-26.37878213393,-2.38054390752,3.082430555563
    ));
#357 = CARTESIAN_POINT('',(-21.55351517554,-13.67915784073,
    5.781111111106));
#358 = CARTESIAN_POINT('',(-21.55351517554,-13.67915784073,
    3.391111111106));
#359 = CARTESIAN_POINT('',(-12.40056607525,-20.70007418304,
    6.089791666669));
#360 = CARTESIAN_POINT('',(-12.40056607525,-20.70007418304,
    3.699791666669));
#361 = CARTESIAN_POINT('',(-1.925740298456,-22.36604621783,
    6.398472222221));
#362 = CARTESIAN_POINT('',(-1.925740298456,-22.36604621783,
    4.008472222221));
#363 = CARTESIAN_POINT('',(7.182465543965,-19.32838189627,6.707152777778
    ));
#364 = CARTESIAN_POINT('',(7.182465543965,-19.32838189627,4.317152777778
    ));
#365 = CARTESIAN_POINT('',(13.255423720123,-13.25542372012,
    7.015833333333));
#366 = CARTESIAN_POINT('',(13.255423720123,-13.25542372012,
    4.625833333333));
#367 = DEFINITIONAL_REPRESENTATION('',(#368),#372);
#368 = LINE('',#369,#370);
#369 = CARTESIAN_POINT('',(0.,0.));
#370 = VECTOR('',#371,1.);
#371 = DIRECTION('',(1.,0.));
#372 = ( GEOMETRIC_REPRESENTATION_CONTEXT(2) 
PARAMETRIC_REPRESENTATION_CONTEXT() REPRESENTATION_CONTEXT('2D SPACE',''
  ) );
#373 = ORIENTED_EDGE('',*,*,#374,.F.);
#374 = EDGE_CURVE('',#156,#315,#375,.T.);
#375 = SURFACE_CURVE('',#376,(#379,#386),.PCURVE_S1.);
#376 = B_SPLINE_CURVE_WITH_KNOTS('',1,(#377,#378),.UNSPECIFIED.,.F.,.F.,
  (2,2),(0.,1.),.PIECEWISE_BEZIER_KNOTS.);
#377 = CARTESIAN_POINT('',(17.555,-4.440892098501E-15,3.101837559624));
#378 = CARTESIAN_POINT('',(18.746,-8.881784197001E-16,3.311666666667));
#379 = PCURVE('',#181,#380);
#380 = DEFINITIONAL_REPRESENTATION('',(#381),#385);
#381 = LINE('',#382,#383);
#382 = CARTESIAN_POINT('',(0.,0.));
#383 = VECTOR('',#384,1.);
#384 = DIRECTION('',(0.,1.));
#385 = ( GEOMETRIC_REPRESENTATION_CONTEXT(2) 
PARAMETRIC_REPRESENTATION_CONTEXT() REPRESENTATION_CONTEXT('2D SPACE',''
  ) );
#386 = PCURVE('',#387,#418);
#387 = B_SPLINE_SURFACE_WITH_KNOTS('',6,1,(
    (#388,#389)
    ,(#390,#391)
    ,(#392,#393)
    ,(#394,#395)
    ,(#396,#397)
    ,(#398,#399)
    ,(#400,#401)
    ,(#402,#403)
    ,(#404,#405)
    ,(#406,#407)
    ,(#408,#409)
    ,(#410,#411)
    ,(#412,#413)
    ,(#414,#415)
    ,(#416,#417
    )),.UNSPECIFIED.,.F.,.F.,.F.,(7,4,4,7),(2,2),(0.,0.495895634038,0.5,
    1.),(0.,1.),.UNSPECIFIED.);
#388 = CARTESIAN_POINT('',(18.746000194904,3.407941697731E-07,
    3.311666666667));
#389 = CARTESIAN_POINT('',(17.555000389173,3.826807173368E-07,
    3.101837559958));
#390 = CARTESIAN_POINT('',(18.745998539789,-2.43370540816,3.166348758225
    ));
#391 = CARTESIAN_POINT('',(17.716090223561,-2.374471924338,3.01070611836
    ));
#392 = CARTESIAN_POINT('',(18.366857546533,-4.867396066232,
    3.021030849784));
#393 = CARTESIAN_POINT('',(17.490032109087,-4.775231322371,
    2.920572142997));
#394 = CARTESIAN_POINT('',(17.608550196953,-7.227294446405,
    2.875712941343));
#395 = CARTESIAN_POINT('',(16.871459859702,-7.123430926371,
    2.831381036922));
#396 = CARTESIAN_POINT('',(16.490301350451,-9.439434019264,
    2.730395032902));
#397 = CARTESIAN_POINT('',(15.876935758307,-9.338548538592,2.74303035976
    ));
#398 = CARTESIAN_POINT('',(15.038445947828,-11.45428258451,
    2.583874375664));
#399 = CARTESIAN_POINT('',(14.53380948851,-11.36509404689,2.654671860687
    ));
#400 = CARTESIAN_POINT('',(13.312286258081,-13.19834072272,
    2.437353718426));
#401 = CARTESIAN_POINT('',(12.902029259196,-13.1247081584,2.566906471538
    ));
#402 = CARTESIAN_POINT('',(13.298098221815,-13.21263895191,
    2.436150969629));
#403 = CARTESIAN_POINT('',(12.888614992697,-13.13913433968,
    2.566186068876));
#404 = CARTESIAN_POINT('',(13.283891760908,-13.22691887484,
    2.434948220833));
#405 = CARTESIAN_POINT('',(12.875181336649,-13.15354246926,
    2.565465706027));
#406 = CARTESIAN_POINT('',(11.53677367094,-14.97854832232,2.287224814798
    ));
#407 = CARTESIAN_POINT('',(11.222861909292,-14.92094937589,
    2.476994544197));
#408 = CARTESIAN_POINT('',(9.512609742438,-16.45313193127,2.139501408763
    ));
#409 = CARTESIAN_POINT('',(9.278971854372,-16.41506776984,2.389121676313
    ));
#410 = CARTESIAN_POINT('',(7.28587556054,-17.58964348875,1.992980751527)
  );
#411 = CARTESIAN_POINT('',(7.119443538576,-17.56972397717,2.302415093403
    ));
#412 = CARTESIAN_POINT('',(4.907681788298,-18.36055552227,1.846460094286
    ));
#413 = CARTESIAN_POINT('',(4.799658001245,-18.35391218502,2.21601060078)
  );
#414 = CARTESIAN_POINT('',(2.453848394612,-18.74599852607,1.699939437051
    ));
#415 = CARTESIAN_POINT('',(2.399837364803,-18.74599909061,2.129757438039
    ));
#416 = CARTESIAN_POINT('',(-3.407938615752E-07,-18.7460001949,
    1.553418779812));
#417 = CARTESIAN_POINT('',(-4.012681262822E-07,-18.74600012643,
    2.043504225155));
#418 = DEFINITIONAL_REPRESENTATION('',(#419),#422);
#419 = B_SPLINE_CURVE_WITH_KNOTS('',1,(#420,#421),.UNSPECIFIED.,.F.,.F.,
  (2,2),(0.,1.),.PIECEWISE_BEZIER_KNOTS.);
#420 = CARTESIAN_POINT('',(0.,1.));
#421 = CARTESIAN_POINT('',(0.,0.));
#422 = ( GEOMETRIC_REPRESENTATION_CONTEXT(2) 
PARAMETRIC_REPRESENTATION_CONTEXT() REPRESENTATION_CONTEXT('2D SPACE',''
  ) );
#423 = ADVANCED_FACE('',(#424),#340,.F.);
#424 = FACE_BOUND('',#425,.F.);
#425 = EDGE_LOOP('',(#426,#427,#472,#505));
#426 = ORIENTED_EDGE('',*,*,#314,.T.);
#427 = ORIENTED_EDGE('',*,*,#428,.T.);
#428 = EDGE_CURVE('',#262,#429,#431,.T.);
#429 = VERTEX_POINT('',#430);
#430 = CARTESIAN_POINT('',(13.255423668543,-13.25542390952,
    4.625833333333));
#431 = SURFACE_CURVE('',#432,(#435,#442),.PCURVE_S1.);
#432 = B_SPLINE_CURVE_WITH_KNOTS('',1,(#433,#434),.UNSPECIFIED.,.F.,.F.,
  (2,2),(0.,1.),.PIECEWISE_BEZIER_KNOTS.);
#433 = CARTESIAN_POINT('',(13.255423616964,-13.25542409891,
    7.015833333333));
#434 = CARTESIAN_POINT('',(13.255423616963,-13.25542409891,
    4.625833333333));
#435 = PCURVE('',#340,#436);
#436 = DEFINITIONAL_REPRESENTATION('',(#437),#441);
#437 = LINE('',#438,#439);
#438 = CARTESIAN_POINT('',(6.629216708841,0.));
#439 = VECTOR('',#440,1.);
#440 = DIRECTION('',(0.,1.));
#441 = ( GEOMETRIC_REPRESENTATION_CONTEXT(2) 
PARAMETRIC_REPRESENTATION_CONTEXT() REPRESENTATION_CONTEXT('2D SPACE',''
  ) );
#442 = PCURVE('',#443,#466);
#443 = B_SPLINE_SURFACE_WITH_KNOTS('',6,1,(
    (#444,#445)
    ,(#446,#447)
    ,(#448,#449)
    ,(#450,#451)
    ,(#452,#453)
    ,(#454,#455)
    ,(#456,#457)
    ,(#458,#459)
    ,(#460,#461)
    ,(#462,#463)
    ,(#464,#465
    )),.UNSPECIFIED.,.F.,.F.,.F.,(7,4,7),(2,2),(0.,0.5,1.),(0.,1.),
  .UNSPECIFIED.);
#444 = CARTESIAN_POINT('',(13.255423616964,-13.25542409891,
    7.015833333333));
#445 = CARTESIAN_POINT('',(13.255423616963,-13.25542409891,
    4.625833333333));
#446 = CARTESIAN_POINT('',(14.990555517742,-11.52028983807,
    7.045701564984));
#447 = CARTESIAN_POINT('',(14.990555517746,-11.52028983807,
    4.772353990571));
#448 = CARTESIAN_POINT('',(16.453128388557,-9.51261824373,7.075569796635
    ));
#449 = CARTESIAN_POINT('',(16.453128388549,-9.512618243725,
    4.918874647809));
#450 = CARTESIAN_POINT('',(17.589648205298,-7.285864173827,
    7.105438028286));
#451 = CARTESIAN_POINT('',(17.589648205306,-7.285864173833,
    5.065395305047));
#452 = CARTESIAN_POINT('',(18.360552016026,-4.907690304702,
    7.135306259937));
#453 = CARTESIAN_POINT('',(18.360552016022,-4.907690304698,
    5.211915962285));
#454 = CARTESIAN_POINT('',(19.131447880047,1.314504061156E-12,
    7.195042723239));
#455 = CARTESIAN_POINT('',(19.131447880051,-4.032330025439E-12,
    5.50495727676));
#456 = CARTESIAN_POINT('',(18.360552016027,4.9076903047,7.254779186541)
  );
#457 = CARTESIAN_POINT('',(18.360552016024,4.907690304705,5.797998591237
    ));
#458 = CARTESIAN_POINT('',(17.589648205289,7.28586417383,7.284647418192)
  );
#459 = CARTESIAN_POINT('',(17.589648205294,7.285864173817,5.944519248473
    ));
#460 = CARTESIAN_POINT('',(16.45312838857,9.512618243729,7.314515649843)
  );
#461 = CARTESIAN_POINT('',(16.453128388567,9.512618243744,6.091039905714
    ));
#462 = CARTESIAN_POINT('',(14.990555517734,11.520289838074,
    7.344383881494));
#463 = CARTESIAN_POINT('',(14.990555517734,11.520289838066,
    6.237560562949));
#464 = CARTESIAN_POINT('',(13.255423616966,13.255424098919,
    7.374252113145));
#465 = CARTESIAN_POINT('',(13.255423616966,13.255424098921,
    6.384081220188));
#466 = DEFINITIONAL_REPRESENTATION('',(#467),#471);
#467 = LINE('',#468,#469);
#468 = CARTESIAN_POINT('',(0.,0.));
#469 = VECTOR('',#470,1.);
#470 = DIRECTION('',(0.,1.));
#471 = ( GEOMETRIC_REPRESENTATION_CONTEXT(2) 
PARAMETRIC_REPRESENTATION_CONTEXT() REPRESENTATION_CONTEXT('2D SPACE',''
  ) );
#472 = ORIENTED_EDGE('',*,*,#473,.F.);
#473 = EDGE_CURVE('',#474,#429,#476,.T.);
#474 = VERTEX_POINT('',#475);
#475 = CARTESIAN_POINT('',(18.746000097452,1.703969263467E-07,
    0.921666666667));
#476 = SURFACE_CURVE('',#477,(#491,#498),.PCURVE_S1.);
#477 = B_SPLINE_CURVE_WITH_KNOTS('',12,(#478,#479,#480,#481,#482,#483,
    #484,#485,#486,#487,#488,#489,#490),.UNSPECIFIED.,.F.,.F.,(13,13),(
    0.,6.629216708841),.PIECEWISE_BEZIER_KNOTS.);
#478 = CARTESIAN_POINT('',(18.746,-8.881784197001E-16,0.921666666667));
#479 = CARTESIAN_POINT('',(18.745999999998,8.588459816449,1.230347222223
    ));
#480 = CARTESIAN_POINT('',(14.453478925118,17.176886972788,
    1.539027777776));
#481 = CARTESIAN_POINT('',(5.868638463536,23.405687188302,1.847708333337
    ));
#482 = CARTESIAN_POINT('',(-5.568011468954,24.913262009063,
    2.156388888883));
#483 = CARTESIAN_POINT('',(-16.96931698639,20.335914466369,
    2.465069444453));
#484 = CARTESIAN_POINT('',(-24.79968678885,10.272366610484,
    2.773749999991));
#485 = CARTESIAN_POINT('',(-26.37878213393,-2.38054390752,3.082430555563
    ));
#486 = CARTESIAN_POINT('',(-21.55351517554,-13.67915784073,
    3.391111111106));
#487 = CARTESIAN_POINT('',(-12.40056607525,-20.70007418304,
    3.699791666669));
#488 = CARTESIAN_POINT('',(-1.925740298456,-22.36604621783,
    4.008472222221));
#489 = CARTESIAN_POINT('',(7.182465543965,-19.32838189627,4.317152777778
    ));
#490 = CARTESIAN_POINT('',(13.255423720123,-13.25542372012,
    4.625833333333));
#491 = PCURVE('',#340,#492);
#492 = DEFINITIONAL_REPRESENTATION('',(#493),#497);
#493 = LINE('',#494,#495);
#494 = CARTESIAN_POINT('',(0.,1.));
#495 = VECTOR('',#496,1.);
#496 = DIRECTION('',(1.,0.));
#497 = ( GEOMETRIC_REPRESENTATION_CONTEXT(2) 
PARAMETRIC_REPRESENTATION_CONTEXT() REPRESENTATION_CONTEXT('2D SPACE',''
  ) );
#498 = PCURVE('',#76,#499);
#499 = DEFINITIONAL_REPRESENTATION('',(#500),#504);
#500 = LINE('',#501,#502);
#501 = CARTESIAN_POINT('',(0.,0.));
#502 = VECTOR('',#503,1.);
#503 = DIRECTION('',(1.,0.));
#504 = ( GEOMETRIC_REPRESENTATION_CONTEXT(2) 
PARAMETRIC_REPRESENTATION_CONTEXT() REPRESENTATION_CONTEXT('2D SPACE',''
  ) );
#505 = ORIENTED_EDGE('',*,*,#506,.T.);
#506 = EDGE_CURVE('',#474,#315,#507,.T.);
#507 = SURFACE_CURVE('',#508,(#511,#517),.PCURVE_S1.);
#508 = B_SPLINE_CURVE_WITH_KNOTS('',1,(#509,#510),.UNSPECIFIED.,.F.,.F.,
  (2,2),(0.,1.),.PIECEWISE_BEZIER_KNOTS.);
#509 = CARTESIAN_POINT('',(18.746000194904,3.407938526934E-07,
    0.921666666667));
#510 = CARTESIAN_POINT('',(18.746000194904,3.407941697731E-07,
    3.311666666667));
#511 = PCURVE('',#340,#512);
#512 = DEFINITIONAL_REPRESENTATION('',(#513),#516);
#513 = B_SPLINE_CURVE_WITH_KNOTS('',1,(#514,#515),.UNSPECIFIED.,.F.,.F.,
  (2,2),(0.,1.),.PIECEWISE_BEZIER_KNOTS.);
#514 = CARTESIAN_POINT('',(0.,1.));
#515 = CARTESIAN_POINT('',(0.,0.));
#516 = ( GEOMETRIC_REPRESENTATION_CONTEXT(2) 
PARAMETRIC_REPRESENTATION_CONTEXT() REPRESENTATION_CONTEXT('2D SPACE',''
  ) );
#517 = PCURVE('',#518,#541);
#518 = B_SPLINE_SURFACE_WITH_KNOTS('',6,1,(
    (#519,#520)
    ,(#521,#522)
    ,(#523,#524)
    ,(#525,#526)
    ,(#527,#528)
    ,(#529,#530)
    ,(#531,#532)
    ,(#533,#534)
    ,(#535,#536)
    ,(#537,#538)
    ,(#539,#540
    )),.UNSPECIFIED.,.F.,.F.,.F.,(7,4,7),(2,2),(0.,0.5,1.),(0.,1.),
  .UNSPECIFIED.);
#519 = CARTESIAN_POINT('',(18.746000194904,3.407938526934E-07,
    0.921666666667));
#520 = CARTESIAN_POINT('',(18.746000194904,3.407941697731E-07,
    3.311666666667));
#521 = CARTESIAN_POINT('',(18.745998526086,-2.453848394612,
    0.891798435016));
#522 = CARTESIAN_POINT('',(18.74599852609,-2.453848394613,3.165146009429
    ));
#523 = CARTESIAN_POINT('',(18.360555522262,-4.907681788301,
    0.861930203365));
#524 = CARTESIAN_POINT('',(18.360555522253,-4.907681788299,
    3.018625352191));
#525 = CARTESIAN_POINT('',(17.58964348877,-7.285875560535,0.832061971714
    ));
#526 = CARTESIAN_POINT('',(17.589643488779,-7.285875560536,
    2.872104694953));
#527 = CARTESIAN_POINT('',(16.453131931278,-9.512609742442,
    0.802193740063));
#528 = CARTESIAN_POINT('',(16.453131931273,-9.512609742442,
    2.725584037715));
#529 = CARTESIAN_POINT('',(13.527976529897,-13.52797652989,
    0.742457276761));
#530 = CARTESIAN_POINT('',(13.527976529904,-13.52797652989,2.43254272324
    ));
#531 = CARTESIAN_POINT('',(9.512609742444,-16.45313193127,0.682720813459
    ));
#532 = CARTESIAN_POINT('',(9.512609742438,-16.45313193127,2.139501408763
    ));
#533 = CARTESIAN_POINT('',(7.285875560526,-17.58964348876,0.652852581808
    ));
#534 = CARTESIAN_POINT('',(7.28587556054,-17.58964348875,1.992980751527)
  );
#535 = CARTESIAN_POINT('',(4.907681788312,-18.36055552227,0.622984350157
    ));
#536 = CARTESIAN_POINT('',(4.907681788298,-18.36055552227,1.846460094286
    ));
#537 = CARTESIAN_POINT('',(2.453848394606,-18.74599852608,0.593116118506
    ));
#538 = CARTESIAN_POINT('',(2.453848394612,-18.74599852607,1.699939437051
    ));
#539 = CARTESIAN_POINT('',(-3.407926962851E-07,-18.7460001949,
    0.563247886855));
#540 = CARTESIAN_POINT('',(-3.407938615752E-07,-18.7460001949,
    1.553418779812));
#541 = DEFINITIONAL_REPRESENTATION('',(#542),#546);
#542 = LINE('',#543,#544);
#543 = CARTESIAN_POINT('',(0.,0.));
#544 = VECTOR('',#545,1.);
#545 = DIRECTION('',(0.,1.));
#546 = ( GEOMETRIC_REPRESENTATION_CONTEXT(2) 
PARAMETRIC_REPRESENTATION_CONTEXT() REPRESENTATION_CONTEXT('2D SPACE',''
  ) );
#547 = ADVANCED_FACE('',(#548),#76,.F.);
#548 = FACE_BOUND('',#549,.F.);
#549 = EDGE_LOOP('',(#550,#551,#602,#603));
#550 = ORIENTED_EDGE('',*,*,#473,.T.);
#551 = ORIENTED_EDGE('',*,*,#552,.T.);
#552 = EDGE_CURVE('',#429,#24,#553,.T.);
#553 = SURFACE_CURVE('',#554,(#557,#564),.PCURVE_S1.);
#554 = B_SPLINE_CURVE_WITH_KNOTS('',1,(#555,#556),.UNSPECIFIED.,.F.,.F.,
  (2,2),(0.,1.),.PIECEWISE_BEZIER_KNOTS.);
#555 = CARTESIAN_POINT('',(13.255423720123,-13.25542372012,
    4.625833333333));
#556 = CARTESIAN_POINT('',(12.41325954373,-12.41325954373,5.815833333333
    ));
#557 = PCURVE('',#76,#558);
#558 = DEFINITIONAL_REPRESENTATION('',(#559),#563);
#559 = LINE('',#560,#561);
#560 = CARTESIAN_POINT('',(6.629216708841,0.));
#561 = VECTOR('',#562,1.);
#562 = DIRECTION('',(0.,1.));
#563 = ( GEOMETRIC_REPRESENTATION_CONTEXT(2) 
PARAMETRIC_REPRESENTATION_CONTEXT() REPRESENTATION_CONTEXT('2D SPACE',''
  ) );
#564 = PCURVE('',#565,#596);
#565 = B_SPLINE_SURFACE_WITH_KNOTS('',6,1,(
    (#566,#567)
    ,(#568,#569)
    ,(#570,#571)
    ,(#572,#573)
    ,(#574,#575)
    ,(#576,#577)
    ,(#578,#579)
    ,(#580,#581)
    ,(#582,#583)
    ,(#584,#585)
    ,(#586,#587)
    ,(#588,#589)
    ,(#590,#591)
    ,(#592,#593)
    ,(#594,#595
    )),.UNSPECIFIED.,.F.,.F.,.F.,(7,4,4,7),(2,2),(0.,0.495895634038,0.5,
    1.),(0.,1.),.UNSPECIFIED.);
#566 = CARTESIAN_POINT('',(13.255423616963,-13.25542409891,
    4.625833333333));
#567 = CARTESIAN_POINT('',(12.41325954832,-12.41326008951,5.815833332999
    ));
#568 = CARTESIAN_POINT('',(14.976312285118,-11.53453309007,
    4.771151241775));
#569 = CARTESIAN_POINT('',(14.20617273263,-10.84816233375,5.906964774597
    ));
#570 = CARTESIAN_POINT('',(16.429098285394,-9.545560755088,
    4.916469150216));
#571 = CARTESIAN_POINT('',(15.743918757289,-8.990721857723,5.99709874996
    ));
#572 = CARTESIAN_POINT('',(17.561594163814,-7.340656338444,
    5.061787058657));
#573 = CARTESIAN_POINT('',(16.966949988663,-6.89289736196,6.086289856035
    ));
#574 = CARTESIAN_POINT('',(18.335091714298,-4.985716103129,
    5.207104967098));
#575 = CARTESIAN_POINT('',(17.83003993724,-4.623337941083,6.174640533197
    ));
#576 = CARTESIAN_POINT('',(18.733187997355,-2.534386219078,
    5.353625624336));
#577 = CARTESIAN_POINT('',(18.313290315178,-2.24062017642,6.26299903227)
  );
#578 = CARTESIAN_POINT('',(18.745844111634,-8.057166073655E-02,
    5.500146281574));
#579 = CARTESIAN_POINT('',(18.403682520144,0.157457759655,6.350764421419
    ));
#580 = CARTESIAN_POINT('',(18.745922029795,-6.042882926504E-02,
    5.501349030371));
#581 = CARTESIAN_POINT('',(18.404398051952,0.177143929075,6.351484824081
    ));
#582 = CARTESIAN_POINT('',(18.745973975291,-4.028591408087E-02,
    5.502551779167));
#583 = CARTESIAN_POINT('',(18.405087108792,0.196831044491,6.35220518693)
  );
#584 = CARTESIAN_POINT('',(18.749163986782,2.43370219531,5.650275185202)
  );
#585 = CARTESIAN_POINT('',(18.486466245813,2.614942725053,6.44067634876)
  );
#586 = CARTESIAN_POINT('',(18.360552016024,4.907690304705,5.797998591237
    ));
#587 = CARTESIAN_POINT('',(18.16842965436,5.045981813029,6.528549216644)
  );
#588 = CARTESIAN_POINT('',(17.589648205294,7.285864173817,5.944519248473
    ));
#589 = CARTESIAN_POINT('',(17.457877772235,7.389464163432,6.615255799554
    ));
#590 = CARTESIAN_POINT('',(16.453128388567,9.512618243744,6.091039905714
    ));
#591 = CARTESIAN_POINT('',(16.372046487389,9.584305047276,6.701660292177
    ));
#592 = CARTESIAN_POINT('',(14.990555517734,11.520289838066,
    6.237560562949));
#593 = CARTESIAN_POINT('',(14.952364351487,11.558481802692,
    6.787913454918));
#594 = CARTESIAN_POINT('',(13.255423616966,13.255424098921,
    6.384081220188));
#595 = CARTESIAN_POINT('',(13.255423525786,13.255424093265,
    6.874166667802));
#596 = DEFINITIONAL_REPRESENTATION('',(#597),#601);
#597 = LINE('',#598,#599);
#598 = CARTESIAN_POINT('',(0.,0.));
#599 = VECTOR('',#600,1.);
#600 = DIRECTION('',(0.,1.));
#601 = ( GEOMETRIC_REPRESENTATION_CONTEXT(2) 
PARAMETRIC_REPRESENTATION_CONTEXT() REPRESENTATION_CONTEXT('2D SPACE',''
  ) );
#602 = ORIENTED_EDGE('',*,*,#21,.F.);
#603 = ORIENTED_EDGE('',*,*,#604,.F.);
#604 = EDGE_CURVE('',#474,#22,#605,.T.);
#605 = SURFACE_CURVE('',#606,(#609,#616),.PCURVE_S1.);
#606 = B_SPLINE_CURVE_WITH_KNOTS('',1,(#607,#608),.UNSPECIFIED.,.F.,.F.,
  (2,2),(0.,1.),.PIECEWISE_BEZIER_KNOTS.);
#607 = CARTESIAN_POINT('',(18.746,-8.881784197001E-16,0.921666666667));
#608 = CARTESIAN_POINT('',(17.555,-4.440892098501E-15,2.111666666667));
#609 = PCURVE('',#76,#610);
#610 = DEFINITIONAL_REPRESENTATION('',(#611),#615);
#611 = LINE('',#612,#613);
#612 = CARTESIAN_POINT('',(0.,0.));
#613 = VECTOR('',#614,1.);
#614 = DIRECTION('',(0.,1.));
#615 = ( GEOMETRIC_REPRESENTATION_CONTEXT(2) 
PARAMETRIC_REPRESENTATION_CONTEXT() REPRESENTATION_CONTEXT('2D SPACE',''
  ) );
#616 = PCURVE('',#617,#648);
#617 = B_SPLINE_SURFACE_WITH_KNOTS('',6,1,(
    (#618,#619)
    ,(#620,#621)
    ,(#622,#623)
    ,(#624,#625)
    ,(#626,#627)
    ,(#628,#629)
    ,(#630,#631)
    ,(#632,#633)
    ,(#634,#635)
    ,(#636,#637)
    ,(#638,#639)
    ,(#640,#641)
    ,(#642,#643)
    ,(#644,#645)
    ,(#646,#647
    )),.UNSPECIFIED.,.F.,.F.,.F.,(7,4,4,7),(2,2),(0.,0.495895634038,0.5,
    1.),(0.,1.),.UNSPECIFIED.);
#618 = CARTESIAN_POINT('',(17.555000389173,3.826807173368E-07,
    2.111666667001));
#619 = CARTESIAN_POINT('',(18.746000194904,3.407938526934E-07,
    0.921666666667));
#620 = CARTESIAN_POINT('',(17.716090223561,-2.374471924338,
    2.020535225403));
#621 = CARTESIAN_POINT('',(18.745998539785,-2.433705408159,
    0.892043615322));
#622 = CARTESIAN_POINT('',(17.490032109087,-4.775231322371,1.93040125004
    ));
#623 = CARTESIAN_POINT('',(18.366857546542,-4.867396066234,
    0.862420563978));
#624 = CARTESIAN_POINT('',(16.871459859702,-7.123430926371,
    1.841210143965));
#625 = CARTESIAN_POINT('',(17.608550196944,-7.227294446404,
    0.832797512634));
#626 = CARTESIAN_POINT('',(15.876935758307,-9.338548538592,
    1.752859466803));
#627 = CARTESIAN_POINT('',(16.490301350456,-9.439434019264,
    0.803174461289));
#628 = CARTESIAN_POINT('',(14.53380948851,-11.36509404689,1.66450096773)
  );
#629 = CARTESIAN_POINT('',(15.038445947827,-11.45428258451,
    0.773306229639));
#630 = CARTESIAN_POINT('',(12.902029259196,-13.1247081584,1.576735578581
    ));
#631 = CARTESIAN_POINT('',(13.31228625808,-13.19834072272,0.743437997988
    ));
#632 = CARTESIAN_POINT('',(12.888614992697,-13.13913433968,
    1.576015175919));
#633 = CARTESIAN_POINT('',(13.298098221814,-13.21263895191,
    0.743192817681));
#634 = CARTESIAN_POINT('',(12.875181336649,-13.15354246926,1.57529481307
    ));
#635 = CARTESIAN_POINT('',(13.283891760907,-13.22691887484,
    0.742947637374));
#636 = CARTESIAN_POINT('',(11.222861909292,-14.92094937589,1.48682365124
    ));
#637 = CARTESIAN_POINT('',(11.53677367094,-14.97854832232,0.712834225416
    ));
#638 = CARTESIAN_POINT('',(9.278971854372,-16.41506776984,1.398950783356
    ));
#639 = CARTESIAN_POINT('',(9.512609742444,-16.45313193127,0.682720813459
    ));
#640 = CARTESIAN_POINT('',(7.119443538576,-17.56972397717,1.312244200446
    ));
#641 = CARTESIAN_POINT('',(7.285875560526,-17.58964348876,0.652852581808
    ));
#642 = CARTESIAN_POINT('',(4.799658001245,-18.35391218502,1.225839707823
    ));
#643 = CARTESIAN_POINT('',(4.907681788312,-18.36055552227,0.622984350157
    ));
#644 = CARTESIAN_POINT('',(2.399837364803,-18.74599909061,1.139586545082
    ));
#645 = CARTESIAN_POINT('',(2.453848394606,-18.74599852608,0.593116118506
    ));
#646 = CARTESIAN_POINT('',(-4.012681262822E-07,-18.74600012643,
    1.053333332198));
#647 = CARTESIAN_POINT('',(-3.407926962851E-07,-18.7460001949,
    0.563247886855));
#648 = DEFINITIONAL_REPRESENTATION('',(#649),#652);
#649 = B_SPLINE_CURVE_WITH_KNOTS('',1,(#650,#651),.UNSPECIFIED.,.F.,.F.,
  (2,2),(0.,1.),.PIECEWISE_BEZIER_KNOTS.);
#650 = CARTESIAN_POINT('',(0.,1.));
#651 = CARTESIAN_POINT('',(0.,0.));
#652 = ( GEOMETRIC_REPRESENTATION_CONTEXT(2) 
PARAMETRIC_REPRESENTATION_CONTEXT() REPRESENTATION_CONTEXT('2D SPACE',''
  ) );
#653 = ADVANCED_FACE('',(#654),#228,.F.);
#654 = FACE_BOUND('',#655,.F.);
#655 = EDGE_LOOP('',(#656,#687,#708,#729,#758));
#656 = ORIENTED_EDGE('',*,*,#657,.T.);
#657 = EDGE_CURVE('',#156,#658,#660,.T.);
#658 = VERTEX_POINT('',#659);
#659 = CARTESIAN_POINT('',(-4.012681262822E-07,-18.74600012643,
    2.043504225155));
#660 = SURFACE_CURVE('',#661,(#673,#680),.PCURVE_S1.);
#661 = B_SPLINE_CURVE_WITH_KNOTS('',6,(#662,#663,#664,#665,#666,#667,
    #668,#669,#670,#671,#672),.UNSPECIFIED.,.F.,.F.,(7,4,7),(0.,
    0.495895634038,1.),.UNSPECIFIED.);
#662 = CARTESIAN_POINT('',(17.555000389173,3.826807173368E-07,
    3.101837559958));
#663 = CARTESIAN_POINT('',(17.716090223561,-2.374471924338,3.01070611836
    ));
#664 = CARTESIAN_POINT('',(17.490032109087,-4.775231322371,
    2.920572142997));
#665 = CARTESIAN_POINT('',(16.871459859702,-7.123430926371,
    2.831381036922));
#666 = CARTESIAN_POINT('',(15.876935758307,-9.338548538592,2.74303035976
    ));
#667 = CARTESIAN_POINT('',(13.190683218714,-13.39163955518,
    2.566313361614));
#668 = CARTESIAN_POINT('',(9.349814841047,-16.37700498463,2.391968803162
    ));
#669 = CARTESIAN_POINT('',(7.176554808029,-17.55033314161,2.304542938029
    ));
#670 = CARTESIAN_POINT('',(4.839056968634,-18.34744869239,2.217426658958
    ));
#671 = CARTESIAN_POINT('',(2.419536989688,-18.74599908211,2.130465467541
    ));
#672 = CARTESIAN_POINT('',(-4.012681262822E-07,-18.74600012643,
    2.043504225155));
#673 = PCURVE('',#228,#674);
#674 = DEFINITIONAL_REPRESENTATION('',(#675),#679);
#675 = LINE('',#676,#677);
#676 = CARTESIAN_POINT('',(0.,0.));
#677 = VECTOR('',#678,1.);
#678 = DIRECTION('',(1.,0.));
#679 = ( GEOMETRIC_REPRESENTATION_CONTEXT(2) 
PARAMETRIC_REPRESENTATION_CONTEXT() REPRESENTATION_CONTEXT('2D SPACE',''
  ) );
#680 = PCURVE('',#387,#681);
#681 = DEFINITIONAL_REPRESENTATION('',(#682),#686);
#682 = LINE('',#683,#684);
#683 = CARTESIAN_POINT('',(0.,1.));
#684 = VECTOR('',#685,1.);
#685 = DIRECTION('',(1.,0.));
#686 = ( GEOMETRIC_REPRESENTATION_CONTEXT(2) 
PARAMETRIC_REPRESENTATION_CONTEXT() REPRESENTATION_CONTEXT('2D SPACE',''
  ) );
#687 = ORIENTED_EDGE('',*,*,#688,.F.);
#688 = EDGE_CURVE('',#689,#658,#691,.T.);
#689 = VERTEX_POINT('',#690);
#690 = CARTESIAN_POINT('',(-3.710309939287E-07,-18.74600016067,
    1.553418779812));
#691 = SURFACE_CURVE('',#692,(#695,#701),.PCURVE_S1.);
#692 = B_SPLINE_CURVE_WITH_KNOTS('',1,(#693,#694),.UNSPECIFIED.,.F.,.F.,
  (2,2),(0.,1.),.PIECEWISE_BEZIER_KNOTS.);
#693 = CARTESIAN_POINT('',(-3.407938615752E-07,-18.7460001949,
    1.553418779812));
#694 = CARTESIAN_POINT('',(-4.012681262822E-07,-18.74600012643,
    2.043504225155));
#695 = PCURVE('',#228,#696);
#696 = DEFINITIONAL_REPRESENTATION('',(#697),#700);
#697 = B_SPLINE_CURVE_WITH_KNOTS('',1,(#698,#699),.UNSPECIFIED.,.F.,.F.,
  (2,2),(0.,1.),.PIECEWISE_BEZIER_KNOTS.);
#698 = CARTESIAN_POINT('',(1.,0.494950365466));
#699 = CARTESIAN_POINT('',(1.,0.));
#700 = ( GEOMETRIC_REPRESENTATION_CONTEXT(2) 
PARAMETRIC_REPRESENTATION_CONTEXT() REPRESENTATION_CONTEXT('2D SPACE',''
  ) );
#701 = PCURVE('',#387,#702);
#702 = DEFINITIONAL_REPRESENTATION('',(#703),#707);
#703 = LINE('',#704,#705);
#704 = CARTESIAN_POINT('',(1.,0.));
#705 = VECTOR('',#706,1.);
#706 = DIRECTION('',(0.,1.));
#707 = ( GEOMETRIC_REPRESENTATION_CONTEXT(2) 
PARAMETRIC_REPRESENTATION_CONTEXT() REPRESENTATION_CONTEXT('2D SPACE',''
  ) );
#708 = ORIENTED_EDGE('',*,*,#709,.T.);
#709 = EDGE_CURVE('',#689,#710,#712,.T.);
#710 = VERTEX_POINT('',#711);
#711 = CARTESIAN_POINT('',(-3.710307001047E-07,-18.74600016067,
    1.053333332198));
#712 = SURFACE_CURVE('',#713,(#716,#723),.PCURVE_S1.);
#713 = B_SPLINE_CURVE_WITH_KNOTS('',1,(#714,#715),.UNSPECIFIED.,.F.,.F.,
  (2,2),(0.,1.),.PIECEWISE_BEZIER_KNOTS.);
#714 = CARTESIAN_POINT('',(-4.012681262822E-07,-18.74600012643,
    2.043504225155));
#715 = CARTESIAN_POINT('',(-4.012681262822E-07,-18.74600012643,
    1.053333332198));
#716 = PCURVE('',#228,#717);
#717 = DEFINITIONAL_REPRESENTATION('',(#718),#722);
#718 = LINE('',#719,#720);
#719 = CARTESIAN_POINT('',(1.,0.));
#720 = VECTOR('',#721,1.);
#721 = DIRECTION('',(0.,1.));
#722 = ( GEOMETRIC_REPRESENTATION_CONTEXT(2) 
PARAMETRIC_REPRESENTATION_CONTEXT() REPRESENTATION_CONTEXT('2D SPACE',''
  ) );
#723 = PCURVE('',#518,#724);
#724 = DEFINITIONAL_REPRESENTATION('',(#725),#728);
#725 = B_SPLINE_CURVE_WITH_KNOTS('',1,(#726,#727),.UNSPECIFIED.,.F.,.F.,
  (2,2),(0.494950365466,1.),.PIECEWISE_BEZIER_KNOTS.);
#726 = CARTESIAN_POINT('',(1.,1.));
#727 = CARTESIAN_POINT('',(1.,0.494950365466));
#728 = ( GEOMETRIC_REPRESENTATION_CONTEXT(2) 
PARAMETRIC_REPRESENTATION_CONTEXT() REPRESENTATION_CONTEXT('2D SPACE',''
  ) );
#729 = ORIENTED_EDGE('',*,*,#730,.F.);
#730 = EDGE_CURVE('',#22,#710,#731,.T.);
#731 = SURFACE_CURVE('',#732,(#744,#751),.PCURVE_S1.);
#732 = B_SPLINE_CURVE_WITH_KNOTS('',6,(#733,#734,#735,#736,#737,#738,
    #739,#740,#741,#742,#743),.UNSPECIFIED.,.F.,.F.,(7,4,7),(0.,
    0.495895634038,1.),.UNSPECIFIED.);
#733 = CARTESIAN_POINT('',(17.555000389173,3.826807173368E-07,
    2.111666667001));
#734 = CARTESIAN_POINT('',(17.716090223561,-2.374471924338,
    2.020535225403));
#735 = CARTESIAN_POINT('',(17.490032109087,-4.775231322371,1.93040125004
    ));
#736 = CARTESIAN_POINT('',(16.871459859702,-7.123430926371,
    1.841210143965));
#737 = CARTESIAN_POINT('',(15.876935758307,-9.338548538592,
    1.752859466803));
#738 = CARTESIAN_POINT('',(13.190683218714,-13.39163955518,
    1.576142468657));
#739 = CARTESIAN_POINT('',(9.349814841047,-16.37700498463,1.401797910205
    ));
#740 = CARTESIAN_POINT('',(7.176554808029,-17.55033314161,1.314372045072
    ));
#741 = CARTESIAN_POINT('',(4.839056968634,-18.34744869239,1.227255766001
    ));
#742 = CARTESIAN_POINT('',(2.419536989688,-18.74599908211,1.140294574584
    ));
#743 = CARTESIAN_POINT('',(-4.012681262822E-07,-18.74600012643,
    1.053333332198));
#744 = PCURVE('',#228,#745);
#745 = DEFINITIONAL_REPRESENTATION('',(#746),#750);
#746 = LINE('',#747,#748);
#747 = CARTESIAN_POINT('',(0.,1.));
#748 = VECTOR('',#749,1.);
#749 = DIRECTION('',(1.,0.));
#750 = ( GEOMETRIC_REPRESENTATION_CONTEXT(2) 
PARAMETRIC_REPRESENTATION_CONTEXT() REPRESENTATION_CONTEXT('2D SPACE',''
  ) );
#751 = PCURVE('',#617,#752);
#752 = DEFINITIONAL_REPRESENTATION('',(#753),#757);
#753 = LINE('',#754,#755);
#754 = CARTESIAN_POINT('',(0.,0.));
#755 = VECTOR('',#756,1.);
#756 = DIRECTION('',(1.,0.));
#757 = ( GEOMETRIC_REPRESENTATION_CONTEXT(2) 
PARAMETRIC_REPRESENTATION_CONTEXT() REPRESENTATION_CONTEXT('2D SPACE',''
  ) );
#758 = ORIENTED_EDGE('',*,*,#215,.T.);
#759 = ADVANCED_FACE('',(#760),#617,.F.);
#760 = FACE_BOUND('',#761,.F.);
#761 = EDGE_LOOP('',(#762,#763,#784,#813));
#762 = ORIENTED_EDGE('',*,*,#730,.T.);
#763 = ORIENTED_EDGE('',*,*,#764,.T.);
#764 = EDGE_CURVE('',#710,#765,#767,.T.);
#765 = VERTEX_POINT('',#766);
#766 = CARTESIAN_POINT('',(-3.407926962851E-07,-18.7460001949,
    0.563247886855));
#767 = SURFACE_CURVE('',#768,(#771,#778),.PCURVE_S1.);
#768 = B_SPLINE_CURVE_WITH_KNOTS('',1,(#769,#770),.UNSPECIFIED.,.F.,.F.,
  (2,2),(0.,1.),.PIECEWISE_BEZIER_KNOTS.);
#769 = CARTESIAN_POINT('',(-4.012681262822E-07,-18.74600012643,
    1.053333332198));
#770 = CARTESIAN_POINT('',(-3.407926962851E-07,-18.7460001949,
    0.563247886855));
#771 = PCURVE('',#617,#772);
#772 = DEFINITIONAL_REPRESENTATION('',(#773),#777);
#773 = LINE('',#774,#775);
#774 = CARTESIAN_POINT('',(1.,0.));
#775 = VECTOR('',#776,1.);
#776 = DIRECTION('',(0.,1.));
#777 = ( GEOMETRIC_REPRESENTATION_CONTEXT(2) 
PARAMETRIC_REPRESENTATION_CONTEXT() REPRESENTATION_CONTEXT('2D SPACE',''
  ) );
#778 = PCURVE('',#518,#779);
#779 = DEFINITIONAL_REPRESENTATION('',(#780),#783);
#780 = B_SPLINE_CURVE_WITH_KNOTS('',1,(#781,#782),.UNSPECIFIED.,.F.,.F.,
  (2,2),(0.,1.),.PIECEWISE_BEZIER_KNOTS.);
#781 = CARTESIAN_POINT('',(1.,0.494950365466));
#782 = CARTESIAN_POINT('',(1.,0.));
#783 = ( GEOMETRIC_REPRESENTATION_CONTEXT(2) 
PARAMETRIC_REPRESENTATION_CONTEXT() REPRESENTATION_CONTEXT('2D SPACE',''
  ) );
#784 = ORIENTED_EDGE('',*,*,#785,.F.);
#785 = EDGE_CURVE('',#474,#765,#786,.T.);
#786 = SURFACE_CURVE('',#787,(#799,#806),.PCURVE_S1.);
#787 = B_SPLINE_CURVE_WITH_KNOTS('',6,(#788,#789,#790,#791,#792,#793,
    #794,#795,#796,#797,#798),.UNSPECIFIED.,.F.,.F.,(7,4,7),(0.,0.5,1.),
  .UNSPECIFIED.);
#788 = CARTESIAN_POINT('',(18.746000194904,3.407938526934E-07,
    0.921666666667));
#789 = CARTESIAN_POINT('',(18.745998526086,-2.453848394612,
    0.891798435016));
#790 = CARTESIAN_POINT('',(18.360555522262,-4.907681788301,
    0.861930203365));
#791 = CARTESIAN_POINT('',(17.58964348877,-7.285875560535,0.832061971714
    ));
#792 = CARTESIAN_POINT('',(16.453131931278,-9.512609742442,
    0.802193740063));
#793 = CARTESIAN_POINT('',(13.527976529897,-13.52797652989,
    0.742457276761));
#794 = CARTESIAN_POINT('',(9.512609742444,-16.45313193127,0.682720813459
    ));
#795 = CARTESIAN_POINT('',(7.285875560526,-17.58964348876,0.652852581808
    ));
#796 = CARTESIAN_POINT('',(4.907681788312,-18.36055552227,0.622984350157
    ));
#797 = CARTESIAN_POINT('',(2.453848394606,-18.74599852608,0.593116118506
    ));
#798 = CARTESIAN_POINT('',(-3.407926962851E-07,-18.7460001949,
    0.563247886855));
#799 = PCURVE('',#617,#800);
#800 = DEFINITIONAL_REPRESENTATION('',(#801),#805);
#801 = LINE('',#802,#803);
#802 = CARTESIAN_POINT('',(0.,1.));
#803 = VECTOR('',#804,1.);
#804 = DIRECTION('',(1.,0.));
#805 = ( GEOMETRIC_REPRESENTATION_CONTEXT(2) 
PARAMETRIC_REPRESENTATION_CONTEXT() REPRESENTATION_CONTEXT('2D SPACE',''
  ) );
#806 = PCURVE('',#518,#807);
#807 = DEFINITIONAL_REPRESENTATION('',(#808),#812);
#808 = LINE('',#809,#810);
#809 = CARTESIAN_POINT('',(0.,0.));
#810 = VECTOR('',#811,1.);
#811 = DIRECTION('',(1.,0.));
#812 = ( GEOMETRIC_REPRESENTATION_CONTEXT(2) 
PARAMETRIC_REPRESENTATION_CONTEXT() REPRESENTATION_CONTEXT('2D SPACE',''
  ) );
#813 = ORIENTED_EDGE('',*,*,#604,.T.);
#814 = ADVANCED_FACE('',(#815),#518,.F.);
#815 = FACE_BOUND('',#816,.F.);
#816 = EDGE_LOOP('',(#817,#818,#819,#820,#849));
#817 = ORIENTED_EDGE('',*,*,#785,.T.);
#818 = ORIENTED_EDGE('',*,*,#764,.F.);
#819 = ORIENTED_EDGE('',*,*,#709,.F.);
#820 = ORIENTED_EDGE('',*,*,#821,.F.);
#821 = EDGE_CURVE('',#315,#689,#822,.T.);
#822 = SURFACE_CURVE('',#823,(#835,#842),.PCURVE_S1.);
#823 = B_SPLINE_CURVE_WITH_KNOTS('',6,(#824,#825,#826,#827,#828,#829,
    #830,#831,#832,#833,#834),.UNSPECIFIED.,.F.,.F.,(7,4,7),(0.,0.5,1.),
  .UNSPECIFIED.);
#824 = CARTESIAN_POINT('',(18.746000194904,3.407941697731E-07,
    3.311666666667));
#825 = CARTESIAN_POINT('',(18.74599852609,-2.453848394613,3.165146009429
    ));
#826 = CARTESIAN_POINT('',(18.360555522253,-4.907681788299,
    3.018625352191));
#827 = CARTESIAN_POINT('',(17.589643488779,-7.285875560536,
    2.872104694953));
#828 = CARTESIAN_POINT('',(16.453131931273,-9.512609742442,
    2.725584037715));
#829 = CARTESIAN_POINT('',(13.527976529904,-13.52797652989,2.43254272324
    ));
#830 = CARTESIAN_POINT('',(9.512609742438,-16.45313193127,2.139501408763
    ));
#831 = CARTESIAN_POINT('',(7.28587556054,-17.58964348875,1.992980751527)
  );
#832 = CARTESIAN_POINT('',(4.907681788298,-18.36055552227,1.846460094286
    ));
#833 = CARTESIAN_POINT('',(2.453848394612,-18.74599852607,1.699939437051
    ));
#834 = CARTESIAN_POINT('',(-3.407938615752E-07,-18.7460001949,
    1.553418779812));
#835 = PCURVE('',#518,#836);
#836 = DEFINITIONAL_REPRESENTATION('',(#837),#841);
#837 = LINE('',#838,#839);
#838 = CARTESIAN_POINT('',(0.,1.));
#839 = VECTOR('',#840,1.);
#840 = DIRECTION('',(1.,0.));
#841 = ( GEOMETRIC_REPRESENTATION_CONTEXT(2) 
PARAMETRIC_REPRESENTATION_CONTEXT() REPRESENTATION_CONTEXT('2D SPACE',''
  ) );
#842 = PCURVE('',#387,#843);
#843 = DEFINITIONAL_REPRESENTATION('',(#844),#848);
#844 = LINE('',#845,#846);
#845 = CARTESIAN_POINT('',(0.,0.));
#846 = VECTOR('',#847,1.);
#847 = DIRECTION('',(1.,0.));
#848 = ( GEOMETRIC_REPRESENTATION_CONTEXT(2) 
PARAMETRIC_REPRESENTATION_CONTEXT() REPRESENTATION_CONTEXT('2D SPACE',''
  ) );
#849 = ORIENTED_EDGE('',*,*,#506,.F.);
#850 = ADVANCED_FACE('',(#851),#387,.F.);
#851 = FACE_BOUND('',#852,.F.);
#852 = EDGE_LOOP('',(#853,#854,#855,#856));
#853 = ORIENTED_EDGE('',*,*,#821,.T.);
#854 = ORIENTED_EDGE('',*,*,#688,.T.);
#855 = ORIENTED_EDGE('',*,*,#657,.F.);
#856 = ORIENTED_EDGE('',*,*,#374,.T.);
#857 = ADVANCED_FACE('',(#858),#125,.F.);
#858 = FACE_BOUND('',#859,.F.);
#859 = EDGE_LOOP('',(#860,#891,#912,#933,#962));
#860 = ORIENTED_EDGE('',*,*,#861,.T.);
#861 = EDGE_CURVE('',#24,#862,#864,.T.);
#862 = VERTEX_POINT('',#863);
#863 = CARTESIAN_POINT('',(13.255423571376,13.255424096092,
    6.874166667802));
#864 = SURFACE_CURVE('',#865,(#877,#884),.PCURVE_S1.);
#865 = B_SPLINE_CURVE_WITH_KNOTS('',6,(#866,#867,#868,#869,#870,#871,
    #872,#873,#874,#875,#876),.UNSPECIFIED.,.F.,.F.,(7,4,7),(0.,
    0.495895634038,1.),.UNSPECIFIED.);
#866 = CARTESIAN_POINT('',(12.41325954832,-12.41326008951,5.815833332999
    ));
#867 = CARTESIAN_POINT('',(14.20617273263,-10.84816233375,5.906964774597
    ));
#868 = CARTESIAN_POINT('',(15.743918757289,-8.990721857723,5.99709874996
    ));
#869 = CARTESIAN_POINT('',(16.966949988663,-6.89289736196,6.086289856035
    ));
#870 = CARTESIAN_POINT('',(17.83003993724,-4.623337941083,6.174640533197
    ));
#871 = CARTESIAN_POINT('',(18.796540693117,0.142097588244,6.351357531343
    ));
#872 = CARTESIAN_POINT('',(18.191608757101,4.968973803215,6.525702089795
    ));
#873 = CARTESIAN_POINT('',(17.484550146835,7.335369006207,6.613127954928
    ));
#874 = CARTESIAN_POINT('',(16.395335384933,9.551875390794,6.700244233999
    ));
#875 = CARTESIAN_POINT('',(14.966294083817,11.544552058337,
    6.787205425416));
#876 = CARTESIAN_POINT('',(13.255423525786,13.255424093265,
    6.874166667802));
#877 = PCURVE('',#125,#878);
#878 = DEFINITIONAL_REPRESENTATION('',(#879),#883);
#879 = LINE('',#880,#881);
#880 = CARTESIAN_POINT('',(0.,0.));
#881 = VECTOR('',#882,1.);
#882 = DIRECTION('',(1.,0.));
#883 = ( GEOMETRIC_REPRESENTATION_CONTEXT(2) 
PARAMETRIC_REPRESENTATION_CONTEXT() REPRESENTATION_CONTEXT('2D SPACE',''
  ) );
#884 = PCURVE('',#565,#885);
#885 = DEFINITIONAL_REPRESENTATION('',(#886),#890);
#886 = LINE('',#887,#888);
#887 = CARTESIAN_POINT('',(0.,1.));
#888 = VECTOR('',#889,1.);
#889 = DIRECTION('',(1.,0.));
#890 = ( GEOMETRIC_REPRESENTATION_CONTEXT(2) 
PARAMETRIC_REPRESENTATION_CONTEXT() REPRESENTATION_CONTEXT('2D SPACE',''
  ) );
#891 = ORIENTED_EDGE('',*,*,#892,.T.);
#892 = EDGE_CURVE('',#862,#893,#895,.T.);
#893 = VERTEX_POINT('',#894);
#894 = CARTESIAN_POINT('',(13.255423571376,13.255424096092,
    7.374252113145));
#895 = SURFACE_CURVE('',#896,(#899,#906),.PCURVE_S1.);
#896 = B_SPLINE_CURVE_WITH_KNOTS('',1,(#897,#898),.UNSPECIFIED.,.F.,.F.,
  (2,2),(0.,1.),.PIECEWISE_BEZIER_KNOTS.);
#897 = CARTESIAN_POINT('',(13.255423525786,13.255424093265,
    6.874166667802));
#898 = CARTESIAN_POINT('',(13.255423525786,13.255424093265,
    7.864337560759));
#899 = PCURVE('',#125,#900);
#900 = DEFINITIONAL_REPRESENTATION('',(#901),#905);
#901 = LINE('',#902,#903);
#902 = CARTESIAN_POINT('',(1.,0.));
#903 = VECTOR('',#904,1.);
#904 = DIRECTION('',(0.,1.));
#905 = ( GEOMETRIC_REPRESENTATION_CONTEXT(2) 
PARAMETRIC_REPRESENTATION_CONTEXT() REPRESENTATION_CONTEXT('2D SPACE',''
  ) );
#906 = PCURVE('',#443,#907);
#907 = DEFINITIONAL_REPRESENTATION('',(#908),#911);
#908 = B_SPLINE_CURVE_WITH_KNOTS('',1,(#909,#910),.UNSPECIFIED.,.F.,.F.,
  (2,2),(0.,0.50504963224),.PIECEWISE_BEZIER_KNOTS.);
#909 = CARTESIAN_POINT('',(1.,0.50504963224));
#910 = CARTESIAN_POINT('',(1.,9.692247004978E-14));
#911 = ( GEOMETRIC_REPRESENTATION_CONTEXT(2) 
PARAMETRIC_REPRESENTATION_CONTEXT() REPRESENTATION_CONTEXT('2D SPACE',''
  ) );
#912 = ORIENTED_EDGE('',*,*,#913,.F.);
#913 = EDGE_CURVE('',#914,#893,#916,.T.);
#914 = VERTEX_POINT('',#915);
#915 = CARTESIAN_POINT('',(13.255423525786,13.255424093265,
    7.864337560759));
#916 = SURFACE_CURVE('',#917,(#920,#926),.PCURVE_S1.);
#917 = B_SPLINE_CURVE_WITH_KNOTS('',1,(#918,#919),.UNSPECIFIED.,.F.,.F.,
  (2,2),(0.,1.),.PIECEWISE_BEZIER_KNOTS.);
#918 = CARTESIAN_POINT('',(13.255423525786,13.255424093265,
    7.864337560759));
#919 = CARTESIAN_POINT('',(13.255423616966,13.255424098919,
    7.374252113145));
#920 = PCURVE('',#125,#921);
#921 = DEFINITIONAL_REPRESENTATION('',(#922),#925);
#922 = B_SPLINE_CURVE_WITH_KNOTS('',1,(#923,#924),.UNSPECIFIED.,.F.,.F.,
  (2,2),(0.,1.),.PIECEWISE_BEZIER_KNOTS.);
#923 = CARTESIAN_POINT('',(1.,1.));
#924 = CARTESIAN_POINT('',(1.,0.50504963224));
#925 = ( GEOMETRIC_REPRESENTATION_CONTEXT(2) 
PARAMETRIC_REPRESENTATION_CONTEXT() REPRESENTATION_CONTEXT('2D SPACE',''
  ) );
#926 = PCURVE('',#276,#927);
#927 = DEFINITIONAL_REPRESENTATION('',(#928),#932);
#928 = LINE('',#929,#930);
#929 = CARTESIAN_POINT('',(1.,0.));
#930 = VECTOR('',#931,1.);
#931 = DIRECTION('',(0.,1.));
#932 = ( GEOMETRIC_REPRESENTATION_CONTEXT(2) 
PARAMETRIC_REPRESENTATION_CONTEXT() REPRESENTATION_CONTEXT('2D SPACE',''
  ) );
#933 = ORIENTED_EDGE('',*,*,#934,.F.);
#934 = EDGE_CURVE('',#111,#914,#935,.T.);
#935 = SURFACE_CURVE('',#936,(#948,#955),.PCURVE_S1.);
#936 = B_SPLINE_CURVE_WITH_KNOTS('',6,(#937,#938,#939,#940,#941,#942,
    #943,#944,#945,#946,#947),.UNSPECIFIED.,.F.,.F.,(7,4,7),(0.,
    0.495895634038,1.),.UNSPECIFIED.);
#937 = CARTESIAN_POINT('',(12.41325954832,-12.41326008951,6.806004225956
    ));
#938 = CARTESIAN_POINT('',(14.20617273263,-10.84816233375,6.897135667554
    ));
#939 = CARTESIAN_POINT('',(15.743918757289,-8.990721857723,
    6.987269642917));
#940 = CARTESIAN_POINT('',(16.966949988663,-6.89289736196,7.076460748992
    ));
#941 = CARTESIAN_POINT('',(17.83003993724,-4.623337941083,7.164811426153
    ));
#942 = CARTESIAN_POINT('',(18.796540693117,0.142097588244,7.3415284243)
  );
#943 = CARTESIAN_POINT('',(18.191608757101,4.968973803215,7.515872982752
    ));
#944 = CARTESIAN_POINT('',(17.484550146835,7.335369006207,7.603298847884
    ));
#945 = CARTESIAN_POINT('',(16.395335384933,9.551875390794,7.690415126956
    ));
#946 = CARTESIAN_POINT('',(14.966294083817,11.544552058337,
    7.777376318373));
#947 = CARTESIAN_POINT('',(13.255423525786,13.255424093265,
    7.864337560759));
#948 = PCURVE('',#125,#949);
#949 = DEFINITIONAL_REPRESENTATION('',(#950),#954);
#950 = LINE('',#951,#952);
#951 = CARTESIAN_POINT('',(0.,1.));
#952 = VECTOR('',#953,1.);
#953 = DIRECTION('',(1.,0.));
#954 = ( GEOMETRIC_REPRESENTATION_CONTEXT(2) 
PARAMETRIC_REPRESENTATION_CONTEXT() REPRESENTATION_CONTEXT('2D SPACE',''
  ) );
#955 = PCURVE('',#276,#956);
#956 = DEFINITIONAL_REPRESENTATION('',(#957),#961);
#957 = LINE('',#958,#959);
#958 = CARTESIAN_POINT('',(0.,0.));
#959 = VECTOR('',#960,1.);
#960 = DIRECTION('',(1.,0.));
#961 = ( GEOMETRIC_REPRESENTATION_CONTEXT(2) 
PARAMETRIC_REPRESENTATION_CONTEXT() REPRESENTATION_CONTEXT('2D SPACE',''
  ) );
#962 = ORIENTED_EDGE('',*,*,#110,.F.);
#963 = ADVANCED_FACE('',(#964),#276,.F.);
#964 = FACE_BOUND('',#965,.F.);
#965 = EDGE_LOOP('',(#966,#967,#968,#997));
#966 = ORIENTED_EDGE('',*,*,#934,.T.);
#967 = ORIENTED_EDGE('',*,*,#913,.T.);
#968 = ORIENTED_EDGE('',*,*,#969,.F.);
#969 = EDGE_CURVE('',#262,#893,#970,.T.);
#970 = SURFACE_CURVE('',#971,(#983,#990),.PCURVE_S1.);
#971 = B_SPLINE_CURVE_WITH_KNOTS('',6,(#972,#973,#974,#975,#976,#977,
    #978,#979,#980,#981,#982),.UNSPECIFIED.,.F.,.F.,(7,4,7),(0.,0.5,1.),
  .UNSPECIFIED.);
#972 = CARTESIAN_POINT('',(13.255423616964,-13.25542409891,
    7.015833333333));
#973 = CARTESIAN_POINT('',(14.990555517742,-11.52028983807,
    7.045701564984));
#974 = CARTESIAN_POINT('',(16.453128388557,-9.51261824373,7.075569796635
    ));
#975 = CARTESIAN_POINT('',(17.589648205298,-7.285864173827,
    7.105438028286));
#976 = CARTESIAN_POINT('',(18.360552016026,-4.907690304702,
    7.135306259937));
#977 = CARTESIAN_POINT('',(19.131447880047,1.314504061156E-12,
    7.195042723239));
#978 = CARTESIAN_POINT('',(18.360552016027,4.9076903047,7.254779186541)
  );
#979 = CARTESIAN_POINT('',(17.589648205289,7.28586417383,7.284647418192)
  );
#980 = CARTESIAN_POINT('',(16.45312838857,9.512618243729,7.314515649843)
  );
#981 = CARTESIAN_POINT('',(14.990555517734,11.520289838074,
    7.344383881494));
#982 = CARTESIAN_POINT('',(13.255423616966,13.255424098919,
    7.374252113145));
#983 = PCURVE('',#276,#984);
#984 = DEFINITIONAL_REPRESENTATION('',(#985),#989);
#985 = LINE('',#986,#987);
#986 = CARTESIAN_POINT('',(0.,1.));
#987 = VECTOR('',#988,1.);
#988 = DIRECTION('',(1.,0.));
#989 = ( GEOMETRIC_REPRESENTATION_CONTEXT(2) 
PARAMETRIC_REPRESENTATION_CONTEXT() REPRESENTATION_CONTEXT('2D SPACE',''
  ) );
#990 = PCURVE('',#443,#991);
#991 = DEFINITIONAL_REPRESENTATION('',(#992),#996);
#992 = LINE('',#993,#994);
#993 = CARTESIAN_POINT('',(0.,0.));
#994 = VECTOR('',#995,1.);
#995 = DIRECTION('',(1.,0.));
#996 = ( GEOMETRIC_REPRESENTATION_CONTEXT(2) 
PARAMETRIC_REPRESENTATION_CONTEXT() REPRESENTATION_CONTEXT('2D SPACE',''
  ) );
#997 = ORIENTED_EDGE('',*,*,#261,.F.);
#998 = ADVANCED_FACE('',(#999),#443,.F.);
#999 = FACE_BOUND('',#1000,.F.);
#1000 = EDGE_LOOP('',(#1001,#1002,#1003,#1024,#1053));
#1001 = ORIENTED_EDGE('',*,*,#969,.T.);
#1002 = ORIENTED_EDGE('',*,*,#892,.F.);
#1003 = ORIENTED_EDGE('',*,*,#1004,.F.);
#1004 = EDGE_CURVE('',#1005,#862,#1007,.T.);
#1005 = VERTEX_POINT('',#1006);
#1006 = CARTESIAN_POINT('',(13.255423616966,13.255424098921,
    6.384081220188));
#1007 = SURFACE_CURVE('',#1008,(#1011,#1017),.PCURVE_S1.);
#1008 = B_SPLINE_CURVE_WITH_KNOTS('',1,(#1009,#1010),.UNSPECIFIED.,.F.,
  .F.,(2,2),(0.,1.),.PIECEWISE_BEZIER_KNOTS.);
#1009 = CARTESIAN_POINT('',(13.255423616966,13.255424098921,
    6.384081220188));
#1010 = CARTESIAN_POINT('',(13.255423525786,13.255424093265,
    6.874166667802));
#1011 = PCURVE('',#443,#1012);
#1012 = DEFINITIONAL_REPRESENTATION('',(#1013),#1016);
#1013 = B_SPLINE_CURVE_WITH_KNOTS('',1,(#1014,#1015),.UNSPECIFIED.,.F.,
  .F.,(2,2),(0.,1.),.PIECEWISE_BEZIER_KNOTS.);
#1014 = CARTESIAN_POINT('',(1.,1.));
#1015 = CARTESIAN_POINT('',(1.,0.50504963224));
#1016 = ( GEOMETRIC_REPRESENTATION_CONTEXT(2) 
PARAMETRIC_REPRESENTATION_CONTEXT() REPRESENTATION_CONTEXT('2D SPACE',''
  ) );
#1017 = PCURVE('',#565,#1018);
#1018 = DEFINITIONAL_REPRESENTATION('',(#1019),#1023);
#1019 = LINE('',#1020,#1021);
#1020 = CARTESIAN_POINT('',(1.,0.));
#1021 = VECTOR('',#1022,1.);
#1022 = DIRECTION('',(0.,1.));
#1023 = ( GEOMETRIC_REPRESENTATION_CONTEXT(2) 
PARAMETRIC_REPRESENTATION_CONTEXT() REPRESENTATION_CONTEXT('2D SPACE',''
  ) );
#1024 = ORIENTED_EDGE('',*,*,#1025,.F.);
#1025 = EDGE_CURVE('',#429,#1005,#1026,.T.);
#1026 = SURFACE_CURVE('',#1027,(#1039,#1046),.PCURVE_S1.);
#1027 = B_SPLINE_CURVE_WITH_KNOTS('',6,(#1028,#1029,#1030,#1031,#1032,
    #1033,#1034,#1035,#1036,#1037,#1038),.UNSPECIFIED.,.F.,.F.,(7,4,7),(
    0.,0.5,1.),.UNSPECIFIED.);
#1028 = CARTESIAN_POINT('',(13.255423616963,-13.25542409891,
    4.625833333333));
#1029 = CARTESIAN_POINT('',(14.990555517746,-11.52028983807,
    4.772353990571));
#1030 = CARTESIAN_POINT('',(16.453128388549,-9.512618243725,
    4.918874647809));
#1031 = CARTESIAN_POINT('',(17.589648205306,-7.285864173833,
    5.065395305047));
#1032 = CARTESIAN_POINT('',(18.360552016022,-4.907690304698,
    5.211915962285));
#1033 = CARTESIAN_POINT('',(19.131447880051,-4.032330025439E-12,
    5.50495727676));
#1034 = CARTESIAN_POINT('',(18.360552016024,4.907690304705,
    5.797998591237));
#1035 = CARTESIAN_POINT('',(17.589648205294,7.285864173817,
    5.944519248473));
#1036 = CARTESIAN_POINT('',(16.453128388567,9.512618243744,
    6.091039905714));
#1037 = CARTESIAN_POINT('',(14.990555517734,11.520289838066,
    6.237560562949));
#1038 = CARTESIAN_POINT('',(13.255423616966,13.255424098921,
    6.384081220188));
#1039 = PCURVE('',#443,#1040);
#1040 = DEFINITIONAL_REPRESENTATION('',(#1041),#1045);
#1041 = LINE('',#1042,#1043);
#1042 = CARTESIAN_POINT('',(0.,1.));
#1043 = VECTOR('',#1044,1.);
#1044 = DIRECTION('',(1.,0.));
#1045 = ( GEOMETRIC_REPRESENTATION_CONTEXT(2) 
PARAMETRIC_REPRESENTATION_CONTEXT() REPRESENTATION_CONTEXT('2D SPACE',''
  ) );
#1046 = PCURVE('',#565,#1047);
#1047 = DEFINITIONAL_REPRESENTATION('',(#1048),#1052);
#1048 = LINE('',#1049,#1050);
#1049 = CARTESIAN_POINT('',(0.,0.));
#1050 = VECTOR('',#1051,1.);
#1051 = DIRECTION('',(1.,0.));
#1052 = ( GEOMETRIC_REPRESENTATION_CONTEXT(2) 
PARAMETRIC_REPRESENTATION_CONTEXT() REPRESENTATION_CONTEXT('2D SPACE',''
  ) );
#1053 = ORIENTED_EDGE('',*,*,#428,.F.);
#1054 = ADVANCED_FACE('',(#1055),#565,.F.);
#1055 = FACE_BOUND('',#1056,.F.);
#1056 = EDGE_LOOP('',(#1057,#1058,#1059,#1060));
#1057 = ORIENTED_EDGE('',*,*,#1025,.T.);
#1058 = ORIENTED_EDGE('',*,*,#1004,.T.);
#1059 = ORIENTED_EDGE('',*,*,#861,.F.);
#1060 = ORIENTED_EDGE('',*,*,#552,.F.);
#1061 = ( GEOMETRIC_REPRESENTATION_CONTEXT(3) 
GLOBAL_UNCERTAINTY_ASSIGNED_CONTEXT((#1065)) 
GLOBAL_UNIT_ASSIGNED_CONTEXT((#1062,#1063,#1064)) REPRESENTATION_CONTEXT
('Context #1','3D Context with UNIT and UNCERTAINTY') );
#1062 = ( LENGTH_UNIT() NAMED_UNIT(*) SI_UNIT(.MILLI.,.METRE.) );
#1063 = ( NAMED_UNIT(*) PLANE_ANGLE_UNIT() SI_UNIT($,.RADIAN.) );
#1064 = ( NAMED_UNIT(*) SI_UNIT($,.STERADIAN.) SOLID_ANGLE_UNIT() );
#1065 = UNCERTAINTY_MEASURE_WITH_UNIT(LENGTH_MEASURE(2.E-07),#1062,
  'distance_accuracy_value','confusion accuracy');
#1066 = PRODUCT_RELATED_PRODUCT_CATEGORY('part',$,(#7));
ENDSEC;
END-ISO-10303-21;
