ISO-10303-21;
HEADER;
FILE_DESCRIPTION(('Open CASCADE Model'),'2;1');
FILE_NAME('Open CASCADE Shape Model','2026-09-14T09:30:52',('Author'),(
    'Open CASCADE'),'Open CASCADE STEP processor 7.9','Open CASCADE 7.9'
  ,'Unknown');
FILE_SCHEMA(('AUTOMOTIVE_DESIGN { 1 0 10303 214 1 1 1 1 }'));
ENDSEC;
DATA;
#1 = APPLICATION_PROTOCOL_DEFINITION('international standard',
  'automotive_design',2000,#2);
#2 = APPLICATION_CONTEXT(
  'core data for automotive mechanical design processes');
#3 = SHAPE_DEFINITION_REPRESENTATION(#4,#10);
#4 = PRODUCT_DEFINITION_SHAPE('','',#5);
#5 = PRODUCT_DEFINITION('design','',#6,#9);
#6 = PRODUCT_DEFINITION_FORMATION('','',#7);
#7 = PRODUCT('Open CASCADE STEP translator 7.9 15',
  'Open CASCADE STEP translator 7.9 15','',(#8));
#8 = PRODUCT_CONTEXT('',#2,'mechanical');
#9 = PRODUCT_DEFINITION_CONTEXT('part definition',#2,'design');
#10 = ADVANCED_BREP_SHAPE_REPRESENTATION('',(#11,#15),#973);
#11 = AXIS2_PLACEMENT_3D('',#12,#13,#14);
#12 = CARTESIAN_POINT('',(0.,0.,0.));
#13 = DIRECTION('',(0.,0.,1.));
#14 = DIRECTION('',(1.,0.,-0.));
#15 = MANIFOLD_SOLID_BREP('',#16);
#16 = CLOSED_SHELL('',(#17,#256,#423,#547,#653,#738,#772,#807,#813,#898,
    #932,#967));
#17 = ADVANCED_FACE('',(#18),#42,.T.);
#18 = FACE_BOUND('',#19,.T.);
#19 = EDGE_LOOP('',(#20,#109,#154,#214));
#20 = ORIENTED_EDGE('',*,*,#21,.T.);
#21 = EDGE_CURVE('',#22,#24,#26,.T.);
#22 = VERTEX_POINT('',#23);
#23 = CARTESIAN_POINT('',(18.440000143508,1.700780476455E-07,
    1.608713484975));
#24 = VERTEX_POINT('',#25);
#25 = CARTESIAN_POINT('',(13.039049026292,-13.03904926681,5.312880155696
    ));
#26 = SURFACE_CURVE('',#27,(#41,#75),.PCURVE_S1.);
#27 = B_SPLINE_CURVE_WITH_KNOTS('',12,(#28,#29,#30,#31,#32,#33,#34,#35,
    #36,#37,#38,#39,#40),.UNSPECIFIED.,.F.,.F.,(13,13),(0.,
    6.629216708841),.PIECEWISE_BEZIER_KNOTS.);
#28 = CARTESIAN_POINT('',(18.44,7.993605777301E-15,1.608713487002));
#29 = CARTESIAN_POINT('',(18.439999999998,8.448266244282,1.917394042558)
  );
#30 = CARTESIAN_POINT('',(14.217547817091,16.896500361581,2.226074598112
    ));
#31 = CARTESIAN_POINT('',(5.7728418472,23.023624866762,2.534755153672));
#32 = CARTESIAN_POINT('',(-5.477122132055,24.50659081655,2.843435709219)
  );
#33 = CARTESIAN_POINT('',(-16.69231864019,20.003961525656,3.152116264788
    ));
#34 = CARTESIAN_POINT('',(-24.39486953944,10.104685815491,3.460796820327
    ));
#35 = CARTESIAN_POINT('',(-25.94818854954,-2.341685141072,3.769477375898
    ));
#36 = CARTESIAN_POINT('',(-21.20168675114,-13.45586634925,4.078157931442
    ));
#37 = CARTESIAN_POINT('',(-12.19814565388,-20.36217688761,4.386838487005
    ));
#38 = CARTESIAN_POINT('',(-1.894305510696,-22.00095445732,4.695519042557
    ));
#39 = CARTESIAN_POINT('',(7.06522269448,-19.01287539567,5.004199598114)
  );
#40 = CARTESIAN_POINT('',(13.03904904508,-13.03904904508,5.312880153669)
  );
#41 = PCURVE('',#42,#69);
#42 = B_SPLINE_SURFACE_WITH_KNOTS('',12,1,(
    (#43,#44)
    ,(#45,#46)
    ,(#47,#48)
    ,(#49,#50)
    ,(#51,#52)
    ,(#53,#54)
    ,(#55,#56)
    ,(#57,#58)
    ,(#59,#60)
    ,(#61,#62)
    ,(#63,#64)
    ,(#65,#66)
    ,(#67,#68
    )),.UNSPECIFIED.,.F.,.F.,.F.,(13,13),(2,2),(0.,6.629216708841),(0.,
    1.),.PIECEWISE_BEZIER_KNOTS.);
#43 = CARTESIAN_POINT('',(18.44,7.993605777301E-15,1.608713487002));
#44 = CARTESIAN_POINT('',(18.44,7.993605777301E-15,2.624619846331));
#45 = CARTESIAN_POINT('',(18.439999999998,8.448266244282,1.917394042558)
  );
#46 = CARTESIAN_POINT('',(18.439999999998,8.448266244282,2.933300401887)
  );
#47 = CARTESIAN_POINT('',(14.217547817091,16.896500361581,2.226074598112
    ));
#48 = CARTESIAN_POINT('',(14.217547817091,16.896500361581,3.241980957441
    ));
#49 = CARTESIAN_POINT('',(5.7728418472,23.023624866762,2.534755153672));
#50 = CARTESIAN_POINT('',(5.7728418472,23.023624866762,3.550661513001));
#51 = CARTESIAN_POINT('',(-5.477122132055,24.50659081655,2.843435709219)
  );
#52 = CARTESIAN_POINT('',(-5.477122132055,24.50659081655,3.859342068547)
  );
#53 = CARTESIAN_POINT('',(-16.69231864019,20.003961525656,3.152116264788
    ));
#54 = CARTESIAN_POINT('',(-16.69231864019,20.003961525656,4.168022624117
    ));
#55 = CARTESIAN_POINT('',(-24.39486953944,10.104685815491,3.460796820327
    ));
#56 = CARTESIAN_POINT('',(-24.39486953944,10.104685815491,4.476703179656
    ));
#57 = CARTESIAN_POINT('',(-25.94818854954,-2.341685141072,3.769477375898
    ));
#58 = CARTESIAN_POINT('',(-25.94818854954,-2.341685141072,4.785383735227
    ));
#59 = CARTESIAN_POINT('',(-21.20168675114,-13.45586634925,4.078157931442
    ));
#60 = CARTESIAN_POINT('',(-21.20168675114,-13.45586634925,5.094064290771
    ));
#61 = CARTESIAN_POINT('',(-12.19814565388,-20.36217688761,4.386838487005
    ));
#62 = CARTESIAN_POINT('',(-12.19814565388,-20.36217688761,5.402744846333
    ));
#63 = CARTESIAN_POINT('',(-1.894305510696,-22.00095445732,4.695519042557
    ));
#64 = CARTESIAN_POINT('',(-1.894305510696,-22.00095445732,5.711425401886
    ));
#65 = CARTESIAN_POINT('',(7.06522269448,-19.01287539567,5.004199598114)
  );
#66 = CARTESIAN_POINT('',(7.06522269448,-19.01287539567,6.020105957442)
  );
#67 = CARTESIAN_POINT('',(13.03904904508,-13.03904904508,5.312880153669)
  );
#68 = CARTESIAN_POINT('',(13.03904904508,-13.03904904508,6.328786512998)
  );
#69 = DEFINITIONAL_REPRESENTATION('',(#70),#74);
#70 = LINE('',#71,#72);
#71 = CARTESIAN_POINT('',(0.,0.));
#72 = VECTOR('',#73,1.);
#73 = DIRECTION('',(1.,0.));
#74 = ( GEOMETRIC_REPRESENTATION_CONTEXT(2) 
PARAMETRIC_REPRESENTATION_CONTEXT() REPRESENTATION_CONTEXT('2D SPACE',''
  ) );
#75 = PCURVE('',#76,#103);
#76 = B_SPLINE_SURFACE_WITH_KNOTS('',12,1,(
    (#77,#78)
    ,(#79,#80)
    ,(#81,#82)
    ,(#83,#84)
    ,(#85,#86)
    ,(#87,#88)
    ,(#89,#90)
    ,(#91,#92)
    ,(#93,#94)
    ,(#95,#96)
    ,(#97,#98)
    ,(#99,#100)
    ,(#101,#102
    )),.UNSPECIFIED.,.F.,.F.,.F.,(13,13),(2,2),(0.,6.629216708841),(0.,
    1.),.PIECEWISE_BEZIER_KNOTS.);
#77 = CARTESIAN_POINT('',(17.249,1.15463194561E-14,0.921666666667));
#78 = CARTESIAN_POINT('',(18.44,7.993605777301E-15,1.608713487002));
#79 = CARTESIAN_POINT('',(17.248999999999,7.902610870262,1.230347222223)
  );
#80 = CARTESIAN_POINT('',(18.439999999998,8.448266244282,1.917394042558)
  );
#81 = CARTESIAN_POINT('',(13.299266935844,15.805191688554,1.539027777776
    ));
#82 = CARTESIAN_POINT('',(14.217547817091,16.896500361581,2.226074598112
    ));
#83 = CARTESIAN_POINT('',(5.399986389502,21.536578379975,1.847708333337)
  );
#84 = CARTESIAN_POINT('',(5.7728418472,23.023624866762,2.534755153672));
#85 = CARTESIAN_POINT('',(-5.123366575703,22.92376274375,2.156388888883)
  );
#86 = CARTESIAN_POINT('',(-5.477122132055,24.50659081655,2.843435709219)
  );
#87 = CARTESIAN_POINT('',(-15.61419762605,18.711948609322,2.465069444453
    ));
#88 = CARTESIAN_POINT('',(-16.69231864019,20.003961525656,3.152116264788
    ));
#89 = CARTESIAN_POINT('',(-22.81925730402,9.452045858546,2.773749999991)
  );
#90 = CARTESIAN_POINT('',(-24.39486953944,10.104685815491,3.460796820327
    ));
#91 = CARTESIAN_POINT('',(-24.27225077498,-2.190440726601,3.082430555563
    ));
#92 = CARTESIAN_POINT('',(-25.94818854954,-2.341685141072,3.769477375898
    ));
#93 = CARTESIAN_POINT('',(-19.83231533464,-12.58678083829,3.391111111106
    ));
#94 = CARTESIAN_POINT('',(-21.20168675114,-13.45586634925,4.078157931442
    ));
#95 = CARTESIAN_POINT('',(-11.41029362168,-19.04702761033,3.699791666669
    ));
#96 = CARTESIAN_POINT('',(-12.19814565388,-20.36217688761,4.386838487005
    ));
#97 = CARTESIAN_POINT('',(-1.771956385794,-20.57996005608,4.008472222221
    ));
#98 = CARTESIAN_POINT('',(-1.894305510696,-22.00095445732,4.695519042557
    ));
#99 = CARTESIAN_POINT('',(6.608895133248,-17.78487460412,4.317152777778)
  );
#100 = CARTESIAN_POINT('',(7.06522269448,-19.01287539567,5.004199598114)
  );
#101 = CARTESIAN_POINT('',(12.196884868687,-12.19688486868,
    4.625833333333));
#102 = CARTESIAN_POINT('',(13.03904904508,-13.03904904508,5.312880153669
    ));
#103 = DEFINITIONAL_REPRESENTATION('',(#104),#108);
#104 = LINE('',#105,#106);
#105 = CARTESIAN_POINT('',(0.,1.));
#106 = VECTOR('',#107,1.);
#107 = DIRECTION('',(1.,0.));
#108 = ( GEOMETRIC_REPRESENTATION_CONTEXT(2) 
PARAMETRIC_REPRESENTATION_CONTEXT() REPRESENTATION_CONTEXT('2D SPACE',''
  ) );
#109 = ORIENTED_EDGE('',*,*,#110,.T.);
#110 = EDGE_CURVE('',#24,#111,#113,.T.);
#111 = VERTEX_POINT('',#112);
#112 = CARTESIAN_POINT('',(13.039049026292,-13.03904926681,
    6.328786515025));
#113 = SURFACE_CURVE('',#114,(#117,#124),.PCURVE_S1.);
#114 = B_SPLINE_CURVE_WITH_KNOTS('',1,(#115,#116),.UNSPECIFIED.,.F.,.F.,
  (2,2),(0.,1.),.PIECEWISE_BEZIER_KNOTS.);
#115 = CARTESIAN_POINT('',(13.039049007504,-13.03904948855,
    5.312880157723));
#116 = CARTESIAN_POINT('',(13.039049007504,-13.03904948855,
    6.328786517052));
#117 = PCURVE('',#42,#118);
#118 = DEFINITIONAL_REPRESENTATION('',(#119),#123);
#119 = LINE('',#120,#121);
#120 = CARTESIAN_POINT('',(6.629216708841,0.));
#121 = VECTOR('',#122,1.);
#122 = DIRECTION('',(0.,1.));
#123 = ( GEOMETRIC_REPRESENTATION_CONTEXT(2) 
PARAMETRIC_REPRESENTATION_CONTEXT() REPRESENTATION_CONTEXT('2D SPACE',''
  ) );
#124 = PCURVE('',#125,#148);
#125 = B_SPLINE_SURFACE_WITH_KNOTS('',6,1,(
    (#126,#127)
    ,(#128,#129)
    ,(#130,#131)
    ,(#132,#133)
    ,(#134,#135)
    ,(#136,#137)
    ,(#138,#139)
    ,(#140,#141)
    ,(#142,#143)
    ,(#144,#145)
    ,(#146,#147
    )),.UNSPECIFIED.,.F.,.F.,.F.,(7,4,7),(2,2),(0.,0.504603753799,1.),(
    0.,1.),.UNSPECIFIED.);
#126 = CARTESIAN_POINT('',(13.039049007504,-13.03904948855,
    5.312880157723));
#127 = CARTESIAN_POINT('',(13.039049007504,-13.03904948855,
    6.328786517052));
#128 = CARTESIAN_POINT('',(14.582669643763,-11.28225914798,
    5.398149699175));
#129 = CARTESIAN_POINT('',(14.582669643763,-11.28225914798,
    6.414056058504));
#130 = CARTESIAN_POINT('',(15.858355168932,-9.290107678525,5.48425125428
    ));
#131 = CARTESIAN_POINT('',(15.858355168932,-9.290107678525,
    6.500157613609));
#132 = CARTESIAN_POINT('',(16.821217745478,-7.113567780106,5.57122467556
    ));
#133 = CARTESIAN_POINT('',(16.821217745478,-7.113567780106,
    6.587131034889));
#134 = CARTESIAN_POINT('',(17.439421001168,-4.815427709243,
    5.659076853873));
#135 = CARTESIAN_POINT('',(17.439421001168,-4.815427709243,
    6.674983213201));
#136 = CARTESIAN_POINT('',(17.954019878942,-0.156225334729,
    5.834818514246));
#137 = CARTESIAN_POINT('',(17.954019878942,-0.156225334729,
    6.850724873574));
#138 = CARTESIAN_POINT('',(17.073442292173,4.445805658781,6.013370852954
    ));
#139 = CARTESIAN_POINT('',(17.073442292173,4.445805658781,7.029277212283
    ));
#140 = CARTESIAN_POINT('',(16.297897020837,6.647734820825,6.102409268008
    ));
#141 = CARTESIAN_POINT('',(16.297897020837,6.647734820825,7.118315627337
    ));
#142 = CARTESIAN_POINT('',(15.202137556052,8.708911773316,6.191870466867
    ));
#143 = CARTESIAN_POINT('',(15.202137556052,8.708911773316,7.207776826195
    ));
#144 = CARTESIAN_POINT('',(13.820195032054,10.573575712802,
    6.281541906701));
#145 = CARTESIAN_POINT('',(13.820195032054,10.573575712802,7.29744826603
    ));
#146 = CARTESIAN_POINT('',(12.196884650117,12.19688497969,6.371213489461
    ));
#147 = CARTESIAN_POINT('',(12.196884650117,12.19688497969,7.387119848789
    ));
#148 = DEFINITIONAL_REPRESENTATION('',(#149),#153);
#149 = LINE('',#150,#151);
#150 = CARTESIAN_POINT('',(0.,0.));
#151 = VECTOR('',#152,1.);
#152 = DIRECTION('',(0.,1.));
#153 = ( GEOMETRIC_REPRESENTATION_CONTEXT(2) 
PARAMETRIC_REPRESENTATION_CONTEXT() REPRESENTATION_CONTEXT('2D SPACE',''
  ) );
#154 = ORIENTED_EDGE('',*,*,#155,.F.);
#155 = EDGE_CURVE('',#156,#111,#158,.T.);
#156 = VERTEX_POINT('',#157);
#157 = CARTESIAN_POINT('',(18.440000143508,1.700780476455E-07,
    2.624619844304));
#158 = SURFACE_CURVE('',#159,(#173,#180),.PCURVE_S1.);
#159 = B_SPLINE_CURVE_WITH_KNOTS('',12,(#160,#161,#162,#163,#164,#165,
    #166,#167,#168,#169,#170,#171,#172),.UNSPECIFIED.,.F.,.F.,(13,13),(
    0.,6.629216708841),.PIECEWISE_BEZIER_KNOTS.);
#160 = CARTESIAN_POINT('',(18.44,7.993605777301E-15,2.624619846331));
#161 = CARTESIAN_POINT('',(18.439999999998,8.448266244282,2.933300401887
    ));
#162 = CARTESIAN_POINT('',(14.217547817091,16.896500361581,
    3.241980957441));
#163 = CARTESIAN_POINT('',(5.7728418472,23.023624866762,3.550661513001)
  );
#164 = CARTESIAN_POINT('',(-5.477122132055,24.50659081655,3.859342068547
    ));
#165 = CARTESIAN_POINT('',(-16.69231864019,20.003961525656,
    4.168022624117));
#166 = CARTESIAN_POINT('',(-24.39486953944,10.104685815491,
    4.476703179656));
#167 = CARTESIAN_POINT('',(-25.94818854954,-2.341685141072,
    4.785383735227));
#168 = CARTESIAN_POINT('',(-21.20168675114,-13.45586634925,
    5.094064290771));
#169 = CARTESIAN_POINT('',(-12.19814565388,-20.36217688761,
    5.402744846333));
#170 = CARTESIAN_POINT('',(-1.894305510696,-22.00095445732,
    5.711425401886));
#171 = CARTESIAN_POINT('',(7.06522269448,-19.01287539567,6.020105957442)
  );
#172 = CARTESIAN_POINT('',(13.03904904508,-13.03904904508,6.328786512998
    ));
#173 = PCURVE('',#42,#174);
#174 = DEFINITIONAL_REPRESENTATION('',(#175),#179);
#175 = LINE('',#176,#177);
#176 = CARTESIAN_POINT('',(0.,1.));
#177 = VECTOR('',#178,1.);
#178 = DIRECTION('',(1.,0.));
#179 = ( GEOMETRIC_REPRESENTATION_CONTEXT(2) 
PARAMETRIC_REPRESENTATION_CONTEXT() REPRESENTATION_CONTEXT('2D SPACE',''
  ) );
#180 = PCURVE('',#181,#208);
#181 = B_SPLINE_SURFACE_WITH_KNOTS('',12,1,(
    (#182,#183)
    ,(#184,#185)
    ,(#186,#187)
    ,(#188,#189)
    ,(#190,#191)
    ,(#192,#193)
    ,(#194,#195)
    ,(#196,#197)
    ,(#198,#199)
    ,(#200,#201)
    ,(#202,#203)
    ,(#204,#205)
    ,(#206,#207
    )),.UNSPECIFIED.,.F.,.F.,.F.,(13,13),(2,2),(0.,6.629216708841),(0.,
    1.),.PIECEWISE_BEZIER_KNOTS.);
#182 = CARTESIAN_POINT('',(18.44,7.993605777301E-15,2.624619846331));
#183 = CARTESIAN_POINT('',(17.249,1.15463194561E-14,3.311666666667));
#184 = CARTESIAN_POINT('',(18.439999999998,8.448266244282,2.933300401887
    ));
#185 = CARTESIAN_POINT('',(17.248999999999,7.902610870262,3.620347222223
    ));
#186 = CARTESIAN_POINT('',(14.217547817091,16.896500361581,
    3.241980957441));
#187 = CARTESIAN_POINT('',(13.299266935844,15.805191688554,
    3.929027777776));
#188 = CARTESIAN_POINT('',(5.7728418472,23.023624866762,3.550661513001)
  );
#189 = CARTESIAN_POINT('',(5.399986389502,21.536578379975,4.237708333337
    ));
#190 = CARTESIAN_POINT('',(-5.477122132055,24.50659081655,3.859342068547
    ));
#191 = CARTESIAN_POINT('',(-5.123366575703,22.92376274375,4.546388888883
    ));
#192 = CARTESIAN_POINT('',(-16.69231864019,20.003961525656,
    4.168022624117));
#193 = CARTESIAN_POINT('',(-15.61419762605,18.711948609322,
    4.855069444453));
#194 = CARTESIAN_POINT('',(-24.39486953944,10.104685815491,
    4.476703179656));
#195 = CARTESIAN_POINT('',(-22.81925730402,9.452045858546,5.163749999991
    ));
#196 = CARTESIAN_POINT('',(-25.94818854954,-2.341685141072,
    4.785383735227));
#197 = CARTESIAN_POINT('',(-24.27225077498,-2.190440726601,
    5.472430555563));
#198 = CARTESIAN_POINT('',(-21.20168675114,-13.45586634925,
    5.094064290771));
#199 = CARTESIAN_POINT('',(-19.83231533464,-12.58678083829,
    5.781111111106));
#200 = CARTESIAN_POINT('',(-12.19814565388,-20.36217688761,
    5.402744846333));
#201 = CARTESIAN_POINT('',(-11.41029362168,-19.04702761033,
    6.089791666669));
#202 = CARTESIAN_POINT('',(-1.894305510696,-22.00095445732,
    5.711425401886));
#203 = CARTESIAN_POINT('',(-1.771956385794,-20.57996005608,
    6.398472222221));
#204 = CARTESIAN_POINT('',(7.06522269448,-19.01287539567,6.020105957442)
  );
#205 = CARTESIAN_POINT('',(6.608895133248,-17.78487460412,6.707152777778
    ));
#206 = CARTESIAN_POINT('',(13.03904904508,-13.03904904508,6.328786512998
    ));
#207 = CARTESIAN_POINT('',(12.196884868687,-12.19688486868,
    7.015833333333));
#208 = DEFINITIONAL_REPRESENTATION('',(#209),#213);
#209 = LINE('',#210,#211);
#210 = CARTESIAN_POINT('',(0.,0.));
#211 = VECTOR('',#212,1.);
#212 = DIRECTION('',(1.,0.));
#213 = ( GEOMETRIC_REPRESENTATION_CONTEXT(2) 
PARAMETRIC_REPRESENTATION_CONTEXT() REPRESENTATION_CONTEXT('2D SPACE',''
  ) );
#214 = ORIENTED_EDGE('',*,*,#215,.F.);
#215 = EDGE_CURVE('',#22,#156,#216,.T.);
#216 = SURFACE_CURVE('',#217,(#220,#227),.PCURVE_S1.);
#217 = B_SPLINE_CURVE_WITH_KNOTS('',1,(#218,#219),.UNSPECIFIED.,.F.,.F.,
  (2,2),(0.,1.),.PIECEWISE_BEZIER_KNOTS.);
#218 = CARTESIAN_POINT('',(18.44,7.993605777301E-15,1.608713487002));
#219 = CARTESIAN_POINT('',(18.44,7.993605777301E-15,2.624619846331));
#220 = PCURVE('',#42,#221);
#221 = DEFINITIONAL_REPRESENTATION('',(#222),#226);
#222 = LINE('',#223,#224);
#223 = CARTESIAN_POINT('',(0.,0.));
#224 = VECTOR('',#225,1.);
#225 = DIRECTION('',(0.,1.));
#226 = ( GEOMETRIC_REPRESENTATION_CONTEXT(2) 
PARAMETRIC_REPRESENTATION_CONTEXT() REPRESENTATION_CONTEXT('2D SPACE',''
  ) );
#227 = PCURVE('',#228,#251);
#228 = B_SPLINE_SURFACE_WITH_KNOTS('',6,1,(
    (#229,#230)
    ,(#231,#232)
    ,(#233,#234)
    ,(#235,#236)
    ,(#237,#238)
    ,(#239,#240)
    ,(#241,#242)
    ,(#243,#244)
    ,(#245,#246)
    ,(#247,#248)
    ,(#249,#250
    )),.UNSPECIFIED.,.F.,.F.,.F.,(7,4,7),(2,2),(0.,0.504603753799,1.),(
    0.,1.),.UNSPECIFIED.);
#229 = CARTESIAN_POINT('',(18.440000287015,3.401560952909E-07,
    2.624619842277));
#230 = CARTESIAN_POINT('',(18.440000287015,3.401560952909E-07,
    1.608713482948));
#231 = CARTESIAN_POINT('',(18.289266543555,-2.333742642261,
    2.539350300825));
#232 = CARTESIAN_POINT('',(18.289266543555,-2.333742642261,
    1.523443941496));
#233 = CARTESIAN_POINT('',(17.782648615855,-4.644452340979,2.45324874572
    ));
#234 = CARTESIAN_POINT('',(17.782648615855,-4.644452340979,
    1.437342386391));
#235 = CARTESIAN_POINT('',(16.924449151386,-6.8643451199,2.36627532444)
  );
#236 = CARTESIAN_POINT('',(16.924449151386,-6.8643451199,1.350368965111)
  );
#237 = CARTESIAN_POINT('',(15.736554437412,-8.926511262374,
    2.278423146127));
#238 = CARTESIAN_POINT('',(15.736554437412,-8.926511262374,
    1.262516786799));
#239 = CARTESIAN_POINT('',(12.805877199538,-12.58494121237,
    2.102681485754));
#240 = CARTESIAN_POINT('',(12.805877199538,-12.58494121237,
    1.086775126426));
#241 = CARTESIAN_POINT('',(8.929087493831,-15.21640615215,1.924129147046
    ));
#242 = CARTESIAN_POINT('',(8.929087493831,-15.21640615215,0.908222787717
    ));
#243 = CARTESIAN_POINT('',(6.823695131178,-16.22501187384,1.835090731992
    ));
#244 = CARTESIAN_POINT('',(6.823695131178,-16.22501187384,0.819184372663
    ));
#245 = CARTESIAN_POINT('',(4.591403982748,-16.90766512608,1.745629533133
    ));
#246 = CARTESIAN_POINT('',(4.591403982748,-16.90766512608,0.729723173805
    ));
#247 = CARTESIAN_POINT('',(2.295706536574,-17.24900071239,1.655958093299
    ));
#248 = CARTESIAN_POINT('',(2.295706536574,-17.24900071239,0.64005173397)
  );
#249 = CARTESIAN_POINT('',(-2.330431829733E-07,-17.24899992393,
    1.566286510539));
#250 = CARTESIAN_POINT('',(-2.330431829733E-07,-17.24899992393,
    0.550380151211));
#251 = DEFINITIONAL_REPRESENTATION('',(#252),#255);
#252 = B_SPLINE_CURVE_WITH_KNOTS('',1,(#253,#254),.UNSPECIFIED.,.F.,.F.,
  (2,2),(0.,1.),.PIECEWISE_BEZIER_KNOTS.);
#253 = CARTESIAN_POINT('',(0.,1.));
#254 = CARTESIAN_POINT('',(0.,0.));
#255 = ( GEOMETRIC_REPRESENTATION_CONTEXT(2) 
PARAMETRIC_REPRESENTATION_CONTEXT() REPRESENTATION_CONTEXT('2D SPACE',''
  ) );
#256 = ADVANCED_FACE('',(#257),#181,.T.);
#257 = FACE_BOUND('',#258,.T.);
#258 = EDGE_LOOP('',(#259,#260,#313,#373));
#259 = ORIENTED_EDGE('',*,*,#155,.T.);
#260 = ORIENTED_EDGE('',*,*,#261,.T.);
#261 = EDGE_CURVE('',#111,#262,#264,.T.);
#262 = VERTEX_POINT('',#263);
#263 = CARTESIAN_POINT('',(12.196884821225,-12.19688504296,
    7.015833333333));
#264 = SURFACE_CURVE('',#265,(#268,#275),.PCURVE_S1.);
#265 = B_SPLINE_CURVE_WITH_KNOTS('',1,(#266,#267),.UNSPECIFIED.,.F.,.F.,
  (2,2),(0.,1.),.PIECEWISE_BEZIER_KNOTS.);
#266 = CARTESIAN_POINT('',(13.039049007504,-13.03904948855,
    6.328786517052));
#267 = CARTESIAN_POINT('',(12.196884773763,-12.19688521723,
    7.015833333333));
#268 = PCURVE('',#181,#269);
#269 = DEFINITIONAL_REPRESENTATION('',(#270),#274);
#270 = LINE('',#271,#272);
#271 = CARTESIAN_POINT('',(6.629216708841,0.));
#272 = VECTOR('',#273,1.);
#273 = DIRECTION('',(0.,1.));
#274 = ( GEOMETRIC_REPRESENTATION_CONTEXT(2) 
PARAMETRIC_REPRESENTATION_CONTEXT() REPRESENTATION_CONTEXT('2D SPACE',''
  ) );
#275 = PCURVE('',#276,#307);
#276 = B_SPLINE_SURFACE_WITH_KNOTS('',6,1,(
    (#277,#278)
    ,(#279,#280)
    ,(#281,#282)
    ,(#283,#284)
    ,(#285,#286)
    ,(#287,#288)
    ,(#289,#290)
    ,(#291,#292)
    ,(#293,#294)
    ,(#295,#296)
    ,(#297,#298)
    ,(#299,#300)
    ,(#301,#302)
    ,(#303,#304)
    ,(#305,#306
    )),.UNSPECIFIED.,.F.,.F.,.F.,(7,4,4,7),(2,2),(0.,0.5,0.504603753799,
    1.),(0.,1.),.UNSPECIFIED.);
#277 = CARTESIAN_POINT('',(13.039049007504,-13.03904948855,
    6.328786517052));
#278 = CARTESIAN_POINT('',(12.196884773763,-12.19688521723,
    7.015833333333));
#279 = CARTESIAN_POINT('',(14.568586416447,-11.29828722971,
    6.413278101597));
#280 = CARTESIAN_POINT('',(13.793454183602,-10.60031363579,
    7.046773876083));
#281 = CARTESIAN_POINT('',(15.83505542535,-9.326438886789,6.498586587293
    ));
#282 = CARTESIAN_POINT('',(15.139230319731,-8.752968744616,
    7.077714418833));
#283 = CARTESIAN_POINT('',(16.79478562455,-7.17309470093,6.584750745799)
  );
#284 = CARTESIAN_POINT('',(16.184991032422,-6.704036654966,
    7.108654961583));
#285 = CARTESIAN_POINT('',(17.416688248095,-4.899235138031,
    6.671777573651));
#286 = CARTESIAN_POINT('',(16.894332749607,-4.515776702545,
    7.139595504332));
#287 = CARTESIAN_POINT('',(17.689434159773,-2.550149349972,
    6.760427242922));
#288 = CARTESIAN_POINT('',(17.25226555315,-2.237098827118,7.170820932365
    ));
#289 = CARTESIAN_POINT('',(17.606821918401,-0.213158048494,
    6.849796639867));
#290 = CARTESIAN_POINT('',(17.248969884142,4.15790483042E-02,
    7.202046360397));
#291 = CARTESIAN_POINT('',(17.606038628109,-0.191837559617,
    6.850612061642));
#292 = CARTESIAN_POINT('',(17.248909748045,6.236851810451E-02,
    7.20233124568));
#293 = CARTESIAN_POINT('',(17.605225762806,-0.17051817998,6.851427543158
    ));
#294 = CARTESIAN_POINT('',(17.248819544022,8.315787920103E-02,
    7.202616130962));
#295 = CARTESIAN_POINT('',(17.513731085557,2.144790162026,6.940001042929
    ));
#296 = CARTESIAN_POINT('',(17.235757193474,2.341010812483,7.233556673712
    ));
#297 = CARTESIAN_POINT('',(17.073442292173,4.445805658781,7.029277212283
    ));
#298 = CARTESIAN_POINT('',(16.868036660386,4.596299317006,7.264497216462
    ));
#299 = CARTESIAN_POINT('',(16.297897020837,6.647734820825,7.118315627337
    ));
#300 = CARTESIAN_POINT('',(16.156028217419,6.760582019344,7.295152873929
    ));
#301 = CARTESIAN_POINT('',(15.202137556052,8.708911773316,7.207776826195
    ));
#302 = CARTESIAN_POINT('',(15.114426569929,8.78696636874,7.325808531396)
  );
#303 = CARTESIAN_POINT('',(13.820195032054,10.573575712802,7.29744826603
    ));
#304 = CARTESIAN_POINT('',(13.778753758628,10.615014080773,
    7.356464188864));
#305 = CARTESIAN_POINT('',(12.196884650117,12.19688497969,7.387119848789
    ));
#306 = CARTESIAN_POINT('',(12.196884773763,12.196885217236,
    7.387119846331));
#307 = DEFINITIONAL_REPRESENTATION('',(#308),#312);
#308 = LINE('',#309,#310);
#309 = CARTESIAN_POINT('',(0.,0.));
#310 = VECTOR('',#311,1.);
#311 = DIRECTION('',(0.,1.));
#312 = ( GEOMETRIC_REPRESENTATION_CONTEXT(2) 
PARAMETRIC_REPRESENTATION_CONTEXT() REPRESENTATION_CONTEXT('2D SPACE',''
  ) );
#313 = ORIENTED_EDGE('',*,*,#314,.F.);
#314 = EDGE_CURVE('',#315,#262,#317,.T.);
#315 = VERTEX_POINT('',#316);
#316 = CARTESIAN_POINT('',(17.249000089671,1.567912906175E-07,
    3.311666666667));
#317 = SURFACE_CURVE('',#318,(#332,#339),.PCURVE_S1.);
#318 = B_SPLINE_CURVE_WITH_KNOTS('',12,(#319,#320,#321,#322,#323,#324,
    #325,#326,#327,#328,#329,#330,#331),.UNSPECIFIED.,.F.,.F.,(13,13),(
    0.,6.629216708841),.PIECEWISE_BEZIER_KNOTS.);
#319 = CARTESIAN_POINT('',(17.249,1.15463194561E-14,3.311666666667));
#320 = CARTESIAN_POINT('',(17.248999999999,7.902610870262,3.620347222223
    ));
#321 = CARTESIAN_POINT('',(13.299266935844,15.805191688554,
    3.929027777776));
#322 = CARTESIAN_POINT('',(5.399986389502,21.536578379975,4.237708333337
    ));
#323 = CARTESIAN_POINT('',(-5.123366575703,22.92376274375,4.546388888883
    ));
#324 = CARTESIAN_POINT('',(-15.61419762605,18.711948609322,
    4.855069444453));
#325 = CARTESIAN_POINT('',(-22.81925730402,9.452045858546,5.163749999991
    ));
#326 = CARTESIAN_POINT('',(-24.27225077498,-2.190440726601,
    5.472430555563));
#327 = CARTESIAN_POINT('',(-19.83231533464,-12.58678083829,
    5.781111111106));
#328 = CARTESIAN_POINT('',(-11.41029362168,-19.04702761033,
    6.089791666669));
#329 = CARTESIAN_POINT('',(-1.771956385794,-20.57996005608,
    6.398472222221));
#330 = CARTESIAN_POINT('',(6.608895133248,-17.78487460412,6.707152777778
    ));
#331 = CARTESIAN_POINT('',(12.196884868687,-12.19688486868,
    7.015833333333));
#332 = PCURVE('',#181,#333);
#333 = DEFINITIONAL_REPRESENTATION('',(#334),#338);
#334 = LINE('',#335,#336);
#335 = CARTESIAN_POINT('',(0.,1.));
#336 = VECTOR('',#337,1.);
#337 = DIRECTION('',(1.,0.));
#338 = ( GEOMETRIC_REPRESENTATION_CONTEXT(2) 
PARAMETRIC_REPRESENTATION_CONTEXT() REPRESENTATION_CONTEXT('2D SPACE',''
  ) );
#339 = PCURVE('',#340,#367);
#340 = B_SPLINE_SURFACE_WITH_KNOTS('',12,1,(
    (#341,#342)
    ,(#343,#344)
    ,(#345,#346)
    ,(#347,#348)
    ,(#349,#350)
    ,(#351,#352)
    ,(#353,#354)
    ,(#355,#356)
    ,(#357,#358)
    ,(#359,#360)
    ,(#361,#362)
    ,(#363,#364)
    ,(#365,#366
    )),.UNSPECIFIED.,.F.,.F.,.F.,(13,13),(2,2),(0.,6.629216708841),(0.,
    1.),.PIECEWISE_BEZIER_KNOTS.);
#341 = CARTESIAN_POINT('',(17.249,1.15463194561E-14,3.311666666667));
#342 = CARTESIAN_POINT('',(17.249,1.15463194561E-14,0.921666666667));
#343 = CARTESIAN_POINT('',(17.248999999999,7.902610870262,3.620347222223
    ));
#344 = CARTESIAN_POINT('',(17.248999999999,7.902610870262,1.230347222223
    ));
#345 = CARTESIAN_POINT('',(13.299266935844,15.805191688554,
    3.929027777776));
#346 = CARTESIAN_POINT('',(13.299266935844,15.805191688554,
    1.539027777776));
#347 = CARTESIAN_POINT('',(5.399986389502,21.536578379975,4.237708333337
    ));
#348 = CARTESIAN_POINT('',(5.399986389502,21.536578379975,1.847708333337
    ));
#349 = CARTESIAN_POINT('',(-5.123366575703,22.92376274375,4.546388888883
    ));
#350 = CARTESIAN_POINT('',(-5.123366575703,22.92376274375,2.156388888883
    ));
#351 = CARTESIAN_POINT('',(-15.61419762605,18.711948609322,
    4.855069444453));
#352 = CARTESIAN_POINT('',(-15.61419762605,18.711948609322,
    2.465069444453));
#353 = CARTESIAN_POINT('',(-22.81925730402,9.452045858546,5.163749999991
    ));
#354 = CARTESIAN_POINT('',(-22.81925730402,9.452045858546,2.773749999991
    ));
#355 = CARTESIAN_POINT('',(-24.27225077498,-2.190440726601,
    5.472430555563));
#356 = CARTESIAN_POINT('',(-24.27225077498,-2.190440726601,
    3.082430555563));
#357 = CARTESIAN_POINT('',(-19.83231533464,-12.58678083829,
    5.781111111106));
#358 = CARTESIAN_POINT('',(-19.83231533464,-12.58678083829,
    3.391111111106));
#359 = CARTESIAN_POINT('',(-11.41029362168,-19.04702761033,
    6.089791666669));
#360 = CARTESIAN_POINT('',(-11.41029362168,-19.04702761033,
    3.699791666669));
#361 = CARTESIAN_POINT('',(-1.771956385794,-20.57996005608,
    6.398472222221));
#362 = CARTESIAN_POINT('',(-1.771956385794,-20.57996005608,
    4.008472222221));
#363 = CARTESIAN_POINT('',(6.608895133248,-17.78487460412,6.707152777778
    ));
#364 = CARTESIAN_POINT('',(6.608895133248,-17.78487460412,4.317152777778
    ));
#365 = CARTESIAN_POINT('',(12.196884868687,-12.19688486868,
    7.015833333333));
#366 = CARTESIAN_POINT('',(12.196884868687,-12.19688486868,
    4.625833333333));
#367 = DEFINITIONAL_REPRESENTATION('',(#368),#372);
#368 = LINE('',#369,#370);
#369 = CARTESIAN_POINT('',(0.,0.));
#370 = VECTOR('',#371,1.);
#371 = DIRECTION('',(1.,0.));
#372 = ( GEOMETRIC_REPRESENTATION_CONTEXT(2) 
PARAMETRIC_REPRESENTATION_CONTEXT() REPRESENTATION_CONTEXT('2D SPACE',''
  ) );
#373 = ORIENTED_EDGE('',*,*,#374,.T.);
#374 = EDGE_CURVE('',#315,#156,#375,.T.);
#375 = SURFACE_CURVE('',#376,(#379,#385),.PCURVE_S1.);
#376 = B_SPLINE_CURVE_WITH_KNOTS('',1,(#377,#378),.UNSPECIFIED.,.F.,.F.,
  (2,2),(0.,1.),.PIECEWISE_BEZIER_KNOTS.);
#377 = CARTESIAN_POINT('',(17.249000179341,3.13582581235E-07,
    3.311666666667));
#378 = CARTESIAN_POINT('',(18.440000287015,3.401560952909E-07,
    2.624619842277));
#379 = PCURVE('',#181,#380);
#380 = DEFINITIONAL_REPRESENTATION('',(#381),#384);
#381 = B_SPLINE_CURVE_WITH_KNOTS('',1,(#382,#383),.UNSPECIFIED.,.F.,.F.,
  (2,2),(0.,1.),.PIECEWISE_BEZIER_KNOTS.);
#382 = CARTESIAN_POINT('',(0.,1.));
#383 = CARTESIAN_POINT('',(0.,0.));
#384 = ( GEOMETRIC_REPRESENTATION_CONTEXT(2) 
PARAMETRIC_REPRESENTATION_CONTEXT() REPRESENTATION_CONTEXT('2D SPACE',''
  ) );
#385 = PCURVE('',#386,#417);
#386 = B_SPLINE_SURFACE_WITH_KNOTS('',6,1,(
    (#387,#388)
    ,(#389,#390)
    ,(#391,#392)
    ,(#393,#394)
    ,(#395,#396)
    ,(#397,#398)
    ,(#399,#400)
    ,(#401,#402)
    ,(#403,#404)
    ,(#405,#406)
    ,(#407,#408)
    ,(#409,#410)
    ,(#411,#412)
    ,(#413,#414)
    ,(#415,#416
    )),.UNSPECIFIED.,.F.,.F.,.F.,(7,4,4,7),(2,2),(0.,0.5,0.504603753799,
    1.),(0.,1.),.UNSPECIFIED.);
#387 = CARTESIAN_POINT('',(17.249000179341,3.13582581235E-07,
    3.311666666667));
#388 = CARTESIAN_POINT('',(18.440000287015,3.401560952909E-07,
    2.624619842277));
#389 = CARTESIAN_POINT('',(17.248998643785,-2.257891334629,
    3.166218320528));
#390 = CARTESIAN_POINT('',(18.290641763298,-2.312450731447,
    2.540128257732));
#391 = CARTESIAN_POINT('',(16.894335975863,-4.515768866205,
    3.020769974388));
#392 = CARTESIAN_POINT('',(17.7918632529,-4.602286890559,2.454819772036)
  );
#393 = CARTESIAN_POINT('',(16.184986692514,-6.704047132407,2.87532162825
    ));
#394 = CARTESIAN_POINT('',(16.947850708815,-6.803562898572,2.36865561353
    ));
#395 = CARTESIAN_POINT('',(15.139233579564,-8.752960922183,2.72987328211
    ));
#396 = CARTESIAN_POINT('',(15.779740754769,-8.85117597731,2.281628785677
    ));
#397 = CARTESIAN_POINT('',(13.781061714303,-10.61732621262,
    2.583085719219));
#398 = CARTESIAN_POINT('',(14.311546748132,-10.70509095132,
    2.192979116407));
#399 = CARTESIAN_POINT('',(12.167462746548,-12.22626440057,
    2.436298156328));
#400 = CARTESIAN_POINT('',(12.6006286752,-12.29917767209,2.103609719462)
  );
#401 = CARTESIAN_POINT('',(12.152719848833,-12.240922253,2.434958939575)
  );
#402 = CARTESIAN_POINT('',(12.58499894306,-12.31369966447,2.102794297687
    ));
#403 = CARTESIAN_POINT('',(12.137955766749,-12.25555876733,
    2.433619722823));
#404 = CARTESIAN_POINT('',(12.56934908258,-12.32819995982,2.101978816171
    ));
#405 = CARTESIAN_POINT('',(10.532176170052,-13.84286541072,
    2.288171376684));
#406 = CARTESIAN_POINT('',(10.867482346684,-13.90067368226,2.0134053164)
  );
#407 = CARTESIAN_POINT('',(8.677428692445,-15.17757752329,2.142723030544
    ));
#408 = CARTESIAN_POINT('',(8.929087493831,-15.21640615215,1.924129147046
    ));
#409 = CARTESIAN_POINT('',(6.64358371893,-16.2044905002,1.998613901159)
  );
#410 = CARTESIAN_POINT('',(6.823695131178,-16.22501187384,1.835090731992
    ));
#411 = CARTESIAN_POINT('',(4.47419001595,-16.90083702676,1.85450477177)
  );
#412 = CARTESIAN_POINT('',(4.591403982748,-16.90766512608,1.745629533133
    ));
#413 = CARTESIAN_POINT('',(2.237101780119,-17.24899865791,1.710395642385
    ));
#414 = CARTESIAN_POINT('',(2.295706536574,-17.24900071239,1.655958093299
    ));
#415 = CARTESIAN_POINT('',(-3.1358222774E-07,-17.24900017934,
    1.566286512998));
#416 = CARTESIAN_POINT('',(-2.330431829733E-07,-17.24899992393,
    1.566286510539));
#417 = DEFINITIONAL_REPRESENTATION('',(#418),#422);
#418 = LINE('',#419,#420);
#419 = CARTESIAN_POINT('',(0.,0.));
#420 = VECTOR('',#421,1.);
#421 = DIRECTION('',(0.,1.));
#422 = ( GEOMETRIC_REPRESENTATION_CONTEXT(2) 
PARAMETRIC_REPRESENTATION_CONTEXT() REPRESENTATION_CONTEXT('2D SPACE',''
  ) );
#423 = ADVANCED_FACE('',(#424),#340,.T.);
#424 = FACE_BOUND('',#425,.T.);
#425 = EDGE_LOOP('',(#426,#427,#472,#505));
#426 = ORIENTED_EDGE('',*,*,#314,.T.);
#427 = ORIENTED_EDGE('',*,*,#428,.T.);
#428 = EDGE_CURVE('',#262,#429,#431,.T.);
#429 = VERTEX_POINT('',#430);
#430 = CARTESIAN_POINT('',(12.196884821225,-12.19688504296,
    4.625833333333));
#431 = SURFACE_CURVE('',#432,(#435,#442),.PCURVE_S1.);
#432 = B_SPLINE_CURVE_WITH_KNOTS('',1,(#433,#434),.UNSPECIFIED.,.F.,.F.,
  (2,2),(0.,1.),.PIECEWISE_BEZIER_KNOTS.);
#433 = CARTESIAN_POINT('',(12.196884868687,-12.19688486868,
    7.015833333333));
#434 = CARTESIAN_POINT('',(12.196884868687,-12.19688486868,
    4.625833333333));
#435 = PCURVE('',#340,#436);
#436 = DEFINITIONAL_REPRESENTATION('',(#437),#441);
#437 = LINE('',#438,#439);
#438 = CARTESIAN_POINT('',(6.629216708841,0.));
#439 = VECTOR('',#440,1.);
#440 = DIRECTION('',(0.,1.));
#441 = ( GEOMETRIC_REPRESENTATION_CONTEXT(2) 
PARAMETRIC_REPRESENTATION_CONTEXT() REPRESENTATION_CONTEXT('2D SPACE',''
  ) );
#442 = PCURVE('',#443,#466);
#443 = B_SPLINE_SURFACE_WITH_KNOTS('',6,1,(
    (#444,#445)
    ,(#446,#447)
    ,(#448,#449)
    ,(#450,#451)
    ,(#452,#453)
    ,(#454,#455)
    ,(#456,#457)
    ,(#458,#459)
    ,(#460,#461)
    ,(#462,#463)
    ,(#464,#465
    )),.UNSPECIFIED.,.F.,.F.,.F.,(7,4,7),(2,2),(0.,0.5,1.),(0.,1.),
  .UNSPECIFIED.);
#444 = CARTESIAN_POINT('',(12.196884773763,-12.19688521723,
    7.015833333333));
#445 = CARTESIAN_POINT('',(12.196884773764,-12.19688521723,
    4.625833333333));
#446 = CARTESIAN_POINT('',(13.793454183602,-10.60031363579,
    7.046773876083));
#447 = CARTESIAN_POINT('',(13.793454183596,-10.60031363579,
    4.771281679472));
#448 = CARTESIAN_POINT('',(15.139230319731,-8.752968744616,
    7.077714418833));
#449 = CARTESIAN_POINT('',(15.139230319741,-8.752968744612,
    4.916730025612));
#450 = CARTESIAN_POINT('',(16.184991032422,-6.704036654966,
    7.108654961583));
#451 = CARTESIAN_POINT('',(16.18499103241,-6.704036654972,5.06217837175)
  );
#452 = CARTESIAN_POINT('',(16.894332749607,-4.515776702545,
    7.139595504332));
#453 = CARTESIAN_POINT('',(16.894332749614,-4.51577670254,5.20762671789)
  );
#454 = CARTESIAN_POINT('',(17.603667154768,4.55990800674E-12,
    7.201476589832));
#455 = CARTESIAN_POINT('',(17.60366715476,-1.845634756137E-12,
    5.498523410168));
#456 = CARTESIAN_POINT('',(16.894332749607,4.515776702537,7.263357675332
    ));
#457 = CARTESIAN_POINT('',(16.894332749615,4.515776702543,5.789420102446
    ));
#458 = CARTESIAN_POINT('',(16.184991032422,6.704036654981,7.294298218082
    ));
#459 = CARTESIAN_POINT('',(16.184991032402,6.704036654964,5.934868448584
    ));
#460 = CARTESIAN_POINT('',(15.13923031973,8.752968744602,7.325238760831)
  );
#461 = CARTESIAN_POINT('',(15.139230319751,8.75296874462,6.080316794725)
  );
#462 = CARTESIAN_POINT('',(13.793454183602,10.600313635804,
    7.356179303581));
#463 = CARTESIAN_POINT('',(13.79345418359,10.600313635795,6.225765140863
    ));
#464 = CARTESIAN_POINT('',(12.196884773763,12.196885217236,
    7.387119846331));
#465 = CARTESIAN_POINT('',(12.196884773765,12.196885217238,
    6.371213487002));
#466 = DEFINITIONAL_REPRESENTATION('',(#467),#471);
#467 = LINE('',#468,#469);
#468 = CARTESIAN_POINT('',(0.,0.));
#469 = VECTOR('',#470,1.);
#470 = DIRECTION('',(0.,1.));
#471 = ( GEOMETRIC_REPRESENTATION_CONTEXT(2) 
PARAMETRIC_REPRESENTATION_CONTEXT() REPRESENTATION_CONTEXT('2D SPACE',''
  ) );
#472 = ORIENTED_EDGE('',*,*,#473,.F.);
#473 = EDGE_CURVE('',#474,#429,#476,.T.);
#474 = VERTEX_POINT('',#475);
#475 = CARTESIAN_POINT('',(17.24900008967,1.567916694256E-07,
    0.921666666667));
#476 = SURFACE_CURVE('',#477,(#491,#498),.PCURVE_S1.);
#477 = B_SPLINE_CURVE_WITH_KNOTS('',12,(#478,#479,#480,#481,#482,#483,
    #484,#485,#486,#487,#488,#489,#490),.UNSPECIFIED.,.F.,.F.,(13,13),(
    0.,6.629216708841),.PIECEWISE_BEZIER_KNOTS.);
#478 = CARTESIAN_POINT('',(17.249,1.15463194561E-14,0.921666666667));
#479 = CARTESIAN_POINT('',(17.248999999999,7.902610870262,1.230347222223
    ));
#480 = CARTESIAN_POINT('',(13.299266935844,15.805191688554,
    1.539027777776));
#481 = CARTESIAN_POINT('',(5.399986389502,21.536578379975,1.847708333337
    ));
#482 = CARTESIAN_POINT('',(-5.123366575703,22.92376274375,2.156388888883
    ));
#483 = CARTESIAN_POINT('',(-15.61419762605,18.711948609322,
    2.465069444453));
#484 = CARTESIAN_POINT('',(-22.81925730402,9.452045858546,2.773749999991
    ));
#485 = CARTESIAN_POINT('',(-24.27225077498,-2.190440726601,
    3.082430555563));
#486 = CARTESIAN_POINT('',(-19.83231533464,-12.58678083829,
    3.391111111106));
#487 = CARTESIAN_POINT('',(-11.41029362168,-19.04702761033,
    3.699791666669));
#488 = CARTESIAN_POINT('',(-1.771956385794,-20.57996005608,
    4.008472222221));
#489 = CARTESIAN_POINT('',(6.608895133248,-17.78487460412,4.317152777778
    ));
#490 = CARTESIAN_POINT('',(12.196884868687,-12.19688486868,
    4.625833333333));
#491 = PCURVE('',#340,#492);
#492 = DEFINITIONAL_REPRESENTATION('',(#493),#497);
#493 = LINE('',#494,#495);
#494 = CARTESIAN_POINT('',(0.,1.));
#495 = VECTOR('',#496,1.);
#496 = DIRECTION('',(1.,0.));
#497 = ( GEOMETRIC_REPRESENTATION_CONTEXT(2) 
PARAMETRIC_REPRESENTATION_CONTEXT() REPRESENTATION_CONTEXT('2D SPACE',''
  ) );
#498 = PCURVE('',#76,#499);
#499 = DEFINITIONAL_REPRESENTATION('',(#500),#504);
#500 = LINE('',#501,#502);
#501 = CARTESIAN_POINT('',(0.,0.));
#502 = VECTOR('',#503,1.);
#503 = DIRECTION('',(1.,0.));
#504 = ( GEOMETRIC_REPRESENTATION_CONTEXT(2) 
PARAMETRIC_REPRESENTATION_CONTEXT() REPRESENTATION_CONTEXT('2D SPACE',''
  ) );
#505 = ORIENTED_EDGE('',*,*,#506,.F.);
#506 = EDGE_CURVE('',#315,#474,#507,.T.);
#507 = SURFACE_CURVE('',#508,(#511,#518),.PCURVE_S1.);
#508 = B_SPLINE_CURVE_WITH_KNOTS('',1,(#509,#510),.UNSPECIFIED.,.F.,.F.,
  (2,2),(0.,1.),.PIECEWISE_BEZIER_KNOTS.);
#509 = CARTESIAN_POINT('',(17.249,1.15463194561E-14,3.311666666667));
#510 = CARTESIAN_POINT('',(17.249,1.15463194561E-14,0.921666666667));
#511 = PCURVE('',#340,#512);
#512 = DEFINITIONAL_REPRESENTATION('',(#513),#517);
#513 = LINE('',#514,#515);
#514 = CARTESIAN_POINT('',(0.,0.));
#515 = VECTOR('',#516,1.);
#516 = DIRECTION('',(0.,1.));
#517 = ( GEOMETRIC_REPRESENTATION_CONTEXT(2) 
PARAMETRIC_REPRESENTATION_CONTEXT() REPRESENTATION_CONTEXT('2D SPACE',''
  ) );
#518 = PCURVE('',#519,#542);
#519 = B_SPLINE_SURFACE_WITH_KNOTS('',6,1,(
    (#520,#521)
    ,(#522,#523)
    ,(#524,#525)
    ,(#526,#527)
    ,(#528,#529)
    ,(#530,#531)
    ,(#532,#533)
    ,(#534,#535)
    ,(#536,#537)
    ,(#538,#539)
    ,(#540,#541
    )),.UNSPECIFIED.,.F.,.F.,.F.,(7,4,7),(2,2),(0.,0.5,1.),(0.,1.),
  .UNSPECIFIED.);
#520 = CARTESIAN_POINT('',(17.249000179341,3.135833388512E-07,
    0.921666666667));
#521 = CARTESIAN_POINT('',(17.249000179341,3.13582581235E-07,
    3.311666666667));
#522 = CARTESIAN_POINT('',(17.248998643788,-2.257891334633,
    0.890726123917));
#523 = CARTESIAN_POINT('',(17.248998643785,-2.257891334629,
    3.166218320528));
#524 = CARTESIAN_POINT('',(16.894335975858,-4.515768866195,
    0.859785581167));
#525 = CARTESIAN_POINT('',(16.894335975863,-4.515768866205,
    3.020769974388));
#526 = CARTESIAN_POINT('',(16.184986692518,-6.704047132419,
    0.828845038417));
#527 = CARTESIAN_POINT('',(16.184986692514,-6.704047132407,2.87532162825
    ));
#528 = CARTESIAN_POINT('',(15.139233579562,-8.752960922175,
    0.797904495668));
#529 = CARTESIAN_POINT('',(15.139233579564,-8.752960922183,2.72987328211
    ));
#530 = CARTESIAN_POINT('',(12.447672418884,-12.44767241889,
    0.736023410168));
#531 = CARTESIAN_POINT('',(12.447672418883,-12.44767241888,
    2.438976589832));
#532 = CARTESIAN_POINT('',(8.752960922181,-15.13923357955,0.674142324668
    ));
#533 = CARTESIAN_POINT('',(8.752960922182,-15.13923357956,2.148079897554
    ));
#534 = CARTESIAN_POINT('',(6.704047132409,-16.18498669253,0.643201781918
    ));
#535 = CARTESIAN_POINT('',(6.704047132407,-16.1849866925,2.002631551416)
  );
#536 = CARTESIAN_POINT('',(4.515768866204,-16.89433597584,0.612261239169
    ));
#537 = CARTESIAN_POINT('',(4.515768866206,-16.89433597587,1.857183205275
    ));
#538 = CARTESIAN_POINT('',(2.257891334629,-17.24899864379,0.581320696419
    ));
#539 = CARTESIAN_POINT('',(2.257891334628,-17.24899864377,1.711734859137
    ));
#540 = CARTESIAN_POINT('',(-3.135826025513E-07,-17.24900017934,
    0.550380153669));
#541 = CARTESIAN_POINT('',(-3.1358222774E-07,-17.24900017934,
    1.566286512998));
#542 = DEFINITIONAL_REPRESENTATION('',(#543),#546);
#543 = B_SPLINE_CURVE_WITH_KNOTS('',1,(#544,#545),.UNSPECIFIED.,.F.,.F.,
  (2,2),(0.,1.),.PIECEWISE_BEZIER_KNOTS.);
#544 = CARTESIAN_POINT('',(0.,1.));
#545 = CARTESIAN_POINT('',(0.,0.));
#546 = ( GEOMETRIC_REPRESENTATION_CONTEXT(2) 
PARAMETRIC_REPRESENTATION_CONTEXT() REPRESENTATION_CONTEXT('2D SPACE',''
  ) );
#547 = ADVANCED_FACE('',(#548),#76,.T.);
#548 = FACE_BOUND('',#549,.T.);
#549 = EDGE_LOOP('',(#550,#551,#602,#603));
#550 = ORIENTED_EDGE('',*,*,#473,.T.);
#551 = ORIENTED_EDGE('',*,*,#552,.T.);
#552 = EDGE_CURVE('',#429,#24,#553,.T.);
#553 = SURFACE_CURVE('',#554,(#557,#564),.PCURVE_S1.);
#554 = B_SPLINE_CURVE_WITH_KNOTS('',1,(#555,#556),.UNSPECIFIED.,.F.,.F.,
  (2,2),(0.,1.),.PIECEWISE_BEZIER_KNOTS.);
#555 = CARTESIAN_POINT('',(12.196884773764,-12.19688521723,
    4.625833333333));
#556 = CARTESIAN_POINT('',(13.039049007504,-13.03904948855,
    5.312880157723));
#557 = PCURVE('',#76,#558);
#558 = DEFINITIONAL_REPRESENTATION('',(#559),#563);
#559 = LINE('',#560,#561);
#560 = CARTESIAN_POINT('',(6.629216708841,0.));
#561 = VECTOR('',#562,1.);
#562 = DIRECTION('',(0.,1.));
#563 = ( GEOMETRIC_REPRESENTATION_CONTEXT(2) 
PARAMETRIC_REPRESENTATION_CONTEXT() REPRESENTATION_CONTEXT('2D SPACE',''
  ) );
#564 = PCURVE('',#565,#596);
#565 = B_SPLINE_SURFACE_WITH_KNOTS('',6,1,(
    (#566,#567)
    ,(#568,#569)
    ,(#570,#571)
    ,(#572,#573)
    ,(#574,#575)
    ,(#576,#577)
    ,(#578,#579)
    ,(#580,#581)
    ,(#582,#583)
    ,(#584,#585)
    ,(#586,#587)
    ,(#588,#589)
    ,(#590,#591)
    ,(#592,#593)
    ,(#594,#595
    )),.UNSPECIFIED.,.F.,.F.,.F.,(7,4,4,7),(2,2),(0.,0.5,0.504603753799,
    1.),(0.,1.),.UNSPECIFIED.);
#566 = CARTESIAN_POINT('',(12.196884773764,-12.19688521723,
    4.625833333333));
#567 = CARTESIAN_POINT('',(13.039049007504,-13.03904948855,
    5.312880157723));
#568 = CARTESIAN_POINT('',(13.793454183596,-10.60031363579,
    4.771281679472));
#569 = CARTESIAN_POINT('',(14.568586416447,-11.29828722971,
    5.397371742268));
#570 = CARTESIAN_POINT('',(15.139230319741,-8.752968744612,
    4.916730025612));
#571 = CARTESIAN_POINT('',(15.83505542535,-9.326438886789,5.482680227964
    ));
#572 = CARTESIAN_POINT('',(16.18499103241,-6.704036654972,5.06217837175)
  );
#573 = CARTESIAN_POINT('',(16.79478562455,-7.17309470093,5.56884438647)
  );
#574 = CARTESIAN_POINT('',(16.894332749614,-4.51577670254,5.20762671789)
  );
#575 = CARTESIAN_POINT('',(17.416688248095,-4.899235138032,
    5.655871214323));
#576 = CARTESIAN_POINT('',(17.252265553149,-2.237098827119,
    5.354414280781));
#577 = CARTESIAN_POINT('',(17.689434159773,-2.550149349972,
    5.744520883593));
#578 = CARTESIAN_POINT('',(17.248969884141,4.157904830384E-02,
    5.501201843672));
#579 = CARTESIAN_POINT('',(17.606821918401,-0.213158048494,
    5.833890280538));
#580 = CARTESIAN_POINT('',(17.248909748044,6.236851810416E-02,
    5.502541060425));
#581 = CARTESIAN_POINT('',(17.606038628109,-0.191837559617,
    5.834705702313));
#582 = CARTESIAN_POINT('',(17.248819544021,8.315787920069E-02,
    5.503880277177));
#583 = CARTESIAN_POINT('',(17.605225762806,-0.17051817998,5.835521183829
    ));
#584 = CARTESIAN_POINT('',(17.235757193474,2.341010812483,5.649328623316
    ));
#585 = CARTESIAN_POINT('',(17.513731085557,2.144790162026,5.9240946836)
  );
#586 = CARTESIAN_POINT('',(16.868036660394,4.596299317012,5.794776969456
    ));
#587 = CARTESIAN_POINT('',(17.073442292173,4.445805658781,6.013370852954
    ));
#588 = CARTESIAN_POINT('',(16.1560282174,6.760582019328,5.938886098841)
  );
#589 = CARTESIAN_POINT('',(16.297897020837,6.647734820825,6.102409268008
    ));
#590 = CARTESIAN_POINT('',(15.114426569949,8.786966368758,6.08299522823)
  );
#591 = CARTESIAN_POINT('',(15.202137556052,8.708911773316,6.191870466867
    ));
#592 = CARTESIAN_POINT('',(13.778753758617,10.615014080763,
    6.227104357615));
#593 = CARTESIAN_POINT('',(13.820195032054,10.573575712802,
    6.281541906701));
#594 = CARTESIAN_POINT('',(12.196884773765,12.196885217238,
    6.371213487002));
#595 = CARTESIAN_POINT('',(12.196884650117,12.19688497969,6.371213489461
    ));
#596 = DEFINITIONAL_REPRESENTATION('',(#597),#601);
#597 = LINE('',#598,#599);
#598 = CARTESIAN_POINT('',(0.,0.));
#599 = VECTOR('',#600,1.);
#600 = DIRECTION('',(0.,1.));
#601 = ( GEOMETRIC_REPRESENTATION_CONTEXT(2) 
PARAMETRIC_REPRESENTATION_CONTEXT() REPRESENTATION_CONTEXT('2D SPACE',''
  ) );
#602 = ORIENTED_EDGE('',*,*,#21,.F.);
#603 = ORIENTED_EDGE('',*,*,#604,.T.);
#604 = EDGE_CURVE('',#22,#474,#605,.T.);
#605 = SURFACE_CURVE('',#606,(#609,#615),.PCURVE_S1.);
#606 = B_SPLINE_CURVE_WITH_KNOTS('',1,(#607,#608),.UNSPECIFIED.,.F.,.F.,
  (2,2),(0.,1.),.PIECEWISE_BEZIER_KNOTS.);
#607 = CARTESIAN_POINT('',(18.440000287015,3.401560952909E-07,
    1.608713482948));
#608 = CARTESIAN_POINT('',(17.249000179341,3.135833388512E-07,
    0.921666666667));
#609 = PCURVE('',#76,#610);
#610 = DEFINITIONAL_REPRESENTATION('',(#611),#614);
#611 = B_SPLINE_CURVE_WITH_KNOTS('',1,(#612,#613),.UNSPECIFIED.,.F.,.F.,
  (2,2),(0.,1.),.PIECEWISE_BEZIER_KNOTS.);
#612 = CARTESIAN_POINT('',(0.,1.));
#613 = CARTESIAN_POINT('',(0.,0.));
#614 = ( GEOMETRIC_REPRESENTATION_CONTEXT(2) 
PARAMETRIC_REPRESENTATION_CONTEXT() REPRESENTATION_CONTEXT('2D SPACE',''
  ) );
#615 = PCURVE('',#616,#647);
#616 = B_SPLINE_SURFACE_WITH_KNOTS('',6,1,(
    (#617,#618)
    ,(#619,#620)
    ,(#621,#622)
    ,(#623,#624)
    ,(#625,#626)
    ,(#627,#628)
    ,(#629,#630)
    ,(#631,#632)
    ,(#633,#634)
    ,(#635,#636)
    ,(#637,#638)
    ,(#639,#640)
    ,(#641,#642)
    ,(#643,#644)
    ,(#645,#646
    )),.UNSPECIFIED.,.F.,.F.,.F.,(7,4,4,7),(2,2),(0.,0.5,0.504603753799,
    1.),(0.,1.),.UNSPECIFIED.);
#617 = CARTESIAN_POINT('',(18.440000287015,3.401560952909E-07,
    1.608713482948));
#618 = CARTESIAN_POINT('',(17.249000179341,3.135833388512E-07,
    0.921666666667));
#619 = CARTESIAN_POINT('',(18.290641763298,-2.312450731447,
    1.524221898403));
#620 = CARTESIAN_POINT('',(17.248998643788,-2.257891334633,
    0.890726123917));
#621 = CARTESIAN_POINT('',(17.7918632529,-4.602286890559,1.438913412707)
  );
#622 = CARTESIAN_POINT('',(16.894335975858,-4.515768866195,
    0.859785581167));
#623 = CARTESIAN_POINT('',(16.947850708815,-6.803562898572,
    1.352749254201));
#624 = CARTESIAN_POINT('',(16.184986692518,-6.704047132419,
    0.828845038417));
#625 = CARTESIAN_POINT('',(15.779740754769,-8.85117597731,1.265722426349
    ));
#626 = CARTESIAN_POINT('',(15.139233579562,-8.752960922175,
    0.797904495668));
#627 = CARTESIAN_POINT('',(14.311546748132,-10.70509095132,
    1.177072757078));
#628 = CARTESIAN_POINT('',(13.781061714303,-10.61732621262,
    0.766679067635));
#629 = CARTESIAN_POINT('',(12.6006286752,-12.29917767209,1.087703360133)
  );
#630 = CARTESIAN_POINT('',(12.167462746548,-12.22626440057,
    0.735453639603));
#631 = CARTESIAN_POINT('',(12.58499894306,-12.31369966447,1.086887938358
    ));
#632 = CARTESIAN_POINT('',(12.152719848833,-12.240922253,0.73516875432)
  );
#633 = CARTESIAN_POINT('',(12.56934908258,-12.32819995982,1.086072456842
    ));
#634 = CARTESIAN_POINT('',(12.137955766749,-12.25555876733,
    0.734883869038));
#635 = CARTESIAN_POINT('',(10.867482346684,-13.90067368226,
    0.997498957071));
#636 = CARTESIAN_POINT('',(10.532176170052,-13.84286541072,
    0.703943326288));
#637 = CARTESIAN_POINT('',(8.929087493831,-15.21640615215,0.908222787717
    ));
#638 = CARTESIAN_POINT('',(8.677428692444,-15.17757752328,0.673002783538
    ));
#639 = CARTESIAN_POINT('',(6.823695131178,-16.22501187384,0.819184372663
    ));
#640 = CARTESIAN_POINT('',(6.643583718932,-16.20449050022,0.642347126071
    ));
#641 = CARTESIAN_POINT('',(4.591403982748,-16.90766512608,0.729723173805
    ));
#642 = CARTESIAN_POINT('',(4.474190015948,-16.90083702673,0.611691468604
    ));
#643 = CARTESIAN_POINT('',(2.295706536574,-17.24900071239,0.64005173397)
  );
#644 = CARTESIAN_POINT('',(2.237101780121,-17.24899865793,0.581035811136
    ));
#645 = CARTESIAN_POINT('',(-2.330431829733E-07,-17.24899992393,
    0.550380151211));
#646 = CARTESIAN_POINT('',(-3.135826025513E-07,-17.24900017934,
    0.550380153669));
#647 = DEFINITIONAL_REPRESENTATION('',(#648),#652);
#648 = LINE('',#649,#650);
#649 = CARTESIAN_POINT('',(0.,0.));
#650 = VECTOR('',#651,1.);
#651 = DIRECTION('',(0.,1.));
#652 = ( GEOMETRIC_REPRESENTATION_CONTEXT(2) 
PARAMETRIC_REPRESENTATION_CONTEXT() REPRESENTATION_CONTEXT('2D SPACE',''
  ) );
#653 = ADVANCED_FACE('',(#654),#228,.T.);
#654 = FACE_BOUND('',#655,.T.);
#655 = EDGE_LOOP('',(#656,#687,#708,#737));
#656 = ORIENTED_EDGE('',*,*,#657,.T.);
#657 = EDGE_CURVE('',#156,#658,#660,.T.);
#658 = VERTEX_POINT('',#659);
#659 = CARTESIAN_POINT('',(-2.733127053567E-07,-17.24900005164,
    1.566286511768));
#660 = SURFACE_CURVE('',#661,(#673,#680),.PCURVE_S1.);
#661 = B_SPLINE_CURVE_WITH_KNOTS('',6,(#662,#663,#664,#665,#666,#667,
    #668,#669,#670,#671,#672),.UNSPECIFIED.,.F.,.F.,(7,4,7),(0.,
    0.504603753799,1.),.UNSPECIFIED.);
#662 = CARTESIAN_POINT('',(18.440000287015,3.401560952909E-07,
    2.624619842277));
#663 = CARTESIAN_POINT('',(18.289266543555,-2.333742642261,
    2.539350300825));
#664 = CARTESIAN_POINT('',(17.782648615855,-4.644452340979,2.45324874572
    ));
#665 = CARTESIAN_POINT('',(16.924449151386,-6.8643451199,2.36627532444)
  );
#666 = CARTESIAN_POINT('',(15.736554437412,-8.926511262374,
    2.278423146127));
#667 = CARTESIAN_POINT('',(12.805877199538,-12.58494121237,
    2.102681485754));
#668 = CARTESIAN_POINT('',(8.929087493831,-15.21640615215,1.924129147046
    ));
#669 = CARTESIAN_POINT('',(6.823695131178,-16.22501187384,1.835090731992
    ));
#670 = CARTESIAN_POINT('',(4.591403982748,-16.90766512608,1.745629533133
    ));
#671 = CARTESIAN_POINT('',(2.295706536574,-17.24900071239,1.655958093299
    ));
#672 = CARTESIAN_POINT('',(-2.330431829733E-07,-17.24899992393,
    1.566286510539));
#673 = PCURVE('',#228,#674);
#674 = DEFINITIONAL_REPRESENTATION('',(#675),#679);
#675 = LINE('',#676,#677);
#676 = CARTESIAN_POINT('',(0.,0.));
#677 = VECTOR('',#678,1.);
#678 = DIRECTION('',(1.,0.));
#679 = ( GEOMETRIC_REPRESENTATION_CONTEXT(2) 
PARAMETRIC_REPRESENTATION_CONTEXT() REPRESENTATION_CONTEXT('2D SPACE',''
  ) );
#680 = PCURVE('',#386,#681);
#681 = DEFINITIONAL_REPRESENTATION('',(#682),#686);
#682 = LINE('',#683,#684);
#683 = CARTESIAN_POINT('',(0.,1.));
#684 = VECTOR('',#685,1.);
#685 = DIRECTION('',(1.,0.));
#686 = ( GEOMETRIC_REPRESENTATION_CONTEXT(2) 
PARAMETRIC_REPRESENTATION_CONTEXT() REPRESENTATION_CONTEXT('2D SPACE',''
  ) );
#687 = ORIENTED_EDGE('',*,*,#688,.T.);
#688 = EDGE_CURVE('',#658,#689,#691,.T.);
#689 = VERTEX_POINT('',#690);
#690 = CARTESIAN_POINT('',(-2.733128927623E-07,-17.24900005164,
    0.55038015244));
#691 = SURFACE_CURVE('',#692,(#695,#702),.PCURVE_S1.);
#692 = B_SPLINE_CURVE_WITH_KNOTS('',1,(#693,#694),.UNSPECIFIED.,.F.,.F.,
  (2,2),(0.,1.),.PIECEWISE_BEZIER_KNOTS.);
#693 = CARTESIAN_POINT('',(-2.330431829733E-07,-17.24899992393,
    1.566286510539));
#694 = CARTESIAN_POINT('',(-2.330431829733E-07,-17.24899992393,
    0.550380151211));
#695 = PCURVE('',#228,#696);
#696 = DEFINITIONAL_REPRESENTATION('',(#697),#701);
#697 = LINE('',#698,#699);
#698 = CARTESIAN_POINT('',(1.,0.));
#699 = VECTOR('',#700,1.);
#700 = DIRECTION('',(0.,1.));
#701 = ( GEOMETRIC_REPRESENTATION_CONTEXT(2) 
PARAMETRIC_REPRESENTATION_CONTEXT() REPRESENTATION_CONTEXT('2D SPACE',''
  ) );
#702 = PCURVE('',#519,#703);
#703 = DEFINITIONAL_REPRESENTATION('',(#704),#707);
#704 = B_SPLINE_CURVE_WITH_KNOTS('',1,(#705,#706),.UNSPECIFIED.,.F.,.F.,
  (2,2),(0.,1.),.PIECEWISE_BEZIER_KNOTS.);
#705 = CARTESIAN_POINT('',(1.,1.));
#706 = CARTESIAN_POINT('',(1.,0.));
#707 = ( GEOMETRIC_REPRESENTATION_CONTEXT(2) 
PARAMETRIC_REPRESENTATION_CONTEXT() REPRESENTATION_CONTEXT('2D SPACE',''
  ) );
#708 = ORIENTED_EDGE('',*,*,#709,.F.);
#709 = EDGE_CURVE('',#22,#689,#710,.T.);
#710 = SURFACE_CURVE('',#711,(#723,#730),.PCURVE_S1.);
#711 = B_SPLINE_CURVE_WITH_KNOTS('',6,(#712,#713,#714,#715,#716,#717,
    #718,#719,#720,#721,#722),.UNSPECIFIED.,.F.,.F.,(7,4,7),(0.,
    0.504603753799,1.),.UNSPECIFIED.);
#712 = CARTESIAN_POINT('',(18.440000287015,3.401560952909E-07,
    1.608713482948));
#713 = CARTESIAN_POINT('',(18.289266543555,-2.333742642261,
    1.523443941496));
#714 = CARTESIAN_POINT('',(17.782648615855,-4.644452340979,
    1.437342386391));
#715 = CARTESIAN_POINT('',(16.924449151386,-6.8643451199,1.350368965111)
  );
#716 = CARTESIAN_POINT('',(15.736554437412,-8.926511262374,
    1.262516786799));
#717 = CARTESIAN_POINT('',(12.805877199538,-12.58494121237,
    1.086775126426));
#718 = CARTESIAN_POINT('',(8.929087493831,-15.21640615215,0.908222787717
    ));
#719 = CARTESIAN_POINT('',(6.823695131178,-16.22501187384,0.819184372663
    ));
#720 = CARTESIAN_POINT('',(4.591403982748,-16.90766512608,0.729723173805
    ));
#721 = CARTESIAN_POINT('',(2.295706536574,-17.24900071239,0.64005173397)
  );
#722 = CARTESIAN_POINT('',(-2.330431829733E-07,-17.24899992393,
    0.550380151211));
#723 = PCURVE('',#228,#724);
#724 = DEFINITIONAL_REPRESENTATION('',(#725),#729);
#725 = LINE('',#726,#727);
#726 = CARTESIAN_POINT('',(0.,1.));
#727 = VECTOR('',#728,1.);
#728 = DIRECTION('',(1.,0.));
#729 = ( GEOMETRIC_REPRESENTATION_CONTEXT(2) 
PARAMETRIC_REPRESENTATION_CONTEXT() REPRESENTATION_CONTEXT('2D SPACE',''
  ) );
#730 = PCURVE('',#616,#731);
#731 = DEFINITIONAL_REPRESENTATION('',(#732),#736);
#732 = LINE('',#733,#734);
#733 = CARTESIAN_POINT('',(0.,0.));
#734 = VECTOR('',#735,1.);
#735 = DIRECTION('',(1.,0.));
#736 = ( GEOMETRIC_REPRESENTATION_CONTEXT(2) 
PARAMETRIC_REPRESENTATION_CONTEXT() REPRESENTATION_CONTEXT('2D SPACE',''
  ) );
#737 = ORIENTED_EDGE('',*,*,#215,.T.);
#738 = ADVANCED_FACE('',(#739),#616,.T.);
#739 = FACE_BOUND('',#740,.T.);
#740 = EDGE_LOOP('',(#741,#742,#771));
#741 = ORIENTED_EDGE('',*,*,#709,.T.);
#742 = ORIENTED_EDGE('',*,*,#743,.F.);
#743 = EDGE_CURVE('',#474,#689,#744,.T.);
#744 = SURFACE_CURVE('',#745,(#757,#764),.PCURVE_S1.);
#745 = B_SPLINE_CURVE_WITH_KNOTS('',6,(#746,#747,#748,#749,#750,#751,
    #752,#753,#754,#755,#756),.UNSPECIFIED.,.F.,.F.,(7,4,7),(0.,0.5,1.),
  .UNSPECIFIED.);
#746 = CARTESIAN_POINT('',(17.249000179341,3.135833388512E-07,
    0.921666666667));
#747 = CARTESIAN_POINT('',(17.248998643788,-2.257891334633,
    0.890726123917));
#748 = CARTESIAN_POINT('',(16.894335975858,-4.515768866195,
    0.859785581167));
#749 = CARTESIAN_POINT('',(16.184986692518,-6.704047132419,
    0.828845038417));
#750 = CARTESIAN_POINT('',(15.139233579562,-8.752960922175,
    0.797904495668));
#751 = CARTESIAN_POINT('',(12.447672418884,-12.44767241889,
    0.736023410168));
#752 = CARTESIAN_POINT('',(8.752960922181,-15.13923357955,0.674142324668
    ));
#753 = CARTESIAN_POINT('',(6.704047132409,-16.18498669253,0.643201781918
    ));
#754 = CARTESIAN_POINT('',(4.515768866204,-16.89433597584,0.612261239169
    ));
#755 = CARTESIAN_POINT('',(2.257891334629,-17.24899864379,0.581320696419
    ));
#756 = CARTESIAN_POINT('',(-3.135826025513E-07,-17.24900017934,
    0.550380153669));
#757 = PCURVE('',#616,#758);
#758 = DEFINITIONAL_REPRESENTATION('',(#759),#763);
#759 = LINE('',#760,#761);
#760 = CARTESIAN_POINT('',(0.,1.));
#761 = VECTOR('',#762,1.);
#762 = DIRECTION('',(1.,0.));
#763 = ( GEOMETRIC_REPRESENTATION_CONTEXT(2) 
PARAMETRIC_REPRESENTATION_CONTEXT() REPRESENTATION_CONTEXT('2D SPACE',''
  ) );
#764 = PCURVE('',#519,#765);
#765 = DEFINITIONAL_REPRESENTATION('',(#766),#770);
#766 = LINE('',#767,#768);
#767 = CARTESIAN_POINT('',(0.,0.));
#768 = VECTOR('',#769,1.);
#769 = DIRECTION('',(1.,0.));
#770 = ( GEOMETRIC_REPRESENTATION_CONTEXT(2) 
PARAMETRIC_REPRESENTATION_CONTEXT() REPRESENTATION_CONTEXT('2D SPACE',''
  ) );
#771 = ORIENTED_EDGE('',*,*,#604,.F.);
#772 = ADVANCED_FACE('',(#773),#519,.T.);
#773 = FACE_BOUND('',#774,.T.);
#774 = EDGE_LOOP('',(#775,#776,#777,#806));
#775 = ORIENTED_EDGE('',*,*,#743,.T.);
#776 = ORIENTED_EDGE('',*,*,#688,.F.);
#777 = ORIENTED_EDGE('',*,*,#778,.F.);
#778 = EDGE_CURVE('',#315,#658,#779,.T.);
#779 = SURFACE_CURVE('',#780,(#792,#799),.PCURVE_S1.);
#780 = B_SPLINE_CURVE_WITH_KNOTS('',6,(#781,#782,#783,#784,#785,#786,
    #787,#788,#789,#790,#791),.UNSPECIFIED.,.F.,.F.,(7,4,7),(0.,0.5,1.),
  .UNSPECIFIED.);
#781 = CARTESIAN_POINT('',(17.249000179341,3.13582581235E-07,
    3.311666666667));
#782 = CARTESIAN_POINT('',(17.248998643785,-2.257891334629,
    3.166218320528));
#783 = CARTESIAN_POINT('',(16.894335975863,-4.515768866205,
    3.020769974388));
#784 = CARTESIAN_POINT('',(16.184986692514,-6.704047132407,2.87532162825
    ));
#785 = CARTESIAN_POINT('',(15.139233579564,-8.752960922183,2.72987328211
    ));
#786 = CARTESIAN_POINT('',(12.447672418883,-12.44767241888,
    2.438976589832));
#787 = CARTESIAN_POINT('',(8.752960922182,-15.13923357956,2.148079897554
    ));
#788 = CARTESIAN_POINT('',(6.704047132407,-16.1849866925,2.002631551416)
  );
#789 = CARTESIAN_POINT('',(4.515768866206,-16.89433597587,1.857183205275
    ));
#790 = CARTESIAN_POINT('',(2.257891334628,-17.24899864377,1.711734859137
    ));
#791 = CARTESIAN_POINT('',(-3.1358222774E-07,-17.24900017934,
    1.566286512998));
#792 = PCURVE('',#519,#793);
#793 = DEFINITIONAL_REPRESENTATION('',(#794),#798);
#794 = LINE('',#795,#796);
#795 = CARTESIAN_POINT('',(0.,1.));
#796 = VECTOR('',#797,1.);
#797 = DIRECTION('',(1.,0.));
#798 = ( GEOMETRIC_REPRESENTATION_CONTEXT(2) 
PARAMETRIC_REPRESENTATION_CONTEXT() REPRESENTATION_CONTEXT('2D SPACE',''
  ) );
#799 = PCURVE('',#386,#800);
#800 = DEFINITIONAL_REPRESENTATION('',(#801),#805);
#801 = LINE('',#802,#803);
#802 = CARTESIAN_POINT('',(0.,0.));
#803 = VECTOR('',#804,1.);
#804 = DIRECTION('',(1.,0.));
#805 = ( GEOMETRIC_REPRESENTATION_CONTEXT(2) 
PARAMETRIC_REPRESENTATION_CONTEXT() REPRESENTATION_CONTEXT('2D SPACE',''
  ) );
#806 = ORIENTED_EDGE('',*,*,#506,.T.);
#807 = ADVANCED_FACE('',(#808),#386,.T.);
#808 = FACE_BOUND('',#809,.T.);
#809 = EDGE_LOOP('',(#810,#811,#812));
#810 = ORIENTED_EDGE('',*,*,#778,.T.);
#811 = ORIENTED_EDGE('',*,*,#657,.F.);
#812 = ORIENTED_EDGE('',*,*,#374,.F.);
#813 = ADVANCED_FACE('',(#814),#125,.T.);
#814 = FACE_BOUND('',#815,.T.);
#815 = EDGE_LOOP('',(#816,#847,#868,#897));
#816 = ORIENTED_EDGE('',*,*,#817,.T.);
#817 = EDGE_CURVE('',#24,#818,#820,.T.);
#818 = VERTEX_POINT('',#819);
#819 = CARTESIAN_POINT('',(12.196884711941,12.196885098464,
    6.371213488232));
#820 = SURFACE_CURVE('',#821,(#833,#840),.PCURVE_S1.);
#821 = B_SPLINE_CURVE_WITH_KNOTS('',6,(#822,#823,#824,#825,#826,#827,
    #828,#829,#830,#831,#832),.UNSPECIFIED.,.F.,.F.,(7,4,7),(0.,
    0.504603753799,1.),.UNSPECIFIED.);
#822 = CARTESIAN_POINT('',(13.039049007504,-13.03904948855,
    5.312880157723));
#823 = CARTESIAN_POINT('',(14.582669643763,-11.28225914798,
    5.398149699175));
#824 = CARTESIAN_POINT('',(15.858355168932,-9.290107678525,5.48425125428
    ));
#825 = CARTESIAN_POINT('',(16.821217745478,-7.113567780106,5.57122467556
    ));
#826 = CARTESIAN_POINT('',(17.439421001168,-4.815427709243,
    5.659076853873));
#827 = CARTESIAN_POINT('',(17.954019878942,-0.156225334729,
    5.834818514246));
#828 = CARTESIAN_POINT('',(17.073442292173,4.445805658781,6.013370852954
    ));
#829 = CARTESIAN_POINT('',(16.297897020837,6.647734820825,6.102409268008
    ));
#830 = CARTESIAN_POINT('',(15.202137556052,8.708911773316,6.191870466867
    ));
#831 = CARTESIAN_POINT('',(13.820195032054,10.573575712802,
    6.281541906701));
#832 = CARTESIAN_POINT('',(12.196884650117,12.19688497969,6.371213489461
    ));
#833 = PCURVE('',#125,#834);
#834 = DEFINITIONAL_REPRESENTATION('',(#835),#839);
#835 = LINE('',#836,#837);
#836 = CARTESIAN_POINT('',(0.,0.));
#837 = VECTOR('',#838,1.);
#838 = DIRECTION('',(1.,0.));
#839 = ( GEOMETRIC_REPRESENTATION_CONTEXT(2) 
PARAMETRIC_REPRESENTATION_CONTEXT() REPRESENTATION_CONTEXT('2D SPACE',''
  ) );
#840 = PCURVE('',#565,#841);
#841 = DEFINITIONAL_REPRESENTATION('',(#842),#846);
#842 = LINE('',#843,#844);
#843 = CARTESIAN_POINT('',(0.,1.));
#844 = VECTOR('',#845,1.);
#845 = DIRECTION('',(1.,0.));
#846 = ( GEOMETRIC_REPRESENTATION_CONTEXT(2) 
PARAMETRIC_REPRESENTATION_CONTEXT() REPRESENTATION_CONTEXT('2D SPACE',''
  ) );
#847 = ORIENTED_EDGE('',*,*,#848,.T.);
#848 = EDGE_CURVE('',#818,#849,#851,.T.);
#849 = VERTEX_POINT('',#850);
#850 = CARTESIAN_POINT('',(12.19688471194,12.196885098463,7.38711984756)
  );
#851 = SURFACE_CURVE('',#852,(#855,#862),.PCURVE_S1.);
#852 = B_SPLINE_CURVE_WITH_KNOTS('',1,(#853,#854),.UNSPECIFIED.,.F.,.F.,
  (2,2),(0.,1.),.PIECEWISE_BEZIER_KNOTS.);
#853 = CARTESIAN_POINT('',(12.196884650117,12.19688497969,6.371213489461
    ));
#854 = CARTESIAN_POINT('',(12.196884650117,12.19688497969,7.387119848789
    ));
#855 = PCURVE('',#125,#856);
#856 = DEFINITIONAL_REPRESENTATION('',(#857),#861);
#857 = LINE('',#858,#859);
#858 = CARTESIAN_POINT('',(1.,0.));
#859 = VECTOR('',#860,1.);
#860 = DIRECTION('',(0.,1.));
#861 = ( GEOMETRIC_REPRESENTATION_CONTEXT(2) 
PARAMETRIC_REPRESENTATION_CONTEXT() REPRESENTATION_CONTEXT('2D SPACE',''
  ) );
#862 = PCURVE('',#443,#863);
#863 = DEFINITIONAL_REPRESENTATION('',(#864),#867);
#864 = B_SPLINE_CURVE_WITH_KNOTS('',1,(#865,#866),.UNSPECIFIED.,.F.,.F.,
  (2,2),(0.,1.),.PIECEWISE_BEZIER_KNOTS.);
#865 = CARTESIAN_POINT('',(1.,1.));
#866 = CARTESIAN_POINT('',(1.,0.));
#867 = ( GEOMETRIC_REPRESENTATION_CONTEXT(2) 
PARAMETRIC_REPRESENTATION_CONTEXT() REPRESENTATION_CONTEXT('2D SPACE',''
  ) );
#868 = ORIENTED_EDGE('',*,*,#869,.F.);
#869 = EDGE_CURVE('',#111,#849,#870,.T.);
#870 = SURFACE_CURVE('',#871,(#883,#890),.PCURVE_S1.);
#871 = B_SPLINE_CURVE_WITH_KNOTS('',6,(#872,#873,#874,#875,#876,#877,
    #878,#879,#880,#881,#882),.UNSPECIFIED.,.F.,.F.,(7,4,7),(0.,
    0.504603753799,1.),.UNSPECIFIED.);
#872 = CARTESIAN_POINT('',(13.039049007504,-13.03904948855,
    6.328786517052));
#873 = CARTESIAN_POINT('',(14.582669643763,-11.28225914798,
    6.414056058504));
#874 = CARTESIAN_POINT('',(15.858355168932,-9.290107678525,
    6.500157613609));
#875 = CARTESIAN_POINT('',(16.821217745478,-7.113567780106,
    6.587131034889));
#876 = CARTESIAN_POINT('',(17.439421001168,-4.815427709243,
    6.674983213201));
#877 = CARTESIAN_POINT('',(17.954019878942,-0.156225334729,
    6.850724873574));
#878 = CARTESIAN_POINT('',(17.073442292173,4.445805658781,7.029277212283
    ));
#879 = CARTESIAN_POINT('',(16.297897020837,6.647734820825,7.118315627337
    ));
#880 = CARTESIAN_POINT('',(15.202137556052,8.708911773316,7.207776826195
    ));
#881 = CARTESIAN_POINT('',(13.820195032054,10.573575712802,7.29744826603
    ));
#882 = CARTESIAN_POINT('',(12.196884650117,12.19688497969,7.387119848789
    ));
#883 = PCURVE('',#125,#884);
#884 = DEFINITIONAL_REPRESENTATION('',(#885),#889);
#885 = LINE('',#886,#887);
#886 = CARTESIAN_POINT('',(0.,1.));
#887 = VECTOR('',#888,1.);
#888 = DIRECTION('',(1.,0.));
#889 = ( GEOMETRIC_REPRESENTATION_CONTEXT(2) 
PARAMETRIC_REPRESENTATION_CONTEXT() REPRESENTATION_CONTEXT('2D SPACE',''
  ) );
#890 = PCURVE('',#276,#891);
#891 = DEFINITIONAL_REPRESENTATION('',(#892),#896);
#892 = LINE('',#893,#894);
#893 = CARTESIAN_POINT('',(0.,0.));
#894 = VECTOR('',#895,1.);
#895 = DIRECTION('',(1.,0.));
#896 = ( GEOMETRIC_REPRESENTATION_CONTEXT(2) 
PARAMETRIC_REPRESENTATION_CONTEXT() REPRESENTATION_CONTEXT('2D SPACE',''
  ) );
#897 = ORIENTED_EDGE('',*,*,#110,.F.);
#898 = ADVANCED_FACE('',(#899),#276,.T.);
#899 = FACE_BOUND('',#900,.T.);
#900 = EDGE_LOOP('',(#901,#902,#931));
#901 = ORIENTED_EDGE('',*,*,#869,.T.);
#902 = ORIENTED_EDGE('',*,*,#903,.F.);
#903 = EDGE_CURVE('',#262,#849,#904,.T.);
#904 = SURFACE_CURVE('',#905,(#917,#924),.PCURVE_S1.);
#905 = B_SPLINE_CURVE_WITH_KNOTS('',6,(#906,#907,#908,#909,#910,#911,
    #912,#913,#914,#915,#916),.UNSPECIFIED.,.F.,.F.,(7,4,7),(0.,0.5,1.),
  .UNSPECIFIED.);
#906 = CARTESIAN_POINT('',(12.196884773763,-12.19688521723,
    7.015833333333));
#907 = CARTESIAN_POINT('',(13.793454183602,-10.60031363579,
    7.046773876083));
#908 = CARTESIAN_POINT('',(15.139230319731,-8.752968744616,
    7.077714418833));
#909 = CARTESIAN_POINT('',(16.184991032422,-6.704036654966,
    7.108654961583));
#910 = CARTESIAN_POINT('',(16.894332749607,-4.515776702545,
    7.139595504332));
#911 = CARTESIAN_POINT('',(17.603667154768,4.55990800674E-12,
    7.201476589832));
#912 = CARTESIAN_POINT('',(16.894332749607,4.515776702537,7.263357675332
    ));
#913 = CARTESIAN_POINT('',(16.184991032422,6.704036654981,7.294298218082
    ));
#914 = CARTESIAN_POINT('',(15.13923031973,8.752968744602,7.325238760831)
  );
#915 = CARTESIAN_POINT('',(13.793454183602,10.600313635804,
    7.356179303581));
#916 = CARTESIAN_POINT('',(12.196884773763,12.196885217236,
    7.387119846331));
#917 = PCURVE('',#276,#918);
#918 = DEFINITIONAL_REPRESENTATION('',(#919),#923);
#919 = LINE('',#920,#921);
#920 = CARTESIAN_POINT('',(0.,1.));
#921 = VECTOR('',#922,1.);
#922 = DIRECTION('',(1.,0.));
#923 = ( GEOMETRIC_REPRESENTATION_CONTEXT(2) 
PARAMETRIC_REPRESENTATION_CONTEXT() REPRESENTATION_CONTEXT('2D SPACE',''
  ) );
#924 = PCURVE('',#443,#925);
#925 = DEFINITIONAL_REPRESENTATION('',(#926),#930);
#926 = LINE('',#927,#928);
#927 = CARTESIAN_POINT('',(0.,0.));
#928 = VECTOR('',#929,1.);
#929 = DIRECTION('',(1.,0.));
#930 = ( GEOMETRIC_REPRESENTATION_CONTEXT(2) 
PARAMETRIC_REPRESENTATION_CONTEXT() REPRESENTATION_CONTEXT('2D SPACE',''
  ) );
#931 = ORIENTED_EDGE('',*,*,#261,.F.);
#932 = ADVANCED_FACE('',(#933),#443,.T.);
#933 = FACE_BOUND('',#934,.T.);
#934 = EDGE_LOOP('',(#935,#936,#937,#966));
#935 = ORIENTED_EDGE('',*,*,#903,.T.);
#936 = ORIENTED_EDGE('',*,*,#848,.F.);
#937 = ORIENTED_EDGE('',*,*,#938,.F.);
#938 = EDGE_CURVE('',#429,#818,#939,.T.);
#939 = SURFACE_CURVE('',#940,(#952,#959),.PCURVE_S1.);
#940 = B_SPLINE_CURVE_WITH_KNOTS('',6,(#941,#942,#943,#944,#945,#946,
    #947,#948,#949,#950,#951),.UNSPECIFIED.,.F.,.F.,(7,4,7),(0.,0.5,1.),
  .UNSPECIFIED.);
#941 = CARTESIAN_POINT('',(12.196884773764,-12.19688521723,
    4.625833333333));
#942 = CARTESIAN_POINT('',(13.793454183596,-10.60031363579,
    4.771281679472));
#943 = CARTESIAN_POINT('',(15.139230319741,-8.752968744612,
    4.916730025612));
#944 = CARTESIAN_POINT('',(16.18499103241,-6.704036654972,5.06217837175)
  );
#945 = CARTESIAN_POINT('',(16.894332749614,-4.51577670254,5.20762671789)
  );
#946 = CARTESIAN_POINT('',(17.60366715476,-1.845634756137E-12,
    5.498523410168));
#947 = CARTESIAN_POINT('',(16.894332749615,4.515776702543,5.789420102446
    ));
#948 = CARTESIAN_POINT('',(16.184991032402,6.704036654964,5.934868448584
    ));
#949 = CARTESIAN_POINT('',(15.139230319751,8.75296874462,6.080316794725)
  );
#950 = CARTESIAN_POINT('',(13.79345418359,10.600313635795,6.225765140863
    ));
#951 = CARTESIAN_POINT('',(12.196884773765,12.196885217238,
    6.371213487002));
#952 = PCURVE('',#443,#953);
#953 = DEFINITIONAL_REPRESENTATION('',(#954),#958);
#954 = LINE('',#955,#956);
#955 = CARTESIAN_POINT('',(0.,1.));
#956 = VECTOR('',#957,1.);
#957 = DIRECTION('',(1.,0.));
#958 = ( GEOMETRIC_REPRESENTATION_CONTEXT(2) 
PARAMETRIC_REPRESENTATION_CONTEXT() REPRESENTATION_CONTEXT('2D SPACE',''
  ) );
#959 = PCURVE('',#565,#960);
#960 = DEFINITIONAL_REPRESENTATION('',(#961),#965);
#961 = LINE('',#962,#963);
#962 = CARTESIAN_POINT('',(0.,0.));
#963 = VECTOR('',#964,1.);
#964 = DIRECTION('',(1.,0.));
#965 = ( GEOMETRIC_REPRESENTATION_CONTEXT(2) 
PARAMETRIC_REPRESENTATION_CONTEXT() REPRESENTATION_CONTEXT('2D SPACE',''
  ) );
#966 = ORIENTED_EDGE('',*,*,#428,.F.);
#967 = ADVANCED_FACE('',(#968),#565,.T.);
#968 = FACE_BOUND('',#969,.T.);
#969 = EDGE_LOOP('',(#970,#971,#972));
#970 = ORIENTED_EDGE('',*,*,#938,.T.);
#971 = ORIENTED_EDGE('',*,*,#817,.F.);
#972 = ORIENTED_EDGE('',*,*,#552,.F.);
#973 = ( GEOMETRIC_REPRESENTATION_CONTEXT(3) 
GLOBAL_UNCERTAINTY_ASSIGNED_CONTEXT((#977)) GLOBAL_UNIT_ASSIGNED_CONTEXT
((#974,#975,#976)) REPRESENTATION_CONTEXT('Context #1',
  '3D Context with UNIT and UNCERTAINTY') );
#974 = ( LENGTH_UNIT() NAMED_UNIT(*) SI_UNIT(.MILLI.,.METRE.) );
#975 = ( NAMED_UNIT(*) PLANE_ANGLE_UNIT() SI_UNIT($,.RADIAN.) );
#976 = ( NAMED_UNIT(*) SI_UNIT($,.STERADIAN.) SOLID_ANGLE_UNIT() );
#977 = UNCERTAINTY_MEASURE_WITH_UNIT(LENGTH_MEASURE(2.E-07),#974,
  'distance_accuracy_value','confusion accuracy');
#978 = PRODUCT_RELATED_PRODUCT_CATEGORY('part',$,(#7));
ENDSEC;
END-ISO-10303-21;
