ISO-10303-21;
HEADER;
FILE_DESCRIPTION(('Open CASCADE Model'),'2;1');
FILE_NAME('Open CASCADE Shape Model','2026-09-14T09:30:51',('Author'),(
    'Open CASCADE'),'Open CASCADE STEP processor 7.9','Open CASCADE 7.9'
  ,'Unknown');
FILE_SCHEMA(('AUTOMOTIVE_DESIGN { 1 0 10303 214 1 1 1 1 }'));
ENDSEC;
DATA;
#1 = APPLICATION_PROTOCOL_DEFINITION('international standard',
  'automotive_design',2000,#2);
#2 = APPLICATION_CONTEXT(
  'core data for automotive mechanical design processes');
#3 = SHAPE_DEFINITION_REPRESENTATION(#4,#10);
#4 = PRODUCT_DEFINITION_SHAPE('','',#5);
#5 = PRODUCT_DEFINITION('design','',#6,#9);
#6 = PRODUCT_DEFINITION_FORMATION('','',#7);
#7 = PRODUCT('Open CASCADE STEP translator 7.9 14',
  'Open CASCADE STEP translator 7.9 14','',(#8));
#8 = PRODUCT_CONTEXT('',#2,'mechanical');
#9 = PRODUCT_DEFINITION_CONTEXT('part definition',#2,'design');
#10 = ADVANCED_BREP_SHAPE_REPRESENTATION('',(#11,#15),#1061);
#11 = AXIS2_PLACEMENT_3D('',#12,#13,#14);
#12 = CARTESIAN_POINT('',(0.,0.,0.));
#13 = DIRECTION('',(0.,0.,1.));
#14 = DIRECTION('',(1.,0.,-0.));
#15 = MANIFOLD_SOLID_BREP('',#16);
#16 = CLOSED_SHELL('',(#17,#256,#423,#547,#653,#759,#794,#850,#857,#963,
    #1018,#1054));
#17 = ADVANCED_FACE('',(#18),#42,.T.);
#18 = FACE_BOUND('',#19,.T.);
#19 = EDGE_LOOP('',(#20,#109,#154,#214));
#20 = ORIENTED_EDGE('',*,*,#21,.T.);
#21 = EDGE_CURVE('',#22,#24,#26,.T.);
#22 = VERTEX_POINT('',#23);
#23 = CARTESIAN_POINT('',(18.440000143508,1.700780476455E-07,
    1.131495771683));
#24 = VERTEX_POINT('',#25);
#25 = CARTESIAN_POINT('',(13.039049026292,-13.03904926681,4.835662442403
    ));
#26 = SURFACE_CURVE('',#27,(#41,#75),.PCURVE_S1.);
#27 = B_SPLINE_CURVE_WITH_KNOTS('',12,(#28,#29,#30,#31,#32,#33,#34,#35,
    #36,#37,#38,#39,#40),.UNSPECIFIED.,.F.,.F.,(13,13),(0.,
    6.629216708841),.PIECEWISE_BEZIER_KNOTS.);
#28 = CARTESIAN_POINT('',(18.44,7.993605777301E-15,1.13149577371));
#29 = CARTESIAN_POINT('',(18.439999999998,8.448266244282,1.440176329266)
  );
#30 = CARTESIAN_POINT('',(14.217547817091,16.896500361581,1.74885688482)
  );
#31 = CARTESIAN_POINT('',(5.7728418472,23.023624866762,2.05753744038));
#32 = CARTESIAN_POINT('',(-5.477122132055,24.50659081655,2.366217995926)
  );
#33 = CARTESIAN_POINT('',(-16.69231864019,20.003961525656,2.674898551496
    ));
#34 = CARTESIAN_POINT('',(-24.39486953944,10.104685815491,2.983579107035
    ));
#35 = CARTESIAN_POINT('',(-25.94818854954,-2.341685141072,3.292259662606
    ));
#36 = CARTESIAN_POINT('',(-21.20168675114,-13.45586634925,3.600940218149
    ));
#37 = CARTESIAN_POINT('',(-12.19814565388,-20.36217688761,3.909620773712
    ));
#38 = CARTESIAN_POINT('',(-1.894305510696,-22.00095445732,4.218301329264
    ));
#39 = CARTESIAN_POINT('',(7.06522269448,-19.01287539567,4.526981884821)
  );
#40 = CARTESIAN_POINT('',(13.03904904508,-13.03904904508,4.835662440376)
  );
#41 = PCURVE('',#42,#69);
#42 = B_SPLINE_SURFACE_WITH_KNOTS('',12,1,(
    (#43,#44)
    ,(#45,#46)
    ,(#47,#48)
    ,(#49,#50)
    ,(#51,#52)
    ,(#53,#54)
    ,(#55,#56)
    ,(#57,#58)
    ,(#59,#60)
    ,(#61,#62)
    ,(#63,#64)
    ,(#65,#66)
    ,(#67,#68
    )),.UNSPECIFIED.,.F.,.F.,.F.,(13,13),(2,2),(0.,6.629216708841),(0.,
    1.),.PIECEWISE_BEZIER_KNOTS.);
#43 = CARTESIAN_POINT('',(18.44,7.993605777301E-15,1.13149577371));
#44 = CARTESIAN_POINT('',(18.44,7.993605777301E-15,2.121666666667));
#45 = CARTESIAN_POINT('',(18.439999999998,8.448266244282,1.440176329266)
  );
#46 = CARTESIAN_POINT('',(18.439999999998,8.448266244282,2.430347222223)
  );
#47 = CARTESIAN_POINT('',(14.217547817091,16.896500361581,1.74885688482)
  );
#48 = CARTESIAN_POINT('',(14.217547817091,16.896500361581,2.739027777776
    ));
#49 = CARTESIAN_POINT('',(5.7728418472,23.023624866762,2.05753744038));
#50 = CARTESIAN_POINT('',(5.7728418472,23.023624866762,3.047708333337));
#51 = CARTESIAN_POINT('',(-5.477122132055,24.50659081655,2.366217995926)
  );
#52 = CARTESIAN_POINT('',(-5.477122132055,24.50659081655,3.356388888883)
  );
#53 = CARTESIAN_POINT('',(-16.69231864019,20.003961525656,2.674898551496
    ));
#54 = CARTESIAN_POINT('',(-16.69231864019,20.003961525656,3.665069444453
    ));
#55 = CARTESIAN_POINT('',(-24.39486953944,10.104685815491,2.983579107035
    ));
#56 = CARTESIAN_POINT('',(-24.39486953944,10.104685815491,3.973749999991
    ));
#57 = CARTESIAN_POINT('',(-25.94818854954,-2.341685141072,3.292259662606
    ));
#58 = CARTESIAN_POINT('',(-25.94818854954,-2.341685141072,4.282430555563
    ));
#59 = CARTESIAN_POINT('',(-21.20168675114,-13.45586634925,3.600940218149
    ));
#60 = CARTESIAN_POINT('',(-21.20168675114,-13.45586634925,4.591111111106
    ));
#61 = CARTESIAN_POINT('',(-12.19814565388,-20.36217688761,3.909620773712
    ));
#62 = CARTESIAN_POINT('',(-12.19814565388,-20.36217688761,4.899791666669
    ));
#63 = CARTESIAN_POINT('',(-1.894305510696,-22.00095445732,4.218301329264
    ));
#64 = CARTESIAN_POINT('',(-1.894305510696,-22.00095445732,5.208472222221
    ));
#65 = CARTESIAN_POINT('',(7.06522269448,-19.01287539567,4.526981884821)
  );
#66 = CARTESIAN_POINT('',(7.06522269448,-19.01287539567,5.517152777778)
  );
#67 = CARTESIAN_POINT('',(13.03904904508,-13.03904904508,4.835662440376)
  );
#68 = CARTESIAN_POINT('',(13.03904904508,-13.03904904508,5.825833333333)
  );
#69 = DEFINITIONAL_REPRESENTATION('',(#70),#74);
#70 = LINE('',#71,#72);
#71 = CARTESIAN_POINT('',(0.,0.));
#72 = VECTOR('',#73,1.);
#73 = DIRECTION('',(1.,0.));
#74 = ( GEOMETRIC_REPRESENTATION_CONTEXT(2) 
PARAMETRIC_REPRESENTATION_CONTEXT() REPRESENTATION_CONTEXT('2D SPACE',''
  ) );
#75 = PCURVE('',#76,#103);
#76 = B_SPLINE_SURFACE_WITH_KNOTS('',12,1,(
    (#77,#78)
    ,(#79,#80)
    ,(#81,#82)
    ,(#83,#84)
    ,(#85,#86)
    ,(#87,#88)
    ,(#89,#90)
    ,(#91,#92)
    ,(#93,#94)
    ,(#95,#96)
    ,(#97,#98)
    ,(#99,#100)
    ,(#101,#102
    )),.UNSPECIFIED.,.F.,.F.,.F.,(13,13),(2,2),(0.,6.629216708841),(0.,
    1.),.PIECEWISE_BEZIER_KNOTS.);
#77 = CARTESIAN_POINT('',(17.249,1.15463194561E-14,0.921666666667));
#78 = CARTESIAN_POINT('',(18.44,7.993605777301E-15,1.13149577371));
#79 = CARTESIAN_POINT('',(17.248999999999,7.902610870262,1.230347222223)
  );
#80 = CARTESIAN_POINT('',(18.439999999998,8.448266244282,1.440176329266)
  );
#81 = CARTESIAN_POINT('',(13.299266935844,15.805191688554,1.539027777776
    ));
#82 = CARTESIAN_POINT('',(14.217547817091,16.896500361581,1.74885688482)
  );
#83 = CARTESIAN_POINT('',(5.399986389502,21.536578379975,1.847708333337)
  );
#84 = CARTESIAN_POINT('',(5.7728418472,23.023624866762,2.05753744038));
#85 = CARTESIAN_POINT('',(-5.123366575703,22.92376274375,2.156388888883)
  );
#86 = CARTESIAN_POINT('',(-5.477122132055,24.50659081655,2.366217995926)
  );
#87 = CARTESIAN_POINT('',(-15.61419762605,18.711948609322,2.465069444453
    ));
#88 = CARTESIAN_POINT('',(-16.69231864019,20.003961525656,2.674898551496
    ));
#89 = CARTESIAN_POINT('',(-22.81925730402,9.452045858546,2.773749999991)
  );
#90 = CARTESIAN_POINT('',(-24.39486953944,10.104685815491,2.983579107035
    ));
#91 = CARTESIAN_POINT('',(-24.27225077498,-2.190440726601,3.082430555563
    ));
#92 = CARTESIAN_POINT('',(-25.94818854954,-2.341685141072,3.292259662606
    ));
#93 = CARTESIAN_POINT('',(-19.83231533464,-12.58678083829,3.391111111106
    ));
#94 = CARTESIAN_POINT('',(-21.20168675114,-13.45586634925,3.600940218149
    ));
#95 = CARTESIAN_POINT('',(-11.41029362168,-19.04702761033,3.699791666669
    ));
#96 = CARTESIAN_POINT('',(-12.19814565388,-20.36217688761,3.909620773712
    ));
#97 = CARTESIAN_POINT('',(-1.771956385794,-20.57996005608,4.008472222221
    ));
#98 = CARTESIAN_POINT('',(-1.894305510696,-22.00095445732,4.218301329264
    ));
#99 = CARTESIAN_POINT('',(6.608895133248,-17.78487460412,4.317152777778)
  );
#100 = CARTESIAN_POINT('',(7.06522269448,-19.01287539567,4.526981884821)
  );
#101 = CARTESIAN_POINT('',(12.196884868687,-12.19688486868,
    4.625833333333));
#102 = CARTESIAN_POINT('',(13.03904904508,-13.03904904508,4.835662440376
    ));
#103 = DEFINITIONAL_REPRESENTATION('',(#104),#108);
#104 = LINE('',#105,#106);
#105 = CARTESIAN_POINT('',(0.,1.));
#106 = VECTOR('',#107,1.);
#107 = DIRECTION('',(1.,0.));
#108 = ( GEOMETRIC_REPRESENTATION_CONTEXT(2) 
PARAMETRIC_REPRESENTATION_CONTEXT() REPRESENTATION_CONTEXT('2D SPACE',''
  ) );
#109 = ORIENTED_EDGE('',*,*,#110,.T.);
#110 = EDGE_CURVE('',#24,#111,#113,.T.);
#111 = VERTEX_POINT('',#112);
#112 = CARTESIAN_POINT('',(13.039049026292,-13.03904926681,5.82583333536
    ));
#113 = SURFACE_CURVE('',#114,(#117,#124),.PCURVE_S1.);
#114 = B_SPLINE_CURVE_WITH_KNOTS('',1,(#115,#116),.UNSPECIFIED.,.F.,.F.,
  (2,2),(0.,1.),.PIECEWISE_BEZIER_KNOTS.);
#115 = CARTESIAN_POINT('',(13.03904904508,-13.03904904508,4.835662440376
    ));
#116 = CARTESIAN_POINT('',(13.03904904508,-13.03904904508,5.825833333333
    ));
#117 = PCURVE('',#42,#118);
#118 = DEFINITIONAL_REPRESENTATION('',(#119),#123);
#119 = LINE('',#120,#121);
#120 = CARTESIAN_POINT('',(6.629216708841,0.));
#121 = VECTOR('',#122,1.);
#122 = DIRECTION('',(0.,1.));
#123 = ( GEOMETRIC_REPRESENTATION_CONTEXT(2) 
PARAMETRIC_REPRESENTATION_CONTEXT() REPRESENTATION_CONTEXT('2D SPACE',''
  ) );
#124 = PCURVE('',#125,#148);
#125 = B_SPLINE_SURFACE_WITH_KNOTS('',6,1,(
    (#126,#127)
    ,(#128,#129)
    ,(#130,#131)
    ,(#132,#133)
    ,(#134,#135)
    ,(#136,#137)
    ,(#138,#139)
    ,(#140,#141)
    ,(#142,#143)
    ,(#144,#145)
    ,(#146,#147
    )),.UNSPECIFIED.,.F.,.F.,.F.,(7,4,7),(2,2),(0.,0.504603753799,1.),(
    0.,1.),.UNSPECIFIED.);
#126 = CARTESIAN_POINT('',(13.039049007504,-13.03904948855,4.83566244443
    ));
#127 = CARTESIAN_POINT('',(13.039049007504,-13.03904948855,
    5.825833337387));
#128 = CARTESIAN_POINT('',(14.582669643763,-11.28225914798,
    4.920931985882));
#129 = CARTESIAN_POINT('',(14.582669643763,-11.28225914798,
    5.911102878839));
#130 = CARTESIAN_POINT('',(15.858355168932,-9.290107678525,
    5.007033540988));
#131 = CARTESIAN_POINT('',(15.858355168932,-9.290107678525,
    5.997204433945));
#132 = CARTESIAN_POINT('',(16.821217745478,-7.113567780106,
    5.094006962268));
#133 = CARTESIAN_POINT('',(16.821217745478,-7.113567780106,
    6.084177855224));
#134 = CARTESIAN_POINT('',(17.439421001168,-4.815427709243,5.18185914058
    ));
#135 = CARTESIAN_POINT('',(17.439421001168,-4.815427709243,
    6.172030033537));
#136 = CARTESIAN_POINT('',(17.954019878942,-0.156225334729,
    5.357600800953));
#137 = CARTESIAN_POINT('',(17.954019878942,-0.156225334729,6.34777169391
    ));
#138 = CARTESIAN_POINT('',(17.073442292173,4.445805658781,5.536153139662
    ));
#139 = CARTESIAN_POINT('',(17.073442292173,4.445805658781,6.526324032619
    ));
#140 = CARTESIAN_POINT('',(16.297897020837,6.647734820825,5.625191554716
    ));
#141 = CARTESIAN_POINT('',(16.297897020837,6.647734820825,6.615362447673
    ));
#142 = CARTESIAN_POINT('',(15.202137556052,8.708911773316,5.714652753574
    ));
#143 = CARTESIAN_POINT('',(15.202137556052,8.708911773316,6.704823646531
    ));
#144 = CARTESIAN_POINT('',(13.820195032054,10.573575712802,
    5.804324193409));
#145 = CARTESIAN_POINT('',(13.820195032054,10.573575712802,
    6.794495086366));
#146 = CARTESIAN_POINT('',(12.196884650117,12.19688497969,5.893995776168
    ));
#147 = CARTESIAN_POINT('',(12.196884650117,12.19688497969,6.884166669125
    ));
#148 = DEFINITIONAL_REPRESENTATION('',(#149),#153);
#149 = LINE('',#150,#151);
#150 = CARTESIAN_POINT('',(0.,0.));
#151 = VECTOR('',#152,1.);
#152 = DIRECTION('',(0.,1.));
#153 = ( GEOMETRIC_REPRESENTATION_CONTEXT(2) 
PARAMETRIC_REPRESENTATION_CONTEXT() REPRESENTATION_CONTEXT('2D SPACE',''
  ) );
#154 = ORIENTED_EDGE('',*,*,#155,.F.);
#155 = EDGE_CURVE('',#156,#111,#158,.T.);
#156 = VERTEX_POINT('',#157);
#157 = CARTESIAN_POINT('',(18.440000143508,1.700780476455E-07,
    2.12166666464));
#158 = SURFACE_CURVE('',#159,(#173,#180),.PCURVE_S1.);
#159 = B_SPLINE_CURVE_WITH_KNOTS('',12,(#160,#161,#162,#163,#164,#165,
    #166,#167,#168,#169,#170,#171,#172),.UNSPECIFIED.,.F.,.F.,(13,13),(
    0.,6.629216708841),.PIECEWISE_BEZIER_KNOTS.);
#160 = CARTESIAN_POINT('',(18.44,7.993605777301E-15,2.121666666667));
#161 = CARTESIAN_POINT('',(18.439999999998,8.448266244282,2.430347222223
    ));
#162 = CARTESIAN_POINT('',(14.217547817091,16.896500361581,
    2.739027777776));
#163 = CARTESIAN_POINT('',(5.7728418472,23.023624866762,3.047708333337)
  );
#164 = CARTESIAN_POINT('',(-5.477122132055,24.50659081655,3.356388888883
    ));
#165 = CARTESIAN_POINT('',(-16.69231864019,20.003961525656,
    3.665069444453));
#166 = CARTESIAN_POINT('',(-24.39486953944,10.104685815491,
    3.973749999991));
#167 = CARTESIAN_POINT('',(-25.94818854954,-2.341685141072,
    4.282430555563));
#168 = CARTESIAN_POINT('',(-21.20168675114,-13.45586634925,
    4.591111111106));
#169 = CARTESIAN_POINT('',(-12.19814565388,-20.36217688761,
    4.899791666669));
#170 = CARTESIAN_POINT('',(-1.894305510696,-22.00095445732,
    5.208472222221));
#171 = CARTESIAN_POINT('',(7.06522269448,-19.01287539567,5.517152777778)
  );
#172 = CARTESIAN_POINT('',(13.03904904508,-13.03904904508,5.825833333333
    ));
#173 = PCURVE('',#42,#174);
#174 = DEFINITIONAL_REPRESENTATION('',(#175),#179);
#175 = LINE('',#176,#177);
#176 = CARTESIAN_POINT('',(0.,1.));
#177 = VECTOR('',#178,1.);
#178 = DIRECTION('',(1.,0.));
#179 = ( GEOMETRIC_REPRESENTATION_CONTEXT(2) 
PARAMETRIC_REPRESENTATION_CONTEXT() REPRESENTATION_CONTEXT('2D SPACE',''
  ) );
#180 = PCURVE('',#181,#208);
#181 = B_SPLINE_SURFACE_WITH_KNOTS('',12,1,(
    (#182,#183)
    ,(#184,#185)
    ,(#186,#187)
    ,(#188,#189)
    ,(#190,#191)
    ,(#192,#193)
    ,(#194,#195)
    ,(#196,#197)
    ,(#198,#199)
    ,(#200,#201)
    ,(#202,#203)
    ,(#204,#205)
    ,(#206,#207
    )),.UNSPECIFIED.,.F.,.F.,.F.,(13,13),(2,2),(0.,6.629216708841),(0.,
    1.),.PIECEWISE_BEZIER_KNOTS.);
#182 = CARTESIAN_POINT('',(18.44,7.993605777301E-15,2.121666666667));
#183 = CARTESIAN_POINT('',(17.249,1.15463194561E-14,3.311666666667));
#184 = CARTESIAN_POINT('',(18.439999999998,8.448266244282,2.430347222223
    ));
#185 = CARTESIAN_POINT('',(17.248999999999,7.902610870262,3.620347222223
    ));
#186 = CARTESIAN_POINT('',(14.217547817091,16.896500361581,
    2.739027777776));
#187 = CARTESIAN_POINT('',(13.299266935844,15.805191688554,
    3.929027777776));
#188 = CARTESIAN_POINT('',(5.7728418472,23.023624866762,3.047708333337)
  );
#189 = CARTESIAN_POINT('',(5.399986389502,21.536578379975,4.237708333337
    ));
#190 = CARTESIAN_POINT('',(-5.477122132055,24.50659081655,3.356388888883
    ));
#191 = CARTESIAN_POINT('',(-5.123366575703,22.92376274375,4.546388888883
    ));
#192 = CARTESIAN_POINT('',(-16.69231864019,20.003961525656,
    3.665069444453));
#193 = CARTESIAN_POINT('',(-15.61419762605,18.711948609322,
    4.855069444453));
#194 = CARTESIAN_POINT('',(-24.39486953944,10.104685815491,
    3.973749999991));
#195 = CARTESIAN_POINT('',(-22.81925730402,9.452045858546,5.163749999991
    ));
#196 = CARTESIAN_POINT('',(-25.94818854954,-2.341685141072,
    4.282430555563));
#197 = CARTESIAN_POINT('',(-24.27225077498,-2.190440726601,
    5.472430555563));
#198 = CARTESIAN_POINT('',(-21.20168675114,-13.45586634925,
    4.591111111106));
#199 = CARTESIAN_POINT('',(-19.83231533464,-12.58678083829,
    5.781111111106));
#200 = CARTESIAN_POINT('',(-12.19814565388,-20.36217688761,
    4.899791666669));
#201 = CARTESIAN_POINT('',(-11.41029362168,-19.04702761033,
    6.089791666669));
#202 = CARTESIAN_POINT('',(-1.894305510696,-22.00095445732,
    5.208472222221));
#203 = CARTESIAN_POINT('',(-1.771956385794,-20.57996005608,
    6.398472222221));
#204 = CARTESIAN_POINT('',(7.06522269448,-19.01287539567,5.517152777778)
  );
#205 = CARTESIAN_POINT('',(6.608895133248,-17.78487460412,6.707152777778
    ));
#206 = CARTESIAN_POINT('',(13.03904904508,-13.03904904508,5.825833333333
    ));
#207 = CARTESIAN_POINT('',(12.196884868687,-12.19688486868,
    7.015833333333));
#208 = DEFINITIONAL_REPRESENTATION('',(#209),#213);
#209 = LINE('',#210,#211);
#210 = CARTESIAN_POINT('',(0.,0.));
#211 = VECTOR('',#212,1.);
#212 = DIRECTION('',(1.,0.));
#213 = ( GEOMETRIC_REPRESENTATION_CONTEXT(2) 
PARAMETRIC_REPRESENTATION_CONTEXT() REPRESENTATION_CONTEXT('2D SPACE',''
  ) );
#214 = ORIENTED_EDGE('',*,*,#215,.T.);
#215 = EDGE_CURVE('',#156,#22,#216,.T.);
#216 = SURFACE_CURVE('',#217,(#220,#226),.PCURVE_S1.);
#217 = B_SPLINE_CURVE_WITH_KNOTS('',1,(#218,#219),.UNSPECIFIED.,.F.,.F.,
  (2,2),(0.,1.),.PIECEWISE_BEZIER_KNOTS.);
#218 = CARTESIAN_POINT('',(18.440000287015,3.401560952909E-07,
    2.121666662613));
#219 = CARTESIAN_POINT('',(18.440000287015,3.401560952909E-07,
    1.131495769656));
#220 = PCURVE('',#42,#221);
#221 = DEFINITIONAL_REPRESENTATION('',(#222),#225);
#222 = B_SPLINE_CURVE_WITH_KNOTS('',1,(#223,#224),.UNSPECIFIED.,.F.,.F.,
  (2,2),(0.,1.),.PIECEWISE_BEZIER_KNOTS.);
#223 = CARTESIAN_POINT('',(0.,1.));
#224 = CARTESIAN_POINT('',(0.,0.));
#225 = ( GEOMETRIC_REPRESENTATION_CONTEXT(2) 
PARAMETRIC_REPRESENTATION_CONTEXT() REPRESENTATION_CONTEXT('2D SPACE',''
  ) );
#226 = PCURVE('',#227,#250);
#227 = B_SPLINE_SURFACE_WITH_KNOTS('',6,1,(
    (#228,#229)
    ,(#230,#231)
    ,(#232,#233)
    ,(#234,#235)
    ,(#236,#237)
    ,(#238,#239)
    ,(#240,#241)
    ,(#242,#243)
    ,(#244,#245)
    ,(#246,#247)
    ,(#248,#249
    )),.UNSPECIFIED.,.F.,.F.,.F.,(7,4,7),(2,2),(0.,0.504603753799,1.),(
    0.,1.),.UNSPECIFIED.);
#228 = CARTESIAN_POINT('',(18.440000287015,3.401560952909E-07,
    2.121666662613));
#229 = CARTESIAN_POINT('',(18.440000287015,3.401560952909E-07,
    1.131495769656));
#230 = CARTESIAN_POINT('',(18.289266543555,-2.333742642261,
    2.036397121161));
#231 = CARTESIAN_POINT('',(18.289266543555,-2.333742642261,
    1.046226228204));
#232 = CARTESIAN_POINT('',(17.782648615855,-4.644452340979,
    1.950295566055));
#233 = CARTESIAN_POINT('',(17.782648615855,-4.644452340979,
    0.960124673099));
#234 = CARTESIAN_POINT('',(16.924449151386,-6.8643451199,1.863322144776)
  );
#235 = CARTESIAN_POINT('',(16.924449151386,-6.8643451199,0.873151251819)
  );
#236 = CARTESIAN_POINT('',(15.736554437412,-8.926511262374,
    1.775469966463));
#237 = CARTESIAN_POINT('',(15.736554437412,-8.926511262374,
    0.785299073506));
#238 = CARTESIAN_POINT('',(12.805877199538,-12.58494121237,1.59972830609
    ));
#239 = CARTESIAN_POINT('',(12.805877199538,-12.58494121237,
    0.609557413133));
#240 = CARTESIAN_POINT('',(8.929087493831,-15.21640615215,1.421175967381
    ));
#241 = CARTESIAN_POINT('',(8.929087493831,-15.21640615215,0.431005074425
    ));
#242 = CARTESIAN_POINT('',(6.823695131178,-16.22501187384,1.332137552327
    ));
#243 = CARTESIAN_POINT('',(6.823695131178,-16.22501187384,0.34196665937)
  );
#244 = CARTESIAN_POINT('',(4.591403982748,-16.90766512608,1.242676353469
    ));
#245 = CARTESIAN_POINT('',(4.591403982748,-16.90766512608,0.252505460512
    ));
#246 = CARTESIAN_POINT('',(2.295706536574,-17.24900071239,1.153004913634
    ));
#247 = CARTESIAN_POINT('',(2.295706536574,-17.24900071239,0.162834020677
    ));
#248 = CARTESIAN_POINT('',(-2.330431829733E-07,-17.24899992393,
    1.063333330875));
#249 = CARTESIAN_POINT('',(-2.330431829733E-07,-17.24899992393,
    7.316243791811E-02));
#250 = DEFINITIONAL_REPRESENTATION('',(#251),#255);
#251 = LINE('',#252,#253);
#252 = CARTESIAN_POINT('',(0.,0.));
#253 = VECTOR('',#254,1.);
#254 = DIRECTION('',(0.,1.));
#255 = ( GEOMETRIC_REPRESENTATION_CONTEXT(2) 
PARAMETRIC_REPRESENTATION_CONTEXT() REPRESENTATION_CONTEXT('2D SPACE',''
  ) );
#256 = ADVANCED_FACE('',(#257),#181,.T.);
#257 = FACE_BOUND('',#258,.T.);
#258 = EDGE_LOOP('',(#259,#260,#313,#373));
#259 = ORIENTED_EDGE('',*,*,#155,.T.);
#260 = ORIENTED_EDGE('',*,*,#261,.T.);
#261 = EDGE_CURVE('',#111,#262,#264,.T.);
#262 = VERTEX_POINT('',#263);
#263 = CARTESIAN_POINT('',(12.196884821225,-12.19688504296,
    7.015833333333));
#264 = SURFACE_CURVE('',#265,(#268,#275),.PCURVE_S1.);
#265 = B_SPLINE_CURVE_WITH_KNOTS('',1,(#266,#267),.UNSPECIFIED.,.F.,.F.,
  (2,2),(0.,1.),.PIECEWISE_BEZIER_KNOTS.);
#266 = CARTESIAN_POINT('',(13.039049007504,-13.03904948855,
    5.825833337387));
#267 = CARTESIAN_POINT('',(12.196884773764,-12.19688521723,
    7.015833333333));
#268 = PCURVE('',#181,#269);
#269 = DEFINITIONAL_REPRESENTATION('',(#270),#274);
#270 = LINE('',#271,#272);
#271 = CARTESIAN_POINT('',(6.629216708841,0.));
#272 = VECTOR('',#273,1.);
#273 = DIRECTION('',(0.,1.));
#274 = ( GEOMETRIC_REPRESENTATION_CONTEXT(2) 
PARAMETRIC_REPRESENTATION_CONTEXT() REPRESENTATION_CONTEXT('2D SPACE',''
  ) );
#275 = PCURVE('',#276,#307);
#276 = B_SPLINE_SURFACE_WITH_KNOTS('',6,1,(
    (#277,#278)
    ,(#279,#280)
    ,(#281,#282)
    ,(#283,#284)
    ,(#285,#286)
    ,(#287,#288)
    ,(#289,#290)
    ,(#291,#292)
    ,(#293,#294)
    ,(#295,#296)
    ,(#297,#298)
    ,(#299,#300)
    ,(#301,#302)
    ,(#303,#304)
    ,(#305,#306
    )),.UNSPECIFIED.,.F.,.F.,.F.,(7,4,4,7),(2,2),(0.,0.5,0.504603753799,
    1.),(0.,1.),.UNSPECIFIED.);
#277 = CARTESIAN_POINT('',(13.039049007504,-13.03904948855,
    5.825833337387));
#278 = CARTESIAN_POINT('',(12.196884773764,-12.19688521723,
    7.015833333333));
#279 = CARTESIAN_POINT('',(14.568586416447,-11.29828722971,
    5.910324921933));
#280 = CARTESIAN_POINT('',(13.793454183595,-10.6003136358,7.045701564984
    ));
#281 = CARTESIAN_POINT('',(15.83505542535,-9.326438886789,5.995633407629
    ));
#282 = CARTESIAN_POINT('',(15.139230319743,-8.752968744607,
    7.075569796635));
#283 = CARTESIAN_POINT('',(16.79478562455,-7.17309470093,6.081797566134)
  );
#284 = CARTESIAN_POINT('',(16.184991032408,-6.704036654976,
    7.105438028286));
#285 = CARTESIAN_POINT('',(17.416688248095,-4.899235138032,
    6.168824393987));
#286 = CARTESIAN_POINT('',(16.894332749614,-4.515776702538,
    7.135306259937));
#287 = CARTESIAN_POINT('',(17.689434159773,-2.550149349972,
    6.257474063258));
#288 = CARTESIAN_POINT('',(17.25226555315,-2.237098827119,7.165449503558
    ));
#289 = CARTESIAN_POINT('',(17.606821918401,-0.213158048494,
    6.346843460203));
#290 = CARTESIAN_POINT('',(17.248969884141,4.157904830367E-02,
    7.195592747179));
#291 = CARTESIAN_POINT('',(17.606038628109,-0.191837559617,
    6.347658881978));
#292 = CARTESIAN_POINT('',(17.248909748044,6.236851810399E-02,
    7.195867759149));
#293 = CARTESIAN_POINT('',(17.605225762806,-0.17051817998,6.348474363494
    ));
#294 = CARTESIAN_POINT('',(17.248819544021,8.315787920052E-02,
    7.196142771119));
#295 = CARTESIAN_POINT('',(17.513731085557,2.144790162026,6.437047863264
    ));
#296 = CARTESIAN_POINT('',(17.235757193474,2.341010812483,7.22601100277)
  );
#297 = CARTESIAN_POINT('',(17.073442292173,4.445805658781,6.526324032619
    ));
#298 = CARTESIAN_POINT('',(16.868036660393,4.596299317014,7.255879234421
    ));
#299 = CARTESIAN_POINT('',(16.297897020837,6.647734820825,6.615362447673
    ));
#300 = CARTESIAN_POINT('',(16.156028217403,6.760582019325,7.285472454102
    ));
#301 = CARTESIAN_POINT('',(15.202137556052,8.708911773316,6.704823646531
    ));
#302 = CARTESIAN_POINT('',(15.114426569947,8.786966368761,7.315065673783
    ));
#303 = CARTESIAN_POINT('',(13.820195032054,10.573575712802,
    6.794495086366));
#304 = CARTESIAN_POINT('',(13.778753758618,10.615014080762,
    7.344658893464));
#305 = CARTESIAN_POINT('',(12.196884650117,12.19688497969,6.884166669125
    ));
#306 = CARTESIAN_POINT('',(12.196884773765,12.196885217238,
    7.374252113145));
#307 = DEFINITIONAL_REPRESENTATION('',(#308),#312);
#308 = LINE('',#309,#310);
#309 = CARTESIAN_POINT('',(0.,0.));
#310 = VECTOR('',#311,1.);
#311 = DIRECTION('',(0.,1.));
#312 = ( GEOMETRIC_REPRESENTATION_CONTEXT(2) 
PARAMETRIC_REPRESENTATION_CONTEXT() REPRESENTATION_CONTEXT('2D SPACE',''
  ) );
#313 = ORIENTED_EDGE('',*,*,#314,.F.);
#314 = EDGE_CURVE('',#315,#262,#317,.T.);
#315 = VERTEX_POINT('',#316);
#316 = CARTESIAN_POINT('',(17.24900008967,1.567913736622E-07,
    3.311666666667));
#317 = SURFACE_CURVE('',#318,(#332,#339),.PCURVE_S1.);
#318 = B_SPLINE_CURVE_WITH_KNOTS('',12,(#319,#320,#321,#322,#323,#324,
    #325,#326,#327,#328,#329,#330,#331),.UNSPECIFIED.,.F.,.F.,(13,13),(
    0.,6.629216708841),.PIECEWISE_BEZIER_KNOTS.);
#319 = CARTESIAN_POINT('',(17.249,1.15463194561E-14,3.311666666667));
#320 = CARTESIAN_POINT('',(17.248999999999,7.902610870262,3.620347222223
    ));
#321 = CARTESIAN_POINT('',(13.299266935844,15.805191688554,
    3.929027777776));
#322 = CARTESIAN_POINT('',(5.399986389502,21.536578379975,4.237708333337
    ));
#323 = CARTESIAN_POINT('',(-5.123366575703,22.92376274375,4.546388888883
    ));
#324 = CARTESIAN_POINT('',(-15.61419762605,18.711948609322,
    4.855069444453));
#325 = CARTESIAN_POINT('',(-22.81925730402,9.452045858546,5.163749999991
    ));
#326 = CARTESIAN_POINT('',(-24.27225077498,-2.190440726601,
    5.472430555563));
#327 = CARTESIAN_POINT('',(-19.83231533464,-12.58678083829,
    5.781111111106));
#328 = CARTESIAN_POINT('',(-11.41029362168,-19.04702761033,
    6.089791666669));
#329 = CARTESIAN_POINT('',(-1.771956385794,-20.57996005608,
    6.398472222221));
#330 = CARTESIAN_POINT('',(6.608895133248,-17.78487460412,6.707152777778
    ));
#331 = CARTESIAN_POINT('',(12.196884868687,-12.19688486868,
    7.015833333333));
#332 = PCURVE('',#181,#333);
#333 = DEFINITIONAL_REPRESENTATION('',(#334),#338);
#334 = LINE('',#335,#336);
#335 = CARTESIAN_POINT('',(0.,1.));
#336 = VECTOR('',#337,1.);
#337 = DIRECTION('',(1.,0.));
#338 = ( GEOMETRIC_REPRESENTATION_CONTEXT(2) 
PARAMETRIC_REPRESENTATION_CONTEXT() REPRESENTATION_CONTEXT('2D SPACE',''
  ) );
#339 = PCURVE('',#340,#367);
#340 = B_SPLINE_SURFACE_WITH_KNOTS('',12,1,(
    (#341,#342)
    ,(#343,#344)
    ,(#345,#346)
    ,(#347,#348)
    ,(#349,#350)
    ,(#351,#352)
    ,(#353,#354)
    ,(#355,#356)
    ,(#357,#358)
    ,(#359,#360)
    ,(#361,#362)
    ,(#363,#364)
    ,(#365,#366
    )),.UNSPECIFIED.,.F.,.F.,.F.,(13,13),(2,2),(0.,6.629216708841),(0.,
    1.),.PIECEWISE_BEZIER_KNOTS.);
#341 = CARTESIAN_POINT('',(17.249,1.15463194561E-14,3.311666666667));
#342 = CARTESIAN_POINT('',(17.249,1.15463194561E-14,0.921666666667));
#343 = CARTESIAN_POINT('',(17.248999999999,7.902610870262,3.620347222223
    ));
#344 = CARTESIAN_POINT('',(17.248999999999,7.902610870262,1.230347222223
    ));
#345 = CARTESIAN_POINT('',(13.299266935844,15.805191688554,
    3.929027777776));
#346 = CARTESIAN_POINT('',(13.299266935844,15.805191688554,
    1.539027777776));
#347 = CARTESIAN_POINT('',(5.399986389502,21.536578379975,4.237708333337
    ));
#348 = CARTESIAN_POINT('',(5.399986389502,21.536578379975,1.847708333337
    ));
#349 = CARTESIAN_POINT('',(-5.123366575703,22.92376274375,4.546388888883
    ));
#350 = CARTESIAN_POINT('',(-5.123366575703,22.92376274375,2.156388888883
    ));
#351 = CARTESIAN_POINT('',(-15.61419762605,18.711948609322,
    4.855069444453));
#352 = CARTESIAN_POINT('',(-15.61419762605,18.711948609322,
    2.465069444453));
#353 = CARTESIAN_POINT('',(-22.81925730402,9.452045858546,5.163749999991
    ));
#354 = CARTESIAN_POINT('',(-22.81925730402,9.452045858546,2.773749999991
    ));
#355 = CARTESIAN_POINT('',(-24.27225077498,-2.190440726601,
    5.472430555563));
#356 = CARTESIAN_POINT('',(-24.27225077498,-2.190440726601,
    3.082430555563));
#357 = CARTESIAN_POINT('',(-19.83231533464,-12.58678083829,
    5.781111111106));
#358 = CARTESIAN_POINT('',(-19.83231533464,-12.58678083829,
    3.391111111106));
#359 = CARTESIAN_POINT('',(-11.41029362168,-19.04702761033,
    6.089791666669));
#360 = CARTESIAN_POINT('',(-11.41029362168,-19.04702761033,
    3.699791666669));
#361 = CARTESIAN_POINT('',(-1.771956385794,-20.57996005608,
    6.398472222221));
#362 = CARTESIAN_POINT('',(-1.771956385794,-20.57996005608,
    4.008472222221));
#363 = CARTESIAN_POINT('',(6.608895133248,-17.78487460412,6.707152777778
    ));
#364 = CARTESIAN_POINT('',(6.608895133248,-17.78487460412,4.317152777778
    ));
#365 = CARTESIAN_POINT('',(12.196884868687,-12.19688486868,
    7.015833333333));
#366 = CARTESIAN_POINT('',(12.196884868687,-12.19688486868,
    4.625833333333));
#367 = DEFINITIONAL_REPRESENTATION('',(#368),#372);
#368 = LINE('',#369,#370);
#369 = CARTESIAN_POINT('',(0.,0.));
#370 = VECTOR('',#371,1.);
#371 = DIRECTION('',(1.,0.));
#372 = ( GEOMETRIC_REPRESENTATION_CONTEXT(2) 
PARAMETRIC_REPRESENTATION_CONTEXT() REPRESENTATION_CONTEXT('2D SPACE',''
  ) );
#373 = ORIENTED_EDGE('',*,*,#374,.T.);
#374 = EDGE_CURVE('',#315,#156,#375,.T.);
#375 = SURFACE_CURVE('',#376,(#379,#385),.PCURVE_S1.);
#376 = B_SPLINE_CURVE_WITH_KNOTS('',1,(#377,#378),.UNSPECIFIED.,.F.,.F.,
  (2,2),(0.,1.),.PIECEWISE_BEZIER_KNOTS.);
#377 = CARTESIAN_POINT('',(17.249000179341,3.135827473244E-07,
    3.311666666667));
#378 = CARTESIAN_POINT('',(18.440000287015,3.401560952909E-07,
    2.121666662613));
#379 = PCURVE('',#181,#380);
#380 = DEFINITIONAL_REPRESENTATION('',(#381),#384);
#381 = B_SPLINE_CURVE_WITH_KNOTS('',1,(#382,#383),.UNSPECIFIED.,.F.,.F.,
  (2,2),(0.,1.),.PIECEWISE_BEZIER_KNOTS.);
#382 = CARTESIAN_POINT('',(0.,1.));
#383 = CARTESIAN_POINT('',(0.,0.));
#384 = ( GEOMETRIC_REPRESENTATION_CONTEXT(2) 
PARAMETRIC_REPRESENTATION_CONTEXT() REPRESENTATION_CONTEXT('2D SPACE',''
  ) );
#385 = PCURVE('',#386,#417);
#386 = B_SPLINE_SURFACE_WITH_KNOTS('',6,1,(
    (#387,#388)
    ,(#389,#390)
    ,(#391,#392)
    ,(#393,#394)
    ,(#395,#396)
    ,(#397,#398)
    ,(#399,#400)
    ,(#401,#402)
    ,(#403,#404)
    ,(#405,#406)
    ,(#407,#408)
    ,(#409,#410)
    ,(#411,#412)
    ,(#413,#414)
    ,(#415,#416
    )),.UNSPECIFIED.,.F.,.F.,.F.,(7,4,4,7),(2,2),(0.,0.5,0.504603753799,
    1.),(0.,1.),.UNSPECIFIED.);
#387 = CARTESIAN_POINT('',(17.249000179341,3.135827473244E-07,
    3.311666666667));
#388 = CARTESIAN_POINT('',(18.440000287015,3.401560952909E-07,
    2.121666662613));
#389 = CARTESIAN_POINT('',(17.248998643787,-2.25789133463,3.165146009429
    ));
#390 = CARTESIAN_POINT('',(18.290641763298,-2.312450731447,
    2.037175078067));
#391 = CARTESIAN_POINT('',(16.894335975859,-4.515768866202,
    3.018625352191));
#392 = CARTESIAN_POINT('',(17.7918632529,-4.602286890559,1.951866592371)
  );
#393 = CARTESIAN_POINT('',(16.184986692518,-6.70404713241,2.872104694953
    ));
#394 = CARTESIAN_POINT('',(16.947850708815,-6.803562898572,
    1.865702433866));
#395 = CARTESIAN_POINT('',(15.139233579563,-8.752960922181,
    2.725584037715));
#396 = CARTESIAN_POINT('',(15.779740754769,-8.85117597731,1.778675606013
    ));
#397 = CARTESIAN_POINT('',(13.781061714303,-10.61732621262,
    2.577714290412));
#398 = CARTESIAN_POINT('',(14.311546748132,-10.70509095132,
    1.690025936742));
#399 = CARTESIAN_POINT('',(12.167462746548,-12.22626440057,
    2.429844543109));
#400 = CARTESIAN_POINT('',(12.6006286752,-12.29917767209,1.600656539797)
  );
#401 = CARTESIAN_POINT('',(12.152719848833,-12.240922253,2.428495453044)
  );
#402 = CARTESIAN_POINT('',(12.58499894306,-12.31369966447,1.599841118022
    ));
#403 = CARTESIAN_POINT('',(12.137955766749,-12.25555876733,2.42714636298
    ));
#404 = CARTESIAN_POINT('',(12.56934908258,-12.32819995982,1.599025636506
    ));
#405 = CARTESIAN_POINT('',(10.532176170052,-13.84286541072,
    2.280625705742));
#406 = CARTESIAN_POINT('',(10.867482346684,-13.90067368226,
    1.510452136736));
#407 = CARTESIAN_POINT('',(8.677428692444,-15.17757752328,2.134105048504
    ));
#408 = CARTESIAN_POINT('',(8.929087493831,-15.21640615215,1.421175967381
    ));
#409 = CARTESIAN_POINT('',(6.643583718932,-16.2044905002,1.988933481331)
  );
#410 = CARTESIAN_POINT('',(6.823695131178,-16.22501187384,1.332137552327
    ));
#411 = CARTESIAN_POINT('',(4.474190015949,-16.90083702675,1.843761914157
    ));
#412 = CARTESIAN_POINT('',(4.591403982748,-16.90766512608,1.242676353469
    ));
#413 = CARTESIAN_POINT('',(2.23710178012,-17.24899865792,1.698590346985)
  );
#414 = CARTESIAN_POINT('',(2.295706536574,-17.24900071239,1.153004913634
    ));
#415 = CARTESIAN_POINT('',(-3.135823689604E-07,-17.24900017934,
    1.553418779812));
#416 = CARTESIAN_POINT('',(-2.330431829733E-07,-17.24899992393,
    1.063333330875));
#417 = DEFINITIONAL_REPRESENTATION('',(#418),#422);
#418 = LINE('',#419,#420);
#419 = CARTESIAN_POINT('',(0.,0.));
#420 = VECTOR('',#421,1.);
#421 = DIRECTION('',(0.,1.));
#422 = ( GEOMETRIC_REPRESENTATION_CONTEXT(2) 
PARAMETRIC_REPRESENTATION_CONTEXT() REPRESENTATION_CONTEXT('2D SPACE',''
  ) );
#423 = ADVANCED_FACE('',(#424),#340,.T.);
#424 = FACE_BOUND('',#425,.T.);
#425 = EDGE_LOOP('',(#426,#427,#472,#505));
#426 = ORIENTED_EDGE('',*,*,#314,.T.);
#427 = ORIENTED_EDGE('',*,*,#428,.T.);
#428 = EDGE_CURVE('',#262,#429,#431,.T.);
#429 = VERTEX_POINT('',#430);
#430 = CARTESIAN_POINT('',(12.196884821225,-12.19688504296,
    4.625833333333));
#431 = SURFACE_CURVE('',#432,(#435,#442),.PCURVE_S1.);
#432 = B_SPLINE_CURVE_WITH_KNOTS('',1,(#433,#434),.UNSPECIFIED.,.F.,.F.,
  (2,2),(0.,1.),.PIECEWISE_BEZIER_KNOTS.);
#433 = CARTESIAN_POINT('',(12.196884773764,-12.19688521723,
    7.015833333333));
#434 = CARTESIAN_POINT('',(12.196884773763,-12.19688521723,
    4.625833333333));
#435 = PCURVE('',#340,#436);
#436 = DEFINITIONAL_REPRESENTATION('',(#437),#441);
#437 = LINE('',#438,#439);
#438 = CARTESIAN_POINT('',(6.629216708841,0.));
#439 = VECTOR('',#440,1.);
#440 = DIRECTION('',(0.,1.));
#441 = ( GEOMETRIC_REPRESENTATION_CONTEXT(2) 
PARAMETRIC_REPRESENTATION_CONTEXT() REPRESENTATION_CONTEXT('2D SPACE',''
  ) );
#442 = PCURVE('',#443,#466);
#443 = B_SPLINE_SURFACE_WITH_KNOTS('',6,1,(
    (#444,#445)
    ,(#446,#447)
    ,(#448,#449)
    ,(#450,#451)
    ,(#452,#453)
    ,(#454,#455)
    ,(#456,#457)
    ,(#458,#459)
    ,(#460,#461)
    ,(#462,#463)
    ,(#464,#465
    )),.UNSPECIFIED.,.F.,.F.,.F.,(7,4,7),(2,2),(0.,0.5,1.),(0.,1.),
  .UNSPECIFIED.);
#444 = CARTESIAN_POINT('',(12.196884773764,-12.19688521723,
    7.015833333333));
#445 = CARTESIAN_POINT('',(12.196884773763,-12.19688521723,
    4.625833333333));
#446 = CARTESIAN_POINT('',(13.793454183595,-10.6003136358,7.045701564984
    ));
#447 = CARTESIAN_POINT('',(13.793454183599,-10.6003136358,4.772353990571
    ));
#448 = CARTESIAN_POINT('',(15.139230319743,-8.752968744607,
    7.075569796635));
#449 = CARTESIAN_POINT('',(15.139230319737,-8.752968744611,
    4.918874647809));
#450 = CARTESIAN_POINT('',(16.184991032408,-6.704036654976,
    7.105438028286));
#451 = CARTESIAN_POINT('',(16.184991032415,-6.704036654972,
    5.065395305047));
#452 = CARTESIAN_POINT('',(16.894332749614,-4.515776702538,
    7.135306259937));
#453 = CARTESIAN_POINT('',(16.894332749611,-4.515776702541,
    5.211915962285));
#454 = CARTESIAN_POINT('',(17.60366715476,-4.268585485079E-12,
    7.195042723239));
#455 = CARTESIAN_POINT('',(17.603667154763,-6.163958232719E-13,
    5.504957276761));
#456 = CARTESIAN_POINT('',(16.894332749614,4.515776702546,7.254779186541
    ));
#457 = CARTESIAN_POINT('',(16.894332749612,4.515776702542,5.797998591237
    ));
#458 = CARTESIAN_POINT('',(16.184991032405,6.70403665496,7.284647418192)
  );
#459 = CARTESIAN_POINT('',(16.184991032409,6.704036654969,5.944519248474
    ));
#460 = CARTESIAN_POINT('',(15.139230319749,8.752968744623,7.314515649843
    ));
#461 = CARTESIAN_POINT('',(15.139230319744,8.752968744614,6.091039905713
    ));
#462 = CARTESIAN_POINT('',(13.793454183591,10.600313635794,
    7.344383881494));
#463 = CARTESIAN_POINT('',(13.793454183594,10.600313635798,6.23756056295
    ));
#464 = CARTESIAN_POINT('',(12.196884773765,12.196885217238,
    7.374252113145));
#465 = CARTESIAN_POINT('',(12.196884773765,12.196885217237,
    6.384081220188));
#466 = DEFINITIONAL_REPRESENTATION('',(#467),#471);
#467 = LINE('',#468,#469);
#468 = CARTESIAN_POINT('',(0.,0.));
#469 = VECTOR('',#470,1.);
#470 = DIRECTION('',(0.,1.));
#471 = ( GEOMETRIC_REPRESENTATION_CONTEXT(2) 
PARAMETRIC_REPRESENTATION_CONTEXT() REPRESENTATION_CONTEXT('2D SPACE',''
  ) );
#472 = ORIENTED_EDGE('',*,*,#473,.F.);
#473 = EDGE_CURVE('',#474,#429,#476,.T.);
#474 = VERTEX_POINT('',#475);
#475 = CARTESIAN_POINT('',(17.249000089671,1.567910397071E-07,
    0.921666666667));
#476 = SURFACE_CURVE('',#477,(#491,#498),.PCURVE_S1.);
#477 = B_SPLINE_CURVE_WITH_KNOTS('',12,(#478,#479,#480,#481,#482,#483,
    #484,#485,#486,#487,#488,#489,#490),.UNSPECIFIED.,.F.,.F.,(13,13),(
    0.,6.629216708841),.PIECEWISE_BEZIER_KNOTS.);
#478 = CARTESIAN_POINT('',(17.249,1.15463194561E-14,0.921666666667));
#479 = CARTESIAN_POINT('',(17.248999999999,7.902610870262,1.230347222223
    ));
#480 = CARTESIAN_POINT('',(13.299266935844,15.805191688554,
    1.539027777776));
#481 = CARTESIAN_POINT('',(5.399986389502,21.536578379975,1.847708333337
    ));
#482 = CARTESIAN_POINT('',(-5.123366575703,22.92376274375,2.156388888883
    ));
#483 = CARTESIAN_POINT('',(-15.61419762605,18.711948609322,
    2.465069444453));
#484 = CARTESIAN_POINT('',(-22.81925730402,9.452045858546,2.773749999991
    ));
#485 = CARTESIAN_POINT('',(-24.27225077498,-2.190440726601,
    3.082430555563));
#486 = CARTESIAN_POINT('',(-19.83231533464,-12.58678083829,
    3.391111111106));
#487 = CARTESIAN_POINT('',(-11.41029362168,-19.04702761033,
    3.699791666669));
#488 = CARTESIAN_POINT('',(-1.771956385794,-20.57996005608,
    4.008472222221));
#489 = CARTESIAN_POINT('',(6.608895133248,-17.78487460412,4.317152777778
    ));
#490 = CARTESIAN_POINT('',(12.196884868687,-12.19688486868,
    4.625833333333));
#491 = PCURVE('',#340,#492);
#492 = DEFINITIONAL_REPRESENTATION('',(#493),#497);
#493 = LINE('',#494,#495);
#494 = CARTESIAN_POINT('',(0.,1.));
#495 = VECTOR('',#496,1.);
#496 = DIRECTION('',(1.,0.));
#497 = ( GEOMETRIC_REPRESENTATION_CONTEXT(2) 
PARAMETRIC_REPRESENTATION_CONTEXT() REPRESENTATION_CONTEXT('2D SPACE',''
  ) );
#498 = PCURVE('',#76,#499);
#499 = DEFINITIONAL_REPRESENTATION('',(#500),#504);
#500 = LINE('',#501,#502);
#501 = CARTESIAN_POINT('',(0.,0.));
#502 = VECTOR('',#503,1.);
#503 = DIRECTION('',(1.,0.));
#504 = ( GEOMETRIC_REPRESENTATION_CONTEXT(2) 
PARAMETRIC_REPRESENTATION_CONTEXT() REPRESENTATION_CONTEXT('2D SPACE',''
  ) );
#505 = ORIENTED_EDGE('',*,*,#506,.T.);
#506 = EDGE_CURVE('',#474,#315,#507,.T.);
#507 = SURFACE_CURVE('',#508,(#511,#517),.PCURVE_S1.);
#508 = B_SPLINE_CURVE_WITH_KNOTS('',1,(#509,#510),.UNSPECIFIED.,.F.,.F.,
  (2,2),(0.,1.),.PIECEWISE_BEZIER_KNOTS.);
#509 = CARTESIAN_POINT('',(17.249000179341,3.135820794142E-07,
    0.921666666667));
#510 = CARTESIAN_POINT('',(17.249000179341,3.135827473244E-07,
    3.311666666667));
#511 = PCURVE('',#340,#512);
#512 = DEFINITIONAL_REPRESENTATION('',(#513),#516);
#513 = B_SPLINE_CURVE_WITH_KNOTS('',1,(#514,#515),.UNSPECIFIED.,.F.,.F.,
  (2,2),(0.,1.),.PIECEWISE_BEZIER_KNOTS.);
#514 = CARTESIAN_POINT('',(0.,1.));
#515 = CARTESIAN_POINT('',(0.,0.));
#516 = ( GEOMETRIC_REPRESENTATION_CONTEXT(2) 
PARAMETRIC_REPRESENTATION_CONTEXT() REPRESENTATION_CONTEXT('2D SPACE',''
  ) );
#517 = PCURVE('',#518,#541);
#518 = B_SPLINE_SURFACE_WITH_KNOTS('',6,1,(
    (#519,#520)
    ,(#521,#522)
    ,(#523,#524)
    ,(#525,#526)
    ,(#527,#528)
    ,(#529,#530)
    ,(#531,#532)
    ,(#533,#534)
    ,(#535,#536)
    ,(#537,#538)
    ,(#539,#540
    )),.UNSPECIFIED.,.F.,.F.,.F.,(7,4,7),(2,2),(0.,0.5,1.),(0.,1.),
  .UNSPECIFIED.);
#519 = CARTESIAN_POINT('',(17.249000179341,3.135820794142E-07,
    0.921666666667));
#520 = CARTESIAN_POINT('',(17.249000179341,3.135827473244E-07,
    3.311666666667));
#521 = CARTESIAN_POINT('',(17.248998643785,-2.257891334627,
    0.891798435016));
#522 = CARTESIAN_POINT('',(17.248998643787,-2.25789133463,3.165146009429
    ));
#523 = CARTESIAN_POINT('',(16.894335975861,-4.51576886621,0.861930203365
    ));
#524 = CARTESIAN_POINT('',(16.894335975859,-4.515768866202,
    3.018625352191));
#525 = CARTESIAN_POINT('',(16.184986692516,-6.704047132403,
    0.832061971714));
#526 = CARTESIAN_POINT('',(16.184986692518,-6.70404713241,2.872104694953
    ));
#527 = CARTESIAN_POINT('',(15.139233579563,-8.752960922185,
    0.802193740063));
#528 = CARTESIAN_POINT('',(15.139233579563,-8.752960922181,
    2.725584037715));
#529 = CARTESIAN_POINT('',(12.447672418885,-12.44767241887,
    0.742457276761));
#530 = CARTESIAN_POINT('',(12.447672418884,-12.44767241888,
    2.432542723239));
#531 = CARTESIAN_POINT('',(8.75296092218,-15.13923357956,0.682720813459)
  );
#532 = CARTESIAN_POINT('',(8.752960922181,-15.13923357956,2.139501408763
    ));
#533 = CARTESIAN_POINT('',(6.704047132411,-16.1849866925,0.652852581808)
  );
#534 = CARTESIAN_POINT('',(6.704047132408,-16.18498669251,1.992980751526
    ));
#535 = CARTESIAN_POINT('',(4.515768866202,-16.89433597587,0.622984350157
    ));
#536 = CARTESIAN_POINT('',(4.515768866205,-16.89433597586,1.846460094287
    ));
#537 = CARTESIAN_POINT('',(2.25789133463,-17.24899864377,0.593116118506)
  );
#538 = CARTESIAN_POINT('',(2.257891334629,-17.24899864378,1.69993943705)
  );
#539 = CARTESIAN_POINT('',(-3.135824719891E-07,-17.24900017934,
    0.563247886855));
#540 = CARTESIAN_POINT('',(-3.135823689604E-07,-17.24900017934,
    1.553418779812));
#541 = DEFINITIONAL_REPRESENTATION('',(#542),#546);
#542 = LINE('',#543,#544);
#543 = CARTESIAN_POINT('',(0.,0.));
#544 = VECTOR('',#545,1.);
#545 = DIRECTION('',(0.,1.));
#546 = ( GEOMETRIC_REPRESENTATION_CONTEXT(2) 
PARAMETRIC_REPRESENTATION_CONTEXT() REPRESENTATION_CONTEXT('2D SPACE',''
  ) );
#547 = ADVANCED_FACE('',(#548),#76,.T.);
#548 = FACE_BOUND('',#549,.T.);
#549 = EDGE_LOOP('',(#550,#551,#602,#603));
#550 = ORIENTED_EDGE('',*,*,#473,.T.);
#551 = ORIENTED_EDGE('',*,*,#552,.T.);
#552 = EDGE_CURVE('',#429,#24,#553,.T.);
#553 = SURFACE_CURVE('',#554,(#557,#564),.PCURVE_S1.);
#554 = B_SPLINE_CURVE_WITH_KNOTS('',1,(#555,#556),.UNSPECIFIED.,.F.,.F.,
  (2,2),(0.,1.),.PIECEWISE_BEZIER_KNOTS.);
#555 = CARTESIAN_POINT('',(12.196884773763,-12.19688521723,
    4.625833333333));
#556 = CARTESIAN_POINT('',(13.039049007504,-13.03904948855,4.83566244443
    ));
#557 = PCURVE('',#76,#558);
#558 = DEFINITIONAL_REPRESENTATION('',(#559),#563);
#559 = LINE('',#560,#561);
#560 = CARTESIAN_POINT('',(6.629216708841,0.));
#561 = VECTOR('',#562,1.);
#562 = DIRECTION('',(0.,1.));
#563 = ( GEOMETRIC_REPRESENTATION_CONTEXT(2) 
PARAMETRIC_REPRESENTATION_CONTEXT() REPRESENTATION_CONTEXT('2D SPACE',''
  ) );
#564 = PCURVE('',#565,#596);
#565 = B_SPLINE_SURFACE_WITH_KNOTS('',6,1,(
    (#566,#567)
    ,(#568,#569)
    ,(#570,#571)
    ,(#572,#573)
    ,(#574,#575)
    ,(#576,#577)
    ,(#578,#579)
    ,(#580,#581)
    ,(#582,#583)
    ,(#584,#585)
    ,(#586,#587)
    ,(#588,#589)
    ,(#590,#591)
    ,(#592,#593)
    ,(#594,#595
    )),.UNSPECIFIED.,.F.,.F.,.F.,(7,4,4,7),(2,2),(0.,0.5,0.504603753799,
    1.),(0.,1.),.UNSPECIFIED.);
#566 = CARTESIAN_POINT('',(12.196884773763,-12.19688521723,
    4.625833333333));
#567 = CARTESIAN_POINT('',(13.039049007504,-13.03904948855,4.83566244443
    ));
#568 = CARTESIAN_POINT('',(13.793454183599,-10.6003136358,4.772353990571
    ));
#569 = CARTESIAN_POINT('',(14.568586416447,-11.29828722971,
    4.920154028976));
#570 = CARTESIAN_POINT('',(15.139230319737,-8.752968744611,
    4.918874647809));
#571 = CARTESIAN_POINT('',(15.83505542535,-9.326438886789,5.005462514672
    ));
#572 = CARTESIAN_POINT('',(16.184991032415,-6.704036654972,
    5.065395305047));
#573 = CARTESIAN_POINT('',(16.79478562455,-7.17309470093,5.091626673177)
  );
#574 = CARTESIAN_POINT('',(16.894332749611,-4.515776702541,
    5.211915962285));
#575 = CARTESIAN_POINT('',(17.416688248095,-4.899235138032,5.17865350103
    ));
#576 = CARTESIAN_POINT('',(17.25226555315,-2.237098827119,5.359785709588
    ));
#577 = CARTESIAN_POINT('',(17.689434159773,-2.550149349972,
    5.267303170301));
#578 = CARTESIAN_POINT('',(17.248969884141,4.157904830391E-02,
    5.507655456891));
#579 = CARTESIAN_POINT('',(17.606821918401,-0.213158048494,
    5.356672567246));
#580 = CARTESIAN_POINT('',(17.248909748044,6.236851810423E-02,
    5.509004546956));
#581 = CARTESIAN_POINT('',(17.606038628109,-0.191837559617,
    5.357487989021));
#582 = CARTESIAN_POINT('',(17.248819544022,8.315787920075E-02,
    5.51035363702));
#583 = CARTESIAN_POINT('',(17.605225762806,-0.17051817998,5.358303470537
    ));
#584 = CARTESIAN_POINT('',(17.235757193474,2.341010812483,5.656874294258
    ));
#585 = CARTESIAN_POINT('',(17.513731085557,2.144790162026,5.446876970307
    ));
#586 = CARTESIAN_POINT('',(16.868036660391,4.596299317011,5.803394951496
    ));
#587 = CARTESIAN_POINT('',(17.073442292173,4.445805658781,5.536153139662
    ));
#588 = CARTESIAN_POINT('',(16.156028217407,6.760582019333,5.948566518669
    ));
#589 = CARTESIAN_POINT('',(16.297897020837,6.647734820825,5.625191554716
    ));
#590 = CARTESIAN_POINT('',(15.114426569942,8.786966368753,6.093738085843
    ));
#591 = CARTESIAN_POINT('',(15.202137556052,8.708911773316,5.714652753574
    ));
#592 = CARTESIAN_POINT('',(13.778753758621,10.615014080766,
    6.238909653015));
#593 = CARTESIAN_POINT('',(13.820195032054,10.573575712802,
    5.804324193409));
#594 = CARTESIAN_POINT('',(12.196884773765,12.196885217237,
    6.384081220188));
#595 = CARTESIAN_POINT('',(12.196884650117,12.19688497969,5.893995776168
    ));
#596 = DEFINITIONAL_REPRESENTATION('',(#597),#601);
#597 = LINE('',#598,#599);
#598 = CARTESIAN_POINT('',(0.,0.));
#599 = VECTOR('',#600,1.);
#600 = DIRECTION('',(0.,1.));
#601 = ( GEOMETRIC_REPRESENTATION_CONTEXT(2) 
PARAMETRIC_REPRESENTATION_CONTEXT() REPRESENTATION_CONTEXT('2D SPACE',''
  ) );
#602 = ORIENTED_EDGE('',*,*,#21,.F.);
#603 = ORIENTED_EDGE('',*,*,#604,.T.);
#604 = EDGE_CURVE('',#22,#474,#605,.T.);
#605 = SURFACE_CURVE('',#606,(#609,#615),.PCURVE_S1.);
#606 = B_SPLINE_CURVE_WITH_KNOTS('',1,(#607,#608),.UNSPECIFIED.,.F.,.F.,
  (2,2),(0.,1.),.PIECEWISE_BEZIER_KNOTS.);
#607 = CARTESIAN_POINT('',(18.440000287015,3.401560952909E-07,
    1.131495769656));
#608 = CARTESIAN_POINT('',(17.249000179341,3.135820794142E-07,
    0.921666666667));
#609 = PCURVE('',#76,#610);
#610 = DEFINITIONAL_REPRESENTATION('',(#611),#614);
#611 = B_SPLINE_CURVE_WITH_KNOTS('',1,(#612,#613),.UNSPECIFIED.,.F.,.F.,
  (2,2),(0.,1.),.PIECEWISE_BEZIER_KNOTS.);
#612 = CARTESIAN_POINT('',(0.,1.));
#613 = CARTESIAN_POINT('',(0.,0.));
#614 = ( GEOMETRIC_REPRESENTATION_CONTEXT(2) 
PARAMETRIC_REPRESENTATION_CONTEXT() REPRESENTATION_CONTEXT('2D SPACE',''
  ) );
#615 = PCURVE('',#616,#647);
#616 = B_SPLINE_SURFACE_WITH_KNOTS('',6,1,(
    (#617,#618)
    ,(#619,#620)
    ,(#621,#622)
    ,(#623,#624)
    ,(#625,#626)
    ,(#627,#628)
    ,(#629,#630)
    ,(#631,#632)
    ,(#633,#634)
    ,(#635,#636)
    ,(#637,#638)
    ,(#639,#640)
    ,(#641,#642)
    ,(#643,#644)
    ,(#645,#646
    )),.UNSPECIFIED.,.F.,.F.,.F.,(7,4,4,7),(2,2),(0.,0.5,0.504603753799,
    1.),(0.,1.),.UNSPECIFIED.);
#617 = CARTESIAN_POINT('',(18.440000287015,3.401560952909E-07,
    1.131495769656));
#618 = CARTESIAN_POINT('',(17.249000179341,3.135820794142E-07,
    0.921666666667));
#619 = CARTESIAN_POINT('',(18.290641763298,-2.312450731447,1.04700418511
    ));
#620 = CARTESIAN_POINT('',(17.248998643785,-2.257891334627,
    0.891798435016));
#621 = CARTESIAN_POINT('',(17.7918632529,-4.602286890559,0.961695699415)
  );
#622 = CARTESIAN_POINT('',(16.894335975861,-4.51576886621,0.861930203365
    ));
#623 = CARTESIAN_POINT('',(16.947850708815,-6.803562898572,
    0.875531540909));
#624 = CARTESIAN_POINT('',(16.184986692516,-6.704047132403,
    0.832061971714));
#625 = CARTESIAN_POINT('',(15.779740754769,-8.85117597731,0.788504713056
    ));
#626 = CARTESIAN_POINT('',(15.139233579563,-8.752960922185,
    0.802193740063));
#627 = CARTESIAN_POINT('',(14.311546748132,-10.70509095132,
    0.699855043785));
#628 = CARTESIAN_POINT('',(13.781061714304,-10.61732621262,
    0.772050496442));
#629 = CARTESIAN_POINT('',(12.6006286752,-12.29917767209,0.610485646841)
  );
#630 = CARTESIAN_POINT('',(12.167462746548,-12.22626440057,
    0.741907252821));
#631 = CARTESIAN_POINT('',(12.58499894306,-12.31369966447,0.609670225065
    ));
#632 = CARTESIAN_POINT('',(12.152719848833,-12.240922253,0.741632240851)
  );
#633 = CARTESIAN_POINT('',(12.56934908258,-12.32819995982,0.608854743549
    ));
#634 = CARTESIAN_POINT('',(12.137955766749,-12.25555876733,
    0.741357228881));
#635 = CARTESIAN_POINT('',(10.867482346684,-13.90067368226,
    0.520281243779));
#636 = CARTESIAN_POINT('',(10.532176170052,-13.84286541072,0.71148899723
    ));
#637 = CARTESIAN_POINT('',(8.929087493831,-15.21640615215,0.431005074425
    ));
#638 = CARTESIAN_POINT('',(8.677428692443,-15.17757752329,0.681620765579
    ));
#639 = CARTESIAN_POINT('',(6.823695131178,-16.22501187384,0.34196665937)
  );
#640 = CARTESIAN_POINT('',(6.643583718934,-16.20449050019,0.652027545898
    ));
#641 = CARTESIAN_POINT('',(4.591403982748,-16.90766512608,0.252505460512
    ));
#642 = CARTESIAN_POINT('',(4.474190015946,-16.90083702676,0.622434326217
    ));
#643 = CARTESIAN_POINT('',(2.295706536574,-17.24900071239,0.162834020677
    ));
#644 = CARTESIAN_POINT('',(2.237101780121,-17.24899865791,0.592841106536
    ));
#645 = CARTESIAN_POINT('',(-2.330431829733E-07,-17.24899992393,
    7.316243791811E-02));
#646 = CARTESIAN_POINT('',(-3.135824719891E-07,-17.24900017934,
    0.563247886855));
#647 = DEFINITIONAL_REPRESENTATION('',(#648),#652);
#648 = LINE('',#649,#650);
#649 = CARTESIAN_POINT('',(0.,0.));
#650 = VECTOR('',#651,1.);
#651 = DIRECTION('',(0.,1.));
#652 = ( GEOMETRIC_REPRESENTATION_CONTEXT(2) 
PARAMETRIC_REPRESENTATION_CONTEXT() REPRESENTATION_CONTEXT('2D SPACE',''
  ) );
#653 = ADVANCED_FACE('',(#654),#227,.T.);
#654 = FACE_BOUND('',#655,.T.);
#655 = EDGE_LOOP('',(#656,#687,#708,#729,#758));
#656 = ORIENTED_EDGE('',*,*,#657,.T.);
#657 = EDGE_CURVE('',#156,#658,#660,.T.);
#658 = VERTEX_POINT('',#659);
#659 = CARTESIAN_POINT('',(-2.733128014639E-07,-17.24900005164,
    1.063333330875));
#660 = SURFACE_CURVE('',#661,(#673,#680),.PCURVE_S1.);
#661 = B_SPLINE_CURVE_WITH_KNOTS('',6,(#662,#663,#664,#665,#666,#667,
    #668,#669,#670,#671,#672),.UNSPECIFIED.,.F.,.F.,(7,4,7),(0.,
    0.504603753799,1.),.UNSPECIFIED.);
#662 = CARTESIAN_POINT('',(18.440000287015,3.401560952909E-07,
    2.121666662613));
#663 = CARTESIAN_POINT('',(18.289266543555,-2.333742642261,
    2.036397121161));
#664 = CARTESIAN_POINT('',(17.782648615855,-4.644452340979,
    1.950295566055));
#665 = CARTESIAN_POINT('',(16.924449151386,-6.8643451199,1.863322144776)
  );
#666 = CARTESIAN_POINT('',(15.736554437412,-8.926511262374,
    1.775469966463));
#667 = CARTESIAN_POINT('',(12.805877199538,-12.58494121237,1.59972830609
    ));
#668 = CARTESIAN_POINT('',(8.929087493831,-15.21640615215,1.421175967381
    ));
#669 = CARTESIAN_POINT('',(6.823695131178,-16.22501187384,1.332137552327
    ));
#670 = CARTESIAN_POINT('',(4.591403982748,-16.90766512608,1.242676353469
    ));
#671 = CARTESIAN_POINT('',(2.295706536574,-17.24900071239,1.153004913634
    ));
#672 = CARTESIAN_POINT('',(-2.330431829733E-07,-17.24899992393,
    1.063333330875));
#673 = PCURVE('',#227,#674);
#674 = DEFINITIONAL_REPRESENTATION('',(#675),#679);
#675 = LINE('',#676,#677);
#676 = CARTESIAN_POINT('',(0.,0.));
#677 = VECTOR('',#678,1.);
#678 = DIRECTION('',(1.,0.));
#679 = ( GEOMETRIC_REPRESENTATION_CONTEXT(2) 
PARAMETRIC_REPRESENTATION_CONTEXT() REPRESENTATION_CONTEXT('2D SPACE',''
  ) );
#680 = PCURVE('',#386,#681);
#681 = DEFINITIONAL_REPRESENTATION('',(#682),#686);
#682 = LINE('',#683,#684);
#683 = CARTESIAN_POINT('',(0.,1.));
#684 = VECTOR('',#685,1.);
#685 = DIRECTION('',(1.,0.));
#686 = ( GEOMETRIC_REPRESENTATION_CONTEXT(2) 
PARAMETRIC_REPRESENTATION_CONTEXT() REPRESENTATION_CONTEXT('2D SPACE',''
  ) );
#687 = ORIENTED_EDGE('',*,*,#688,.T.);
#688 = EDGE_CURVE('',#658,#689,#691,.T.);
#689 = VERTEX_POINT('',#690);
#690 = CARTESIAN_POINT('',(-2.733128274812E-07,-17.24900005164,
    0.563247886855));
#691 = SURFACE_CURVE('',#692,(#695,#702),.PCURVE_S1.);
#692 = B_SPLINE_CURVE_WITH_KNOTS('',1,(#693,#694),.UNSPECIFIED.,.F.,.F.,
  (2,2),(0.,1.),.PIECEWISE_BEZIER_KNOTS.);
#693 = CARTESIAN_POINT('',(-2.330431829733E-07,-17.24899992393,
    1.063333330875));
#694 = CARTESIAN_POINT('',(-2.330431829733E-07,-17.24899992393,
    7.316243791811E-02));
#695 = PCURVE('',#227,#696);
#696 = DEFINITIONAL_REPRESENTATION('',(#697),#701);
#697 = LINE('',#698,#699);
#698 = CARTESIAN_POINT('',(1.,0.));
#699 = VECTOR('',#700,1.);
#700 = DIRECTION('',(0.,1.));
#701 = ( GEOMETRIC_REPRESENTATION_CONTEXT(2) 
PARAMETRIC_REPRESENTATION_CONTEXT() REPRESENTATION_CONTEXT('2D SPACE',''
  ) );
#702 = PCURVE('',#518,#703);
#703 = DEFINITIONAL_REPRESENTATION('',(#704),#707);
#704 = B_SPLINE_CURVE_WITH_KNOTS('',1,(#705,#706),.UNSPECIFIED.,.F.,.F.,
  (2,2),(0.,0.505049630904),.PIECEWISE_BEZIER_KNOTS.);
#705 = CARTESIAN_POINT('',(1.,0.505049630904));
#706 = CARTESIAN_POINT('',(1.,2.020605904818E-14));
#707 = ( GEOMETRIC_REPRESENTATION_CONTEXT(2) 
PARAMETRIC_REPRESENTATION_CONTEXT() REPRESENTATION_CONTEXT('2D SPACE',''
  ) );
#708 = ORIENTED_EDGE('',*,*,#709,.F.);
#709 = EDGE_CURVE('',#710,#689,#712,.T.);
#710 = VERTEX_POINT('',#711);
#711 = CARTESIAN_POINT('',(-2.330431829733E-07,-17.24899992393,
    7.316243791811E-02));
#712 = SURFACE_CURVE('',#713,(#716,#722),.PCURVE_S1.);
#713 = B_SPLINE_CURVE_WITH_KNOTS('',1,(#714,#715),.UNSPECIFIED.,.F.,.F.,
  (2,2),(0.,1.),.PIECEWISE_BEZIER_KNOTS.);
#714 = CARTESIAN_POINT('',(-2.330431829733E-07,-17.24899992393,
    7.316243791811E-02));
#715 = CARTESIAN_POINT('',(-3.135824719891E-07,-17.24900017934,
    0.563247886855));
#716 = PCURVE('',#227,#717);
#717 = DEFINITIONAL_REPRESENTATION('',(#718),#721);
#718 = B_SPLINE_CURVE_WITH_KNOTS('',1,(#719,#720),.UNSPECIFIED.,.F.,.F.,
  (2,2),(0.,1.),.PIECEWISE_BEZIER_KNOTS.);
#719 = CARTESIAN_POINT('',(1.,1.));
#720 = CARTESIAN_POINT('',(1.,0.505049630904));
#721 = ( GEOMETRIC_REPRESENTATION_CONTEXT(2) 
PARAMETRIC_REPRESENTATION_CONTEXT() REPRESENTATION_CONTEXT('2D SPACE',''
  ) );
#722 = PCURVE('',#616,#723);
#723 = DEFINITIONAL_REPRESENTATION('',(#724),#728);
#724 = LINE('',#725,#726);
#725 = CARTESIAN_POINT('',(1.,0.));
#726 = VECTOR('',#727,1.);
#727 = DIRECTION('',(0.,1.));
#728 = ( GEOMETRIC_REPRESENTATION_CONTEXT(2) 
PARAMETRIC_REPRESENTATION_CONTEXT() REPRESENTATION_CONTEXT('2D SPACE',''
  ) );
#729 = ORIENTED_EDGE('',*,*,#730,.F.);
#730 = EDGE_CURVE('',#22,#710,#731,.T.);
#731 = SURFACE_CURVE('',#732,(#744,#751),.PCURVE_S1.);
#732 = B_SPLINE_CURVE_WITH_KNOTS('',6,(#733,#734,#735,#736,#737,#738,
    #739,#740,#741,#742,#743),.UNSPECIFIED.,.F.,.F.,(7,4,7),(0.,
    0.504603753799,1.),.UNSPECIFIED.);
#733 = CARTESIAN_POINT('',(18.440000287015,3.401560952909E-07,
    1.131495769656));
#734 = CARTESIAN_POINT('',(18.289266543555,-2.333742642261,
    1.046226228204));
#735 = CARTESIAN_POINT('',(17.782648615855,-4.644452340979,
    0.960124673099));
#736 = CARTESIAN_POINT('',(16.924449151386,-6.8643451199,0.873151251819)
  );
#737 = CARTESIAN_POINT('',(15.736554437412,-8.926511262374,
    0.785299073506));
#738 = CARTESIAN_POINT('',(12.805877199538,-12.58494121237,
    0.609557413133));
#739 = CARTESIAN_POINT('',(8.929087493831,-15.21640615215,0.431005074425
    ));
#740 = CARTESIAN_POINT('',(6.823695131178,-16.22501187384,0.34196665937)
  );
#741 = CARTESIAN_POINT('',(4.591403982748,-16.90766512608,0.252505460512
    ));
#742 = CARTESIAN_POINT('',(2.295706536574,-17.24900071239,0.162834020677
    ));
#743 = CARTESIAN_POINT('',(-2.330431829733E-07,-17.24899992393,
    7.316243791811E-02));
#744 = PCURVE('',#227,#745);
#745 = DEFINITIONAL_REPRESENTATION('',(#746),#750);
#746 = LINE('',#747,#748);
#747 = CARTESIAN_POINT('',(0.,1.));
#748 = VECTOR('',#749,1.);
#749 = DIRECTION('',(1.,0.));
#750 = ( GEOMETRIC_REPRESENTATION_CONTEXT(2) 
PARAMETRIC_REPRESENTATION_CONTEXT() REPRESENTATION_CONTEXT('2D SPACE',''
  ) );
#751 = PCURVE('',#616,#752);
#752 = DEFINITIONAL_REPRESENTATION('',(#753),#757);
#753 = LINE('',#754,#755);
#754 = CARTESIAN_POINT('',(0.,0.));
#755 = VECTOR('',#756,1.);
#756 = DIRECTION('',(1.,0.));
#757 = ( GEOMETRIC_REPRESENTATION_CONTEXT(2) 
PARAMETRIC_REPRESENTATION_CONTEXT() REPRESENTATION_CONTEXT('2D SPACE',''
  ) );
#758 = ORIENTED_EDGE('',*,*,#215,.F.);
#759 = ADVANCED_FACE('',(#760),#616,.T.);
#760 = FACE_BOUND('',#761,.T.);
#761 = EDGE_LOOP('',(#762,#763,#764,#793));
#762 = ORIENTED_EDGE('',*,*,#730,.T.);
#763 = ORIENTED_EDGE('',*,*,#709,.T.);
#764 = ORIENTED_EDGE('',*,*,#765,.F.);
#765 = EDGE_CURVE('',#474,#689,#766,.T.);
#766 = SURFACE_CURVE('',#767,(#779,#786),.PCURVE_S1.);
#767 = B_SPLINE_CURVE_WITH_KNOTS('',6,(#768,#769,#770,#771,#772,#773,
    #774,#775,#776,#777,#778),.UNSPECIFIED.,.F.,.F.,(7,4,7),(0.,0.5,1.),
  .UNSPECIFIED.);
#768 = CARTESIAN_POINT('',(17.249000179341,3.135820794142E-07,
    0.921666666667));
#769 = CARTESIAN_POINT('',(17.248998643785,-2.257891334627,
    0.891798435016));
#770 = CARTESIAN_POINT('',(16.894335975861,-4.51576886621,0.861930203365
    ));
#771 = CARTESIAN_POINT('',(16.184986692516,-6.704047132403,
    0.832061971714));
#772 = CARTESIAN_POINT('',(15.139233579563,-8.752960922185,
    0.802193740063));
#773 = CARTESIAN_POINT('',(12.447672418885,-12.44767241887,
    0.742457276761));
#774 = CARTESIAN_POINT('',(8.75296092218,-15.13923357956,0.682720813459)
  );
#775 = CARTESIAN_POINT('',(6.704047132411,-16.1849866925,0.652852581808)
  );
#776 = CARTESIAN_POINT('',(4.515768866202,-16.89433597587,0.622984350157
    ));
#777 = CARTESIAN_POINT('',(2.25789133463,-17.24899864377,0.593116118506)
  );
#778 = CARTESIAN_POINT('',(-3.135824719891E-07,-17.24900017934,
    0.563247886855));
#779 = PCURVE('',#616,#780);
#780 = DEFINITIONAL_REPRESENTATION('',(#781),#785);
#781 = LINE('',#782,#783);
#782 = CARTESIAN_POINT('',(0.,1.));
#783 = VECTOR('',#784,1.);
#784 = DIRECTION('',(1.,0.));
#785 = ( GEOMETRIC_REPRESENTATION_CONTEXT(2) 
PARAMETRIC_REPRESENTATION_CONTEXT() REPRESENTATION_CONTEXT('2D SPACE',''
  ) );
#786 = PCURVE('',#518,#787);
#787 = DEFINITIONAL_REPRESENTATION('',(#788),#792);
#788 = LINE('',#789,#790);
#789 = CARTESIAN_POINT('',(0.,0.));
#790 = VECTOR('',#791,1.);
#791 = DIRECTION('',(1.,0.));
#792 = ( GEOMETRIC_REPRESENTATION_CONTEXT(2) 
PARAMETRIC_REPRESENTATION_CONTEXT() REPRESENTATION_CONTEXT('2D SPACE',''
  ) );
#793 = ORIENTED_EDGE('',*,*,#604,.F.);
#794 = ADVANCED_FACE('',(#795),#518,.T.);
#795 = FACE_BOUND('',#796,.T.);
#796 = EDGE_LOOP('',(#797,#798,#799,#820,#849));
#797 = ORIENTED_EDGE('',*,*,#765,.T.);
#798 = ORIENTED_EDGE('',*,*,#688,.F.);
#799 = ORIENTED_EDGE('',*,*,#800,.F.);
#800 = EDGE_CURVE('',#801,#658,#803,.T.);
#801 = VERTEX_POINT('',#802);
#802 = CARTESIAN_POINT('',(-3.135823689604E-07,-17.24900017934,
    1.553418779812));
#803 = SURFACE_CURVE('',#804,(#807,#813),.PCURVE_S1.);
#804 = B_SPLINE_CURVE_WITH_KNOTS('',1,(#805,#806),.UNSPECIFIED.,.F.,.F.,
  (2,2),(0.,1.),.PIECEWISE_BEZIER_KNOTS.);
#805 = CARTESIAN_POINT('',(-3.135823689604E-07,-17.24900017934,
    1.553418779812));
#806 = CARTESIAN_POINT('',(-2.330431829733E-07,-17.24899992393,
    1.063333330875));
#807 = PCURVE('',#518,#808);
#808 = DEFINITIONAL_REPRESENTATION('',(#809),#812);
#809 = B_SPLINE_CURVE_WITH_KNOTS('',1,(#810,#811),.UNSPECIFIED.,.F.,.F.,
  (2,2),(0.,1.),.PIECEWISE_BEZIER_KNOTS.);
#810 = CARTESIAN_POINT('',(1.,1.));
#811 = CARTESIAN_POINT('',(1.,0.505049630904));
#812 = ( GEOMETRIC_REPRESENTATION_CONTEXT(2) 
PARAMETRIC_REPRESENTATION_CONTEXT() REPRESENTATION_CONTEXT('2D SPACE',''
  ) );
#813 = PCURVE('',#386,#814);
#814 = DEFINITIONAL_REPRESENTATION('',(#815),#819);
#815 = LINE('',#816,#817);
#816 = CARTESIAN_POINT('',(1.,0.));
#817 = VECTOR('',#818,1.);
#818 = DIRECTION('',(0.,1.));
#819 = ( GEOMETRIC_REPRESENTATION_CONTEXT(2) 
PARAMETRIC_REPRESENTATION_CONTEXT() REPRESENTATION_CONTEXT('2D SPACE',''
  ) );
#820 = ORIENTED_EDGE('',*,*,#821,.F.);
#821 = EDGE_CURVE('',#315,#801,#822,.T.);
#822 = SURFACE_CURVE('',#823,(#835,#842),.PCURVE_S1.);
#823 = B_SPLINE_CURVE_WITH_KNOTS('',6,(#824,#825,#826,#827,#828,#829,
    #830,#831,#832,#833,#834),.UNSPECIFIED.,.F.,.F.,(7,4,7),(0.,0.5,1.),
  .UNSPECIFIED.);
#824 = CARTESIAN_POINT('',(17.249000179341,3.135827473244E-07,
    3.311666666667));
#825 = CARTESIAN_POINT('',(17.248998643787,-2.25789133463,3.165146009429
    ));
#826 = CARTESIAN_POINT('',(16.894335975859,-4.515768866202,
    3.018625352191));
#827 = CARTESIAN_POINT('',(16.184986692518,-6.70404713241,2.872104694953
    ));
#828 = CARTESIAN_POINT('',(15.139233579563,-8.752960922181,
    2.725584037715));
#829 = CARTESIAN_POINT('',(12.447672418884,-12.44767241888,
    2.432542723239));
#830 = CARTESIAN_POINT('',(8.752960922181,-15.13923357956,2.139501408763
    ));
#831 = CARTESIAN_POINT('',(6.704047132408,-16.18498669251,1.992980751526
    ));
#832 = CARTESIAN_POINT('',(4.515768866205,-16.89433597586,1.846460094287
    ));
#833 = CARTESIAN_POINT('',(2.257891334629,-17.24899864378,1.69993943705)
  );
#834 = CARTESIAN_POINT('',(-3.135823689604E-07,-17.24900017934,
    1.553418779812));
#835 = PCURVE('',#518,#836);
#836 = DEFINITIONAL_REPRESENTATION('',(#837),#841);
#837 = LINE('',#838,#839);
#838 = CARTESIAN_POINT('',(0.,1.));
#839 = VECTOR('',#840,1.);
#840 = DIRECTION('',(1.,0.));
#841 = ( GEOMETRIC_REPRESENTATION_CONTEXT(2) 
PARAMETRIC_REPRESENTATION_CONTEXT() REPRESENTATION_CONTEXT('2D SPACE',''
  ) );
#842 = PCURVE('',#386,#843);
#843 = DEFINITIONAL_REPRESENTATION('',(#844),#848);
#844 = LINE('',#845,#846);
#845 = CARTESIAN_POINT('',(0.,0.));
#846 = VECTOR('',#847,1.);
#847 = DIRECTION('',(1.,0.));
#848 = ( GEOMETRIC_REPRESENTATION_CONTEXT(2) 
PARAMETRIC_REPRESENTATION_CONTEXT() REPRESENTATION_CONTEXT('2D SPACE',''
  ) );
#849 = ORIENTED_EDGE('',*,*,#506,.F.);
#850 = ADVANCED_FACE('',(#851),#386,.T.);
#851 = FACE_BOUND('',#852,.T.);
#852 = EDGE_LOOP('',(#853,#854,#855,#856));
#853 = ORIENTED_EDGE('',*,*,#821,.T.);
#854 = ORIENTED_EDGE('',*,*,#800,.T.);
#855 = ORIENTED_EDGE('',*,*,#657,.F.);
#856 = ORIENTED_EDGE('',*,*,#374,.F.);
#857 = ADVANCED_FACE('',(#858),#125,.T.);
#858 = FACE_BOUND('',#859,.T.);
#859 = EDGE_LOOP('',(#860,#891,#912,#933,#962));
#860 = ORIENTED_EDGE('',*,*,#861,.T.);
#861 = EDGE_CURVE('',#24,#862,#864,.T.);
#862 = VERTEX_POINT('',#863);
#863 = CARTESIAN_POINT('',(12.196884650117,12.19688497969,5.893995776168
    ));
#864 = SURFACE_CURVE('',#865,(#877,#884),.PCURVE_S1.);
#865 = B_SPLINE_CURVE_WITH_KNOTS('',6,(#866,#867,#868,#869,#870,#871,
    #872,#873,#874,#875,#876),.UNSPECIFIED.,.F.,.F.,(7,4,7),(0.,
    0.504603753799,1.),.UNSPECIFIED.);
#866 = CARTESIAN_POINT('',(13.039049007504,-13.03904948855,4.83566244443
    ));
#867 = CARTESIAN_POINT('',(14.582669643763,-11.28225914798,
    4.920931985882));
#868 = CARTESIAN_POINT('',(15.858355168932,-9.290107678525,
    5.007033540988));
#869 = CARTESIAN_POINT('',(16.821217745478,-7.113567780106,
    5.094006962268));
#870 = CARTESIAN_POINT('',(17.439421001168,-4.815427709243,5.18185914058
    ));
#871 = CARTESIAN_POINT('',(17.954019878942,-0.156225334729,
    5.357600800953));
#872 = CARTESIAN_POINT('',(17.073442292173,4.445805658781,5.536153139662
    ));
#873 = CARTESIAN_POINT('',(16.297897020837,6.647734820825,5.625191554716
    ));
#874 = CARTESIAN_POINT('',(15.202137556052,8.708911773316,5.714652753574
    ));
#875 = CARTESIAN_POINT('',(13.820195032054,10.573575712802,
    5.804324193409));
#876 = CARTESIAN_POINT('',(12.196884650117,12.19688497969,5.893995776168
    ));
#877 = PCURVE('',#125,#878);
#878 = DEFINITIONAL_REPRESENTATION('',(#879),#883);
#879 = LINE('',#880,#881);
#880 = CARTESIAN_POINT('',(0.,0.));
#881 = VECTOR('',#882,1.);
#882 = DIRECTION('',(1.,0.));
#883 = ( GEOMETRIC_REPRESENTATION_CONTEXT(2) 
PARAMETRIC_REPRESENTATION_CONTEXT() REPRESENTATION_CONTEXT('2D SPACE',''
  ) );
#884 = PCURVE('',#565,#885);
#885 = DEFINITIONAL_REPRESENTATION('',(#886),#890);
#886 = LINE('',#887,#888);
#887 = CARTESIAN_POINT('',(0.,1.));
#888 = VECTOR('',#889,1.);
#889 = DIRECTION('',(1.,0.));
#890 = ( GEOMETRIC_REPRESENTATION_CONTEXT(2) 
PARAMETRIC_REPRESENTATION_CONTEXT() REPRESENTATION_CONTEXT('2D SPACE',''
  ) );
#891 = ORIENTED_EDGE('',*,*,#892,.F.);
#892 = EDGE_CURVE('',#893,#862,#895,.T.);
#893 = VERTEX_POINT('',#894);
#894 = CARTESIAN_POINT('',(12.196884711941,12.196885098464,
    6.384081220188));
#895 = SURFACE_CURVE('',#896,(#899,#905),.PCURVE_S1.);
#896 = B_SPLINE_CURVE_WITH_KNOTS('',1,(#897,#898),.UNSPECIFIED.,.F.,.F.,
  (2,2),(0.,1.),.PIECEWISE_BEZIER_KNOTS.);
#897 = CARTESIAN_POINT('',(12.196884773765,12.196885217237,
    6.384081220188));
#898 = CARTESIAN_POINT('',(12.196884650117,12.19688497969,5.893995776168
    ));
#899 = PCURVE('',#125,#900);
#900 = DEFINITIONAL_REPRESENTATION('',(#901),#904);
#901 = B_SPLINE_CURVE_WITH_KNOTS('',1,(#902,#903),.UNSPECIFIED.,.F.,.F.,
  (2,2),(0.,1.),.PIECEWISE_BEZIER_KNOTS.);
#902 = CARTESIAN_POINT('',(1.,0.49495036413));
#903 = CARTESIAN_POINT('',(1.,0.));
#904 = ( GEOMETRIC_REPRESENTATION_CONTEXT(2) 
PARAMETRIC_REPRESENTATION_CONTEXT() REPRESENTATION_CONTEXT('2D SPACE',''
  ) );
#905 = PCURVE('',#565,#906);
#906 = DEFINITIONAL_REPRESENTATION('',(#907),#911);
#907 = LINE('',#908,#909);
#908 = CARTESIAN_POINT('',(1.,0.));
#909 = VECTOR('',#910,1.);
#910 = DIRECTION('',(0.,1.));
#911 = ( GEOMETRIC_REPRESENTATION_CONTEXT(2) 
PARAMETRIC_REPRESENTATION_CONTEXT() REPRESENTATION_CONTEXT('2D SPACE',''
  ) );
#912 = ORIENTED_EDGE('',*,*,#913,.T.);
#913 = EDGE_CURVE('',#893,#914,#916,.T.);
#914 = VERTEX_POINT('',#915);
#915 = CARTESIAN_POINT('',(12.196884711941,12.196885098464,
    6.884166669125));
#916 = SURFACE_CURVE('',#917,(#920,#927),.PCURVE_S1.);
#917 = B_SPLINE_CURVE_WITH_KNOTS('',1,(#918,#919),.UNSPECIFIED.,.F.,.F.,
  (2,2),(0.,1.),.PIECEWISE_BEZIER_KNOTS.);
#918 = CARTESIAN_POINT('',(12.196884650117,12.19688497969,5.893995776168
    ));
#919 = CARTESIAN_POINT('',(12.196884650117,12.19688497969,6.884166669125
    ));
#920 = PCURVE('',#125,#921);
#921 = DEFINITIONAL_REPRESENTATION('',(#922),#926);
#922 = LINE('',#923,#924);
#923 = CARTESIAN_POINT('',(1.,0.));
#924 = VECTOR('',#925,1.);
#925 = DIRECTION('',(0.,1.));
#926 = ( GEOMETRIC_REPRESENTATION_CONTEXT(2) 
PARAMETRIC_REPRESENTATION_CONTEXT() REPRESENTATION_CONTEXT('2D SPACE',''
  ) );
#927 = PCURVE('',#443,#928);
#928 = DEFINITIONAL_REPRESENTATION('',(#929),#932);
#929 = B_SPLINE_CURVE_WITH_KNOTS('',1,(#930,#931),.UNSPECIFIED.,.F.,.F.,
  (2,2),(0.49495036413,1.),.PIECEWISE_BEZIER_KNOTS.);
#930 = CARTESIAN_POINT('',(1.,1.));
#931 = CARTESIAN_POINT('',(1.,0.49495036413));
#932 = ( GEOMETRIC_REPRESENTATION_CONTEXT(2) 
PARAMETRIC_REPRESENTATION_CONTEXT() REPRESENTATION_CONTEXT('2D SPACE',''
  ) );
#933 = ORIENTED_EDGE('',*,*,#934,.F.);
#934 = EDGE_CURVE('',#111,#914,#935,.T.);
#935 = SURFACE_CURVE('',#936,(#948,#955),.PCURVE_S1.);
#936 = B_SPLINE_CURVE_WITH_KNOTS('',6,(#937,#938,#939,#940,#941,#942,
    #943,#944,#945,#946,#947),.UNSPECIFIED.,.F.,.F.,(7,4,7),(0.,
    0.504603753799,1.),.UNSPECIFIED.);
#937 = CARTESIAN_POINT('',(13.039049007504,-13.03904948855,
    5.825833337387));
#938 = CARTESIAN_POINT('',(14.582669643763,-11.28225914798,
    5.911102878839));
#939 = CARTESIAN_POINT('',(15.858355168932,-9.290107678525,
    5.997204433945));
#940 = CARTESIAN_POINT('',(16.821217745478,-7.113567780106,
    6.084177855224));
#941 = CARTESIAN_POINT('',(17.439421001168,-4.815427709243,
    6.172030033537));
#942 = CARTESIAN_POINT('',(17.954019878942,-0.156225334729,6.34777169391
    ));
#943 = CARTESIAN_POINT('',(17.073442292173,4.445805658781,6.526324032619
    ));
#944 = CARTESIAN_POINT('',(16.297897020837,6.647734820825,6.615362447673
    ));
#945 = CARTESIAN_POINT('',(15.202137556052,8.708911773316,6.704823646531
    ));
#946 = CARTESIAN_POINT('',(13.820195032054,10.573575712802,
    6.794495086366));
#947 = CARTESIAN_POINT('',(12.196884650117,12.19688497969,6.884166669125
    ));
#948 = PCURVE('',#125,#949);
#949 = DEFINITIONAL_REPRESENTATION('',(#950),#954);
#950 = LINE('',#951,#952);
#951 = CARTESIAN_POINT('',(0.,1.));
#952 = VECTOR('',#953,1.);
#953 = DIRECTION('',(1.,0.));
#954 = ( GEOMETRIC_REPRESENTATION_CONTEXT(2) 
PARAMETRIC_REPRESENTATION_CONTEXT() REPRESENTATION_CONTEXT('2D SPACE',''
  ) );
#955 = PCURVE('',#276,#956);
#956 = DEFINITIONAL_REPRESENTATION('',(#957),#961);
#957 = LINE('',#958,#959);
#958 = CARTESIAN_POINT('',(0.,0.));
#959 = VECTOR('',#960,1.);
#960 = DIRECTION('',(1.,0.));
#961 = ( GEOMETRIC_REPRESENTATION_CONTEXT(2) 
PARAMETRIC_REPRESENTATION_CONTEXT() REPRESENTATION_CONTEXT('2D SPACE',''
  ) );
#962 = ORIENTED_EDGE('',*,*,#110,.F.);
#963 = ADVANCED_FACE('',(#964),#276,.T.);
#964 = FACE_BOUND('',#965,.T.);
#965 = EDGE_LOOP('',(#966,#967,#988,#1017));
#966 = ORIENTED_EDGE('',*,*,#934,.T.);
#967 = ORIENTED_EDGE('',*,*,#968,.T.);
#968 = EDGE_CURVE('',#914,#969,#971,.T.);
#969 = VERTEX_POINT('',#970);
#970 = CARTESIAN_POINT('',(12.196884773765,12.196885217238,
    7.374252113145));
#971 = SURFACE_CURVE('',#972,(#975,#982),.PCURVE_S1.);
#972 = B_SPLINE_CURVE_WITH_KNOTS('',1,(#973,#974),.UNSPECIFIED.,.F.,.F.,
  (2,2),(0.,1.),.PIECEWISE_BEZIER_KNOTS.);
#973 = CARTESIAN_POINT('',(12.196884650117,12.19688497969,6.884166669125
    ));
#974 = CARTESIAN_POINT('',(12.196884773765,12.196885217238,
    7.374252113145));
#975 = PCURVE('',#276,#976);
#976 = DEFINITIONAL_REPRESENTATION('',(#977),#981);
#977 = LINE('',#978,#979);
#978 = CARTESIAN_POINT('',(1.,0.));
#979 = VECTOR('',#980,1.);
#980 = DIRECTION('',(0.,1.));
#981 = ( GEOMETRIC_REPRESENTATION_CONTEXT(2) 
PARAMETRIC_REPRESENTATION_CONTEXT() REPRESENTATION_CONTEXT('2D SPACE',''
  ) );
#982 = PCURVE('',#443,#983);
#983 = DEFINITIONAL_REPRESENTATION('',(#984),#987);
#984 = B_SPLINE_CURVE_WITH_KNOTS('',1,(#985,#986),.UNSPECIFIED.,.F.,.F.,
  (2,2),(0.,1.),.PIECEWISE_BEZIER_KNOTS.);
#985 = CARTESIAN_POINT('',(1.,0.49495036413));
#986 = CARTESIAN_POINT('',(1.,0.));
#987 = ( GEOMETRIC_REPRESENTATION_CONTEXT(2) 
PARAMETRIC_REPRESENTATION_CONTEXT() REPRESENTATION_CONTEXT('2D SPACE',''
  ) );
#988 = ORIENTED_EDGE('',*,*,#989,.F.);
#989 = EDGE_CURVE('',#262,#969,#990,.T.);
#990 = SURFACE_CURVE('',#991,(#1003,#1010),.PCURVE_S1.);
#991 = B_SPLINE_CURVE_WITH_KNOTS('',6,(#992,#993,#994,#995,#996,#997,
    #998,#999,#1000,#1001,#1002),.UNSPECIFIED.,.F.,.F.,(7,4,7),(0.,0.5,
    1.),.UNSPECIFIED.);
#992 = CARTESIAN_POINT('',(12.196884773764,-12.19688521723,
    7.015833333333));
#993 = CARTESIAN_POINT('',(13.793454183595,-10.6003136358,7.045701564984
    ));
#994 = CARTESIAN_POINT('',(15.139230319743,-8.752968744607,
    7.075569796635));
#995 = CARTESIAN_POINT('',(16.184991032408,-6.704036654976,
    7.105438028286));
#996 = CARTESIAN_POINT('',(16.894332749614,-4.515776702538,
    7.135306259937));
#997 = CARTESIAN_POINT('',(17.60366715476,-4.268585485079E-12,
    7.195042723239));
#998 = CARTESIAN_POINT('',(16.894332749614,4.515776702546,7.254779186541
    ));
#999 = CARTESIAN_POINT('',(16.184991032405,6.70403665496,7.284647418192)
  );
#1000 = CARTESIAN_POINT('',(15.139230319749,8.752968744623,
    7.314515649843));
#1001 = CARTESIAN_POINT('',(13.793454183591,10.600313635794,
    7.344383881494));
#1002 = CARTESIAN_POINT('',(12.196884773765,12.196885217238,
    7.374252113145));
#1003 = PCURVE('',#276,#1004);
#1004 = DEFINITIONAL_REPRESENTATION('',(#1005),#1009);
#1005 = LINE('',#1006,#1007);
#1006 = CARTESIAN_POINT('',(0.,1.));
#1007 = VECTOR('',#1008,1.);
#1008 = DIRECTION('',(1.,0.));
#1009 = ( GEOMETRIC_REPRESENTATION_CONTEXT(2) 
PARAMETRIC_REPRESENTATION_CONTEXT() REPRESENTATION_CONTEXT('2D SPACE',''
  ) );
#1010 = PCURVE('',#443,#1011);
#1011 = DEFINITIONAL_REPRESENTATION('',(#1012),#1016);
#1012 = LINE('',#1013,#1014);
#1013 = CARTESIAN_POINT('',(0.,0.));
#1014 = VECTOR('',#1015,1.);
#1015 = DIRECTION('',(1.,0.));
#1016 = ( GEOMETRIC_REPRESENTATION_CONTEXT(2) 
PARAMETRIC_REPRESENTATION_CONTEXT() REPRESENTATION_CONTEXT('2D SPACE',''
  ) );
#1017 = ORIENTED_EDGE('',*,*,#261,.F.);
#1018 = ADVANCED_FACE('',(#1019),#443,.T.);
#1019 = FACE_BOUND('',#1020,.T.);
#1020 = EDGE_LOOP('',(#1021,#1022,#1023,#1024,#1053));
#1021 = ORIENTED_EDGE('',*,*,#989,.T.);
#1022 = ORIENTED_EDGE('',*,*,#968,.F.);
#1023 = ORIENTED_EDGE('',*,*,#913,.F.);
#1024 = ORIENTED_EDGE('',*,*,#1025,.F.);
#1025 = EDGE_CURVE('',#429,#893,#1026,.T.);
#1026 = SURFACE_CURVE('',#1027,(#1039,#1046),.PCURVE_S1.);
#1027 = B_SPLINE_CURVE_WITH_KNOTS('',6,(#1028,#1029,#1030,#1031,#1032,
    #1033,#1034,#1035,#1036,#1037,#1038),.UNSPECIFIED.,.F.,.F.,(7,4,7),(
    0.,0.5,1.),.UNSPECIFIED.);
#1028 = CARTESIAN_POINT('',(12.196884773763,-12.19688521723,
    4.625833333333));
#1029 = CARTESIAN_POINT('',(13.793454183599,-10.6003136358,
    4.772353990571));
#1030 = CARTESIAN_POINT('',(15.139230319737,-8.752968744611,
    4.918874647809));
#1031 = CARTESIAN_POINT('',(16.184991032415,-6.704036654972,
    5.065395305047));
#1032 = CARTESIAN_POINT('',(16.894332749611,-4.515776702541,
    5.211915962285));
#1033 = CARTESIAN_POINT('',(17.603667154763,-6.163958232719E-13,
    5.504957276761));
#1034 = CARTESIAN_POINT('',(16.894332749612,4.515776702542,
    5.797998591237));
#1035 = CARTESIAN_POINT('',(16.184991032409,6.704036654969,
    5.944519248474));
#1036 = CARTESIAN_POINT('',(15.139230319744,8.752968744614,
    6.091039905713));
#1037 = CARTESIAN_POINT('',(13.793454183594,10.600313635798,
    6.23756056295));
#1038 = CARTESIAN_POINT('',(12.196884773765,12.196885217237,
    6.384081220188));
#1039 = PCURVE('',#443,#1040);
#1040 = DEFINITIONAL_REPRESENTATION('',(#1041),#1045);
#1041 = LINE('',#1042,#1043);
#1042 = CARTESIAN_POINT('',(0.,1.));
#1043 = VECTOR('',#1044,1.);
#1044 = DIRECTION('',(1.,0.));
#1045 = ( GEOMETRIC_REPRESENTATION_CONTEXT(2) 
PARAMETRIC_REPRESENTATION_CONTEXT() REPRESENTATION_CONTEXT('2D SPACE',''
  ) );
#1046 = PCURVE('',#565,#1047);
#1047 = DEFINITIONAL_REPRESENTATION('',(#1048),#1052);
#1048 = LINE('',#1049,#1050);
#1049 = CARTESIAN_POINT('',(0.,0.));
#1050 = VECTOR('',#1051,1.);
#1051 = DIRECTION('',(1.,0.));
#1052 = ( GEOMETRIC_REPRESENTATION_CONTEXT(2) 
PARAMETRIC_REPRESENTATION_CONTEXT() REPRESENTATION_CONTEXT('2D SPACE',''
  ) );
#1053 = ORIENTED_EDGE('',*,*,#428,.F.);
#1054 = ADVANCED_FACE('',(#1055),#565,.T.);
#1055 = FACE_BOUND('',#1056,.T.);
#1056 = EDGE_LOOP('',(#1057,#1058,#1059,#1060));
#1057 = ORIENTED_EDGE('',*,*,#1025,.T.);
#1058 = ORIENTED_EDGE('',*,*,#892,.T.);
#1059 = ORIENTED_EDGE('',*,*,#861,.F.);
#1060 = ORIENTED_EDGE('',*,*,#552,.F.);
#1061 = ( GEOMETRIC_REPRESENTATION_CONTEXT(3) 
GLOBAL_UNCERTAINTY_ASSIGNED_CONTEXT((#1065)) 
GLOBAL_UNIT_ASSIGNED_CONTEXT((#1062,#1063,#1064)) REPRESENTATION_CONTEXT
('Context #1','3D Context with UNIT and UNCERTAINTY') );
#1062 = ( LENGTH_UNIT() NAMED_UNIT(*) SI_UNIT(.MILLI.,.METRE.) );
#1063 = ( NAMED_UNIT(*) PLANE_ANGLE_UNIT() SI_UNIT($,.RADIAN.) );
#1064 = ( NAMED_UNIT(*) SI_UNIT($,.STERADIAN.) SOLID_ANGLE_UNIT() );
#1065 = UNCERTAINTY_MEASURE_WITH_UNIT(LENGTH_MEASURE(2.E-07),#1062,
  'distance_accuracy_value','confusion accuracy');
#1066 = PRODUCT_RELATED_PRODUCT_CATEGORY('part',$,(#7));
ENDSEC;
END-ISO-10303-21;
