ISO-10303-21;
HEADER;
FILE_DESCRIPTION(('Open CASCADE Model'),'2;1');
FILE_NAME('Open CASCADE Shape Model','2026-09-14T17:54:58',('Author'),(
    'Open CASCADE'),'Open CASCADE STEP processor 7.9','Open CASCADE 7.9'
  ,'Unknown');
FILE_SCHEMA(('AUTOMOTIVE_DESIGN { 1 0 10303 214 1 1 1 1 }'));
ENDSEC;
DATA;
#1 = APPLICATION_PROTOCOL_DEFINITION('international standard',
  'automotive_design',2000,#2);
#2 = APPLICATION_CONTEXT(
  'core data for automotive mechanical design processes');
#3 = SHAPE_DEFINITION_REPRESENTATION(#4,#10);
#4 = PRODUCT_DEFINITION_SHAPE('','',#5);
#5 = PRODUCT_DEFINITION('design','',#6,#9);
#6 = PRODUCT_DEFINITION_FORMATION('','',#7);
#7 = PRODUCT('Open CASCADE STEP translator 7.9 10',
  'Open CASCADE STEP translator 7.9 10','',(#8));
#8 = PRODUCT_CONTEXT('',#2,'mechanical');
#9 = PRODUCT_DEFINITION_CONTEXT('part definition',#2,'design');
#10 = ADVANCED_BREP_SHAPE_REPRESENTATION('',(#11,#15),#873);
#11 = AXIS2_PLACEMENT_3D('',#12,#13,#14);
#12 = CARTESIAN_POINT('',(0.,0.,0.));
#13 = DIRECTION('',(0.,0.,1.));
#14 = DIRECTION('',(1.,0.,-0.));
#15 = MANIFOLD_SOLID_BREP('',#16);
#16 = CLOSED_SHELL('',(#17,#82,#243,#329,#556,#584,#619,#781,#809,#864,
    #869));
#17 = ADVANCED_FACE('',(#18),#33,.T.);
#18 = FACE_BOUND('',#19,.F.);
#19 = EDGE_LOOP('',(#20,#56));
#20 = ORIENTED_EDGE('',*,*,#21,.F.);
#21 = EDGE_CURVE('',#22,#24,#26,.T.);
#22 = VERTEX_POINT('',#23);
#23 = CARTESIAN_POINT('',(4.886817528445,0.83,0.));
#24 = VERTEX_POINT('',#25);
#25 = CARTESIAN_POINT('',(-4.886817528445,0.83,0.));
#26 = SURFACE_CURVE('',#27,(#32,#44),.PCURVE_S1.);
#27 = CIRCLE('',#28,4.956801948466);
#28 = AXIS2_PLACEMENT_3D('',#29,#30,#31);
#29 = CARTESIAN_POINT('',(0.,0.,0.));
#30 = DIRECTION('',(0.,0.,1.));
#31 = DIRECTION('',(1.,0.,-0.));
#32 = PCURVE('',#33,#38);
#33 = PLANE('',#34);
#34 = AXIS2_PLACEMENT_3D('',#35,#36,#37);
#35 = CARTESIAN_POINT('',(0.,0.,0.));
#36 = DIRECTION('',(0.,0.,1.));
#37 = DIRECTION('',(1.,0.,-0.));
#38 = DEFINITIONAL_REPRESENTATION('',(#39),#43);
#39 = CIRCLE('',#40,4.956801948466);
#40 = AXIS2_PLACEMENT_2D('',#41,#42);
#41 = CARTESIAN_POINT('',(0.,0.));
#42 = DIRECTION('',(1.,-0.));
#43 = ( GEOMETRIC_REPRESENTATION_CONTEXT(2) 
PARAMETRIC_REPRESENTATION_CONTEXT() REPRESENTATION_CONTEXT('2D SPACE',''
  ) );
#44 = PCURVE('',#45,#50);
#45 = TOROIDAL_SURFACE('',#46,4.956801948466,0.225);
#46 = AXIS2_PLACEMENT_3D('',#47,#48,#49);
#47 = CARTESIAN_POINT('',(0.,0.,-0.225));
#48 = DIRECTION('',(-0.,-0.,-1.));
#49 = DIRECTION('',(1.,0.,-0.));
#50 = DEFINITIONAL_REPRESENTATION('',(#51),#55);
#51 = LINE('',#52,#53);
#52 = CARTESIAN_POINT('',(-0.,4.712388980385));
#53 = VECTOR('',#54,1.);
#54 = DIRECTION('',(-1.,0.));
#55 = ( GEOMETRIC_REPRESENTATION_CONTEXT(2) 
PARAMETRIC_REPRESENTATION_CONTEXT() REPRESENTATION_CONTEXT('2D SPACE',''
  ) );
#56 = ORIENTED_EDGE('',*,*,#57,.T.);
#57 = EDGE_CURVE('',#22,#24,#58,.T.);
#58 = SURFACE_CURVE('',#59,(#63,#70),.PCURVE_S1.);
#59 = LINE('',#60,#61);
#60 = CARTESIAN_POINT('',(5.5,0.83,0.));
#61 = VECTOR('',#62,1.);
#62 = DIRECTION('',(-1.,0.,0.));
#63 = PCURVE('',#33,#64);
#64 = DEFINITIONAL_REPRESENTATION('',(#65),#69);
#65 = LINE('',#66,#67);
#66 = CARTESIAN_POINT('',(5.5,0.83));
#67 = VECTOR('',#68,1.);
#68 = DIRECTION('',(-1.,0.));
#69 = ( GEOMETRIC_REPRESENTATION_CONTEXT(2) 
PARAMETRIC_REPRESENTATION_CONTEXT() REPRESENTATION_CONTEXT('2D SPACE',''
  ) );
#70 = PCURVE('',#71,#76);
#71 = PLANE('',#72);
#72 = AXIS2_PLACEMENT_3D('',#73,#74,#75);
#73 = CARTESIAN_POINT('',(5.5,0.83,0.));
#74 = DIRECTION('',(0.,1.,0.));
#75 = DIRECTION('',(-1.,0.,0.));
#76 = DEFINITIONAL_REPRESENTATION('',(#77),#81);
#77 = LINE('',#78,#79);
#78 = CARTESIAN_POINT('',(0.,0.));
#79 = VECTOR('',#80,1.);
#80 = DIRECTION('',(1.,0.));
#81 = ( GEOMETRIC_REPRESENTATION_CONTEXT(2) 
PARAMETRIC_REPRESENTATION_CONTEXT() REPRESENTATION_CONTEXT('2D SPACE',''
  ) );
#82 = ADVANCED_FACE('',(#83),#45,.T.);
#83 = FACE_BOUND('',#84,.F.);
#84 = EDGE_LOOP('',(#85,#150,#151,#216));
#85 = ORIENTED_EDGE('',*,*,#86,.F.);
#86 = EDGE_CURVE('',#22,#87,#89,.T.);
#87 = VERTEX_POINT('',#88);
#88 = CARTESIAN_POINT('',(5.048122698406,0.83,-0.384099025767));
#89 = SURFACE_CURVE('',#90,(#108,#129),.PCURVE_S1.);
#90 = B_SPLINE_CURVE_WITH_KNOTS('',6,(#91,#92,#93,#94,#95,#96,#97,#98,
    #99,#100,#101,#102,#103,#104,#105,#106,#107),.UNSPECIFIED.,.F.,.F.,(
    7,5,5,7),(0.,0.33310080043,0.665050957273,1.),.UNSPECIFIED.);
#91 = CARTESIAN_POINT('',(4.886817528445,0.83,0.));
#92 = CARTESIAN_POINT('',(4.916657051987,0.83,0.));
#93 = CARTESIAN_POINT('',(4.946492100961,0.83,-4.615638037675E-03));
#94 = CARTESIAN_POINT('',(4.975403069083,0.83,-1.384787047878E-02));
#95 = CARTESIAN_POINT('',(5.002475493884,0.83,-2.745929127352E-02));
#96 = CARTESIAN_POINT('',(5.026890216334,0.83,-4.498259090624E-02));
#97 = CARTESIAN_POINT('',(5.069028913053,0.83,-8.649772202E-02));
#98 = CARTESIAN_POINT('',(5.086777681601,0.83,-0.110468949123));
#99 = CARTESIAN_POINT('',(5.100596438462,0.83,-0.13705566529));
#100 = CARTESIAN_POINT('',(5.110011371495,0.83,-0.165457839175));
#101 = CARTESIAN_POINT('',(5.114778538436,0.83,-0.194778839797));
#102 = CARTESIAN_POINT('',(5.115013022881,0.83,-0.253719074709));
#103 = CARTESIAN_POINT('',(5.110395947297,0.83,-0.283341611381));
#104 = CARTESIAN_POINT('',(5.101039380205,0.83,-0.312057086575));
#105 = CARTESIAN_POINT('',(5.087188882458,0.83,-0.338942416116));
#106 = CARTESIAN_POINT('',(5.069328956705,0.83,-0.363173719666));
#107 = CARTESIAN_POINT('',(5.048122698406,0.83,-0.384099025767));
#108 = PCURVE('',#45,#109);
#109 = DEFINITIONAL_REPRESENTATION('',(#110),#128);
#110 = B_SPLINE_CURVE_WITH_KNOTS('',6,(#111,#112,#113,#114,#115,#116,
    #117,#118,#119,#120,#121,#122,#123,#124,#125,#126,#127),
  .UNSPECIFIED.,.F.,.F.,(7,5,5,7),(0.,0.33310080043,0.665050957273,1.),
  .UNSPECIFIED.);
#111 = CARTESIAN_POINT('',(-0.168239204029,4.712388980385));
#112 = CARTESIAN_POINT('',(-0.167231189381,4.843136639598));
#113 = CARTESIAN_POINT('',(-0.166237680161,4.97389153226));
#114 = CARTESIAN_POINT('',(-0.16528937924,5.104646879075));
#115 = CARTESIAN_POINT('',(-0.164413771681,5.235414404878));
#116 = CARTESIAN_POINT('',(-0.163632932379,5.366203796131));
#117 = CARTESIAN_POINT('',(-0.162296533335,5.627347913496));
#118 = CARTESIAN_POINT('',(-0.161740136307,5.757714788885));
#119 = CARTESIAN_POINT('',(-0.161310963768,5.888087855451));
#120 = CARTESIAN_POINT('',(-0.161019915377,6.018471354815));
#121 = CARTESIAN_POINT('',(-0.160872554272,6.148868024146));
#122 = CARTESIAN_POINT('',(-0.160865306061,6.410826643581));
#123 = CARTESIAN_POINT('',(-0.161008027748,6.542401792581));
#124 = CARTESIAN_POINT('',(-0.161297213245,6.67396347315));
#125 = CARTESIAN_POINT('',(-0.161727262917,6.805514613795));
#126 = CARTESIAN_POINT('',(-0.162287050626,6.937059685312));
#127 = CARTESIAN_POINT('',(-0.162959559284,7.068583470577));
#128 = ( GEOMETRIC_REPRESENTATION_CONTEXT(2) 
PARAMETRIC_REPRESENTATION_CONTEXT() REPRESENTATION_CONTEXT('2D SPACE',''
  ) );
#129 = PCURVE('',#71,#130);
#130 = DEFINITIONAL_REPRESENTATION('',(#131),#149);
#131 = B_SPLINE_CURVE_WITH_KNOTS('',6,(#132,#133,#134,#135,#136,#137,
    #138,#139,#140,#141,#142,#143,#144,#145,#146,#147,#148),
  .UNSPECIFIED.,.F.,.F.,(7,5,5,7),(0.,0.33310080043,0.665050957273,1.),
  .UNSPECIFIED.);
#132 = CARTESIAN_POINT('',(0.613182471555,0.));
#133 = CARTESIAN_POINT('',(0.583342948013,0.));
#134 = CARTESIAN_POINT('',(0.553507899039,-4.615638037675E-03));
#135 = CARTESIAN_POINT('',(0.524596930917,-1.384787047878E-02));
#136 = CARTESIAN_POINT('',(0.497524506116,-2.745929127352E-02));
#137 = CARTESIAN_POINT('',(0.473109783666,-4.498259090624E-02));
#138 = CARTESIAN_POINT('',(0.430971086947,-8.649772202E-02));
#139 = CARTESIAN_POINT('',(0.413222318399,-0.110468949123));
#140 = CARTESIAN_POINT('',(0.399403561538,-0.13705566529));
#141 = CARTESIAN_POINT('',(0.389988628505,-0.165457839175));
#142 = CARTESIAN_POINT('',(0.385221461564,-0.194778839797));
#143 = CARTESIAN_POINT('',(0.384986977119,-0.253719074709));
#144 = CARTESIAN_POINT('',(0.389604052703,-0.283341611381));
#145 = CARTESIAN_POINT('',(0.398960619795,-0.312057086575));
#146 = CARTESIAN_POINT('',(0.412811117542,-0.338942416116));
#147 = CARTESIAN_POINT('',(0.430671043295,-0.363173719666));
#148 = CARTESIAN_POINT('',(0.451877301594,-0.384099025767));
#149 = ( GEOMETRIC_REPRESENTATION_CONTEXT(2) 
PARAMETRIC_REPRESENTATION_CONTEXT() REPRESENTATION_CONTEXT('2D SPACE',''
  ) );
#150 = ORIENTED_EDGE('',*,*,#21,.T.);
#151 = ORIENTED_EDGE('',*,*,#152,.T.);
#152 = EDGE_CURVE('',#24,#153,#155,.T.);
#153 = VERTEX_POINT('',#154);
#154 = CARTESIAN_POINT('',(-5.048122698406,0.83,-0.384099025767));
#155 = SURFACE_CURVE('',#156,(#174,#195),.PCURVE_S1.);
#156 = B_SPLINE_CURVE_WITH_KNOTS('',6,(#157,#158,#159,#160,#161,#162,
    #163,#164,#165,#166,#167,#168,#169,#170,#171,#172,#173),
  .UNSPECIFIED.,.F.,.F.,(7,5,5,7),(0.,0.33310080043,0.665050957273,1.),
  .UNSPECIFIED.);
#157 = CARTESIAN_POINT('',(-4.886817528445,0.83,0.));
#158 = CARTESIAN_POINT('',(-4.916657051987,0.83,0.));
#159 = CARTESIAN_POINT('',(-4.946492100961,0.83,-4.615638037698E-03));
#160 = CARTESIAN_POINT('',(-4.975403069083,0.83,-1.384787047874E-02));
#161 = CARTESIAN_POINT('',(-5.002475493884,0.83,-2.745929127354E-02));
#162 = CARTESIAN_POINT('',(-5.026890216334,0.83,-4.498259090624E-02));
#163 = CARTESIAN_POINT('',(-5.069028913053,0.83,-8.649772202002E-02));
#164 = CARTESIAN_POINT('',(-5.086777681601,0.83,-0.110468949123));
#165 = CARTESIAN_POINT('',(-5.100596438462,0.83,-0.13705566529));
#166 = CARTESIAN_POINT('',(-5.110011371495,0.83,-0.165457839175));
#167 = CARTESIAN_POINT('',(-5.114778538436,0.83,-0.194778839797));
#168 = CARTESIAN_POINT('',(-5.115013022881,0.83,-0.253719074709));
#169 = CARTESIAN_POINT('',(-5.110395947296,0.83,-0.283341611381));
#170 = CARTESIAN_POINT('',(-5.101039380205,0.83,-0.312057086575));
#171 = CARTESIAN_POINT('',(-5.087188882458,0.83,-0.338942416116));
#172 = CARTESIAN_POINT('',(-5.069328956705,0.83,-0.363173719666));
#173 = CARTESIAN_POINT('',(-5.048122698406,0.83,-0.384099025767));
#174 = PCURVE('',#45,#175);
#175 = DEFINITIONAL_REPRESENTATION('',(#176),#194);
#176 = B_SPLINE_CURVE_WITH_KNOTS('',6,(#177,#178,#179,#180,#181,#182,
    #183,#184,#185,#186,#187,#188,#189,#190,#191,#192,#193),
  .UNSPECIFIED.,.F.,.F.,(7,5,5,7),(0.,0.33310080043,0.665050957273,1.),
  .UNSPECIFIED.);
#177 = CARTESIAN_POINT('',(-2.973353449561,4.712388980385));
#178 = CARTESIAN_POINT('',(-2.974361464209,4.843136639598));
#179 = CARTESIAN_POINT('',(-2.975354973429,4.97389153226));
#180 = CARTESIAN_POINT('',(-2.97630327435,5.104646879075));
#181 = CARTESIAN_POINT('',(-2.977178881909,5.235414404878));
#182 = CARTESIAN_POINT('',(-2.977959721211,5.366203796131));
#183 = CARTESIAN_POINT('',(-2.979296120255,5.627347913496));
#184 = CARTESIAN_POINT('',(-2.979852517282,5.757714788885));
#185 = CARTESIAN_POINT('',(-2.980281689822,5.888087855452));
#186 = CARTESIAN_POINT('',(-2.980572738212,6.018471354815));
#187 = CARTESIAN_POINT('',(-2.980720099318,6.148868024146));
#188 = CARTESIAN_POINT('',(-2.980727347528,6.410826643581));
#189 = CARTESIAN_POINT('',(-2.980584625842,6.542401792583));
#190 = CARTESIAN_POINT('',(-2.980295440345,6.673963473149));
#191 = CARTESIAN_POINT('',(-2.979865390673,6.805514613796));
#192 = CARTESIAN_POINT('',(-2.979305602964,6.937059685312));
#193 = CARTESIAN_POINT('',(-2.978633094305,7.068583470577));
#194 = ( GEOMETRIC_REPRESENTATION_CONTEXT(2) 
PARAMETRIC_REPRESENTATION_CONTEXT() REPRESENTATION_CONTEXT('2D SPACE',''
  ) );
#195 = PCURVE('',#71,#196);
#196 = DEFINITIONAL_REPRESENTATION('',(#197),#215);
#197 = B_SPLINE_CURVE_WITH_KNOTS('',6,(#198,#199,#200,#201,#202,#203,
    #204,#205,#206,#207,#208,#209,#210,#211,#212,#213,#214),
  .UNSPECIFIED.,.F.,.F.,(7,5,5,7),(0.,0.33310080043,0.665050957273,1.),
  .UNSPECIFIED.);
#198 = CARTESIAN_POINT('',(10.386817528445,0.));
#199 = CARTESIAN_POINT('',(10.416657051987,0.));
#200 = CARTESIAN_POINT('',(10.446492100961,-4.615638037698E-03));
#201 = CARTESIAN_POINT('',(10.475403069083,-1.384787047874E-02));
#202 = CARTESIAN_POINT('',(10.502475493884,-2.745929127354E-02));
#203 = CARTESIAN_POINT('',(10.526890216334,-4.498259090624E-02));
#204 = CARTESIAN_POINT('',(10.569028913053,-8.649772202002E-02));
#205 = CARTESIAN_POINT('',(10.586777681601,-0.110468949123));
#206 = CARTESIAN_POINT('',(10.600596438462,-0.13705566529));
#207 = CARTESIAN_POINT('',(10.610011371495,-0.165457839175));
#208 = CARTESIAN_POINT('',(10.614778538436,-0.194778839797));
#209 = CARTESIAN_POINT('',(10.615013022881,-0.253719074709));
#210 = CARTESIAN_POINT('',(10.610395947296,-0.283341611381));
#211 = CARTESIAN_POINT('',(10.601039380205,-0.312057086575));
#212 = CARTESIAN_POINT('',(10.587188882458,-0.338942416116));
#213 = CARTESIAN_POINT('',(10.569328956705,-0.363173719666));
#214 = CARTESIAN_POINT('',(10.548122698406,-0.384099025767));
#215 = ( GEOMETRIC_REPRESENTATION_CONTEXT(2) 
PARAMETRIC_REPRESENTATION_CONTEXT() REPRESENTATION_CONTEXT('2D SPACE',''
  ) );
#216 = ORIENTED_EDGE('',*,*,#217,.F.);
#217 = EDGE_CURVE('',#87,#153,#218,.T.);
#218 = SURFACE_CURVE('',#219,(#224,#231),.PCURVE_S1.);
#219 = CIRCLE('',#220,5.115900974233);
#220 = AXIS2_PLACEMENT_3D('',#221,#222,#223);
#221 = CARTESIAN_POINT('',(0.,0.,-0.384099025767));
#222 = DIRECTION('',(0.,0.,1.));
#223 = DIRECTION('',(1.,0.,-0.));
#224 = PCURVE('',#45,#225);
#225 = DEFINITIONAL_REPRESENTATION('',(#226),#230);
#226 = LINE('',#227,#228);
#227 = CARTESIAN_POINT('',(-0.,7.068583470577));
#228 = VECTOR('',#229,1.);
#229 = DIRECTION('',(-1.,0.));
#230 = ( GEOMETRIC_REPRESENTATION_CONTEXT(2) 
PARAMETRIC_REPRESENTATION_CONTEXT() REPRESENTATION_CONTEXT('2D SPACE',''
  ) );
#231 = PCURVE('',#232,#237);
#232 = CONICAL_SURFACE('',#233,5.5,0.785398163397);
#233 = AXIS2_PLACEMENT_3D('',#234,#235,#236);
#234 = CARTESIAN_POINT('',(0.,0.,0.));
#235 = DIRECTION('',(0.,0.,1.));
#236 = DIRECTION('',(1.,0.,0.));
#237 = DEFINITIONAL_REPRESENTATION('',(#238),#242);
#238 = LINE('',#239,#240);
#239 = CARTESIAN_POINT('',(0.,-0.384099025767));
#240 = VECTOR('',#241,1.);
#241 = DIRECTION('',(1.,-0.));
#242 = ( GEOMETRIC_REPRESENTATION_CONTEXT(2) 
PARAMETRIC_REPRESENTATION_CONTEXT() REPRESENTATION_CONTEXT('2D SPACE',''
  ) );
#243 = ADVANCED_FACE('',(#244),#71,.F.);
#244 = FACE_BOUND('',#245,.F.);
#245 = EDGE_LOOP('',(#246,#247,#248,#275,#303,#328));
#246 = ORIENTED_EDGE('',*,*,#57,.F.);
#247 = ORIENTED_EDGE('',*,*,#86,.T.);
#248 = ORIENTED_EDGE('',*,*,#249,.F.);
#249 = EDGE_CURVE('',#250,#87,#252,.T.);
#250 = VERTEX_POINT('',#251);
#251 = CARTESIAN_POINT('',(3.810656111485,0.83,-1.6));
#252 = SURFACE_CURVE('',#253,(#258,#265),.PCURVE_S1.);
#253 = HYPERBOLA('',#254,0.83,0.83);
#254 = AXIS2_PLACEMENT_3D('',#255,#256,#257);
#255 = CARTESIAN_POINT('',(0.,0.83,-5.5));
#256 = DIRECTION('',(0.,1.,0.));
#257 = DIRECTION('',(0.,-0.,1.));
#258 = PCURVE('',#71,#259);
#259 = DEFINITIONAL_REPRESENTATION('',(#260),#264);
#260 = HYPERBOLA('',#261,0.83,0.83);
#261 = AXIS2_PLACEMENT_2D('',#262,#263);
#262 = CARTESIAN_POINT('',(5.5,-5.5));
#263 = DIRECTION('',(0.,1.));
#264 = ( GEOMETRIC_REPRESENTATION_CONTEXT(2) 
PARAMETRIC_REPRESENTATION_CONTEXT() REPRESENTATION_CONTEXT('2D SPACE',''
  ) );
#265 = PCURVE('',#232,#266);
#266 = DEFINITIONAL_REPRESENTATION('',(#267),#274);
#267 = B_SPLINE_CURVE_WITH_KNOTS('',5,(#268,#269,#270,#271,#272,#273),
  .UNSPECIFIED.,.F.,.F.,(6,6),(2.186015844764,2.505183972714),
  .PIECEWISE_BEZIER_KNOTS.);
#268 = CARTESIAN_POINT('',(0.223788395453,-1.76));
#269 = CARTESIAN_POINT('',(0.20962210956,-1.527215474735));
#270 = CARTESIAN_POINT('',(0.196558000138,-1.275381716753));
#271 = CARTESIAN_POINT('',(0.184487609458,-1.00252171229));
#272 = CARTESIAN_POINT('',(0.173315879609,-0.706339000029));
#273 = CARTESIAN_POINT('',(0.162959559284,-0.384099025767));
#274 = ( GEOMETRIC_REPRESENTATION_CONTEXT(2) 
PARAMETRIC_REPRESENTATION_CONTEXT() REPRESENTATION_CONTEXT('2D SPACE',''
  ) );
#275 = ORIENTED_EDGE('',*,*,#276,.T.);
#276 = EDGE_CURVE('',#250,#277,#279,.T.);
#277 = VERTEX_POINT('',#278);
#278 = CARTESIAN_POINT('',(-3.810656111485,0.83,-1.6));
#279 = SURFACE_CURVE('',#280,(#284,#291),.PCURVE_S1.);
#280 = LINE('',#281,#282);
#281 = CARTESIAN_POINT('',(5.5,0.83,-1.6));
#282 = VECTOR('',#283,1.);
#283 = DIRECTION('',(-1.,0.,0.));
#284 = PCURVE('',#71,#285);
#285 = DEFINITIONAL_REPRESENTATION('',(#286),#290);
#286 = LINE('',#287,#288);
#287 = CARTESIAN_POINT('',(0.,-1.6));
#288 = VECTOR('',#289,1.);
#289 = DIRECTION('',(1.,0.));
#290 = ( GEOMETRIC_REPRESENTATION_CONTEXT(2) 
PARAMETRIC_REPRESENTATION_CONTEXT() REPRESENTATION_CONTEXT('2D SPACE',''
  ) );
#291 = PCURVE('',#292,#297);
#292 = PLANE('',#293);
#293 = AXIS2_PLACEMENT_3D('',#294,#295,#296);
#294 = CARTESIAN_POINT('',(-1.403125465561E-16,0.,-1.6));
#295 = DIRECTION('',(0.,0.,1.));
#296 = DIRECTION('',(1.,0.,-0.));
#297 = DEFINITIONAL_REPRESENTATION('',(#298),#302);
#298 = LINE('',#299,#300);
#299 = CARTESIAN_POINT('',(5.5,0.83));
#300 = VECTOR('',#301,1.);
#301 = DIRECTION('',(-1.,0.));
#302 = ( GEOMETRIC_REPRESENTATION_CONTEXT(2) 
PARAMETRIC_REPRESENTATION_CONTEXT() REPRESENTATION_CONTEXT('2D SPACE',''
  ) );
#303 = ORIENTED_EDGE('',*,*,#304,.F.);
#304 = EDGE_CURVE('',#153,#277,#305,.T.);
#305 = SURFACE_CURVE('',#306,(#311,#318),.PCURVE_S1.);
#306 = HYPERBOLA('',#307,0.83,0.83);
#307 = AXIS2_PLACEMENT_3D('',#308,#309,#310);
#308 = CARTESIAN_POINT('',(0.,0.83,-5.5));
#309 = DIRECTION('',(0.,1.,0.));
#310 = DIRECTION('',(0.,-0.,1.));
#311 = PCURVE('',#71,#312);
#312 = DEFINITIONAL_REPRESENTATION('',(#313),#317);
#313 = HYPERBOLA('',#314,0.83,0.83);
#314 = AXIS2_PLACEMENT_2D('',#315,#316);
#315 = CARTESIAN_POINT('',(5.5,-5.5));
#316 = DIRECTION('',(0.,1.));
#317 = ( GEOMETRIC_REPRESENTATION_CONTEXT(2) 
PARAMETRIC_REPRESENTATION_CONTEXT() REPRESENTATION_CONTEXT('2D SPACE',''
  ) );
#318 = PCURVE('',#232,#319);
#319 = DEFINITIONAL_REPRESENTATION('',(#320),#327);
#320 = B_SPLINE_CURVE_WITH_KNOTS('',5,(#321,#322,#323,#324,#325,#326),
  .UNSPECIFIED.,.F.,.F.,(6,6),(-2.505183972714,-2.186015844764),
  .PIECEWISE_BEZIER_KNOTS.);
#321 = CARTESIAN_POINT('',(2.978633094305,-0.384099025767));
#322 = CARTESIAN_POINT('',(2.968276773981,-0.706339000029));
#323 = CARTESIAN_POINT('',(2.957105044131,-1.00252171229));
#324 = CARTESIAN_POINT('',(2.945034653451,-1.275381716753));
#325 = CARTESIAN_POINT('',(2.93197054403,-1.527215474735));
#326 = CARTESIAN_POINT('',(2.917804258137,-1.76));
#327 = ( GEOMETRIC_REPRESENTATION_CONTEXT(2) 
PARAMETRIC_REPRESENTATION_CONTEXT() REPRESENTATION_CONTEXT('2D SPACE',''
  ) );
#328 = ORIENTED_EDGE('',*,*,#152,.F.);
#329 = ADVANCED_FACE('',(#330),#232,.T.);
#330 = FACE_BOUND('',#331,.F.);
#331 = EDGE_LOOP('',(#332,#333,#334,#335,#363,#395,#424,#451,#479,#502,
    #529,#530));
#332 = ORIENTED_EDGE('',*,*,#249,.T.);
#333 = ORIENTED_EDGE('',*,*,#217,.T.);
#334 = ORIENTED_EDGE('',*,*,#304,.T.);
#335 = ORIENTED_EDGE('',*,*,#336,.F.);
#336 = EDGE_CURVE('',#337,#277,#339,.T.);
#337 = VERTEX_POINT('',#338);
#338 = CARTESIAN_POINT('',(-3.810656111485,-0.83,-1.6));
#339 = SURFACE_CURVE('',#340,(#345,#352),.PCURVE_S1.);
#340 = CIRCLE('',#341,3.9);
#341 = AXIS2_PLACEMENT_3D('',#342,#343,#344);
#342 = CARTESIAN_POINT('',(0.,0.,-1.6));
#343 = DIRECTION('',(0.,0.,-1.));
#344 = DIRECTION('',(1.,0.,0.));
#345 = PCURVE('',#232,#346);
#346 = DEFINITIONAL_REPRESENTATION('',(#347),#351);
#347 = LINE('',#348,#349);
#348 = CARTESIAN_POINT('',(6.28318530718,-1.6));
#349 = VECTOR('',#350,1.);
#350 = DIRECTION('',(-1.,-0.));
#351 = ( GEOMETRIC_REPRESENTATION_CONTEXT(2) 
PARAMETRIC_REPRESENTATION_CONTEXT() REPRESENTATION_CONTEXT('2D SPACE',''
  ) );
#352 = PCURVE('',#292,#353);
#353 = DEFINITIONAL_REPRESENTATION('',(#354),#362);
#354 = ( BOUNDED_CURVE() B_SPLINE_CURVE(2,(#355,#356,#357,#358,#359,#360
,#361),.UNSPECIFIED.,.T.,.F.) B_SPLINE_CURVE_WITH_KNOTS((1,2,2,2,2,1),(
    -2.094395102393,0.,2.094395102393,4.188790204786,6.28318530718,
8.377580409573),.UNSPECIFIED.) CURVE() GEOMETRIC_REPRESENTATION_ITEM() 
RATIONAL_B_SPLINE_CURVE((1.,0.5,1.,0.5,1.,0.5,1.)) REPRESENTATION_ITEM(
  '') );
#355 = CARTESIAN_POINT('',(3.9,0.));
#356 = CARTESIAN_POINT('',(3.9,-6.754998149519));
#357 = CARTESIAN_POINT('',(-1.95,-3.377499074759));
#358 = CARTESIAN_POINT('',(-7.8,-9.552245033349E-16));
#359 = CARTESIAN_POINT('',(-1.95,3.377499074759));
#360 = CARTESIAN_POINT('',(3.9,6.754998149519));
#361 = CARTESIAN_POINT('',(3.9,0.));
#362 = ( GEOMETRIC_REPRESENTATION_CONTEXT(2) 
PARAMETRIC_REPRESENTATION_CONTEXT() REPRESENTATION_CONTEXT('2D SPACE',''
  ) );
#363 = ORIENTED_EDGE('',*,*,#364,.T.);
#364 = EDGE_CURVE('',#337,#365,#367,.T.);
#365 = VERTEX_POINT('',#366);
#366 = CARTESIAN_POINT('',(-5.048122698406,-0.83,-0.384099025767));
#367 = SURFACE_CURVE('',#368,(#373,#383),.PCURVE_S1.);
#368 = HYPERBOLA('',#369,0.83,0.83);
#369 = AXIS2_PLACEMENT_3D('',#370,#371,#372);
#370 = CARTESIAN_POINT('',(0.,-0.83,-5.5));
#371 = DIRECTION('',(0.,-1.,0.));
#372 = DIRECTION('',(-0.,0.,1.));
#373 = PCURVE('',#232,#374);
#374 = DEFINITIONAL_REPRESENTATION('',(#375),#382);
#375 = B_SPLINE_CURVE_WITH_KNOTS('',5,(#376,#377,#378,#379,#380,#381),
  .UNSPECIFIED.,.F.,.F.,(6,6),(2.186015844764,2.505183972714),
  .PIECEWISE_BEZIER_KNOTS.);
#376 = CARTESIAN_POINT('',(3.365381049043,-1.76));
#377 = CARTESIAN_POINT('',(3.35121476315,-1.527215474735));
#378 = CARTESIAN_POINT('',(3.338150653728,-1.275381716753));
#379 = CARTESIAN_POINT('',(3.326080263048,-1.00252171229));
#380 = CARTESIAN_POINT('',(3.314908533199,-0.706339000029));
#381 = CARTESIAN_POINT('',(3.304552212874,-0.384099025767));
#382 = ( GEOMETRIC_REPRESENTATION_CONTEXT(2) 
PARAMETRIC_REPRESENTATION_CONTEXT() REPRESENTATION_CONTEXT('2D SPACE',''
  ) );
#383 = PCURVE('',#384,#389);
#384 = PLANE('',#385);
#385 = AXIS2_PLACEMENT_3D('',#386,#387,#388);
#386 = CARTESIAN_POINT('',(-5.5,-0.83,0.));
#387 = DIRECTION('',(0.,-1.,0.));
#388 = DIRECTION('',(1.,0.,0.));
#389 = DEFINITIONAL_REPRESENTATION('',(#390),#394);
#390 = HYPERBOLA('',#391,0.83,0.83);
#391 = AXIS2_PLACEMENT_2D('',#392,#393);
#392 = CARTESIAN_POINT('',(5.5,-5.5));
#393 = DIRECTION('',(0.,1.));
#394 = ( GEOMETRIC_REPRESENTATION_CONTEXT(2) 
PARAMETRIC_REPRESENTATION_CONTEXT() REPRESENTATION_CONTEXT('2D SPACE',''
  ) );
#395 = ORIENTED_EDGE('',*,*,#396,.T.);
#396 = EDGE_CURVE('',#365,#397,#399,.T.);
#397 = VERTEX_POINT('',#398);
#398 = CARTESIAN_POINT('',(5.048122698406,-0.83,-0.384099025767));
#399 = SURFACE_CURVE('',#400,(#405,#412),.PCURVE_S1.);
#400 = CIRCLE('',#401,5.115900974233);
#401 = AXIS2_PLACEMENT_3D('',#402,#403,#404);
#402 = CARTESIAN_POINT('',(0.,0.,-0.384099025767));
#403 = DIRECTION('',(0.,0.,1.));
#404 = DIRECTION('',(1.,0.,-0.));
#405 = PCURVE('',#232,#406);
#406 = DEFINITIONAL_REPRESENTATION('',(#407),#411);
#407 = LINE('',#408,#409);
#408 = CARTESIAN_POINT('',(0.,-0.384099025767));
#409 = VECTOR('',#410,1.);
#410 = DIRECTION('',(1.,-0.));
#411 = ( GEOMETRIC_REPRESENTATION_CONTEXT(2) 
PARAMETRIC_REPRESENTATION_CONTEXT() REPRESENTATION_CONTEXT('2D SPACE',''
  ) );
#412 = PCURVE('',#413,#418);
#413 = TOROIDAL_SURFACE('',#414,4.956801948466,0.225);
#414 = AXIS2_PLACEMENT_3D('',#415,#416,#417);
#415 = CARTESIAN_POINT('',(0.,0.,-0.225));
#416 = DIRECTION('',(-0.,-0.,-1.));
#417 = DIRECTION('',(1.,0.,-0.));
#418 = DEFINITIONAL_REPRESENTATION('',(#419),#423);
#419 = LINE('',#420,#421);
#420 = CARTESIAN_POINT('',(-0.,7.068583470577));
#421 = VECTOR('',#422,1.);
#422 = DIRECTION('',(-1.,0.));
#423 = ( GEOMETRIC_REPRESENTATION_CONTEXT(2) 
PARAMETRIC_REPRESENTATION_CONTEXT() REPRESENTATION_CONTEXT('2D SPACE',''
  ) );
#424 = ORIENTED_EDGE('',*,*,#425,.T.);
#425 = EDGE_CURVE('',#397,#426,#428,.T.);
#426 = VERTEX_POINT('',#427);
#427 = CARTESIAN_POINT('',(3.810656111485,-0.83,-1.6));
#428 = SURFACE_CURVE('',#429,(#434,#444),.PCURVE_S1.);
#429 = HYPERBOLA('',#430,0.83,0.83);
#430 = AXIS2_PLACEMENT_3D('',#431,#432,#433);
#431 = CARTESIAN_POINT('',(0.,-0.83,-5.5));
#432 = DIRECTION('',(0.,-1.,0.));
#433 = DIRECTION('',(-0.,0.,1.));
#434 = PCURVE('',#232,#435);
#435 = DEFINITIONAL_REPRESENTATION('',(#436),#443);
#436 = B_SPLINE_CURVE_WITH_KNOTS('',5,(#437,#438,#439,#440,#441,#442),
  .UNSPECIFIED.,.F.,.F.,(6,6),(-2.505183972714,-2.186015844764),
  .PIECEWISE_BEZIER_KNOTS.);
#437 = CARTESIAN_POINT('',(6.120225747895,-0.384099025767));
#438 = CARTESIAN_POINT('',(6.10986942757,-0.706339000029));
#439 = CARTESIAN_POINT('',(6.098697697721,-1.00252171229));
#440 = CARTESIAN_POINT('',(6.086627307041,-1.275381716753));
#441 = CARTESIAN_POINT('',(6.073563197619,-1.527215474735));
#442 = CARTESIAN_POINT('',(6.059396911727,-1.76));
#443 = ( GEOMETRIC_REPRESENTATION_CONTEXT(2) 
PARAMETRIC_REPRESENTATION_CONTEXT() REPRESENTATION_CONTEXT('2D SPACE',''
  ) );
#444 = PCURVE('',#384,#445);
#445 = DEFINITIONAL_REPRESENTATION('',(#446),#450);
#446 = HYPERBOLA('',#447,0.83,0.83);
#447 = AXIS2_PLACEMENT_2D('',#448,#449);
#448 = CARTESIAN_POINT('',(5.5,-5.5));
#449 = DIRECTION('',(0.,1.));
#450 = ( GEOMETRIC_REPRESENTATION_CONTEXT(2) 
PARAMETRIC_REPRESENTATION_CONTEXT() REPRESENTATION_CONTEXT('2D SPACE',''
  ) );
#451 = ORIENTED_EDGE('',*,*,#452,.F.);
#452 = EDGE_CURVE('',#453,#426,#455,.T.);
#453 = VERTEX_POINT('',#454);
#454 = CARTESIAN_POINT('',(3.9,0.,-1.6));
#455 = SURFACE_CURVE('',#456,(#461,#468),.PCURVE_S1.);
#456 = CIRCLE('',#457,3.9);
#457 = AXIS2_PLACEMENT_3D('',#458,#459,#460);
#458 = CARTESIAN_POINT('',(0.,0.,-1.6));
#459 = DIRECTION('',(0.,0.,-1.));
#460 = DIRECTION('',(1.,0.,0.));
#461 = PCURVE('',#232,#462);
#462 = DEFINITIONAL_REPRESENTATION('',(#463),#467);
#463 = LINE('',#464,#465);
#464 = CARTESIAN_POINT('',(6.28318530718,-1.6));
#465 = VECTOR('',#466,1.);
#466 = DIRECTION('',(-1.,-0.));
#467 = ( GEOMETRIC_REPRESENTATION_CONTEXT(2) 
PARAMETRIC_REPRESENTATION_CONTEXT() REPRESENTATION_CONTEXT('2D SPACE',''
  ) );
#468 = PCURVE('',#292,#469);
#469 = DEFINITIONAL_REPRESENTATION('',(#470),#478);
#470 = ( BOUNDED_CURVE() B_SPLINE_CURVE(2,(#471,#472,#473,#474,#475,#476
,#477),.UNSPECIFIED.,.T.,.F.) B_SPLINE_CURVE_WITH_KNOTS((1,2,2,2,2,1),(
    -2.094395102393,0.,2.094395102393,4.188790204786,6.28318530718,
8.377580409573),.UNSPECIFIED.) CURVE() GEOMETRIC_REPRESENTATION_ITEM() 
RATIONAL_B_SPLINE_CURVE((1.,0.5,1.,0.5,1.,0.5,1.)) REPRESENTATION_ITEM(
  '') );
#471 = CARTESIAN_POINT('',(3.9,0.));
#472 = CARTESIAN_POINT('',(3.9,-6.754998149519));
#473 = CARTESIAN_POINT('',(-1.95,-3.377499074759));
#474 = CARTESIAN_POINT('',(-7.8,-9.552245033349E-16));
#475 = CARTESIAN_POINT('',(-1.95,3.377499074759));
#476 = CARTESIAN_POINT('',(3.9,6.754998149519));
#477 = CARTESIAN_POINT('',(3.9,0.));
#478 = ( GEOMETRIC_REPRESENTATION_CONTEXT(2) 
PARAMETRIC_REPRESENTATION_CONTEXT() REPRESENTATION_CONTEXT('2D SPACE',''
  ) );
#479 = ORIENTED_EDGE('',*,*,#480,.T.);
#480 = EDGE_CURVE('',#453,#481,#483,.T.);
#481 = VERTEX_POINT('',#482);
#482 = CARTESIAN_POINT('',(2.5,0.,-3.));
#483 = SEAM_CURVE('',#484,(#488,#495),.PCURVE_S1.);
#484 = LINE('',#485,#486);
#485 = CARTESIAN_POINT('',(5.5,0.,0.));
#486 = VECTOR('',#487,1.);
#487 = DIRECTION('',(-0.707106781187,0.,-0.707106781187));
#488 = PCURVE('',#232,#489);
#489 = DEFINITIONAL_REPRESENTATION('',(#490),#494);
#490 = LINE('',#491,#492);
#491 = CARTESIAN_POINT('',(0.,-0.));
#492 = VECTOR('',#493,1.);
#493 = DIRECTION('',(0.,-1.));
#494 = ( GEOMETRIC_REPRESENTATION_CONTEXT(2) 
PARAMETRIC_REPRESENTATION_CONTEXT() REPRESENTATION_CONTEXT('2D SPACE',''
  ) );
#495 = PCURVE('',#232,#496);
#496 = DEFINITIONAL_REPRESENTATION('',(#497),#501);
#497 = LINE('',#498,#499);
#498 = CARTESIAN_POINT('',(6.28318530718,-0.));
#499 = VECTOR('',#500,1.);
#500 = DIRECTION('',(0.,-1.));
#501 = ( GEOMETRIC_REPRESENTATION_CONTEXT(2) 
PARAMETRIC_REPRESENTATION_CONTEXT() REPRESENTATION_CONTEXT('2D SPACE',''
  ) );
#502 = ORIENTED_EDGE('',*,*,#503,.F.);
#503 = EDGE_CURVE('',#481,#481,#504,.T.);
#504 = SURFACE_CURVE('',#505,(#510,#517),.PCURVE_S1.);
#505 = CIRCLE('',#506,2.5);
#506 = AXIS2_PLACEMENT_3D('',#507,#508,#509);
#507 = CARTESIAN_POINT('',(0.,0.,-3.));
#508 = DIRECTION('',(0.,0.,1.));
#509 = DIRECTION('',(1.,0.,-0.));
#510 = PCURVE('',#232,#511);
#511 = DEFINITIONAL_REPRESENTATION('',(#512),#516);
#512 = LINE('',#513,#514);
#513 = CARTESIAN_POINT('',(0.,-3.));
#514 = VECTOR('',#515,1.);
#515 = DIRECTION('',(1.,-0.));
#516 = ( GEOMETRIC_REPRESENTATION_CONTEXT(2) 
PARAMETRIC_REPRESENTATION_CONTEXT() REPRESENTATION_CONTEXT('2D SPACE',''
  ) );
#517 = PCURVE('',#518,#523);
#518 = PLANE('',#519);
#519 = AXIS2_PLACEMENT_3D('',#520,#521,#522);
#520 = CARTESIAN_POINT('',(0.,0.,-3.));
#521 = DIRECTION('',(0.,0.,1.));
#522 = DIRECTION('',(1.,0.,-0.));
#523 = DEFINITIONAL_REPRESENTATION('',(#524),#528);
#524 = CIRCLE('',#525,2.5);
#525 = AXIS2_PLACEMENT_2D('',#526,#527);
#526 = CARTESIAN_POINT('',(0.,0.));
#527 = DIRECTION('',(1.,0.));
#528 = ( GEOMETRIC_REPRESENTATION_CONTEXT(2) 
PARAMETRIC_REPRESENTATION_CONTEXT() REPRESENTATION_CONTEXT('2D SPACE',''
  ) );
#529 = ORIENTED_EDGE('',*,*,#480,.F.);
#530 = ORIENTED_EDGE('',*,*,#531,.F.);
#531 = EDGE_CURVE('',#250,#453,#532,.T.);
#532 = SURFACE_CURVE('',#533,(#538,#545),.PCURVE_S1.);
#533 = CIRCLE('',#534,3.9);
#534 = AXIS2_PLACEMENT_3D('',#535,#536,#537);
#535 = CARTESIAN_POINT('',(0.,0.,-1.6));
#536 = DIRECTION('',(0.,0.,-1.));
#537 = DIRECTION('',(1.,0.,0.));
#538 = PCURVE('',#232,#539);
#539 = DEFINITIONAL_REPRESENTATION('',(#540),#544);
#540 = LINE('',#541,#542);
#541 = CARTESIAN_POINT('',(6.28318530718,-1.6));
#542 = VECTOR('',#543,1.);
#543 = DIRECTION('',(-1.,-0.));
#544 = ( GEOMETRIC_REPRESENTATION_CONTEXT(2) 
PARAMETRIC_REPRESENTATION_CONTEXT() REPRESENTATION_CONTEXT('2D SPACE',''
  ) );
#545 = PCURVE('',#292,#546);
#546 = DEFINITIONAL_REPRESENTATION('',(#547),#555);
#547 = ( BOUNDED_CURVE() B_SPLINE_CURVE(2,(#548,#549,#550,#551,#552,#553
,#554),.UNSPECIFIED.,.T.,.F.) B_SPLINE_CURVE_WITH_KNOTS((1,2,2,2,2,1),(
    -2.094395102393,0.,2.094395102393,4.188790204786,6.28318530718,
8.377580409573),.UNSPECIFIED.) CURVE() GEOMETRIC_REPRESENTATION_ITEM() 
RATIONAL_B_SPLINE_CURVE((1.,0.5,1.,0.5,1.,0.5,1.)) REPRESENTATION_ITEM(
  '') );
#548 = CARTESIAN_POINT('',(3.9,0.));
#549 = CARTESIAN_POINT('',(3.9,-6.754998149519));
#550 = CARTESIAN_POINT('',(-1.95,-3.377499074759));
#551 = CARTESIAN_POINT('',(-7.8,-9.552245033349E-16));
#552 = CARTESIAN_POINT('',(-1.95,3.377499074759));
#553 = CARTESIAN_POINT('',(3.9,6.754998149519));
#554 = CARTESIAN_POINT('',(3.9,0.));
#555 = ( GEOMETRIC_REPRESENTATION_CONTEXT(2) 
PARAMETRIC_REPRESENTATION_CONTEXT() REPRESENTATION_CONTEXT('2D SPACE',''
  ) );
#556 = ADVANCED_FACE('',(#557),#292,.T.);
#557 = FACE_BOUND('',#558,.T.);
#558 = EDGE_LOOP('',(#559,#560,#581,#582,#583));
#559 = ORIENTED_EDGE('',*,*,#336,.F.);
#560 = ORIENTED_EDGE('',*,*,#561,.T.);
#561 = EDGE_CURVE('',#337,#426,#562,.T.);
#562 = SURFACE_CURVE('',#563,(#567,#574),.PCURVE_S1.);
#563 = LINE('',#564,#565);
#564 = CARTESIAN_POINT('',(-5.5,-0.83,-1.6));
#565 = VECTOR('',#566,1.);
#566 = DIRECTION('',(1.,0.,0.));
#567 = PCURVE('',#292,#568);
#568 = DEFINITIONAL_REPRESENTATION('',(#569),#573);
#569 = LINE('',#570,#571);
#570 = CARTESIAN_POINT('',(-5.5,-0.83));
#571 = VECTOR('',#572,1.);
#572 = DIRECTION('',(1.,0.));
#573 = ( GEOMETRIC_REPRESENTATION_CONTEXT(2) 
PARAMETRIC_REPRESENTATION_CONTEXT() REPRESENTATION_CONTEXT('2D SPACE',''
  ) );
#574 = PCURVE('',#384,#575);
#575 = DEFINITIONAL_REPRESENTATION('',(#576),#580);
#576 = LINE('',#577,#578);
#577 = CARTESIAN_POINT('',(0.,-1.6));
#578 = VECTOR('',#579,1.);
#579 = DIRECTION('',(1.,0.));
#580 = ( GEOMETRIC_REPRESENTATION_CONTEXT(2) 
PARAMETRIC_REPRESENTATION_CONTEXT() REPRESENTATION_CONTEXT('2D SPACE',''
  ) );
#581 = ORIENTED_EDGE('',*,*,#452,.F.);
#582 = ORIENTED_EDGE('',*,*,#531,.F.);
#583 = ORIENTED_EDGE('',*,*,#276,.T.);
#584 = ADVANCED_FACE('',(#585,#588),#518,.F.);
#585 = FACE_BOUND('',#586,.F.);
#586 = EDGE_LOOP('',(#587));
#587 = ORIENTED_EDGE('',*,*,#503,.T.);
#588 = FACE_BOUND('',#589,.F.);
#589 = EDGE_LOOP('',(#590));
#590 = ORIENTED_EDGE('',*,*,#591,.F.);
#591 = EDGE_CURVE('',#592,#592,#594,.T.);
#592 = VERTEX_POINT('',#593);
#593 = CARTESIAN_POINT('',(2.458734122635,0.,-3.));
#594 = SURFACE_CURVE('',#595,(#600,#607),.PCURVE_S1.);
#595 = CIRCLE('',#596,2.458734122635);
#596 = AXIS2_PLACEMENT_3D('',#597,#598,#599);
#597 = CARTESIAN_POINT('',(0.,0.,-3.));
#598 = DIRECTION('',(0.,0.,1.));
#599 = DIRECTION('',(1.,0.,-0.));
#600 = PCURVE('',#518,#601);
#601 = DEFINITIONAL_REPRESENTATION('',(#602),#606);
#602 = CIRCLE('',#603,2.458734122635);
#603 = AXIS2_PLACEMENT_2D('',#604,#605);
#604 = CARTESIAN_POINT('',(0.,0.));
#605 = DIRECTION('',(1.,0.));
#606 = ( GEOMETRIC_REPRESENTATION_CONTEXT(2) 
PARAMETRIC_REPRESENTATION_CONTEXT() REPRESENTATION_CONTEXT('2D SPACE',''
  ) );
#607 = PCURVE('',#608,#613);
#608 = CYLINDRICAL_SURFACE('',#609,2.458734122635);
#609 = AXIS2_PLACEMENT_3D('',#610,#611,#612);
#610 = CARTESIAN_POINT('',(0.,0.,-20.));
#611 = DIRECTION('',(-0.,-0.,-1.));
#612 = DIRECTION('',(1.,0.,0.));
#613 = DEFINITIONAL_REPRESENTATION('',(#614),#618);
#614 = LINE('',#615,#616);
#615 = CARTESIAN_POINT('',(-0.,-17.));
#616 = VECTOR('',#617,1.);
#617 = DIRECTION('',(-1.,0.));
#618 = ( GEOMETRIC_REPRESENTATION_CONTEXT(2) 
PARAMETRIC_REPRESENTATION_CONTEXT() REPRESENTATION_CONTEXT('2D SPACE',''
  ) );
#619 = ADVANCED_FACE('',(#620),#384,.F.);
#620 = FACE_BOUND('',#621,.F.);
#621 = EDGE_LOOP('',(#622,#652,#715,#716,#717,#718));
#622 = ORIENTED_EDGE('',*,*,#623,.F.);
#623 = EDGE_CURVE('',#624,#626,#628,.T.);
#624 = VERTEX_POINT('',#625);
#625 = CARTESIAN_POINT('',(-4.886817528445,-0.83,0.));
#626 = VERTEX_POINT('',#627);
#627 = CARTESIAN_POINT('',(4.886817528445,-0.83,0.));
#628 = SURFACE_CURVE('',#629,(#633,#640),.PCURVE_S1.);
#629 = LINE('',#630,#631);
#630 = CARTESIAN_POINT('',(-5.5,-0.83,0.));
#631 = VECTOR('',#632,1.);
#632 = DIRECTION('',(1.,0.,0.));
#633 = PCURVE('',#384,#634);
#634 = DEFINITIONAL_REPRESENTATION('',(#635),#639);
#635 = LINE('',#636,#637);
#636 = CARTESIAN_POINT('',(0.,0.));
#637 = VECTOR('',#638,1.);
#638 = DIRECTION('',(1.,0.));
#639 = ( GEOMETRIC_REPRESENTATION_CONTEXT(2) 
PARAMETRIC_REPRESENTATION_CONTEXT() REPRESENTATION_CONTEXT('2D SPACE',''
  ) );
#640 = PCURVE('',#641,#646);
#641 = PLANE('',#642);
#642 = AXIS2_PLACEMENT_3D('',#643,#644,#645);
#643 = CARTESIAN_POINT('',(0.,0.,0.));
#644 = DIRECTION('',(0.,0.,1.));
#645 = DIRECTION('',(1.,0.,-0.));
#646 = DEFINITIONAL_REPRESENTATION('',(#647),#651);
#647 = LINE('',#648,#649);
#648 = CARTESIAN_POINT('',(-5.5,-0.83));
#649 = VECTOR('',#650,1.);
#650 = DIRECTION('',(1.,-0.));
#651 = ( GEOMETRIC_REPRESENTATION_CONTEXT(2) 
PARAMETRIC_REPRESENTATION_CONTEXT() REPRESENTATION_CONTEXT('2D SPACE',''
  ) );
#652 = ORIENTED_EDGE('',*,*,#653,.T.);
#653 = EDGE_CURVE('',#624,#365,#654,.T.);
#654 = SURFACE_CURVE('',#655,(#673,#694),.PCURVE_S1.);
#655 = B_SPLINE_CURVE_WITH_KNOTS('',6,(#656,#657,#658,#659,#660,#661,
    #662,#663,#664,#665,#666,#667,#668,#669,#670,#671,#672),
  .UNSPECIFIED.,.F.,.F.,(7,5,5,7),(0.,0.33310080043,0.665050957273,1.),
  .UNSPECIFIED.);
#656 = CARTESIAN_POINT('',(-4.886817528445,-0.83,0.));
#657 = CARTESIAN_POINT('',(-4.916657051987,-0.83,0.));
#658 = CARTESIAN_POINT('',(-4.946492100961,-0.83,-4.615638037673E-03));
#659 = CARTESIAN_POINT('',(-4.975403069083,-0.83,-1.384787047879E-02));
#660 = CARTESIAN_POINT('',(-5.002475493884,-0.83,-2.745929127351E-02));
#661 = CARTESIAN_POINT('',(-5.026890216334,-0.83,-4.498259090624E-02));
#662 = CARTESIAN_POINT('',(-5.069028913053,-0.83,-8.649772202E-02));
#663 = CARTESIAN_POINT('',(-5.086777681601,-0.83,-0.110468949123));
#664 = CARTESIAN_POINT('',(-5.100596438462,-0.83,-0.13705566529));
#665 = CARTESIAN_POINT('',(-5.110011371495,-0.83,-0.165457839175));
#666 = CARTESIAN_POINT('',(-5.114778538436,-0.83,-0.194778839797));
#667 = CARTESIAN_POINT('',(-5.115013022881,-0.83,-0.253719074709));
#668 = CARTESIAN_POINT('',(-5.110395947296,-0.83,-0.283341611381));
#669 = CARTESIAN_POINT('',(-5.101039380205,-0.83,-0.312057086575));
#670 = CARTESIAN_POINT('',(-5.087188882458,-0.83,-0.338942416116));
#671 = CARTESIAN_POINT('',(-5.069328956705,-0.83,-0.363173719666));
#672 = CARTESIAN_POINT('',(-5.048122698406,-0.83,-0.384099025767));
#673 = PCURVE('',#384,#674);
#674 = DEFINITIONAL_REPRESENTATION('',(#675),#693);
#675 = B_SPLINE_CURVE_WITH_KNOTS('',6,(#676,#677,#678,#679,#680,#681,
    #682,#683,#684,#685,#686,#687,#688,#689,#690,#691,#692),
  .UNSPECIFIED.,.F.,.F.,(7,5,5,7),(0.,0.33310080043,0.665050957273,1.),
  .UNSPECIFIED.);
#676 = CARTESIAN_POINT('',(0.613182471555,0.));
#677 = CARTESIAN_POINT('',(0.583342948013,0.));
#678 = CARTESIAN_POINT('',(0.553507899039,-4.615638037673E-03));
#679 = CARTESIAN_POINT('',(0.524596930917,-1.384787047879E-02));
#680 = CARTESIAN_POINT('',(0.497524506116,-2.745929127351E-02));
#681 = CARTESIAN_POINT('',(0.473109783666,-4.498259090624E-02));
#682 = CARTESIAN_POINT('',(0.430971086947,-8.649772202E-02));
#683 = CARTESIAN_POINT('',(0.413222318399,-0.110468949123));
#684 = CARTESIAN_POINT('',(0.399403561538,-0.13705566529));
#685 = CARTESIAN_POINT('',(0.389988628505,-0.165457839175));
#686 = CARTESIAN_POINT('',(0.385221461564,-0.194778839797));
#687 = CARTESIAN_POINT('',(0.384986977119,-0.253719074709));
#688 = CARTESIAN_POINT('',(0.389604052704,-0.283341611381));
#689 = CARTESIAN_POINT('',(0.398960619795,-0.312057086575));
#690 = CARTESIAN_POINT('',(0.412811117542,-0.338942416116));
#691 = CARTESIAN_POINT('',(0.430671043295,-0.363173719666));
#692 = CARTESIAN_POINT('',(0.451877301594,-0.384099025767));
#693 = ( GEOMETRIC_REPRESENTATION_CONTEXT(2) 
PARAMETRIC_REPRESENTATION_CONTEXT() REPRESENTATION_CONTEXT('2D SPACE',''
  ) );
#694 = PCURVE('',#413,#695);
#695 = DEFINITIONAL_REPRESENTATION('',(#696),#714);
#696 = B_SPLINE_CURVE_WITH_KNOTS('',6,(#697,#698,#699,#700,#701,#702,
    #703,#704,#705,#706,#707,#708,#709,#710,#711,#712,#713),
  .UNSPECIFIED.,.F.,.F.,(7,5,5,7),(0.,0.33310080043,0.665050957273,1.),
  .UNSPECIFIED.);
#697 = CARTESIAN_POINT('',(-3.309831857619,4.712388980385));
#698 = CARTESIAN_POINT('',(-3.308823842971,4.843136639598));
#699 = CARTESIAN_POINT('',(-3.307830333751,4.97389153226));
#700 = CARTESIAN_POINT('',(-3.30688203283,5.104646879075));
#701 = CARTESIAN_POINT('',(-3.306006425271,5.235414404878));
#702 = CARTESIAN_POINT('',(-3.305225585969,5.366203796131));
#703 = CARTESIAN_POINT('',(-3.303889186925,5.627347913496));
#704 = CARTESIAN_POINT('',(-3.303332789897,5.757714788885));
#705 = CARTESIAN_POINT('',(-3.302903617357,5.888087855452));
#706 = CARTESIAN_POINT('',(-3.302612568967,6.018471354815));
#707 = CARTESIAN_POINT('',(-3.302465207862,6.148868024146));
#708 = CARTESIAN_POINT('',(-3.302457959651,6.410826643581));
#709 = CARTESIAN_POINT('',(-3.302600681338,6.542401792583));
#710 = CARTESIAN_POINT('',(-3.302889866835,6.673963473148));
#711 = CARTESIAN_POINT('',(-3.303319916506,6.805514613796));
#712 = CARTESIAN_POINT('',(-3.303879704215,6.937059685311));
#713 = CARTESIAN_POINT('',(-3.304552212874,7.068583470577));
#714 = ( GEOMETRIC_REPRESENTATION_CONTEXT(2) 
PARAMETRIC_REPRESENTATION_CONTEXT() REPRESENTATION_CONTEXT('2D SPACE',''
  ) );
#715 = ORIENTED_EDGE('',*,*,#364,.F.);
#716 = ORIENTED_EDGE('',*,*,#561,.T.);
#717 = ORIENTED_EDGE('',*,*,#425,.F.);
#718 = ORIENTED_EDGE('',*,*,#719,.F.);
#719 = EDGE_CURVE('',#626,#397,#720,.T.);
#720 = SURFACE_CURVE('',#721,(#739,#760),.PCURVE_S1.);
#721 = B_SPLINE_CURVE_WITH_KNOTS('',6,(#722,#723,#724,#725,#726,#727,
    #728,#729,#730,#731,#732,#733,#734,#735,#736,#737,#738),
  .UNSPECIFIED.,.F.,.F.,(7,5,5,7),(0.,0.333100800431,0.665050957273,1.),
  .UNSPECIFIED.);
#722 = CARTESIAN_POINT('',(4.886817528445,-0.83,0.));
#723 = CARTESIAN_POINT('',(4.916657051987,-0.83,0.));
#724 = CARTESIAN_POINT('',(4.946492100961,-0.83,-4.615638037678E-03));
#725 = CARTESIAN_POINT('',(4.975403069083,-0.83,-1.384787047878E-02));
#726 = CARTESIAN_POINT('',(5.002475493884,-0.83,-2.745929127352E-02));
#727 = CARTESIAN_POINT('',(5.026890216334,-0.83,-4.498259090624E-02));
#728 = CARTESIAN_POINT('',(5.069028913053,-0.83,-8.649772202E-02));
#729 = CARTESIAN_POINT('',(5.086777681601,-0.83,-0.110468949123));
#730 = CARTESIAN_POINT('',(5.100596438462,-0.83,-0.13705566529));
#731 = CARTESIAN_POINT('',(5.110011371495,-0.83,-0.165457839175));
#732 = CARTESIAN_POINT('',(5.114778538436,-0.83,-0.194778839797));
#733 = CARTESIAN_POINT('',(5.115013022881,-0.83,-0.253719074709));
#734 = CARTESIAN_POINT('',(5.110395947296,-0.83,-0.283341611381));
#735 = CARTESIAN_POINT('',(5.101039380205,-0.83,-0.312057086575));
#736 = CARTESIAN_POINT('',(5.087188882458,-0.83,-0.338942416116));
#737 = CARTESIAN_POINT('',(5.069328956705,-0.83,-0.363173719666));
#738 = CARTESIAN_POINT('',(5.048122698406,-0.83,-0.384099025767));
#739 = PCURVE('',#384,#740);
#740 = DEFINITIONAL_REPRESENTATION('',(#741),#759);
#741 = B_SPLINE_CURVE_WITH_KNOTS('',6,(#742,#743,#744,#745,#746,#747,
    #748,#749,#750,#751,#752,#753,#754,#755,#756,#757,#758),
  .UNSPECIFIED.,.F.,.F.,(7,5,5,7),(0.,0.333100800431,0.665050957273,1.),
  .UNSPECIFIED.);
#742 = CARTESIAN_POINT('',(10.386817528445,0.));
#743 = CARTESIAN_POINT('',(10.416657051987,0.));
#744 = CARTESIAN_POINT('',(10.446492100961,-4.615638037678E-03));
#745 = CARTESIAN_POINT('',(10.475403069083,-1.384787047878E-02));
#746 = CARTESIAN_POINT('',(10.502475493884,-2.745929127352E-02));
#747 = CARTESIAN_POINT('',(10.526890216334,-4.498259090624E-02));
#748 = CARTESIAN_POINT('',(10.569028913053,-8.649772202E-02));
#749 = CARTESIAN_POINT('',(10.586777681601,-0.110468949123));
#750 = CARTESIAN_POINT('',(10.600596438462,-0.13705566529));
#751 = CARTESIAN_POINT('',(10.610011371495,-0.165457839175));
#752 = CARTESIAN_POINT('',(10.614778538436,-0.194778839797));
#753 = CARTESIAN_POINT('',(10.615013022881,-0.253719074709));
#754 = CARTESIAN_POINT('',(10.610395947296,-0.283341611381));
#755 = CARTESIAN_POINT('',(10.601039380205,-0.312057086575));
#756 = CARTESIAN_POINT('',(10.587188882458,-0.338942416116));
#757 = CARTESIAN_POINT('',(10.569328956705,-0.363173719666));
#758 = CARTESIAN_POINT('',(10.548122698406,-0.384099025767));
#759 = ( GEOMETRIC_REPRESENTATION_CONTEXT(2) 
PARAMETRIC_REPRESENTATION_CONTEXT() REPRESENTATION_CONTEXT('2D SPACE',''
  ) );
#760 = PCURVE('',#413,#761);
#761 = DEFINITIONAL_REPRESENTATION('',(#762),#780);
#762 = B_SPLINE_CURVE_WITH_KNOTS('',6,(#763,#764,#765,#766,#767,#768,
    #769,#770,#771,#772,#773,#774,#775,#776,#777,#778,#779),
  .UNSPECIFIED.,.F.,.F.,(7,5,5,7),(0.,0.333100800431,0.665050957273,1.),
  .UNSPECIFIED.);
#763 = CARTESIAN_POINT('',(-6.11494610315,4.712388980385));
#764 = CARTESIAN_POINT('',(-6.115954117798,4.843136639598));
#765 = CARTESIAN_POINT('',(-6.116947627019,4.97389153226));
#766 = CARTESIAN_POINT('',(-6.11789592794,5.104646879075));
#767 = CARTESIAN_POINT('',(-6.118771535498,5.235414404878));
#768 = CARTESIAN_POINT('',(-6.119552374801,5.366203796131));
#769 = CARTESIAN_POINT('',(-6.120888773845,5.627347913496));
#770 = CARTESIAN_POINT('',(-6.121445170872,5.757714788885));
#771 = CARTESIAN_POINT('',(-6.121874343412,5.888087855451));
#772 = CARTESIAN_POINT('',(-6.122165391802,6.018471354816));
#773 = CARTESIAN_POINT('',(-6.122312752908,6.148868024146));
#774 = CARTESIAN_POINT('',(-6.122320001118,6.410826643581));
#775 = CARTESIAN_POINT('',(-6.122177279431,6.542401792582));
#776 = CARTESIAN_POINT('',(-6.121888093935,6.673963473149));
#777 = CARTESIAN_POINT('',(-6.121458044263,6.805514613796));
#778 = CARTESIAN_POINT('',(-6.120898256554,6.937059685312));
#779 = CARTESIAN_POINT('',(-6.120225747895,7.068583470577));
#780 = ( GEOMETRIC_REPRESENTATION_CONTEXT(2) 
PARAMETRIC_REPRESENTATION_CONTEXT() REPRESENTATION_CONTEXT('2D SPACE',''
  ) );
#781 = ADVANCED_FACE('',(#782),#413,.T.);
#782 = FACE_BOUND('',#783,.F.);
#783 = EDGE_LOOP('',(#784,#806,#807,#808));
#784 = ORIENTED_EDGE('',*,*,#785,.T.);
#785 = EDGE_CURVE('',#624,#626,#786,.T.);
#786 = SURFACE_CURVE('',#787,(#792,#799),.PCURVE_S1.);
#787 = CIRCLE('',#788,4.956801948466);
#788 = AXIS2_PLACEMENT_3D('',#789,#790,#791);
#789 = CARTESIAN_POINT('',(0.,0.,0.));
#790 = DIRECTION('',(0.,0.,1.));
#791 = DIRECTION('',(1.,0.,-0.));
#792 = PCURVE('',#413,#793);
#793 = DEFINITIONAL_REPRESENTATION('',(#794),#798);
#794 = LINE('',#795,#796);
#795 = CARTESIAN_POINT('',(-0.,4.712388980385));
#796 = VECTOR('',#797,1.);
#797 = DIRECTION('',(-1.,0.));
#798 = ( GEOMETRIC_REPRESENTATION_CONTEXT(2) 
PARAMETRIC_REPRESENTATION_CONTEXT() REPRESENTATION_CONTEXT('2D SPACE',''
  ) );
#799 = PCURVE('',#641,#800);
#800 = DEFINITIONAL_REPRESENTATION('',(#801),#805);
#801 = CIRCLE('',#802,4.956801948466);
#802 = AXIS2_PLACEMENT_2D('',#803,#804);
#803 = CARTESIAN_POINT('',(0.,0.));
#804 = DIRECTION('',(1.,-0.));
#805 = ( GEOMETRIC_REPRESENTATION_CONTEXT(2) 
PARAMETRIC_REPRESENTATION_CONTEXT() REPRESENTATION_CONTEXT('2D SPACE',''
  ) );
#806 = ORIENTED_EDGE('',*,*,#719,.T.);
#807 = ORIENTED_EDGE('',*,*,#396,.F.);
#808 = ORIENTED_EDGE('',*,*,#653,.F.);
#809 = ADVANCED_FACE('',(#810),#608,.T.);
#810 = FACE_BOUND('',#811,.F.);
#811 = EDGE_LOOP('',(#812,#835,#836,#837));
#812 = ORIENTED_EDGE('',*,*,#813,.T.);
#813 = EDGE_CURVE('',#814,#592,#816,.T.);
#814 = VERTEX_POINT('',#815);
#815 = CARTESIAN_POINT('',(2.458734122635,0.,-20.));
#816 = SEAM_CURVE('',#817,(#821,#828),.PCURVE_S1.);
#817 = LINE('',#818,#819);
#818 = CARTESIAN_POINT('',(2.458734122635,0.,-20.));
#819 = VECTOR('',#820,1.);
#820 = DIRECTION('',(0.,0.,1.));
#821 = PCURVE('',#608,#822);
#822 = DEFINITIONAL_REPRESENTATION('',(#823),#827);
#823 = LINE('',#824,#825);
#824 = CARTESIAN_POINT('',(-0.,0.));
#825 = VECTOR('',#826,1.);
#826 = DIRECTION('',(-0.,-1.));
#827 = ( GEOMETRIC_REPRESENTATION_CONTEXT(2) 
PARAMETRIC_REPRESENTATION_CONTEXT() REPRESENTATION_CONTEXT('2D SPACE',''
  ) );
#828 = PCURVE('',#608,#829);
#829 = DEFINITIONAL_REPRESENTATION('',(#830),#834);
#830 = LINE('',#831,#832);
#831 = CARTESIAN_POINT('',(-6.28318530718,0.));
#832 = VECTOR('',#833,1.);
#833 = DIRECTION('',(-0.,-1.));
#834 = ( GEOMETRIC_REPRESENTATION_CONTEXT(2) 
PARAMETRIC_REPRESENTATION_CONTEXT() REPRESENTATION_CONTEXT('2D SPACE',''
  ) );
#835 = ORIENTED_EDGE('',*,*,#591,.T.);
#836 = ORIENTED_EDGE('',*,*,#813,.F.);
#837 = ORIENTED_EDGE('',*,*,#838,.F.);
#838 = EDGE_CURVE('',#814,#814,#839,.T.);
#839 = SURFACE_CURVE('',#840,(#845,#852),.PCURVE_S1.);
#840 = CIRCLE('',#841,2.458734122635);
#841 = AXIS2_PLACEMENT_3D('',#842,#843,#844);
#842 = CARTESIAN_POINT('',(0.,0.,-20.));
#843 = DIRECTION('',(0.,0.,1.));
#844 = DIRECTION('',(1.,0.,-0.));
#845 = PCURVE('',#608,#846);
#846 = DEFINITIONAL_REPRESENTATION('',(#847),#851);
#847 = LINE('',#848,#849);
#848 = CARTESIAN_POINT('',(-0.,0.));
#849 = VECTOR('',#850,1.);
#850 = DIRECTION('',(-1.,0.));
#851 = ( GEOMETRIC_REPRESENTATION_CONTEXT(2) 
PARAMETRIC_REPRESENTATION_CONTEXT() REPRESENTATION_CONTEXT('2D SPACE',''
  ) );
#852 = PCURVE('',#853,#858);
#853 = PLANE('',#854);
#854 = AXIS2_PLACEMENT_3D('',#855,#856,#857);
#855 = CARTESIAN_POINT('',(-3.475976011271E-16,3.866967800953E-17,-20.)
  );
#856 = DIRECTION('',(0.,0.,1.));
#857 = DIRECTION('',(1.,0.,-0.));
#858 = DEFINITIONAL_REPRESENTATION('',(#859),#863);
#859 = CIRCLE('',#860,2.458734122635);
#860 = AXIS2_PLACEMENT_2D('',#861,#862);
#861 = CARTESIAN_POINT('',(3.475976011271E-16,-3.866967800953E-17));
#862 = DIRECTION('',(1.,0.));
#863 = ( GEOMETRIC_REPRESENTATION_CONTEXT(2) 
PARAMETRIC_REPRESENTATION_CONTEXT() REPRESENTATION_CONTEXT('2D SPACE',''
  ) );
#864 = ADVANCED_FACE('',(#865),#641,.T.);
#865 = FACE_BOUND('',#866,.F.);
#866 = EDGE_LOOP('',(#867,#868));
#867 = ORIENTED_EDGE('',*,*,#623,.T.);
#868 = ORIENTED_EDGE('',*,*,#785,.F.);
#869 = ADVANCED_FACE('',(#870),#853,.F.);
#870 = FACE_BOUND('',#871,.F.);
#871 = EDGE_LOOP('',(#872));
#872 = ORIENTED_EDGE('',*,*,#838,.T.);
#873 = ( GEOMETRIC_REPRESENTATION_CONTEXT(3) 
GLOBAL_UNCERTAINTY_ASSIGNED_CONTEXT((#877)) GLOBAL_UNIT_ASSIGNED_CONTEXT
((#874,#875,#876)) REPRESENTATION_CONTEXT('Context #1',
  '3D Context with UNIT and UNCERTAINTY') );
#874 = ( LENGTH_UNIT() NAMED_UNIT(*) SI_UNIT(.MILLI.,.METRE.) );
#875 = ( NAMED_UNIT(*) PLANE_ANGLE_UNIT() SI_UNIT($,.RADIAN.) );
#876 = ( NAMED_UNIT(*) SI_UNIT($,.STERADIAN.) SOLID_ANGLE_UNIT() );
#877 = UNCERTAINTY_MEASURE_WITH_UNIT(LENGTH_MEASURE(5.E-07),#874,
  'distance_accuracy_value','confusion accuracy');
#878 = PRODUCT_RELATED_PRODUCT_CATEGORY('part',$,(#7));
ENDSEC;
END-ISO-10303-21;
