ISO-10303-21;
HEADER;
FILE_DESCRIPTION(('Open CASCADE Model'),'2;1');
FILE_NAME('Open CASCADE Shape Model','2026-09-14T17:55:05',('Author'),(
    'Open CASCADE'),'Open CASCADE STEP processor 7.9','Open CASCADE 7.9'
  ,'Unknown');
FILE_SCHEMA(('AUTOMOTIVE_DESIGN { 1 0 10303 214 1 1 1 1 }'));
ENDSEC;
DATA;
#1 = APPLICATION_PROTOCOL_DEFINITION('international standard',
  'automotive_design',2000,#2);
#2 = APPLICATION_CONTEXT(
  'core data for automotive mechanical design processes');
#3 = SHAPE_DEFINITION_REPRESENTATION(#4,#10);
#4 = PRODUCT_DEFINITION_SHAPE('','',#5);
#5 = PRODUCT_DEFINITION('design','',#6,#9);
#6 = PRODUCT_DEFINITION_FORMATION('','',#7);
#7 = PRODUCT('Open CASCADE STEP translator 7.9 24',
  'Open CASCADE STEP translator 7.9 24','',(#8));
#8 = PRODUCT_CONTEXT('',#2,'mechanical');
#9 = PRODUCT_DEFINITION_CONTEXT('part definition',#2,'design');
#10 = ADVANCED_BREP_SHAPE_REPRESENTATION('',(#11,#15),#981);
#11 = AXIS2_PLACEMENT_3D('',#12,#13,#14);
#12 = CARTESIAN_POINT('',(0.,0.,0.));
#13 = DIRECTION('',(0.,0.,1.));
#14 = DIRECTION('',(1.,0.,-0.));
#15 = MANIFOLD_SOLID_BREP('',#16);
#16 = CLOSED_SHELL('',(#17,#166,#297,#383,#610,#638,#673,#889,#917,#972,
    #977));
#17 = ADVANCED_FACE('',(#18),#33,.T.);
#18 = FACE_BOUND('',#19,.F.);
#19 = EDGE_LOOP('',(#20,#56));
#20 = ORIENTED_EDGE('',*,*,#21,.F.);
#21 = EDGE_CURVE('',#22,#24,#26,.T.);
#22 = VERTEX_POINT('',#23);
#23 = CARTESIAN_POINT('',(5.275289288228,0.955,7.052381177137E-02));
#24 = VERTEX_POINT('',#25);
#25 = CARTESIAN_POINT('',(-5.275289288228,0.955,7.052381177137E-02));
#26 = SURFACE_CURVE('',#27,(#32,#44),.PCURVE_S1.);
#27 = CIRCLE('',#28,5.361035541245);
#28 = AXIS2_PLACEMENT_3D('',#29,#30,#31);
#29 = CARTESIAN_POINT('',(0.,0.,7.052381177137E-02));
#30 = DIRECTION('',(0.,0.,1.));
#31 = DIRECTION('',(1.,0.,-0.));
#32 = PCURVE('',#33,#38);
#33 = SPHERICAL_SURFACE('',#34,12.);
#34 = AXIS2_PLACEMENT_3D('',#35,#36,#37);
#35 = CARTESIAN_POINT('',(-6.550315845288E-15,0.,-10.66536450385));
#36 = DIRECTION('',(-0.,-0.,-1.));
#37 = DIRECTION('',(1.,0.,-0.));
#38 = DEFINITIONAL_REPRESENTATION('',(#39),#43);
#39 = LINE('',#40,#41);
#40 = CARTESIAN_POINT('',(-0.,-1.107663655693));
#41 = VECTOR('',#42,1.);
#42 = DIRECTION('',(-1.,0.));
#43 = ( GEOMETRIC_REPRESENTATION_CONTEXT(2) 
PARAMETRIC_REPRESENTATION_CONTEXT() REPRESENTATION_CONTEXT('2D SPACE',''
  ) );
#44 = PCURVE('',#45,#50);
#45 = TOROIDAL_SURFACE('',#46,5.310775833045,0.1125);
#46 = AXIS2_PLACEMENT_3D('',#47,#48,#49);
#47 = CARTESIAN_POINT('',(0.,0.,-3.012514118758E-02));
#48 = DIRECTION('',(-0.,-0.,-1.));
#49 = DIRECTION('',(1.,0.,-0.));
#50 = DEFINITIONAL_REPRESENTATION('',(#51),#55);
#51 = LINE('',#52,#53);
#52 = CARTESIAN_POINT('',(-0.,5.175521651487));
#53 = VECTOR('',#54,1.);
#54 = DIRECTION('',(-1.,0.));
#55 = ( GEOMETRIC_REPRESENTATION_CONTEXT(2) 
PARAMETRIC_REPRESENTATION_CONTEXT() REPRESENTATION_CONTEXT('2D SPACE',''
  ) );
#56 = ORIENTED_EDGE('',*,*,#57,.F.);
#57 = EDGE_CURVE('',#24,#22,#58,.T.);
#58 = SURFACE_CURVE('',#59,(#64,#154),.PCURVE_S1.);
#59 = CIRCLE('',#60,11.961938597067);
#60 = AXIS2_PLACEMENT_3D('',#61,#62,#63);
#61 = CARTESIAN_POINT('',(-6.550315845288E-15,0.955,-10.66536450385));
#62 = DIRECTION('',(0.,1.,0.));
#63 = DIRECTION('',(0.,-0.,1.));
#64 = PCURVE('',#33,#65);
#65 = DEFINITIONAL_REPRESENTATION('',(#66),#153);
#66 = B_SPLINE_CURVE_WITH_KNOTS('',8,(#67,#68,#69,#70,#71,#72,#73,#74,
    #75,#76,#77,#78,#79,#80,#81,#82,#83,#84,#85,#86,#87,#88,#89,#90,#91,
    #92,#93,#94,#95,#96,#97,#98,#99,#100,#101,#102,#103,#104,#105,#106,
    #107,#108,#109,#110,#111,#112,#113,#114,#115,#116,#117,#118,#119,
    #120,#121,#122,#123,#124,#125,#126,#127,#128,#129,#130,#131,#132,
    #133,#134,#135,#136,#137,#138,#139,#140,#141,#142,#143,#144,#145,
    #146,#147,#148,#149,#150,#151,#152),.UNSPECIFIED.,.F.,.F.,(9,7,7,7,7
    ,7,7,7,7,7,7,7,9),(5.826465814139,5.940645687399,6.040553076502,
    6.127972041966,6.204463636748,6.237928709465,6.269302215137,
    6.298714876705,6.353863617145,6.402118765029,6.486565273827,
    6.613235037024,6.739904800221),.UNSPECIFIED.);
#67 = CARTESIAN_POINT('',(-2.962499580057,-1.107663655693));
#68 = CARTESIAN_POINT('',(-2.957408105788,-1.121707860812));
#69 = CARTESIAN_POINT('',(-2.951948462811,-1.135737269225));
#70 = CARTESIAN_POINT('',(-2.946076896683,-1.149750090348));
#71 = CARTESIAN_POINT('',(-2.939740574141,-1.163744155148));
#72 = CARTESIAN_POINT('',(-2.932876405796,-1.177716870625));
#73 = CARTESIAN_POINT('',(-2.925407094272,-1.191665051922));
#74 = CARTESIAN_POINT('',(-2.917234407788,-1.205584632044));
#75 = CARTESIAN_POINT('',(-2.90035054165,-1.231620164239));
#76 = CARTESIAN_POINT('',(-2.891834336198,-1.24374407495));
#77 = CARTESIAN_POINT('',(-2.882594529003,-1.255838372567));
#78 = CARTESIAN_POINT('',(-2.872526560493,-1.267898685705));
#79 = CARTESIAN_POINT('',(-2.861500683418,-1.279919549644));
#80 = CARTESIAN_POINT('',(-2.84935435918,-1.2918940851));
#81 = CARTESIAN_POINT('',(-2.83587670992,-1.303813288589));
#82 = CARTESIAN_POINT('',(-2.807565736152,-1.326034378414));
#83 = CARTESIAN_POINT('',(-2.793112451538,-1.33635219447));
#84 = CARTESIAN_POINT('',(-2.777223109286,-1.346609499199));
#85 = CARTESIAN_POINT('',(-2.759656571006,-1.356795753971));
#86 = CARTESIAN_POINT('',(-2.740107491532,-1.366897294903));
#87 = CARTESIAN_POINT('',(-2.718182156089,-1.376896343023));
#88 = CARTESIAN_POINT('',(-2.693353538003,-1.386768561703));
#89 = CARTESIAN_POINT('',(-2.639968150165,-1.404973057911));
#90 = CARTESIAN_POINT('',(-2.612265466845,-1.413343576479));
#91 = CARTESIAN_POINT('',(-2.581276323314,-1.42156478568));
#92 = CARTESIAN_POINT('',(-2.546384356207,-1.429605410562));
#93 = CARTESIAN_POINT('',(-2.506791980764,-1.437423499448));
#94 = CARTESIAN_POINT('',(-2.461521081692,-1.444963574533));
#95 = CARTESIAN_POINT('',(-2.409243779811,-1.452145067487));
#96 = CARTESIAN_POINT('',(-2.32213551169,-1.461790323603));
#97 = CARTESIAN_POINT('',(-2.294031858284,-1.464635546754));
#98 = CARTESIAN_POINT('',(-2.264225904185,-1.467380984729));
#99 = CARTESIAN_POINT('',(-2.232608547624,-1.47001602548));
#100 = CARTESIAN_POINT('',(-2.199077302369,-1.472528719479));
#101 = CARTESIAN_POINT('',(-2.163547578247,-1.474905800892));
#102 = CARTESIAN_POINT('',(-2.125969384224,-1.477132950974));
#103 = CARTESIAN_POINT('',(-2.049205769449,-1.481128759311));
#104 = CARTESIAN_POINT('',(-2.010267537914,-1.482917379065));
#105 = CARTESIAN_POINT('',(-1.969540148153,-1.484548927314));
#106 = CARTESIAN_POINT('',(-1.927071884186,-1.486010826641));
#107 = CARTESIAN_POINT('',(-1.882968455178,-1.48729053976));
#108 = CARTESIAN_POINT('',(-1.837407105499,-1.488376437581));
#109 = CARTESIAN_POINT('',(-1.790638322327,-1.489258808288));
#110 = CARTESIAN_POINT('',(-1.698267691658,-1.490560525415));
#111 = CARTESIAN_POINT('',(-1.652775618543,-1.491005362092));
#112 = CARTESIAN_POINT('',(-1.60673514825,-1.491259415301));
#113 = CARTESIAN_POINT('',(-1.560433937582,-1.491318981535));
#114 = CARTESIAN_POINT('',(-1.514185058726,-1.491183029565));
#115 = CARTESIAN_POINT('',(-1.468298437249,-1.490853367964));
#116 = CARTESIAN_POINT('',(-1.423053142054,-1.49033438889));
#117 = CARTESIAN_POINT('',(-1.295497348014,-1.488316215692));
#118 = CARTESIAN_POINT('',(-1.21539596906,-1.486356688424));
#119 = CARTESIAN_POINT('',(-1.139939118502,-1.483795497386));
#120 = CARTESIAN_POINT('',(-1.070172885984,-1.480698864141));
#121 = CARTESIAN_POINT('',(-1.006262408458,-1.477143174755));
#122 = CARTESIAN_POINT('',(-0.947974669247,-1.473195031011));
#123 = CARTESIAN_POINT('',(-0.894904725555,-1.468912865146));
#124 = CARTESIAN_POINT('',(-0.804300807096,-1.460349127206));
#125 = CARTESIAN_POINT('',(-0.765654188014,-1.456134393751));
#126 = CARTESIAN_POINT('',(-0.730328302029,-1.451734141446));
#127 = CARTESIAN_POINT('',(-0.697973864741,-1.447175729073));
#128 = CARTESIAN_POINT('',(-0.668264188746,-1.442481439968));
#129 = CARTESIAN_POINT('',(-0.640909873245,-1.437669467236));
#130 = CARTESIAN_POINT('',(-0.615654526022,-1.432754943851));
#131 = CARTESIAN_POINT('',(-0.551361559617,-1.418992576785));
#132 = CARTESIAN_POINT('',(-0.516193292226,-1.409959168429));
#133 = CARTESIAN_POINT('',(-0.485573830209,-1.400717707642));
#134 = CARTESIAN_POINT('',(-0.458613021406,-1.391312179886));
#135 = CARTESIAN_POINT('',(-0.434665668467,-1.381773960843));
#136 = CARTESIAN_POINT('',(-0.413229970455,-1.372126354211));
#137 = CARTESIAN_POINT('',(-0.393918242212,-1.36238718605));
#138 = CARTESIAN_POINT('',(-0.350173883764,-1.337845278497));
#139 = CARTESIAN_POINT('',(-0.328008809412,-1.322945547033));
#140 = CARTESIAN_POINT('',(-0.308880465248,-1.30791834277));
#141 = CARTESIAN_POINT('',(-0.292145669439,-1.292791310813));
#142 = CARTESIAN_POINT('',(-0.277342844439,-1.277584328607));
#143 = CARTESIAN_POINT('',(-0.26413573614,-1.26231156283));
#144 = CARTESIAN_POINT('',(-0.252265831255,-1.246983914071));
#145 = CARTESIAN_POINT('',(-0.230797386412,-1.216235691414));
#146 = CARTESIAN_POINT('',(-0.221198812949,-1.200815119869));
#147 = CARTESIAN_POINT('',(-0.212534330235,-1.185356516652));
#148 = CARTESIAN_POINT('',(-0.204658103166,-1.16986592337));
#149 = CARTESIAN_POINT('',(-0.197457638305,-1.154347980022));
#150 = CARTESIAN_POINT('',(-0.190842950303,-1.1388063894));
#151 = CARTESIAN_POINT('',(-0.184741493185,-1.123244126103));
#152 = CARTESIAN_POINT('',(-0.179093073533,-1.107663655693));
#153 = ( GEOMETRIC_REPRESENTATION_CONTEXT(2) 
PARAMETRIC_REPRESENTATION_CONTEXT() REPRESENTATION_CONTEXT('2D SPACE',''
  ) );
#154 = PCURVE('',#155,#160);
#155 = PLANE('',#156);
#156 = AXIS2_PLACEMENT_3D('',#157,#158,#159);
#157 = CARTESIAN_POINT('',(5.5,0.955,1.334635496149));
#158 = DIRECTION('',(0.,1.,0.));
#159 = DIRECTION('',(-1.,0.,0.));
#160 = DEFINITIONAL_REPRESENTATION('',(#161),#165);
#161 = CIRCLE('',#162,11.961938597067);
#162 = AXIS2_PLACEMENT_2D('',#163,#164);
#163 = CARTESIAN_POINT('',(5.5,-12.));
#164 = DIRECTION('',(0.,1.));
#165 = ( GEOMETRIC_REPRESENTATION_CONTEXT(2) 
PARAMETRIC_REPRESENTATION_CONTEXT() REPRESENTATION_CONTEXT('2D SPACE',''
  ) );
#166 = ADVANCED_FACE('',(#167),#45,.T.);
#167 = FACE_BOUND('',#168,.F.);
#168 = EDGE_LOOP('',(#169,#219,#220,#270));
#169 = ORIENTED_EDGE('',*,*,#170,.F.);
#170 = EDGE_CURVE('',#22,#171,#173,.T.);
#171 = VERTEX_POINT('',#172);
#172 = CARTESIAN_POINT('',(5.305052528954,0.955,-0.109674654071));
#173 = SURFACE_CURVE('',#174,(#187,#203),.PCURVE_S1.);
#174 = B_SPLINE_CURVE_WITH_KNOTS('',6,(#175,#176,#177,#178,#179,#180,
    #181,#182,#183,#184,#185,#186),.UNSPECIFIED.,.F.,.F.,(7,5,7),(0.,
    0.586654720705,1.),.UNSPECIFIED.);
#175 = CARTESIAN_POINT('',(5.275289288228,0.955,7.052381177137E-02));
#176 = CARTESIAN_POINT('',(5.294219423625,0.955,6.122211846458E-02));
#177 = CARTESIAN_POINT('',(5.31104922666,0.955,4.778285097077E-02));
#178 = CARTESIAN_POINT('',(5.32461091716,0.955,3.077779130395E-02));
#179 = CARTESIAN_POINT('',(5.333952768943,0.955,1.121104016952E-02));
#180 = CARTESIAN_POINT('',(5.338590258108,0.955,-9.627420089787E-03));
#181 = CARTESIAN_POINT('',(5.338485637884,0.955,-4.512379377809E-02));
#182 = CARTESIAN_POINT('',(5.336110132668,0.955,-5.978976760203E-02));
#183 = CARTESIAN_POINT('',(5.331401300775,0.955,-7.399877889114E-02));
#184 = CARTESIAN_POINT('',(5.324484330728,0.955,-8.730338004878E-02));
#185 = CARTESIAN_POINT('',(5.315593086544,0.955,-9.93008439373E-02));
#186 = CARTESIAN_POINT('',(5.305052528954,0.955,-0.109674654071));
#187 = PCURVE('',#45,#188);
#188 = DEFINITIONAL_REPRESENTATION('',(#189),#202);
#189 = B_SPLINE_CURVE_WITH_KNOTS('',6,(#190,#191,#192,#193,#194,#195,
    #196,#197,#198,#199,#200,#201),.UNSPECIFIED.,.F.,.F.,(7,5,7),(0.,
    0.586654720705,1.),.UNSPECIFIED.);
#190 = CARTESIAN_POINT('',(-0.179093073533,5.175521651487));
#191 = CARTESIAN_POINT('',(-0.178464060391,5.360594220351));
#192 = CARTESIAN_POINT('',(-0.177910072659,5.545683778144));
#193 = CARTESIAN_POINT('',(-0.177467720682,5.730771742052));
#194 = CARTESIAN_POINT('',(-0.17716444831,5.915868702934));
#195 = CARTESIAN_POINT('',(-0.177013861054,6.100982566884));
#196 = CARTESIAN_POINT('',(-0.177017258055,6.416507216514));
#197 = CARTESIAN_POINT('',(-0.17709439838,6.546929599034));
#198 = CARTESIAN_POINT('',(-0.177247275176,6.677348156467));
#199 = CARTESIAN_POINT('',(-0.177472392685,6.807763429635));
#200 = CARTESIAN_POINT('',(-0.177763023041,6.938176510713));
#201 = CARTESIAN_POINT('',(-0.178109470196,7.068583470577));
#202 = ( GEOMETRIC_REPRESENTATION_CONTEXT(2) 
PARAMETRIC_REPRESENTATION_CONTEXT() REPRESENTATION_CONTEXT('2D SPACE',''
  ) );
#203 = PCURVE('',#155,#204);
#204 = DEFINITIONAL_REPRESENTATION('',(#205),#218);
#205 = B_SPLINE_CURVE_WITH_KNOTS('',6,(#206,#207,#208,#209,#210,#211,
    #212,#213,#214,#215,#216,#217),.UNSPECIFIED.,.F.,.F.,(7,5,7),(0.,
    0.586654720705,1.),.UNSPECIFIED.);
#206 = CARTESIAN_POINT('',(0.224710711772,-1.264111684378));
#207 = CARTESIAN_POINT('',(0.205780576375,-1.273413377685));
#208 = CARTESIAN_POINT('',(0.18895077334,-1.286852645178));
#209 = CARTESIAN_POINT('',(0.17538908284,-1.303857704845));
#210 = CARTESIAN_POINT('',(0.166047231057,-1.32342445598));
#211 = CARTESIAN_POINT('',(0.161409741892,-1.344262916239));
#212 = CARTESIAN_POINT('',(0.161514362116,-1.379759289927));
#213 = CARTESIAN_POINT('',(0.163889867332,-1.394425263751));
#214 = CARTESIAN_POINT('',(0.168598699225,-1.40863427504));
#215 = CARTESIAN_POINT('',(0.175515669272,-1.421938876198));
#216 = CARTESIAN_POINT('',(0.184406913456,-1.433936340087));
#217 = CARTESIAN_POINT('',(0.194947471046,-1.44431015022));
#218 = ( GEOMETRIC_REPRESENTATION_CONTEXT(2) 
PARAMETRIC_REPRESENTATION_CONTEXT() REPRESENTATION_CONTEXT('2D SPACE',''
  ) );
#219 = ORIENTED_EDGE('',*,*,#21,.T.);
#220 = ORIENTED_EDGE('',*,*,#221,.T.);
#221 = EDGE_CURVE('',#24,#222,#224,.T.);
#222 = VERTEX_POINT('',#223);
#223 = CARTESIAN_POINT('',(-5.305052528954,0.955,-0.109674654071));
#224 = SURFACE_CURVE('',#225,(#238,#254),.PCURVE_S1.);
#225 = B_SPLINE_CURVE_WITH_KNOTS('',6,(#226,#227,#228,#229,#230,#231,
    #232,#233,#234,#235,#236,#237),.UNSPECIFIED.,.F.,.F.,(7,5,7),(0.,
    0.586654720676,1.),.UNSPECIFIED.);
#226 = CARTESIAN_POINT('',(-5.275289288228,0.955,7.052381177137E-02));
#227 = CARTESIAN_POINT('',(-5.294219423624,0.955,6.122211846504E-02));
#228 = CARTESIAN_POINT('',(-5.311049226659,0.955,4.778285097205E-02));
#229 = CARTESIAN_POINT('',(-5.324610917158,0.955,3.077779130646E-02));
#230 = CARTESIAN_POINT('',(-5.333952768941,0.955,1.121104017327E-02));
#231 = CARTESIAN_POINT('',(-5.338590258107,0.955,-9.627420084737E-03));
#232 = CARTESIAN_POINT('',(-5.338485637885,0.955,-4.512379377305E-02));
#233 = CARTESIAN_POINT('',(-5.336110132669,0.955,-5.978976759813E-02));
#234 = CARTESIAN_POINT('',(-5.331401300776,0.955,-7.39987788884E-02));
#235 = CARTESIAN_POINT('',(-5.32448433073,0.955,-8.730338004714E-02));
#236 = CARTESIAN_POINT('',(-5.315593086545,0.955,-9.930084393659E-02));
#237 = CARTESIAN_POINT('',(-5.305052528954,0.955,-0.109674654071));
#238 = PCURVE('',#45,#239);
#239 = DEFINITIONAL_REPRESENTATION('',(#240),#253);
#240 = B_SPLINE_CURVE_WITH_KNOTS('',6,(#241,#242,#243,#244,#245,#246,
    #247,#248,#249,#250,#251,#252),.UNSPECIFIED.,.F.,.F.,(7,5,7),(0.,
    0.586654720676,1.),.UNSPECIFIED.);
#241 = CARTESIAN_POINT('',(-2.962499580057,5.175521651487));
#242 = CARTESIAN_POINT('',(-2.963128593198,5.360594220342));
#243 = CARTESIAN_POINT('',(-2.963682580931,5.545683778126));
#244 = CARTESIAN_POINT('',(-2.964124932908,5.730771742025));
#245 = CARTESIAN_POINT('',(-2.964428205279,5.915868702898));
#246 = CARTESIAN_POINT('',(-2.964578792536,6.100982566839));
#247 = CARTESIAN_POINT('',(-2.964575395535,6.416507216469));
#248 = CARTESIAN_POINT('',(-2.964498255209,6.546929598998));
#249 = CARTESIAN_POINT('',(-2.964345378414,6.67734815644));
#250 = CARTESIAN_POINT('',(-2.964120260905,6.807763429617));
#251 = CARTESIAN_POINT('',(-2.963829630548,6.938176510704));
#252 = CARTESIAN_POINT('',(-2.963483183393,7.068583470577));
#253 = ( GEOMETRIC_REPRESENTATION_CONTEXT(2) 
PARAMETRIC_REPRESENTATION_CONTEXT() REPRESENTATION_CONTEXT('2D SPACE',''
  ) );
#254 = PCURVE('',#155,#255);
#255 = DEFINITIONAL_REPRESENTATION('',(#256),#269);
#256 = B_SPLINE_CURVE_WITH_KNOTS('',6,(#257,#258,#259,#260,#261,#262,
    #263,#264,#265,#266,#267,#268),.UNSPECIFIED.,.F.,.F.,(7,5,7),(0.,
    0.586654720676,1.),.UNSPECIFIED.);
#257 = CARTESIAN_POINT('',(10.775289288228,-1.264111684378));
#258 = CARTESIAN_POINT('',(10.794219423624,-1.273413377684));
#259 = CARTESIAN_POINT('',(10.811049226659,-1.286852645177));
#260 = CARTESIAN_POINT('',(10.824610917158,-1.303857704843));
#261 = CARTESIAN_POINT('',(10.833952768941,-1.323424455976));
#262 = CARTESIAN_POINT('',(10.838590258107,-1.344262916234));
#263 = CARTESIAN_POINT('',(10.838485637885,-1.379759289922));
#264 = CARTESIAN_POINT('',(10.836110132669,-1.394425263747));
#265 = CARTESIAN_POINT('',(10.831401300776,-1.408634275038));
#266 = CARTESIAN_POINT('',(10.82448433073,-1.421938876196));
#267 = CARTESIAN_POINT('',(10.815593086545,-1.433936340086));
#268 = CARTESIAN_POINT('',(10.805052528954,-1.44431015022));
#269 = ( GEOMETRIC_REPRESENTATION_CONTEXT(2) 
PARAMETRIC_REPRESENTATION_CONTEXT() REPRESENTATION_CONTEXT('2D SPACE',''
  ) );
#270 = ORIENTED_EDGE('',*,*,#271,.F.);
#271 = EDGE_CURVE('',#171,#222,#272,.T.);
#272 = SURFACE_CURVE('',#273,(#278,#285),.PCURVE_S1.);
#273 = CIRCLE('',#274,5.390325345929);
#274 = AXIS2_PLACEMENT_3D('',#275,#276,#277);
#275 = CARTESIAN_POINT('',(0.,0.,-0.109674654071));
#276 = DIRECTION('',(0.,0.,1.));
#277 = DIRECTION('',(1.,0.,-0.));
#278 = PCURVE('',#45,#279);
#279 = DEFINITIONAL_REPRESENTATION('',(#280),#284);
#280 = LINE('',#281,#282);
#281 = CARTESIAN_POINT('',(-0.,7.068583470577));
#282 = VECTOR('',#283,1.);
#283 = DIRECTION('',(-1.,0.));
#284 = ( GEOMETRIC_REPRESENTATION_CONTEXT(2) 
PARAMETRIC_REPRESENTATION_CONTEXT() REPRESENTATION_CONTEXT('2D SPACE',''
  ) );
#285 = PCURVE('',#286,#291);
#286 = CONICAL_SURFACE('',#287,5.5,0.785398163397);
#287 = AXIS2_PLACEMENT_3D('',#288,#289,#290);
#288 = CARTESIAN_POINT('',(0.,0.,0.));
#289 = DIRECTION('',(0.,0.,1.));
#290 = DIRECTION('',(1.,0.,0.));
#291 = DEFINITIONAL_REPRESENTATION('',(#292),#296);
#292 = LINE('',#293,#294);
#293 = CARTESIAN_POINT('',(0.,-0.109674654071));
#294 = VECTOR('',#295,1.);
#295 = DIRECTION('',(1.,-0.));
#296 = ( GEOMETRIC_REPRESENTATION_CONTEXT(2) 
PARAMETRIC_REPRESENTATION_CONTEXT() REPRESENTATION_CONTEXT('2D SPACE',''
  ) );
#297 = ADVANCED_FACE('',(#298),#155,.F.);
#298 = FACE_BOUND('',#299,.F.);
#299 = EDGE_LOOP('',(#300,#327,#355,#380,#381,#382));
#300 = ORIENTED_EDGE('',*,*,#301,.F.);
#301 = EDGE_CURVE('',#302,#171,#304,.T.);
#302 = VERTEX_POINT('',#303);
#303 = CARTESIAN_POINT('',(4.330585062518,0.955,-1.065364503851));
#304 = SURFACE_CURVE('',#305,(#310,#317),.PCURVE_S1.);
#305 = HYPERBOLA('',#306,0.955,0.955);
#306 = AXIS2_PLACEMENT_3D('',#307,#308,#309);
#307 = CARTESIAN_POINT('',(0.,0.955,-5.5));
#308 = DIRECTION('',(0.,1.,0.));
#309 = DIRECTION('',(0.,-0.,1.));
#310 = PCURVE('',#155,#311);
#311 = DEFINITIONAL_REPRESENTATION('',(#312),#316);
#312 = HYPERBOLA('',#313,0.955,0.955);
#313 = AXIS2_PLACEMENT_2D('',#314,#315);
#314 = CARTESIAN_POINT('',(5.5,-6.834635496149));
#315 = DIRECTION('',(0.,1.));
#316 = ( GEOMETRIC_REPRESENTATION_CONTEXT(2) 
PARAMETRIC_REPRESENTATION_CONTEXT() REPRESENTATION_CONTEXT('2D SPACE',''
  ) );
#317 = PCURVE('',#286,#318);
#318 = DEFINITIONAL_REPRESENTATION('',(#319),#326);
#319 = B_SPLINE_CURVE_WITH_KNOTS('',5,(#320,#321,#322,#323,#324,#325),
  .UNSPECIFIED.,.F.,.F.,(6,6),(2.159779560658,2.415855612332),
  .PIECEWISE_BEZIER_KNOTS.);
#320 = CARTESIAN_POINT('',(0.229685967125,-1.305364503851));
#321 = CARTESIAN_POINT('',(0.21802571061,-1.096177220504));
#322 = CARTESIAN_POINT('',(0.207092330372,-0.873236827934));
#323 = CARTESIAN_POINT('',(0.196828698637,-0.635399943449));
#324 = CARTESIAN_POINT('',(0.187183231561,-0.381374035178));
#325 = CARTESIAN_POINT('',(0.178109470196,-0.109674654071));
#326 = ( GEOMETRIC_REPRESENTATION_CONTEXT(2) 
PARAMETRIC_REPRESENTATION_CONTEXT() REPRESENTATION_CONTEXT('2D SPACE',''
  ) );
#327 = ORIENTED_EDGE('',*,*,#328,.T.);
#328 = EDGE_CURVE('',#302,#329,#331,.T.);
#329 = VERTEX_POINT('',#330);
#330 = CARTESIAN_POINT('',(-4.330585062518,0.955,-1.065364503851));
#331 = SURFACE_CURVE('',#332,(#336,#343),.PCURVE_S1.);
#332 = LINE('',#333,#334);
#333 = CARTESIAN_POINT('',(5.5,0.955,-1.065364503851));
#334 = VECTOR('',#335,1.);
#335 = DIRECTION('',(-1.,0.,0.));
#336 = PCURVE('',#155,#337);
#337 = DEFINITIONAL_REPRESENTATION('',(#338),#342);
#338 = LINE('',#339,#340);
#339 = CARTESIAN_POINT('',(0.,-2.4));
#340 = VECTOR('',#341,1.);
#341 = DIRECTION('',(1.,0.));
#342 = ( GEOMETRIC_REPRESENTATION_CONTEXT(2) 
PARAMETRIC_REPRESENTATION_CONTEXT() REPRESENTATION_CONTEXT('2D SPACE',''
  ) );
#343 = PCURVE('',#344,#349);
#344 = PLANE('',#345);
#345 = AXIS2_PLACEMENT_3D('',#346,#347,#348);
#346 = CARTESIAN_POINT('',(-1.375954174594E-16,0.,-1.065364503851));
#347 = DIRECTION('',(0.,0.,1.));
#348 = DIRECTION('',(1.,0.,-0.));
#349 = DEFINITIONAL_REPRESENTATION('',(#350),#354);
#350 = LINE('',#351,#352);
#351 = CARTESIAN_POINT('',(5.5,0.955));
#352 = VECTOR('',#353,1.);
#353 = DIRECTION('',(-1.,0.));
#354 = ( GEOMETRIC_REPRESENTATION_CONTEXT(2) 
PARAMETRIC_REPRESENTATION_CONTEXT() REPRESENTATION_CONTEXT('2D SPACE',''
  ) );
#355 = ORIENTED_EDGE('',*,*,#356,.F.);
#356 = EDGE_CURVE('',#222,#329,#357,.T.);
#357 = SURFACE_CURVE('',#358,(#363,#370),.PCURVE_S1.);
#358 = HYPERBOLA('',#359,0.955,0.955);
#359 = AXIS2_PLACEMENT_3D('',#360,#361,#362);
#360 = CARTESIAN_POINT('',(0.,0.955,-5.5));
#361 = DIRECTION('',(0.,1.,0.));
#362 = DIRECTION('',(0.,-0.,1.));
#363 = PCURVE('',#155,#364);
#364 = DEFINITIONAL_REPRESENTATION('',(#365),#369);
#365 = HYPERBOLA('',#366,0.955,0.955);
#366 = AXIS2_PLACEMENT_2D('',#367,#368);
#367 = CARTESIAN_POINT('',(5.5,-6.834635496149));
#368 = DIRECTION('',(0.,1.));
#369 = ( GEOMETRIC_REPRESENTATION_CONTEXT(2) 
PARAMETRIC_REPRESENTATION_CONTEXT() REPRESENTATION_CONTEXT('2D SPACE',''
  ) );
#370 = PCURVE('',#286,#371);
#371 = DEFINITIONAL_REPRESENTATION('',(#372),#379);
#372 = B_SPLINE_CURVE_WITH_KNOTS('',5,(#373,#374,#375,#376,#377,#378),
  .UNSPECIFIED.,.F.,.F.,(6,6),(-2.415855612332,-2.159779560658),
  .PIECEWISE_BEZIER_KNOTS.);
#373 = CARTESIAN_POINT('',(2.963483183393,-0.109674654071));
#374 = CARTESIAN_POINT('',(2.954409422028,-0.381374035178));
#375 = CARTESIAN_POINT('',(2.944763954952,-0.635399943449));
#376 = CARTESIAN_POINT('',(2.934500323218,-0.873236827934));
#377 = CARTESIAN_POINT('',(2.923566942979,-1.096177220504));
#378 = CARTESIAN_POINT('',(2.911906686465,-1.305364503851));
#379 = ( GEOMETRIC_REPRESENTATION_CONTEXT(2) 
PARAMETRIC_REPRESENTATION_CONTEXT() REPRESENTATION_CONTEXT('2D SPACE',''
  ) );
#380 = ORIENTED_EDGE('',*,*,#221,.F.);
#381 = ORIENTED_EDGE('',*,*,#57,.T.);
#382 = ORIENTED_EDGE('',*,*,#170,.T.);
#383 = ADVANCED_FACE('',(#384),#286,.T.);
#384 = FACE_BOUND('',#385,.F.);
#385 = EDGE_LOOP('',(#386,#387,#388,#389,#417,#449,#478,#505,#533,#556,
    #583,#584));
#386 = ORIENTED_EDGE('',*,*,#301,.T.);
#387 = ORIENTED_EDGE('',*,*,#271,.T.);
#388 = ORIENTED_EDGE('',*,*,#356,.T.);
#389 = ORIENTED_EDGE('',*,*,#390,.F.);
#390 = EDGE_CURVE('',#391,#329,#393,.T.);
#391 = VERTEX_POINT('',#392);
#392 = CARTESIAN_POINT('',(-4.330585062518,-0.955,-1.065364503851));
#393 = SURFACE_CURVE('',#394,(#399,#406),.PCURVE_S1.);
#394 = CIRCLE('',#395,4.434635496149);
#395 = AXIS2_PLACEMENT_3D('',#396,#397,#398);
#396 = CARTESIAN_POINT('',(0.,0.,-1.065364503851));
#397 = DIRECTION('',(0.,0.,-1.));
#398 = DIRECTION('',(1.,0.,0.));
#399 = PCURVE('',#286,#400);
#400 = DEFINITIONAL_REPRESENTATION('',(#401),#405);
#401 = LINE('',#402,#403);
#402 = CARTESIAN_POINT('',(6.28318530718,-1.065364503851));
#403 = VECTOR('',#404,1.);
#404 = DIRECTION('',(-1.,-0.));
#405 = ( GEOMETRIC_REPRESENTATION_CONTEXT(2) 
PARAMETRIC_REPRESENTATION_CONTEXT() REPRESENTATION_CONTEXT('2D SPACE',''
  ) );
#406 = PCURVE('',#344,#407);
#407 = DEFINITIONAL_REPRESENTATION('',(#408),#416);
#408 = ( BOUNDED_CURVE() B_SPLINE_CURVE(2,(#409,#410,#411,#412,#413,#414
,#415),.UNSPECIFIED.,.T.,.F.) B_SPLINE_CURVE_WITH_KNOTS((1,2,2,2,2,1),(
    -2.094395102393,0.,2.094395102393,4.188790204786,6.28318530718,
8.377580409573),.UNSPECIFIED.) CURVE() GEOMETRIC_REPRESENTATION_ITEM() 
RATIONAL_B_SPLINE_CURVE((1.,0.5,1.,0.5,1.,0.5,1.)) REPRESENTATION_ITEM(
  '') );
#409 = CARTESIAN_POINT('',(4.434635496149,0.));
#410 = CARTESIAN_POINT('',(4.434635496149,-7.681013992379));
#411 = CARTESIAN_POINT('',(-2.217317748075,-3.840506996189));
#412 = CARTESIAN_POINT('',(-8.869270992298,-1.086172433149E-15));
#413 = CARTESIAN_POINT('',(-2.217317748075,3.840506996189));
#414 = CARTESIAN_POINT('',(4.434635496149,7.681013992379));
#415 = CARTESIAN_POINT('',(4.434635496149,0.));
#416 = ( GEOMETRIC_REPRESENTATION_CONTEXT(2) 
PARAMETRIC_REPRESENTATION_CONTEXT() REPRESENTATION_CONTEXT('2D SPACE',''
  ) );
#417 = ORIENTED_EDGE('',*,*,#418,.T.);
#418 = EDGE_CURVE('',#391,#419,#421,.T.);
#419 = VERTEX_POINT('',#420);
#420 = CARTESIAN_POINT('',(-5.305052528954,-0.955,-0.109674654071));
#421 = SURFACE_CURVE('',#422,(#427,#437),.PCURVE_S1.);
#422 = HYPERBOLA('',#423,0.955,0.955);
#423 = AXIS2_PLACEMENT_3D('',#424,#425,#426);
#424 = CARTESIAN_POINT('',(0.,-0.955,-5.5));
#425 = DIRECTION('',(0.,-1.,0.));
#426 = DIRECTION('',(-0.,0.,1.));
#427 = PCURVE('',#286,#428);
#428 = DEFINITIONAL_REPRESENTATION('',(#429),#436);
#429 = B_SPLINE_CURVE_WITH_KNOTS('',5,(#430,#431,#432,#433,#434,#435),
  .UNSPECIFIED.,.F.,.F.,(6,6),(2.159779560658,2.415855612332),
  .PIECEWISE_BEZIER_KNOTS.);
#430 = CARTESIAN_POINT('',(3.371278620715,-1.305364503851));
#431 = CARTESIAN_POINT('',(3.3596183642,-1.096177220504));
#432 = CARTESIAN_POINT('',(3.348684983961,-0.873236827934));
#433 = CARTESIAN_POINT('',(3.338421352227,-0.635399943449));
#434 = CARTESIAN_POINT('',(3.328775885151,-0.381374035178));
#435 = CARTESIAN_POINT('',(3.319702123786,-0.109674654071));
#436 = ( GEOMETRIC_REPRESENTATION_CONTEXT(2) 
PARAMETRIC_REPRESENTATION_CONTEXT() REPRESENTATION_CONTEXT('2D SPACE',''
  ) );
#437 = PCURVE('',#438,#443);
#438 = PLANE('',#439);
#439 = AXIS2_PLACEMENT_3D('',#440,#441,#442);
#440 = CARTESIAN_POINT('',(-5.5,-0.955,1.334635496149));
#441 = DIRECTION('',(0.,-1.,0.));
#442 = DIRECTION('',(1.,0.,0.));
#443 = DEFINITIONAL_REPRESENTATION('',(#444),#448);
#444 = HYPERBOLA('',#445,0.955,0.955);
#445 = AXIS2_PLACEMENT_2D('',#446,#447);
#446 = CARTESIAN_POINT('',(5.5,-6.834635496149));
#447 = DIRECTION('',(0.,1.));
#448 = ( GEOMETRIC_REPRESENTATION_CONTEXT(2) 
PARAMETRIC_REPRESENTATION_CONTEXT() REPRESENTATION_CONTEXT('2D SPACE',''
  ) );
#449 = ORIENTED_EDGE('',*,*,#450,.T.);
#450 = EDGE_CURVE('',#419,#451,#453,.T.);
#451 = VERTEX_POINT('',#452);
#452 = CARTESIAN_POINT('',(5.305052528954,-0.955,-0.109674654071));
#453 = SURFACE_CURVE('',#454,(#459,#466),.PCURVE_S1.);
#454 = CIRCLE('',#455,5.390325345929);
#455 = AXIS2_PLACEMENT_3D('',#456,#457,#458);
#456 = CARTESIAN_POINT('',(0.,0.,-0.109674654071));
#457 = DIRECTION('',(0.,0.,1.));
#458 = DIRECTION('',(1.,0.,-0.));
#459 = PCURVE('',#286,#460);
#460 = DEFINITIONAL_REPRESENTATION('',(#461),#465);
#461 = LINE('',#462,#463);
#462 = CARTESIAN_POINT('',(0.,-0.109674654071));
#463 = VECTOR('',#464,1.);
#464 = DIRECTION('',(1.,-0.));
#465 = ( GEOMETRIC_REPRESENTATION_CONTEXT(2) 
PARAMETRIC_REPRESENTATION_CONTEXT() REPRESENTATION_CONTEXT('2D SPACE',''
  ) );
#466 = PCURVE('',#467,#472);
#467 = TOROIDAL_SURFACE('',#468,5.310775833045,0.1125);
#468 = AXIS2_PLACEMENT_3D('',#469,#470,#471);
#469 = CARTESIAN_POINT('',(0.,0.,-3.012514118758E-02));
#470 = DIRECTION('',(-0.,-0.,-1.));
#471 = DIRECTION('',(1.,0.,-0.));
#472 = DEFINITIONAL_REPRESENTATION('',(#473),#477);
#473 = LINE('',#474,#475);
#474 = CARTESIAN_POINT('',(-0.,7.068583470577));
#475 = VECTOR('',#476,1.);
#476 = DIRECTION('',(-1.,0.));
#477 = ( GEOMETRIC_REPRESENTATION_CONTEXT(2) 
PARAMETRIC_REPRESENTATION_CONTEXT() REPRESENTATION_CONTEXT('2D SPACE',''
  ) );
#478 = ORIENTED_EDGE('',*,*,#479,.T.);
#479 = EDGE_CURVE('',#451,#480,#482,.T.);
#480 = VERTEX_POINT('',#481);
#481 = CARTESIAN_POINT('',(4.330585062518,-0.955,-1.065364503851));
#482 = SURFACE_CURVE('',#483,(#488,#498),.PCURVE_S1.);
#483 = HYPERBOLA('',#484,0.955,0.955);
#484 = AXIS2_PLACEMENT_3D('',#485,#486,#487);
#485 = CARTESIAN_POINT('',(0.,-0.955,-5.5));
#486 = DIRECTION('',(0.,-1.,0.));
#487 = DIRECTION('',(-0.,0.,1.));
#488 = PCURVE('',#286,#489);
#489 = DEFINITIONAL_REPRESENTATION('',(#490),#497);
#490 = B_SPLINE_CURVE_WITH_KNOTS('',5,(#491,#492,#493,#494,#495,#496),
  .UNSPECIFIED.,.F.,.F.,(6,6),(-2.415855612332,-2.159779560658),
  .PIECEWISE_BEZIER_KNOTS.);
#491 = CARTESIAN_POINT('',(6.105075836983,-0.109674654071));
#492 = CARTESIAN_POINT('',(6.096002075618,-0.381374035178));
#493 = CARTESIAN_POINT('',(6.086356608542,-0.635399943449));
#494 = CARTESIAN_POINT('',(6.076092976808,-0.873236827934));
#495 = CARTESIAN_POINT('',(6.065159596569,-1.096177220504));
#496 = CARTESIAN_POINT('',(6.053499340055,-1.305364503851));
#497 = ( GEOMETRIC_REPRESENTATION_CONTEXT(2) 
PARAMETRIC_REPRESENTATION_CONTEXT() REPRESENTATION_CONTEXT('2D SPACE',''
  ) );
#498 = PCURVE('',#438,#499);
#499 = DEFINITIONAL_REPRESENTATION('',(#500),#504);
#500 = HYPERBOLA('',#501,0.955,0.955);
#501 = AXIS2_PLACEMENT_2D('',#502,#503);
#502 = CARTESIAN_POINT('',(5.5,-6.834635496149));
#503 = DIRECTION('',(0.,1.));
#504 = ( GEOMETRIC_REPRESENTATION_CONTEXT(2) 
PARAMETRIC_REPRESENTATION_CONTEXT() REPRESENTATION_CONTEXT('2D SPACE',''
  ) );
#505 = ORIENTED_EDGE('',*,*,#506,.F.);
#506 = EDGE_CURVE('',#507,#480,#509,.T.);
#507 = VERTEX_POINT('',#508);
#508 = CARTESIAN_POINT('',(4.434635496149,0.,-1.065364503851));
#509 = SURFACE_CURVE('',#510,(#515,#522),.PCURVE_S1.);
#510 = CIRCLE('',#511,4.434635496149);
#511 = AXIS2_PLACEMENT_3D('',#512,#513,#514);
#512 = CARTESIAN_POINT('',(0.,0.,-1.065364503851));
#513 = DIRECTION('',(0.,0.,-1.));
#514 = DIRECTION('',(1.,0.,0.));
#515 = PCURVE('',#286,#516);
#516 = DEFINITIONAL_REPRESENTATION('',(#517),#521);
#517 = LINE('',#518,#519);
#518 = CARTESIAN_POINT('',(6.28318530718,-1.065364503851));
#519 = VECTOR('',#520,1.);
#520 = DIRECTION('',(-1.,-0.));
#521 = ( GEOMETRIC_REPRESENTATION_CONTEXT(2) 
PARAMETRIC_REPRESENTATION_CONTEXT() REPRESENTATION_CONTEXT('2D SPACE',''
  ) );
#522 = PCURVE('',#344,#523);
#523 = DEFINITIONAL_REPRESENTATION('',(#524),#532);
#524 = ( BOUNDED_CURVE() B_SPLINE_CURVE(2,(#525,#526,#527,#528,#529,#530
,#531),.UNSPECIFIED.,.T.,.F.) B_SPLINE_CURVE_WITH_KNOTS((1,2,2,2,2,1),(
    -2.094395102393,0.,2.094395102393,4.188790204786,6.28318530718,
8.377580409573),.UNSPECIFIED.) CURVE() GEOMETRIC_REPRESENTATION_ITEM() 
RATIONAL_B_SPLINE_CURVE((1.,0.5,1.,0.5,1.,0.5,1.)) REPRESENTATION_ITEM(
  '') );
#525 = CARTESIAN_POINT('',(4.434635496149,0.));
#526 = CARTESIAN_POINT('',(4.434635496149,-7.681013992379));
#527 = CARTESIAN_POINT('',(-2.217317748075,-3.840506996189));
#528 = CARTESIAN_POINT('',(-8.869270992298,-1.086172433149E-15));
#529 = CARTESIAN_POINT('',(-2.217317748075,3.840506996189));
#530 = CARTESIAN_POINT('',(4.434635496149,7.681013992379));
#531 = CARTESIAN_POINT('',(4.434635496149,0.));
#532 = ( GEOMETRIC_REPRESENTATION_CONTEXT(2) 
PARAMETRIC_REPRESENTATION_CONTEXT() REPRESENTATION_CONTEXT('2D SPACE',''
  ) );
#533 = ORIENTED_EDGE('',*,*,#534,.T.);
#534 = EDGE_CURVE('',#507,#535,#537,.T.);
#535 = VERTEX_POINT('',#536);
#536 = CARTESIAN_POINT('',(4.,0.,-1.5));
#537 = SEAM_CURVE('',#538,(#542,#549),.PCURVE_S1.);
#538 = LINE('',#539,#540);
#539 = CARTESIAN_POINT('',(5.5,0.,0.));
#540 = VECTOR('',#541,1.);
#541 = DIRECTION('',(-0.707106781187,0.,-0.707106781187));
#542 = PCURVE('',#286,#543);
#543 = DEFINITIONAL_REPRESENTATION('',(#544),#548);
#544 = LINE('',#545,#546);
#545 = CARTESIAN_POINT('',(0.,-0.));
#546 = VECTOR('',#547,1.);
#547 = DIRECTION('',(0.,-1.));
#548 = ( GEOMETRIC_REPRESENTATION_CONTEXT(2) 
PARAMETRIC_REPRESENTATION_CONTEXT() REPRESENTATION_CONTEXT('2D SPACE',''
  ) );
#549 = PCURVE('',#286,#550);
#550 = DEFINITIONAL_REPRESENTATION('',(#551),#555);
#551 = LINE('',#552,#553);
#552 = CARTESIAN_POINT('',(6.28318530718,-0.));
#553 = VECTOR('',#554,1.);
#554 = DIRECTION('',(0.,-1.));
#555 = ( GEOMETRIC_REPRESENTATION_CONTEXT(2) 
PARAMETRIC_REPRESENTATION_CONTEXT() REPRESENTATION_CONTEXT('2D SPACE',''
  ) );
#556 = ORIENTED_EDGE('',*,*,#557,.F.);
#557 = EDGE_CURVE('',#535,#535,#558,.T.);
#558 = SURFACE_CURVE('',#559,(#564,#571),.PCURVE_S1.);
#559 = CIRCLE('',#560,4.);
#560 = AXIS2_PLACEMENT_3D('',#561,#562,#563);
#561 = CARTESIAN_POINT('',(0.,0.,-1.5));
#562 = DIRECTION('',(0.,0.,1.));
#563 = DIRECTION('',(1.,0.,-0.));
#564 = PCURVE('',#286,#565);
#565 = DEFINITIONAL_REPRESENTATION('',(#566),#570);
#566 = LINE('',#567,#568);
#567 = CARTESIAN_POINT('',(0.,-1.5));
#568 = VECTOR('',#569,1.);
#569 = DIRECTION('',(1.,-0.));
#570 = ( GEOMETRIC_REPRESENTATION_CONTEXT(2) 
PARAMETRIC_REPRESENTATION_CONTEXT() REPRESENTATION_CONTEXT('2D SPACE',''
  ) );
#571 = PCURVE('',#572,#577);
#572 = PLANE('',#573);
#573 = AXIS2_PLACEMENT_3D('',#574,#575,#576);
#574 = CARTESIAN_POINT('',(0.,0.,-1.5));
#575 = DIRECTION('',(0.,0.,1.));
#576 = DIRECTION('',(1.,0.,-0.));
#577 = DEFINITIONAL_REPRESENTATION('',(#578),#582);
#578 = CIRCLE('',#579,4.);
#579 = AXIS2_PLACEMENT_2D('',#580,#581);
#580 = CARTESIAN_POINT('',(0.,0.));
#581 = DIRECTION('',(1.,0.));
#582 = ( GEOMETRIC_REPRESENTATION_CONTEXT(2) 
PARAMETRIC_REPRESENTATION_CONTEXT() REPRESENTATION_CONTEXT('2D SPACE',''
  ) );
#583 = ORIENTED_EDGE('',*,*,#534,.F.);
#584 = ORIENTED_EDGE('',*,*,#585,.F.);
#585 = EDGE_CURVE('',#302,#507,#586,.T.);
#586 = SURFACE_CURVE('',#587,(#592,#599),.PCURVE_S1.);
#587 = CIRCLE('',#588,4.434635496149);
#588 = AXIS2_PLACEMENT_3D('',#589,#590,#591);
#589 = CARTESIAN_POINT('',(0.,0.,-1.065364503851));
#590 = DIRECTION('',(0.,0.,-1.));
#591 = DIRECTION('',(1.,0.,0.));
#592 = PCURVE('',#286,#593);
#593 = DEFINITIONAL_REPRESENTATION('',(#594),#598);
#594 = LINE('',#595,#596);
#595 = CARTESIAN_POINT('',(6.28318530718,-1.065364503851));
#596 = VECTOR('',#597,1.);
#597 = DIRECTION('',(-1.,-0.));
#598 = ( GEOMETRIC_REPRESENTATION_CONTEXT(2) 
PARAMETRIC_REPRESENTATION_CONTEXT() REPRESENTATION_CONTEXT('2D SPACE',''
  ) );
#599 = PCURVE('',#344,#600);
#600 = DEFINITIONAL_REPRESENTATION('',(#601),#609);
#601 = ( BOUNDED_CURVE() B_SPLINE_CURVE(2,(#602,#603,#604,#605,#606,#607
,#608),.UNSPECIFIED.,.T.,.F.) B_SPLINE_CURVE_WITH_KNOTS((1,2,2,2,2,1),(
    -2.094395102393,0.,2.094395102393,4.188790204786,6.28318530718,
8.377580409573),.UNSPECIFIED.) CURVE() GEOMETRIC_REPRESENTATION_ITEM() 
RATIONAL_B_SPLINE_CURVE((1.,0.5,1.,0.5,1.,0.5,1.)) REPRESENTATION_ITEM(
  '') );
#602 = CARTESIAN_POINT('',(4.434635496149,0.));
#603 = CARTESIAN_POINT('',(4.434635496149,-7.681013992379));
#604 = CARTESIAN_POINT('',(-2.217317748075,-3.840506996189));
#605 = CARTESIAN_POINT('',(-8.869270992298,-1.086172433149E-15));
#606 = CARTESIAN_POINT('',(-2.217317748075,3.840506996189));
#607 = CARTESIAN_POINT('',(4.434635496149,7.681013992379));
#608 = CARTESIAN_POINT('',(4.434635496149,0.));
#609 = ( GEOMETRIC_REPRESENTATION_CONTEXT(2) 
PARAMETRIC_REPRESENTATION_CONTEXT() REPRESENTATION_CONTEXT('2D SPACE',''
  ) );
#610 = ADVANCED_FACE('',(#611),#344,.T.);
#611 = FACE_BOUND('',#612,.T.);
#612 = EDGE_LOOP('',(#613,#614,#635,#636,#637));
#613 = ORIENTED_EDGE('',*,*,#390,.F.);
#614 = ORIENTED_EDGE('',*,*,#615,.T.);
#615 = EDGE_CURVE('',#391,#480,#616,.T.);
#616 = SURFACE_CURVE('',#617,(#621,#628),.PCURVE_S1.);
#617 = LINE('',#618,#619);
#618 = CARTESIAN_POINT('',(-5.5,-0.955,-1.065364503851));
#619 = VECTOR('',#620,1.);
#620 = DIRECTION('',(1.,0.,0.));
#621 = PCURVE('',#344,#622);
#622 = DEFINITIONAL_REPRESENTATION('',(#623),#627);
#623 = LINE('',#624,#625);
#624 = CARTESIAN_POINT('',(-5.5,-0.955));
#625 = VECTOR('',#626,1.);
#626 = DIRECTION('',(1.,0.));
#627 = ( GEOMETRIC_REPRESENTATION_CONTEXT(2) 
PARAMETRIC_REPRESENTATION_CONTEXT() REPRESENTATION_CONTEXT('2D SPACE',''
  ) );
#628 = PCURVE('',#438,#629);
#629 = DEFINITIONAL_REPRESENTATION('',(#630),#634);
#630 = LINE('',#631,#632);
#631 = CARTESIAN_POINT('',(0.,-2.4));
#632 = VECTOR('',#633,1.);
#633 = DIRECTION('',(1.,0.));
#634 = ( GEOMETRIC_REPRESENTATION_CONTEXT(2) 
PARAMETRIC_REPRESENTATION_CONTEXT() REPRESENTATION_CONTEXT('2D SPACE',''
  ) );
#635 = ORIENTED_EDGE('',*,*,#506,.F.);
#636 = ORIENTED_EDGE('',*,*,#585,.F.);
#637 = ORIENTED_EDGE('',*,*,#328,.T.);
#638 = ADVANCED_FACE('',(#639,#642),#572,.F.);
#639 = FACE_BOUND('',#640,.F.);
#640 = EDGE_LOOP('',(#641));
#641 = ORIENTED_EDGE('',*,*,#557,.T.);
#642 = FACE_BOUND('',#643,.F.);
#643 = EDGE_LOOP('',(#644));
#644 = ORIENTED_EDGE('',*,*,#645,.F.);
#645 = EDGE_CURVE('',#646,#646,#648,.T.);
#646 = VERTEX_POINT('',#647);
#647 = CARTESIAN_POINT('',(2.458734122635,0.,-1.5));
#648 = SURFACE_CURVE('',#649,(#654,#661),.PCURVE_S1.);
#649 = CIRCLE('',#650,2.458734122635);
#650 = AXIS2_PLACEMENT_3D('',#651,#652,#653);
#651 = CARTESIAN_POINT('',(0.,0.,-1.5));
#652 = DIRECTION('',(0.,0.,1.));
#653 = DIRECTION('',(1.,0.,-0.));
#654 = PCURVE('',#572,#655);
#655 = DEFINITIONAL_REPRESENTATION('',(#656),#660);
#656 = CIRCLE('',#657,2.458734122635);
#657 = AXIS2_PLACEMENT_2D('',#658,#659);
#658 = CARTESIAN_POINT('',(0.,0.));
#659 = DIRECTION('',(1.,0.));
#660 = ( GEOMETRIC_REPRESENTATION_CONTEXT(2) 
PARAMETRIC_REPRESENTATION_CONTEXT() REPRESENTATION_CONTEXT('2D SPACE',''
  ) );
#661 = PCURVE('',#662,#667);
#662 = CYLINDRICAL_SURFACE('',#663,2.458734122635);
#663 = AXIS2_PLACEMENT_3D('',#664,#665,#666);
#664 = CARTESIAN_POINT('',(0.,0.,-20.));
#665 = DIRECTION('',(-0.,-0.,-1.));
#666 = DIRECTION('',(1.,0.,0.));
#667 = DEFINITIONAL_REPRESENTATION('',(#668),#672);
#668 = LINE('',#669,#670);
#669 = CARTESIAN_POINT('',(-0.,-18.5));
#670 = VECTOR('',#671,1.);
#671 = DIRECTION('',(-1.,0.));
#672 = ( GEOMETRIC_REPRESENTATION_CONTEXT(2) 
PARAMETRIC_REPRESENTATION_CONTEXT() REPRESENTATION_CONTEXT('2D SPACE',''
  ) );
#673 = ADVANCED_FACE('',(#674),#438,.F.);
#674 = FACE_BOUND('',#675,.F.);
#675 = EDGE_LOOP('',(#676,#677,#678,#679,#729,#841));
#676 = ORIENTED_EDGE('',*,*,#418,.F.);
#677 = ORIENTED_EDGE('',*,*,#615,.T.);
#678 = ORIENTED_EDGE('',*,*,#479,.F.);
#679 = ORIENTED_EDGE('',*,*,#680,.F.);
#680 = EDGE_CURVE('',#681,#451,#683,.T.);
#681 = VERTEX_POINT('',#682);
#682 = CARTESIAN_POINT('',(5.275289288228,-0.955,7.052381177137E-02));
#683 = SURFACE_CURVE('',#684,(#697,#713),.PCURVE_S1.);
#684 = B_SPLINE_CURVE_WITH_KNOTS('',6,(#685,#686,#687,#688,#689,#690,
    #691,#692,#693,#694,#695,#696),.UNSPECIFIED.,.F.,.F.,(7,5,7),(0.,
    0.586654720733,1.),.UNSPECIFIED.);
#685 = CARTESIAN_POINT('',(5.275289288228,-0.955,7.052381177137E-02));
#686 = CARTESIAN_POINT('',(5.294219423626,-0.955,6.122211846413E-02));
#687 = CARTESIAN_POINT('',(5.311049226662,-0.955,4.778285096948E-02));
#688 = CARTESIAN_POINT('',(5.324610917162,-0.955,3.077779130147E-02));
#689 = CARTESIAN_POINT('',(5.333952768945,-0.955,1.121104016574E-02));
#690 = CARTESIAN_POINT('',(5.338590258109,-0.955,-9.62742009483E-03));
#691 = CARTESIAN_POINT('',(5.338485637883,-0.955,-4.512379378311E-02));
#692 = CARTESIAN_POINT('',(5.336110132667,-0.955,-5.978976760594E-02));
#693 = CARTESIAN_POINT('',(5.331401300773,-0.955,-7.399877889388E-02));
#694 = CARTESIAN_POINT('',(5.324484330727,-0.955,-8.730338005042E-02));
#695 = CARTESIAN_POINT('',(5.315593086543,-0.955,-9.930084393802E-02));
#696 = CARTESIAN_POINT('',(5.305052528954,-0.955,-0.109674654071));
#697 = PCURVE('',#438,#698);
#698 = DEFINITIONAL_REPRESENTATION('',(#699),#712);
#699 = B_SPLINE_CURVE_WITH_KNOTS('',6,(#700,#701,#702,#703,#704,#705,
    #706,#707,#708,#709,#710,#711),.UNSPECIFIED.,.F.,.F.,(7,5,7),(0.,
    0.586654720733,1.),.UNSPECIFIED.);
#700 = CARTESIAN_POINT('',(10.775289288228,-1.264111684378));
#701 = CARTESIAN_POINT('',(10.794219423626,-1.273413377685));
#702 = CARTESIAN_POINT('',(10.811049226662,-1.28685264518));
#703 = CARTESIAN_POINT('',(10.824610917162,-1.303857704848));
#704 = CARTESIAN_POINT('',(10.833952768945,-1.323424455983));
#705 = CARTESIAN_POINT('',(10.838590258109,-1.344262916244));
#706 = CARTESIAN_POINT('',(10.838485637883,-1.379759289932));
#707 = CARTESIAN_POINT('',(10.836110132667,-1.394425263755));
#708 = CARTESIAN_POINT('',(10.831401300773,-1.408634275043));
#709 = CARTESIAN_POINT('',(10.824484330727,-1.4219388762));
#710 = CARTESIAN_POINT('',(10.815593086543,-1.433936340087));
#711 = CARTESIAN_POINT('',(10.805052528954,-1.44431015022));
#712 = ( GEOMETRIC_REPRESENTATION_CONTEXT(2) 
PARAMETRIC_REPRESENTATION_CONTEXT() REPRESENTATION_CONTEXT('2D SPACE',''
  ) );
#713 = PCURVE('',#467,#714);
#714 = DEFINITIONAL_REPRESENTATION('',(#715),#728);
#715 = B_SPLINE_CURVE_WITH_KNOTS('',6,(#716,#717,#718,#719,#720,#721,
    #722,#723,#724,#725,#726,#727),.UNSPECIFIED.,.F.,.F.,(7,5,7),(0.,
    0.586654720733,1.),.UNSPECIFIED.);
#716 = CARTESIAN_POINT('',(-6.104092233647,5.175521651487));
#717 = CARTESIAN_POINT('',(-6.104721246788,5.36059422036));
#718 = CARTESIAN_POINT('',(-6.105275234521,5.545683778161));
#719 = CARTESIAN_POINT('',(-6.105717586498,5.730771742079));
#720 = CARTESIAN_POINT('',(-6.106020858869,5.91586870297));
#721 = CARTESIAN_POINT('',(-6.106171446126,6.100982566929));
#722 = CARTESIAN_POINT('',(-6.106168049125,6.416507216559));
#723 = CARTESIAN_POINT('',(-6.106090908799,6.54692959907));
#724 = CARTESIAN_POINT('',(-6.105938032003,6.677348156493));
#725 = CARTESIAN_POINT('',(-6.105712914494,6.807763429653));
#726 = CARTESIAN_POINT('',(-6.105422284138,6.938176510722));
#727 = CARTESIAN_POINT('',(-6.105075836983,7.068583470577));
#728 = ( GEOMETRIC_REPRESENTATION_CONTEXT(2) 
PARAMETRIC_REPRESENTATION_CONTEXT() REPRESENTATION_CONTEXT('2D SPACE',''
  ) );
#729 = ORIENTED_EDGE('',*,*,#730,.T.);
#730 = EDGE_CURVE('',#681,#731,#733,.T.);
#731 = VERTEX_POINT('',#732);
#732 = CARTESIAN_POINT('',(-5.275289288228,-0.955,7.052381177137E-02));
#733 = SURFACE_CURVE('',#734,(#739,#746),.PCURVE_S1.);
#734 = CIRCLE('',#735,11.961938597067);
#735 = AXIS2_PLACEMENT_3D('',#736,#737,#738);
#736 = CARTESIAN_POINT('',(-6.550315845288E-15,-0.955,-10.66536450385));
#737 = DIRECTION('',(0.,-1.,0.));
#738 = DIRECTION('',(0.,-0.,-1.));
#739 = PCURVE('',#438,#740);
#740 = DEFINITIONAL_REPRESENTATION('',(#741),#745);
#741 = CIRCLE('',#742,11.961938597067);
#742 = AXIS2_PLACEMENT_2D('',#743,#744);
#743 = CARTESIAN_POINT('',(5.5,-12.));
#744 = DIRECTION('',(0.,-1.));
#745 = ( GEOMETRIC_REPRESENTATION_CONTEXT(2) 
PARAMETRIC_REPRESENTATION_CONTEXT() REPRESENTATION_CONTEXT('2D SPACE',''
  ) );
#746 = PCURVE('',#747,#752);
#747 = SPHERICAL_SURFACE('',#748,12.);
#748 = AXIS2_PLACEMENT_3D('',#749,#750,#751);
#749 = CARTESIAN_POINT('',(-6.550315845288E-15,0.,-10.66536450385));
#750 = DIRECTION('',(-0.,-0.,-1.));
#751 = DIRECTION('',(1.,0.,-0.));
#752 = DEFINITIONAL_REPRESENTATION('',(#753),#840);
#753 = B_SPLINE_CURVE_WITH_KNOTS('',8,(#754,#755,#756,#757,#758,#759,
    #760,#761,#762,#763,#764,#765,#766,#767,#768,#769,#770,#771,#772,
    #773,#774,#775,#776,#777,#778,#779,#780,#781,#782,#783,#784,#785,
    #786,#787,#788,#789,#790,#791,#792,#793,#794,#795,#796,#797,#798,
    #799,#800,#801,#802,#803,#804,#805,#806,#807,#808,#809,#810,#811,
    #812,#813,#814,#815,#816,#817,#818,#819,#820,#821,#822,#823,#824,
    #825,#826,#827,#828,#829,#830,#831,#832,#833,#834,#835,#836,#837,
    #838,#839),.UNSPECIFIED.,.F.,.F.,(9,7,7,7,7,7,7,7,7,7,7,7,9),(
    2.684873160549,2.799053033809,2.898960422912,2.986379388377,
    3.062870983158,3.096336055875,3.127709561548,3.157122223115,
    3.212270963555,3.260526111439,3.344972620237,3.471642383434,
    3.598312146631),.UNSPECIFIED.);
#754 = CARTESIAN_POINT('',(-6.104092233647,-1.107663655693));
#755 = CARTESIAN_POINT('',(-6.099000759378,-1.121707860812));
#756 = CARTESIAN_POINT('',(-6.093541116401,-1.135737269225));
#757 = CARTESIAN_POINT('',(-6.087669550273,-1.149750090348));
#758 = CARTESIAN_POINT('',(-6.081333227731,-1.163744155148));
#759 = CARTESIAN_POINT('',(-6.074469059386,-1.177716870625));
#760 = CARTESIAN_POINT('',(-6.066999747862,-1.191665051922));
#761 = CARTESIAN_POINT('',(-6.058827061378,-1.205584632044));
#762 = CARTESIAN_POINT('',(-6.04194319524,-1.231620164239));
#763 = CARTESIAN_POINT('',(-6.033426989788,-1.24374407495));
#764 = CARTESIAN_POINT('',(-6.024187182592,-1.255838372567));
#765 = CARTESIAN_POINT('',(-6.014119214083,-1.267898685705));
#766 = CARTESIAN_POINT('',(-6.003093337009,-1.279919549644));
#767 = CARTESIAN_POINT('',(-5.990947012769,-1.2918940851));
#768 = CARTESIAN_POINT('',(-5.97746936351,-1.303813288589));
#769 = CARTESIAN_POINT('',(-5.949158389742,-1.326034378414));
#770 = CARTESIAN_POINT('',(-5.934705105128,-1.33635219447));
#771 = CARTESIAN_POINT('',(-5.918815762875,-1.346609499198));
#772 = CARTESIAN_POINT('',(-5.901249224597,-1.356795753971));
#773 = CARTESIAN_POINT('',(-5.881700145123,-1.366897294904));
#774 = CARTESIAN_POINT('',(-5.859774809678,-1.376896343023));
#775 = CARTESIAN_POINT('',(-5.834946191593,-1.386768561703));
#776 = CARTESIAN_POINT('',(-5.781560803754,-1.404973057911));
#777 = CARTESIAN_POINT('',(-5.753858120435,-1.41334357648));
#778 = CARTESIAN_POINT('',(-5.722868976904,-1.421564785679));
#779 = CARTESIAN_POINT('',(-5.687977009817,-1.429605410561));
#780 = CARTESIAN_POINT('',(-5.648384634344,-1.437423499446));
#781 = CARTESIAN_POINT('',(-5.603113735281,-1.444963574533));
#782 = CARTESIAN_POINT('',(-5.5508364334,-1.452145067487));
#783 = CARTESIAN_POINT('',(-5.463728165279,-1.461790323603));
#784 = CARTESIAN_POINT('',(-5.435624511874,-1.464635546754));
#785 = CARTESIAN_POINT('',(-5.405818557775,-1.467380984729));
#786 = CARTESIAN_POINT('',(-5.374201201214,-1.47001602548));
#787 = CARTESIAN_POINT('',(-5.340669955958,-1.472528719479));
#788 = CARTESIAN_POINT('',(-5.305140231837,-1.474905800892));
#789 = CARTESIAN_POINT('',(-5.267562037814,-1.477132950974));
#790 = CARTESIAN_POINT('',(-5.190798423038,-1.481128759311));
#791 = CARTESIAN_POINT('',(-5.151860191503,-1.482917379065));
#792 = CARTESIAN_POINT('',(-5.111132801745,-1.484548927313));
#793 = CARTESIAN_POINT('',(-5.068664537776,-1.486010826641));
#794 = CARTESIAN_POINT('',(-5.024561108766,-1.48729053976));
#795 = CARTESIAN_POINT('',(-4.97899975909,-1.488376437581));
#796 = CARTESIAN_POINT('',(-4.932230975917,-1.489258808288));
#797 = CARTESIAN_POINT('',(-4.839860345248,-1.490560525415));
#798 = CARTESIAN_POINT('',(-4.794368272133,-1.491005362092));
#799 = CARTESIAN_POINT('',(-4.748327801839,-1.4912594153));
#800 = CARTESIAN_POINT('',(-4.702026591172,-1.491318981535));
#801 = CARTESIAN_POINT('',(-4.655777712317,-1.491183029566));
#802 = CARTESIAN_POINT('',(-4.609891090839,-1.490853367964));
#803 = CARTESIAN_POINT('',(-4.564645795643,-1.49033438889));
#804 = CARTESIAN_POINT('',(-4.437090001604,-1.488316215692));
#805 = CARTESIAN_POINT('',(-4.356988622644,-1.486356688425));
#806 = CARTESIAN_POINT('',(-4.281531772112,-1.483795497383));
#807 = CARTESIAN_POINT('',(-4.211765539527,-1.480698864152));
#808 = CARTESIAN_POINT('',(-4.14785506207,-1.477143174751));
#809 = CARTESIAN_POINT('',(-4.08956732283,-1.473195031013));
#810 = CARTESIAN_POINT('',(-4.036497379145,-1.468912865146));
#811 = CARTESIAN_POINT('',(-3.945893460686,-1.460349127206));
#812 = CARTESIAN_POINT('',(-3.907246841604,-1.456134393751));
#813 = CARTESIAN_POINT('',(-3.87192095562,-1.451734141447));
#814 = CARTESIAN_POINT('',(-3.839566518331,-1.447175729073));
#815 = CARTESIAN_POINT('',(-3.809856842335,-1.442481439968));
#816 = CARTESIAN_POINT('',(-3.782502526835,-1.437669467236));
#817 = CARTESIAN_POINT('',(-3.757247179612,-1.432754943851));
#818 = CARTESIAN_POINT('',(-3.692954213207,-1.418992576785));
#819 = CARTESIAN_POINT('',(-3.657785945818,-1.409959168429));
#820 = CARTESIAN_POINT('',(-3.62716648378,-1.400717707643));
#821 = CARTESIAN_POINT('',(-3.600205675008,-1.391312179885));
#822 = CARTESIAN_POINT('',(-3.576258322046,-1.381773960842));
#823 = CARTESIAN_POINT('',(-3.554822624047,-1.372126354211));
#824 = CARTESIAN_POINT('',(-3.535510895802,-1.36238718605));
#825 = CARTESIAN_POINT('',(-3.491766537354,-1.337845278497));
#826 = CARTESIAN_POINT('',(-3.469601462999,-1.322945547034));
#827 = CARTESIAN_POINT('',(-3.450473118824,-1.307918342774));
#828 = CARTESIAN_POINT('',(-3.433738323021,-1.292791310812));
#829 = CARTESIAN_POINT('',(-3.418935498019,-1.277584328605));
#830 = CARTESIAN_POINT('',(-3.405728389726,-1.262311562831));
#831 = CARTESIAN_POINT('',(-3.393858484844,-1.246983914071));
#832 = CARTESIAN_POINT('',(-3.372390040001,-1.216235691414));
#833 = CARTESIAN_POINT('',(-3.362791466539,-1.200815119869));
#834 = CARTESIAN_POINT('',(-3.354126983824,-1.185356516651));
#835 = CARTESIAN_POINT('',(-3.346250756755,-1.16986592337));
#836 = CARTESIAN_POINT('',(-3.339050291895,-1.154347980022));
#837 = CARTESIAN_POINT('',(-3.332435603892,-1.1388063894));
#838 = CARTESIAN_POINT('',(-3.326334146775,-1.123244126103));
#839 = CARTESIAN_POINT('',(-3.320685727123,-1.107663655693));
#840 = ( GEOMETRIC_REPRESENTATION_CONTEXT(2) 
PARAMETRIC_REPRESENTATION_CONTEXT() REPRESENTATION_CONTEXT('2D SPACE',''
  ) );
#841 = ORIENTED_EDGE('',*,*,#842,.T.);
#842 = EDGE_CURVE('',#731,#419,#843,.T.);
#843 = SURFACE_CURVE('',#844,(#857,#873),.PCURVE_S1.);
#844 = B_SPLINE_CURVE_WITH_KNOTS('',6,(#845,#846,#847,#848,#849,#850,
    #851,#852,#853,#854,#855,#856),.UNSPECIFIED.,.F.,.F.,(7,5,7),(0.,
    0.586654720676,1.),.UNSPECIFIED.);
#845 = CARTESIAN_POINT('',(-5.275289288228,-0.955,7.052381177137E-02));
#846 = CARTESIAN_POINT('',(-5.294219423624,-0.955,6.122211846503E-02));
#847 = CARTESIAN_POINT('',(-5.311049226659,-0.955,4.778285097207E-02));
#848 = CARTESIAN_POINT('',(-5.324610917158,-0.955,3.077779130643E-02));
#849 = CARTESIAN_POINT('',(-5.333952768941,-0.955,1.12110401733E-02));
#850 = CARTESIAN_POINT('',(-5.338590258107,-0.955,-9.627420084745E-03));
#851 = CARTESIAN_POINT('',(-5.338485637885,-0.955,-4.512379377305E-02));
#852 = CARTESIAN_POINT('',(-5.336110132669,-0.955,-5.978976759813E-02));
#853 = CARTESIAN_POINT('',(-5.331401300776,-0.955,-7.399877888841E-02));
#854 = CARTESIAN_POINT('',(-5.32448433073,-0.955,-8.730338004713E-02));
#855 = CARTESIAN_POINT('',(-5.315593086545,-0.955,-9.930084393659E-02));
#856 = CARTESIAN_POINT('',(-5.305052528954,-0.955,-0.109674654071));
#857 = PCURVE('',#438,#858);
#858 = DEFINITIONAL_REPRESENTATION('',(#859),#872);
#859 = B_SPLINE_CURVE_WITH_KNOTS('',6,(#860,#861,#862,#863,#864,#865,
    #866,#867,#868,#869,#870,#871),.UNSPECIFIED.,.F.,.F.,(7,5,7),(0.,
    0.586654720676,1.),.UNSPECIFIED.);
#860 = CARTESIAN_POINT('',(0.224710711772,-1.264111684378));
#861 = CARTESIAN_POINT('',(0.205780576376,-1.273413377684));
#862 = CARTESIAN_POINT('',(0.188950773341,-1.286852645177));
#863 = CARTESIAN_POINT('',(0.175389082842,-1.303857704843));
#864 = CARTESIAN_POINT('',(0.166047231059,-1.323424455976));
#865 = CARTESIAN_POINT('',(0.161409741893,-1.344262916234));
#866 = CARTESIAN_POINT('',(0.161514362115,-1.379759289922));
#867 = CARTESIAN_POINT('',(0.163889867331,-1.394425263747));
#868 = CARTESIAN_POINT('',(0.168598699224,-1.408634275038));
#869 = CARTESIAN_POINT('',(0.17551566927,-1.421938876196));
#870 = CARTESIAN_POINT('',(0.184406913455,-1.433936340086));
#871 = CARTESIAN_POINT('',(0.194947471046,-1.44431015022));
#872 = ( GEOMETRIC_REPRESENTATION_CONTEXT(2) 
PARAMETRIC_REPRESENTATION_CONTEXT() REPRESENTATION_CONTEXT('2D SPACE',''
  ) );
#873 = PCURVE('',#467,#874);
#874 = DEFINITIONAL_REPRESENTATION('',(#875),#888);
#875 = B_SPLINE_CURVE_WITH_KNOTS('',6,(#876,#877,#878,#879,#880,#881,
    #882,#883,#884,#885,#886,#887),.UNSPECIFIED.,.F.,.F.,(7,5,7),(0.,
    0.586654720676,1.),.UNSPECIFIED.);
#876 = CARTESIAN_POINT('',(-3.320685727123,5.175521651487));
#877 = CARTESIAN_POINT('',(-3.320056713981,5.360594220342));
#878 = CARTESIAN_POINT('',(-3.319502726249,5.545683778126));
#879 = CARTESIAN_POINT('',(-3.319060374272,5.730771742025));
#880 = CARTESIAN_POINT('',(-3.3187571019,5.915868702898));
#881 = CARTESIAN_POINT('',(-3.318606514644,6.10098256684));
#882 = CARTESIAN_POINT('',(-3.318609911645,6.416507216469));
#883 = CARTESIAN_POINT('',(-3.31868705197,6.546929598998));
#884 = CARTESIAN_POINT('',(-3.318839928766,6.67734815644));
#885 = CARTESIAN_POINT('',(-3.319065046275,6.807763429617));
#886 = CARTESIAN_POINT('',(-3.319355676631,6.938176510704));
#887 = CARTESIAN_POINT('',(-3.319702123786,7.068583470577));
#888 = ( GEOMETRIC_REPRESENTATION_CONTEXT(2) 
PARAMETRIC_REPRESENTATION_CONTEXT() REPRESENTATION_CONTEXT('2D SPACE',''
  ) );
#889 = ADVANCED_FACE('',(#890),#467,.T.);
#890 = FACE_BOUND('',#891,.F.);
#891 = EDGE_LOOP('',(#892,#914,#915,#916));
#892 = ORIENTED_EDGE('',*,*,#893,.T.);
#893 = EDGE_CURVE('',#731,#681,#894,.T.);
#894 = SURFACE_CURVE('',#895,(#900,#907),.PCURVE_S1.);
#895 = CIRCLE('',#896,5.361035541245);
#896 = AXIS2_PLACEMENT_3D('',#897,#898,#899);
#897 = CARTESIAN_POINT('',(0.,0.,7.052381177137E-02));
#898 = DIRECTION('',(0.,0.,1.));
#899 = DIRECTION('',(1.,0.,-0.));
#900 = PCURVE('',#467,#901);
#901 = DEFINITIONAL_REPRESENTATION('',(#902),#906);
#902 = LINE('',#903,#904);
#903 = CARTESIAN_POINT('',(-0.,5.175521651487));
#904 = VECTOR('',#905,1.);
#905 = DIRECTION('',(-1.,0.));
#906 = ( GEOMETRIC_REPRESENTATION_CONTEXT(2) 
PARAMETRIC_REPRESENTATION_CONTEXT() REPRESENTATION_CONTEXT('2D SPACE',''
  ) );
#907 = PCURVE('',#747,#908);
#908 = DEFINITIONAL_REPRESENTATION('',(#909),#913);
#909 = LINE('',#910,#911);
#910 = CARTESIAN_POINT('',(-0.,-1.107663655693));
#911 = VECTOR('',#912,1.);
#912 = DIRECTION('',(-1.,0.));
#913 = ( GEOMETRIC_REPRESENTATION_CONTEXT(2) 
PARAMETRIC_REPRESENTATION_CONTEXT() REPRESENTATION_CONTEXT('2D SPACE',''
  ) );
#914 = ORIENTED_EDGE('',*,*,#680,.T.);
#915 = ORIENTED_EDGE('',*,*,#450,.F.);
#916 = ORIENTED_EDGE('',*,*,#842,.F.);
#917 = ADVANCED_FACE('',(#918),#662,.T.);
#918 = FACE_BOUND('',#919,.F.);
#919 = EDGE_LOOP('',(#920,#943,#944,#945));
#920 = ORIENTED_EDGE('',*,*,#921,.T.);
#921 = EDGE_CURVE('',#922,#646,#924,.T.);
#922 = VERTEX_POINT('',#923);
#923 = CARTESIAN_POINT('',(2.458734122635,0.,-20.));
#924 = SEAM_CURVE('',#925,(#929,#936),.PCURVE_S1.);
#925 = LINE('',#926,#927);
#926 = CARTESIAN_POINT('',(2.458734122635,0.,-20.));
#927 = VECTOR('',#928,1.);
#928 = DIRECTION('',(0.,0.,1.));
#929 = PCURVE('',#662,#930);
#930 = DEFINITIONAL_REPRESENTATION('',(#931),#935);
#931 = LINE('',#932,#933);
#932 = CARTESIAN_POINT('',(-0.,0.));
#933 = VECTOR('',#934,1.);
#934 = DIRECTION('',(-0.,-1.));
#935 = ( GEOMETRIC_REPRESENTATION_CONTEXT(2) 
PARAMETRIC_REPRESENTATION_CONTEXT() REPRESENTATION_CONTEXT('2D SPACE',''
  ) );
#936 = PCURVE('',#662,#937);
#937 = DEFINITIONAL_REPRESENTATION('',(#938),#942);
#938 = LINE('',#939,#940);
#939 = CARTESIAN_POINT('',(-6.28318530718,0.));
#940 = VECTOR('',#941,1.);
#941 = DIRECTION('',(-0.,-1.));
#942 = ( GEOMETRIC_REPRESENTATION_CONTEXT(2) 
PARAMETRIC_REPRESENTATION_CONTEXT() REPRESENTATION_CONTEXT('2D SPACE',''
  ) );
#943 = ORIENTED_EDGE('',*,*,#645,.T.);
#944 = ORIENTED_EDGE('',*,*,#921,.F.);
#945 = ORIENTED_EDGE('',*,*,#946,.F.);
#946 = EDGE_CURVE('',#922,#922,#947,.T.);
#947 = SURFACE_CURVE('',#948,(#953,#960),.PCURVE_S1.);
#948 = CIRCLE('',#949,2.458734122635);
#949 = AXIS2_PLACEMENT_3D('',#950,#951,#952);
#950 = CARTESIAN_POINT('',(0.,0.,-20.));
#951 = DIRECTION('',(0.,0.,1.));
#952 = DIRECTION('',(1.,0.,-0.));
#953 = PCURVE('',#662,#954);
#954 = DEFINITIONAL_REPRESENTATION('',(#955),#959);
#955 = LINE('',#956,#957);
#956 = CARTESIAN_POINT('',(-0.,0.));
#957 = VECTOR('',#958,1.);
#958 = DIRECTION('',(-1.,0.));
#959 = ( GEOMETRIC_REPRESENTATION_CONTEXT(2) 
PARAMETRIC_REPRESENTATION_CONTEXT() REPRESENTATION_CONTEXT('2D SPACE',''
  ) );
#960 = PCURVE('',#961,#966);
#961 = PLANE('',#962);
#962 = AXIS2_PLACEMENT_3D('',#963,#964,#965);
#963 = CARTESIAN_POINT('',(-3.475976011271E-16,3.866967800953E-17,-20.)
  );
#964 = DIRECTION('',(0.,0.,1.));
#965 = DIRECTION('',(1.,0.,-0.));
#966 = DEFINITIONAL_REPRESENTATION('',(#967),#971);
#967 = CIRCLE('',#968,2.458734122635);
#968 = AXIS2_PLACEMENT_2D('',#969,#970);
#969 = CARTESIAN_POINT('',(3.475976011271E-16,-3.866967800953E-17));
#970 = DIRECTION('',(1.,0.));
#971 = ( GEOMETRIC_REPRESENTATION_CONTEXT(2) 
PARAMETRIC_REPRESENTATION_CONTEXT() REPRESENTATION_CONTEXT('2D SPACE',''
  ) );
#972 = ADVANCED_FACE('',(#973),#747,.T.);
#973 = FACE_BOUND('',#974,.F.);
#974 = EDGE_LOOP('',(#975,#976));
#975 = ORIENTED_EDGE('',*,*,#730,.F.);
#976 = ORIENTED_EDGE('',*,*,#893,.F.);
#977 = ADVANCED_FACE('',(#978),#961,.F.);
#978 = FACE_BOUND('',#979,.F.);
#979 = EDGE_LOOP('',(#980));
#980 = ORIENTED_EDGE('',*,*,#946,.T.);
#981 = ( GEOMETRIC_REPRESENTATION_CONTEXT(3) 
GLOBAL_UNCERTAINTY_ASSIGNED_CONTEXT((#985)) GLOBAL_UNIT_ASSIGNED_CONTEXT
((#982,#983,#984)) REPRESENTATION_CONTEXT('Context #1',
  '3D Context with UNIT and UNCERTAINTY') );
#982 = ( LENGTH_UNIT() NAMED_UNIT(*) SI_UNIT(.MILLI.,.METRE.) );
#983 = ( NAMED_UNIT(*) PLANE_ANGLE_UNIT() SI_UNIT($,.RADIAN.) );
#984 = ( NAMED_UNIT(*) SI_UNIT($,.STERADIAN.) SOLID_ANGLE_UNIT() );
#985 = UNCERTAINTY_MEASURE_WITH_UNIT(LENGTH_MEASURE(5.E-07),#982,
  'distance_accuracy_value','confusion accuracy');
#986 = PRODUCT_RELATED_PRODUCT_CATEGORY('part',$,(#7));
ENDSEC;
END-ISO-10303-21;
