ISO-10303-21;
HEADER;
FILE_DESCRIPTION(('Open CASCADE Model'),'2;1');
FILE_NAME('Open CASCADE Shape Model','2026-09-14T17:55:02',('Author'),(
    'Open CASCADE'),'Open CASCADE STEP processor 7.9','Open CASCADE 7.9'
  ,'Unknown');
FILE_SCHEMA(('AUTOMOTIVE_DESIGN { 1 0 10303 214 1 1 1 1 }'));
ENDSEC;
DATA;
#1 = APPLICATION_PROTOCOL_DEFINITION('international standard',
  'automotive_design',2000,#2);
#2 = APPLICATION_CONTEXT(
  'core data for automotive mechanical design processes');
#3 = SHAPE_DEFINITION_REPRESENTATION(#4,#10);
#4 = PRODUCT_DEFINITION_SHAPE('','',#5);
#5 = PRODUCT_DEFINITION('design','',#6,#9);
#6 = PRODUCT_DEFINITION_FORMATION('','',#7);
#7 = PRODUCT('Open CASCADE STEP translator 7.9 18',
  'Open CASCADE STEP translator 7.9 18','',(#8));
#8 = PRODUCT_CONTEXT('',#2,'mechanical');
#9 = PRODUCT_DEFINITION_CONTEXT('part definition',#2,'design');
#10 = ADVANCED_BREP_SHAPE_REPRESENTATION('',(#11,#15),#773);
#11 = AXIS2_PLACEMENT_3D('',#12,#13,#14);
#12 = CARTESIAN_POINT('',(0.,0.,0.));
#13 = DIRECTION('',(0.,0.,1.));
#14 = DIRECTION('',(1.,0.,-0.));
#15 = MANIFOLD_SOLID_BREP('',#16);
#16 = CLOSED_SHELL('',(#17,#89,#602,#657,#705,#732,#737,#764,#769));
#17 = ADVANCED_FACE('',(#18,#58),#31,.F.);
#18 = FACE_BOUND('',#19,.T.);
#19 = EDGE_LOOP('',(#20));
#20 = ORIENTED_EDGE('',*,*,#21,.F.);
#21 = EDGE_CURVE('',#22,#22,#24,.T.);
#22 = VERTEX_POINT('',#23);
#23 = CARTESIAN_POINT('',(6.,0.,0.));
#24 = SURFACE_CURVE('',#25,(#30,#42),.PCURVE_S1.);
#25 = CIRCLE('',#26,6.);
#26 = AXIS2_PLACEMENT_3D('',#27,#28,#29);
#27 = CARTESIAN_POINT('',(0.,0.,0.));
#28 = DIRECTION('',(0.,0.,1.));
#29 = DIRECTION('',(1.,0.,-0.));
#30 = PCURVE('',#31,#36);
#31 = PLANE('',#32);
#32 = AXIS2_PLACEMENT_3D('',#33,#34,#35);
#33 = CARTESIAN_POINT('',(0.,0.,0.));
#34 = DIRECTION('',(0.,0.,1.));
#35 = DIRECTION('',(1.,0.,-0.));
#36 = DEFINITIONAL_REPRESENTATION('',(#37),#41);
#37 = CIRCLE('',#38,6.);
#38 = AXIS2_PLACEMENT_2D('',#39,#40);
#39 = CARTESIAN_POINT('',(0.,0.));
#40 = DIRECTION('',(1.,-0.));
#41 = ( GEOMETRIC_REPRESENTATION_CONTEXT(2) 
PARAMETRIC_REPRESENTATION_CONTEXT() REPRESENTATION_CONTEXT('2D SPACE',''
  ) );
#42 = PCURVE('',#43,#52);
#43 = SURFACE_OF_REVOLUTION('',#44,#49);
#44 = B_SPLINE_CURVE_WITH_KNOTS('',3,(#45,#46,#47,#48),.UNSPECIFIED.,.F.
  ,.F.,(4,4),(0.,4.686149805544),.PIECEWISE_BEZIER_KNOTS.);
#45 = CARTESIAN_POINT('',(6.,0.,0.));
#46 = CARTESIAN_POINT('',(5.823009594295,0.,2.023009594295));
#47 = CARTESIAN_POINT('',(5.2,0.,3.6));
#48 = CARTESIAN_POINT('',(3.,0.,3.6));
#49 = AXIS1_PLACEMENT('',#50,#51);
#50 = CARTESIAN_POINT('',(0.,0.,0.));
#51 = DIRECTION('',(0.,0.,1.));
#52 = DEFINITIONAL_REPRESENTATION('',(#53),#57);
#53 = LINE('',#54,#55);
#54 = CARTESIAN_POINT('',(0.,0.));
#55 = VECTOR('',#56,1.);
#56 = DIRECTION('',(1.,0.));
#57 = ( GEOMETRIC_REPRESENTATION_CONTEXT(2) 
PARAMETRIC_REPRESENTATION_CONTEXT() REPRESENTATION_CONTEXT('2D SPACE',''
  ) );
#58 = FACE_BOUND('',#59,.T.);
#59 = EDGE_LOOP('',(#60));
#60 = ORIENTED_EDGE('',*,*,#61,.T.);
#61 = EDGE_CURVE('',#62,#62,#64,.T.);
#62 = VERTEX_POINT('',#63);
#63 = CARTESIAN_POINT('',(2.458734122635,0.,0.));
#64 = SURFACE_CURVE('',#65,(#70,#77),.PCURVE_S1.);
#65 = CIRCLE('',#66,2.458734122635);
#66 = AXIS2_PLACEMENT_3D('',#67,#68,#69);
#67 = CARTESIAN_POINT('',(0.,0.,0.));
#68 = DIRECTION('',(0.,0.,1.));
#69 = DIRECTION('',(1.,0.,-0.));
#70 = PCURVE('',#31,#71);
#71 = DEFINITIONAL_REPRESENTATION('',(#72),#76);
#72 = CIRCLE('',#73,2.458734122635);
#73 = AXIS2_PLACEMENT_2D('',#74,#75);
#74 = CARTESIAN_POINT('',(0.,0.));
#75 = DIRECTION('',(1.,-0.));
#76 = ( GEOMETRIC_REPRESENTATION_CONTEXT(2) 
PARAMETRIC_REPRESENTATION_CONTEXT() REPRESENTATION_CONTEXT('2D SPACE',''
  ) );
#77 = PCURVE('',#78,#83);
#78 = CYLINDRICAL_SURFACE('',#79,2.458734122635);
#79 = AXIS2_PLACEMENT_3D('',#80,#81,#82);
#80 = CARTESIAN_POINT('',(0.,0.,-20.));
#81 = DIRECTION('',(-0.,-0.,-1.));
#82 = DIRECTION('',(1.,0.,0.));
#83 = DEFINITIONAL_REPRESENTATION('',(#84),#88);
#84 = LINE('',#85,#86);
#85 = CARTESIAN_POINT('',(-0.,-20.));
#86 = VECTOR('',#87,1.);
#87 = DIRECTION('',(-1.,0.));
#88 = ( GEOMETRIC_REPRESENTATION_CONTEXT(2) 
PARAMETRIC_REPRESENTATION_CONTEXT() REPRESENTATION_CONTEXT('2D SPACE',''
  ) );
#89 = ADVANCED_FACE('',(#90),#43,.T.);
#90 = FACE_BOUND('',#91,.T.);
#91 = EDGE_LOOP('',(#92,#116,#117,#118,#152,#237,#266,#346,#381,#466,
    #495,#575));
#92 = ORIENTED_EDGE('',*,*,#93,.F.);
#93 = EDGE_CURVE('',#22,#94,#96,.T.);
#94 = VERTEX_POINT('',#95);
#95 = CARTESIAN_POINT('',(5.472102188897,0.,2.2));
#96 = SEAM_CURVE('',#97,(#102,#109),.PCURVE_S1.);
#97 = B_SPLINE_CURVE_WITH_KNOTS('',3,(#98,#99,#100,#101),.UNSPECIFIED.,
  .F.,.F.,(4,4),(0.,4.686149805544),.PIECEWISE_BEZIER_KNOTS.);
#98 = CARTESIAN_POINT('',(6.,0.,0.));
#99 = CARTESIAN_POINT('',(5.823009594295,0.,2.023009594295));
#100 = CARTESIAN_POINT('',(5.2,0.,3.6));
#101 = CARTESIAN_POINT('',(3.,0.,3.6));
#102 = PCURVE('',#43,#103);
#103 = DEFINITIONAL_REPRESENTATION('',(#104),#108);
#104 = LINE('',#105,#106);
#105 = CARTESIAN_POINT('',(0.,0.));
#106 = VECTOR('',#107,1.);
#107 = DIRECTION('',(0.,1.));
#108 = ( GEOMETRIC_REPRESENTATION_CONTEXT(2) 
PARAMETRIC_REPRESENTATION_CONTEXT() REPRESENTATION_CONTEXT('2D SPACE',''
  ) );
#109 = PCURVE('',#43,#110);
#110 = DEFINITIONAL_REPRESENTATION('',(#111),#115);
#111 = LINE('',#112,#113);
#112 = CARTESIAN_POINT('',(6.28318530718,0.));
#113 = VECTOR('',#114,1.);
#114 = DIRECTION('',(0.,1.));
#115 = ( GEOMETRIC_REPRESENTATION_CONTEXT(2) 
PARAMETRIC_REPRESENTATION_CONTEXT() REPRESENTATION_CONTEXT('2D SPACE',''
  ) );
#116 = ORIENTED_EDGE('',*,*,#21,.T.);
#117 = ORIENTED_EDGE('',*,*,#93,.T.);
#118 = ORIENTED_EDGE('',*,*,#119,.T.);
#119 = EDGE_CURVE('',#94,#120,#122,.T.);
#120 = VERTEX_POINT('',#121);
#121 = CARTESIAN_POINT('',(5.388123733335,-0.955,2.2));
#122 = SURFACE_CURVE('',#123,(#129,#138),.PCURVE_S1.);
#123 = B_SPLINE_CURVE_WITH_KNOTS('',4,(#124,#125,#126,#127,#128),
  .UNSPECIFIED.,.F.,.F.,(5,5),(0.,1.),.PIECEWISE_BEZIER_KNOTS.);
#124 = CARTESIAN_POINT('',(5.472102188897,-1.33226762955E-15,2.2));
#125 = CARTESIAN_POINT('',(5.472102188897,-0.239978738272,2.2));
#126 = CARTESIAN_POINT('',(5.458069809979,-0.479958392821,2.2));
#127 = CARTESIAN_POINT('',(5.430005200816,-0.718704158202,2.2));
#128 = CARTESIAN_POINT('',(5.388123733335,-0.955,2.2));
#129 = PCURVE('',#43,#130);
#130 = DEFINITIONAL_REPRESENTATION('',(#131),#137);
#131 = B_SPLINE_CURVE_WITH_KNOTS('',4,(#132,#133,#134,#135,#136),
  .UNSPECIFIED.,.F.,.F.,(5,5),(0.,1.),.PIECEWISE_BEZIER_KNOTS.);
#132 = CARTESIAN_POINT('',(6.28318530718,1.936869363189));
#133 = CARTESIAN_POINT('',(6.239330362592,1.936869363189));
#134 = CARTESIAN_POINT('',(6.195475365937,1.936869363189));
#135 = CARTESIAN_POINT('',(6.151620361445,1.936869363189));
#136 = CARTESIAN_POINT('',(6.107765421675,1.936869363189));
#137 = ( GEOMETRIC_REPRESENTATION_CONTEXT(2) 
PARAMETRIC_REPRESENTATION_CONTEXT() REPRESENTATION_CONTEXT('2D SPACE',''
  ) );
#138 = PCURVE('',#139,#144);
#139 = PLANE('',#140);
#140 = AXIS2_PLACEMENT_3D('',#141,#142,#143);
#141 = CARTESIAN_POINT('',(6.385179149534E-17,0.,2.2));
#142 = DIRECTION('',(0.,0.,1.));
#143 = DIRECTION('',(1.,0.,-0.));
#144 = DEFINITIONAL_REPRESENTATION('',(#145),#151);
#145 = B_SPLINE_CURVE_WITH_KNOTS('',4,(#146,#147,#148,#149,#150),
  .UNSPECIFIED.,.F.,.F.,(5,5),(0.,1.),.PIECEWISE_BEZIER_KNOTS.);
#146 = CARTESIAN_POINT('',(5.472102188897,-1.33226762955E-15));
#147 = CARTESIAN_POINT('',(5.472102188897,-0.239978738272));
#148 = CARTESIAN_POINT('',(5.458069809979,-0.479958392821));
#149 = CARTESIAN_POINT('',(5.430005200816,-0.718704158202));
#150 = CARTESIAN_POINT('',(5.388123733335,-0.955));
#151 = ( GEOMETRIC_REPRESENTATION_CONTEXT(2) 
PARAMETRIC_REPRESENTATION_CONTEXT() REPRESENTATION_CONTEXT('2D SPACE',''
  ) );
#152 = ORIENTED_EDGE('',*,*,#153,.T.);
#153 = EDGE_CURVE('',#120,#154,#156,.T.);
#154 = VERTEX_POINT('',#155);
#155 = CARTESIAN_POINT('',(2.843936532344,-0.955,3.6));
#156 = SURFACE_CURVE('',#157,(#180,#206),.PCURVE_S1.);
#157 = B_SPLINE_CURVE_WITH_KNOTS('',6,(#158,#159,#160,#161,#162,#163,
    #164,#165,#166,#167,#168,#169,#170,#171,#172,#173,#174,#175,#176,
    #177,#178,#179),.UNSPECIFIED.,.F.,.F.,(7,5,5,5,7),(0.,0.168585889795
    ,0.483341813101,0.801508686392,1.),.UNSPECIFIED.);
#158 = CARTESIAN_POINT('',(5.388123733335,-0.955,2.2));
#159 = CARTESIAN_POINT('',(5.349640880831,-0.955,2.274929433001));
#160 = CARTESIAN_POINT('',(5.309001287555,-0.955,2.348316315699));
#161 = CARTESIAN_POINT('',(5.266119630456,-0.955,2.420032283064));
#162 = CARTESIAN_POINT('',(5.220917248492,-0.955,2.489939088755));
#163 = CARTESIAN_POINT('',(5.1733282395,-0.955,2.557893512035));
#164 = CARTESIAN_POINT('',(5.029911408756,-0.955,2.74671292601));
#165 = CARTESIAN_POINT('',(4.928010442561,-0.955,2.862399756372));
#166 = CARTESIAN_POINT('',(4.817333268387,-0.955,2.969816686496));
#167 = CARTESIAN_POINT('',(4.697818734949,-0.955,3.068062756386));
#168 = CARTESIAN_POINT('',(4.569722880342,-0.955,3.156448068435));
#169 = CARTESIAN_POINT('',(4.296259133013,-0.955,3.31361843581));
#170 = CARTESIAN_POINT('',(4.150668372209,-0.955,3.382209704522));
#171 = CARTESIAN_POINT('',(3.997642622725,-0.955,3.439995189349));
#172 = CARTESIAN_POINT('',(3.83805162743,-0.955,3.487073350172));
#173 = CARTESIAN_POINT('',(3.672854924476,-0.955,3.523876299247));
#174 = CARTESIAN_POINT('',(3.39705424985,-0.955,3.56799126976));
#175 = CARTESIAN_POINT('',(3.28927292695,-0.955,3.581191390075));
#176 = CARTESIAN_POINT('',(3.17988066676,-0.955,3.590800632092));
#177 = CARTESIAN_POINT('',(3.069077197763,-0.955,3.59700309087));
#178 = CARTESIAN_POINT('',(2.957043626763,-0.955,3.6));
#179 = CARTESIAN_POINT('',(2.843936532344,-0.955,3.6));
#180 = PCURVE('',#43,#181);
#181 = DEFINITIONAL_REPRESENTATION('',(#182),#205);
#182 = B_SPLINE_CURVE_WITH_KNOTS('',6,(#183,#184,#185,#186,#187,#188,
    #189,#190,#191,#192,#193,#194,#195,#196,#197,#198,#199,#200,#201,
    #202,#203,#204),.UNSPECIFIED.,.F.,.F.,(7,5,5,5,7),(0.,0.168585889795
    ,0.483341813101,0.801508686392,1.),.UNSPECIFIED.);
#183 = CARTESIAN_POINT('',(6.107765421675,1.936869363189));
#184 = CARTESIAN_POINT('',(6.106538089189,2.016975332774));
#185 = CARTESIAN_POINT('',(6.105221575525,2.097486867838));
#186 = CARTESIAN_POINT('',(6.103808239531,2.17837078142));
#187 = CARTESIAN_POINT('',(6.102289576898,2.259581841462));
#188 = CARTESIAN_POINT('',(6.100656100601,2.341061882361));
#189 = CARTESIAN_POINT('',(6.095613330461,2.575232878703));
#190 = CARTESIAN_POINT('',(6.091891447115,2.728452121634));
#191 = CARTESIAN_POINT('',(6.087663917601,2.881857319302));
#192 = CARTESIAN_POINT('',(6.082848903729,3.034823906553));
#193 = CARTESIAN_POINT('',(6.077346064406,3.186645379065));
#194 = CARTESIAN_POINT('',(6.064649988287,3.488052150103));
#195 = CARTESIAN_POINT('',(6.057436723746,3.637651182047));
#196 = CARTESIAN_POINT('',(6.049264693591,3.78452542162));
#197 = CARTESIAN_POINT('',(6.03996884449,3.92806904694));
#198 = CARTESIAN_POINT('',(6.029334362853,4.067831687553));
#199 = CARTESIAN_POINT('',(6.009355051739,4.288083964574));
#200 = CARTESIAN_POINT('',(6.001028818762,4.371106807116));
#201 = CARTESIAN_POINT('',(5.991968814579,4.452466096346));
#202 = CARTESIAN_POINT('',(5.98207516038,4.532114714203));
#203 = CARTESIAN_POINT('',(5.971216385982,4.610018947648));
#204 = CARTESIAN_POINT('',(5.959214466518,4.686149805544));
#205 = ( GEOMETRIC_REPRESENTATION_CONTEXT(2) 
PARAMETRIC_REPRESENTATION_CONTEXT() REPRESENTATION_CONTEXT('2D SPACE',''
  ) );
#206 = PCURVE('',#207,#212);
#207 = PLANE('',#208);
#208 = AXIS2_PLACEMENT_3D('',#209,#210,#211);
#209 = CARTESIAN_POINT('',(-6.,-0.955,3.6));
#210 = DIRECTION('',(0.,-1.,0.));
#211 = DIRECTION('',(1.,0.,0.));
#212 = DEFINITIONAL_REPRESENTATION('',(#213),#236);
#213 = B_SPLINE_CURVE_WITH_KNOTS('',6,(#214,#215,#216,#217,#218,#219,
    #220,#221,#222,#223,#224,#225,#226,#227,#228,#229,#230,#231,#232,
    #233,#234,#235),.UNSPECIFIED.,.F.,.F.,(7,5,5,5,7),(0.,0.168585889795
    ,0.483341813101,0.801508686392,1.),.UNSPECIFIED.);
#214 = CARTESIAN_POINT('',(11.388123733335,-1.4));
#215 = CARTESIAN_POINT('',(11.349640880831,-1.325070566999));
#216 = CARTESIAN_POINT('',(11.309001287555,-1.251683684301));
#217 = CARTESIAN_POINT('',(11.266119630456,-1.179967716936));
#218 = CARTESIAN_POINT('',(11.220917248492,-1.110060911245));
#219 = CARTESIAN_POINT('',(11.1733282395,-1.042106487965));
#220 = CARTESIAN_POINT('',(11.029911408756,-0.85328707399));
#221 = CARTESIAN_POINT('',(10.928010442561,-0.737600243628));
#222 = CARTESIAN_POINT('',(10.817333268387,-0.630183313504));
#223 = CARTESIAN_POINT('',(10.697818734949,-0.531937243614));
#224 = CARTESIAN_POINT('',(10.569722880342,-0.443551931565));
#225 = CARTESIAN_POINT('',(10.296259133013,-0.28638156419));
#226 = CARTESIAN_POINT('',(10.150668372209,-0.217790295478));
#227 = CARTESIAN_POINT('',(9.997642622725,-0.160004810651));
#228 = CARTESIAN_POINT('',(9.83805162743,-0.112926649828));
#229 = CARTESIAN_POINT('',(9.672854924476,-7.612370075282E-02));
#230 = CARTESIAN_POINT('',(9.39705424985,-3.200873024024E-02));
#231 = CARTESIAN_POINT('',(9.28927292695,-1.880860992472E-02));
#232 = CARTESIAN_POINT('',(9.17988066676,-9.199367908112E-03));
#233 = CARTESIAN_POINT('',(9.069077197763,-2.99690912999E-03));
#234 = CARTESIAN_POINT('',(8.957043626763,0.));
#235 = CARTESIAN_POINT('',(8.843936532344,0.));
#236 = ( GEOMETRIC_REPRESENTATION_CONTEXT(2) 
PARAMETRIC_REPRESENTATION_CONTEXT() REPRESENTATION_CONTEXT('2D SPACE',''
  ) );
#237 = ORIENTED_EDGE('',*,*,#238,.F.);
#238 = EDGE_CURVE('',#239,#154,#241,.T.);
#239 = VERTEX_POINT('',#240);
#240 = CARTESIAN_POINT('',(-2.843936532344,-0.955,3.6));
#241 = SURFACE_CURVE('',#242,(#247,#254),.PCURVE_S1.);
#242 = CIRCLE('',#243,3.);
#243 = AXIS2_PLACEMENT_3D('',#244,#245,#246);
#244 = CARTESIAN_POINT('',(0.,0.,3.6));
#245 = DIRECTION('',(0.,0.,1.));
#246 = DIRECTION('',(1.,0.,-0.));
#247 = PCURVE('',#43,#248);
#248 = DEFINITIONAL_REPRESENTATION('',(#249),#253);
#249 = LINE('',#250,#251);
#250 = CARTESIAN_POINT('',(0.,4.686149805544));
#251 = VECTOR('',#252,1.);
#252 = DIRECTION('',(1.,0.));
#253 = ( GEOMETRIC_REPRESENTATION_CONTEXT(2) 
PARAMETRIC_REPRESENTATION_CONTEXT() REPRESENTATION_CONTEXT('2D SPACE',''
  ) );
#254 = PCURVE('',#255,#260);
#255 = PLANE('',#256);
#256 = AXIS2_PLACEMENT_3D('',#257,#258,#259);
#257 = CARTESIAN_POINT('',(0.,0.,3.6));
#258 = DIRECTION('',(0.,0.,1.));
#259 = DIRECTION('',(1.,0.,-0.));
#260 = DEFINITIONAL_REPRESENTATION('',(#261),#265);
#261 = CIRCLE('',#262,3.);
#262 = AXIS2_PLACEMENT_2D('',#263,#264);
#263 = CARTESIAN_POINT('',(0.,0.));
#264 = DIRECTION('',(1.,0.));
#265 = ( GEOMETRIC_REPRESENTATION_CONTEXT(2) 
PARAMETRIC_REPRESENTATION_CONTEXT() REPRESENTATION_CONTEXT('2D SPACE',''
  ) );
#266 = ORIENTED_EDGE('',*,*,#267,.F.);
#267 = EDGE_CURVE('',#268,#239,#270,.T.);
#268 = VERTEX_POINT('',#269);
#269 = CARTESIAN_POINT('',(-5.388123733335,-0.955,2.2));
#270 = SURFACE_CURVE('',#271,(#294,#320),.PCURVE_S1.);
#271 = B_SPLINE_CURVE_WITH_KNOTS('',6,(#272,#273,#274,#275,#276,#277,
    #278,#279,#280,#281,#282,#283,#284,#285,#286,#287,#288,#289,#290,
    #291,#292,#293),.UNSPECIFIED.,.F.,.F.,(7,5,5,5,7),(0.,0.168585889795
    ,0.483341813101,0.801508686392,1.),.UNSPECIFIED.);
#272 = CARTESIAN_POINT('',(-5.388123733335,-0.955,2.2));
#273 = CARTESIAN_POINT('',(-5.349640880831,-0.955,2.274929433001));
#274 = CARTESIAN_POINT('',(-5.309001287555,-0.955,2.348316315699));
#275 = CARTESIAN_POINT('',(-5.266119630456,-0.955,2.420032283064));
#276 = CARTESIAN_POINT('',(-5.220917248492,-0.955,2.489939088754));
#277 = CARTESIAN_POINT('',(-5.1733282395,-0.955,2.557893512035));
#278 = CARTESIAN_POINT('',(-5.029911408756,-0.955,2.74671292601));
#279 = CARTESIAN_POINT('',(-4.928010442561,-0.955,2.862399756372));
#280 = CARTESIAN_POINT('',(-4.817333268387,-0.955,2.969816686496));
#281 = CARTESIAN_POINT('',(-4.697818734949,-0.955,3.068062756386));
#282 = CARTESIAN_POINT('',(-4.569722880342,-0.955,3.156448068435));
#283 = CARTESIAN_POINT('',(-4.296259133014,-0.955,3.31361843581));
#284 = CARTESIAN_POINT('',(-4.150668372208,-0.955,3.382209704522));
#285 = CARTESIAN_POINT('',(-3.997642622726,-0.955,3.439995189349));
#286 = CARTESIAN_POINT('',(-3.83805162743,-0.955,3.487073350172));
#287 = CARTESIAN_POINT('',(-3.672854924477,-0.955,3.523876299247));
#288 = CARTESIAN_POINT('',(-3.39705424985,-0.955,3.56799126976));
#289 = CARTESIAN_POINT('',(-3.28927292695,-0.955,3.581191390075));
#290 = CARTESIAN_POINT('',(-3.17988066676,-0.955,3.590800632092));
#291 = CARTESIAN_POINT('',(-3.069077197763,-0.955,3.59700309087));
#292 = CARTESIAN_POINT('',(-2.957043626763,-0.955,3.6));
#293 = CARTESIAN_POINT('',(-2.843936532344,-0.955,3.6));
#294 = PCURVE('',#43,#295);
#295 = DEFINITIONAL_REPRESENTATION('',(#296),#319);
#296 = B_SPLINE_CURVE_WITH_KNOTS('',6,(#297,#298,#299,#300,#301,#302,
    #303,#304,#305,#306,#307,#308,#309,#310,#311,#312,#313,#314,#315,
    #316,#317,#318),.UNSPECIFIED.,.F.,.F.,(7,5,5,5,7),(0.,0.168585889795
    ,0.483341813101,0.801508686392,1.),.UNSPECIFIED.);
#297 = CARTESIAN_POINT('',(3.317012539094,1.936869363189));
#298 = CARTESIAN_POINT('',(3.31823987158,2.016975332774));
#299 = CARTESIAN_POINT('',(3.319556385244,2.097486867839));
#300 = CARTESIAN_POINT('',(3.320969721238,2.17837078142));
#301 = CARTESIAN_POINT('',(3.322488383871,2.259581841462));
#302 = CARTESIAN_POINT('',(3.324121860168,2.341061882361));
#303 = CARTESIAN_POINT('',(3.329164630309,2.575232878703));
#304 = CARTESIAN_POINT('',(3.332886513654,2.728452121634));
#305 = CARTESIAN_POINT('',(3.337114043168,2.881857319302));
#306 = CARTESIAN_POINT('',(3.341929057041,3.034823906553));
#307 = CARTESIAN_POINT('',(3.347431896364,3.186645379065));
#308 = CARTESIAN_POINT('',(3.360127972483,3.488052150103));
#309 = CARTESIAN_POINT('',(3.367341237023,3.637651182048));
#310 = CARTESIAN_POINT('',(3.375513267178,3.784525421619));
#311 = CARTESIAN_POINT('',(3.384809116279,3.928069046941));
#312 = CARTESIAN_POINT('',(3.395443597917,4.067831687553));
#313 = CARTESIAN_POINT('',(3.41542290903,4.288083964574));
#314 = CARTESIAN_POINT('',(3.423749142007,4.371106807117));
#315 = CARTESIAN_POINT('',(3.432809146191,4.452466096346));
#316 = CARTESIAN_POINT('',(3.44270280039,4.532114714203));
#317 = CARTESIAN_POINT('',(3.453561574788,4.610018947648));
#318 = CARTESIAN_POINT('',(3.465563494251,4.686149805544));
#319 = ( GEOMETRIC_REPRESENTATION_CONTEXT(2) 
PARAMETRIC_REPRESENTATION_CONTEXT() REPRESENTATION_CONTEXT('2D SPACE',''
  ) );
#320 = PCURVE('',#207,#321);
#321 = DEFINITIONAL_REPRESENTATION('',(#322),#345);
#322 = B_SPLINE_CURVE_WITH_KNOTS('',6,(#323,#324,#325,#326,#327,#328,
    #329,#330,#331,#332,#333,#334,#335,#336,#337,#338,#339,#340,#341,
    #342,#343,#344),.UNSPECIFIED.,.F.,.F.,(7,5,5,5,7),(0.,0.168585889795
    ,0.483341813101,0.801508686392,1.),.UNSPECIFIED.);
#323 = CARTESIAN_POINT('',(0.611876266665,-1.4));
#324 = CARTESIAN_POINT('',(0.650359119169,-1.325070566999));
#325 = CARTESIAN_POINT('',(0.690998712445,-1.251683684301));
#326 = CARTESIAN_POINT('',(0.733880369544,-1.179967716936));
#327 = CARTESIAN_POINT('',(0.779082751508,-1.110060911246));
#328 = CARTESIAN_POINT('',(0.8266717605,-1.042106487965));
#329 = CARTESIAN_POINT('',(0.970088591244,-0.85328707399));
#330 = CARTESIAN_POINT('',(1.071989557439,-0.737600243628));
#331 = CARTESIAN_POINT('',(1.182666731613,-0.630183313504));
#332 = CARTESIAN_POINT('',(1.302181265051,-0.531937243614));
#333 = CARTESIAN_POINT('',(1.430277119658,-0.443551931565));
#334 = CARTESIAN_POINT('',(1.703740866986,-0.28638156419));
#335 = CARTESIAN_POINT('',(1.849331627792,-0.217790295478));
#336 = CARTESIAN_POINT('',(2.002357377274,-0.160004810651));
#337 = CARTESIAN_POINT('',(2.16194837257,-0.112926649828));
#338 = CARTESIAN_POINT('',(2.327145075523,-7.612370075286E-02));
#339 = CARTESIAN_POINT('',(2.60294575015,-3.200873024025E-02));
#340 = CARTESIAN_POINT('',(2.71072707305,-1.88086099247E-02));
#341 = CARTESIAN_POINT('',(2.82011933324,-9.19936790811E-03));
#342 = CARTESIAN_POINT('',(2.930922802237,-2.996909130008E-03));
#343 = CARTESIAN_POINT('',(3.042956373237,0.));
#344 = CARTESIAN_POINT('',(3.156063467656,0.));
#345 = ( GEOMETRIC_REPRESENTATION_CONTEXT(2) 
PARAMETRIC_REPRESENTATION_CONTEXT() REPRESENTATION_CONTEXT('2D SPACE',''
  ) );
#346 = ORIENTED_EDGE('',*,*,#347,.T.);
#347 = EDGE_CURVE('',#268,#348,#350,.T.);
#348 = VERTEX_POINT('',#349);
#349 = CARTESIAN_POINT('',(-5.388123733335,0.955,2.2));
#350 = SURFACE_CURVE('',#351,(#359,#370),.PCURVE_S1.);
#351 = B_SPLINE_CURVE_WITH_KNOTS('',6,(#352,#353,#354,#355,#356,#357,
    #358),.UNSPECIFIED.,.F.,.F.,(7,7),(0.,1.),.PIECEWISE_BEZIER_KNOTS.);
#352 = CARTESIAN_POINT('',(-5.388123733335,-0.955,2.2));
#353 = CARTESIAN_POINT('',(-5.443965171771,-0.639941801318,2.2));
#354 = CARTESIAN_POINT('',(-5.477701856708,-0.320953949662,2.2));
#355 = CARTESIAN_POINT('',(-5.488982742449,-4.896083538597E-14,2.2));
#356 = CARTESIAN_POINT('',(-5.477701856708,0.320953949662,2.2));
#357 = CARTESIAN_POINT('',(-5.443965171771,0.639941801317,2.2));
#358 = CARTESIAN_POINT('',(-5.388123733335,0.955,2.2));
#359 = PCURVE('',#43,#360);
#360 = DEFINITIONAL_REPRESENTATION('',(#361),#369);
#361 = B_SPLINE_CURVE_WITH_KNOTS('',6,(#362,#363,#364,#365,#366,#367,
    #368),.UNSPECIFIED.,.F.,.F.,(7,7),(0.,1.),.PIECEWISE_BEZIER_KNOTS.);
#362 = CARTESIAN_POINT('',(3.317012539094,1.936869363189));
#363 = CARTESIAN_POINT('',(3.25853982869,1.936869363189));
#364 = CARTESIAN_POINT('',(3.200065016073,1.936869363189));
#365 = CARTESIAN_POINT('',(3.14159265359,1.936869363189));
#366 = CARTESIAN_POINT('',(3.083120291107,1.936869363189));
#367 = CARTESIAN_POINT('',(3.02464547849,1.936869363189));
#368 = CARTESIAN_POINT('',(2.966172768086,1.936869363189));
#369 = ( GEOMETRIC_REPRESENTATION_CONTEXT(2) 
PARAMETRIC_REPRESENTATION_CONTEXT() REPRESENTATION_CONTEXT('2D SPACE',''
  ) );
#370 = PCURVE('',#139,#371);
#371 = DEFINITIONAL_REPRESENTATION('',(#372),#380);
#372 = B_SPLINE_CURVE_WITH_KNOTS('',6,(#373,#374,#375,#376,#377,#378,
    #379),.UNSPECIFIED.,.F.,.F.,(7,7),(0.,1.),.PIECEWISE_BEZIER_KNOTS.);
#373 = CARTESIAN_POINT('',(-5.388123733335,-0.955));
#374 = CARTESIAN_POINT('',(-5.443965171771,-0.639941801318));
#375 = CARTESIAN_POINT('',(-5.477701856708,-0.320953949662));
#376 = CARTESIAN_POINT('',(-5.488982742449,-4.896083538597E-14));
#377 = CARTESIAN_POINT('',(-5.477701856708,0.320953949662));
#378 = CARTESIAN_POINT('',(-5.443965171771,0.639941801317));
#379 = CARTESIAN_POINT('',(-5.388123733335,0.955));
#380 = ( GEOMETRIC_REPRESENTATION_CONTEXT(2) 
PARAMETRIC_REPRESENTATION_CONTEXT() REPRESENTATION_CONTEXT('2D SPACE',''
  ) );
#381 = ORIENTED_EDGE('',*,*,#382,.T.);
#382 = EDGE_CURVE('',#348,#383,#385,.T.);
#383 = VERTEX_POINT('',#384);
#384 = CARTESIAN_POINT('',(-2.843936532344,0.955,3.6));
#385 = SURFACE_CURVE('',#386,(#409,#435),.PCURVE_S1.);
#386 = B_SPLINE_CURVE_WITH_KNOTS('',6,(#387,#388,#389,#390,#391,#392,
    #393,#394,#395,#396,#397,#398,#399,#400,#401,#402,#403,#404,#405,
    #406,#407,#408),.UNSPECIFIED.,.F.,.F.,(7,5,5,5,7),(0.,0.168585889795
    ,0.483341813101,0.801508686392,1.),.UNSPECIFIED.);
#387 = CARTESIAN_POINT('',(-5.388123733335,0.955,2.2));
#388 = CARTESIAN_POINT('',(-5.349640880831,0.955,2.274929433001));
#389 = CARTESIAN_POINT('',(-5.309001287555,0.955,2.348316315699));
#390 = CARTESIAN_POINT('',(-5.266119630456,0.955,2.420032283064));
#391 = CARTESIAN_POINT('',(-5.220917248492,0.955,2.489939088754));
#392 = CARTESIAN_POINT('',(-5.1733282395,0.955,2.557893512035));
#393 = CARTESIAN_POINT('',(-5.029911408756,0.955,2.74671292601));
#394 = CARTESIAN_POINT('',(-4.928010442561,0.955,2.862399756372));
#395 = CARTESIAN_POINT('',(-4.817333268387,0.955,2.969816686496));
#396 = CARTESIAN_POINT('',(-4.697818734949,0.955,3.068062756386));
#397 = CARTESIAN_POINT('',(-4.569722880342,0.955,3.156448068435));
#398 = CARTESIAN_POINT('',(-4.296259133014,0.955,3.31361843581));
#399 = CARTESIAN_POINT('',(-4.150668372208,0.955,3.382209704522));
#400 = CARTESIAN_POINT('',(-3.997642622726,0.955,3.439995189349));
#401 = CARTESIAN_POINT('',(-3.83805162743,0.955,3.487073350172));
#402 = CARTESIAN_POINT('',(-3.672854924477,0.955,3.523876299247));
#403 = CARTESIAN_POINT('',(-3.39705424985,0.955,3.56799126976));
#404 = CARTESIAN_POINT('',(-3.28927292695,0.955,3.581191390075));
#405 = CARTESIAN_POINT('',(-3.17988066676,0.955,3.590800632092));
#406 = CARTESIAN_POINT('',(-3.069077197763,0.955,3.59700309087));
#407 = CARTESIAN_POINT('',(-2.957043626763,0.955,3.6));
#408 = CARTESIAN_POINT('',(-2.843936532344,0.955,3.6));
#409 = PCURVE('',#43,#410);
#410 = DEFINITIONAL_REPRESENTATION('',(#411),#434);
#411 = B_SPLINE_CURVE_WITH_KNOTS('',6,(#412,#413,#414,#415,#416,#417,
    #418,#419,#420,#421,#422,#423,#424,#425,#426,#427,#428,#429,#430,
    #431,#432,#433),.UNSPECIFIED.,.F.,.F.,(7,5,5,5,7),(0.,0.168585889795
    ,0.483341813101,0.801508686392,1.),.UNSPECIFIED.);
#412 = CARTESIAN_POINT('',(2.966172768086,1.936869363189));
#413 = CARTESIAN_POINT('',(2.964945435599,2.016975332774));
#414 = CARTESIAN_POINT('',(2.963628921935,2.097486867839));
#415 = CARTESIAN_POINT('',(2.962215585942,2.17837078142));
#416 = CARTESIAN_POINT('',(2.960696923309,2.259581841462));
#417 = CARTESIAN_POINT('',(2.959063447012,2.341061882361));
#418 = CARTESIAN_POINT('',(2.954020676871,2.575232878703));
#419 = CARTESIAN_POINT('',(2.950298793526,2.728452121634));
#420 = CARTESIAN_POINT('',(2.946071264011,2.881857319302));
#421 = CARTESIAN_POINT('',(2.941256250139,3.034823906553));
#422 = CARTESIAN_POINT('',(2.935753410816,3.186645379065));
#423 = CARTESIAN_POINT('',(2.923057334697,3.488052150103));
#424 = CARTESIAN_POINT('',(2.915844070157,3.637651182048));
#425 = CARTESIAN_POINT('',(2.907672040001,3.784525421619));
#426 = CARTESIAN_POINT('',(2.898376190901,3.928069046941));
#427 = CARTESIAN_POINT('',(2.887741709263,4.067831687553));
#428 = CARTESIAN_POINT('',(2.867762398149,4.288083964574));
#429 = CARTESIAN_POINT('',(2.859436165172,4.371106807117));
#430 = CARTESIAN_POINT('',(2.850376160989,4.452466096346));
#431 = CARTESIAN_POINT('',(2.84048250679,4.532114714202));
#432 = CARTESIAN_POINT('',(2.829623732392,4.610018947648));
#433 = CARTESIAN_POINT('',(2.817621812928,4.686149805544));
#434 = ( GEOMETRIC_REPRESENTATION_CONTEXT(2) 
PARAMETRIC_REPRESENTATION_CONTEXT() REPRESENTATION_CONTEXT('2D SPACE',''
  ) );
#435 = PCURVE('',#436,#441);
#436 = PLANE('',#437);
#437 = AXIS2_PLACEMENT_3D('',#438,#439,#440);
#438 = CARTESIAN_POINT('',(6.,0.955,3.6));
#439 = DIRECTION('',(0.,1.,0.));
#440 = DIRECTION('',(-1.,0.,0.));
#441 = DEFINITIONAL_REPRESENTATION('',(#442),#465);
#442 = B_SPLINE_CURVE_WITH_KNOTS('',6,(#443,#444,#445,#446,#447,#448,
    #449,#450,#451,#452,#453,#454,#455,#456,#457,#458,#459,#460,#461,
    #462,#463,#464),.UNSPECIFIED.,.F.,.F.,(7,5,5,5,7),(0.,0.168585889795
    ,0.483341813101,0.801508686392,1.),.UNSPECIFIED.);
#443 = CARTESIAN_POINT('',(11.388123733335,-1.4));
#444 = CARTESIAN_POINT('',(11.349640880831,-1.325070566999));
#445 = CARTESIAN_POINT('',(11.309001287555,-1.251683684301));
#446 = CARTESIAN_POINT('',(11.266119630456,-1.179967716936));
#447 = CARTESIAN_POINT('',(11.220917248492,-1.110060911246));
#448 = CARTESIAN_POINT('',(11.1733282395,-1.042106487965));
#449 = CARTESIAN_POINT('',(11.029911408756,-0.85328707399));
#450 = CARTESIAN_POINT('',(10.928010442561,-0.737600243628));
#451 = CARTESIAN_POINT('',(10.817333268387,-0.630183313504));
#452 = CARTESIAN_POINT('',(10.697818734949,-0.531937243614));
#453 = CARTESIAN_POINT('',(10.569722880342,-0.443551931565));
#454 = CARTESIAN_POINT('',(10.296259133014,-0.28638156419));
#455 = CARTESIAN_POINT('',(10.150668372208,-0.217790295478));
#456 = CARTESIAN_POINT('',(9.997642622726,-0.160004810651));
#457 = CARTESIAN_POINT('',(9.83805162743,-0.112926649828));
#458 = CARTESIAN_POINT('',(9.672854924477,-7.612370075286E-02));
#459 = CARTESIAN_POINT('',(9.39705424985,-3.200873024025E-02));
#460 = CARTESIAN_POINT('',(9.28927292695,-1.88086099247E-02));
#461 = CARTESIAN_POINT('',(9.17988066676,-9.199367908109E-03));
#462 = CARTESIAN_POINT('',(9.069077197763,-2.996909130003E-03));
#463 = CARTESIAN_POINT('',(8.957043626763,0.));
#464 = CARTESIAN_POINT('',(8.843936532344,0.));
#465 = ( GEOMETRIC_REPRESENTATION_CONTEXT(2) 
PARAMETRIC_REPRESENTATION_CONTEXT() REPRESENTATION_CONTEXT('2D SPACE',''
  ) );
#466 = ORIENTED_EDGE('',*,*,#467,.F.);
#467 = EDGE_CURVE('',#468,#383,#470,.T.);
#468 = VERTEX_POINT('',#469);
#469 = CARTESIAN_POINT('',(2.843936532344,0.955,3.6));
#470 = SURFACE_CURVE('',#471,(#476,#483),.PCURVE_S1.);
#471 = CIRCLE('',#472,3.);
#472 = AXIS2_PLACEMENT_3D('',#473,#474,#475);
#473 = CARTESIAN_POINT('',(0.,0.,3.6));
#474 = DIRECTION('',(0.,0.,1.));
#475 = DIRECTION('',(1.,0.,-0.));
#476 = PCURVE('',#43,#477);
#477 = DEFINITIONAL_REPRESENTATION('',(#478),#482);
#478 = LINE('',#479,#480);
#479 = CARTESIAN_POINT('',(0.,4.686149805544));
#480 = VECTOR('',#481,1.);
#481 = DIRECTION('',(1.,0.));
#482 = ( GEOMETRIC_REPRESENTATION_CONTEXT(2) 
PARAMETRIC_REPRESENTATION_CONTEXT() REPRESENTATION_CONTEXT('2D SPACE',''
  ) );
#483 = PCURVE('',#484,#489);
#484 = PLANE('',#485);
#485 = AXIS2_PLACEMENT_3D('',#486,#487,#488);
#486 = CARTESIAN_POINT('',(0.,0.,3.6));
#487 = DIRECTION('',(0.,0.,1.));
#488 = DIRECTION('',(1.,0.,-0.));
#489 = DEFINITIONAL_REPRESENTATION('',(#490),#494);
#490 = CIRCLE('',#491,3.);
#491 = AXIS2_PLACEMENT_2D('',#492,#493);
#492 = CARTESIAN_POINT('',(0.,0.));
#493 = DIRECTION('',(1.,0.));
#494 = ( GEOMETRIC_REPRESENTATION_CONTEXT(2) 
PARAMETRIC_REPRESENTATION_CONTEXT() REPRESENTATION_CONTEXT('2D SPACE',''
  ) );
#495 = ORIENTED_EDGE('',*,*,#496,.F.);
#496 = EDGE_CURVE('',#497,#468,#499,.T.);
#497 = VERTEX_POINT('',#498);
#498 = CARTESIAN_POINT('',(5.388123733335,0.955,2.2));
#499 = SURFACE_CURVE('',#500,(#523,#549),.PCURVE_S1.);
#500 = B_SPLINE_CURVE_WITH_KNOTS('',6,(#501,#502,#503,#504,#505,#506,
    #507,#508,#509,#510,#511,#512,#513,#514,#515,#516,#517,#518,#519,
    #520,#521,#522),.UNSPECIFIED.,.F.,.F.,(7,5,5,5,7),(0.,0.168585889795
    ,0.483341813101,0.801508686392,1.),.UNSPECIFIED.);
#501 = CARTESIAN_POINT('',(5.388123733335,0.955,2.2));
#502 = CARTESIAN_POINT('',(5.349640880831,0.955,2.274929433001));
#503 = CARTESIAN_POINT('',(5.309001287555,0.955,2.348316315699));
#504 = CARTESIAN_POINT('',(5.266119630456,0.955,2.420032283064));
#505 = CARTESIAN_POINT('',(5.220917248492,0.955,2.489939088754));
#506 = CARTESIAN_POINT('',(5.1733282395,0.955,2.557893512035));
#507 = CARTESIAN_POINT('',(5.029911408756,0.955,2.74671292601));
#508 = CARTESIAN_POINT('',(4.928010442561,0.955,2.862399756372));
#509 = CARTESIAN_POINT('',(4.817333268387,0.955,2.969816686496));
#510 = CARTESIAN_POINT('',(4.697818734949,0.955,3.068062756386));
#511 = CARTESIAN_POINT('',(4.569722880342,0.955,3.156448068435));
#512 = CARTESIAN_POINT('',(4.296259133014,0.955,3.31361843581));
#513 = CARTESIAN_POINT('',(4.150668372208,0.955,3.382209704522));
#514 = CARTESIAN_POINT('',(3.997642622726,0.955,3.439995189349));
#515 = CARTESIAN_POINT('',(3.83805162743,0.955,3.487073350172));
#516 = CARTESIAN_POINT('',(3.672854924477,0.955,3.523876299247));
#517 = CARTESIAN_POINT('',(3.39705424985,0.955,3.56799126976));
#518 = CARTESIAN_POINT('',(3.28927292695,0.955,3.581191390075));
#519 = CARTESIAN_POINT('',(3.17988066676,0.955,3.590800632092));
#520 = CARTESIAN_POINT('',(3.069077197763,0.955,3.59700309087));
#521 = CARTESIAN_POINT('',(2.957043626763,0.955,3.6));
#522 = CARTESIAN_POINT('',(2.843936532344,0.955,3.6));
#523 = PCURVE('',#43,#524);
#524 = DEFINITIONAL_REPRESENTATION('',(#525),#548);
#525 = B_SPLINE_CURVE_WITH_KNOTS('',6,(#526,#527,#528,#529,#530,#531,
    #532,#533,#534,#535,#536,#537,#538,#539,#540,#541,#542,#543,#544,
    #545,#546,#547),.UNSPECIFIED.,.F.,.F.,(7,5,5,5,7),(0.,0.168585889795
    ,0.483341813101,0.801508686392,1.),.UNSPECIFIED.);
#526 = CARTESIAN_POINT('',(0.175419885504,1.936869363189));
#527 = CARTESIAN_POINT('',(0.176647217991,2.016975332774));
#528 = CARTESIAN_POINT('',(0.177963731654,2.097486867839));
#529 = CARTESIAN_POINT('',(0.179377067648,2.17837078142));
#530 = CARTESIAN_POINT('',(0.180895730281,2.259581841462));
#531 = CARTESIAN_POINT('',(0.182529206578,2.341061882361));
#532 = CARTESIAN_POINT('',(0.187571976719,2.575232878703));
#533 = CARTESIAN_POINT('',(0.191293860064,2.728452121634));
#534 = CARTESIAN_POINT('',(0.195521389578,2.881857319302));
#535 = CARTESIAN_POINT('',(0.200336403451,3.034823906553));
#536 = CARTESIAN_POINT('',(0.205839242774,3.186645379065));
#537 = CARTESIAN_POINT('',(0.218535318893,3.488052150103));
#538 = CARTESIAN_POINT('',(0.225748583433,3.637651182048));
#539 = CARTESIAN_POINT('',(0.233920613589,3.784525421619));
#540 = CARTESIAN_POINT('',(0.243216462689,3.928069046941));
#541 = CARTESIAN_POINT('',(0.253850944327,4.067831687553));
#542 = CARTESIAN_POINT('',(0.273830255441,4.288083964574));
#543 = CARTESIAN_POINT('',(0.282156488417,4.371106807117));
#544 = CARTESIAN_POINT('',(0.291216492601,4.452466096346));
#545 = CARTESIAN_POINT('',(0.3011101468,4.532114714203));
#546 = CARTESIAN_POINT('',(0.311968921198,4.610018947648));
#547 = CARTESIAN_POINT('',(0.323970840661,4.686149805544));
#548 = ( GEOMETRIC_REPRESENTATION_CONTEXT(2) 
PARAMETRIC_REPRESENTATION_CONTEXT() REPRESENTATION_CONTEXT('2D SPACE',''
  ) );
#549 = PCURVE('',#436,#550);
#550 = DEFINITIONAL_REPRESENTATION('',(#551),#574);
#551 = B_SPLINE_CURVE_WITH_KNOTS('',6,(#552,#553,#554,#555,#556,#557,
    #558,#559,#560,#561,#562,#563,#564,#565,#566,#567,#568,#569,#570,
    #571,#572,#573),.UNSPECIFIED.,.F.,.F.,(7,5,5,5,7),(0.,0.168585889795
    ,0.483341813101,0.801508686392,1.),.UNSPECIFIED.);
#552 = CARTESIAN_POINT('',(0.611876266665,-1.4));
#553 = CARTESIAN_POINT('',(0.650359119169,-1.325070566999));
#554 = CARTESIAN_POINT('',(0.690998712445,-1.251683684301));
#555 = CARTESIAN_POINT('',(0.733880369544,-1.179967716936));
#556 = CARTESIAN_POINT('',(0.779082751508,-1.110060911246));
#557 = CARTESIAN_POINT('',(0.8266717605,-1.042106487965));
#558 = CARTESIAN_POINT('',(0.970088591244,-0.85328707399));
#559 = CARTESIAN_POINT('',(1.071989557439,-0.737600243628));
#560 = CARTESIAN_POINT('',(1.182666731613,-0.630183313504));
#561 = CARTESIAN_POINT('',(1.302181265051,-0.531937243614));
#562 = CARTESIAN_POINT('',(1.430277119658,-0.443551931565));
#563 = CARTESIAN_POINT('',(1.703740866986,-0.28638156419));
#564 = CARTESIAN_POINT('',(1.849331627792,-0.217790295478));
#565 = CARTESIAN_POINT('',(2.002357377274,-0.160004810651));
#566 = CARTESIAN_POINT('',(2.16194837257,-0.112926649828));
#567 = CARTESIAN_POINT('',(2.327145075523,-7.612370075286E-02));
#568 = CARTESIAN_POINT('',(2.60294575015,-3.200873024024E-02));
#569 = CARTESIAN_POINT('',(2.71072707305,-1.880860992471E-02));
#570 = CARTESIAN_POINT('',(2.82011933324,-9.199367908112E-03));
#571 = CARTESIAN_POINT('',(2.930922802237,-2.996909129998E-03));
#572 = CARTESIAN_POINT('',(3.042956373237,0.));
#573 = CARTESIAN_POINT('',(3.156063467656,0.));
#574 = ( GEOMETRIC_REPRESENTATION_CONTEXT(2) 
PARAMETRIC_REPRESENTATION_CONTEXT() REPRESENTATION_CONTEXT('2D SPACE',''
  ) );
#575 = ORIENTED_EDGE('',*,*,#576,.T.);
#576 = EDGE_CURVE('',#497,#94,#577,.T.);
#577 = SURFACE_CURVE('',#578,(#584,#593),.PCURVE_S1.);
#578 = B_SPLINE_CURVE_WITH_KNOTS('',4,(#579,#580,#581,#582,#583),
  .UNSPECIFIED.,.F.,.F.,(5,5),(0.,1.),.PIECEWISE_BEZIER_KNOTS.);
#579 = CARTESIAN_POINT('',(5.388123733335,0.955,2.2));
#580 = CARTESIAN_POINT('',(5.430005200816,0.718704158202,2.2));
#581 = CARTESIAN_POINT('',(5.458069809979,0.479958392821,2.2));
#582 = CARTESIAN_POINT('',(5.472102188897,0.239978738272,2.2));
#583 = CARTESIAN_POINT('',(5.472102188897,0.,2.2));
#584 = PCURVE('',#43,#585);
#585 = DEFINITIONAL_REPRESENTATION('',(#586),#592);
#586 = B_SPLINE_CURVE_WITH_KNOTS('',4,(#587,#588,#589,#590,#591),
  .UNSPECIFIED.,.F.,.F.,(5,5),(0.,1.),.PIECEWISE_BEZIER_KNOTS.);
#587 = CARTESIAN_POINT('',(0.175419885504,1.936869363189));
#588 = CARTESIAN_POINT('',(0.131564945734,1.936869363189));
#589 = CARTESIAN_POINT('',(8.770994124254E-02,1.936869363189));
#590 = CARTESIAN_POINT('',(4.385494458762E-02,1.936869363189));
#591 = CARTESIAN_POINT('',(0.,1.936869363189));
#592 = ( GEOMETRIC_REPRESENTATION_CONTEXT(2) 
PARAMETRIC_REPRESENTATION_CONTEXT() REPRESENTATION_CONTEXT('2D SPACE',''
  ) );
#593 = PCURVE('',#139,#594);
#594 = DEFINITIONAL_REPRESENTATION('',(#595),#601);
#595 = B_SPLINE_CURVE_WITH_KNOTS('',4,(#596,#597,#598,#599,#600),
  .UNSPECIFIED.,.F.,.F.,(5,5),(0.,1.),.PIECEWISE_BEZIER_KNOTS.);
#596 = CARTESIAN_POINT('',(5.388123733335,0.955));
#597 = CARTESIAN_POINT('',(5.430005200816,0.718704158202));
#598 = CARTESIAN_POINT('',(5.458069809979,0.479958392821));
#599 = CARTESIAN_POINT('',(5.472102188897,0.239978738272));
#600 = CARTESIAN_POINT('',(5.472102188897,0.));
#601 = ( GEOMETRIC_REPRESENTATION_CONTEXT(2) 
PARAMETRIC_REPRESENTATION_CONTEXT() REPRESENTATION_CONTEXT('2D SPACE',''
  ) );
#602 = ADVANCED_FACE('',(#603),#78,.T.);
#603 = FACE_BOUND('',#604,.F.);
#604 = EDGE_LOOP('',(#605,#628,#629,#630));
#605 = ORIENTED_EDGE('',*,*,#606,.T.);
#606 = EDGE_CURVE('',#607,#62,#609,.T.);
#607 = VERTEX_POINT('',#608);
#608 = CARTESIAN_POINT('',(2.458734122635,0.,-20.));
#609 = SEAM_CURVE('',#610,(#614,#621),.PCURVE_S1.);
#610 = LINE('',#611,#612);
#611 = CARTESIAN_POINT('',(2.458734122635,0.,-20.));
#612 = VECTOR('',#613,1.);
#613 = DIRECTION('',(0.,0.,1.));
#614 = PCURVE('',#78,#615);
#615 = DEFINITIONAL_REPRESENTATION('',(#616),#620);
#616 = LINE('',#617,#618);
#617 = CARTESIAN_POINT('',(-0.,0.));
#618 = VECTOR('',#619,1.);
#619 = DIRECTION('',(-0.,-1.));
#620 = ( GEOMETRIC_REPRESENTATION_CONTEXT(2) 
PARAMETRIC_REPRESENTATION_CONTEXT() REPRESENTATION_CONTEXT('2D SPACE',''
  ) );
#621 = PCURVE('',#78,#622);
#622 = DEFINITIONAL_REPRESENTATION('',(#623),#627);
#623 = LINE('',#624,#625);
#624 = CARTESIAN_POINT('',(-6.28318530718,0.));
#625 = VECTOR('',#626,1.);
#626 = DIRECTION('',(-0.,-1.));
#627 = ( GEOMETRIC_REPRESENTATION_CONTEXT(2) 
PARAMETRIC_REPRESENTATION_CONTEXT() REPRESENTATION_CONTEXT('2D SPACE',''
  ) );
#628 = ORIENTED_EDGE('',*,*,#61,.T.);
#629 = ORIENTED_EDGE('',*,*,#606,.F.);
#630 = ORIENTED_EDGE('',*,*,#631,.F.);
#631 = EDGE_CURVE('',#607,#607,#632,.T.);
#632 = SURFACE_CURVE('',#633,(#638,#645),.PCURVE_S1.);
#633 = CIRCLE('',#634,2.458734122635);
#634 = AXIS2_PLACEMENT_3D('',#635,#636,#637);
#635 = CARTESIAN_POINT('',(0.,0.,-20.));
#636 = DIRECTION('',(0.,0.,1.));
#637 = DIRECTION('',(1.,0.,-0.));
#638 = PCURVE('',#78,#639);
#639 = DEFINITIONAL_REPRESENTATION('',(#640),#644);
#640 = LINE('',#641,#642);
#641 = CARTESIAN_POINT('',(-0.,0.));
#642 = VECTOR('',#643,1.);
#643 = DIRECTION('',(-1.,0.));
#644 = ( GEOMETRIC_REPRESENTATION_CONTEXT(2) 
PARAMETRIC_REPRESENTATION_CONTEXT() REPRESENTATION_CONTEXT('2D SPACE',''
  ) );
#645 = PCURVE('',#646,#651);
#646 = PLANE('',#647);
#647 = AXIS2_PLACEMENT_3D('',#648,#649,#650);
#648 = CARTESIAN_POINT('',(-3.475976011271E-16,3.866967800953E-17,-20.)
  );
#649 = DIRECTION('',(0.,0.,1.));
#650 = DIRECTION('',(1.,0.,-0.));
#651 = DEFINITIONAL_REPRESENTATION('',(#652),#656);
#652 = CIRCLE('',#653,2.458734122635);
#653 = AXIS2_PLACEMENT_2D('',#654,#655);
#654 = CARTESIAN_POINT('',(3.475976011271E-16,-3.866967800953E-17));
#655 = DIRECTION('',(1.,0.));
#656 = ( GEOMETRIC_REPRESENTATION_CONTEXT(2) 
PARAMETRIC_REPRESENTATION_CONTEXT() REPRESENTATION_CONTEXT('2D SPACE',''
  ) );
#657 = ADVANCED_FACE('',(#658),#139,.T.);
#658 = FACE_BOUND('',#659,.T.);
#659 = EDGE_LOOP('',(#660,#661,#682,#683,#684));
#660 = ORIENTED_EDGE('',*,*,#347,.F.);
#661 = ORIENTED_EDGE('',*,*,#662,.T.);
#662 = EDGE_CURVE('',#268,#120,#663,.T.);
#663 = SURFACE_CURVE('',#664,(#668,#675),.PCURVE_S1.);
#664 = LINE('',#665,#666);
#665 = CARTESIAN_POINT('',(-6.,-0.955,2.2));
#666 = VECTOR('',#667,1.);
#667 = DIRECTION('',(1.,0.,0.));
#668 = PCURVE('',#139,#669);
#669 = DEFINITIONAL_REPRESENTATION('',(#670),#674);
#670 = LINE('',#671,#672);
#671 = CARTESIAN_POINT('',(-6.,-0.955));
#672 = VECTOR('',#673,1.);
#673 = DIRECTION('',(1.,0.));
#674 = ( GEOMETRIC_REPRESENTATION_CONTEXT(2) 
PARAMETRIC_REPRESENTATION_CONTEXT() REPRESENTATION_CONTEXT('2D SPACE',''
  ) );
#675 = PCURVE('',#207,#676);
#676 = DEFINITIONAL_REPRESENTATION('',(#677),#681);
#677 = LINE('',#678,#679);
#678 = CARTESIAN_POINT('',(0.,-1.4));
#679 = VECTOR('',#680,1.);
#680 = DIRECTION('',(1.,0.));
#681 = ( GEOMETRIC_REPRESENTATION_CONTEXT(2) 
PARAMETRIC_REPRESENTATION_CONTEXT() REPRESENTATION_CONTEXT('2D SPACE',''
  ) );
#682 = ORIENTED_EDGE('',*,*,#119,.F.);
#683 = ORIENTED_EDGE('',*,*,#576,.F.);
#684 = ORIENTED_EDGE('',*,*,#685,.T.);
#685 = EDGE_CURVE('',#497,#348,#686,.T.);
#686 = SURFACE_CURVE('',#687,(#691,#698),.PCURVE_S1.);
#687 = LINE('',#688,#689);
#688 = CARTESIAN_POINT('',(6.,0.955,2.2));
#689 = VECTOR('',#690,1.);
#690 = DIRECTION('',(-1.,0.,0.));
#691 = PCURVE('',#139,#692);
#692 = DEFINITIONAL_REPRESENTATION('',(#693),#697);
#693 = LINE('',#694,#695);
#694 = CARTESIAN_POINT('',(6.,0.955));
#695 = VECTOR('',#696,1.);
#696 = DIRECTION('',(-1.,0.));
#697 = ( GEOMETRIC_REPRESENTATION_CONTEXT(2) 
PARAMETRIC_REPRESENTATION_CONTEXT() REPRESENTATION_CONTEXT('2D SPACE',''
  ) );
#698 = PCURVE('',#436,#699);
#699 = DEFINITIONAL_REPRESENTATION('',(#700),#704);
#700 = LINE('',#701,#702);
#701 = CARTESIAN_POINT('',(0.,-1.4));
#702 = VECTOR('',#703,1.);
#703 = DIRECTION('',(1.,0.));
#704 = ( GEOMETRIC_REPRESENTATION_CONTEXT(2) 
PARAMETRIC_REPRESENTATION_CONTEXT() REPRESENTATION_CONTEXT('2D SPACE',''
  ) );
#705 = ADVANCED_FACE('',(#706),#436,.F.);
#706 = FACE_BOUND('',#707,.F.);
#707 = EDGE_LOOP('',(#708,#729,#730,#731));
#708 = ORIENTED_EDGE('',*,*,#709,.F.);
#709 = EDGE_CURVE('',#468,#383,#710,.T.);
#710 = SURFACE_CURVE('',#711,(#715,#722),.PCURVE_S1.);
#711 = LINE('',#712,#713);
#712 = CARTESIAN_POINT('',(6.,0.955,3.6));
#713 = VECTOR('',#714,1.);
#714 = DIRECTION('',(-1.,0.,0.));
#715 = PCURVE('',#436,#716);
#716 = DEFINITIONAL_REPRESENTATION('',(#717),#721);
#717 = LINE('',#718,#719);
#718 = CARTESIAN_POINT('',(0.,0.));
#719 = VECTOR('',#720,1.);
#720 = DIRECTION('',(1.,0.));
#721 = ( GEOMETRIC_REPRESENTATION_CONTEXT(2) 
PARAMETRIC_REPRESENTATION_CONTEXT() REPRESENTATION_CONTEXT('2D SPACE',''
  ) );
#722 = PCURVE('',#484,#723);
#723 = DEFINITIONAL_REPRESENTATION('',(#724),#728);
#724 = LINE('',#725,#726);
#725 = CARTESIAN_POINT('',(6.,0.955));
#726 = VECTOR('',#727,1.);
#727 = DIRECTION('',(-1.,0.));
#728 = ( GEOMETRIC_REPRESENTATION_CONTEXT(2) 
PARAMETRIC_REPRESENTATION_CONTEXT() REPRESENTATION_CONTEXT('2D SPACE',''
  ) );
#729 = ORIENTED_EDGE('',*,*,#496,.F.);
#730 = ORIENTED_EDGE('',*,*,#685,.T.);
#731 = ORIENTED_EDGE('',*,*,#382,.T.);
#732 = ADVANCED_FACE('',(#733),#484,.T.);
#733 = FACE_BOUND('',#734,.T.);
#734 = EDGE_LOOP('',(#735,#736));
#735 = ORIENTED_EDGE('',*,*,#709,.F.);
#736 = ORIENTED_EDGE('',*,*,#467,.T.);
#737 = ADVANCED_FACE('',(#738),#207,.F.);
#738 = FACE_BOUND('',#739,.F.);
#739 = EDGE_LOOP('',(#740,#761,#762,#763));
#740 = ORIENTED_EDGE('',*,*,#741,.F.);
#741 = EDGE_CURVE('',#239,#154,#742,.T.);
#742 = SURFACE_CURVE('',#743,(#747,#754),.PCURVE_S1.);
#743 = LINE('',#744,#745);
#744 = CARTESIAN_POINT('',(-6.,-0.955,3.6));
#745 = VECTOR('',#746,1.);
#746 = DIRECTION('',(1.,0.,0.));
#747 = PCURVE('',#207,#748);
#748 = DEFINITIONAL_REPRESENTATION('',(#749),#753);
#749 = LINE('',#750,#751);
#750 = CARTESIAN_POINT('',(0.,0.));
#751 = VECTOR('',#752,1.);
#752 = DIRECTION('',(1.,0.));
#753 = ( GEOMETRIC_REPRESENTATION_CONTEXT(2) 
PARAMETRIC_REPRESENTATION_CONTEXT() REPRESENTATION_CONTEXT('2D SPACE',''
  ) );
#754 = PCURVE('',#255,#755);
#755 = DEFINITIONAL_REPRESENTATION('',(#756),#760);
#756 = LINE('',#757,#758);
#757 = CARTESIAN_POINT('',(-6.,-0.955));
#758 = VECTOR('',#759,1.);
#759 = DIRECTION('',(1.,0.));
#760 = ( GEOMETRIC_REPRESENTATION_CONTEXT(2) 
PARAMETRIC_REPRESENTATION_CONTEXT() REPRESENTATION_CONTEXT('2D SPACE',''
  ) );
#761 = ORIENTED_EDGE('',*,*,#267,.F.);
#762 = ORIENTED_EDGE('',*,*,#662,.T.);
#763 = ORIENTED_EDGE('',*,*,#153,.T.);
#764 = ADVANCED_FACE('',(#765),#255,.T.);
#765 = FACE_BOUND('',#766,.T.);
#766 = EDGE_LOOP('',(#767,#768));
#767 = ORIENTED_EDGE('',*,*,#238,.T.);
#768 = ORIENTED_EDGE('',*,*,#741,.F.);
#769 = ADVANCED_FACE('',(#770),#646,.F.);
#770 = FACE_BOUND('',#771,.F.);
#771 = EDGE_LOOP('',(#772));
#772 = ORIENTED_EDGE('',*,*,#631,.T.);
#773 = ( GEOMETRIC_REPRESENTATION_CONTEXT(3) 
GLOBAL_UNCERTAINTY_ASSIGNED_CONTEXT((#777)) GLOBAL_UNIT_ASSIGNED_CONTEXT
((#774,#775,#776)) REPRESENTATION_CONTEXT('Context #1',
  '3D Context with UNIT and UNCERTAINTY') );
#774 = ( LENGTH_UNIT() NAMED_UNIT(*) SI_UNIT(.MILLI.,.METRE.) );
#775 = ( NAMED_UNIT(*) PLANE_ANGLE_UNIT() SI_UNIT($,.RADIAN.) );
#776 = ( NAMED_UNIT(*) SI_UNIT($,.STERADIAN.) SOLID_ANGLE_UNIT() );
#777 = UNCERTAINTY_MEASURE_WITH_UNIT(LENGTH_MEASURE(2.E-06),#774,
  'distance_accuracy_value','confusion accuracy');
#778 = PRODUCT_RELATED_PRODUCT_CATEGORY('part',$,(#7));
ENDSEC;
END-ISO-10303-21;
