ISO-10303-21;
HEADER;
FILE_DESCRIPTION(('Open CASCADE Model'),'2;1');
FILE_NAME('Open CASCADE Shape Model','2026-09-14T17:55:05',('Author'),(
    'Open CASCADE'),'Open CASCADE STEP processor 7.9','Open CASCADE 7.9'
  ,'Unknown');
FILE_SCHEMA(('AUTOMOTIVE_DESIGN { 1 0 10303 214 1 1 1 1 }'));
ENDSEC;
DATA;
#1 = APPLICATION_PROTOCOL_DEFINITION('international standard',
  'automotive_design',2000,#2);
#2 = APPLICATION_CONTEXT(
  'core data for automotive mechanical design processes');
#3 = SHAPE_DEFINITION_REPRESENTATION(#4,#10);
#4 = PRODUCT_DEFINITION_SHAPE('','',#5);
#5 = PRODUCT_DEFINITION('design','',#6,#9);
#6 = PRODUCT_DEFINITION_FORMATION('','',#7);
#7 = PRODUCT('Open CASCADE STEP translator 7.9 25',
  'Open CASCADE STEP translator 7.9 25','',(#8));
#8 = PRODUCT_CONTEXT('',#2,'mechanical');
#9 = PRODUCT_DEFINITION_CONTEXT('part definition',#2,'design');
#10 = ADVANCED_BREP_SHAPE_REPRESENTATION('',(#11,#15),#981);
#11 = AXIS2_PLACEMENT_3D('',#12,#13,#14);
#12 = CARTESIAN_POINT('',(0.,0.,0.));
#13 = DIRECTION('',(0.,0.,1.));
#14 = DIRECTION('',(1.,0.,-0.));
#15 = MANIFOLD_SOLID_BREP('',#16);
#16 = CLOSED_SHELL('',(#17,#105,#109,#144,#435,#671,#699,#915,#943,#971,
    #976));
#17 = ADVANCED_FACE('',(#18),#32,.T.);
#18 = FACE_BOUND('',#19,.F.);
#19 = EDGE_LOOP('',(#20,#50,#77,#78));
#20 = ORIENTED_EDGE('',*,*,#21,.T.);
#21 = EDGE_CURVE('',#22,#24,#26,.T.);
#22 = VERTEX_POINT('',#23);
#23 = CARTESIAN_POINT('',(1.621113885844,0.,-16.));
#24 = VERTEX_POINT('',#25);
#25 = CARTESIAN_POINT('',(1.621113885844,0.,-2.2));
#26 = SEAM_CURVE('',#27,(#31,#43),.PCURVE_S1.);
#27 = LINE('',#28,#29);
#28 = CARTESIAN_POINT('',(1.621113885844,0.,-16.));
#29 = VECTOR('',#30,1.);
#30 = DIRECTION('',(0.,0.,1.));
#31 = PCURVE('',#32,#37);
#32 = CYLINDRICAL_SURFACE('',#33,1.621113885844);
#33 = AXIS2_PLACEMENT_3D('',#34,#35,#36);
#34 = CARTESIAN_POINT('',(0.,0.,-16.));
#35 = DIRECTION('',(-0.,-0.,-1.));
#36 = DIRECTION('',(1.,0.,0.));
#37 = DEFINITIONAL_REPRESENTATION('',(#38),#42);
#38 = LINE('',#39,#40);
#39 = CARTESIAN_POINT('',(-0.,0.));
#40 = VECTOR('',#41,1.);
#41 = DIRECTION('',(-0.,-1.));
#42 = ( GEOMETRIC_REPRESENTATION_CONTEXT(2) 
PARAMETRIC_REPRESENTATION_CONTEXT() REPRESENTATION_CONTEXT('2D SPACE',''
  ) );
#43 = PCURVE('',#32,#44);
#44 = DEFINITIONAL_REPRESENTATION('',(#45),#49);
#45 = LINE('',#46,#47);
#46 = CARTESIAN_POINT('',(-6.28318530718,0.));
#47 = VECTOR('',#48,1.);
#48 = DIRECTION('',(-0.,-1.));
#49 = ( GEOMETRIC_REPRESENTATION_CONTEXT(2) 
PARAMETRIC_REPRESENTATION_CONTEXT() REPRESENTATION_CONTEXT('2D SPACE',''
  ) );
#50 = ORIENTED_EDGE('',*,*,#51,.T.);
#51 = EDGE_CURVE('',#24,#24,#52,.T.);
#52 = SURFACE_CURVE('',#53,(#58,#65),.PCURVE_S1.);
#53 = CIRCLE('',#54,1.621113885844);
#54 = AXIS2_PLACEMENT_3D('',#55,#56,#57);
#55 = CARTESIAN_POINT('',(0.,0.,-2.2));
#56 = DIRECTION('',(0.,0.,1.));
#57 = DIRECTION('',(1.,0.,-0.));
#58 = PCURVE('',#32,#59);
#59 = DEFINITIONAL_REPRESENTATION('',(#60),#64);
#60 = LINE('',#61,#62);
#61 = CARTESIAN_POINT('',(-0.,-13.8));
#62 = VECTOR('',#63,1.);
#63 = DIRECTION('',(-1.,0.));
#64 = ( GEOMETRIC_REPRESENTATION_CONTEXT(2) 
PARAMETRIC_REPRESENTATION_CONTEXT() REPRESENTATION_CONTEXT('2D SPACE',''
  ) );
#65 = PCURVE('',#66,#71);
#66 = PLANE('',#67);
#67 = AXIS2_PLACEMENT_3D('',#68,#69,#70);
#68 = CARTESIAN_POINT('',(-1.054398571624E-16,3.926345945066E-17,-2.2));
#69 = DIRECTION('',(0.,0.,1.));
#70 = DIRECTION('',(1.,0.,-0.));
#71 = DEFINITIONAL_REPRESENTATION('',(#72),#76);
#72 = CIRCLE('',#73,1.621113885844);
#73 = AXIS2_PLACEMENT_2D('',#74,#75);
#74 = CARTESIAN_POINT('',(1.054398571624E-16,-3.926345945066E-17));
#75 = DIRECTION('',(1.,0.));
#76 = ( GEOMETRIC_REPRESENTATION_CONTEXT(2) 
PARAMETRIC_REPRESENTATION_CONTEXT() REPRESENTATION_CONTEXT('2D SPACE',''
  ) );
#77 = ORIENTED_EDGE('',*,*,#21,.F.);
#78 = ORIENTED_EDGE('',*,*,#79,.F.);
#79 = EDGE_CURVE('',#22,#22,#80,.T.);
#80 = SURFACE_CURVE('',#81,(#86,#93),.PCURVE_S1.);
#81 = CIRCLE('',#82,1.621113885844);
#82 = AXIS2_PLACEMENT_3D('',#83,#84,#85);
#83 = CARTESIAN_POINT('',(0.,0.,-16.));
#84 = DIRECTION('',(0.,0.,1.));
#85 = DIRECTION('',(1.,0.,-0.));
#86 = PCURVE('',#32,#87);
#87 = DEFINITIONAL_REPRESENTATION('',(#88),#92);
#88 = LINE('',#89,#90);
#89 = CARTESIAN_POINT('',(-0.,0.));
#90 = VECTOR('',#91,1.);
#91 = DIRECTION('',(-1.,0.));
#92 = ( GEOMETRIC_REPRESENTATION_CONTEXT(2) 
PARAMETRIC_REPRESENTATION_CONTEXT() REPRESENTATION_CONTEXT('2D SPACE',''
  ) );
#93 = PCURVE('',#94,#99);
#94 = PLANE('',#95);
#95 = AXIS2_PLACEMENT_3D('',#96,#97,#98);
#96 = CARTESIAN_POINT('',(-1.054398571624E-16,3.926345945066E-17,-16.));
#97 = DIRECTION('',(0.,0.,1.));
#98 = DIRECTION('',(1.,0.,-0.));
#99 = DEFINITIONAL_REPRESENTATION('',(#100),#104);
#100 = CIRCLE('',#101,1.621113885844);
#101 = AXIS2_PLACEMENT_2D('',#102,#103);
#102 = CARTESIAN_POINT('',(1.054398571624E-16,-3.926345945066E-17));
#103 = DIRECTION('',(1.,0.));
#104 = ( GEOMETRIC_REPRESENTATION_CONTEXT(2) 
PARAMETRIC_REPRESENTATION_CONTEXT() REPRESENTATION_CONTEXT('2D SPACE',''
  ) );
#105 = ADVANCED_FACE('',(#106),#94,.F.);
#106 = FACE_BOUND('',#107,.F.);
#107 = EDGE_LOOP('',(#108));
#108 = ORIENTED_EDGE('',*,*,#79,.T.);
#109 = ADVANCED_FACE('',(#110,#113),#66,.T.);
#110 = FACE_BOUND('',#111,.T.);
#111 = EDGE_LOOP('',(#112));
#112 = ORIENTED_EDGE('',*,*,#51,.T.);
#113 = FACE_BOUND('',#114,.T.);
#114 = EDGE_LOOP('',(#115));
#115 = ORIENTED_EDGE('',*,*,#116,.F.);
#116 = EDGE_CURVE('',#117,#117,#119,.T.);
#117 = VERTEX_POINT('',#118);
#118 = CARTESIAN_POINT('',(1.55,0.,-2.2));
#119 = SURFACE_CURVE('',#120,(#125,#132),.PCURVE_S1.);
#120 = CIRCLE('',#121,1.55);
#121 = AXIS2_PLACEMENT_3D('',#122,#123,#124);
#122 = CARTESIAN_POINT('',(0.,0.,-2.2));
#123 = DIRECTION('',(0.,0.,1.));
#124 = DIRECTION('',(1.,0.,-0.));
#125 = PCURVE('',#66,#126);
#126 = DEFINITIONAL_REPRESENTATION('',(#127),#131);
#127 = CIRCLE('',#128,1.55);
#128 = AXIS2_PLACEMENT_2D('',#129,#130);
#129 = CARTESIAN_POINT('',(1.054398571624E-16,-3.926345945066E-17));
#130 = DIRECTION('',(1.,0.));
#131 = ( GEOMETRIC_REPRESENTATION_CONTEXT(2) 
PARAMETRIC_REPRESENTATION_CONTEXT() REPRESENTATION_CONTEXT('2D SPACE',''
  ) );
#132 = PCURVE('',#133,#138);
#133 = CONICAL_SURFACE('',#134,3.75,0.785398163397);
#134 = AXIS2_PLACEMENT_3D('',#135,#136,#137);
#135 = CARTESIAN_POINT('',(0.,0.,0.));
#136 = DIRECTION('',(0.,0.,1.));
#137 = DIRECTION('',(1.,0.,0.));
#138 = DEFINITIONAL_REPRESENTATION('',(#139),#143);
#139 = LINE('',#140,#141);
#140 = CARTESIAN_POINT('',(0.,-2.2));
#141 = VECTOR('',#142,1.);
#142 = DIRECTION('',(1.,-0.));
#143 = ( GEOMETRIC_REPRESENTATION_CONTEXT(2) 
PARAMETRIC_REPRESENTATION_CONTEXT() REPRESENTATION_CONTEXT('2D SPACE',''
  ) );
#144 = ADVANCED_FACE('',(#145),#133,.T.);
#145 = FACE_BOUND('',#146,.F.);
#146 = EDGE_LOOP('',(#147,#181,#210,#237,#270,#302,#331,#358,#386,#407,
    #408,#409));
#147 = ORIENTED_EDGE('',*,*,#148,.T.);
#148 = EDGE_CURVE('',#149,#151,#153,.T.);
#149 = VERTEX_POINT('',#150);
#150 = CARTESIAN_POINT('',(3.024411619672,0.6,-0.666647012551));
#151 = VERTEX_POINT('',#152);
#152 = CARTESIAN_POINT('',(3.539322176854,0.6,-0.160180858097));
#153 = SURFACE_CURVE('',#154,(#159,#169),.PCURVE_S1.);
#154 = HYPERBOLA('',#155,0.6,0.6);
#155 = AXIS2_PLACEMENT_3D('',#156,#157,#158);
#156 = CARTESIAN_POINT('',(0.,0.6,-3.75));
#157 = DIRECTION('',(0.,1.,0.));
#158 = DIRECTION('',(0.,-0.,1.));
#159 = PCURVE('',#133,#160);
#160 = DEFINITIONAL_REPRESENTATION('',(#161),#168);
#161 = B_SPLINE_CURVE_WITH_KNOTS('',5,(#162,#163,#164,#165,#166,#167),
  .UNSPECIFIED.,.F.,.F.,(6,6),(2.266002428307,2.475016418788),
  .PIECEWISE_BEZIER_KNOTS.);
#162 = CARTESIAN_POINT('',(0.206712777423,-0.826647012551));
#163 = CARTESIAN_POINT('',(0.198133013376,-0.707044300188));
#164 = CARTESIAN_POINT('',(0.189992028066,-0.581055992033));
#165 = CARTESIAN_POINT('',(0.182261214783,-0.448246612921));
#166 = CARTESIAN_POINT('',(0.174914368383,-0.308134428453));
#167 = CARTESIAN_POINT('',(0.167927476324,-0.160180858097));
#168 = ( GEOMETRIC_REPRESENTATION_CONTEXT(2) 
PARAMETRIC_REPRESENTATION_CONTEXT() REPRESENTATION_CONTEXT('2D SPACE',''
  ) );
#169 = PCURVE('',#170,#175);
#170 = PLANE('',#171);
#171 = AXIS2_PLACEMENT_3D('',#172,#173,#174);
#172 = CARTESIAN_POINT('',(3.75,0.6,0.933352987449));
#173 = DIRECTION('',(0.,1.,0.));
#174 = DIRECTION('',(-1.,0.,0.));
#175 = DEFINITIONAL_REPRESENTATION('',(#176),#180);
#176 = HYPERBOLA('',#177,0.6,0.6);
#177 = AXIS2_PLACEMENT_2D('',#178,#179);
#178 = CARTESIAN_POINT('',(3.75,-4.683352987449));
#179 = DIRECTION('',(0.,1.));
#180 = ( GEOMETRIC_REPRESENTATION_CONTEXT(2) 
PARAMETRIC_REPRESENTATION_CONTEXT() REPRESENTATION_CONTEXT('2D SPACE',''
  ) );
#181 = ORIENTED_EDGE('',*,*,#182,.T.);
#182 = EDGE_CURVE('',#151,#183,#185,.T.);
#183 = VERTEX_POINT('',#184);
#184 = CARTESIAN_POINT('',(-3.539322176854,0.6,-0.160180858097));
#185 = SURFACE_CURVE('',#186,(#191,#198),.PCURVE_S1.);
#186 = CIRCLE('',#187,3.589819141903);
#187 = AXIS2_PLACEMENT_3D('',#188,#189,#190);
#188 = CARTESIAN_POINT('',(0.,0.,-0.160180858097));
#189 = DIRECTION('',(0.,0.,1.));
#190 = DIRECTION('',(1.,0.,-0.));
#191 = PCURVE('',#133,#192);
#192 = DEFINITIONAL_REPRESENTATION('',(#193),#197);
#193 = LINE('',#194,#195);
#194 = CARTESIAN_POINT('',(0.,-0.160180858097));
#195 = VECTOR('',#196,1.);
#196 = DIRECTION('',(1.,-0.));
#197 = ( GEOMETRIC_REPRESENTATION_CONTEXT(2) 
PARAMETRIC_REPRESENTATION_CONTEXT() REPRESENTATION_CONTEXT('2D SPACE',''
  ) );
#198 = PCURVE('',#199,#204);
#199 = TOROIDAL_SURFACE('',#200,3.473146523007,0.165);
#200 = AXIS2_PLACEMENT_3D('',#201,#202,#203);
#201 = CARTESIAN_POINT('',(0.,0.,-4.350823920171E-02));
#202 = DIRECTION('',(-0.,-0.,-1.));
#203 = DIRECTION('',(1.,0.,-0.));
#204 = DEFINITIONAL_REPRESENTATION('',(#205),#209);
#205 = LINE('',#206,#207);
#206 = CARTESIAN_POINT('',(-0.,7.068583470577));
#207 = VECTOR('',#208,1.);
#208 = DIRECTION('',(-1.,0.));
#209 = ( GEOMETRIC_REPRESENTATION_CONTEXT(2) 
PARAMETRIC_REPRESENTATION_CONTEXT() REPRESENTATION_CONTEXT('2D SPACE',''
  ) );
#210 = ORIENTED_EDGE('',*,*,#211,.T.);
#211 = EDGE_CURVE('',#183,#212,#214,.T.);
#212 = VERTEX_POINT('',#213);
#213 = CARTESIAN_POINT('',(-3.024411619672,0.6,-0.666647012551));
#214 = SURFACE_CURVE('',#215,(#220,#230),.PCURVE_S1.);
#215 = HYPERBOLA('',#216,0.6,0.6);
#216 = AXIS2_PLACEMENT_3D('',#217,#218,#219);
#217 = CARTESIAN_POINT('',(0.,0.6,-3.75));
#218 = DIRECTION('',(0.,1.,0.));
#219 = DIRECTION('',(0.,-0.,1.));
#220 = PCURVE('',#133,#221);
#221 = DEFINITIONAL_REPRESENTATION('',(#222),#229);
#222 = B_SPLINE_CURVE_WITH_KNOTS('',5,(#223,#224,#225,#226,#227,#228),
  .UNSPECIFIED.,.F.,.F.,(6,6),(-2.475016418788,-2.266002428307),
  .PIECEWISE_BEZIER_KNOTS.);
#223 = CARTESIAN_POINT('',(2.973665177266,-0.160180858097));
#224 = CARTESIAN_POINT('',(2.966678285207,-0.308134428453));
#225 = CARTESIAN_POINT('',(2.959331438807,-0.448246612921));
#226 = CARTESIAN_POINT('',(2.951600625523,-0.581055992033));
#227 = CARTESIAN_POINT('',(2.943459640214,-0.707044300188));
#228 = CARTESIAN_POINT('',(2.934879876167,-0.826647012551));
#229 = ( GEOMETRIC_REPRESENTATION_CONTEXT(2) 
PARAMETRIC_REPRESENTATION_CONTEXT() REPRESENTATION_CONTEXT('2D SPACE',''
  ) );
#230 = PCURVE('',#170,#231);
#231 = DEFINITIONAL_REPRESENTATION('',(#232),#236);
#232 = HYPERBOLA('',#233,0.6,0.6);
#233 = AXIS2_PLACEMENT_2D('',#234,#235);
#234 = CARTESIAN_POINT('',(3.75,-4.683352987449));
#235 = DIRECTION('',(0.,1.));
#236 = ( GEOMETRIC_REPRESENTATION_CONTEXT(2) 
PARAMETRIC_REPRESENTATION_CONTEXT() REPRESENTATION_CONTEXT('2D SPACE',''
  ) );
#237 = ORIENTED_EDGE('',*,*,#238,.F.);
#238 = EDGE_CURVE('',#239,#212,#241,.T.);
#239 = VERTEX_POINT('',#240);
#240 = CARTESIAN_POINT('',(-3.024411619672,-0.6,-0.666647012551));
#241 = SURFACE_CURVE('',#242,(#247,#254),.PCURVE_S1.);
#242 = CIRCLE('',#243,3.083352987449);
#243 = AXIS2_PLACEMENT_3D('',#244,#245,#246);
#244 = CARTESIAN_POINT('',(0.,0.,-0.666647012551));
#245 = DIRECTION('',(0.,0.,-1.));
#246 = DIRECTION('',(1.,0.,0.));
#247 = PCURVE('',#133,#248);
#248 = DEFINITIONAL_REPRESENTATION('',(#249),#253);
#249 = LINE('',#250,#251);
#250 = CARTESIAN_POINT('',(6.28318530718,-0.666647012551));
#251 = VECTOR('',#252,1.);
#252 = DIRECTION('',(-1.,-0.));
#253 = ( GEOMETRIC_REPRESENTATION_CONTEXT(2) 
PARAMETRIC_REPRESENTATION_CONTEXT() REPRESENTATION_CONTEXT('2D SPACE',''
  ) );
#254 = PCURVE('',#255,#260);
#255 = PLANE('',#256);
#256 = AXIS2_PLACEMENT_3D('',#257,#258,#259);
#257 = CARTESIAN_POINT('',(0.,0.,-0.666647012551));
#258 = DIRECTION('',(0.,0.,1.));
#259 = DIRECTION('',(1.,0.,-0.));
#260 = DEFINITIONAL_REPRESENTATION('',(#261),#269);
#261 = ( BOUNDED_CURVE() B_SPLINE_CURVE(2,(#262,#263,#264,#265,#266,#267
,#268),.UNSPECIFIED.,.T.,.F.) B_SPLINE_CURVE_WITH_KNOTS((1,2,2,2,2,1),(
    -2.094395102393,0.,2.094395102393,4.188790204786,6.28318530718,
8.377580409573),.UNSPECIFIED.) CURVE() GEOMETRIC_REPRESENTATION_ITEM() 
RATIONAL_B_SPLINE_CURVE((1.,0.5,1.,0.5,1.,0.5,1.)) REPRESENTATION_ITEM(
  '') );
#262 = CARTESIAN_POINT('',(3.083352987449,0.));
#263 = CARTESIAN_POINT('',(3.083352987449,-5.34052403193));
#264 = CARTESIAN_POINT('',(-1.541676493724,-2.670262015965));
#265 = CARTESIAN_POINT('',(-6.166705974897,-7.552036733441E-16));
#266 = CARTESIAN_POINT('',(-1.541676493724,2.670262015965));
#267 = CARTESIAN_POINT('',(3.083352987449,5.34052403193));
#268 = CARTESIAN_POINT('',(3.083352987449,0.));
#269 = ( GEOMETRIC_REPRESENTATION_CONTEXT(2) 
PARAMETRIC_REPRESENTATION_CONTEXT() REPRESENTATION_CONTEXT('2D SPACE',''
  ) );
#270 = ORIENTED_EDGE('',*,*,#271,.T.);
#271 = EDGE_CURVE('',#239,#272,#274,.T.);
#272 = VERTEX_POINT('',#273);
#273 = CARTESIAN_POINT('',(-3.539322176854,-0.6,-0.160180858097));
#274 = SURFACE_CURVE('',#275,(#280,#290),.PCURVE_S1.);
#275 = HYPERBOLA('',#276,0.6,0.6);
#276 = AXIS2_PLACEMENT_3D('',#277,#278,#279);
#277 = CARTESIAN_POINT('',(0.,-0.6,-3.75));
#278 = DIRECTION('',(0.,-1.,0.));
#279 = DIRECTION('',(-0.,0.,1.));
#280 = PCURVE('',#133,#281);
#281 = DEFINITIONAL_REPRESENTATION('',(#282),#289);
#282 = B_SPLINE_CURVE_WITH_KNOTS('',5,(#283,#284,#285,#286,#287,#288),
  .UNSPECIFIED.,.F.,.F.,(6,6),(2.266002428307,2.475016418788),
  .PIECEWISE_BEZIER_KNOTS.);
#283 = CARTESIAN_POINT('',(3.348305431012,-0.826647012551));
#284 = CARTESIAN_POINT('',(3.339725666966,-0.707044300188));
#285 = CARTESIAN_POINT('',(3.331584681656,-0.581055992033));
#286 = CARTESIAN_POINT('',(3.323853868373,-0.448246612921));
#287 = CARTESIAN_POINT('',(3.316507021973,-0.308134428453));
#288 = CARTESIAN_POINT('',(3.309520129913,-0.160180858097));
#289 = ( GEOMETRIC_REPRESENTATION_CONTEXT(2) 
PARAMETRIC_REPRESENTATION_CONTEXT() REPRESENTATION_CONTEXT('2D SPACE',''
  ) );
#290 = PCURVE('',#291,#296);
#291 = PLANE('',#292);
#292 = AXIS2_PLACEMENT_3D('',#293,#294,#295);
#293 = CARTESIAN_POINT('',(-3.75,-0.6,0.933352987449));
#294 = DIRECTION('',(0.,-1.,0.));
#295 = DIRECTION('',(1.,0.,0.));
#296 = DEFINITIONAL_REPRESENTATION('',(#297),#301);
#297 = HYPERBOLA('',#298,0.6,0.6);
#298 = AXIS2_PLACEMENT_2D('',#299,#300);
#299 = CARTESIAN_POINT('',(3.75,-4.683352987449));
#300 = DIRECTION('',(0.,1.));
#301 = ( GEOMETRIC_REPRESENTATION_CONTEXT(2) 
PARAMETRIC_REPRESENTATION_CONTEXT() REPRESENTATION_CONTEXT('2D SPACE',''
  ) );
#302 = ORIENTED_EDGE('',*,*,#303,.T.);
#303 = EDGE_CURVE('',#272,#304,#306,.T.);
#304 = VERTEX_POINT('',#305);
#305 = CARTESIAN_POINT('',(3.539322176854,-0.6,-0.160180858097));
#306 = SURFACE_CURVE('',#307,(#312,#319),.PCURVE_S1.);
#307 = CIRCLE('',#308,3.589819141903);
#308 = AXIS2_PLACEMENT_3D('',#309,#310,#311);
#309 = CARTESIAN_POINT('',(0.,0.,-0.160180858097));
#310 = DIRECTION('',(0.,0.,1.));
#311 = DIRECTION('',(1.,0.,-0.));
#312 = PCURVE('',#133,#313);
#313 = DEFINITIONAL_REPRESENTATION('',(#314),#318);
#314 = LINE('',#315,#316);
#315 = CARTESIAN_POINT('',(0.,-0.160180858097));
#316 = VECTOR('',#317,1.);
#317 = DIRECTION('',(1.,-0.));
#318 = ( GEOMETRIC_REPRESENTATION_CONTEXT(2) 
PARAMETRIC_REPRESENTATION_CONTEXT() REPRESENTATION_CONTEXT('2D SPACE',''
  ) );
#319 = PCURVE('',#320,#325);
#320 = TOROIDAL_SURFACE('',#321,3.473146523007,0.165);
#321 = AXIS2_PLACEMENT_3D('',#322,#323,#324);
#322 = CARTESIAN_POINT('',(0.,0.,-4.350823920171E-02));
#323 = DIRECTION('',(-0.,-0.,-1.));
#324 = DIRECTION('',(1.,0.,-0.));
#325 = DEFINITIONAL_REPRESENTATION('',(#326),#330);
#326 = LINE('',#327,#328);
#327 = CARTESIAN_POINT('',(-0.,7.068583470577));
#328 = VECTOR('',#329,1.);
#329 = DIRECTION('',(-1.,0.));
#330 = ( GEOMETRIC_REPRESENTATION_CONTEXT(2) 
PARAMETRIC_REPRESENTATION_CONTEXT() REPRESENTATION_CONTEXT('2D SPACE',''
  ) );
#331 = ORIENTED_EDGE('',*,*,#332,.T.);
#332 = EDGE_CURVE('',#304,#333,#335,.T.);
#333 = VERTEX_POINT('',#334);
#334 = CARTESIAN_POINT('',(3.024411619672,-0.6,-0.666647012551));
#335 = SURFACE_CURVE('',#336,(#341,#351),.PCURVE_S1.);
#336 = HYPERBOLA('',#337,0.6,0.6);
#337 = AXIS2_PLACEMENT_3D('',#338,#339,#340);
#338 = CARTESIAN_POINT('',(0.,-0.6,-3.75));
#339 = DIRECTION('',(0.,-1.,0.));
#340 = DIRECTION('',(-0.,0.,1.));
#341 = PCURVE('',#133,#342);
#342 = DEFINITIONAL_REPRESENTATION('',(#343),#350);
#343 = B_SPLINE_CURVE_WITH_KNOTS('',5,(#344,#345,#346,#347,#348,#349),
  .UNSPECIFIED.,.F.,.F.,(6,6),(-2.475016418788,-2.266002428307),
  .PIECEWISE_BEZIER_KNOTS.);
#344 = CARTESIAN_POINT('',(6.115257830856,-0.160180858097));
#345 = CARTESIAN_POINT('',(6.108270938796,-0.308134428453));
#346 = CARTESIAN_POINT('',(6.100924092397,-0.448246612921));
#347 = CARTESIAN_POINT('',(6.093193279113,-0.581055992033));
#348 = CARTESIAN_POINT('',(6.085052293804,-0.707044300188));
#349 = CARTESIAN_POINT('',(6.076472529757,-0.826647012551));
#350 = ( GEOMETRIC_REPRESENTATION_CONTEXT(2) 
PARAMETRIC_REPRESENTATION_CONTEXT() REPRESENTATION_CONTEXT('2D SPACE',''
  ) );
#351 = PCURVE('',#291,#352);
#352 = DEFINITIONAL_REPRESENTATION('',(#353),#357);
#353 = HYPERBOLA('',#354,0.6,0.6);
#354 = AXIS2_PLACEMENT_2D('',#355,#356);
#355 = CARTESIAN_POINT('',(3.75,-4.683352987449));
#356 = DIRECTION('',(0.,1.));
#357 = ( GEOMETRIC_REPRESENTATION_CONTEXT(2) 
PARAMETRIC_REPRESENTATION_CONTEXT() REPRESENTATION_CONTEXT('2D SPACE',''
  ) );
#358 = ORIENTED_EDGE('',*,*,#359,.F.);
#359 = EDGE_CURVE('',#360,#333,#362,.T.);
#360 = VERTEX_POINT('',#361);
#361 = CARTESIAN_POINT('',(3.083352987449,0.,-0.666647012551));
#362 = SURFACE_CURVE('',#363,(#368,#375),.PCURVE_S1.);
#363 = CIRCLE('',#364,3.083352987449);
#364 = AXIS2_PLACEMENT_3D('',#365,#366,#367);
#365 = CARTESIAN_POINT('',(0.,0.,-0.666647012551));
#366 = DIRECTION('',(0.,0.,-1.));
#367 = DIRECTION('',(1.,0.,0.));
#368 = PCURVE('',#133,#369);
#369 = DEFINITIONAL_REPRESENTATION('',(#370),#374);
#370 = LINE('',#371,#372);
#371 = CARTESIAN_POINT('',(6.28318530718,-0.666647012551));
#372 = VECTOR('',#373,1.);
#373 = DIRECTION('',(-1.,-0.));
#374 = ( GEOMETRIC_REPRESENTATION_CONTEXT(2) 
PARAMETRIC_REPRESENTATION_CONTEXT() REPRESENTATION_CONTEXT('2D SPACE',''
  ) );
#375 = PCURVE('',#255,#376);
#376 = DEFINITIONAL_REPRESENTATION('',(#377),#385);
#377 = ( BOUNDED_CURVE() B_SPLINE_CURVE(2,(#378,#379,#380,#381,#382,#383
,#384),.UNSPECIFIED.,.T.,.F.) B_SPLINE_CURVE_WITH_KNOTS((1,2,2,2,2,1),(
    -2.094395102393,0.,2.094395102393,4.188790204786,6.28318530718,
8.377580409573),.UNSPECIFIED.) CURVE() GEOMETRIC_REPRESENTATION_ITEM() 
RATIONAL_B_SPLINE_CURVE((1.,0.5,1.,0.5,1.,0.5,1.)) REPRESENTATION_ITEM(
  '') );
#378 = CARTESIAN_POINT('',(3.083352987449,0.));
#379 = CARTESIAN_POINT('',(3.083352987449,-5.34052403193));
#380 = CARTESIAN_POINT('',(-1.541676493724,-2.670262015965));
#381 = CARTESIAN_POINT('',(-6.166705974897,-7.552036733441E-16));
#382 = CARTESIAN_POINT('',(-1.541676493724,2.670262015965));
#383 = CARTESIAN_POINT('',(3.083352987449,5.34052403193));
#384 = CARTESIAN_POINT('',(3.083352987449,0.));
#385 = ( GEOMETRIC_REPRESENTATION_CONTEXT(2) 
PARAMETRIC_REPRESENTATION_CONTEXT() REPRESENTATION_CONTEXT('2D SPACE',''
  ) );
#386 = ORIENTED_EDGE('',*,*,#387,.T.);
#387 = EDGE_CURVE('',#360,#117,#388,.T.);
#388 = SEAM_CURVE('',#389,(#393,#400),.PCURVE_S1.);
#389 = LINE('',#390,#391);
#390 = CARTESIAN_POINT('',(3.75,0.,0.));
#391 = VECTOR('',#392,1.);
#392 = DIRECTION('',(-0.707106781187,0.,-0.707106781187));
#393 = PCURVE('',#133,#394);
#394 = DEFINITIONAL_REPRESENTATION('',(#395),#399);
#395 = LINE('',#396,#397);
#396 = CARTESIAN_POINT('',(0.,-0.));
#397 = VECTOR('',#398,1.);
#398 = DIRECTION('',(0.,-1.));
#399 = ( GEOMETRIC_REPRESENTATION_CONTEXT(2) 
PARAMETRIC_REPRESENTATION_CONTEXT() REPRESENTATION_CONTEXT('2D SPACE',''
  ) );
#400 = PCURVE('',#133,#401);
#401 = DEFINITIONAL_REPRESENTATION('',(#402),#406);
#402 = LINE('',#403,#404);
#403 = CARTESIAN_POINT('',(6.28318530718,-0.));
#404 = VECTOR('',#405,1.);
#405 = DIRECTION('',(0.,-1.));
#406 = ( GEOMETRIC_REPRESENTATION_CONTEXT(2) 
PARAMETRIC_REPRESENTATION_CONTEXT() REPRESENTATION_CONTEXT('2D SPACE',''
  ) );
#407 = ORIENTED_EDGE('',*,*,#116,.F.);
#408 = ORIENTED_EDGE('',*,*,#387,.F.);
#409 = ORIENTED_EDGE('',*,*,#410,.F.);
#410 = EDGE_CURVE('',#149,#360,#411,.T.);
#411 = SURFACE_CURVE('',#412,(#417,#424),.PCURVE_S1.);
#412 = CIRCLE('',#413,3.083352987449);
#413 = AXIS2_PLACEMENT_3D('',#414,#415,#416);
#414 = CARTESIAN_POINT('',(0.,0.,-0.666647012551));
#415 = DIRECTION('',(0.,0.,-1.));
#416 = DIRECTION('',(1.,0.,0.));
#417 = PCURVE('',#133,#418);
#418 = DEFINITIONAL_REPRESENTATION('',(#419),#423);
#419 = LINE('',#420,#421);
#420 = CARTESIAN_POINT('',(6.28318530718,-0.666647012551));
#421 = VECTOR('',#422,1.);
#422 = DIRECTION('',(-1.,-0.));
#423 = ( GEOMETRIC_REPRESENTATION_CONTEXT(2) 
PARAMETRIC_REPRESENTATION_CONTEXT() REPRESENTATION_CONTEXT('2D SPACE',''
  ) );
#424 = PCURVE('',#255,#425);
#425 = DEFINITIONAL_REPRESENTATION('',(#426),#434);
#426 = ( BOUNDED_CURVE() B_SPLINE_CURVE(2,(#427,#428,#429,#430,#431,#432
,#433),.UNSPECIFIED.,.T.,.F.) B_SPLINE_CURVE_WITH_KNOTS((1,2,2,2,2,1),(
    -2.094395102393,0.,2.094395102393,4.188790204786,6.28318530718,
8.377580409573),.UNSPECIFIED.) CURVE() GEOMETRIC_REPRESENTATION_ITEM() 
RATIONAL_B_SPLINE_CURVE((1.,0.5,1.,0.5,1.,0.5,1.)) REPRESENTATION_ITEM(
  '') );
#427 = CARTESIAN_POINT('',(3.083352987449,0.));
#428 = CARTESIAN_POINT('',(3.083352987449,-5.34052403193));
#429 = CARTESIAN_POINT('',(-1.541676493724,-2.670262015965));
#430 = CARTESIAN_POINT('',(-6.166705974897,-7.552036733441E-16));
#431 = CARTESIAN_POINT('',(-1.541676493724,2.670262015965));
#432 = CARTESIAN_POINT('',(3.083352987449,5.34052403193));
#433 = CARTESIAN_POINT('',(3.083352987449,0.));
#434 = ( GEOMETRIC_REPRESENTATION_CONTEXT(2) 
PARAMETRIC_REPRESENTATION_CONTEXT() REPRESENTATION_CONTEXT('2D SPACE',''
  ) );
#435 = ADVANCED_FACE('',(#436),#170,.F.);
#436 = FACE_BOUND('',#437,.F.);
#437 = EDGE_LOOP('',(#438,#439,#460,#461,#511,#623));
#438 = ORIENTED_EDGE('',*,*,#148,.F.);
#439 = ORIENTED_EDGE('',*,*,#440,.T.);
#440 = EDGE_CURVE('',#149,#212,#441,.T.);
#441 = SURFACE_CURVE('',#442,(#446,#453),.PCURVE_S1.);
#442 = LINE('',#443,#444);
#443 = CARTESIAN_POINT('',(3.75,0.6,-0.666647012551));
#444 = VECTOR('',#445,1.);
#445 = DIRECTION('',(-1.,0.,0.));
#446 = PCURVE('',#170,#447);
#447 = DEFINITIONAL_REPRESENTATION('',(#448),#452);
#448 = LINE('',#449,#450);
#449 = CARTESIAN_POINT('',(0.,-1.6));
#450 = VECTOR('',#451,1.);
#451 = DIRECTION('',(1.,0.));
#452 = ( GEOMETRIC_REPRESENTATION_CONTEXT(2) 
PARAMETRIC_REPRESENTATION_CONTEXT() REPRESENTATION_CONTEXT('2D SPACE',''
  ) );
#453 = PCURVE('',#255,#454);
#454 = DEFINITIONAL_REPRESENTATION('',(#455),#459);
#455 = LINE('',#456,#457);
#456 = CARTESIAN_POINT('',(3.75,0.6));
#457 = VECTOR('',#458,1.);
#458 = DIRECTION('',(-1.,0.));
#459 = ( GEOMETRIC_REPRESENTATION_CONTEXT(2) 
PARAMETRIC_REPRESENTATION_CONTEXT() REPRESENTATION_CONTEXT('2D SPACE',''
  ) );
#460 = ORIENTED_EDGE('',*,*,#211,.F.);
#461 = ORIENTED_EDGE('',*,*,#462,.F.);
#462 = EDGE_CURVE('',#463,#183,#465,.T.);
#463 = VERTEX_POINT('',#464);
#464 = CARTESIAN_POINT('',(-3.495162906432,0.6,0.104394491826));
#465 = SURFACE_CURVE('',#466,(#479,#495),.PCURVE_S1.);
#466 = B_SPLINE_CURVE_WITH_KNOTS('',6,(#467,#468,#469,#470,#471,#472,
    #473,#474,#475,#476,#477,#478),.UNSPECIFIED.,.F.,.F.,(7,5,7),(0.,
    0.586009105014,1.),.UNSPECIFIED.);
#467 = CARTESIAN_POINT('',(-3.495162906432,0.6,0.104394491826));
#468 = CARTESIAN_POINT('',(-3.522958687948,0.6,9.084683846877E-02));
#469 = CARTESIAN_POINT('',(-3.547696885938,0.6,7.120767652597E-02));
#470 = CARTESIAN_POINT('',(-3.567656762592,0.6,4.6311079257E-02));
#471 = CARTESIAN_POINT('',(-3.581442122233,0.6,1.762878869106E-02));
#472 = CARTESIAN_POINT('',(-3.588331815035,0.6,-1.294718611564E-02));
#473 = CARTESIAN_POINT('',(-3.588328225837,0.6,-6.51174493765E-02));
#474 = CARTESIAN_POINT('',(-3.584887109593,0.6,-8.6715819984E-02));
#475 = CARTESIAN_POINT('',(-3.578005991533,0.6,-0.107646681092));
#476 = CARTESIAN_POINT('',(-3.567862881835,0.6,-0.127243590176));
#477 = CARTESIAN_POINT('',(-3.554808993043,0.6,-0.144911890548));
#478 = CARTESIAN_POINT('',(-3.539322176854,0.6,-0.160180858097));
#479 = PCURVE('',#170,#480);
#480 = DEFINITIONAL_REPRESENTATION('',(#481),#494);
#481 = B_SPLINE_CURVE_WITH_KNOTS('',6,(#482,#483,#484,#485,#486,#487,
    #488,#489,#490,#491,#492,#493),.UNSPECIFIED.,.F.,.F.,(7,5,7),(0.,
    0.586009105014,1.),.UNSPECIFIED.);
#482 = CARTESIAN_POINT('',(7.245162906432,-0.828958495623));
#483 = CARTESIAN_POINT('',(7.272958687948,-0.84250614898));
#484 = CARTESIAN_POINT('',(7.297696885938,-0.862145310923));
#485 = CARTESIAN_POINT('',(7.317656762592,-0.887041908192));
#486 = CARTESIAN_POINT('',(7.331442122233,-0.915724198758));
#487 = CARTESIAN_POINT('',(7.338331815035,-0.946300173564));
#488 = CARTESIAN_POINT('',(7.338328225837,-0.998470436825));
#489 = CARTESIAN_POINT('',(7.334887109593,-1.020068807433));
#490 = CARTESIAN_POINT('',(7.328005991533,-1.040999668541));
#491 = CARTESIAN_POINT('',(7.317862881835,-1.060596577624));
#492 = CARTESIAN_POINT('',(7.304808993043,-1.078264877997));
#493 = CARTESIAN_POINT('',(7.289322176854,-1.093533845546));
#494 = ( GEOMETRIC_REPRESENTATION_CONTEXT(2) 
PARAMETRIC_REPRESENTATION_CONTEXT() REPRESENTATION_CONTEXT('2D SPACE',''
  ) );
#495 = PCURVE('',#199,#496);
#496 = DEFINITIONAL_REPRESENTATION('',(#497),#510);
#497 = B_SPLINE_CURVE_WITH_KNOTS('',6,(#498,#499,#500,#501,#502,#503,
    #504,#505,#506,#507,#508,#509),.UNSPECIFIED.,.F.,.F.,(7,5,7),(0.,
    0.586009105014,1.),.UNSPECIFIED.);
#498 = CARTESIAN_POINT('',(-2.971583915084,5.171650301674));
#499 = CARTESIAN_POINT('',(-2.972910032432,5.356873776335));
#500 = CARTESIAN_POINT('',(-2.974065725511,5.54213297841));
#501 = CARTESIAN_POINT('',(-2.974979624631,5.727387644798));
#502 = CARTESIAN_POINT('',(-2.975604374867,5.912659791344));
#503 = CARTESIAN_POINT('',(-2.975916719569,6.097966803201));
#504 = CARTESIAN_POINT('',(-2.975916556869,6.414150217631));
#505 = CARTESIAN_POINT('',(-2.975760567213,6.545050920694));
#506 = CARTESIAN_POINT('',(-2.975448651207,6.675943996333));
#507 = CARTESIAN_POINT('',(-2.974986653247,6.806830708303));
#508 = CARTESIAN_POINT('',(-2.974386232039,6.937713282746));
#509 = CARTESIAN_POINT('',(-2.973665177266,7.068583470577));
#510 = ( GEOMETRIC_REPRESENTATION_CONTEXT(2) 
PARAMETRIC_REPRESENTATION_CONTEXT() REPRESENTATION_CONTEXT('2D SPACE',''
  ) );
#511 = ORIENTED_EDGE('',*,*,#512,.T.);
#512 = EDGE_CURVE('',#463,#513,#515,.T.);
#513 = VERTEX_POINT('',#514);
#514 = CARTESIAN_POINT('',(3.495162906432,0.6,0.104394491826));
#515 = SURFACE_CURVE('',#516,(#521,#528),.PCURVE_S1.);
#516 = CIRCLE('',#517,7.977468270072);
#517 = AXIS2_PLACEMENT_3D('',#518,#519,#520);
#518 = CARTESIAN_POINT('',(-1.7763568394E-15,0.6,-7.066647012551));
#519 = DIRECTION('',(0.,1.,0.));
#520 = DIRECTION('',(0.,-0.,1.));
#521 = PCURVE('',#170,#522);
#522 = DEFINITIONAL_REPRESENTATION('',(#523),#527);
#523 = CIRCLE('',#524,7.977468270072);
#524 = AXIS2_PLACEMENT_2D('',#525,#526);
#525 = CARTESIAN_POINT('',(3.75,-8.));
#526 = DIRECTION('',(0.,1.));
#527 = ( GEOMETRIC_REPRESENTATION_CONTEXT(2) 
PARAMETRIC_REPRESENTATION_CONTEXT() REPRESENTATION_CONTEXT('2D SPACE',''
  ) );
#528 = PCURVE('',#529,#534);
#529 = SPHERICAL_SURFACE('',#530,8.);
#530 = AXIS2_PLACEMENT_3D('',#531,#532,#533);
#531 = CARTESIAN_POINT('',(-1.7763568394E-15,0.,-7.066647012551));
#532 = DIRECTION('',(-0.,-0.,-1.));
#533 = DIRECTION('',(1.,0.,-0.));
#534 = DEFINITIONAL_REPRESENTATION('',(#535),#622);
#535 = B_SPLINE_CURVE_WITH_KNOTS('',8,(#536,#537,#538,#539,#540,#541,
    #542,#543,#544,#545,#546,#547,#548,#549,#550,#551,#552,#553,#554,
    #555,#556,#557,#558,#559,#560,#561,#562,#563,#564,#565,#566,#567,
    #568,#569,#570,#571,#572,#573,#574,#575,#576,#577,#578,#579,#580,
    #581,#582,#583,#584,#585,#586,#587,#588,#589,#590,#591,#592,#593,
    #594,#595,#596,#597,#598,#599,#600,#601,#602,#603,#604,#605,#606,
    #607,#608,#609,#610,#611,#612,#613,#614,#615,#616,#617,#618,#619,
    #620,#621),.UNSPECIFIED.,.F.,.F.,(9,7,7,7,7,7,7,7,7,7,7,7,9),(
    5.829668718942,5.943047866002,6.042254619679,6.129060529146,
    6.20501569993,6.238246087148,6.269399575164,6.29860597018,
    6.353367960835,6.401284702658,6.485139000847,6.610920448132,
    6.736701895417),.UNSPECIFIED.);
#536 = CARTESIAN_POINT('',(-2.971583915084,-1.111535005506));
#537 = CARTESIAN_POINT('',(-2.966735179496,-1.125503079581));
#538 = CARTESIAN_POINT('',(-2.961535073069,-1.139457863855));
#539 = CARTESIAN_POINT('',(-2.955941675801,-1.153397745906));
#540 = CARTESIAN_POINT('',(-2.949904300266,-1.167320770469));
#541 = CARTESIAN_POINT('',(-2.943362384419,-1.181224599096));
#542 = CARTESIAN_POINT('',(-2.93624164744,-1.195106357269));
#543 = CARTESIAN_POINT('',(-2.928447508601,-1.208962368979));
#544 = CARTESIAN_POINT('',(-2.912337997172,-1.234885012344));
#545 = CARTESIAN_POINT('',(-2.904209527994,-1.246958815042));
#546 = CARTESIAN_POINT('',(-2.895386811423,-1.259005918189));
#547 = CARTESIAN_POINT('',(-2.885768784909,-1.271022359428));
#548 = CARTESIAN_POINT('',(-2.875229702955,-1.283003175228));
#549 = CARTESIAN_POINT('',(-2.863611738252,-1.294942108693));
#550 = CARTESIAN_POINT('',(-2.850709455599,-1.30683095146));
#551 = CARTESIAN_POINT('',(-2.823575963081,-1.32900692707));
#552 = CARTESIAN_POINT('',(-2.809712474167,-1.339308513526));
#553 = CARTESIAN_POINT('',(-2.794456879471,-1.349555119058));
#554 = CARTESIAN_POINT('',(-2.777572151178,-1.359737075749));
#555 = CARTESIAN_POINT('',(-2.758756036923,-1.369841776913));
#556 = CARTESIAN_POINT('',(-2.737617296717,-1.379852780448));
#557 = CARTESIAN_POINT('',(-2.713628057177,-1.389747458131));
#558 = CARTESIAN_POINT('',(-2.661887424919,-1.40801769384));
#559 = CARTESIAN_POINT('',(-2.634981282335,-1.416428539046));
#560 = CARTESIAN_POINT('',(-2.604807166819,-1.424701124916));
#561 = CARTESIAN_POINT('',(-2.570731502601,-1.432805801733));
#562 = CARTESIAN_POINT('',(-2.531919002126,-1.440702433757));
#563 = CARTESIAN_POINT('',(-2.487336755561,-1.448337404275));
#564 = CARTESIAN_POINT('',(-2.435529954737,-1.455631676002));
#565 = CARTESIAN_POINT('',(-2.348470634655,-1.465461863942));
#566 = CARTESIAN_POINT('',(-2.320298387351,-1.468366409626));
#567 = CARTESIAN_POINT('',(-2.290321938588,-1.471174034754));
#568 = CARTESIAN_POINT('',(-2.258411048895,-1.473873840356));
#569 = CARTESIAN_POINT('',(-2.224438311698,-1.476453400628));
#570 = CARTESIAN_POINT('',(-2.188291475471,-1.478898726852));
#571 = CARTESIAN_POINT('',(-2.149893284648,-1.481194493008));
#572 = CARTESIAN_POINT('',(-2.071105921755,-1.485321426279));
#573 = CARTESIAN_POINT('',(-2.030991158271,-1.487172670413));
#574 = CARTESIAN_POINT('',(-1.988872202811,-1.488864944232));
#575 = CARTESIAN_POINT('',(-1.944784375544,-1.490384390348));
#576 = CARTESIAN_POINT('',(-1.898828879711,-1.491716978372));
#577 = CARTESIAN_POINT('',(-1.851193698554,-1.492849507134));
#578 = CARTESIAN_POINT('',(-1.802159210246,-1.493770828366));
#579 = CARTESIAN_POINT('',(-1.705112448082,-1.495131061515));
#580 = CARTESIAN_POINT('',(-1.657227844428,-1.495596522212));
#581 = CARTESIAN_POINT('',(-1.608701312752,-1.495862629607));
#582 = CARTESIAN_POINT('',(-1.559867828579,-1.495925062681));
#583 = CARTESIAN_POINT('',(-1.511095908857,-1.495782612936));
#584 = CARTESIAN_POINT('',(-1.462749925313,-1.495437398241));
#585 = CARTESIAN_POINT('',(-1.415153636948,-1.494894532721));
#586 = CARTESIAN_POINT('',(-1.281245743187,-1.492786464949));
#587 = CARTESIAN_POINT('',(-1.19749938963,-1.490742367468));
#588 = CARTESIAN_POINT('',(-1.119113522101,-1.488076917258));
#589 = CARTESIAN_POINT('',(-1.047210723423,-1.48486580682));
#590 = CARTESIAN_POINT('',(-0.981817317313,-1.481193778867));
#591 = CARTESIAN_POINT('',(-0.922573779461,-1.47713195819));
#592 = CARTESIAN_POINT('',(-0.868951951334,-1.472741820574));
#593 = CARTESIAN_POINT('',(-0.777886668874,-1.463989221755));
#594 = CARTESIAN_POINT('',(-0.739258878681,-1.45969190374));
#595 = CARTESIAN_POINT('',(-0.70411972093,-1.455215675908));
#596 = CARTESIAN_POINT('',(-0.672067320382,-1.450588171282));
#597 = CARTESIAN_POINT('',(-0.64273773247,-1.445831546227));
#598 = CARTESIAN_POINT('',(-0.615815691126,-1.440963684656));
#599 = CARTESIAN_POINT('',(-0.591025550003,-1.435999334709));
#600 = CARTESIAN_POINT('',(-0.528065425709,-1.422115475116));
#601 = CARTESIAN_POINT('',(-0.493805058864,-1.413022055707));
#602 = CARTESIAN_POINT('',(-0.464079090589,-1.403735623401));
#603 = CARTESIAN_POINT('',(-0.437977794907,-1.394297835138));
#604 = CARTESIAN_POINT('',(-0.414839988229,-1.384737982959));
#605 = CARTESIAN_POINT('',(-0.394167540428,-1.375077972383));
#606 = CARTESIAN_POINT('',(-0.375569674114,-1.365334232971));
#607 = CARTESIAN_POINT('',(-0.333495062334,-1.340797941072));
#608 = CARTESIAN_POINT('',(-0.312227994854,-1.325916905283));
#609 = CARTESIAN_POINT('',(-0.293901177811,-1.310920163193));
#610 = CARTESIAN_POINT('',(-0.277886130707,-1.295832966284));
#611 = CARTESIAN_POINT('',(-0.263732025713,-1.280673476229));
#612 = CARTESIAN_POINT('',(-0.251112764154,-1.265454563026));
#613 = CARTESIAN_POINT('',(-0.239777747958,-1.250186130268));
#614 = CARTESIAN_POINT('',(-0.219286723644,-1.219565488209));
#615 = CARTESIAN_POINT('',(-0.210130676832,-1.204213281265));
#616 = CARTESIAN_POINT('',(-0.201869276878,-1.188826828597));
#617 = CARTESIAN_POINT('',(-0.194362069177,-1.173411592103));
#618 = CARTESIAN_POINT('',(-0.187500903266,-1.157971761025));
#619 = CARTESIAN_POINT('',(-0.181199358704,-1.142510675842));
#620 = CARTESIAN_POINT('',(-0.175387866816,-1.127031017061));
#621 = CARTESIAN_POINT('',(-0.170008738506,-1.111535005506));
#622 = ( GEOMETRIC_REPRESENTATION_CONTEXT(2) 
PARAMETRIC_REPRESENTATION_CONTEXT() REPRESENTATION_CONTEXT('2D SPACE',''
  ) );
#623 = ORIENTED_EDGE('',*,*,#624,.T.);
#624 = EDGE_CURVE('',#513,#151,#625,.T.);
#625 = SURFACE_CURVE('',#626,(#639,#655),.PCURVE_S1.);
#626 = B_SPLINE_CURVE_WITH_KNOTS('',6,(#627,#628,#629,#630,#631,#632,
    #633,#634,#635,#636,#637,#638),.UNSPECIFIED.,.F.,.F.,(7,5,7),(0.,
    0.586009105014,1.),.UNSPECIFIED.);
#627 = CARTESIAN_POINT('',(3.495162906432,0.6,0.104394491826));
#628 = CARTESIAN_POINT('',(3.522958687948,0.6,9.084683846877E-02));
#629 = CARTESIAN_POINT('',(3.547696885938,0.6,7.120767652596E-02));
#630 = CARTESIAN_POINT('',(3.567656762592,0.6,4.631107925703E-02));
#631 = CARTESIAN_POINT('',(3.581442122233,0.6,1.762878869103E-02));
#632 = CARTESIAN_POINT('',(3.588331815035,0.6,-1.294718611563E-02));
#633 = CARTESIAN_POINT('',(3.588328225837,0.6,-6.511744937651E-02));
#634 = CARTESIAN_POINT('',(3.584887109593,0.6,-8.671581998396E-02));
#635 = CARTESIAN_POINT('',(3.578005991533,0.6,-0.107646681092));
#636 = CARTESIAN_POINT('',(3.567862881835,0.6,-0.127243590176));
#637 = CARTESIAN_POINT('',(3.554808993043,0.6,-0.144911890548));
#638 = CARTESIAN_POINT('',(3.539322176854,0.6,-0.160180858097));
#639 = PCURVE('',#170,#640);
#640 = DEFINITIONAL_REPRESENTATION('',(#641),#654);
#641 = B_SPLINE_CURVE_WITH_KNOTS('',6,(#642,#643,#644,#645,#646,#647,
    #648,#649,#650,#651,#652,#653),.UNSPECIFIED.,.F.,.F.,(7,5,7),(0.,
    0.586009105014,1.),.UNSPECIFIED.);
#642 = CARTESIAN_POINT('',(0.254837093568,-0.828958495623));
#643 = CARTESIAN_POINT('',(0.227041312052,-0.84250614898));
#644 = CARTESIAN_POINT('',(0.202303114062,-0.862145310923));
#645 = CARTESIAN_POINT('',(0.182343237408,-0.887041908192));
#646 = CARTESIAN_POINT('',(0.168557877767,-0.915724198758));
#647 = CARTESIAN_POINT('',(0.161668184965,-0.946300173564));
#648 = CARTESIAN_POINT('',(0.161671774163,-0.998470436825));
#649 = CARTESIAN_POINT('',(0.165112890407,-1.020068807433));
#650 = CARTESIAN_POINT('',(0.171994008467,-1.040999668541));
#651 = CARTESIAN_POINT('',(0.182137118165,-1.060596577624));
#652 = CARTESIAN_POINT('',(0.195191006957,-1.078264877997));
#653 = CARTESIAN_POINT('',(0.210677823146,-1.093533845546));
#654 = ( GEOMETRIC_REPRESENTATION_CONTEXT(2) 
PARAMETRIC_REPRESENTATION_CONTEXT() REPRESENTATION_CONTEXT('2D SPACE',''
  ) );
#655 = PCURVE('',#199,#656);
#656 = DEFINITIONAL_REPRESENTATION('',(#657),#670);
#657 = B_SPLINE_CURVE_WITH_KNOTS('',6,(#658,#659,#660,#661,#662,#663,
    #664,#665,#666,#667,#668,#669),.UNSPECIFIED.,.F.,.F.,(7,5,7),(0.,
    0.586009105014,1.),.UNSPECIFIED.);
#658 = CARTESIAN_POINT('',(-0.170008738506,5.171650301674));
#659 = CARTESIAN_POINT('',(-0.168682621158,5.356873776335));
#660 = CARTESIAN_POINT('',(-0.167526928079,5.54213297841));
#661 = CARTESIAN_POINT('',(-0.166613028959,5.727387644798));
#662 = CARTESIAN_POINT('',(-0.165988278723,5.912659791345));
#663 = CARTESIAN_POINT('',(-0.16567593402,6.097966803201));
#664 = CARTESIAN_POINT('',(-0.165676096721,6.414150217631));
#665 = CARTESIAN_POINT('',(-0.165832086377,6.545050920694));
#666 = CARTESIAN_POINT('',(-0.166144002382,6.675943996333));
#667 = CARTESIAN_POINT('',(-0.166606000343,6.806830708303));
#668 = CARTESIAN_POINT('',(-0.16720642155,6.937713282746));
#669 = CARTESIAN_POINT('',(-0.167927476324,7.068583470577));
#670 = ( GEOMETRIC_REPRESENTATION_CONTEXT(2) 
PARAMETRIC_REPRESENTATION_CONTEXT() REPRESENTATION_CONTEXT('2D SPACE',''
  ) );
#671 = ADVANCED_FACE('',(#672),#255,.T.);
#672 = FACE_BOUND('',#673,.T.);
#673 = EDGE_LOOP('',(#674,#675,#696,#697,#698));
#674 = ORIENTED_EDGE('',*,*,#238,.F.);
#675 = ORIENTED_EDGE('',*,*,#676,.T.);
#676 = EDGE_CURVE('',#239,#333,#677,.T.);
#677 = SURFACE_CURVE('',#678,(#682,#689),.PCURVE_S1.);
#678 = LINE('',#679,#680);
#679 = CARTESIAN_POINT('',(-3.75,-0.6,-0.666647012551));
#680 = VECTOR('',#681,1.);
#681 = DIRECTION('',(1.,0.,0.));
#682 = PCURVE('',#255,#683);
#683 = DEFINITIONAL_REPRESENTATION('',(#684),#688);
#684 = LINE('',#685,#686);
#685 = CARTESIAN_POINT('',(-3.75,-0.6));
#686 = VECTOR('',#687,1.);
#687 = DIRECTION('',(1.,0.));
#688 = ( GEOMETRIC_REPRESENTATION_CONTEXT(2) 
PARAMETRIC_REPRESENTATION_CONTEXT() REPRESENTATION_CONTEXT('2D SPACE',''
  ) );
#689 = PCURVE('',#291,#690);
#690 = DEFINITIONAL_REPRESENTATION('',(#691),#695);
#691 = LINE('',#692,#693);
#692 = CARTESIAN_POINT('',(0.,-1.6));
#693 = VECTOR('',#694,1.);
#694 = DIRECTION('',(1.,0.));
#695 = ( GEOMETRIC_REPRESENTATION_CONTEXT(2) 
PARAMETRIC_REPRESENTATION_CONTEXT() REPRESENTATION_CONTEXT('2D SPACE',''
  ) );
#696 = ORIENTED_EDGE('',*,*,#359,.F.);
#697 = ORIENTED_EDGE('',*,*,#410,.F.);
#698 = ORIENTED_EDGE('',*,*,#440,.T.);
#699 = ADVANCED_FACE('',(#700),#291,.F.);
#700 = FACE_BOUND('',#701,.F.);
#701 = EDGE_LOOP('',(#702,#703,#704,#705,#755,#867));
#702 = ORIENTED_EDGE('',*,*,#271,.F.);
#703 = ORIENTED_EDGE('',*,*,#676,.T.);
#704 = ORIENTED_EDGE('',*,*,#332,.F.);
#705 = ORIENTED_EDGE('',*,*,#706,.F.);
#706 = EDGE_CURVE('',#707,#304,#709,.T.);
#707 = VERTEX_POINT('',#708);
#708 = CARTESIAN_POINT('',(3.495162906432,-0.6,0.104394491826));
#709 = SURFACE_CURVE('',#710,(#723,#739),.PCURVE_S1.);
#710 = B_SPLINE_CURVE_WITH_KNOTS('',6,(#711,#712,#713,#714,#715,#716,
    #717,#718,#719,#720,#721,#722),.UNSPECIFIED.,.F.,.F.,(7,5,7),(0.,
    0.586009105014,1.),.UNSPECIFIED.);
#711 = CARTESIAN_POINT('',(3.495162906432,-0.6,0.104394491826));
#712 = CARTESIAN_POINT('',(3.522958687948,-0.6,9.084683846877E-02));
#713 = CARTESIAN_POINT('',(3.547696885938,-0.6,7.120767652598E-02));
#714 = CARTESIAN_POINT('',(3.567656762592,-0.6,4.631107925699E-02));
#715 = CARTESIAN_POINT('',(3.581442122233,-0.6,1.762878869107E-02));
#716 = CARTESIAN_POINT('',(3.588331815035,-0.6,-1.294718611564E-02));
#717 = CARTESIAN_POINT('',(3.588328225837,-0.6,-6.511744937652E-02));
#718 = CARTESIAN_POINT('',(3.584887109593,-0.6,-8.671581998394E-02));
#719 = CARTESIAN_POINT('',(3.578005991533,-0.6,-0.107646681092));
#720 = CARTESIAN_POINT('',(3.567862881835,-0.6,-0.127243590176));
#721 = CARTESIAN_POINT('',(3.554808993043,-0.6,-0.144911890548));
#722 = CARTESIAN_POINT('',(3.539322176854,-0.6,-0.160180858097));
#723 = PCURVE('',#291,#724);
#724 = DEFINITIONAL_REPRESENTATION('',(#725),#738);
#725 = B_SPLINE_CURVE_WITH_KNOTS('',6,(#726,#727,#728,#729,#730,#731,
    #732,#733,#734,#735,#736,#737),.UNSPECIFIED.,.F.,.F.,(7,5,7),(0.,
    0.586009105014,1.),.UNSPECIFIED.);
#726 = CARTESIAN_POINT('',(7.245162906432,-0.828958495623));
#727 = CARTESIAN_POINT('',(7.272958687948,-0.84250614898));
#728 = CARTESIAN_POINT('',(7.297696885938,-0.862145310923));
#729 = CARTESIAN_POINT('',(7.317656762592,-0.887041908192));
#730 = CARTESIAN_POINT('',(7.331442122233,-0.915724198758));
#731 = CARTESIAN_POINT('',(7.338331815035,-0.946300173564));
#732 = CARTESIAN_POINT('',(7.338328225837,-0.998470436825));
#733 = CARTESIAN_POINT('',(7.334887109593,-1.020068807433));
#734 = CARTESIAN_POINT('',(7.328005991533,-1.040999668541));
#735 = CARTESIAN_POINT('',(7.317862881835,-1.060596577624));
#736 = CARTESIAN_POINT('',(7.304808993043,-1.078264877997));
#737 = CARTESIAN_POINT('',(7.289322176854,-1.093533845546));
#738 = ( GEOMETRIC_REPRESENTATION_CONTEXT(2) 
PARAMETRIC_REPRESENTATION_CONTEXT() REPRESENTATION_CONTEXT('2D SPACE',''
  ) );
#739 = PCURVE('',#320,#740);
#740 = DEFINITIONAL_REPRESENTATION('',(#741),#754);
#741 = B_SPLINE_CURVE_WITH_KNOTS('',6,(#742,#743,#744,#745,#746,#747,
    #748,#749,#750,#751,#752,#753),.UNSPECIFIED.,.F.,.F.,(7,5,7),(0.,
    0.586009105014,1.),.UNSPECIFIED.);
#742 = CARTESIAN_POINT('',(-6.113176568674,5.171650301674));
#743 = CARTESIAN_POINT('',(-6.114502686022,5.356873776335));
#744 = CARTESIAN_POINT('',(-6.115658379101,5.54213297841));
#745 = CARTESIAN_POINT('',(-6.116572278221,5.727387644798));
#746 = CARTESIAN_POINT('',(-6.117197028457,5.912659791344));
#747 = CARTESIAN_POINT('',(-6.117509373159,6.097966803201));
#748 = CARTESIAN_POINT('',(-6.117509210459,6.414150217631));
#749 = CARTESIAN_POINT('',(-6.117353220803,6.545050920693));
#750 = CARTESIAN_POINT('',(-6.117041304797,6.675943996333));
#751 = CARTESIAN_POINT('',(-6.116579306837,6.806830708303));
#752 = CARTESIAN_POINT('',(-6.115978885629,6.937713282746));
#753 = CARTESIAN_POINT('',(-6.115257830856,7.068583470577));
#754 = ( GEOMETRIC_REPRESENTATION_CONTEXT(2) 
PARAMETRIC_REPRESENTATION_CONTEXT() REPRESENTATION_CONTEXT('2D SPACE',''
  ) );
#755 = ORIENTED_EDGE('',*,*,#756,.T.);
#756 = EDGE_CURVE('',#707,#757,#759,.T.);
#757 = VERTEX_POINT('',#758);
#758 = CARTESIAN_POINT('',(-3.495162906432,-0.6,0.104394491826));
#759 = SURFACE_CURVE('',#760,(#765,#772),.PCURVE_S1.);
#760 = CIRCLE('',#761,7.977468270072);
#761 = AXIS2_PLACEMENT_3D('',#762,#763,#764);
#762 = CARTESIAN_POINT('',(-1.7763568394E-15,-0.6,-7.066647012551));
#763 = DIRECTION('',(0.,-1.,0.));
#764 = DIRECTION('',(0.,-0.,-1.));
#765 = PCURVE('',#291,#766);
#766 = DEFINITIONAL_REPRESENTATION('',(#767),#771);
#767 = CIRCLE('',#768,7.977468270072);
#768 = AXIS2_PLACEMENT_2D('',#769,#770);
#769 = CARTESIAN_POINT('',(3.75,-8.));
#770 = DIRECTION('',(0.,-1.));
#771 = ( GEOMETRIC_REPRESENTATION_CONTEXT(2) 
PARAMETRIC_REPRESENTATION_CONTEXT() REPRESENTATION_CONTEXT('2D SPACE',''
  ) );
#772 = PCURVE('',#773,#778);
#773 = SPHERICAL_SURFACE('',#774,8.);
#774 = AXIS2_PLACEMENT_3D('',#775,#776,#777);
#775 = CARTESIAN_POINT('',(-1.7763568394E-15,0.,-7.066647012551));
#776 = DIRECTION('',(-0.,-0.,-1.));
#777 = DIRECTION('',(1.,0.,-0.));
#778 = DEFINITIONAL_REPRESENTATION('',(#779),#866);
#779 = B_SPLINE_CURVE_WITH_KNOTS('',8,(#780,#781,#782,#783,#784,#785,
    #786,#787,#788,#789,#790,#791,#792,#793,#794,#795,#796,#797,#798,
    #799,#800,#801,#802,#803,#804,#805,#806,#807,#808,#809,#810,#811,
    #812,#813,#814,#815,#816,#817,#818,#819,#820,#821,#822,#823,#824,
    #825,#826,#827,#828,#829,#830,#831,#832,#833,#834,#835,#836,#837,
    #838,#839,#840,#841,#842,#843,#844,#845,#846,#847,#848,#849,#850,
    #851,#852,#853,#854,#855,#856,#857,#858,#859,#860,#861,#862,#863,
    #864,#865),.UNSPECIFIED.,.F.,.F.,(9,7,7,7,7,7,7,7,7,7,7,7,9),(
    2.688076065353,2.801455212412,2.900661966089,2.987467875556,
    3.06342304634,3.096653433558,3.127806921575,3.15701331659,
    3.211775307245,3.259692049068,3.343546347258,3.469327794542,
    3.595109241827),.UNSPECIFIED.);
#780 = CARTESIAN_POINT('',(-6.113176568674,-1.111535005506));
#781 = CARTESIAN_POINT('',(-6.108327833086,-1.125503079581));
#782 = CARTESIAN_POINT('',(-6.103127726659,-1.139457863855));
#783 = CARTESIAN_POINT('',(-6.097534329391,-1.153397745906));
#784 = CARTESIAN_POINT('',(-6.091496953856,-1.167320770469));
#785 = CARTESIAN_POINT('',(-6.084955038009,-1.181224599096));
#786 = CARTESIAN_POINT('',(-6.07783430103,-1.195106357269));
#787 = CARTESIAN_POINT('',(-6.070040162191,-1.208962368979));
#788 = CARTESIAN_POINT('',(-6.053930650761,-1.234885012344));
#789 = CARTESIAN_POINT('',(-6.045802181584,-1.246958815042));
#790 = CARTESIAN_POINT('',(-6.036979465013,-1.259005918189));
#791 = CARTESIAN_POINT('',(-6.027361438501,-1.271022359428));
#792 = CARTESIAN_POINT('',(-6.016822356546,-1.283003175228));
#793 = CARTESIAN_POINT('',(-6.005204391842,-1.294942108693));
#794 = CARTESIAN_POINT('',(-5.992302109188,-1.30683095146));
#795 = CARTESIAN_POINT('',(-5.965168616671,-1.32900692707));
#796 = CARTESIAN_POINT('',(-5.951305127758,-1.339308513526));
#797 = CARTESIAN_POINT('',(-5.936049533059,-1.349555119058));
#798 = CARTESIAN_POINT('',(-5.919164804768,-1.359737075749));
#799 = CARTESIAN_POINT('',(-5.900348690516,-1.369841776913));
#800 = CARTESIAN_POINT('',(-5.879209950307,-1.379852780447));
#801 = CARTESIAN_POINT('',(-5.855220710767,-1.389747458131));
#802 = CARTESIAN_POINT('',(-5.803480078508,-1.40801769384));
#803 = CARTESIAN_POINT('',(-5.776573935921,-1.416428539048));
#804 = CARTESIAN_POINT('',(-5.746399820418,-1.424701124904));
#805 = CARTESIAN_POINT('',(-5.712324156189,-1.432805801743));
#806 = CARTESIAN_POINT('',(-5.673511655717,-1.440702433749));
#807 = CARTESIAN_POINT('',(-5.628929409148,-1.448337404278));
#808 = CARTESIAN_POINT('',(-5.577122608326,-1.455631676002));
#809 = CARTESIAN_POINT('',(-5.490063288245,-1.465461863942));
#810 = CARTESIAN_POINT('',(-5.461891040941,-1.468366409626));
#811 = CARTESIAN_POINT('',(-5.431914592178,-1.471174034754));
#812 = CARTESIAN_POINT('',(-5.400003702485,-1.473873840356));
#813 = CARTESIAN_POINT('',(-5.366030965288,-1.476453400628));
#814 = CARTESIAN_POINT('',(-5.329884129061,-1.478898726852));
#815 = CARTESIAN_POINT('',(-5.291485938238,-1.481194493008));
#816 = CARTESIAN_POINT('',(-5.212698575345,-1.485321426279));
#817 = CARTESIAN_POINT('',(-5.172583811861,-1.487172670413));
#818 = CARTESIAN_POINT('',(-5.130464856401,-1.488864944232));
#819 = CARTESIAN_POINT('',(-5.086377029133,-1.490384390348));
#820 = CARTESIAN_POINT('',(-5.040421533301,-1.491716978372));
#821 = CARTESIAN_POINT('',(-4.992786352144,-1.492849507134));
#822 = CARTESIAN_POINT('',(-4.943751863836,-1.493770828366));
#823 = CARTESIAN_POINT('',(-4.846705101671,-1.495131061515));
#824 = CARTESIAN_POINT('',(-4.798820498018,-1.495596522213));
#825 = CARTESIAN_POINT('',(-4.750293966341,-1.495862629606));
#826 = CARTESIAN_POINT('',(-4.701460482168,-1.495925062681));
#827 = CARTESIAN_POINT('',(-4.652688562447,-1.495782612937));
#828 = CARTESIAN_POINT('',(-4.604342578903,-1.495437398241));
#829 = CARTESIAN_POINT('',(-4.556746290538,-1.494894532721));
#830 = CARTESIAN_POINT('',(-4.422838396777,-1.492786464949));
#831 = CARTESIAN_POINT('',(-4.339092043217,-1.490742367468));
#832 = CARTESIAN_POINT('',(-4.260706175683,-1.488076917254));
#833 = CARTESIAN_POINT('',(-4.188803377005,-1.484865806829));
#834 = CARTESIAN_POINT('',(-4.123409970909,-1.481193778862));
#835 = CARTESIAN_POINT('',(-4.06416643305,-1.47713195819));
#836 = CARTESIAN_POINT('',(-4.010544604924,-1.472741820574));
#837 = CARTESIAN_POINT('',(-3.919479322464,-1.463989221755));
#838 = CARTESIAN_POINT('',(-3.880851532271,-1.45969190374));
#839 = CARTESIAN_POINT('',(-3.845712374519,-1.455215675908));
#840 = CARTESIAN_POINT('',(-3.813659973972,-1.450588171283));
#841 = CARTESIAN_POINT('',(-3.78433038606,-1.445831546227));
#842 = CARTESIAN_POINT('',(-3.757408344715,-1.440963684656));
#843 = CARTESIAN_POINT('',(-3.732618203593,-1.435999334709));
#844 = CARTESIAN_POINT('',(-3.669658079299,-1.422115475116));
#845 = CARTESIAN_POINT('',(-3.635397712454,-1.413022055707));
#846 = CARTESIAN_POINT('',(-3.605671744179,-1.403735623401));
#847 = CARTESIAN_POINT('',(-3.579570448496,-1.394297835138));
#848 = CARTESIAN_POINT('',(-3.556432641819,-1.384737982959));
#849 = CARTESIAN_POINT('',(-3.535760194017,-1.375077972383));
#850 = CARTESIAN_POINT('',(-3.517162327704,-1.365334232971));
#851 = CARTESIAN_POINT('',(-3.475087715924,-1.340797941072));
#852 = CARTESIAN_POINT('',(-3.453820648445,-1.325916905284));
#853 = CARTESIAN_POINT('',(-3.43549383139,-1.310920163187));
#854 = CARTESIAN_POINT('',(-3.419478784321,-1.295832966285));
#855 = CARTESIAN_POINT('',(-3.405324679292,-1.280673476223));
#856 = CARTESIAN_POINT('',(-3.392705417747,-1.265454563027));
#857 = CARTESIAN_POINT('',(-3.381370401548,-1.250186130268));
#858 = CARTESIAN_POINT('',(-3.360879377233,-1.219565488209));
#859 = CARTESIAN_POINT('',(-3.351723330422,-1.204213281265));
#860 = CARTESIAN_POINT('',(-3.343461930467,-1.188826828596));
#861 = CARTESIAN_POINT('',(-3.335954722767,-1.173411592103));
#862 = CARTESIAN_POINT('',(-3.329093556856,-1.157971761025));
#863 = CARTESIAN_POINT('',(-3.322792012294,-1.142510675842));
#864 = CARTESIAN_POINT('',(-3.316980520406,-1.127031017061));
#865 = CARTESIAN_POINT('',(-3.311601392095,-1.111535005506));
#866 = ( GEOMETRIC_REPRESENTATION_CONTEXT(2) 
PARAMETRIC_REPRESENTATION_CONTEXT() REPRESENTATION_CONTEXT('2D SPACE',''
  ) );
#867 = ORIENTED_EDGE('',*,*,#868,.T.);
#868 = EDGE_CURVE('',#757,#272,#869,.T.);
#869 = SURFACE_CURVE('',#870,(#883,#899),.PCURVE_S1.);
#870 = B_SPLINE_CURVE_WITH_KNOTS('',6,(#871,#872,#873,#874,#875,#876,
    #877,#878,#879,#880,#881,#882),.UNSPECIFIED.,.F.,.F.,(7,5,7),(0.,
    0.586009105015,1.),.UNSPECIFIED.);
#871 = CARTESIAN_POINT('',(-3.495162906432,-0.6,0.104394491826));
#872 = CARTESIAN_POINT('',(-3.522958687948,-0.6,9.084683846877E-02));
#873 = CARTESIAN_POINT('',(-3.547696885938,-0.6,7.120767652595E-02));
#874 = CARTESIAN_POINT('',(-3.567656762592,-0.6,4.631107925704E-02));
#875 = CARTESIAN_POINT('',(-3.581442122233,-0.6,1.762878869103E-02));
#876 = CARTESIAN_POINT('',(-3.588331815035,-0.6,-1.294718611563E-02));
#877 = CARTESIAN_POINT('',(-3.588328225837,-0.6,-6.511744937648E-02));
#878 = CARTESIAN_POINT('',(-3.584887109593,-0.6,-8.671581998405E-02));
#879 = CARTESIAN_POINT('',(-3.578005991533,-0.6,-0.107646681092));
#880 = CARTESIAN_POINT('',(-3.567862881835,-0.6,-0.127243590176));
#881 = CARTESIAN_POINT('',(-3.554808993043,-0.6,-0.144911890548));
#882 = CARTESIAN_POINT('',(-3.539322176854,-0.6,-0.160180858097));
#883 = PCURVE('',#291,#884);
#884 = DEFINITIONAL_REPRESENTATION('',(#885),#898);
#885 = B_SPLINE_CURVE_WITH_KNOTS('',6,(#886,#887,#888,#889,#890,#891,
    #892,#893,#894,#895,#896,#897),.UNSPECIFIED.,.F.,.F.,(7,5,7),(0.,
    0.586009105015,1.),.UNSPECIFIED.);
#886 = CARTESIAN_POINT('',(0.254837093568,-0.828958495623));
#887 = CARTESIAN_POINT('',(0.227041312052,-0.84250614898));
#888 = CARTESIAN_POINT('',(0.202303114062,-0.862145310923));
#889 = CARTESIAN_POINT('',(0.182343237408,-0.887041908192));
#890 = CARTESIAN_POINT('',(0.168557877767,-0.915724198758));
#891 = CARTESIAN_POINT('',(0.161668184965,-0.946300173564));
#892 = CARTESIAN_POINT('',(0.161671774163,-0.998470436825));
#893 = CARTESIAN_POINT('',(0.165112890407,-1.020068807433));
#894 = CARTESIAN_POINT('',(0.171994008467,-1.04099966854));
#895 = CARTESIAN_POINT('',(0.182137118165,-1.060596577624));
#896 = CARTESIAN_POINT('',(0.195191006957,-1.078264877997));
#897 = CARTESIAN_POINT('',(0.210677823146,-1.093533845546));
#898 = ( GEOMETRIC_REPRESENTATION_CONTEXT(2) 
PARAMETRIC_REPRESENTATION_CONTEXT() REPRESENTATION_CONTEXT('2D SPACE',''
  ) );
#899 = PCURVE('',#320,#900);
#900 = DEFINITIONAL_REPRESENTATION('',(#901),#914);
#901 = B_SPLINE_CURVE_WITH_KNOTS('',6,(#902,#903,#904,#905,#906,#907,
    #908,#909,#910,#911,#912,#913),.UNSPECIFIED.,.F.,.F.,(7,5,7),(0.,
    0.586009105015,1.),.UNSPECIFIED.);
#902 = CARTESIAN_POINT('',(-3.311601392095,5.171650301674));
#903 = CARTESIAN_POINT('',(-3.310275274747,5.356873776335));
#904 = CARTESIAN_POINT('',(-3.309119581669,5.54213297841));
#905 = CARTESIAN_POINT('',(-3.308205682549,5.727387644798));
#906 = CARTESIAN_POINT('',(-3.307580932312,5.912659791345));
#907 = CARTESIAN_POINT('',(-3.30726858761,6.097966803201));
#908 = CARTESIAN_POINT('',(-3.30726875031,6.414150217631));
#909 = CARTESIAN_POINT('',(-3.307424739967,6.545050920694));
#910 = CARTESIAN_POINT('',(-3.307736655972,6.675943996332));
#911 = CARTESIAN_POINT('',(-3.308198653933,6.806830708303));
#912 = CARTESIAN_POINT('',(-3.30879907514,6.937713282746));
#913 = CARTESIAN_POINT('',(-3.309520129913,7.068583470577));
#914 = ( GEOMETRIC_REPRESENTATION_CONTEXT(2) 
PARAMETRIC_REPRESENTATION_CONTEXT() REPRESENTATION_CONTEXT('2D SPACE',''
  ) );
#915 = ADVANCED_FACE('',(#916),#320,.T.);
#916 = FACE_BOUND('',#917,.F.);
#917 = EDGE_LOOP('',(#918,#940,#941,#942));
#918 = ORIENTED_EDGE('',*,*,#919,.T.);
#919 = EDGE_CURVE('',#757,#707,#920,.T.);
#920 = SURFACE_CURVE('',#921,(#926,#933),.PCURVE_S1.);
#921 = CIRCLE('',#922,3.546288728022);
#922 = AXIS2_PLACEMENT_3D('',#923,#924,#925);
#923 = CARTESIAN_POINT('',(0.,0.,0.104394491826));
#924 = DIRECTION('',(0.,0.,1.));
#925 = DIRECTION('',(1.,0.,-0.));
#926 = PCURVE('',#320,#927);
#927 = DEFINITIONAL_REPRESENTATION('',(#928),#932);
#928 = LINE('',#929,#930);
#929 = CARTESIAN_POINT('',(-0.,5.171650301674));
#930 = VECTOR('',#931,1.);
#931 = DIRECTION('',(-1.,0.));
#932 = ( GEOMETRIC_REPRESENTATION_CONTEXT(2) 
PARAMETRIC_REPRESENTATION_CONTEXT() REPRESENTATION_CONTEXT('2D SPACE',''
  ) );
#933 = PCURVE('',#773,#934);
#934 = DEFINITIONAL_REPRESENTATION('',(#935),#939);
#935 = LINE('',#936,#937);
#936 = CARTESIAN_POINT('',(-0.,-1.111535005506));
#937 = VECTOR('',#938,1.);
#938 = DIRECTION('',(-1.,0.));
#939 = ( GEOMETRIC_REPRESENTATION_CONTEXT(2) 
PARAMETRIC_REPRESENTATION_CONTEXT() REPRESENTATION_CONTEXT('2D SPACE',''
  ) );
#940 = ORIENTED_EDGE('',*,*,#706,.T.);
#941 = ORIENTED_EDGE('',*,*,#303,.F.);
#942 = ORIENTED_EDGE('',*,*,#868,.F.);
#943 = ADVANCED_FACE('',(#944),#199,.T.);
#944 = FACE_BOUND('',#945,.F.);
#945 = EDGE_LOOP('',(#946,#947,#969,#970));
#946 = ORIENTED_EDGE('',*,*,#624,.F.);
#947 = ORIENTED_EDGE('',*,*,#948,.T.);
#948 = EDGE_CURVE('',#513,#463,#949,.T.);
#949 = SURFACE_CURVE('',#950,(#955,#962),.PCURVE_S1.);
#950 = CIRCLE('',#951,3.546288728022);
#951 = AXIS2_PLACEMENT_3D('',#952,#953,#954);
#952 = CARTESIAN_POINT('',(0.,0.,0.104394491826));
#953 = DIRECTION('',(0.,0.,1.));
#954 = DIRECTION('',(1.,0.,-0.));
#955 = PCURVE('',#199,#956);
#956 = DEFINITIONAL_REPRESENTATION('',(#957),#961);
#957 = LINE('',#958,#959);
#958 = CARTESIAN_POINT('',(-0.,5.171650301674));
#959 = VECTOR('',#960,1.);
#960 = DIRECTION('',(-1.,0.));
#961 = ( GEOMETRIC_REPRESENTATION_CONTEXT(2) 
PARAMETRIC_REPRESENTATION_CONTEXT() REPRESENTATION_CONTEXT('2D SPACE',''
  ) );
#962 = PCURVE('',#529,#963);
#963 = DEFINITIONAL_REPRESENTATION('',(#964),#968);
#964 = LINE('',#965,#966);
#965 = CARTESIAN_POINT('',(-0.,-1.111535005506));
#966 = VECTOR('',#967,1.);
#967 = DIRECTION('',(-1.,0.));
#968 = ( GEOMETRIC_REPRESENTATION_CONTEXT(2) 
PARAMETRIC_REPRESENTATION_CONTEXT() REPRESENTATION_CONTEXT('2D SPACE',''
  ) );
#969 = ORIENTED_EDGE('',*,*,#462,.T.);
#970 = ORIENTED_EDGE('',*,*,#182,.F.);
#971 = ADVANCED_FACE('',(#972),#529,.T.);
#972 = FACE_BOUND('',#973,.F.);
#973 = EDGE_LOOP('',(#974,#975));
#974 = ORIENTED_EDGE('',*,*,#948,.F.);
#975 = ORIENTED_EDGE('',*,*,#512,.F.);
#976 = ADVANCED_FACE('',(#977),#773,.T.);
#977 = FACE_BOUND('',#978,.F.);
#978 = EDGE_LOOP('',(#979,#980));
#979 = ORIENTED_EDGE('',*,*,#756,.F.);
#980 = ORIENTED_EDGE('',*,*,#919,.F.);
#981 = ( GEOMETRIC_REPRESENTATION_CONTEXT(3) 
GLOBAL_UNCERTAINTY_ASSIGNED_CONTEXT((#985)) GLOBAL_UNIT_ASSIGNED_CONTEXT
((#982,#983,#984)) REPRESENTATION_CONTEXT('Context #1',
  '3D Context with UNIT and UNCERTAINTY') );
#982 = ( LENGTH_UNIT() NAMED_UNIT(*) SI_UNIT(.MILLI.,.METRE.) );
#983 = ( NAMED_UNIT(*) PLANE_ANGLE_UNIT() SI_UNIT($,.RADIAN.) );
#984 = ( NAMED_UNIT(*) SI_UNIT($,.STERADIAN.) SOLID_ANGLE_UNIT() );
#985 = UNCERTAINTY_MEASURE_WITH_UNIT(LENGTH_MEASURE(5.E-07),#982,
  'distance_accuracy_value','confusion accuracy');
#986 = PRODUCT_RELATED_PRODUCT_CATEGORY('part',$,(#7));
ENDSEC;
END-ISO-10303-21;
