ISO-10303-21;
HEADER;
FILE_DESCRIPTION(('Open CASCADE Model'),'2;1');
FILE_NAME('Open CASCADE Shape Model','2026-09-14T17:54:55',('Author'),(
    'Open CASCADE'),'Open CASCADE STEP processor 7.9','Open CASCADE 7.9'
  ,'Unknown');
FILE_SCHEMA(('AUTOMOTIVE_DESIGN { 1 0 10303 214 1 1 1 1 }'));
ENDSEC;
DATA;
#1 = APPLICATION_PROTOCOL_DEFINITION('international standard',
  'automotive_design',2000,#2);
#2 = APPLICATION_CONTEXT(
  'core data for automotive mechanical design processes');
#3 = SHAPE_DEFINITION_REPRESENTATION(#4,#10);
#4 = PRODUCT_DEFINITION_SHAPE('','',#5);
#5 = PRODUCT_DEFINITION('design','',#6,#9);
#6 = PRODUCT_DEFINITION_FORMATION('','',#7);
#7 = PRODUCT('Open CASCADE STEP translator 7.9 6',
  'Open CASCADE STEP translator 7.9 6','',(#8));
#8 = PRODUCT_CONTEXT('',#2,'mechanical');
#9 = PRODUCT_DEFINITION_CONTEXT('part definition',#2,'design');
#10 = ADVANCED_BREP_SHAPE_REPRESENTATION('',(#11,#15),#825);
#11 = AXIS2_PLACEMENT_3D('',#12,#13,#14);
#12 = CARTESIAN_POINT('',(0.,0.,0.));
#13 = DIRECTION('',(0.,0.,1.));
#14 = DIRECTION('',(1.,0.,-0.));
#15 = MANIFOLD_SOLID_BREP('',#16);
#16 = CLOSED_SHELL('',(#17,#85,#364,#419,#467,#611,#639,#783,#811,#815,
    #820));
#17 = ADVANCED_FACE('',(#18,#54),#31,.F.);
#18 = FACE_BOUND('',#19,.T.);
#19 = EDGE_LOOP('',(#20));
#20 = ORIENTED_EDGE('',*,*,#21,.F.);
#21 = EDGE_CURVE('',#22,#22,#24,.T.);
#22 = VERTEX_POINT('',#23);
#23 = CARTESIAN_POINT('',(3.5,0.,0.));
#24 = SURFACE_CURVE('',#25,(#30,#42),.PCURVE_S1.);
#25 = CIRCLE('',#26,3.5);
#26 = AXIS2_PLACEMENT_3D('',#27,#28,#29);
#27 = CARTESIAN_POINT('',(0.,0.,0.));
#28 = DIRECTION('',(0.,0.,1.));
#29 = DIRECTION('',(1.,0.,-0.));
#30 = PCURVE('',#31,#36);
#31 = PLANE('',#32);
#32 = AXIS2_PLACEMENT_3D('',#33,#34,#35);
#33 = CARTESIAN_POINT('',(0.,0.,0.));
#34 = DIRECTION('',(0.,0.,1.));
#35 = DIRECTION('',(1.,0.,-0.));
#36 = DEFINITIONAL_REPRESENTATION('',(#37),#41);
#37 = CIRCLE('',#38,3.5);
#38 = AXIS2_PLACEMENT_2D('',#39,#40);
#39 = CARTESIAN_POINT('',(0.,0.));
#40 = DIRECTION('',(1.,-0.));
#41 = ( GEOMETRIC_REPRESENTATION_CONTEXT(2) 
PARAMETRIC_REPRESENTATION_CONTEXT() REPRESENTATION_CONTEXT('2D SPACE',''
  ) );
#42 = PCURVE('',#43,#48);
#43 = CONICAL_SURFACE('',#44,3.5,8.726646259972E-02);
#44 = AXIS2_PLACEMENT_3D('',#45,#46,#47);
#45 = CARTESIAN_POINT('',(0.,0.,0.));
#46 = DIRECTION('',(-0.,-0.,-1.));
#47 = DIRECTION('',(1.,0.,-0.));
#48 = DEFINITIONAL_REPRESENTATION('',(#49),#53);
#49 = LINE('',#50,#51);
#50 = CARTESIAN_POINT('',(-0.,-0.));
#51 = VECTOR('',#52,1.);
#52 = DIRECTION('',(-1.,-0.));
#53 = ( GEOMETRIC_REPRESENTATION_CONTEXT(2) 
PARAMETRIC_REPRESENTATION_CONTEXT() REPRESENTATION_CONTEXT('2D SPACE',''
  ) );
#54 = FACE_BOUND('',#55,.T.);
#55 = EDGE_LOOP('',(#56));
#56 = ORIENTED_EDGE('',*,*,#57,.T.);
#57 = EDGE_CURVE('',#58,#58,#60,.T.);
#58 = VERTEX_POINT('',#59);
#59 = CARTESIAN_POINT('',(1.621113885844,0.,0.));
#60 = SURFACE_CURVE('',#61,(#66,#73),.PCURVE_S1.);
#61 = CIRCLE('',#62,1.621113885844);
#62 = AXIS2_PLACEMENT_3D('',#63,#64,#65);
#63 = CARTESIAN_POINT('',(0.,0.,0.));
#64 = DIRECTION('',(0.,0.,1.));
#65 = DIRECTION('',(1.,0.,-0.));
#66 = PCURVE('',#31,#67);
#67 = DEFINITIONAL_REPRESENTATION('',(#68),#72);
#68 = CIRCLE('',#69,1.621113885844);
#69 = AXIS2_PLACEMENT_2D('',#70,#71);
#70 = CARTESIAN_POINT('',(0.,0.));
#71 = DIRECTION('',(1.,-0.));
#72 = ( GEOMETRIC_REPRESENTATION_CONTEXT(2) 
PARAMETRIC_REPRESENTATION_CONTEXT() REPRESENTATION_CONTEXT('2D SPACE',''
  ) );
#73 = PCURVE('',#74,#79);
#74 = CYLINDRICAL_SURFACE('',#75,1.621113885844);
#75 = AXIS2_PLACEMENT_3D('',#76,#77,#78);
#76 = CARTESIAN_POINT('',(0.,0.,-16.));
#77 = DIRECTION('',(-0.,-0.,-1.));
#78 = DIRECTION('',(1.,0.,0.));
#79 = DEFINITIONAL_REPRESENTATION('',(#80),#84);
#80 = LINE('',#81,#82);
#81 = CARTESIAN_POINT('',(-0.,-16.));
#82 = VECTOR('',#83,1.);
#83 = DIRECTION('',(-1.,0.));
#84 = ( GEOMETRIC_REPRESENTATION_CONTEXT(2) 
PARAMETRIC_REPRESENTATION_CONTEXT() REPRESENTATION_CONTEXT('2D SPACE',''
  ) );
#85 = ADVANCED_FACE('',(#86),#43,.T.);
#86 = FACE_BOUND('',#87,.T.);
#87 = EDGE_LOOP('',(#88,#111,#112,#113,#142,#174,#203,#230,#254,#286,
    #315,#342));
#88 = ORIENTED_EDGE('',*,*,#89,.F.);
#89 = EDGE_CURVE('',#22,#90,#92,.T.);
#90 = VERTEX_POINT('',#91);
#91 = CARTESIAN_POINT('',(3.322800348968,0.,2.025401279327));
#92 = SEAM_CURVE('',#93,(#97,#104),.PCURVE_S1.);
#93 = LINE('',#94,#95);
#94 = CARTESIAN_POINT('',(3.5,0.,0.));
#95 = VECTOR('',#96,1.);
#96 = DIRECTION('',(-8.715574274766E-02,0.,0.996194698092));
#97 = PCURVE('',#43,#98);
#98 = DEFINITIONAL_REPRESENTATION('',(#99),#103);
#99 = LINE('',#100,#101);
#100 = CARTESIAN_POINT('',(-0.,-0.));
#101 = VECTOR('',#102,1.);
#102 = DIRECTION('',(-0.,-1.));
#103 = ( GEOMETRIC_REPRESENTATION_CONTEXT(2) 
PARAMETRIC_REPRESENTATION_CONTEXT() REPRESENTATION_CONTEXT('2D SPACE',''
  ) );
#104 = PCURVE('',#43,#105);
#105 = DEFINITIONAL_REPRESENTATION('',(#106),#110);
#106 = LINE('',#107,#108);
#107 = CARTESIAN_POINT('',(-6.28318530718,-0.));
#108 = VECTOR('',#109,1.);
#109 = DIRECTION('',(-0.,-1.));
#110 = ( GEOMETRIC_REPRESENTATION_CONTEXT(2) 
PARAMETRIC_REPRESENTATION_CONTEXT() REPRESENTATION_CONTEXT('2D SPACE',''
  ) );
#111 = ORIENTED_EDGE('',*,*,#21,.T.);
#112 = ORIENTED_EDGE('',*,*,#89,.T.);
#113 = ORIENTED_EDGE('',*,*,#114,.F.);
#114 = EDGE_CURVE('',#115,#90,#117,.T.);
#115 = VERTEX_POINT('',#116);
#116 = CARTESIAN_POINT('',(3.235888928734,-0.755,2.025401279327));
#117 = SURFACE_CURVE('',#118,(#123,#130),.PCURVE_S1.);
#118 = CIRCLE('',#119,3.322800348968);
#119 = AXIS2_PLACEMENT_3D('',#120,#121,#122);
#120 = CARTESIAN_POINT('',(0.,0.,2.025401279327));
#121 = DIRECTION('',(0.,0.,1.));
#122 = DIRECTION('',(1.,0.,-0.));
#123 = PCURVE('',#43,#124);
#124 = DEFINITIONAL_REPRESENTATION('',(#125),#129);
#125 = LINE('',#126,#127);
#126 = CARTESIAN_POINT('',(-0.,-2.025401279327));
#127 = VECTOR('',#128,1.);
#128 = DIRECTION('',(-1.,-0.));
#129 = ( GEOMETRIC_REPRESENTATION_CONTEXT(2) 
PARAMETRIC_REPRESENTATION_CONTEXT() REPRESENTATION_CONTEXT('2D SPACE',''
  ) );
#130 = PCURVE('',#131,#136);
#131 = PLANE('',#132);
#132 = AXIS2_PLACEMENT_3D('',#133,#134,#135);
#133 = CARTESIAN_POINT('',(0.,0.,2.025401279327));
#134 = DIRECTION('',(0.,0.,1.));
#135 = DIRECTION('',(1.,0.,-0.));
#136 = DEFINITIONAL_REPRESENTATION('',(#137),#141);
#137 = CIRCLE('',#138,3.322800348968);
#138 = AXIS2_PLACEMENT_2D('',#139,#140);
#139 = CARTESIAN_POINT('',(0.,0.));
#140 = DIRECTION('',(1.,0.));
#141 = ( GEOMETRIC_REPRESENTATION_CONTEXT(2) 
PARAMETRIC_REPRESENTATION_CONTEXT() REPRESENTATION_CONTEXT('2D SPACE',''
  ) );
#142 = ORIENTED_EDGE('',*,*,#143,.F.);
#143 = EDGE_CURVE('',#144,#115,#146,.T.);
#144 = VERTEX_POINT('',#145);
#145 = CARTESIAN_POINT('',(3.190355385881,-0.755,2.532052512113));
#146 = SURFACE_CURVE('',#147,(#152,#162),.PCURVE_S1.);
#147 = HYPERBOLA('',#148,8.629689488585,0.755);
#148 = AXIS2_PLACEMENT_3D('',#149,#150,#151);
#149 = CARTESIAN_POINT('',(0.,-0.755,40.005183059665));
#150 = DIRECTION('',(0.,-1.,0.));
#151 = DIRECTION('',(-0.,-0.,-1.));
#152 = PCURVE('',#43,#153);
#153 = DEFINITIONAL_REPRESENTATION('',(#154),#161);
#154 = B_SPLINE_CURVE_WITH_KNOTS('',5,(#155,#156,#157,#158,#159,#160),
  .UNSPECIFIED.,.F.,.F.,(6,6),(2.148032709301,2.164797843412),
  .PIECEWISE_BEZIER_KNOTS.);
#155 = CARTESIAN_POINT('',(-6.050809563091,-2.532052512113));
#156 = CARTESIAN_POINT('',(-6.05158173184,-2.409781274334));
#157 = CARTESIAN_POINT('',(-6.052350751197,-2.286983408437));
#158 = CARTESIAN_POINT('',(-6.053116637332,-2.163656050525));
#159 = CARTESIAN_POINT('',(-6.053879406311,-2.039796312035));
#160 = CARTESIAN_POINT('',(-6.0546390741,-1.915401279327));
#161 = ( GEOMETRIC_REPRESENTATION_CONTEXT(2) 
PARAMETRIC_REPRESENTATION_CONTEXT() REPRESENTATION_CONTEXT('2D SPACE',''
  ) );
#162 = PCURVE('',#163,#168);
#163 = PLANE('',#164);
#164 = AXIS2_PLACEMENT_3D('',#165,#166,#167);
#165 = CARTESIAN_POINT('',(-3.5,-0.755,3.125401279327));
#166 = DIRECTION('',(0.,-1.,0.));
#167 = DIRECTION('',(1.,0.,0.));
#168 = DEFINITIONAL_REPRESENTATION('',(#169),#173);
#169 = HYPERBOLA('',#170,8.629689488585,0.755);
#170 = AXIS2_PLACEMENT_2D('',#171,#172);
#171 = CARTESIAN_POINT('',(3.5,36.879781780338));
#172 = DIRECTION('',(0.,-1.));
#173 = ( GEOMETRIC_REPRESENTATION_CONTEXT(2) 
PARAMETRIC_REPRESENTATION_CONTEXT() REPRESENTATION_CONTEXT('2D SPACE',''
  ) );
#174 = ORIENTED_EDGE('',*,*,#175,.F.);
#175 = EDGE_CURVE('',#176,#144,#178,.T.);
#176 = VERTEX_POINT('',#177);
#177 = CARTESIAN_POINT('',(-3.190355385881,-0.755,2.532052512113));
#178 = SURFACE_CURVE('',#179,(#184,#191),.PCURVE_S1.);
#179 = CIRCLE('',#180,3.278474109738);
#180 = AXIS2_PLACEMENT_3D('',#181,#182,#183);
#181 = CARTESIAN_POINT('',(0.,0.,2.532052512113));
#182 = DIRECTION('',(0.,0.,1.));
#183 = DIRECTION('',(1.,0.,-0.));
#184 = PCURVE('',#43,#185);
#185 = DEFINITIONAL_REPRESENTATION('',(#186),#190);
#186 = LINE('',#187,#188);
#187 = CARTESIAN_POINT('',(-0.,-2.532052512113));
#188 = VECTOR('',#189,1.);
#189 = DIRECTION('',(-1.,-0.));
#190 = ( GEOMETRIC_REPRESENTATION_CONTEXT(2) 
PARAMETRIC_REPRESENTATION_CONTEXT() REPRESENTATION_CONTEXT('2D SPACE',''
  ) );
#191 = PCURVE('',#192,#197);
#192 = TOROIDAL_SURFACE('',#193,2.630947555978,0.65);
#193 = AXIS2_PLACEMENT_3D('',#194,#195,#196);
#194 = CARTESIAN_POINT('',(0.,0.,2.475401279327));
#195 = DIRECTION('',(0.,0.,1.));
#196 = DIRECTION('',(1.,0.,-0.));
#197 = DEFINITIONAL_REPRESENTATION('',(#198),#202);
#198 = LINE('',#199,#200);
#199 = CARTESIAN_POINT('',(0.,8.726646259972E-02));
#200 = VECTOR('',#201,1.);
#201 = DIRECTION('',(1.,0.));
#202 = ( GEOMETRIC_REPRESENTATION_CONTEXT(2) 
PARAMETRIC_REPRESENTATION_CONTEXT() REPRESENTATION_CONTEXT('2D SPACE',''
  ) );
#203 = ORIENTED_EDGE('',*,*,#204,.F.);
#204 = EDGE_CURVE('',#205,#176,#207,.T.);
#205 = VERTEX_POINT('',#206);
#206 = CARTESIAN_POINT('',(-3.235888928734,-0.755,2.025401279327));
#207 = SURFACE_CURVE('',#208,(#213,#223),.PCURVE_S1.);
#208 = HYPERBOLA('',#209,8.629689488585,0.755);
#209 = AXIS2_PLACEMENT_3D('',#210,#211,#212);
#210 = CARTESIAN_POINT('',(0.,-0.755,40.005183059665));
#211 = DIRECTION('',(0.,-1.,0.));
#212 = DIRECTION('',(-0.,-0.,-1.));
#213 = PCURVE('',#43,#214);
#214 = DEFINITIONAL_REPRESENTATION('',(#215),#222);
#215 = B_SPLINE_CURVE_WITH_KNOTS('',5,(#216,#217,#218,#219,#220,#221),
  .UNSPECIFIED.,.F.,.F.,(6,6),(-2.164797843412,-2.148032709301),
  .PIECEWISE_BEZIER_KNOTS.);
#216 = CARTESIAN_POINT('',(-3.370138886669,-1.915401279327));
#217 = CARTESIAN_POINT('',(-3.370898554459,-2.039796312035));
#218 = CARTESIAN_POINT('',(-3.371661323437,-2.163656050525));
#219 = CARTESIAN_POINT('',(-3.372427209572,-2.286983408437));
#220 = CARTESIAN_POINT('',(-3.37319622893,-2.409781274334));
#221 = CARTESIAN_POINT('',(-3.373968397678,-2.532052512113));
#222 = ( GEOMETRIC_REPRESENTATION_CONTEXT(2) 
PARAMETRIC_REPRESENTATION_CONTEXT() REPRESENTATION_CONTEXT('2D SPACE',''
  ) );
#223 = PCURVE('',#163,#224);
#224 = DEFINITIONAL_REPRESENTATION('',(#225),#229);
#225 = HYPERBOLA('',#226,8.629689488585,0.755);
#226 = AXIS2_PLACEMENT_2D('',#227,#228);
#227 = CARTESIAN_POINT('',(3.5,36.879781780338));
#228 = DIRECTION('',(0.,-1.));
#229 = ( GEOMETRIC_REPRESENTATION_CONTEXT(2) 
PARAMETRIC_REPRESENTATION_CONTEXT() REPRESENTATION_CONTEXT('2D SPACE',''
  ) );
#230 = ORIENTED_EDGE('',*,*,#231,.F.);
#231 = EDGE_CURVE('',#232,#205,#234,.T.);
#232 = VERTEX_POINT('',#233);
#233 = CARTESIAN_POINT('',(-3.235888928734,0.755,2.025401279327));
#234 = SURFACE_CURVE('',#235,(#240,#247),.PCURVE_S1.);
#235 = CIRCLE('',#236,3.322800348968);
#236 = AXIS2_PLACEMENT_3D('',#237,#238,#239);
#237 = CARTESIAN_POINT('',(0.,0.,2.025401279327));
#238 = DIRECTION('',(0.,0.,1.));
#239 = DIRECTION('',(1.,0.,-0.));
#240 = PCURVE('',#43,#241);
#241 = DEFINITIONAL_REPRESENTATION('',(#242),#246);
#242 = LINE('',#243,#244);
#243 = CARTESIAN_POINT('',(-0.,-2.025401279327));
#244 = VECTOR('',#245,1.);
#245 = DIRECTION('',(-1.,-0.));
#246 = ( GEOMETRIC_REPRESENTATION_CONTEXT(2) 
PARAMETRIC_REPRESENTATION_CONTEXT() REPRESENTATION_CONTEXT('2D SPACE',''
  ) );
#247 = PCURVE('',#131,#248);
#248 = DEFINITIONAL_REPRESENTATION('',(#249),#253);
#249 = CIRCLE('',#250,3.322800348968);
#250 = AXIS2_PLACEMENT_2D('',#251,#252);
#251 = CARTESIAN_POINT('',(0.,0.));
#252 = DIRECTION('',(1.,0.));
#253 = ( GEOMETRIC_REPRESENTATION_CONTEXT(2) 
PARAMETRIC_REPRESENTATION_CONTEXT() REPRESENTATION_CONTEXT('2D SPACE',''
  ) );
#254 = ORIENTED_EDGE('',*,*,#255,.F.);
#255 = EDGE_CURVE('',#256,#232,#258,.T.);
#256 = VERTEX_POINT('',#257);
#257 = CARTESIAN_POINT('',(-3.190355385881,0.755,2.532052512113));
#258 = SURFACE_CURVE('',#259,(#264,#274),.PCURVE_S1.);
#259 = HYPERBOLA('',#260,8.629689488585,0.755);
#260 = AXIS2_PLACEMENT_3D('',#261,#262,#263);
#261 = CARTESIAN_POINT('',(0.,0.755,40.005183059665));
#262 = DIRECTION('',(0.,1.,0.));
#263 = DIRECTION('',(0.,0.,-1.));
#264 = PCURVE('',#43,#265);
#265 = DEFINITIONAL_REPRESENTATION('',(#266),#273);
#266 = B_SPLINE_CURVE_WITH_KNOTS('',5,(#267,#268,#269,#270,#271,#272),
  .UNSPECIFIED.,.F.,.F.,(6,6),(2.148032709301,2.164797843412),
  .PIECEWISE_BEZIER_KNOTS.);
#267 = CARTESIAN_POINT('',(-2.909216909501,-2.532052512113));
#268 = CARTESIAN_POINT('',(-2.90998907825,-2.409781274334));
#269 = CARTESIAN_POINT('',(-2.910758097608,-2.286983408437));
#270 = CARTESIAN_POINT('',(-2.911523983742,-2.163656050525));
#271 = CARTESIAN_POINT('',(-2.912286752721,-2.039796312035));
#272 = CARTESIAN_POINT('',(-2.91304642051,-1.915401279327));
#273 = ( GEOMETRIC_REPRESENTATION_CONTEXT(2) 
PARAMETRIC_REPRESENTATION_CONTEXT() REPRESENTATION_CONTEXT('2D SPACE',''
  ) );
#274 = PCURVE('',#275,#280);
#275 = PLANE('',#276);
#276 = AXIS2_PLACEMENT_3D('',#277,#278,#279);
#277 = CARTESIAN_POINT('',(3.5,0.755,3.125401279327));
#278 = DIRECTION('',(0.,1.,0.));
#279 = DIRECTION('',(-1.,0.,0.));
#280 = DEFINITIONAL_REPRESENTATION('',(#281),#285);
#281 = HYPERBOLA('',#282,8.629689488585,0.755);
#282 = AXIS2_PLACEMENT_2D('',#283,#284);
#283 = CARTESIAN_POINT('',(3.5,36.879781780338));
#284 = DIRECTION('',(0.,-1.));
#285 = ( GEOMETRIC_REPRESENTATION_CONTEXT(2) 
PARAMETRIC_REPRESENTATION_CONTEXT() REPRESENTATION_CONTEXT('2D SPACE',''
  ) );
#286 = ORIENTED_EDGE('',*,*,#287,.F.);
#287 = EDGE_CURVE('',#288,#256,#290,.T.);
#288 = VERTEX_POINT('',#289);
#289 = CARTESIAN_POINT('',(3.190355385881,0.755,2.532052512113));
#290 = SURFACE_CURVE('',#291,(#296,#303),.PCURVE_S1.);
#291 = CIRCLE('',#292,3.278474109738);
#292 = AXIS2_PLACEMENT_3D('',#293,#294,#295);
#293 = CARTESIAN_POINT('',(0.,0.,2.532052512113));
#294 = DIRECTION('',(0.,0.,1.));
#295 = DIRECTION('',(1.,0.,-0.));
#296 = PCURVE('',#43,#297);
#297 = DEFINITIONAL_REPRESENTATION('',(#298),#302);
#298 = LINE('',#299,#300);
#299 = CARTESIAN_POINT('',(-0.,-2.532052512113));
#300 = VECTOR('',#301,1.);
#301 = DIRECTION('',(-1.,-0.));
#302 = ( GEOMETRIC_REPRESENTATION_CONTEXT(2) 
PARAMETRIC_REPRESENTATION_CONTEXT() REPRESENTATION_CONTEXT('2D SPACE',''
  ) );
#303 = PCURVE('',#304,#309);
#304 = TOROIDAL_SURFACE('',#305,2.630947555978,0.65);
#305 = AXIS2_PLACEMENT_3D('',#306,#307,#308);
#306 = CARTESIAN_POINT('',(0.,0.,2.475401279327));
#307 = DIRECTION('',(0.,0.,1.));
#308 = DIRECTION('',(1.,0.,-0.));
#309 = DEFINITIONAL_REPRESENTATION('',(#310),#314);
#310 = LINE('',#311,#312);
#311 = CARTESIAN_POINT('',(0.,8.726646259972E-02));
#312 = VECTOR('',#313,1.);
#313 = DIRECTION('',(1.,0.));
#314 = ( GEOMETRIC_REPRESENTATION_CONTEXT(2) 
PARAMETRIC_REPRESENTATION_CONTEXT() REPRESENTATION_CONTEXT('2D SPACE',''
  ) );
#315 = ORIENTED_EDGE('',*,*,#316,.F.);
#316 = EDGE_CURVE('',#317,#288,#319,.T.);
#317 = VERTEX_POINT('',#318);
#318 = CARTESIAN_POINT('',(3.235888928734,0.755,2.025401279327));
#319 = SURFACE_CURVE('',#320,(#325,#335),.PCURVE_S1.);
#320 = HYPERBOLA('',#321,8.629689488585,0.755);
#321 = AXIS2_PLACEMENT_3D('',#322,#323,#324);
#322 = CARTESIAN_POINT('',(0.,0.755,40.005183059665));
#323 = DIRECTION('',(0.,1.,0.));
#324 = DIRECTION('',(0.,0.,-1.));
#325 = PCURVE('',#43,#326);
#326 = DEFINITIONAL_REPRESENTATION('',(#327),#334);
#327 = B_SPLINE_CURVE_WITH_KNOTS('',5,(#328,#329,#330,#331,#332,#333),
  .UNSPECIFIED.,.F.,.F.,(6,6),(-2.164797843412,-2.148032709301),
  .PIECEWISE_BEZIER_KNOTS.);
#328 = CARTESIAN_POINT('',(-0.22854623308,-1.915401279327));
#329 = CARTESIAN_POINT('',(-0.229305900869,-2.039796312035));
#330 = CARTESIAN_POINT('',(-0.230068669848,-2.163656050525));
#331 = CARTESIAN_POINT('',(-0.230834555982,-2.286983408437));
#332 = CARTESIAN_POINT('',(-0.23160357534,-2.409781274334));
#333 = CARTESIAN_POINT('',(-0.232375744089,-2.532052512113));
#334 = ( GEOMETRIC_REPRESENTATION_CONTEXT(2) 
PARAMETRIC_REPRESENTATION_CONTEXT() REPRESENTATION_CONTEXT('2D SPACE',''
  ) );
#335 = PCURVE('',#275,#336);
#336 = DEFINITIONAL_REPRESENTATION('',(#337),#341);
#337 = HYPERBOLA('',#338,8.629689488585,0.755);
#338 = AXIS2_PLACEMENT_2D('',#339,#340);
#339 = CARTESIAN_POINT('',(3.5,36.879781780338));
#340 = DIRECTION('',(0.,-1.));
#341 = ( GEOMETRIC_REPRESENTATION_CONTEXT(2) 
PARAMETRIC_REPRESENTATION_CONTEXT() REPRESENTATION_CONTEXT('2D SPACE',''
  ) );
#342 = ORIENTED_EDGE('',*,*,#343,.F.);
#343 = EDGE_CURVE('',#90,#317,#344,.T.);
#344 = SURFACE_CURVE('',#345,(#350,#357),.PCURVE_S1.);
#345 = CIRCLE('',#346,3.322800348968);
#346 = AXIS2_PLACEMENT_3D('',#347,#348,#349);
#347 = CARTESIAN_POINT('',(0.,0.,2.025401279327));
#348 = DIRECTION('',(0.,0.,1.));
#349 = DIRECTION('',(1.,0.,-0.));
#350 = PCURVE('',#43,#351);
#351 = DEFINITIONAL_REPRESENTATION('',(#352),#356);
#352 = LINE('',#353,#354);
#353 = CARTESIAN_POINT('',(-0.,-2.025401279327));
#354 = VECTOR('',#355,1.);
#355 = DIRECTION('',(-1.,-0.));
#356 = ( GEOMETRIC_REPRESENTATION_CONTEXT(2) 
PARAMETRIC_REPRESENTATION_CONTEXT() REPRESENTATION_CONTEXT('2D SPACE',''
  ) );
#357 = PCURVE('',#131,#358);
#358 = DEFINITIONAL_REPRESENTATION('',(#359),#363);
#359 = CIRCLE('',#360,3.322800348968);
#360 = AXIS2_PLACEMENT_2D('',#361,#362);
#361 = CARTESIAN_POINT('',(0.,0.));
#362 = DIRECTION('',(1.,0.));
#363 = ( GEOMETRIC_REPRESENTATION_CONTEXT(2) 
PARAMETRIC_REPRESENTATION_CONTEXT() REPRESENTATION_CONTEXT('2D SPACE',''
  ) );
#364 = ADVANCED_FACE('',(#365),#74,.T.);
#365 = FACE_BOUND('',#366,.F.);
#366 = EDGE_LOOP('',(#367,#390,#391,#392));
#367 = ORIENTED_EDGE('',*,*,#368,.T.);
#368 = EDGE_CURVE('',#369,#58,#371,.T.);
#369 = VERTEX_POINT('',#370);
#370 = CARTESIAN_POINT('',(1.621113885844,0.,-16.));
#371 = SEAM_CURVE('',#372,(#376,#383),.PCURVE_S1.);
#372 = LINE('',#373,#374);
#373 = CARTESIAN_POINT('',(1.621113885844,0.,-16.));
#374 = VECTOR('',#375,1.);
#375 = DIRECTION('',(0.,0.,1.));
#376 = PCURVE('',#74,#377);
#377 = DEFINITIONAL_REPRESENTATION('',(#378),#382);
#378 = LINE('',#379,#380);
#379 = CARTESIAN_POINT('',(-0.,0.));
#380 = VECTOR('',#381,1.);
#381 = DIRECTION('',(-0.,-1.));
#382 = ( GEOMETRIC_REPRESENTATION_CONTEXT(2) 
PARAMETRIC_REPRESENTATION_CONTEXT() REPRESENTATION_CONTEXT('2D SPACE',''
  ) );
#383 = PCURVE('',#74,#384);
#384 = DEFINITIONAL_REPRESENTATION('',(#385),#389);
#385 = LINE('',#386,#387);
#386 = CARTESIAN_POINT('',(-6.28318530718,0.));
#387 = VECTOR('',#388,1.);
#388 = DIRECTION('',(-0.,-1.));
#389 = ( GEOMETRIC_REPRESENTATION_CONTEXT(2) 
PARAMETRIC_REPRESENTATION_CONTEXT() REPRESENTATION_CONTEXT('2D SPACE',''
  ) );
#390 = ORIENTED_EDGE('',*,*,#57,.T.);
#391 = ORIENTED_EDGE('',*,*,#368,.F.);
#392 = ORIENTED_EDGE('',*,*,#393,.F.);
#393 = EDGE_CURVE('',#369,#369,#394,.T.);
#394 = SURFACE_CURVE('',#395,(#400,#407),.PCURVE_S1.);
#395 = CIRCLE('',#396,1.621113885844);
#396 = AXIS2_PLACEMENT_3D('',#397,#398,#399);
#397 = CARTESIAN_POINT('',(0.,0.,-16.));
#398 = DIRECTION('',(0.,0.,1.));
#399 = DIRECTION('',(1.,0.,-0.));
#400 = PCURVE('',#74,#401);
#401 = DEFINITIONAL_REPRESENTATION('',(#402),#406);
#402 = LINE('',#403,#404);
#403 = CARTESIAN_POINT('',(-0.,0.));
#404 = VECTOR('',#405,1.);
#405 = DIRECTION('',(-1.,0.));
#406 = ( GEOMETRIC_REPRESENTATION_CONTEXT(2) 
PARAMETRIC_REPRESENTATION_CONTEXT() REPRESENTATION_CONTEXT('2D SPACE',''
  ) );
#407 = PCURVE('',#408,#413);
#408 = PLANE('',#409);
#409 = AXIS2_PLACEMENT_3D('',#410,#411,#412);
#410 = CARTESIAN_POINT('',(-1.054398571624E-16,3.926345945066E-17,-16.)
  );
#411 = DIRECTION('',(0.,0.,1.));
#412 = DIRECTION('',(1.,0.,-0.));
#413 = DEFINITIONAL_REPRESENTATION('',(#414),#418);
#414 = CIRCLE('',#415,1.621113885844);
#415 = AXIS2_PLACEMENT_2D('',#416,#417);
#416 = CARTESIAN_POINT('',(1.054398571624E-16,-3.926345945066E-17));
#417 = DIRECTION('',(1.,0.));
#418 = ( GEOMETRIC_REPRESENTATION_CONTEXT(2) 
PARAMETRIC_REPRESENTATION_CONTEXT() REPRESENTATION_CONTEXT('2D SPACE',''
  ) );
#419 = ADVANCED_FACE('',(#420),#131,.T.);
#420 = FACE_BOUND('',#421,.T.);
#421 = EDGE_LOOP('',(#422,#423,#444,#445,#446));
#422 = ORIENTED_EDGE('',*,*,#231,.T.);
#423 = ORIENTED_EDGE('',*,*,#424,.T.);
#424 = EDGE_CURVE('',#205,#115,#425,.T.);
#425 = SURFACE_CURVE('',#426,(#430,#437),.PCURVE_S1.);
#426 = LINE('',#427,#428);
#427 = CARTESIAN_POINT('',(-3.5,-0.755,2.025401279327));
#428 = VECTOR('',#429,1.);
#429 = DIRECTION('',(1.,0.,0.));
#430 = PCURVE('',#131,#431);
#431 = DEFINITIONAL_REPRESENTATION('',(#432),#436);
#432 = LINE('',#433,#434);
#433 = CARTESIAN_POINT('',(-3.5,-0.755));
#434 = VECTOR('',#435,1.);
#435 = DIRECTION('',(1.,0.));
#436 = ( GEOMETRIC_REPRESENTATION_CONTEXT(2) 
PARAMETRIC_REPRESENTATION_CONTEXT() REPRESENTATION_CONTEXT('2D SPACE',''
  ) );
#437 = PCURVE('',#163,#438);
#438 = DEFINITIONAL_REPRESENTATION('',(#439),#443);
#439 = LINE('',#440,#441);
#440 = CARTESIAN_POINT('',(0.,-1.1));
#441 = VECTOR('',#442,1.);
#442 = DIRECTION('',(1.,0.));
#443 = ( GEOMETRIC_REPRESENTATION_CONTEXT(2) 
PARAMETRIC_REPRESENTATION_CONTEXT() REPRESENTATION_CONTEXT('2D SPACE',''
  ) );
#444 = ORIENTED_EDGE('',*,*,#114,.T.);
#445 = ORIENTED_EDGE('',*,*,#343,.T.);
#446 = ORIENTED_EDGE('',*,*,#447,.T.);
#447 = EDGE_CURVE('',#317,#232,#448,.T.);
#448 = SURFACE_CURVE('',#449,(#453,#460),.PCURVE_S1.);
#449 = LINE('',#450,#451);
#450 = CARTESIAN_POINT('',(3.5,0.755,2.025401279327));
#451 = VECTOR('',#452,1.);
#452 = DIRECTION('',(-1.,0.,0.));
#453 = PCURVE('',#131,#454);
#454 = DEFINITIONAL_REPRESENTATION('',(#455),#459);
#455 = LINE('',#456,#457);
#456 = CARTESIAN_POINT('',(3.5,0.755));
#457 = VECTOR('',#458,1.);
#458 = DIRECTION('',(-1.,0.));
#459 = ( GEOMETRIC_REPRESENTATION_CONTEXT(2) 
PARAMETRIC_REPRESENTATION_CONTEXT() REPRESENTATION_CONTEXT('2D SPACE',''
  ) );
#460 = PCURVE('',#275,#461);
#461 = DEFINITIONAL_REPRESENTATION('',(#462),#466);
#462 = LINE('',#463,#464);
#463 = CARTESIAN_POINT('',(0.,-1.1));
#464 = VECTOR('',#465,1.);
#465 = DIRECTION('',(1.,0.));
#466 = ( GEOMETRIC_REPRESENTATION_CONTEXT(2) 
PARAMETRIC_REPRESENTATION_CONTEXT() REPRESENTATION_CONTEXT('2D SPACE',''
  ) );
#467 = ADVANCED_FACE('',(#468),#275,.F.);
#468 = FACE_BOUND('',#469,.F.);
#469 = EDGE_LOOP('',(#470,#500,#554,#555,#556,#557));
#470 = ORIENTED_EDGE('',*,*,#471,.F.);
#471 = EDGE_CURVE('',#472,#474,#476,.T.);
#472 = VERTEX_POINT('',#473);
#473 = CARTESIAN_POINT('',(2.520289674285,0.755,3.125401279327));
#474 = VERTEX_POINT('',#475);
#475 = CARTESIAN_POINT('',(-2.520289674285,0.755,3.125401279327));
#476 = SURFACE_CURVE('',#477,(#481,#488),.PCURVE_S1.);
#477 = LINE('',#478,#479);
#478 = CARTESIAN_POINT('',(3.5,0.755,3.125401279327));
#479 = VECTOR('',#480,1.);
#480 = DIRECTION('',(-1.,0.,0.));
#481 = PCURVE('',#275,#482);
#482 = DEFINITIONAL_REPRESENTATION('',(#483),#487);
#483 = LINE('',#484,#485);
#484 = CARTESIAN_POINT('',(0.,0.));
#485 = VECTOR('',#486,1.);
#486 = DIRECTION('',(1.,0.));
#487 = ( GEOMETRIC_REPRESENTATION_CONTEXT(2) 
PARAMETRIC_REPRESENTATION_CONTEXT() REPRESENTATION_CONTEXT('2D SPACE',''
  ) );
#488 = PCURVE('',#489,#494);
#489 = PLANE('',#490);
#490 = AXIS2_PLACEMENT_3D('',#491,#492,#493);
#491 = CARTESIAN_POINT('',(0.,0.,3.125401279327));
#492 = DIRECTION('',(0.,0.,1.));
#493 = DIRECTION('',(1.,0.,-0.));
#494 = DEFINITIONAL_REPRESENTATION('',(#495),#499);
#495 = LINE('',#496,#497);
#496 = CARTESIAN_POINT('',(3.5,0.755));
#497 = VECTOR('',#498,1.);
#498 = DIRECTION('',(-1.,0.));
#499 = ( GEOMETRIC_REPRESENTATION_CONTEXT(2) 
PARAMETRIC_REPRESENTATION_CONTEXT() REPRESENTATION_CONTEXT('2D SPACE',''
  ) );
#500 = ORIENTED_EDGE('',*,*,#501,.F.);
#501 = EDGE_CURVE('',#288,#472,#502,.T.);
#502 = SURFACE_CURVE('',#503,(#518,#536),.PCURVE_S1.);
#503 = B_SPLINE_CURVE_WITH_KNOTS('',5,(#504,#505,#506,#507,#508,#509,
    #510,#511,#512,#513,#514,#515,#516,#517),.UNSPECIFIED.,.F.,.F.,(6,4,
    4,6),(0.,0.315318561323,0.630984398691,1.),.UNSPECIFIED.);
#504 = CARTESIAN_POINT('',(3.190355385881,0.755,2.532052512113));
#505 = CARTESIAN_POINT('',(3.184874332149,0.755,2.593017372327));
#506 = CARTESIAN_POINT('',(3.172020185351,0.755,2.653346521991));
#507 = CARTESIAN_POINT('',(3.151898610335,0.755,2.711884063782));
#508 = CARTESIAN_POINT('',(3.124899948969,0.755,2.767527001103));
#509 = CARTESIAN_POINT('',(3.058376604333,0.755,2.871168758643));
#510 = CARTESIAN_POINT('',(3.018834565265,0.755,2.919164645148));
#511 = CARTESIAN_POINT('',(2.973664085581,0.755,2.962347675811));
#512 = CARTESIAN_POINT('',(2.923714859185,0.755,2.999945060167));
#513 = CARTESIAN_POINT('',(2.807141269625,0.755,3.068208200917));
#514 = CARTESIAN_POINT('',(2.739117025909,0.755,3.09663318593));
#515 = CARTESIAN_POINT('',(2.667469135288,0.755,3.115827840015));
#516 = CARTESIAN_POINT('',(2.593942922681,0.755,3.125401279327));
#517 = CARTESIAN_POINT('',(2.520289674285,0.755,3.125401279327));
#518 = PCURVE('',#275,#519);
#519 = DEFINITIONAL_REPRESENTATION('',(#520),#535);
#520 = B_SPLINE_CURVE_WITH_KNOTS('',5,(#521,#522,#523,#524,#525,#526,
    #527,#528,#529,#530,#531,#532,#533,#534),.UNSPECIFIED.,.F.,.F.,(6,4,
    4,6),(0.,0.315318561323,0.630984398691,1.),.UNSPECIFIED.);
#521 = CARTESIAN_POINT('',(0.309644614119,-0.593348767214));
#522 = CARTESIAN_POINT('',(0.315125667851,-0.532383907));
#523 = CARTESIAN_POINT('',(0.327979814649,-0.472054757336));
#524 = CARTESIAN_POINT('',(0.348101389665,-0.413517215545));
#525 = CARTESIAN_POINT('',(0.375100051031,-0.357874278224));
#526 = CARTESIAN_POINT('',(0.441623395667,-0.254232520684));
#527 = CARTESIAN_POINT('',(0.481165434735,-0.206236634179));
#528 = CARTESIAN_POINT('',(0.526335914419,-0.163053603516));
#529 = CARTESIAN_POINT('',(0.576285140815,-0.125456219159));
#530 = CARTESIAN_POINT('',(0.692858730375,-5.719307840977E-02));
#531 = CARTESIAN_POINT('',(0.760882974091,-2.876809339693E-02));
#532 = CARTESIAN_POINT('',(0.832530864712,-9.573439312225E-03));
#533 = CARTESIAN_POINT('',(0.906057077319,0.));
#534 = CARTESIAN_POINT('',(0.979710325715,0.));
#535 = ( GEOMETRIC_REPRESENTATION_CONTEXT(2) 
PARAMETRIC_REPRESENTATION_CONTEXT() REPRESENTATION_CONTEXT('2D SPACE',''
  ) );
#536 = PCURVE('',#304,#537);
#537 = DEFINITIONAL_REPRESENTATION('',(#538),#553);
#538 = B_SPLINE_CURVE_WITH_KNOTS('',5,(#539,#540,#541,#542,#543,#544,
    #545,#546,#547,#548,#549,#550,#551,#552),.UNSPECIFIED.,.F.,.F.,(6,4,
    4,6),(0.,0.315318561323,0.630984398691,1.),.UNSPECIFIED.);
#539 = CARTESIAN_POINT('',(0.232375744089,8.726646259972E-02));
#540 = CARTESIAN_POINT('',(0.232760750086,0.181416825793));
#541 = CARTESIAN_POINT('',(0.233665276361,0.275554794327));
#542 = CARTESIAN_POINT('',(0.235090048558,0.36963392449));
#543 = CARTESIAN_POINT('',(0.237039700188,0.463643888779));
#544 = CARTESIAN_POINT('',(0.241998558116,0.651549883325));
#545 = CARTESIAN_POINT('',(0.245009204393,0.745455664349));
#546 = CARTESIAN_POINT('',(0.248552677206,0.839225067039));
#547 = CARTESIAN_POINT('',(0.252633001082,0.932859374623));
#548 = CARTESIAN_POINT('',(0.262626818124,1.13561945232));
#549 = CARTESIAN_POINT('',(0.268734348423,1.244702829487));
#550 = CARTESIAN_POINT('',(0.275546312128,1.353562773967));
#551 = CARTESIAN_POINT('',(0.283027416363,1.462249578488));
#552 = CARTESIAN_POINT('',(0.291061095368,1.570796326795));
#553 = ( GEOMETRIC_REPRESENTATION_CONTEXT(2) 
PARAMETRIC_REPRESENTATION_CONTEXT() REPRESENTATION_CONTEXT('2D SPACE',''
  ) );
#554 = ORIENTED_EDGE('',*,*,#316,.F.);
#555 = ORIENTED_EDGE('',*,*,#447,.T.);
#556 = ORIENTED_EDGE('',*,*,#255,.F.);
#557 = ORIENTED_EDGE('',*,*,#558,.T.);
#558 = EDGE_CURVE('',#256,#474,#559,.T.);
#559 = SURFACE_CURVE('',#560,(#575,#593),.PCURVE_S1.);
#560 = B_SPLINE_CURVE_WITH_KNOTS('',5,(#561,#562,#563,#564,#565,#566,
    #567,#568,#569,#570,#571,#572,#573,#574),.UNSPECIFIED.,.F.,.F.,(6,4,
    4,6),(0.,0.315318561323,0.630984398691,1.),.UNSPECIFIED.);
#561 = CARTESIAN_POINT('',(-3.190355385881,0.755,2.532052512113));
#562 = CARTESIAN_POINT('',(-3.184874332149,0.755,2.593017372327));
#563 = CARTESIAN_POINT('',(-3.172020185351,0.755,2.653346521991));
#564 = CARTESIAN_POINT('',(-3.151898610335,0.755,2.711884063782));
#565 = CARTESIAN_POINT('',(-3.124899948969,0.755,2.767527001103));
#566 = CARTESIAN_POINT('',(-3.058376604333,0.755,2.871168758643));
#567 = CARTESIAN_POINT('',(-3.018834565265,0.755,2.919164645148));
#568 = CARTESIAN_POINT('',(-2.973664085581,0.755,2.962347675811));
#569 = CARTESIAN_POINT('',(-2.923714859185,0.755,2.999945060167));
#570 = CARTESIAN_POINT('',(-2.807141269625,0.755,3.068208200917));
#571 = CARTESIAN_POINT('',(-2.739117025909,0.755,3.09663318593));
#572 = CARTESIAN_POINT('',(-2.667469135288,0.755,3.115827840015));
#573 = CARTESIAN_POINT('',(-2.593942922681,0.755,3.125401279327));
#574 = CARTESIAN_POINT('',(-2.520289674285,0.755,3.125401279327));
#575 = PCURVE('',#275,#576);
#576 = DEFINITIONAL_REPRESENTATION('',(#577),#592);
#577 = B_SPLINE_CURVE_WITH_KNOTS('',5,(#578,#579,#580,#581,#582,#583,
    #584,#585,#586,#587,#588,#589,#590,#591),.UNSPECIFIED.,.F.,.F.,(6,4,
    4,6),(0.,0.315318561323,0.630984398691,1.),.UNSPECIFIED.);
#578 = CARTESIAN_POINT('',(6.690355385881,-0.593348767214));
#579 = CARTESIAN_POINT('',(6.684874332149,-0.532383907));
#580 = CARTESIAN_POINT('',(6.672020185351,-0.472054757336));
#581 = CARTESIAN_POINT('',(6.651898610335,-0.413517215545));
#582 = CARTESIAN_POINT('',(6.624899948969,-0.357874278224));
#583 = CARTESIAN_POINT('',(6.558376604333,-0.254232520684));
#584 = CARTESIAN_POINT('',(6.518834565265,-0.206236634179));
#585 = CARTESIAN_POINT('',(6.473664085581,-0.163053603516));
#586 = CARTESIAN_POINT('',(6.423714859185,-0.125456219159));
#587 = CARTESIAN_POINT('',(6.307141269625,-5.719307840977E-02));
#588 = CARTESIAN_POINT('',(6.239117025909,-2.876809339693E-02));
#589 = CARTESIAN_POINT('',(6.167469135288,-9.573439312221E-03));
#590 = CARTESIAN_POINT('',(6.093942922681,0.));
#591 = CARTESIAN_POINT('',(6.020289674285,0.));
#592 = ( GEOMETRIC_REPRESENTATION_CONTEXT(2) 
PARAMETRIC_REPRESENTATION_CONTEXT() REPRESENTATION_CONTEXT('2D SPACE',''
  ) );
#593 = PCURVE('',#304,#594);
#594 = DEFINITIONAL_REPRESENTATION('',(#595),#610);
#595 = B_SPLINE_CURVE_WITH_KNOTS('',5,(#596,#597,#598,#599,#600,#601,
    #602,#603,#604,#605,#606,#607,#608,#609),.UNSPECIFIED.,.F.,.F.,(6,4,
    4,6),(0.,0.315318561323,0.630984398691,1.),.UNSPECIFIED.);
#596 = CARTESIAN_POINT('',(2.909216909501,8.726646259972E-02));
#597 = CARTESIAN_POINT('',(2.908831903504,0.181416825793));
#598 = CARTESIAN_POINT('',(2.907927377228,0.275554794327));
#599 = CARTESIAN_POINT('',(2.906502605031,0.36963392449));
#600 = CARTESIAN_POINT('',(2.904552953402,0.463643888779));
#601 = CARTESIAN_POINT('',(2.899594095473,0.651549883325));
#602 = CARTESIAN_POINT('',(2.896583449197,0.745455664349));
#603 = CARTESIAN_POINT('',(2.893039976384,0.839225067039));
#604 = CARTESIAN_POINT('',(2.888959652508,0.932859374623));
#605 = CARTESIAN_POINT('',(2.878965835466,1.13561945232));
#606 = CARTESIAN_POINT('',(2.872858305167,1.244702829487));
#607 = CARTESIAN_POINT('',(2.866046341462,1.353562773967));
#608 = CARTESIAN_POINT('',(2.858565237227,1.462249578488));
#609 = CARTESIAN_POINT('',(2.850531558222,1.570796326795));
#610 = ( GEOMETRIC_REPRESENTATION_CONTEXT(2) 
PARAMETRIC_REPRESENTATION_CONTEXT() REPRESENTATION_CONTEXT('2D SPACE',''
  ) );
#611 = ADVANCED_FACE('',(#612),#304,.T.);
#612 = FACE_BOUND('',#613,.T.);
#613 = EDGE_LOOP('',(#614,#615,#616,#617));
#614 = ORIENTED_EDGE('',*,*,#501,.F.);
#615 = ORIENTED_EDGE('',*,*,#287,.T.);
#616 = ORIENTED_EDGE('',*,*,#558,.T.);
#617 = ORIENTED_EDGE('',*,*,#618,.F.);
#618 = EDGE_CURVE('',#472,#474,#619,.T.);
#619 = SURFACE_CURVE('',#620,(#625,#632),.PCURVE_S1.);
#620 = CIRCLE('',#621,2.630947555978);
#621 = AXIS2_PLACEMENT_3D('',#622,#623,#624);
#622 = CARTESIAN_POINT('',(0.,0.,3.125401279327));
#623 = DIRECTION('',(0.,0.,1.));
#624 = DIRECTION('',(1.,0.,-0.));
#625 = PCURVE('',#304,#626);
#626 = DEFINITIONAL_REPRESENTATION('',(#627),#631);
#627 = LINE('',#628,#629);
#628 = CARTESIAN_POINT('',(0.,1.570796326795));
#629 = VECTOR('',#630,1.);
#630 = DIRECTION('',(1.,0.));
#631 = ( GEOMETRIC_REPRESENTATION_CONTEXT(2) 
PARAMETRIC_REPRESENTATION_CONTEXT() REPRESENTATION_CONTEXT('2D SPACE',''
  ) );
#632 = PCURVE('',#489,#633);
#633 = DEFINITIONAL_REPRESENTATION('',(#634),#638);
#634 = CIRCLE('',#635,2.630947555978);
#635 = AXIS2_PLACEMENT_2D('',#636,#637);
#636 = CARTESIAN_POINT('',(0.,0.));
#637 = DIRECTION('',(1.,0.));
#638 = ( GEOMETRIC_REPRESENTATION_CONTEXT(2) 
PARAMETRIC_REPRESENTATION_CONTEXT() REPRESENTATION_CONTEXT('2D SPACE',''
  ) );
#639 = ADVANCED_FACE('',(#640),#163,.F.);
#640 = FACE_BOUND('',#641,.F.);
#641 = EDGE_LOOP('',(#642,#672,#726,#727,#728,#729));
#642 = ORIENTED_EDGE('',*,*,#643,.F.);
#643 = EDGE_CURVE('',#644,#646,#648,.T.);
#644 = VERTEX_POINT('',#645);
#645 = CARTESIAN_POINT('',(-2.520289674285,-0.755,3.125401279327));
#646 = VERTEX_POINT('',#647);
#647 = CARTESIAN_POINT('',(2.520289674285,-0.755,3.125401279327));
#648 = SURFACE_CURVE('',#649,(#653,#660),.PCURVE_S1.);
#649 = LINE('',#650,#651);
#650 = CARTESIAN_POINT('',(-3.5,-0.755,3.125401279327));
#651 = VECTOR('',#652,1.);
#652 = DIRECTION('',(1.,0.,0.));
#653 = PCURVE('',#163,#654);
#654 = DEFINITIONAL_REPRESENTATION('',(#655),#659);
#655 = LINE('',#656,#657);
#656 = CARTESIAN_POINT('',(0.,0.));
#657 = VECTOR('',#658,1.);
#658 = DIRECTION('',(1.,0.));
#659 = ( GEOMETRIC_REPRESENTATION_CONTEXT(2) 
PARAMETRIC_REPRESENTATION_CONTEXT() REPRESENTATION_CONTEXT('2D SPACE',''
  ) );
#660 = PCURVE('',#661,#666);
#661 = PLANE('',#662);
#662 = AXIS2_PLACEMENT_3D('',#663,#664,#665);
#663 = CARTESIAN_POINT('',(0.,0.,3.125401279327));
#664 = DIRECTION('',(0.,0.,1.));
#665 = DIRECTION('',(1.,0.,-0.));
#666 = DEFINITIONAL_REPRESENTATION('',(#667),#671);
#667 = LINE('',#668,#669);
#668 = CARTESIAN_POINT('',(-3.5,-0.755));
#669 = VECTOR('',#670,1.);
#670 = DIRECTION('',(1.,0.));
#671 = ( GEOMETRIC_REPRESENTATION_CONTEXT(2) 
PARAMETRIC_REPRESENTATION_CONTEXT() REPRESENTATION_CONTEXT('2D SPACE',''
  ) );
#672 = ORIENTED_EDGE('',*,*,#673,.F.);
#673 = EDGE_CURVE('',#176,#644,#674,.T.);
#674 = SURFACE_CURVE('',#675,(#690,#708),.PCURVE_S1.);
#675 = B_SPLINE_CURVE_WITH_KNOTS('',5,(#676,#677,#678,#679,#680,#681,
    #682,#683,#684,#685,#686,#687,#688,#689),.UNSPECIFIED.,.F.,.F.,(6,4,
    4,6),(0.,0.315318561323,0.630984398691,1.),.UNSPECIFIED.);
#676 = CARTESIAN_POINT('',(-3.190355385881,-0.755,2.532052512113));
#677 = CARTESIAN_POINT('',(-3.184874332149,-0.755,2.593017372327));
#678 = CARTESIAN_POINT('',(-3.172020185351,-0.755,2.653346521991));
#679 = CARTESIAN_POINT('',(-3.151898610335,-0.755,2.711884063782));
#680 = CARTESIAN_POINT('',(-3.124899948969,-0.755,2.767527001103));
#681 = CARTESIAN_POINT('',(-3.058376604333,-0.755,2.871168758643));
#682 = CARTESIAN_POINT('',(-3.018834565265,-0.755,2.919164645148));
#683 = CARTESIAN_POINT('',(-2.973664085581,-0.755,2.962347675811));
#684 = CARTESIAN_POINT('',(-2.923714859185,-0.755,2.999945060167));
#685 = CARTESIAN_POINT('',(-2.807141269625,-0.755,3.068208200917));
#686 = CARTESIAN_POINT('',(-2.739117025909,-0.755,3.09663318593));
#687 = CARTESIAN_POINT('',(-2.667469135288,-0.755,3.115827840015));
#688 = CARTESIAN_POINT('',(-2.593942922681,-0.755,3.125401279327));
#689 = CARTESIAN_POINT('',(-2.520289674285,-0.755,3.125401279327));
#690 = PCURVE('',#163,#691);
#691 = DEFINITIONAL_REPRESENTATION('',(#692),#707);
#692 = B_SPLINE_CURVE_WITH_KNOTS('',5,(#693,#694,#695,#696,#697,#698,
    #699,#700,#701,#702,#703,#704,#705,#706),.UNSPECIFIED.,.F.,.F.,(6,4,
    4,6),(0.,0.315318561323,0.630984398691,1.),.UNSPECIFIED.);
#693 = CARTESIAN_POINT('',(0.309644614119,-0.593348767214));
#694 = CARTESIAN_POINT('',(0.315125667851,-0.532383907));
#695 = CARTESIAN_POINT('',(0.327979814649,-0.472054757336));
#696 = CARTESIAN_POINT('',(0.348101389665,-0.413517215545));
#697 = CARTESIAN_POINT('',(0.375100051031,-0.357874278224));
#698 = CARTESIAN_POINT('',(0.441623395667,-0.254232520684));
#699 = CARTESIAN_POINT('',(0.481165434735,-0.206236634179));
#700 = CARTESIAN_POINT('',(0.526335914419,-0.163053603516));
#701 = CARTESIAN_POINT('',(0.576285140815,-0.125456219159));
#702 = CARTESIAN_POINT('',(0.692858730375,-5.719307840978E-02));
#703 = CARTESIAN_POINT('',(0.760882974091,-2.876809339692E-02));
#704 = CARTESIAN_POINT('',(0.832530864712,-9.573439312225E-03));
#705 = CARTESIAN_POINT('',(0.906057077319,0.));
#706 = CARTESIAN_POINT('',(0.979710325715,0.));
#707 = ( GEOMETRIC_REPRESENTATION_CONTEXT(2) 
PARAMETRIC_REPRESENTATION_CONTEXT() REPRESENTATION_CONTEXT('2D SPACE',''
  ) );
#708 = PCURVE('',#192,#709);
#709 = DEFINITIONAL_REPRESENTATION('',(#710),#725);
#710 = B_SPLINE_CURVE_WITH_KNOTS('',5,(#711,#712,#713,#714,#715,#716,
    #717,#718,#719,#720,#721,#722,#723,#724),.UNSPECIFIED.,.F.,.F.,(6,4,
    4,6),(0.,0.315318561323,0.630984398691,1.),.UNSPECIFIED.);
#711 = CARTESIAN_POINT('',(3.373968397678,8.726646259972E-02));
#712 = CARTESIAN_POINT('',(3.374353403675,0.181416825793));
#713 = CARTESIAN_POINT('',(3.375257929951,0.275554794327));
#714 = CARTESIAN_POINT('',(3.376682702148,0.36963392449));
#715 = CARTESIAN_POINT('',(3.378632353778,0.463643888779));
#716 = CARTESIAN_POINT('',(3.383591211706,0.651549883325));
#717 = CARTESIAN_POINT('',(3.386601857983,0.745455664349));
#718 = CARTESIAN_POINT('',(3.390145330796,0.83922506704));
#719 = CARTESIAN_POINT('',(3.394225654672,0.932859374623));
#720 = CARTESIAN_POINT('',(3.404219471713,1.13561945232));
#721 = CARTESIAN_POINT('',(3.410327002013,1.244702829487));
#722 = CARTESIAN_POINT('',(3.417138965718,1.353562773967));
#723 = CARTESIAN_POINT('',(3.424620069953,1.462249578488));
#724 = CARTESIAN_POINT('',(3.432653748958,1.570796326795));
#725 = ( GEOMETRIC_REPRESENTATION_CONTEXT(2) 
PARAMETRIC_REPRESENTATION_CONTEXT() REPRESENTATION_CONTEXT('2D SPACE',''
  ) );
#726 = ORIENTED_EDGE('',*,*,#204,.F.);
#727 = ORIENTED_EDGE('',*,*,#424,.T.);
#728 = ORIENTED_EDGE('',*,*,#143,.F.);
#729 = ORIENTED_EDGE('',*,*,#730,.T.);
#730 = EDGE_CURVE('',#144,#646,#731,.T.);
#731 = SURFACE_CURVE('',#732,(#747,#765),.PCURVE_S1.);
#732 = B_SPLINE_CURVE_WITH_KNOTS('',5,(#733,#734,#735,#736,#737,#738,
    #739,#740,#741,#742,#743,#744,#745,#746),.UNSPECIFIED.,.F.,.F.,(6,4,
    4,6),(0.,0.315318561323,0.630984398691,1.),.UNSPECIFIED.);
#733 = CARTESIAN_POINT('',(3.190355385881,-0.755,2.532052512113));
#734 = CARTESIAN_POINT('',(3.184874332149,-0.755,2.593017372327));
#735 = CARTESIAN_POINT('',(3.172020185351,-0.755,2.653346521991));
#736 = CARTESIAN_POINT('',(3.151898610335,-0.755,2.711884063782));
#737 = CARTESIAN_POINT('',(3.124899948969,-0.755,2.767527001103));
#738 = CARTESIAN_POINT('',(3.058376604333,-0.755,2.871168758643));
#739 = CARTESIAN_POINT('',(3.018834565265,-0.755,2.919164645148));
#740 = CARTESIAN_POINT('',(2.973664085581,-0.755,2.962347675811));
#741 = CARTESIAN_POINT('',(2.923714859185,-0.755,2.999945060167));
#742 = CARTESIAN_POINT('',(2.807141269625,-0.755,3.068208200917));
#743 = CARTESIAN_POINT('',(2.739117025909,-0.755,3.09663318593));
#744 = CARTESIAN_POINT('',(2.667469135288,-0.755,3.115827840015));
#745 = CARTESIAN_POINT('',(2.593942922681,-0.755,3.125401279327));
#746 = CARTESIAN_POINT('',(2.520289674285,-0.755,3.125401279327));
#747 = PCURVE('',#163,#748);
#748 = DEFINITIONAL_REPRESENTATION('',(#749),#764);
#749 = B_SPLINE_CURVE_WITH_KNOTS('',5,(#750,#751,#752,#753,#754,#755,
    #756,#757,#758,#759,#760,#761,#762,#763),.UNSPECIFIED.,.F.,.F.,(6,4,
    4,6),(0.,0.315318561323,0.630984398691,1.),.UNSPECIFIED.);
#750 = CARTESIAN_POINT('',(6.690355385881,-0.593348767214));
#751 = CARTESIAN_POINT('',(6.684874332149,-0.532383907));
#752 = CARTESIAN_POINT('',(6.672020185351,-0.472054757336));
#753 = CARTESIAN_POINT('',(6.651898610335,-0.413517215545));
#754 = CARTESIAN_POINT('',(6.624899948969,-0.357874278224));
#755 = CARTESIAN_POINT('',(6.558376604333,-0.254232520684));
#756 = CARTESIAN_POINT('',(6.518834565265,-0.206236634179));
#757 = CARTESIAN_POINT('',(6.473664085581,-0.163053603516));
#758 = CARTESIAN_POINT('',(6.423714859185,-0.125456219159));
#759 = CARTESIAN_POINT('',(6.307141269625,-5.719307840977E-02));
#760 = CARTESIAN_POINT('',(6.239117025909,-2.876809339694E-02));
#761 = CARTESIAN_POINT('',(6.167469135288,-9.573439312218E-03));
#762 = CARTESIAN_POINT('',(6.093942922681,0.));
#763 = CARTESIAN_POINT('',(6.020289674285,0.));
#764 = ( GEOMETRIC_REPRESENTATION_CONTEXT(2) 
PARAMETRIC_REPRESENTATION_CONTEXT() REPRESENTATION_CONTEXT('2D SPACE',''
  ) );
#765 = PCURVE('',#192,#766);
#766 = DEFINITIONAL_REPRESENTATION('',(#767),#782);
#767 = B_SPLINE_CURVE_WITH_KNOTS('',5,(#768,#769,#770,#771,#772,#773,
    #774,#775,#776,#777,#778,#779,#780,#781),.UNSPECIFIED.,.F.,.F.,(6,4,
    4,6),(0.,0.315318561323,0.630984398691,1.),.UNSPECIFIED.);
#768 = CARTESIAN_POINT('',(6.050809563091,8.726646259972E-02));
#769 = CARTESIAN_POINT('',(6.050424557094,0.181416825793));
#770 = CARTESIAN_POINT('',(6.049520030818,0.275554794327));
#771 = CARTESIAN_POINT('',(6.048095258621,0.36963392449));
#772 = CARTESIAN_POINT('',(6.046145606992,0.463643888779));
#773 = CARTESIAN_POINT('',(6.041186749063,0.651549883325));
#774 = CARTESIAN_POINT('',(6.038176102787,0.745455664349));
#775 = CARTESIAN_POINT('',(6.034632629973,0.839225067039));
#776 = CARTESIAN_POINT('',(6.030552306098,0.932859374623));
#777 = CARTESIAN_POINT('',(6.020558489056,1.13561945232));
#778 = CARTESIAN_POINT('',(6.014450958756,1.244702829487));
#779 = CARTESIAN_POINT('',(6.007638995052,1.353562773967));
#780 = CARTESIAN_POINT('',(6.000157890816,1.462249578488));
#781 = CARTESIAN_POINT('',(5.992124211811,1.570796326795));
#782 = ( GEOMETRIC_REPRESENTATION_CONTEXT(2) 
PARAMETRIC_REPRESENTATION_CONTEXT() REPRESENTATION_CONTEXT('2D SPACE',''
  ) );
#783 = ADVANCED_FACE('',(#784),#192,.T.);
#784 = FACE_BOUND('',#785,.T.);
#785 = EDGE_LOOP('',(#786,#787,#788,#810));
#786 = ORIENTED_EDGE('',*,*,#175,.T.);
#787 = ORIENTED_EDGE('',*,*,#730,.T.);
#788 = ORIENTED_EDGE('',*,*,#789,.F.);
#789 = EDGE_CURVE('',#644,#646,#790,.T.);
#790 = SURFACE_CURVE('',#791,(#796,#803),.PCURVE_S1.);
#791 = CIRCLE('',#792,2.630947555978);
#792 = AXIS2_PLACEMENT_3D('',#793,#794,#795);
#793 = CARTESIAN_POINT('',(0.,0.,3.125401279327));
#794 = DIRECTION('',(0.,0.,1.));
#795 = DIRECTION('',(1.,0.,-0.));
#796 = PCURVE('',#192,#797);
#797 = DEFINITIONAL_REPRESENTATION('',(#798),#802);
#798 = LINE('',#799,#800);
#799 = CARTESIAN_POINT('',(0.,1.570796326795));
#800 = VECTOR('',#801,1.);
#801 = DIRECTION('',(1.,0.));
#802 = ( GEOMETRIC_REPRESENTATION_CONTEXT(2) 
PARAMETRIC_REPRESENTATION_CONTEXT() REPRESENTATION_CONTEXT('2D SPACE',''
  ) );
#803 = PCURVE('',#661,#804);
#804 = DEFINITIONAL_REPRESENTATION('',(#805),#809);
#805 = CIRCLE('',#806,2.630947555978);
#806 = AXIS2_PLACEMENT_2D('',#807,#808);
#807 = CARTESIAN_POINT('',(0.,0.));
#808 = DIRECTION('',(1.,0.));
#809 = ( GEOMETRIC_REPRESENTATION_CONTEXT(2) 
PARAMETRIC_REPRESENTATION_CONTEXT() REPRESENTATION_CONTEXT('2D SPACE',''
  ) );
#810 = ORIENTED_EDGE('',*,*,#673,.F.);
#811 = ADVANCED_FACE('',(#812),#408,.F.);
#812 = FACE_BOUND('',#813,.F.);
#813 = EDGE_LOOP('',(#814));
#814 = ORIENTED_EDGE('',*,*,#393,.T.);
#815 = ADVANCED_FACE('',(#816),#489,.T.);
#816 = FACE_BOUND('',#817,.T.);
#817 = EDGE_LOOP('',(#818,#819));
#818 = ORIENTED_EDGE('',*,*,#471,.F.);
#819 = ORIENTED_EDGE('',*,*,#618,.T.);
#820 = ADVANCED_FACE('',(#821),#661,.T.);
#821 = FACE_BOUND('',#822,.T.);
#822 = EDGE_LOOP('',(#823,#824));
#823 = ORIENTED_EDGE('',*,*,#789,.T.);
#824 = ORIENTED_EDGE('',*,*,#643,.F.);
#825 = ( GEOMETRIC_REPRESENTATION_CONTEXT(3) 
GLOBAL_UNCERTAINTY_ASSIGNED_CONTEXT((#829)) GLOBAL_UNIT_ASSIGNED_CONTEXT
((#826,#827,#828)) REPRESENTATION_CONTEXT('Context #1',
  '3D Context with UNIT and UNCERTAINTY') );
#826 = ( LENGTH_UNIT() NAMED_UNIT(*) SI_UNIT(.MILLI.,.METRE.) );
#827 = ( NAMED_UNIT(*) PLANE_ANGLE_UNIT() SI_UNIT($,.RADIAN.) );
#828 = ( NAMED_UNIT(*) SI_UNIT($,.STERADIAN.) SOLID_ANGLE_UNIT() );
#829 = UNCERTAINTY_MEASURE_WITH_UNIT(LENGTH_MEASURE(5.E-07),#826,
  'distance_accuracy_value','confusion accuracy');
#830 = PRODUCT_RELATED_PRODUCT_CATEGORY('part',$,(#7));
ENDSEC;
END-ISO-10303-21;
