ISO-10303-21;
HEADER;
FILE_DESCRIPTION(('Open CASCADE Model'),'2;1');
FILE_NAME('Open CASCADE Shape Model','2026-09-14T17:54:54',('Author'),(
    'Open CASCADE'),'Open CASCADE STEP processor 7.9','Open CASCADE 7.9'
  ,'Unknown');
FILE_SCHEMA(('AUTOMOTIVE_DESIGN { 1 0 10303 214 1 1 1 1 }'));
ENDSEC;
DATA;
#1 = APPLICATION_PROTOCOL_DEFINITION('international standard',
  'automotive_design',2000,#2);
#2 = APPLICATION_CONTEXT(
  'core data for automotive mechanical design processes');
#3 = SHAPE_DEFINITION_REPRESENTATION(#4,#10);
#4 = PRODUCT_DEFINITION_SHAPE('','',#5);
#5 = PRODUCT_DEFINITION('design','',#6,#9);
#6 = PRODUCT_DEFINITION_FORMATION('','',#7);
#7 = PRODUCT('Open CASCADE STEP translator 7.9 5',
  'Open CASCADE STEP translator 7.9 5','',(#8));
#8 = PRODUCT_CONTEXT('',#2,'mechanical');
#9 = PRODUCT_DEFINITION_CONTEXT('part definition',#2,'design');
#10 = ADVANCED_BREP_SHAPE_REPRESENTATION('',(#11,#15),#861);
#11 = AXIS2_PLACEMENT_3D('',#12,#13,#14);
#12 = CARTESIAN_POINT('',(0.,0.,0.));
#13 = DIRECTION('',(0.,0.,1.));
#14 = DIRECTION('',(1.,0.,-0.));
#15 = MANIFOLD_SOLID_BREP('',#16);
#16 = CLOSED_SHELL('',(#17,#85,#364,#419,#467,#629,#657,#819,#847,#851,
    #856));
#17 = ADVANCED_FACE('',(#18,#54),#31,.F.);
#18 = FACE_BOUND('',#19,.T.);
#19 = EDGE_LOOP('',(#20));
#20 = ORIENTED_EDGE('',*,*,#21,.F.);
#21 = EDGE_CURVE('',#22,#22,#24,.T.);
#22 = VERTEX_POINT('',#23);
#23 = CARTESIAN_POINT('',(5.,0.,0.));
#24 = SURFACE_CURVE('',#25,(#30,#42),.PCURVE_S1.);
#25 = CIRCLE('',#26,5.);
#26 = AXIS2_PLACEMENT_3D('',#27,#28,#29);
#27 = CARTESIAN_POINT('',(0.,0.,0.));
#28 = DIRECTION('',(0.,0.,1.));
#29 = DIRECTION('',(1.,0.,-0.));
#30 = PCURVE('',#31,#36);
#31 = PLANE('',#32);
#32 = AXIS2_PLACEMENT_3D('',#33,#34,#35);
#33 = CARTESIAN_POINT('',(0.,0.,0.));
#34 = DIRECTION('',(0.,0.,1.));
#35 = DIRECTION('',(1.,0.,-0.));
#36 = DEFINITIONAL_REPRESENTATION('',(#37),#41);
#37 = CIRCLE('',#38,5.);
#38 = AXIS2_PLACEMENT_2D('',#39,#40);
#39 = CARTESIAN_POINT('',(0.,0.));
#40 = DIRECTION('',(1.,-0.));
#41 = ( GEOMETRIC_REPRESENTATION_CONTEXT(2) 
PARAMETRIC_REPRESENTATION_CONTEXT() REPRESENTATION_CONTEXT('2D SPACE',''
  ) );
#42 = PCURVE('',#43,#48);
#43 = CONICAL_SURFACE('',#44,5.,8.726646259972E-02);
#44 = AXIS2_PLACEMENT_3D('',#45,#46,#47);
#45 = CARTESIAN_POINT('',(0.,0.,0.));
#46 = DIRECTION('',(-0.,-0.,-1.));
#47 = DIRECTION('',(1.,0.,-0.));
#48 = DEFINITIONAL_REPRESENTATION('',(#49),#53);
#49 = LINE('',#50,#51);
#50 = CARTESIAN_POINT('',(-0.,-0.));
#51 = VECTOR('',#52,1.);
#52 = DIRECTION('',(-1.,-0.));
#53 = ( GEOMETRIC_REPRESENTATION_CONTEXT(2) 
PARAMETRIC_REPRESENTATION_CONTEXT() REPRESENTATION_CONTEXT('2D SPACE',''
  ) );
#54 = FACE_BOUND('',#55,.T.);
#55 = EDGE_LOOP('',(#56));
#56 = ORIENTED_EDGE('',*,*,#57,.T.);
#57 = EDGE_CURVE('',#58,#58,#60,.T.);
#58 = VERTEX_POINT('',#59);
#59 = CARTESIAN_POINT('',(2.458734122635,0.,0.));
#60 = SURFACE_CURVE('',#61,(#66,#73),.PCURVE_S1.);
#61 = CIRCLE('',#62,2.458734122635);
#62 = AXIS2_PLACEMENT_3D('',#63,#64,#65);
#63 = CARTESIAN_POINT('',(0.,0.,0.));
#64 = DIRECTION('',(0.,0.,1.));
#65 = DIRECTION('',(1.,0.,-0.));
#66 = PCURVE('',#31,#67);
#67 = DEFINITIONAL_REPRESENTATION('',(#68),#72);
#68 = CIRCLE('',#69,2.458734122635);
#69 = AXIS2_PLACEMENT_2D('',#70,#71);
#70 = CARTESIAN_POINT('',(0.,0.));
#71 = DIRECTION('',(1.,-0.));
#72 = ( GEOMETRIC_REPRESENTATION_CONTEXT(2) 
PARAMETRIC_REPRESENTATION_CONTEXT() REPRESENTATION_CONTEXT('2D SPACE',''
  ) );
#73 = PCURVE('',#74,#79);
#74 = CYLINDRICAL_SURFACE('',#75,2.458734122635);
#75 = AXIS2_PLACEMENT_3D('',#76,#77,#78);
#76 = CARTESIAN_POINT('',(0.,0.,-25.));
#77 = DIRECTION('',(-0.,-0.,-1.));
#78 = DIRECTION('',(1.,0.,0.));
#79 = DEFINITIONAL_REPRESENTATION('',(#80),#84);
#80 = LINE('',#81,#82);
#81 = CARTESIAN_POINT('',(-0.,-25.));
#82 = VECTOR('',#83,1.);
#83 = DIRECTION('',(-1.,0.));
#84 = ( GEOMETRIC_REPRESENTATION_CONTEXT(2) 
PARAMETRIC_REPRESENTATION_CONTEXT() REPRESENTATION_CONTEXT('2D SPACE',''
  ) );
#85 = ADVANCED_FACE('',(#86),#43,.T.);
#86 = FACE_BOUND('',#87,.T.);
#87 = EDGE_LOOP('',(#88,#111,#112,#113,#142,#174,#203,#230,#254,#286,
    #315,#342));
#88 = ORIENTED_EDGE('',*,*,#89,.F.);
#89 = EDGE_CURVE('',#22,#90,#92,.T.);
#90 = VERTEX_POINT('',#91);
#91 = CARTESIAN_POINT('',(4.729826090276,0.,3.08810191899));
#92 = SEAM_CURVE('',#93,(#97,#104),.PCURVE_S1.);
#93 = LINE('',#94,#95);
#94 = CARTESIAN_POINT('',(5.,0.,0.));
#95 = VECTOR('',#96,1.);
#96 = DIRECTION('',(-8.715574274766E-02,0.,0.996194698092));
#97 = PCURVE('',#43,#98);
#98 = DEFINITIONAL_REPRESENTATION('',(#99),#103);
#99 = LINE('',#100,#101);
#100 = CARTESIAN_POINT('',(-0.,-0.));
#101 = VECTOR('',#102,1.);
#102 = DIRECTION('',(-0.,-1.));
#103 = ( GEOMETRIC_REPRESENTATION_CONTEXT(2) 
PARAMETRIC_REPRESENTATION_CONTEXT() REPRESENTATION_CONTEXT('2D SPACE',''
  ) );
#104 = PCURVE('',#43,#105);
#105 = DEFINITIONAL_REPRESENTATION('',(#106),#110);
#106 = LINE('',#107,#108);
#107 = CARTESIAN_POINT('',(-6.28318530718,-0.));
#108 = VECTOR('',#109,1.);
#109 = DIRECTION('',(-0.,-1.));
#110 = ( GEOMETRIC_REPRESENTATION_CONTEXT(2) 
PARAMETRIC_REPRESENTATION_CONTEXT() REPRESENTATION_CONTEXT('2D SPACE',''
  ) );
#111 = ORIENTED_EDGE('',*,*,#21,.T.);
#112 = ORIENTED_EDGE('',*,*,#89,.T.);
#113 = ORIENTED_EDGE('',*,*,#114,.F.);
#114 = EDGE_CURVE('',#115,#90,#117,.T.);
#115 = VERTEX_POINT('',#116);
#116 = CARTESIAN_POINT('',(4.632410802622,-0.955,3.08810191899));
#117 = SURFACE_CURVE('',#118,(#123,#130),.PCURVE_S1.);
#118 = CIRCLE('',#119,4.729826090276);
#119 = AXIS2_PLACEMENT_3D('',#120,#121,#122);
#120 = CARTESIAN_POINT('',(0.,0.,3.08810191899));
#121 = DIRECTION('',(0.,0.,1.));
#122 = DIRECTION('',(1.,0.,-0.));
#123 = PCURVE('',#43,#124);
#124 = DEFINITIONAL_REPRESENTATION('',(#125),#129);
#125 = LINE('',#126,#127);
#126 = CARTESIAN_POINT('',(-0.,-3.08810191899));
#127 = VECTOR('',#128,1.);
#128 = DIRECTION('',(-1.,-0.));
#129 = ( GEOMETRIC_REPRESENTATION_CONTEXT(2) 
PARAMETRIC_REPRESENTATION_CONTEXT() REPRESENTATION_CONTEXT('2D SPACE',''
  ) );
#130 = PCURVE('',#131,#136);
#131 = PLANE('',#132);
#132 = AXIS2_PLACEMENT_3D('',#133,#134,#135);
#133 = CARTESIAN_POINT('',(-7.457417461798E-17,0.,3.08810191899));
#134 = DIRECTION('',(0.,0.,1.));
#135 = DIRECTION('',(1.,0.,-0.));
#136 = DEFINITIONAL_REPRESENTATION('',(#137),#141);
#137 = CIRCLE('',#138,4.729826090276);
#138 = AXIS2_PLACEMENT_2D('',#139,#140);
#139 = CARTESIAN_POINT('',(7.457417461798E-17,0.));
#140 = DIRECTION('',(1.,0.));
#141 = ( GEOMETRIC_REPRESENTATION_CONTEXT(2) 
PARAMETRIC_REPRESENTATION_CONTEXT() REPRESENTATION_CONTEXT('2D SPACE',''
  ) );
#142 = ORIENTED_EDGE('',*,*,#143,.F.);
#143 = EDGE_CURVE('',#144,#115,#146,.T.);
#144 = VERTEX_POINT('',#145);
#145 = CARTESIAN_POINT('',(4.568971713219,-0.955,3.798078768169));
#146 = SURFACE_CURVE('',#147,(#152,#162),.PCURVE_S1.);
#147 = HYPERBOLA('',#148,10.915699949137,0.955);
#148 = AXIS2_PLACEMENT_3D('',#149,#150,#151);
#149 = CARTESIAN_POINT('',(0.,-0.955,57.150261513807));
#150 = DIRECTION('',(0.,-1.,0.));
#151 = DIRECTION('',(-0.,-0.,-1.));
#152 = PCURVE('',#43,#153);
#153 = DEFINITIONAL_REPRESENTATION('',(#154),#161);
#154 = B_SPLINE_CURVE_WITH_KNOTS('',5,(#155,#156,#157,#158,#159,#160),
  .UNSPECIFIED.,.F.,.F.,(6,6),(2.269226763794,2.285745325776),
  .PIECEWISE_BEZIER_KNOTS.);
#155 = CARTESIAN_POINT('',(-6.077133261412,-3.798078768169));
#156 = CARTESIAN_POINT('',(-6.077809191268,-3.62554706087));
#157 = CARTESIAN_POINT('',(-6.078482388825,-3.452287462033));
#158 = CARTESIAN_POINT('',(-6.079152868165,-3.278296048531));
#159 = CARTESIAN_POINT('',(-6.079820643277,-3.10356886414));
#160 = CARTESIAN_POINT('',(-6.08048572806,-2.92810191899));
#161 = ( GEOMETRIC_REPRESENTATION_CONTEXT(2) 
PARAMETRIC_REPRESENTATION_CONTEXT() REPRESENTATION_CONTEXT('2D SPACE',''
  ) );
#162 = PCURVE('',#163,#168);
#163 = PLANE('',#164);
#164 = AXIS2_PLACEMENT_3D('',#165,#166,#167);
#165 = CARTESIAN_POINT('',(-5.,-0.955,4.68810191899));
#166 = DIRECTION('',(0.,-1.,0.));
#167 = DIRECTION('',(1.,0.,0.));
#168 = DEFINITIONAL_REPRESENTATION('',(#169),#173);
#169 = HYPERBOLA('',#170,10.915699949137,0.955);
#170 = AXIS2_PLACEMENT_2D('',#171,#172);
#171 = CARTESIAN_POINT('',(5.,52.462159594816));
#172 = DIRECTION('',(0.,-1.));
#173 = ( GEOMETRIC_REPRESENTATION_CONTEXT(2) 
PARAMETRIC_REPRESENTATION_CONTEXT() REPRESENTATION_CONTEXT('2D SPACE',''
  ) );
#174 = ORIENTED_EDGE('',*,*,#175,.F.);
#175 = EDGE_CURVE('',#176,#144,#178,.T.);
#176 = VERTEX_POINT('',#177);
#177 = CARTESIAN_POINT('',(-4.568971713219,-0.955,3.798078768169));
#178 = SURFACE_CURVE('',#179,(#184,#191),.PCURVE_S1.);
#179 = CIRCLE('',#180,4.667711164607);
#180 = AXIS2_PLACEMENT_3D('',#181,#182,#183);
#181 = CARTESIAN_POINT('',(0.,0.,3.798078768169));
#182 = DIRECTION('',(0.,0.,1.));
#183 = DIRECTION('',(1.,0.,-0.));
#184 = PCURVE('',#43,#185);
#185 = DEFINITIONAL_REPRESENTATION('',(#186),#190);
#186 = LINE('',#187,#188);
#187 = CARTESIAN_POINT('',(-0.,-3.798078768169));
#188 = VECTOR('',#189,1.);
#189 = DIRECTION('',(-1.,-0.));
#190 = ( GEOMETRIC_REPRESENTATION_CONTEXT(2) 
PARAMETRIC_REPRESENTATION_CONTEXT() REPRESENTATION_CONTEXT('2D SPACE',''
  ) );
#191 = PCURVE('',#192,#197);
#192 = TOROIDAL_SURFACE('',#193,3.696421333967,0.975);
#193 = AXIS2_PLACEMENT_3D('',#194,#195,#196);
#194 = CARTESIAN_POINT('',(0.,0.,3.71310191899));
#195 = DIRECTION('',(0.,0.,1.));
#196 = DIRECTION('',(1.,0.,-0.));
#197 = DEFINITIONAL_REPRESENTATION('',(#198),#202);
#198 = LINE('',#199,#200);
#199 = CARTESIAN_POINT('',(0.,8.726646259972E-02));
#200 = VECTOR('',#201,1.);
#201 = DIRECTION('',(1.,0.));
#202 = ( GEOMETRIC_REPRESENTATION_CONTEXT(2) 
PARAMETRIC_REPRESENTATION_CONTEXT() REPRESENTATION_CONTEXT('2D SPACE',''
  ) );
#203 = ORIENTED_EDGE('',*,*,#204,.F.);
#204 = EDGE_CURVE('',#205,#176,#207,.T.);
#205 = VERTEX_POINT('',#206);
#206 = CARTESIAN_POINT('',(-4.632410802622,-0.955,3.08810191899));
#207 = SURFACE_CURVE('',#208,(#213,#223),.PCURVE_S1.);
#208 = HYPERBOLA('',#209,10.915699949137,0.955);
#209 = AXIS2_PLACEMENT_3D('',#210,#211,#212);
#210 = CARTESIAN_POINT('',(0.,-0.955,57.150261513807));
#211 = DIRECTION('',(0.,-1.,0.));
#212 = DIRECTION('',(-0.,-0.,-1.));
#213 = PCURVE('',#43,#214);
#214 = DEFINITIONAL_REPRESENTATION('',(#215),#222);
#215 = B_SPLINE_CURVE_WITH_KNOTS('',5,(#216,#217,#218,#219,#220,#221),
  .UNSPECIFIED.,.F.,.F.,(6,6),(-2.285745325776,-2.269226763794),
  .PIECEWISE_BEZIER_KNOTS.);
#216 = CARTESIAN_POINT('',(-3.344292232709,-2.92810191899));
#217 = CARTESIAN_POINT('',(-3.344957317492,-3.10356886414));
#218 = CARTESIAN_POINT('',(-3.345625092605,-3.278296048531));
#219 = CARTESIAN_POINT('',(-3.346295571944,-3.452287462033));
#220 = CARTESIAN_POINT('',(-3.346968769501,-3.62554706087));
#221 = CARTESIAN_POINT('',(-3.347644699358,-3.798078768169));
#222 = ( GEOMETRIC_REPRESENTATION_CONTEXT(2) 
PARAMETRIC_REPRESENTATION_CONTEXT() REPRESENTATION_CONTEXT('2D SPACE',''
  ) );
#223 = PCURVE('',#163,#224);
#224 = DEFINITIONAL_REPRESENTATION('',(#225),#229);
#225 = HYPERBOLA('',#226,10.915699949137,0.955);
#226 = AXIS2_PLACEMENT_2D('',#227,#228);
#227 = CARTESIAN_POINT('',(5.,52.462159594816));
#228 = DIRECTION('',(0.,-1.));
#229 = ( GEOMETRIC_REPRESENTATION_CONTEXT(2) 
PARAMETRIC_REPRESENTATION_CONTEXT() REPRESENTATION_CONTEXT('2D SPACE',''
  ) );
#230 = ORIENTED_EDGE('',*,*,#231,.F.);
#231 = EDGE_CURVE('',#232,#205,#234,.T.);
#232 = VERTEX_POINT('',#233);
#233 = CARTESIAN_POINT('',(-4.632410802622,0.955,3.08810191899));
#234 = SURFACE_CURVE('',#235,(#240,#247),.PCURVE_S1.);
#235 = CIRCLE('',#236,4.729826090276);
#236 = AXIS2_PLACEMENT_3D('',#237,#238,#239);
#237 = CARTESIAN_POINT('',(0.,0.,3.08810191899));
#238 = DIRECTION('',(0.,0.,1.));
#239 = DIRECTION('',(1.,0.,-0.));
#240 = PCURVE('',#43,#241);
#241 = DEFINITIONAL_REPRESENTATION('',(#242),#246);
#242 = LINE('',#243,#244);
#243 = CARTESIAN_POINT('',(-0.,-3.08810191899));
#244 = VECTOR('',#245,1.);
#245 = DIRECTION('',(-1.,-0.));
#246 = ( GEOMETRIC_REPRESENTATION_CONTEXT(2) 
PARAMETRIC_REPRESENTATION_CONTEXT() REPRESENTATION_CONTEXT('2D SPACE',''
  ) );
#247 = PCURVE('',#131,#248);
#248 = DEFINITIONAL_REPRESENTATION('',(#249),#253);
#249 = CIRCLE('',#250,4.729826090276);
#250 = AXIS2_PLACEMENT_2D('',#251,#252);
#251 = CARTESIAN_POINT('',(7.457417461798E-17,0.));
#252 = DIRECTION('',(1.,0.));
#253 = ( GEOMETRIC_REPRESENTATION_CONTEXT(2) 
PARAMETRIC_REPRESENTATION_CONTEXT() REPRESENTATION_CONTEXT('2D SPACE',''
  ) );
#254 = ORIENTED_EDGE('',*,*,#255,.F.);
#255 = EDGE_CURVE('',#256,#232,#258,.T.);
#256 = VERTEX_POINT('',#257);
#257 = CARTESIAN_POINT('',(-4.568971713219,0.955,3.798078768169));
#258 = SURFACE_CURVE('',#259,(#264,#274),.PCURVE_S1.);
#259 = HYPERBOLA('',#260,10.915699949137,0.955);
#260 = AXIS2_PLACEMENT_3D('',#261,#262,#263);
#261 = CARTESIAN_POINT('',(0.,0.955,57.150261513807));
#262 = DIRECTION('',(0.,1.,0.));
#263 = DIRECTION('',(0.,0.,-1.));
#264 = PCURVE('',#43,#265);
#265 = DEFINITIONAL_REPRESENTATION('',(#266),#273);
#266 = B_SPLINE_CURVE_WITH_KNOTS('',5,(#267,#268,#269,#270,#271,#272),
  .UNSPECIFIED.,.F.,.F.,(6,6),(2.269226763794,2.285745325776),
  .PIECEWISE_BEZIER_KNOTS.);
#267 = CARTESIAN_POINT('',(-2.935540607822,-3.798078768169));
#268 = CARTESIAN_POINT('',(-2.936216537679,-3.62554706087));
#269 = CARTESIAN_POINT('',(-2.936889735235,-3.452287462033));
#270 = CARTESIAN_POINT('',(-2.937560214575,-3.278296048531));
#271 = CARTESIAN_POINT('',(-2.938227989688,-3.10356886414));
#272 = CARTESIAN_POINT('',(-2.93889307447,-2.92810191899));
#273 = ( GEOMETRIC_REPRESENTATION_CONTEXT(2) 
PARAMETRIC_REPRESENTATION_CONTEXT() REPRESENTATION_CONTEXT('2D SPACE',''
  ) );
#274 = PCURVE('',#275,#280);
#275 = PLANE('',#276);
#276 = AXIS2_PLACEMENT_3D('',#277,#278,#279);
#277 = CARTESIAN_POINT('',(5.,0.955,4.68810191899));
#278 = DIRECTION('',(0.,1.,0.));
#279 = DIRECTION('',(-1.,0.,0.));
#280 = DEFINITIONAL_REPRESENTATION('',(#281),#285);
#281 = HYPERBOLA('',#282,10.915699949137,0.955);
#282 = AXIS2_PLACEMENT_2D('',#283,#284);
#283 = CARTESIAN_POINT('',(5.,52.462159594816));
#284 = DIRECTION('',(0.,-1.));
#285 = ( GEOMETRIC_REPRESENTATION_CONTEXT(2) 
PARAMETRIC_REPRESENTATION_CONTEXT() REPRESENTATION_CONTEXT('2D SPACE',''
  ) );
#286 = ORIENTED_EDGE('',*,*,#287,.F.);
#287 = EDGE_CURVE('',#288,#256,#290,.T.);
#288 = VERTEX_POINT('',#289);
#289 = CARTESIAN_POINT('',(4.568971713219,0.955,3.798078768169));
#290 = SURFACE_CURVE('',#291,(#296,#303),.PCURVE_S1.);
#291 = CIRCLE('',#292,4.667711164607);
#292 = AXIS2_PLACEMENT_3D('',#293,#294,#295);
#293 = CARTESIAN_POINT('',(0.,0.,3.798078768169));
#294 = DIRECTION('',(0.,0.,1.));
#295 = DIRECTION('',(1.,0.,-0.));
#296 = PCURVE('',#43,#297);
#297 = DEFINITIONAL_REPRESENTATION('',(#298),#302);
#298 = LINE('',#299,#300);
#299 = CARTESIAN_POINT('',(-0.,-3.798078768169));
#300 = VECTOR('',#301,1.);
#301 = DIRECTION('',(-1.,-0.));
#302 = ( GEOMETRIC_REPRESENTATION_CONTEXT(2) 
PARAMETRIC_REPRESENTATION_CONTEXT() REPRESENTATION_CONTEXT('2D SPACE',''
  ) );
#303 = PCURVE('',#304,#309);
#304 = TOROIDAL_SURFACE('',#305,3.696421333967,0.975);
#305 = AXIS2_PLACEMENT_3D('',#306,#307,#308);
#306 = CARTESIAN_POINT('',(0.,0.,3.71310191899));
#307 = DIRECTION('',(0.,0.,1.));
#308 = DIRECTION('',(1.,0.,-0.));
#309 = DEFINITIONAL_REPRESENTATION('',(#310),#314);
#310 = LINE('',#311,#312);
#311 = CARTESIAN_POINT('',(0.,8.726646259972E-02));
#312 = VECTOR('',#313,1.);
#313 = DIRECTION('',(1.,0.));
#314 = ( GEOMETRIC_REPRESENTATION_CONTEXT(2) 
PARAMETRIC_REPRESENTATION_CONTEXT() REPRESENTATION_CONTEXT('2D SPACE',''
  ) );
#315 = ORIENTED_EDGE('',*,*,#316,.F.);
#316 = EDGE_CURVE('',#317,#288,#319,.T.);
#317 = VERTEX_POINT('',#318);
#318 = CARTESIAN_POINT('',(4.632410802622,0.955,3.08810191899));
#319 = SURFACE_CURVE('',#320,(#325,#335),.PCURVE_S1.);
#320 = HYPERBOLA('',#321,10.915699949137,0.955);
#321 = AXIS2_PLACEMENT_3D('',#322,#323,#324);
#322 = CARTESIAN_POINT('',(0.,0.955,57.150261513807));
#323 = DIRECTION('',(0.,1.,0.));
#324 = DIRECTION('',(0.,0.,-1.));
#325 = PCURVE('',#43,#326);
#326 = DEFINITIONAL_REPRESENTATION('',(#327),#334);
#327 = B_SPLINE_CURVE_WITH_KNOTS('',5,(#328,#329,#330,#331,#332,#333),
  .UNSPECIFIED.,.F.,.F.,(6,6),(-2.285745325776,-2.269226763794),
  .PIECEWISE_BEZIER_KNOTS.);
#328 = CARTESIAN_POINT('',(-0.202699579119,-2.92810191899));
#329 = CARTESIAN_POINT('',(-0.203364663902,-3.10356886414));
#330 = CARTESIAN_POINT('',(-0.204032439015,-3.278296048531));
#331 = CARTESIAN_POINT('',(-0.204702918355,-3.452287462033));
#332 = CARTESIAN_POINT('',(-0.205376115911,-3.62554706087));
#333 = CARTESIAN_POINT('',(-0.206052045768,-3.798078768169));
#334 = ( GEOMETRIC_REPRESENTATION_CONTEXT(2) 
PARAMETRIC_REPRESENTATION_CONTEXT() REPRESENTATION_CONTEXT('2D SPACE',''
  ) );
#335 = PCURVE('',#275,#336);
#336 = DEFINITIONAL_REPRESENTATION('',(#337),#341);
#337 = HYPERBOLA('',#338,10.915699949137,0.955);
#338 = AXIS2_PLACEMENT_2D('',#339,#340);
#339 = CARTESIAN_POINT('',(5.,52.462159594816));
#340 = DIRECTION('',(0.,-1.));
#341 = ( GEOMETRIC_REPRESENTATION_CONTEXT(2) 
PARAMETRIC_REPRESENTATION_CONTEXT() REPRESENTATION_CONTEXT('2D SPACE',''
  ) );
#342 = ORIENTED_EDGE('',*,*,#343,.F.);
#343 = EDGE_CURVE('',#90,#317,#344,.T.);
#344 = SURFACE_CURVE('',#345,(#350,#357),.PCURVE_S1.);
#345 = CIRCLE('',#346,4.729826090276);
#346 = AXIS2_PLACEMENT_3D('',#347,#348,#349);
#347 = CARTESIAN_POINT('',(0.,0.,3.08810191899));
#348 = DIRECTION('',(0.,0.,1.));
#349 = DIRECTION('',(1.,0.,-0.));
#350 = PCURVE('',#43,#351);
#351 = DEFINITIONAL_REPRESENTATION('',(#352),#356);
#352 = LINE('',#353,#354);
#353 = CARTESIAN_POINT('',(-0.,-3.08810191899));
#354 = VECTOR('',#355,1.);
#355 = DIRECTION('',(-1.,-0.));
#356 = ( GEOMETRIC_REPRESENTATION_CONTEXT(2) 
PARAMETRIC_REPRESENTATION_CONTEXT() REPRESENTATION_CONTEXT('2D SPACE',''
  ) );
#357 = PCURVE('',#131,#358);
#358 = DEFINITIONAL_REPRESENTATION('',(#359),#363);
#359 = CIRCLE('',#360,4.729826090276);
#360 = AXIS2_PLACEMENT_2D('',#361,#362);
#361 = CARTESIAN_POINT('',(7.457417461798E-17,0.));
#362 = DIRECTION('',(1.,0.));
#363 = ( GEOMETRIC_REPRESENTATION_CONTEXT(2) 
PARAMETRIC_REPRESENTATION_CONTEXT() REPRESENTATION_CONTEXT('2D SPACE',''
  ) );
#364 = ADVANCED_FACE('',(#365),#74,.T.);
#365 = FACE_BOUND('',#366,.F.);
#366 = EDGE_LOOP('',(#367,#390,#391,#392));
#367 = ORIENTED_EDGE('',*,*,#368,.T.);
#368 = EDGE_CURVE('',#369,#58,#371,.T.);
#369 = VERTEX_POINT('',#370);
#370 = CARTESIAN_POINT('',(2.458734122635,0.,-25.));
#371 = SEAM_CURVE('',#372,(#376,#383),.PCURVE_S1.);
#372 = LINE('',#373,#374);
#373 = CARTESIAN_POINT('',(2.458734122635,0.,-25.));
#374 = VECTOR('',#375,1.);
#375 = DIRECTION('',(0.,0.,1.));
#376 = PCURVE('',#74,#377);
#377 = DEFINITIONAL_REPRESENTATION('',(#378),#382);
#378 = LINE('',#379,#380);
#379 = CARTESIAN_POINT('',(-0.,0.));
#380 = VECTOR('',#381,1.);
#381 = DIRECTION('',(-0.,-1.));
#382 = ( GEOMETRIC_REPRESENTATION_CONTEXT(2) 
PARAMETRIC_REPRESENTATION_CONTEXT() REPRESENTATION_CONTEXT('2D SPACE',''
  ) );
#383 = PCURVE('',#74,#384);
#384 = DEFINITIONAL_REPRESENTATION('',(#385),#389);
#385 = LINE('',#386,#387);
#386 = CARTESIAN_POINT('',(-6.28318530718,0.));
#387 = VECTOR('',#388,1.);
#388 = DIRECTION('',(-0.,-1.));
#389 = ( GEOMETRIC_REPRESENTATION_CONTEXT(2) 
PARAMETRIC_REPRESENTATION_CONTEXT() REPRESENTATION_CONTEXT('2D SPACE',''
  ) );
#390 = ORIENTED_EDGE('',*,*,#57,.T.);
#391 = ORIENTED_EDGE('',*,*,#368,.F.);
#392 = ORIENTED_EDGE('',*,*,#393,.F.);
#393 = EDGE_CURVE('',#369,#369,#394,.T.);
#394 = SURFACE_CURVE('',#395,(#400,#407),.PCURVE_S1.);
#395 = CIRCLE('',#396,2.458734122635);
#396 = AXIS2_PLACEMENT_3D('',#397,#398,#399);
#397 = CARTESIAN_POINT('',(0.,0.,-25.));
#398 = DIRECTION('',(0.,0.,1.));
#399 = DIRECTION('',(1.,0.,-0.));
#400 = PCURVE('',#74,#401);
#401 = DEFINITIONAL_REPRESENTATION('',(#402),#406);
#402 = LINE('',#403,#404);
#403 = CARTESIAN_POINT('',(-0.,0.));
#404 = VECTOR('',#405,1.);
#405 = DIRECTION('',(-1.,0.));
#406 = ( GEOMETRIC_REPRESENTATION_CONTEXT(2) 
PARAMETRIC_REPRESENTATION_CONTEXT() REPRESENTATION_CONTEXT('2D SPACE',''
  ) );
#407 = PCURVE('',#408,#413);
#408 = PLANE('',#409);
#409 = AXIS2_PLACEMENT_3D('',#410,#411,#412);
#410 = CARTESIAN_POINT('',(-3.475976011271E-16,3.866967800953E-17,-25.)
  );
#411 = DIRECTION('',(0.,0.,1.));
#412 = DIRECTION('',(1.,0.,-0.));
#413 = DEFINITIONAL_REPRESENTATION('',(#414),#418);
#414 = CIRCLE('',#415,2.458734122635);
#415 = AXIS2_PLACEMENT_2D('',#416,#417);
#416 = CARTESIAN_POINT('',(3.475976011271E-16,-3.866967800953E-17));
#417 = DIRECTION('',(1.,0.));
#418 = ( GEOMETRIC_REPRESENTATION_CONTEXT(2) 
PARAMETRIC_REPRESENTATION_CONTEXT() REPRESENTATION_CONTEXT('2D SPACE',''
  ) );
#419 = ADVANCED_FACE('',(#420),#131,.T.);
#420 = FACE_BOUND('',#421,.T.);
#421 = EDGE_LOOP('',(#422,#423,#444,#445,#446));
#422 = ORIENTED_EDGE('',*,*,#231,.T.);
#423 = ORIENTED_EDGE('',*,*,#424,.T.);
#424 = EDGE_CURVE('',#205,#115,#425,.T.);
#425 = SURFACE_CURVE('',#426,(#430,#437),.PCURVE_S1.);
#426 = LINE('',#427,#428);
#427 = CARTESIAN_POINT('',(-5.,-0.955,3.08810191899));
#428 = VECTOR('',#429,1.);
#429 = DIRECTION('',(1.,0.,0.));
#430 = PCURVE('',#131,#431);
#431 = DEFINITIONAL_REPRESENTATION('',(#432),#436);
#432 = LINE('',#433,#434);
#433 = CARTESIAN_POINT('',(-5.,-0.955));
#434 = VECTOR('',#435,1.);
#435 = DIRECTION('',(1.,0.));
#436 = ( GEOMETRIC_REPRESENTATION_CONTEXT(2) 
PARAMETRIC_REPRESENTATION_CONTEXT() REPRESENTATION_CONTEXT('2D SPACE',''
  ) );
#437 = PCURVE('',#163,#438);
#438 = DEFINITIONAL_REPRESENTATION('',(#439),#443);
#439 = LINE('',#440,#441);
#440 = CARTESIAN_POINT('',(0.,-1.6));
#441 = VECTOR('',#442,1.);
#442 = DIRECTION('',(1.,0.));
#443 = ( GEOMETRIC_REPRESENTATION_CONTEXT(2) 
PARAMETRIC_REPRESENTATION_CONTEXT() REPRESENTATION_CONTEXT('2D SPACE',''
  ) );
#444 = ORIENTED_EDGE('',*,*,#114,.T.);
#445 = ORIENTED_EDGE('',*,*,#343,.T.);
#446 = ORIENTED_EDGE('',*,*,#447,.T.);
#447 = EDGE_CURVE('',#317,#232,#448,.T.);
#448 = SURFACE_CURVE('',#449,(#453,#460),.PCURVE_S1.);
#449 = LINE('',#450,#451);
#450 = CARTESIAN_POINT('',(5.,0.955,3.08810191899));
#451 = VECTOR('',#452,1.);
#452 = DIRECTION('',(-1.,0.,0.));
#453 = PCURVE('',#131,#454);
#454 = DEFINITIONAL_REPRESENTATION('',(#455),#459);
#455 = LINE('',#456,#457);
#456 = CARTESIAN_POINT('',(5.,0.955));
#457 = VECTOR('',#458,1.);
#458 = DIRECTION('',(-1.,0.));
#459 = ( GEOMETRIC_REPRESENTATION_CONTEXT(2) 
PARAMETRIC_REPRESENTATION_CONTEXT() REPRESENTATION_CONTEXT('2D SPACE',''
  ) );
#460 = PCURVE('',#275,#461);
#461 = DEFINITIONAL_REPRESENTATION('',(#462),#466);
#462 = LINE('',#463,#464);
#463 = CARTESIAN_POINT('',(0.,-1.6));
#464 = VECTOR('',#465,1.);
#465 = DIRECTION('',(1.,0.));
#466 = ( GEOMETRIC_REPRESENTATION_CONTEXT(2) 
PARAMETRIC_REPRESENTATION_CONTEXT() REPRESENTATION_CONTEXT('2D SPACE',''
  ) );
#467 = ADVANCED_FACE('',(#468),#275,.F.);
#468 = FACE_BOUND('',#469,.F.);
#469 = EDGE_LOOP('',(#470,#500,#563,#564,#565,#566));
#470 = ORIENTED_EDGE('',*,*,#471,.F.);
#471 = EDGE_CURVE('',#472,#474,#476,.T.);
#472 = VERTEX_POINT('',#473);
#473 = CARTESIAN_POINT('',(3.570925045168,0.955,4.68810191899));
#474 = VERTEX_POINT('',#475);
#475 = CARTESIAN_POINT('',(-3.570925045168,0.955,4.68810191899));
#476 = SURFACE_CURVE('',#477,(#481,#488),.PCURVE_S1.);
#477 = LINE('',#478,#479);
#478 = CARTESIAN_POINT('',(5.,0.955,4.68810191899));
#479 = VECTOR('',#480,1.);
#480 = DIRECTION('',(-1.,0.,0.));
#481 = PCURVE('',#275,#482);
#482 = DEFINITIONAL_REPRESENTATION('',(#483),#487);
#483 = LINE('',#484,#485);
#484 = CARTESIAN_POINT('',(0.,0.));
#485 = VECTOR('',#486,1.);
#486 = DIRECTION('',(1.,0.));
#487 = ( GEOMETRIC_REPRESENTATION_CONTEXT(2) 
PARAMETRIC_REPRESENTATION_CONTEXT() REPRESENTATION_CONTEXT('2D SPACE',''
  ) );
#488 = PCURVE('',#489,#494);
#489 = PLANE('',#490);
#490 = AXIS2_PLACEMENT_3D('',#491,#492,#493);
#491 = CARTESIAN_POINT('',(0.,0.,4.68810191899));
#492 = DIRECTION('',(0.,0.,1.));
#493 = DIRECTION('',(1.,0.,-0.));
#494 = DEFINITIONAL_REPRESENTATION('',(#495),#499);
#495 = LINE('',#496,#497);
#496 = CARTESIAN_POINT('',(5.,0.955));
#497 = VECTOR('',#498,1.);
#498 = DIRECTION('',(-1.,0.));
#499 = ( GEOMETRIC_REPRESENTATION_CONTEXT(2) 
PARAMETRIC_REPRESENTATION_CONTEXT() REPRESENTATION_CONTEXT('2D SPACE',''
  ) );
#500 = ORIENTED_EDGE('',*,*,#501,.F.);
#501 = EDGE_CURVE('',#288,#472,#502,.T.);
#502 = SURFACE_CURVE('',#503,(#521,#542),.PCURVE_S1.);
#503 = B_SPLINE_CURVE_WITH_KNOTS('',6,(#504,#505,#506,#507,#508,#509,
    #510,#511,#512,#513,#514,#515,#516,#517,#518,#519,#520),
  .UNSPECIFIED.,.F.,.F.,(7,5,5,7),(0.,0.412578679762,0.620508644945,1.),
  .UNSPECIFIED.);
#504 = CARTESIAN_POINT('',(4.568971713219,0.955,3.798078768169));
#505 = CARTESIAN_POINT('',(4.560047024604,0.955,3.897930542166));
#506 = CARTESIAN_POINT('',(4.538537306674,0.955,3.996701679984));
#507 = CARTESIAN_POINT('',(4.504618078389,0.955,4.092401700726));
#508 = CARTESIAN_POINT('',(4.45891684085,0.955,4.18316918433));
#509 = CARTESIAN_POINT('',(4.402396039287,0.955,4.267312416397));
#510 = CARTESIAN_POINT('',(4.303115054199,0.955,4.38174209985));
#511 = CARTESIAN_POINT('',(4.267431309786,0.955,4.418045171695));
#512 = CARTESIAN_POINT('',(4.229498083108,0.955,4.452125897922));
#513 = CARTESIAN_POINT('',(4.189497763298,0.955,4.483824458417));
#514 = CARTESIAN_POINT('',(4.147627239862,0.955,4.513002238807));
#515 = CARTESIAN_POINT('',(4.024646386626,0.955,4.587980550801));
#516 = CARTESIAN_POINT('',(3.939655215477,0.955,4.627638283767));
#517 = CARTESIAN_POINT('',(3.850402847178,0.955,4.657795820657));
#518 = CARTESIAN_POINT('',(3.758259874738,0.955,4.678016657377));
#519 = CARTESIAN_POINT('',(3.664628629401,0.955,4.68810191899));
#520 = CARTESIAN_POINT('',(3.570925045168,0.955,4.68810191899));
#521 = PCURVE('',#275,#522);
#522 = DEFINITIONAL_REPRESENTATION('',(#523),#541);
#523 = B_SPLINE_CURVE_WITH_KNOTS('',6,(#524,#525,#526,#527,#528,#529,
    #530,#531,#532,#533,#534,#535,#536,#537,#538,#539,#540),
  .UNSPECIFIED.,.F.,.F.,(7,5,5,7),(0.,0.412578679762,0.620508644945,1.),
  .UNSPECIFIED.);
#524 = CARTESIAN_POINT('',(0.431028286781,-0.890023150821));
#525 = CARTESIAN_POINT('',(0.439952975396,-0.790171376824));
#526 = CARTESIAN_POINT('',(0.461462693326,-0.691400239006));
#527 = CARTESIAN_POINT('',(0.495381921611,-0.595700218264));
#528 = CARTESIAN_POINT('',(0.54108315915,-0.50493273466));
#529 = CARTESIAN_POINT('',(0.597603960713,-0.420789502593));
#530 = CARTESIAN_POINT('',(0.696884945801,-0.30635981914));
#531 = CARTESIAN_POINT('',(0.732568690214,-0.270056747295));
#532 = CARTESIAN_POINT('',(0.770501916892,-0.235976021068));
#533 = CARTESIAN_POINT('',(0.810502236702,-0.204277460574));
#534 = CARTESIAN_POINT('',(0.852372760138,-0.175099680184));
#535 = CARTESIAN_POINT('',(0.975353613374,-0.100121368189));
#536 = CARTESIAN_POINT('',(1.060344784523,-6.046363522334E-02));
#537 = CARTESIAN_POINT('',(1.149597152822,-3.030609833371E-02));
#538 = CARTESIAN_POINT('',(1.241740125262,-1.008526161297E-02));
#539 = CARTESIAN_POINT('',(1.335371370599,0.));
#540 = CARTESIAN_POINT('',(1.429074954832,0.));
#541 = ( GEOMETRIC_REPRESENTATION_CONTEXT(2) 
PARAMETRIC_REPRESENTATION_CONTEXT() REPRESENTATION_CONTEXT('2D SPACE',''
  ) );
#542 = PCURVE('',#304,#543);
#543 = DEFINITIONAL_REPRESENTATION('',(#544),#562);
#544 = B_SPLINE_CURVE_WITH_KNOTS('',6,(#545,#546,#547,#548,#549,#550,
    #551,#552,#553,#554,#555,#556,#557,#558,#559,#560,#561),
  .UNSPECIFIED.,.F.,.F.,(7,5,5,7),(0.,0.412578679762,0.620508644945,1.),
  .UNSPECIFIED.);
#545 = CARTESIAN_POINT('',(0.206052045768,8.726646259972E-02));
#546 = CARTESIAN_POINT('',(0.206443236444,0.190069735986));
#547 = CARTESIAN_POINT('',(0.207387807169,0.292869567996));
#548 = CARTESIAN_POINT('',(0.208887429768,0.395575040763));
#549 = CARTESIAN_POINT('',(0.21094555054,0.498172601133));
#550 = CARTESIAN_POINT('',(0.21357183104,0.600649625884));
#551 = CARTESIAN_POINT('',(0.218380724561,0.754478408476));
#552 = CARTESIAN_POINT('',(0.220137447298,0.805982655789));
#553 = CARTESIAN_POINT('',(0.222040035201,0.857439085197));
#554 = CARTESIAN_POINT('',(0.224089014163,0.90884582013));
#555 = CARTESIAN_POINT('',(0.22628450721,0.960201797219));
#556 = CARTESIAN_POINT('',(0.232899127053,1.105137511411));
#557 = CARTESIAN_POINT('',(0.237658779161,1.198604156733));
#558 = CARTESIAN_POINT('',(0.24290052458,1.291879671605));
#559 = CARTESIAN_POINT('',(0.24861343685,1.384986303713));
#560 = CARTESIAN_POINT('',(0.254772776391,1.477952965808));
#561 = CARTESIAN_POINT('',(0.261322102846,1.570796326795));
#562 = ( GEOMETRIC_REPRESENTATION_CONTEXT(2) 
PARAMETRIC_REPRESENTATION_CONTEXT() REPRESENTATION_CONTEXT('2D SPACE',''
  ) );
#563 = ORIENTED_EDGE('',*,*,#316,.F.);
#564 = ORIENTED_EDGE('',*,*,#447,.T.);
#565 = ORIENTED_EDGE('',*,*,#255,.F.);
#566 = ORIENTED_EDGE('',*,*,#567,.T.);
#567 = EDGE_CURVE('',#256,#474,#568,.T.);
#568 = SURFACE_CURVE('',#569,(#587,#608),.PCURVE_S1.);
#569 = B_SPLINE_CURVE_WITH_KNOTS('',6,(#570,#571,#572,#573,#574,#575,
    #576,#577,#578,#579,#580,#581,#582,#583,#584,#585,#586),
  .UNSPECIFIED.,.F.,.F.,(7,5,5,7),(0.,0.412578679761,0.620508644945,1.),
  .UNSPECIFIED.);
#570 = CARTESIAN_POINT('',(-4.568971713219,0.955,3.798078768169));
#571 = CARTESIAN_POINT('',(-4.560047024604,0.955,3.897930542166));
#572 = CARTESIAN_POINT('',(-4.538537306674,0.955,3.996701679984));
#573 = CARTESIAN_POINT('',(-4.504618078389,0.955,4.092401700726));
#574 = CARTESIAN_POINT('',(-4.45891684085,0.955,4.18316918433));
#575 = CARTESIAN_POINT('',(-4.402396039287,0.955,4.267312416397));
#576 = CARTESIAN_POINT('',(-4.303115054199,0.955,4.38174209985));
#577 = CARTESIAN_POINT('',(-4.267431309786,0.955,4.418045171695));
#578 = CARTESIAN_POINT('',(-4.229498083108,0.955,4.452125897922));
#579 = CARTESIAN_POINT('',(-4.189497763298,0.955,4.483824458417));
#580 = CARTESIAN_POINT('',(-4.147627239862,0.955,4.513002238807));
#581 = CARTESIAN_POINT('',(-4.024646386626,0.955,4.587980550801));
#582 = CARTESIAN_POINT('',(-3.939655215477,0.955,4.627638283767));
#583 = CARTESIAN_POINT('',(-3.850402847178,0.955,4.657795820657));
#584 = CARTESIAN_POINT('',(-3.758259874738,0.955,4.678016657377));
#585 = CARTESIAN_POINT('',(-3.664628629401,0.955,4.68810191899));
#586 = CARTESIAN_POINT('',(-3.570925045168,0.955,4.68810191899));
#587 = PCURVE('',#275,#588);
#588 = DEFINITIONAL_REPRESENTATION('',(#589),#607);
#589 = B_SPLINE_CURVE_WITH_KNOTS('',6,(#590,#591,#592,#593,#594,#595,
    #596,#597,#598,#599,#600,#601,#602,#603,#604,#605,#606),
  .UNSPECIFIED.,.F.,.F.,(7,5,5,7),(0.,0.412578679761,0.620508644945,1.),
  .UNSPECIFIED.);
#590 = CARTESIAN_POINT('',(9.568971713219,-0.890023150821));
#591 = CARTESIAN_POINT('',(9.560047024604,-0.790171376824));
#592 = CARTESIAN_POINT('',(9.538537306674,-0.691400239006));
#593 = CARTESIAN_POINT('',(9.504618078389,-0.595700218264));
#594 = CARTESIAN_POINT('',(9.45891684085,-0.50493273466));
#595 = CARTESIAN_POINT('',(9.402396039287,-0.420789502593));
#596 = CARTESIAN_POINT('',(9.303115054199,-0.30635981914));
#597 = CARTESIAN_POINT('',(9.267431309786,-0.270056747295));
#598 = CARTESIAN_POINT('',(9.229498083108,-0.235976021068));
#599 = CARTESIAN_POINT('',(9.189497763298,-0.204277460574));
#600 = CARTESIAN_POINT('',(9.147627239862,-0.175099680184));
#601 = CARTESIAN_POINT('',(9.024646386626,-0.100121368189));
#602 = CARTESIAN_POINT('',(8.939655215477,-6.046363522338E-02));
#603 = CARTESIAN_POINT('',(8.850402847178,-3.030609833366E-02));
#604 = CARTESIAN_POINT('',(8.758259874738,-1.008526161299E-02));
#605 = CARTESIAN_POINT('',(8.664628629401,0.));
#606 = CARTESIAN_POINT('',(8.570925045168,0.));
#607 = ( GEOMETRIC_REPRESENTATION_CONTEXT(2) 
PARAMETRIC_REPRESENTATION_CONTEXT() REPRESENTATION_CONTEXT('2D SPACE',''
  ) );
#608 = PCURVE('',#304,#609);
#609 = DEFINITIONAL_REPRESENTATION('',(#610),#628);
#610 = B_SPLINE_CURVE_WITH_KNOTS('',6,(#611,#612,#613,#614,#615,#616,
    #617,#618,#619,#620,#621,#622,#623,#624,#625,#626,#627),
  .UNSPECIFIED.,.F.,.F.,(7,5,5,7),(0.,0.412578679761,0.620508644945,1.),
  .UNSPECIFIED.);
#611 = CARTESIAN_POINT('',(2.935540607822,8.726646259972E-02));
#612 = CARTESIAN_POINT('',(2.935149417145,0.190069735986));
#613 = CARTESIAN_POINT('',(2.93420484642,0.292869567996));
#614 = CARTESIAN_POINT('',(2.932705223822,0.395575040763));
#615 = CARTESIAN_POINT('',(2.93064710305,0.498172601133));
#616 = CARTESIAN_POINT('',(2.92802082255,0.600649625884));
#617 = CARTESIAN_POINT('',(2.923211929029,0.754478408476));
#618 = CARTESIAN_POINT('',(2.921455206292,0.805982655789));
#619 = CARTESIAN_POINT('',(2.919552618389,0.857439085197));
#620 = CARTESIAN_POINT('',(2.917503639427,0.90884582013));
#621 = CARTESIAN_POINT('',(2.915308146379,0.960201797219));
#622 = CARTESIAN_POINT('',(2.908693526537,1.105137511411));
#623 = CARTESIAN_POINT('',(2.903933874429,1.198604156733));
#624 = CARTESIAN_POINT('',(2.89869212901,1.291879671606));
#625 = CARTESIAN_POINT('',(2.89297921674,1.384986303713));
#626 = CARTESIAN_POINT('',(2.886819877199,1.477952965808));
#627 = CARTESIAN_POINT('',(2.880270550744,1.570796326795));
#628 = ( GEOMETRIC_REPRESENTATION_CONTEXT(2) 
PARAMETRIC_REPRESENTATION_CONTEXT() REPRESENTATION_CONTEXT('2D SPACE',''
  ) );
#629 = ADVANCED_FACE('',(#630),#304,.T.);
#630 = FACE_BOUND('',#631,.T.);
#631 = EDGE_LOOP('',(#632,#633,#634,#635));
#632 = ORIENTED_EDGE('',*,*,#501,.F.);
#633 = ORIENTED_EDGE('',*,*,#287,.T.);
#634 = ORIENTED_EDGE('',*,*,#567,.T.);
#635 = ORIENTED_EDGE('',*,*,#636,.F.);
#636 = EDGE_CURVE('',#472,#474,#637,.T.);
#637 = SURFACE_CURVE('',#638,(#643,#650),.PCURVE_S1.);
#638 = CIRCLE('',#639,3.696421333967);
#639 = AXIS2_PLACEMENT_3D('',#640,#641,#642);
#640 = CARTESIAN_POINT('',(0.,0.,4.68810191899));
#641 = DIRECTION('',(0.,0.,1.));
#642 = DIRECTION('',(1.,0.,-0.));
#643 = PCURVE('',#304,#644);
#644 = DEFINITIONAL_REPRESENTATION('',(#645),#649);
#645 = LINE('',#646,#647);
#646 = CARTESIAN_POINT('',(0.,1.570796326795));
#647 = VECTOR('',#648,1.);
#648 = DIRECTION('',(1.,0.));
#649 = ( GEOMETRIC_REPRESENTATION_CONTEXT(2) 
PARAMETRIC_REPRESENTATION_CONTEXT() REPRESENTATION_CONTEXT('2D SPACE',''
  ) );
#650 = PCURVE('',#489,#651);
#651 = DEFINITIONAL_REPRESENTATION('',(#652),#656);
#652 = CIRCLE('',#653,3.696421333967);
#653 = AXIS2_PLACEMENT_2D('',#654,#655);
#654 = CARTESIAN_POINT('',(0.,0.));
#655 = DIRECTION('',(1.,0.));
#656 = ( GEOMETRIC_REPRESENTATION_CONTEXT(2) 
PARAMETRIC_REPRESENTATION_CONTEXT() REPRESENTATION_CONTEXT('2D SPACE',''
  ) );
#657 = ADVANCED_FACE('',(#658),#163,.F.);
#658 = FACE_BOUND('',#659,.F.);
#659 = EDGE_LOOP('',(#660,#690,#753,#754,#755,#756));
#660 = ORIENTED_EDGE('',*,*,#661,.F.);
#661 = EDGE_CURVE('',#662,#664,#666,.T.);
#662 = VERTEX_POINT('',#663);
#663 = CARTESIAN_POINT('',(-3.570925045168,-0.955,4.68810191899));
#664 = VERTEX_POINT('',#665);
#665 = CARTESIAN_POINT('',(3.570925045168,-0.955,4.68810191899));
#666 = SURFACE_CURVE('',#667,(#671,#678),.PCURVE_S1.);
#667 = LINE('',#668,#669);
#668 = CARTESIAN_POINT('',(-5.,-0.955,4.68810191899));
#669 = VECTOR('',#670,1.);
#670 = DIRECTION('',(1.,0.,0.));
#671 = PCURVE('',#163,#672);
#672 = DEFINITIONAL_REPRESENTATION('',(#673),#677);
#673 = LINE('',#674,#675);
#674 = CARTESIAN_POINT('',(0.,0.));
#675 = VECTOR('',#676,1.);
#676 = DIRECTION('',(1.,0.));
#677 = ( GEOMETRIC_REPRESENTATION_CONTEXT(2) 
PARAMETRIC_REPRESENTATION_CONTEXT() REPRESENTATION_CONTEXT('2D SPACE',''
  ) );
#678 = PCURVE('',#679,#684);
#679 = PLANE('',#680);
#680 = AXIS2_PLACEMENT_3D('',#681,#682,#683);
#681 = CARTESIAN_POINT('',(0.,0.,4.68810191899));
#682 = DIRECTION('',(0.,0.,1.));
#683 = DIRECTION('',(1.,0.,-0.));
#684 = DEFINITIONAL_REPRESENTATION('',(#685),#689);
#685 = LINE('',#686,#687);
#686 = CARTESIAN_POINT('',(-5.,-0.955));
#687 = VECTOR('',#688,1.);
#688 = DIRECTION('',(1.,0.));
#689 = ( GEOMETRIC_REPRESENTATION_CONTEXT(2) 
PARAMETRIC_REPRESENTATION_CONTEXT() REPRESENTATION_CONTEXT('2D SPACE',''
  ) );
#690 = ORIENTED_EDGE('',*,*,#691,.F.);
#691 = EDGE_CURVE('',#176,#662,#692,.T.);
#692 = SURFACE_CURVE('',#693,(#711,#732),.PCURVE_S1.);
#693 = B_SPLINE_CURVE_WITH_KNOTS('',6,(#694,#695,#696,#697,#698,#699,
    #700,#701,#702,#703,#704,#705,#706,#707,#708,#709,#710),
  .UNSPECIFIED.,.F.,.F.,(7,5,5,7),(0.,0.412578679761,0.620508644945,1.),
  .UNSPECIFIED.);
#694 = CARTESIAN_POINT('',(-4.568971713219,-0.955,3.798078768169));
#695 = CARTESIAN_POINT('',(-4.560047024604,-0.955,3.897930542166));
#696 = CARTESIAN_POINT('',(-4.538537306674,-0.955,3.996701679984));
#697 = CARTESIAN_POINT('',(-4.504618078389,-0.955,4.092401700726));
#698 = CARTESIAN_POINT('',(-4.45891684085,-0.955,4.18316918433));
#699 = CARTESIAN_POINT('',(-4.402396039287,-0.955,4.267312416397));
#700 = CARTESIAN_POINT('',(-4.303115054199,-0.955,4.38174209985));
#701 = CARTESIAN_POINT('',(-4.267431309786,-0.955,4.418045171695));
#702 = CARTESIAN_POINT('',(-4.229498083108,-0.955,4.452125897922));
#703 = CARTESIAN_POINT('',(-4.189497763298,-0.955,4.483824458417));
#704 = CARTESIAN_POINT('',(-4.147627239862,-0.955,4.513002238807));
#705 = CARTESIAN_POINT('',(-4.024646386626,-0.955,4.587980550801));
#706 = CARTESIAN_POINT('',(-3.939655215477,-0.955,4.627638283767));
#707 = CARTESIAN_POINT('',(-3.850402847178,-0.955,4.657795820657));
#708 = CARTESIAN_POINT('',(-3.758259874738,-0.955,4.678016657377));
#709 = CARTESIAN_POINT('',(-3.664628629401,-0.955,4.68810191899));
#710 = CARTESIAN_POINT('',(-3.570925045168,-0.955,4.68810191899));
#711 = PCURVE('',#163,#712);
#712 = DEFINITIONAL_REPRESENTATION('',(#713),#731);
#713 = B_SPLINE_CURVE_WITH_KNOTS('',6,(#714,#715,#716,#717,#718,#719,
    #720,#721,#722,#723,#724,#725,#726,#727,#728,#729,#730),
  .UNSPECIFIED.,.F.,.F.,(7,5,5,7),(0.,0.412578679761,0.620508644945,1.),
  .UNSPECIFIED.);
#714 = CARTESIAN_POINT('',(0.431028286781,-0.890023150821));
#715 = CARTESIAN_POINT('',(0.439952975396,-0.790171376824));
#716 = CARTESIAN_POINT('',(0.461462693326,-0.691400239006));
#717 = CARTESIAN_POINT('',(0.495381921611,-0.595700218264));
#718 = CARTESIAN_POINT('',(0.54108315915,-0.50493273466));
#719 = CARTESIAN_POINT('',(0.597603960713,-0.420789502593));
#720 = CARTESIAN_POINT('',(0.696884945801,-0.30635981914));
#721 = CARTESIAN_POINT('',(0.732568690214,-0.270056747295));
#722 = CARTESIAN_POINT('',(0.770501916892,-0.235976021068));
#723 = CARTESIAN_POINT('',(0.810502236702,-0.204277460574));
#724 = CARTESIAN_POINT('',(0.852372760138,-0.175099680184));
#725 = CARTESIAN_POINT('',(0.975353613374,-0.100121368189));
#726 = CARTESIAN_POINT('',(1.060344784523,-6.046363522336E-02));
#727 = CARTESIAN_POINT('',(1.149597152822,-3.03060983337E-02));
#728 = CARTESIAN_POINT('',(1.241740125262,-1.008526161298E-02));
#729 = CARTESIAN_POINT('',(1.335371370599,0.));
#730 = CARTESIAN_POINT('',(1.429074954832,0.));
#731 = ( GEOMETRIC_REPRESENTATION_CONTEXT(2) 
PARAMETRIC_REPRESENTATION_CONTEXT() REPRESENTATION_CONTEXT('2D SPACE',''
  ) );
#732 = PCURVE('',#192,#733);
#733 = DEFINITIONAL_REPRESENTATION('',(#734),#752);
#734 = B_SPLINE_CURVE_WITH_KNOTS('',6,(#735,#736,#737,#738,#739,#740,
    #741,#742,#743,#744,#745,#746,#747,#748,#749,#750,#751),
  .UNSPECIFIED.,.F.,.F.,(7,5,5,7),(0.,0.412578679761,0.620508644945,1.),
  .UNSPECIFIED.);
#735 = CARTESIAN_POINT('',(3.347644699358,8.726646259972E-02));
#736 = CARTESIAN_POINT('',(3.348035890034,0.190069735986));
#737 = CARTESIAN_POINT('',(3.348980460759,0.292869567996));
#738 = CARTESIAN_POINT('',(3.350480083357,0.395575040763));
#739 = CARTESIAN_POINT('',(3.35253820413,0.498172601133));
#740 = CARTESIAN_POINT('',(3.355164484629,0.600649625884));
#741 = CARTESIAN_POINT('',(3.359973378151,0.754478408476));
#742 = CARTESIAN_POINT('',(3.361730100888,0.805982655789));
#743 = CARTESIAN_POINT('',(3.363632688791,0.857439085197));
#744 = CARTESIAN_POINT('',(3.365681667753,0.90884582013));
#745 = CARTESIAN_POINT('',(3.3678771608,0.960201797219));
#746 = CARTESIAN_POINT('',(3.374491780642,1.105137511411));
#747 = CARTESIAN_POINT('',(3.37925143275,1.198604156733));
#748 = CARTESIAN_POINT('',(3.38449317817,1.291879671606));
#749 = CARTESIAN_POINT('',(3.39020609044,1.384986303713));
#750 = CARTESIAN_POINT('',(3.39636542998,1.477952965808));
#751 = CARTESIAN_POINT('',(3.402914756436,1.570796326795));
#752 = ( GEOMETRIC_REPRESENTATION_CONTEXT(2) 
PARAMETRIC_REPRESENTATION_CONTEXT() REPRESENTATION_CONTEXT('2D SPACE',''
  ) );
#753 = ORIENTED_EDGE('',*,*,#204,.F.);
#754 = ORIENTED_EDGE('',*,*,#424,.T.);
#755 = ORIENTED_EDGE('',*,*,#143,.F.);
#756 = ORIENTED_EDGE('',*,*,#757,.T.);
#757 = EDGE_CURVE('',#144,#664,#758,.T.);
#758 = SURFACE_CURVE('',#759,(#777,#798),.PCURVE_S1.);
#759 = B_SPLINE_CURVE_WITH_KNOTS('',6,(#760,#761,#762,#763,#764,#765,
    #766,#767,#768,#769,#770,#771,#772,#773,#774,#775,#776),
  .UNSPECIFIED.,.F.,.F.,(7,5,5,7),(0.,0.412578679762,0.620508644945,1.),
  .UNSPECIFIED.);
#760 = CARTESIAN_POINT('',(4.568971713219,-0.955,3.798078768169));
#761 = CARTESIAN_POINT('',(4.560047024604,-0.955,3.897930542166));
#762 = CARTESIAN_POINT('',(4.538537306674,-0.955,3.996701679984));
#763 = CARTESIAN_POINT('',(4.504618078389,-0.955,4.092401700726));
#764 = CARTESIAN_POINT('',(4.45891684085,-0.955,4.18316918433));
#765 = CARTESIAN_POINT('',(4.402396039287,-0.955,4.267312416397));
#766 = CARTESIAN_POINT('',(4.303115054199,-0.955,4.38174209985));
#767 = CARTESIAN_POINT('',(4.267431309786,-0.955,4.418045171695));
#768 = CARTESIAN_POINT('',(4.229498083108,-0.955,4.452125897922));
#769 = CARTESIAN_POINT('',(4.189497763298,-0.955,4.483824458417));
#770 = CARTESIAN_POINT('',(4.147627239862,-0.955,4.513002238807));
#771 = CARTESIAN_POINT('',(4.024646386626,-0.955,4.587980550801));
#772 = CARTESIAN_POINT('',(3.939655215477,-0.955,4.627638283767));
#773 = CARTESIAN_POINT('',(3.850402847178,-0.955,4.657795820657));
#774 = CARTESIAN_POINT('',(3.758259874738,-0.955,4.678016657377));
#775 = CARTESIAN_POINT('',(3.664628629401,-0.955,4.68810191899));
#776 = CARTESIAN_POINT('',(3.570925045168,-0.955,4.68810191899));
#777 = PCURVE('',#163,#778);
#778 = DEFINITIONAL_REPRESENTATION('',(#779),#797);
#779 = B_SPLINE_CURVE_WITH_KNOTS('',6,(#780,#781,#782,#783,#784,#785,
    #786,#787,#788,#789,#790,#791,#792,#793,#794,#795,#796),
  .UNSPECIFIED.,.F.,.F.,(7,5,5,7),(0.,0.412578679762,0.620508644945,1.),
  .UNSPECIFIED.);
#780 = CARTESIAN_POINT('',(9.568971713219,-0.890023150821));
#781 = CARTESIAN_POINT('',(9.560047024604,-0.790171376824));
#782 = CARTESIAN_POINT('',(9.538537306674,-0.691400239006));
#783 = CARTESIAN_POINT('',(9.504618078389,-0.595700218264));
#784 = CARTESIAN_POINT('',(9.45891684085,-0.50493273466));
#785 = CARTESIAN_POINT('',(9.402396039287,-0.420789502593));
#786 = CARTESIAN_POINT('',(9.303115054199,-0.30635981914));
#787 = CARTESIAN_POINT('',(9.267431309786,-0.270056747295));
#788 = CARTESIAN_POINT('',(9.229498083108,-0.235976021068));
#789 = CARTESIAN_POINT('',(9.189497763298,-0.204277460574));
#790 = CARTESIAN_POINT('',(9.147627239862,-0.175099680184));
#791 = CARTESIAN_POINT('',(9.024646386626,-0.100121368189));
#792 = CARTESIAN_POINT('',(8.939655215477,-6.04636352233E-02));
#793 = CARTESIAN_POINT('',(8.850402847178,-3.030609833377E-02));
#794 = CARTESIAN_POINT('',(8.758259874738,-1.008526161295E-02));
#795 = CARTESIAN_POINT('',(8.664628629401,0.));
#796 = CARTESIAN_POINT('',(8.570925045168,0.));
#797 = ( GEOMETRIC_REPRESENTATION_CONTEXT(2) 
PARAMETRIC_REPRESENTATION_CONTEXT() REPRESENTATION_CONTEXT('2D SPACE',''
  ) );
#798 = PCURVE('',#192,#799);
#799 = DEFINITIONAL_REPRESENTATION('',(#800),#818);
#800 = B_SPLINE_CURVE_WITH_KNOTS('',6,(#801,#802,#803,#804,#805,#806,
    #807,#808,#809,#810,#811,#812,#813,#814,#815,#816,#817),
  .UNSPECIFIED.,.F.,.F.,(7,5,5,7),(0.,0.412578679762,0.620508644945,1.),
  .UNSPECIFIED.);
#801 = CARTESIAN_POINT('',(6.077133261412,8.726646259972E-02));
#802 = CARTESIAN_POINT('',(6.076742070735,0.190069735986));
#803 = CARTESIAN_POINT('',(6.07579750001,0.292869567996));
#804 = CARTESIAN_POINT('',(6.074297877412,0.395575040763));
#805 = CARTESIAN_POINT('',(6.072239756639,0.498172601133));
#806 = CARTESIAN_POINT('',(6.06961347614,0.600649625884));
#807 = CARTESIAN_POINT('',(6.064804582619,0.754478408476));
#808 = CARTESIAN_POINT('',(6.063047859881,0.805982655789));
#809 = CARTESIAN_POINT('',(6.061145271978,0.857439085197));
#810 = CARTESIAN_POINT('',(6.059096293016,0.90884582013));
#811 = CARTESIAN_POINT('',(6.056900799969,0.960201797219));
#812 = CARTESIAN_POINT('',(6.050286180127,1.105137511411));
#813 = CARTESIAN_POINT('',(6.045526528019,1.198604156733));
#814 = CARTESIAN_POINT('',(6.0402847826,1.291879671605));
#815 = CARTESIAN_POINT('',(6.03457187033,1.384986303713));
#816 = CARTESIAN_POINT('',(6.028412530789,1.477952965808));
#817 = CARTESIAN_POINT('',(6.021863204334,1.570796326795));
#818 = ( GEOMETRIC_REPRESENTATION_CONTEXT(2) 
PARAMETRIC_REPRESENTATION_CONTEXT() REPRESENTATION_CONTEXT('2D SPACE',''
  ) );
#819 = ADVANCED_FACE('',(#820),#192,.T.);
#820 = FACE_BOUND('',#821,.T.);
#821 = EDGE_LOOP('',(#822,#823,#824,#846));
#822 = ORIENTED_EDGE('',*,*,#175,.T.);
#823 = ORIENTED_EDGE('',*,*,#757,.T.);
#824 = ORIENTED_EDGE('',*,*,#825,.F.);
#825 = EDGE_CURVE('',#662,#664,#826,.T.);
#826 = SURFACE_CURVE('',#827,(#832,#839),.PCURVE_S1.);
#827 = CIRCLE('',#828,3.696421333967);
#828 = AXIS2_PLACEMENT_3D('',#829,#830,#831);
#829 = CARTESIAN_POINT('',(0.,0.,4.68810191899));
#830 = DIRECTION('',(0.,0.,1.));
#831 = DIRECTION('',(1.,0.,-0.));
#832 = PCURVE('',#192,#833);
#833 = DEFINITIONAL_REPRESENTATION('',(#834),#838);
#834 = LINE('',#835,#836);
#835 = CARTESIAN_POINT('',(0.,1.570796326795));
#836 = VECTOR('',#837,1.);
#837 = DIRECTION('',(1.,0.));
#838 = ( GEOMETRIC_REPRESENTATION_CONTEXT(2) 
PARAMETRIC_REPRESENTATION_CONTEXT() REPRESENTATION_CONTEXT('2D SPACE',''
  ) );
#839 = PCURVE('',#679,#840);
#840 = DEFINITIONAL_REPRESENTATION('',(#841),#845);
#841 = CIRCLE('',#842,3.696421333967);
#842 = AXIS2_PLACEMENT_2D('',#843,#844);
#843 = CARTESIAN_POINT('',(0.,0.));
#844 = DIRECTION('',(1.,0.));
#845 = ( GEOMETRIC_REPRESENTATION_CONTEXT(2) 
PARAMETRIC_REPRESENTATION_CONTEXT() REPRESENTATION_CONTEXT('2D SPACE',''
  ) );
#846 = ORIENTED_EDGE('',*,*,#691,.F.);
#847 = ADVANCED_FACE('',(#848),#408,.F.);
#848 = FACE_BOUND('',#849,.F.);
#849 = EDGE_LOOP('',(#850));
#850 = ORIENTED_EDGE('',*,*,#393,.T.);
#851 = ADVANCED_FACE('',(#852),#489,.T.);
#852 = FACE_BOUND('',#853,.T.);
#853 = EDGE_LOOP('',(#854,#855));
#854 = ORIENTED_EDGE('',*,*,#471,.F.);
#855 = ORIENTED_EDGE('',*,*,#636,.T.);
#856 = ADVANCED_FACE('',(#857),#679,.T.);
#857 = FACE_BOUND('',#858,.T.);
#858 = EDGE_LOOP('',(#859,#860));
#859 = ORIENTED_EDGE('',*,*,#825,.T.);
#860 = ORIENTED_EDGE('',*,*,#661,.F.);
#861 = ( GEOMETRIC_REPRESENTATION_CONTEXT(3) 
GLOBAL_UNCERTAINTY_ASSIGNED_CONTEXT((#865)) GLOBAL_UNIT_ASSIGNED_CONTEXT
((#862,#863,#864)) REPRESENTATION_CONTEXT('Context #1',
  '3D Context with UNIT and UNCERTAINTY') );
#862 = ( LENGTH_UNIT() NAMED_UNIT(*) SI_UNIT(.MILLI.,.METRE.) );
#863 = ( NAMED_UNIT(*) PLANE_ANGLE_UNIT() SI_UNIT($,.RADIAN.) );
#864 = ( NAMED_UNIT(*) SI_UNIT($,.STERADIAN.) SOLID_ANGLE_UNIT() );
#865 = UNCERTAINTY_MEASURE_WITH_UNIT(LENGTH_MEASURE(5.E-07),#862,
  'distance_accuracy_value','confusion accuracy');
#866 = PRODUCT_RELATED_PRODUCT_CATEGORY('part',$,(#7));
ENDSEC;
END-ISO-10303-21;
