ISO-10303-21;
HEADER;
FILE_DESCRIPTION(('Open CASCADE Model'),'2;1');
FILE_NAME('Open CASCADE Shape Model','2026-09-14T17:55:01',('Author'),(
    'Open CASCADE'),'Open CASCADE STEP processor 7.9','Open CASCADE 7.9'
  ,'Unknown');
FILE_SCHEMA(('AUTOMOTIVE_DESIGN { 1 0 10303 214 1 1 1 1 }'));
ENDSEC;
DATA;
#1 = APPLICATION_PROTOCOL_DEFINITION('international standard',
  'automotive_design',2000,#2);
#2 = APPLICATION_CONTEXT(
  'core data for automotive mechanical design processes');
#3 = SHAPE_DEFINITION_REPRESENTATION(#4,#10);
#4 = PRODUCT_DEFINITION_SHAPE('','',#5);
#5 = PRODUCT_DEFINITION('design','',#6,#9);
#6 = PRODUCT_DEFINITION_FORMATION('','',#7);
#7 = PRODUCT('Open CASCADE STEP translator 7.9 17',
  'Open CASCADE STEP translator 7.9 17','',(#8));
#8 = PRODUCT_CONTEXT('',#2,'mechanical');
#9 = PRODUCT_DEFINITION_CONTEXT('part definition',#2,'design');
#10 = ADVANCED_BREP_SHAPE_REPRESENTATION('',(#11,#15),#1156);
#11 = AXIS2_PLACEMENT_3D('',#12,#13,#14);
#12 = CARTESIAN_POINT('',(0.,0.,0.));
#13 = DIRECTION('',(0.,0.,1.));
#14 = DIRECTION('',(1.,0.,-0.));
#15 = MANIFOLD_SOLID_BREP('',#16);
#16 = CLOSED_SHELL('',(#17,#85,#141,#196,#450,#454,#568,#655,#742,#829,
    #916,#976,#1008,#1039,#1066,#1093,#1120,#1147));
#17 = ADVANCED_FACE('',(#18,#54),#31,.F.);
#18 = FACE_BOUND('',#19,.T.);
#19 = EDGE_LOOP('',(#20));
#20 = ORIENTED_EDGE('',*,*,#21,.F.);
#21 = EDGE_CURVE('',#22,#22,#24,.T.);
#22 = VERTEX_POINT('',#23);
#23 = CARTESIAN_POINT('',(8.4,0.,1.665334536938E-16));
#24 = SURFACE_CURVE('',#25,(#30,#42),.PCURVE_S1.);
#25 = CIRCLE('',#26,8.4);
#26 = AXIS2_PLACEMENT_3D('',#27,#28,#29);
#27 = CARTESIAN_POINT('',(0.,0.,1.665334536938E-16));
#28 = DIRECTION('',(0.,0.,1.));
#29 = DIRECTION('',(1.,0.,-0.));
#30 = PCURVE('',#31,#36);
#31 = PLANE('',#32);
#32 = AXIS2_PLACEMENT_3D('',#33,#34,#35);
#33 = CARTESIAN_POINT('',(0.,0.,0.));
#34 = DIRECTION('',(0.,0.,1.));
#35 = DIRECTION('',(1.,0.,-0.));
#36 = DEFINITIONAL_REPRESENTATION('',(#37),#41);
#37 = CIRCLE('',#38,8.4);
#38 = AXIS2_PLACEMENT_2D('',#39,#40);
#39 = CARTESIAN_POINT('',(0.,0.));
#40 = DIRECTION('',(1.,-0.));
#41 = ( GEOMETRIC_REPRESENTATION_CONTEXT(2) 
PARAMETRIC_REPRESENTATION_CONTEXT() REPRESENTATION_CONTEXT('2D SPACE',''
  ) );
#42 = PCURVE('',#43,#48);
#43 = TOROIDAL_SURFACE('',#44,8.4,0.6);
#44 = AXIS2_PLACEMENT_3D('',#45,#46,#47);
#45 = CARTESIAN_POINT('',(0.,0.,0.6));
#46 = DIRECTION('',(0.,0.,1.));
#47 = DIRECTION('',(1.,0.,-0.));
#48 = DEFINITIONAL_REPRESENTATION('',(#49),#53);
#49 = LINE('',#50,#51);
#50 = CARTESIAN_POINT('',(0.,4.712388980385));
#51 = VECTOR('',#52,1.);
#52 = DIRECTION('',(1.,0.));
#53 = ( GEOMETRIC_REPRESENTATION_CONTEXT(2) 
PARAMETRIC_REPRESENTATION_CONTEXT() REPRESENTATION_CONTEXT('2D SPACE',''
  ) );
#54 = FACE_BOUND('',#55,.T.);
#55 = EDGE_LOOP('',(#56));
#56 = ORIENTED_EDGE('',*,*,#57,.T.);
#57 = EDGE_CURVE('',#58,#58,#60,.T.);
#58 = VERTEX_POINT('',#59);
#59 = CARTESIAN_POINT('',(3.323417653293,0.,0.));
#60 = SURFACE_CURVE('',#61,(#66,#73),.PCURVE_S1.);
#61 = CIRCLE('',#62,3.323417653293);
#62 = AXIS2_PLACEMENT_3D('',#63,#64,#65);
#63 = CARTESIAN_POINT('',(0.,0.,0.));
#64 = DIRECTION('',(0.,0.,1.));
#65 = DIRECTION('',(1.,0.,-0.));
#66 = PCURVE('',#31,#67);
#67 = DEFINITIONAL_REPRESENTATION('',(#68),#72);
#68 = CIRCLE('',#69,3.323417653293);
#69 = AXIS2_PLACEMENT_2D('',#70,#71);
#70 = CARTESIAN_POINT('',(0.,0.));
#71 = DIRECTION('',(1.,-0.));
#72 = ( GEOMETRIC_REPRESENTATION_CONTEXT(2) 
PARAMETRIC_REPRESENTATION_CONTEXT() REPRESENTATION_CONTEXT('2D SPACE',''
  ) );
#73 = PCURVE('',#74,#79);
#74 = CYLINDRICAL_SURFACE('',#75,3.323417653293);
#75 = AXIS2_PLACEMENT_3D('',#76,#77,#78);
#76 = CARTESIAN_POINT('',(0.,0.,-30.));
#77 = DIRECTION('',(-0.,-0.,-1.));
#78 = DIRECTION('',(1.,0.,0.));
#79 = DEFINITIONAL_REPRESENTATION('',(#80),#84);
#80 = LINE('',#81,#82);
#81 = CARTESIAN_POINT('',(-0.,-30.));
#82 = VECTOR('',#83,1.);
#83 = DIRECTION('',(-1.,0.));
#84 = ( GEOMETRIC_REPRESENTATION_CONTEXT(2) 
PARAMETRIC_REPRESENTATION_CONTEXT() REPRESENTATION_CONTEXT('2D SPACE',''
  ) );
#85 = ADVANCED_FACE('',(#86),#43,.T.);
#86 = FACE_BOUND('',#87,.T.);
#87 = EDGE_LOOP('',(#88,#89,#113,#140));
#88 = ORIENTED_EDGE('',*,*,#21,.T.);
#89 = ORIENTED_EDGE('',*,*,#90,.T.);
#90 = EDGE_CURVE('',#22,#91,#93,.T.);
#91 = VERTEX_POINT('',#92);
#92 = CARTESIAN_POINT('',(8.653570957044,0.,1.143784672222));
#93 = SEAM_CURVE('',#94,(#99,#106),.PCURVE_S1.);
#94 = CIRCLE('',#95,0.6);
#95 = AXIS2_PLACEMENT_3D('',#96,#97,#98);
#96 = CARTESIAN_POINT('',(8.4,0.,0.6));
#97 = DIRECTION('',(0.,-1.,0.));
#98 = DIRECTION('',(-2.960594732334E-15,-0.,-1.));
#99 = PCURVE('',#43,#100);
#100 = DEFINITIONAL_REPRESENTATION('',(#101),#105);
#101 = LINE('',#102,#103);
#102 = CARTESIAN_POINT('',(0.,4.712388980385));
#103 = VECTOR('',#104,1.);
#104 = DIRECTION('',(0.,1.));
#105 = ( GEOMETRIC_REPRESENTATION_CONTEXT(2) 
PARAMETRIC_REPRESENTATION_CONTEXT() REPRESENTATION_CONTEXT('2D SPACE',''
  ) );
#106 = PCURVE('',#43,#107);
#107 = DEFINITIONAL_REPRESENTATION('',(#108),#112);
#108 = LINE('',#109,#110);
#109 = CARTESIAN_POINT('',(6.28318530718,4.712388980385));
#110 = VECTOR('',#111,1.);
#111 = DIRECTION('',(0.,1.));
#112 = ( GEOMETRIC_REPRESENTATION_CONTEXT(2) 
PARAMETRIC_REPRESENTATION_CONTEXT() REPRESENTATION_CONTEXT('2D SPACE',''
  ) );
#113 = ORIENTED_EDGE('',*,*,#114,.F.);
#114 = EDGE_CURVE('',#91,#91,#115,.T.);
#115 = SURFACE_CURVE('',#116,(#121,#128),.PCURVE_S1.);
#116 = CIRCLE('',#117,8.653570957044);
#117 = AXIS2_PLACEMENT_3D('',#118,#119,#120);
#118 = CARTESIAN_POINT('',(0.,0.,1.143784672222));
#119 = DIRECTION('',(0.,0.,1.));
#120 = DIRECTION('',(1.,0.,-0.));
#121 = PCURVE('',#43,#122);
#122 = DEFINITIONAL_REPRESENTATION('',(#123),#127);
#123 = LINE('',#124,#125);
#124 = CARTESIAN_POINT('',(0.,7.417649320976));
#125 = VECTOR('',#126,1.);
#126 = DIRECTION('',(1.,0.));
#127 = ( GEOMETRIC_REPRESENTATION_CONTEXT(2) 
PARAMETRIC_REPRESENTATION_CONTEXT() REPRESENTATION_CONTEXT('2D SPACE',''
  ) );
#128 = PCURVE('',#129,#134);
#129 = CONICAL_SURFACE('',#130,8.653570957044,1.134464013796);
#130 = AXIS2_PLACEMENT_3D('',#131,#132,#133);
#131 = CARTESIAN_POINT('',(0.,0.,1.143784672222));
#132 = DIRECTION('',(-0.,-0.,-1.));
#133 = DIRECTION('',(1.,0.,-0.));
#134 = DEFINITIONAL_REPRESENTATION('',(#135),#139);
#135 = LINE('',#136,#137);
#136 = CARTESIAN_POINT('',(-0.,-0.));
#137 = VECTOR('',#138,1.);
#138 = DIRECTION('',(-1.,-0.));
#139 = ( GEOMETRIC_REPRESENTATION_CONTEXT(2) 
PARAMETRIC_REPRESENTATION_CONTEXT() REPRESENTATION_CONTEXT('2D SPACE',''
  ) );
#140 = ORIENTED_EDGE('',*,*,#90,.F.);
#141 = ADVANCED_FACE('',(#142),#74,.T.);
#142 = FACE_BOUND('',#143,.F.);
#143 = EDGE_LOOP('',(#144,#167,#168,#169));
#144 = ORIENTED_EDGE('',*,*,#145,.T.);
#145 = EDGE_CURVE('',#146,#58,#148,.T.);
#146 = VERTEX_POINT('',#147);
#147 = CARTESIAN_POINT('',(3.323417653293,0.,-30.));
#148 = SEAM_CURVE('',#149,(#153,#160),.PCURVE_S1.);
#149 = LINE('',#150,#151);
#150 = CARTESIAN_POINT('',(3.323417653293,0.,-30.));
#151 = VECTOR('',#152,1.);
#152 = DIRECTION('',(0.,0.,1.));
#153 = PCURVE('',#74,#154);
#154 = DEFINITIONAL_REPRESENTATION('',(#155),#159);
#155 = LINE('',#156,#157);
#156 = CARTESIAN_POINT('',(-0.,0.));
#157 = VECTOR('',#158,1.);
#158 = DIRECTION('',(-0.,-1.));
#159 = ( GEOMETRIC_REPRESENTATION_CONTEXT(2) 
PARAMETRIC_REPRESENTATION_CONTEXT() REPRESENTATION_CONTEXT('2D SPACE',''
  ) );
#160 = PCURVE('',#74,#161);
#161 = DEFINITIONAL_REPRESENTATION('',(#162),#166);
#162 = LINE('',#163,#164);
#163 = CARTESIAN_POINT('',(-6.28318530718,0.));
#164 = VECTOR('',#165,1.);
#165 = DIRECTION('',(-0.,-1.));
#166 = ( GEOMETRIC_REPRESENTATION_CONTEXT(2) 
PARAMETRIC_REPRESENTATION_CONTEXT() REPRESENTATION_CONTEXT('2D SPACE',''
  ) );
#167 = ORIENTED_EDGE('',*,*,#57,.T.);
#168 = ORIENTED_EDGE('',*,*,#145,.F.);
#169 = ORIENTED_EDGE('',*,*,#170,.F.);
#170 = EDGE_CURVE('',#146,#146,#171,.T.);
#171 = SURFACE_CURVE('',#172,(#177,#184),.PCURVE_S1.);
#172 = CIRCLE('',#173,3.323417653293);
#173 = AXIS2_PLACEMENT_3D('',#174,#175,#176);
#174 = CARTESIAN_POINT('',(0.,0.,-30.));
#175 = DIRECTION('',(0.,0.,1.));
#176 = DIRECTION('',(1.,0.,-0.));
#177 = PCURVE('',#74,#178);
#178 = DEFINITIONAL_REPRESENTATION('',(#179),#183);
#179 = LINE('',#180,#181);
#180 = CARTESIAN_POINT('',(-0.,0.));
#181 = VECTOR('',#182,1.);
#182 = DIRECTION('',(-1.,0.));
#183 = ( GEOMETRIC_REPRESENTATION_CONTEXT(2) 
PARAMETRIC_REPRESENTATION_CONTEXT() REPRESENTATION_CONTEXT('2D SPACE',''
  ) );
#184 = PCURVE('',#185,#190);
#185 = PLANE('',#186);
#186 = AXIS2_PLACEMENT_3D('',#187,#188,#189);
#187 = CARTESIAN_POINT('',(-3.085919996809E-16,-1.356670930445E-16,-30.)
  );
#188 = DIRECTION('',(0.,0.,1.));
#189 = DIRECTION('',(1.,0.,-0.));
#190 = DEFINITIONAL_REPRESENTATION('',(#191),#195);
#191 = CIRCLE('',#192,3.323417653293);
#192 = AXIS2_PLACEMENT_2D('',#193,#194);
#193 = CARTESIAN_POINT('',(3.085919996809E-16,1.356670930445E-16));
#194 = DIRECTION('',(1.,0.));
#195 = ( GEOMETRIC_REPRESENTATION_CONTEXT(2) 
PARAMETRIC_REPRESENTATION_CONTEXT() REPRESENTATION_CONTEXT('2D SPACE',''
  ) );
#196 = ADVANCED_FACE('',(#197),#129,.T.);
#197 = FACE_BOUND('',#198,.T.);
#198 = EDGE_LOOP('',(#199,#222,#223,#224,#262,#300,#338,#376,#414));
#199 = ORIENTED_EDGE('',*,*,#200,.F.);
#200 = EDGE_CURVE('',#91,#201,#203,.T.);
#201 = VERTEX_POINT('',#202);
#202 = CARTESIAN_POINT('',(7.505553499465,0.,1.679114004387));
#203 = SEAM_CURVE('',#204,(#208,#215),.PCURVE_S1.);
#204 = LINE('',#205,#206);
#205 = CARTESIAN_POINT('',(8.653570957044,0.,1.143784672222));
#206 = VECTOR('',#207,1.);
#207 = DIRECTION('',(-0.906307787037,0.,0.422618261741));
#208 = PCURVE('',#129,#209);
#209 = DEFINITIONAL_REPRESENTATION('',(#210),#214);
#210 = LINE('',#211,#212);
#211 = CARTESIAN_POINT('',(-0.,-0.));
#212 = VECTOR('',#213,1.);
#213 = DIRECTION('',(-0.,-1.));
#214 = ( GEOMETRIC_REPRESENTATION_CONTEXT(2) 
PARAMETRIC_REPRESENTATION_CONTEXT() REPRESENTATION_CONTEXT('2D SPACE',''
  ) );
#215 = PCURVE('',#129,#216);
#216 = DEFINITIONAL_REPRESENTATION('',(#217),#221);
#217 = LINE('',#218,#219);
#218 = CARTESIAN_POINT('',(-6.28318530718,-0.));
#219 = VECTOR('',#220,1.);
#220 = DIRECTION('',(-0.,-1.));
#221 = ( GEOMETRIC_REPRESENTATION_CONTEXT(2) 
PARAMETRIC_REPRESENTATION_CONTEXT() REPRESENTATION_CONTEXT('2D SPACE',''
  ) );
#222 = ORIENTED_EDGE('',*,*,#114,.T.);
#223 = ORIENTED_EDGE('',*,*,#200,.T.);
#224 = ORIENTED_EDGE('',*,*,#225,.T.);
#225 = EDGE_CURVE('',#201,#226,#228,.T.);
#226 = VERTEX_POINT('',#227);
#227 = CARTESIAN_POINT('',(3.752776749733,-6.5,1.679114004387));
#228 = SURFACE_CURVE('',#229,(#234,#250),.PCURVE_S1.);
#229 = HYPERBOLA('',#230,3.030999778007,6.5);
#230 = AXIS2_PLACEMENT_3D('',#231,#232,#233);
#231 = CARTESIAN_POINT('',(5.629165124599,-3.25,5.179011079879));
#232 = DIRECTION('',(-0.866025403784,0.5,0.));
#233 = DIRECTION('',(0.,0.,-1.));
#234 = PCURVE('',#129,#235);
#235 = DEFINITIONAL_REPRESENTATION('',(#236),#249);
#236 = B_SPLINE_CURVE_WITH_KNOTS('',6,(#237,#238,#239,#240,#241,#242,
    #243,#244,#245,#246,#247,#248),.UNSPECIFIED.,.F.,.F.,(7,5,7),(
    -0.549306144334,4.873434103376E-02,0.646774826402),.UNSPECIFIED.);
#237 = CARTESIAN_POINT('',(-6.28318530718,-0.535329332165));
#238 = CARTESIAN_POINT('',(-6.196865598376,-0.709752677645));
#239 = CARTESIAN_POINT('',(-6.10538420306,-0.842451161149));
#240 = CARTESIAN_POINT('',(-6.009509223039,-0.936543724513));
#241 = CARTESIAN_POINT('',(-5.91056071075,-0.993906726227));
#242 = CARTESIAN_POINT('',(-5.810426637345,-1.015355515576));
#243 = CARTESIAN_POINT('',(-5.611316302796,-0.985897585264));
#244 = CARTESIAN_POINT('',(-5.512341282156,-0.934990855922));
#245 = CARTESIAN_POINT('',(-5.41571555952,-0.847643190134));
#246 = CARTESIAN_POINT('',(-5.323138379894,-0.722512199535));
#247 = CARTESIAN_POINT('',(-5.235626454544,-0.557164046433));
#248 = CARTESIAN_POINT('',(-5.153695412742,-0.347856031856));
#249 = ( GEOMETRIC_REPRESENTATION_CONTEXT(2) 
PARAMETRIC_REPRESENTATION_CONTEXT() REPRESENTATION_CONTEXT('2D SPACE',''
  ) );
#250 = PCURVE('',#251,#256);
#251 = PLANE('',#252);
#252 = AXIS2_PLACEMENT_3D('',#253,#254,#255);
#253 = CARTESIAN_POINT('',(3.752776749733,-6.5,0.));
#254 = DIRECTION('',(-0.866025403784,0.5,0.));
#255 = DIRECTION('',(0.5,0.866025403784,0.));
#256 = DEFINITIONAL_REPRESENTATION('',(#257),#261);
#257 = HYPERBOLA('',#258,3.030999778007,6.5);
#258 = AXIS2_PLACEMENT_2D('',#259,#260);
#259 = CARTESIAN_POINT('',(3.752776749733,-5.179011079879));
#260 = DIRECTION('',(0.,1.));
#261 = ( GEOMETRIC_REPRESENTATION_CONTEXT(2) 
PARAMETRIC_REPRESENTATION_CONTEXT() REPRESENTATION_CONTEXT('2D SPACE',''
  ) );
#262 = ORIENTED_EDGE('',*,*,#263,.T.);
#263 = EDGE_CURVE('',#226,#264,#266,.T.);
#264 = VERTEX_POINT('',#265);
#265 = CARTESIAN_POINT('',(-3.752776749733,-6.5,1.679114004387));
#266 = SURFACE_CURVE('',#267,(#272,#288),.PCURVE_S1.);
#267 = HYPERBOLA('',#268,3.030999778007,6.5);
#268 = AXIS2_PLACEMENT_3D('',#269,#270,#271);
#269 = CARTESIAN_POINT('',(-3.076740298214E-15,-6.5,5.179011079879));
#270 = DIRECTION('',(4.733446612636E-16,1.,0.));
#271 = DIRECTION('',(0.,0.,-1.));
#272 = PCURVE('',#129,#273);
#273 = DEFINITIONAL_REPRESENTATION('',(#274),#287);
#274 = B_SPLINE_CURVE_WITH_KNOTS('',6,(#275,#276,#277,#278,#279,#280,
    #281,#282,#283,#284,#285,#286),.UNSPECIFIED.,.F.,.F.,(7,5,7),(
    -0.646774826402,1.110223024625E-16,0.646774826402),.UNSPECIFIED.);
#275 = CARTESIAN_POINT('',(-5.318280099224,-0.347856031856));
#276 = CARTESIAN_POINT('',(-5.229672493828,-0.574220564199));
#277 = CARTESIAN_POINT('',(-5.134537590733,-0.749168749349));
#278 = CARTESIAN_POINT('',(-5.03352630303,-0.877434749615));
#279 = CARTESIAN_POINT('',(-4.927979766066,-0.961962554108));
#280 = CARTESIAN_POINT('',(-4.820184784785,-1.00422662965));
#281 = CARTESIAN_POINT('',(-4.604593175984,-1.00422662965));
#282 = CARTESIAN_POINT('',(-4.496798194703,-0.961962554108));
#283 = CARTESIAN_POINT('',(-4.391251657739,-0.877434749615));
#284 = CARTESIAN_POINT('',(-4.290240370036,-0.749168749349));
#285 = CARTESIAN_POINT('',(-4.195105466941,-0.574220564199));
#286 = CARTESIAN_POINT('',(-4.106497861545,-0.347856031856));
#287 = ( GEOMETRIC_REPRESENTATION_CONTEXT(2) 
PARAMETRIC_REPRESENTATION_CONTEXT() REPRESENTATION_CONTEXT('2D SPACE',''
  ) );
#288 = PCURVE('',#289,#294);
#289 = PLANE('',#290);
#290 = AXIS2_PLACEMENT_3D('',#291,#292,#293);
#291 = CARTESIAN_POINT('',(-3.752776749733,-6.5,0.));
#292 = DIRECTION('',(4.733446612636E-16,1.,-0.));
#293 = DIRECTION('',(1.,-4.733446612636E-16,0.));
#294 = DEFINITIONAL_REPRESENTATION('',(#295),#299);
#295 = HYPERBOLA('',#296,3.030999778007,6.5);
#296 = AXIS2_PLACEMENT_2D('',#297,#298);
#297 = CARTESIAN_POINT('',(3.752776749733,-5.179011079879));
#298 = DIRECTION('',(0.,1.));
#299 = ( GEOMETRIC_REPRESENTATION_CONTEXT(2) 
PARAMETRIC_REPRESENTATION_CONTEXT() REPRESENTATION_CONTEXT('2D SPACE',''
  ) );
#300 = ORIENTED_EDGE('',*,*,#301,.T.);
#301 = EDGE_CURVE('',#264,#302,#304,.T.);
#302 = VERTEX_POINT('',#303);
#303 = CARTESIAN_POINT('',(-7.505553499465,9.191652068949E-16,
    1.679114004387));
#304 = SURFACE_CURVE('',#305,(#310,#326),.PCURVE_S1.);
#305 = HYPERBOLA('',#306,3.030999778007,6.5);
#306 = AXIS2_PLACEMENT_3D('',#307,#308,#309);
#307 = CARTESIAN_POINT('',(-5.629165124599,-3.25,5.179011079879));
#308 = DIRECTION('',(0.866025403784,0.5,0.));
#309 = DIRECTION('',(0.,0.,-1.));
#310 = PCURVE('',#129,#311);
#311 = DEFINITIONAL_REPRESENTATION('',(#312),#325);
#312 = B_SPLINE_CURVE_WITH_KNOTS('',6,(#313,#314,#315,#316,#317,#318,
    #319,#320,#321,#322,#323,#324),.UNSPECIFIED.,.F.,.F.,(7,5,7),(
    -0.646774826402,-2.22044604925E-16,0.646774826402),.UNSPECIFIED.);
#313 = CARTESIAN_POINT('',(-4.271082548027,-0.347856031856));
#314 = CARTESIAN_POINT('',(-4.182474942631,-0.574220564199));
#315 = CARTESIAN_POINT('',(-4.087340039537,-0.749168749349));
#316 = CARTESIAN_POINT('',(-3.986328751834,-0.877434749615));
#317 = CARTESIAN_POINT('',(-3.880782214869,-0.961962554108));
#318 = CARTESIAN_POINT('',(-3.772987233588,-1.00422662965));
#319 = CARTESIAN_POINT('',(-3.557395624788,-1.00422662965));
#320 = CARTESIAN_POINT('',(-3.449600643507,-0.961962554108));
#321 = CARTESIAN_POINT('',(-3.344054106542,-0.877434749615));
#322 = CARTESIAN_POINT('',(-3.243042818839,-0.749168749349));
#323 = CARTESIAN_POINT('',(-3.147907915745,-0.574220564199));
#324 = CARTESIAN_POINT('',(-3.059300310349,-0.347856031856));
#325 = ( GEOMETRIC_REPRESENTATION_CONTEXT(2) 
PARAMETRIC_REPRESENTATION_CONTEXT() REPRESENTATION_CONTEXT('2D SPACE',''
  ) );
#326 = PCURVE('',#327,#332);
#327 = PLANE('',#328);
#328 = AXIS2_PLACEMENT_3D('',#329,#330,#331);
#329 = CARTESIAN_POINT('',(-7.505553499465,9.191652068949E-16,0.));
#330 = DIRECTION('',(0.866025403784,0.5,-0.));
#331 = DIRECTION('',(0.5,-0.866025403784,0.));
#332 = DEFINITIONAL_REPRESENTATION('',(#333),#337);
#333 = HYPERBOLA('',#334,3.030999778007,6.5);
#334 = AXIS2_PLACEMENT_2D('',#335,#336);
#335 = CARTESIAN_POINT('',(3.752776749733,-5.179011079879));
#336 = DIRECTION('',(0.,1.));
#337 = ( GEOMETRIC_REPRESENTATION_CONTEXT(2) 
PARAMETRIC_REPRESENTATION_CONTEXT() REPRESENTATION_CONTEXT('2D SPACE',''
  ) );
#338 = ORIENTED_EDGE('',*,*,#339,.T.);
#339 = EDGE_CURVE('',#302,#340,#342,.T.);
#340 = VERTEX_POINT('',#341);
#341 = CARTESIAN_POINT('',(-3.752776749733,6.5,1.679114004387));
#342 = SURFACE_CURVE('',#343,(#348,#364),.PCURVE_S1.);
#343 = HYPERBOLA('',#344,3.030999778007,6.5);
#344 = AXIS2_PLACEMENT_3D('',#345,#346,#347);
#345 = CARTESIAN_POINT('',(-5.629165124599,3.25,5.179011079879));
#346 = DIRECTION('',(0.866025403784,-0.5,0.));
#347 = DIRECTION('',(0.,-0.,-1.));
#348 = PCURVE('',#129,#349);
#349 = DEFINITIONAL_REPRESENTATION('',(#350),#363);
#350 = B_SPLINE_CURVE_WITH_KNOTS('',6,(#351,#352,#353,#354,#355,#356,
    #357,#358,#359,#360,#361,#362),.UNSPECIFIED.,.F.,.F.,(7,5,7),(
    -0.646774826402,-1.110223024625E-16,0.646774826402),.UNSPECIFIED.);
#351 = CARTESIAN_POINT('',(-3.223884996831,-0.347856031856));
#352 = CARTESIAN_POINT('',(-3.135277391435,-0.574220564199));
#353 = CARTESIAN_POINT('',(-3.04014248834,-0.749168749349));
#354 = CARTESIAN_POINT('',(-2.939131200637,-0.877434749615));
#355 = CARTESIAN_POINT('',(-2.833584663673,-0.961962554108));
#356 = CARTESIAN_POINT('',(-2.725789682392,-1.00422662965));
#357 = CARTESIAN_POINT('',(-2.510198073591,-1.00422662965));
#358 = CARTESIAN_POINT('',(-2.40240309231,-0.961962554108));
#359 = CARTESIAN_POINT('',(-2.296856555346,-0.877434749615));
#360 = CARTESIAN_POINT('',(-2.195845267643,-0.749168749349));
#361 = CARTESIAN_POINT('',(-2.100710364548,-0.574220564199));
#362 = CARTESIAN_POINT('',(-2.012102759152,-0.347856031856));
#363 = ( GEOMETRIC_REPRESENTATION_CONTEXT(2) 
PARAMETRIC_REPRESENTATION_CONTEXT() REPRESENTATION_CONTEXT('2D SPACE',''
  ) );
#364 = PCURVE('',#365,#370);
#365 = PLANE('',#366);
#366 = AXIS2_PLACEMENT_3D('',#367,#368,#369);
#367 = CARTESIAN_POINT('',(-3.752776749733,6.5,0.));
#368 = DIRECTION('',(0.866025403784,-0.5,0.));
#369 = DIRECTION('',(-0.5,-0.866025403784,0.));
#370 = DEFINITIONAL_REPRESENTATION('',(#371),#375);
#371 = HYPERBOLA('',#372,3.030999778007,6.5);
#372 = AXIS2_PLACEMENT_2D('',#373,#374);
#373 = CARTESIAN_POINT('',(3.752776749733,-5.179011079879));
#374 = DIRECTION('',(-0.,1.));
#375 = ( GEOMETRIC_REPRESENTATION_CONTEXT(2) 
PARAMETRIC_REPRESENTATION_CONTEXT() REPRESENTATION_CONTEXT('2D SPACE',''
  ) );
#376 = ORIENTED_EDGE('',*,*,#377,.T.);
#377 = EDGE_CURVE('',#340,#378,#380,.T.);
#378 = VERTEX_POINT('',#379);
#379 = CARTESIAN_POINT('',(3.752776749733,6.5,1.679114004387));
#380 = SURFACE_CURVE('',#381,(#386,#402),.PCURVE_S1.);
#381 = HYPERBOLA('',#382,3.030999778007,6.5);
#382 = AXIS2_PLACEMENT_3D('',#383,#384,#385);
#383 = CARTESIAN_POINT('',(7.691850745534E-16,6.5,5.179011079879));
#384 = DIRECTION('',(-1.183361653159E-16,-1.,0.));
#385 = DIRECTION('',(-0.,0.,-1.));
#386 = PCURVE('',#129,#387);
#387 = DEFINITIONAL_REPRESENTATION('',(#388),#401);
#388 = B_SPLINE_CURVE_WITH_KNOTS('',6,(#389,#390,#391,#392,#393,#394,
    #395,#396,#397,#398,#399,#400),.UNSPECIFIED.,.F.,.F.,(7,5,7),(
    -0.646774826402,1.110223024625E-16,0.646774826402),.UNSPECIFIED.);
#389 = CARTESIAN_POINT('',(-2.176687445634,-0.347856031856));
#390 = CARTESIAN_POINT('',(-2.088079840238,-0.574220564199));
#391 = CARTESIAN_POINT('',(-1.992944937144,-0.749168749349));
#392 = CARTESIAN_POINT('',(-1.89193364944,-0.877434749615));
#393 = CARTESIAN_POINT('',(-1.786387112476,-0.961962554108));
#394 = CARTESIAN_POINT('',(-1.678592131195,-1.00422662965));
#395 = CARTESIAN_POINT('',(-1.463000522395,-1.00422662965));
#396 = CARTESIAN_POINT('',(-1.355205541114,-0.961962554108));
#397 = CARTESIAN_POINT('',(-1.249659004149,-0.877434749615));
#398 = CARTESIAN_POINT('',(-1.148647716446,-0.749168749349));
#399 = CARTESIAN_POINT('',(-1.053512813351,-0.574220564199));
#400 = CARTESIAN_POINT('',(-0.964905207956,-0.347856031856));
#401 = ( GEOMETRIC_REPRESENTATION_CONTEXT(2) 
PARAMETRIC_REPRESENTATION_CONTEXT() REPRESENTATION_CONTEXT('2D SPACE',''
  ) );
#402 = PCURVE('',#403,#408);
#403 = PLANE('',#404);
#404 = AXIS2_PLACEMENT_3D('',#405,#406,#407);
#405 = CARTESIAN_POINT('',(3.752776749733,6.5,0.));
#406 = DIRECTION('',(-1.183361653159E-16,-1.,0.));
#407 = DIRECTION('',(-1.,1.183361653159E-16,0.));
#408 = DEFINITIONAL_REPRESENTATION('',(#409),#413);
#409 = HYPERBOLA('',#410,3.030999778007,6.5);
#410 = AXIS2_PLACEMENT_2D('',#411,#412);
#411 = CARTESIAN_POINT('',(3.752776749733,-5.179011079879));
#412 = DIRECTION('',(0.,1.));
#413 = ( GEOMETRIC_REPRESENTATION_CONTEXT(2) 
PARAMETRIC_REPRESENTATION_CONTEXT() REPRESENTATION_CONTEXT('2D SPACE',''
  ) );
#414 = ORIENTED_EDGE('',*,*,#415,.T.);
#415 = EDGE_CURVE('',#378,#201,#416,.T.);
#416 = SURFACE_CURVE('',#417,(#422,#438),.PCURVE_S1.);
#417 = HYPERBOLA('',#418,3.030999778007,6.5);
#418 = AXIS2_PLACEMENT_3D('',#419,#420,#421);
#419 = CARTESIAN_POINT('',(5.629165124599,3.25,5.179011079879));
#420 = DIRECTION('',(-0.866025403784,-0.5,0.));
#421 = DIRECTION('',(-0.,0.,-1.));
#422 = PCURVE('',#129,#423);
#423 = DEFINITIONAL_REPRESENTATION('',(#424),#437);
#424 = B_SPLINE_CURVE_WITH_KNOTS('',6,(#425,#426,#427,#428,#429,#430,
    #431,#432,#433,#434,#435,#436),.UNSPECIFIED.,.F.,.F.,(7,5,7),(
    -0.646774826402,-4.873434103376E-02,0.549306144334),.UNSPECIFIED.);
#425 = CARTESIAN_POINT('',(-1.129489894438,-0.347856031856));
#426 = CARTESIAN_POINT('',(-1.047558852636,-0.557164046433));
#427 = CARTESIAN_POINT('',(-0.960046927286,-0.722512199535));
#428 = CARTESIAN_POINT('',(-0.867469747659,-0.847643190134));
#429 = CARTESIAN_POINT('',(-0.770844025024,-0.934990855922));
#430 = CARTESIAN_POINT('',(-0.671869004384,-0.985897585264));
#431 = CARTESIAN_POINT('',(-0.472758669835,-1.015355515576));
#432 = CARTESIAN_POINT('',(-0.37262459643,-0.993906726227));
#433 = CARTESIAN_POINT('',(-0.273676084141,-0.936543724513));
#434 = CARTESIAN_POINT('',(-0.177801104119,-0.842451161149));
#435 = CARTESIAN_POINT('',(-8.631970880335E-02,-0.709752677645));
#436 = CARTESIAN_POINT('',(-1.183361653159E-16,-0.535329332165));
#437 = ( GEOMETRIC_REPRESENTATION_CONTEXT(2) 
PARAMETRIC_REPRESENTATION_CONTEXT() REPRESENTATION_CONTEXT('2D SPACE',''
  ) );
#438 = PCURVE('',#439,#444);
#439 = PLANE('',#440);
#440 = AXIS2_PLACEMENT_3D('',#441,#442,#443);
#441 = CARTESIAN_POINT('',(7.505553499465,0.,0.));
#442 = DIRECTION('',(-0.866025403784,-0.5,0.));
#443 = DIRECTION('',(-0.5,0.866025403784,0.));
#444 = DEFINITIONAL_REPRESENTATION('',(#445),#449);
#445 = HYPERBOLA('',#446,3.030999778007,6.5);
#446 = AXIS2_PLACEMENT_2D('',#447,#448);
#447 = CARTESIAN_POINT('',(3.752776749733,-5.179011079879));
#448 = DIRECTION('',(0.,1.));
#449 = ( GEOMETRIC_REPRESENTATION_CONTEXT(2) 
PARAMETRIC_REPRESENTATION_CONTEXT() REPRESENTATION_CONTEXT('2D SPACE',''
  ) );
#450 = ADVANCED_FACE('',(#451),#185,.F.);
#451 = FACE_BOUND('',#452,.F.);
#452 = EDGE_LOOP('',(#453));
#453 = ORIENTED_EDGE('',*,*,#170,.T.);
#454 = ADVANCED_FACE('',(#455),#439,.F.);
#455 = FACE_BOUND('',#456,.F.);
#456 = EDGE_LOOP('',(#457,#458,#481,#514,#547));
#457 = ORIENTED_EDGE('',*,*,#415,.T.);
#458 = ORIENTED_EDGE('',*,*,#459,.T.);
#459 = EDGE_CURVE('',#201,#460,#462,.T.);
#460 = VERTEX_POINT('',#461);
#461 = CARTESIAN_POINT('',(7.505553499465,0.,7.830562751872));
#462 = SURFACE_CURVE('',#463,(#467,#474),.PCURVE_S1.);
#463 = LINE('',#464,#465);
#464 = CARTESIAN_POINT('',(7.505553499465,0.,0.));
#465 = VECTOR('',#466,1.);
#466 = DIRECTION('',(0.,0.,1.));
#467 = PCURVE('',#439,#468);
#468 = DEFINITIONAL_REPRESENTATION('',(#469),#473);
#469 = LINE('',#470,#471);
#470 = CARTESIAN_POINT('',(0.,0.));
#471 = VECTOR('',#472,1.);
#472 = DIRECTION('',(0.,-1.));
#473 = ( GEOMETRIC_REPRESENTATION_CONTEXT(2) 
PARAMETRIC_REPRESENTATION_CONTEXT() REPRESENTATION_CONTEXT('2D SPACE',''
  ) );
#474 = PCURVE('',#251,#475);
#475 = DEFINITIONAL_REPRESENTATION('',(#476),#480);
#476 = LINE('',#477,#478);
#477 = CARTESIAN_POINT('',(7.505553499465,0.));
#478 = VECTOR('',#479,1.);
#479 = DIRECTION('',(0.,-1.));
#480 = ( GEOMETRIC_REPRESENTATION_CONTEXT(2) 
PARAMETRIC_REPRESENTATION_CONTEXT() REPRESENTATION_CONTEXT('2D SPACE',''
  ) );
#481 = ORIENTED_EDGE('',*,*,#482,.F.);
#482 = EDGE_CURVE('',#483,#460,#485,.T.);
#483 = VERTEX_POINT('',#484);
#484 = CARTESIAN_POINT('',(5.629165108067,3.250000028634,8.1));
#485 = SURFACE_CURVE('',#486,(#491,#498),.PCURVE_S1.);
#486 = HYPERBOLA('',#487,1.741669750802,6.5);
#487 = AXIS2_PLACEMENT_3D('',#488,#489,#490);
#488 = CARTESIAN_POINT('',(5.629165124599,3.25,9.841669750802));
#489 = DIRECTION('',(-0.866025403784,-0.5,0.));
#490 = DIRECTION('',(-0.,0.,-1.));
#491 = PCURVE('',#439,#492);
#492 = DEFINITIONAL_REPRESENTATION('',(#493),#497);
#493 = HYPERBOLA('',#494,1.741669750802,6.5);
#494 = AXIS2_PLACEMENT_2D('',#495,#496);
#495 = CARTESIAN_POINT('',(3.752776749733,-9.841669750802));
#496 = DIRECTION('',(0.,1.));
#497 = ( GEOMETRIC_REPRESENTATION_CONTEXT(2) 
PARAMETRIC_REPRESENTATION_CONTEXT() REPRESENTATION_CONTEXT('2D SPACE',''
  ) );
#498 = PCURVE('',#499,#504);
#499 = CONICAL_SURFACE('',#500,7.505553499465,1.308996938996);
#500 = AXIS2_PLACEMENT_3D('',#501,#502,#503);
#501 = CARTESIAN_POINT('',(0.,0.,7.830562751872));
#502 = DIRECTION('',(-0.,-0.,-1.));
#503 = DIRECTION('',(1.,0.,-0.));
#504 = DEFINITIONAL_REPRESENTATION('',(#505),#513);
#505 = B_SPLINE_CURVE_WITH_KNOTS('',6,(#506,#507,#508,#509,#510,#511,
    #512),.UNSPECIFIED.,.F.,.F.,(7,7),(-3.733151644318E-16,
    0.549306144334),.PIECEWISE_BEZIER_KNOTS.);
#506 = CARTESIAN_POINT('',(-6.806784082778,-0.269437248128));
#507 = CARTESIAN_POINT('',(-6.715233058722,-0.269437248128));
#508 = CARTESIAN_POINT('',(-6.623682461795,-0.251919686347));
#509 = CARTESIAN_POINT('',(-6.53351011688,-0.216884616431));
#510 = CARTESIAN_POINT('',(-6.446111296363,-0.163891385271));
#511 = CARTESIAN_POINT('',(-6.362470819754,-9.20594526188E-02));
#512 = CARTESIAN_POINT('',(-6.28318530718,5.949667257335E-17));
#513 = ( GEOMETRIC_REPRESENTATION_CONTEXT(2) 
PARAMETRIC_REPRESENTATION_CONTEXT() REPRESENTATION_CONTEXT('2D SPACE',''
  ) );
#514 = ORIENTED_EDGE('',*,*,#515,.F.);
#515 = EDGE_CURVE('',#516,#483,#518,.T.);
#516 = VERTEX_POINT('',#517);
#517 = CARTESIAN_POINT('',(3.752776749732,6.5,7.830562751872));
#518 = SURFACE_CURVE('',#519,(#524,#531),.PCURVE_S1.);
#519 = HYPERBOLA('',#520,1.741669750802,6.5);
#520 = AXIS2_PLACEMENT_3D('',#521,#522,#523);
#521 = CARTESIAN_POINT('',(5.629165124599,3.25,9.841669750802));
#522 = DIRECTION('',(-0.866025403784,-0.5,0.));
#523 = DIRECTION('',(-0.,0.,-1.));
#524 = PCURVE('',#439,#525);
#525 = DEFINITIONAL_REPRESENTATION('',(#526),#530);
#526 = HYPERBOLA('',#527,1.741669750802,6.5);
#527 = AXIS2_PLACEMENT_2D('',#528,#529);
#528 = CARTESIAN_POINT('',(3.752776749733,-9.841669750802));
#529 = DIRECTION('',(0.,1.));
#530 = ( GEOMETRIC_REPRESENTATION_CONTEXT(2) 
PARAMETRIC_REPRESENTATION_CONTEXT() REPRESENTATION_CONTEXT('2D SPACE',''
  ) );
#531 = PCURVE('',#532,#537);
#532 = CONICAL_SURFACE('',#533,7.505553499465,1.308996938996);
#533 = AXIS2_PLACEMENT_3D('',#534,#535,#536);
#534 = CARTESIAN_POINT('',(0.,0.,7.830562751872));
#535 = DIRECTION('',(-0.,-0.,-1.));
#536 = DIRECTION('',(1.,0.,-0.));
#537 = DEFINITIONAL_REPRESENTATION('',(#538),#546);
#538 = B_SPLINE_CURVE_WITH_KNOTS('',6,(#539,#540,#541,#542,#543,#544,
    #545),.UNSPECIFIED.,.F.,.F.,(7,7),(-0.549306144334,
    -3.733151644318E-16),.PIECEWISE_BEZIER_KNOTS.);
#539 = CARTESIAN_POINT('',(-1.047197551197,2.815412774984E-16));
#540 = CARTESIAN_POINT('',(-0.967912038622,-9.20594526188E-02));
#541 = CARTESIAN_POINT('',(-0.884271562013,-0.163891385271));
#542 = CARTESIAN_POINT('',(-0.796872741496,-0.216884616431));
#543 = CARTESIAN_POINT('',(-0.706700396581,-0.251919686347));
#544 = CARTESIAN_POINT('',(-0.615149799654,-0.269437248128));
#545 = CARTESIAN_POINT('',(-0.523598775598,-0.269437248128));
#546 = ( GEOMETRIC_REPRESENTATION_CONTEXT(2) 
PARAMETRIC_REPRESENTATION_CONTEXT() REPRESENTATION_CONTEXT('2D SPACE',''
  ) );
#547 = ORIENTED_EDGE('',*,*,#548,.F.);
#548 = EDGE_CURVE('',#378,#516,#549,.T.);
#549 = SURFACE_CURVE('',#550,(#554,#561),.PCURVE_S1.);
#550 = LINE('',#551,#552);
#551 = CARTESIAN_POINT('',(3.752776749733,6.5,0.));
#552 = VECTOR('',#553,1.);
#553 = DIRECTION('',(0.,0.,1.));
#554 = PCURVE('',#439,#555);
#555 = DEFINITIONAL_REPRESENTATION('',(#556),#560);
#556 = LINE('',#557,#558);
#557 = CARTESIAN_POINT('',(7.505553499465,0.));
#558 = VECTOR('',#559,1.);
#559 = DIRECTION('',(0.,-1.));
#560 = ( GEOMETRIC_REPRESENTATION_CONTEXT(2) 
PARAMETRIC_REPRESENTATION_CONTEXT() REPRESENTATION_CONTEXT('2D SPACE',''
  ) );
#561 = PCURVE('',#403,#562);
#562 = DEFINITIONAL_REPRESENTATION('',(#563),#567);
#563 = LINE('',#564,#565);
#564 = CARTESIAN_POINT('',(0.,0.));
#565 = VECTOR('',#566,1.);
#566 = DIRECTION('',(0.,-1.));
#567 = ( GEOMETRIC_REPRESENTATION_CONTEXT(2) 
PARAMETRIC_REPRESENTATION_CONTEXT() REPRESENTATION_CONTEXT('2D SPACE',''
  ) );
#568 = ADVANCED_FACE('',(#569),#403,.F.);
#569 = FACE_BOUND('',#570,.F.);
#570 = EDGE_LOOP('',(#571,#572,#573,#601,#634));
#571 = ORIENTED_EDGE('',*,*,#377,.T.);
#572 = ORIENTED_EDGE('',*,*,#548,.T.);
#573 = ORIENTED_EDGE('',*,*,#574,.F.);
#574 = EDGE_CURVE('',#575,#516,#577,.T.);
#575 = VERTEX_POINT('',#576);
#576 = CARTESIAN_POINT('',(2.11240581463E-08,6.5,8.1));
#577 = SURFACE_CURVE('',#578,(#583,#590),.PCURVE_S1.);
#578 = HYPERBOLA('',#579,1.741669750802,6.5);
#579 = AXIS2_PLACEMENT_3D('',#580,#581,#582);
#580 = CARTESIAN_POINT('',(7.691850745534E-16,6.5,9.841669750802));
#581 = DIRECTION('',(-1.183361653159E-16,-1.,0.));
#582 = DIRECTION('',(-0.,0.,-1.));
#583 = PCURVE('',#403,#584);
#584 = DEFINITIONAL_REPRESENTATION('',(#585),#589);
#585 = HYPERBOLA('',#586,1.741669750802,6.5);
#586 = AXIS2_PLACEMENT_2D('',#587,#588);
#587 = CARTESIAN_POINT('',(3.752776749733,-9.841669750802));
#588 = DIRECTION('',(0.,1.));
#589 = ( GEOMETRIC_REPRESENTATION_CONTEXT(2) 
PARAMETRIC_REPRESENTATION_CONTEXT() REPRESENTATION_CONTEXT('2D SPACE',''
  ) );
#590 = PCURVE('',#532,#591);
#591 = DEFINITIONAL_REPRESENTATION('',(#592),#600);
#592 = B_SPLINE_CURVE_WITH_KNOTS('',6,(#593,#594,#595,#596,#597,#598,
    #599),.UNSPECIFIED.,.F.,.F.,(7,7),(-5.710382535854E-17,
    0.549306144334),.PIECEWISE_BEZIER_KNOTS.);
#593 = CARTESIAN_POINT('',(-1.570796326795,-0.269437248128));
#594 = CARTESIAN_POINT('',(-1.479245302739,-0.269437248128));
#595 = CARTESIAN_POINT('',(-1.387694705812,-0.251919686347));
#596 = CARTESIAN_POINT('',(-1.297522360897,-0.216884616431));
#597 = CARTESIAN_POINT('',(-1.21012354038,-0.163891385271));
#598 = CARTESIAN_POINT('',(-1.126483063771,-9.20594526188E-02));
#599 = CARTESIAN_POINT('',(-1.047197551197,5.949667257335E-17));
#600 = ( GEOMETRIC_REPRESENTATION_CONTEXT(2) 
PARAMETRIC_REPRESENTATION_CONTEXT() REPRESENTATION_CONTEXT('2D SPACE',''
  ) );
#601 = ORIENTED_EDGE('',*,*,#602,.F.);
#602 = EDGE_CURVE('',#603,#575,#605,.T.);
#603 = VERTEX_POINT('',#604);
#604 = CARTESIAN_POINT('',(-3.752776749733,6.5,7.830562751872));
#605 = SURFACE_CURVE('',#606,(#611,#618),.PCURVE_S1.);
#606 = HYPERBOLA('',#607,1.741669750802,6.5);
#607 = AXIS2_PLACEMENT_3D('',#608,#609,#610);
#608 = CARTESIAN_POINT('',(7.691850745534E-16,6.5,9.841669750802));
#609 = DIRECTION('',(-1.183361653159E-16,-1.,0.));
#610 = DIRECTION('',(-0.,0.,-1.));
#611 = PCURVE('',#403,#612);
#612 = DEFINITIONAL_REPRESENTATION('',(#613),#617);
#613 = HYPERBOLA('',#614,1.741669750802,6.5);
#614 = AXIS2_PLACEMENT_2D('',#615,#616);
#615 = CARTESIAN_POINT('',(3.752776749733,-9.841669750802));
#616 = DIRECTION('',(0.,1.));
#617 = ( GEOMETRIC_REPRESENTATION_CONTEXT(2) 
PARAMETRIC_REPRESENTATION_CONTEXT() REPRESENTATION_CONTEXT('2D SPACE',''
  ) );
#618 = PCURVE('',#619,#624);
#619 = CONICAL_SURFACE('',#620,7.505553499465,1.308996938996);
#620 = AXIS2_PLACEMENT_3D('',#621,#622,#623);
#621 = CARTESIAN_POINT('',(0.,0.,7.830562751872));
#622 = DIRECTION('',(-0.,-0.,-1.));
#623 = DIRECTION('',(1.,0.,-0.));
#624 = DEFINITIONAL_REPRESENTATION('',(#625),#633);
#625 = B_SPLINE_CURVE_WITH_KNOTS('',6,(#626,#627,#628,#629,#630,#631,
    #632),.UNSPECIFIED.,.F.,.F.,(7,7),(-0.549306144334,
    -5.710382535854E-17),.PIECEWISE_BEZIER_KNOTS.);
#626 = CARTESIAN_POINT('',(-2.094395102393,-1.625479323517E-16));
#627 = CARTESIAN_POINT('',(-2.015109589818,-9.20594526188E-02));
#628 = CARTESIAN_POINT('',(-1.93146911321,-0.163891385271));
#629 = CARTESIAN_POINT('',(-1.844070292693,-0.216884616431));
#630 = CARTESIAN_POINT('',(-1.753897947778,-0.251919686347));
#631 = CARTESIAN_POINT('',(-1.662347350851,-0.269437248128));
#632 = CARTESIAN_POINT('',(-1.570796326795,-0.269437248128));
#633 = ( GEOMETRIC_REPRESENTATION_CONTEXT(2) 
PARAMETRIC_REPRESENTATION_CONTEXT() REPRESENTATION_CONTEXT('2D SPACE',''
  ) );
#634 = ORIENTED_EDGE('',*,*,#635,.F.);
#635 = EDGE_CURVE('',#340,#603,#636,.T.);
#636 = SURFACE_CURVE('',#637,(#641,#648),.PCURVE_S1.);
#637 = LINE('',#638,#639);
#638 = CARTESIAN_POINT('',(-3.752776749733,6.5,0.));
#639 = VECTOR('',#640,1.);
#640 = DIRECTION('',(0.,0.,1.));
#641 = PCURVE('',#403,#642);
#642 = DEFINITIONAL_REPRESENTATION('',(#643),#647);
#643 = LINE('',#644,#645);
#644 = CARTESIAN_POINT('',(7.505553499465,0.));
#645 = VECTOR('',#646,1.);
#646 = DIRECTION('',(0.,-1.));
#647 = ( GEOMETRIC_REPRESENTATION_CONTEXT(2) 
PARAMETRIC_REPRESENTATION_CONTEXT() REPRESENTATION_CONTEXT('2D SPACE',''
  ) );
#648 = PCURVE('',#365,#649);
#649 = DEFINITIONAL_REPRESENTATION('',(#650),#654);
#650 = LINE('',#651,#652);
#651 = CARTESIAN_POINT('',(0.,0.));
#652 = VECTOR('',#653,1.);
#653 = DIRECTION('',(0.,-1.));
#654 = ( GEOMETRIC_REPRESENTATION_CONTEXT(2) 
PARAMETRIC_REPRESENTATION_CONTEXT() REPRESENTATION_CONTEXT('2D SPACE',''
  ) );
#655 = ADVANCED_FACE('',(#656),#365,.F.);
#656 = FACE_BOUND('',#657,.F.);
#657 = EDGE_LOOP('',(#658,#659,#660,#688,#721));
#658 = ORIENTED_EDGE('',*,*,#339,.T.);
#659 = ORIENTED_EDGE('',*,*,#635,.T.);
#660 = ORIENTED_EDGE('',*,*,#661,.F.);
#661 = EDGE_CURVE('',#662,#603,#664,.T.);
#662 = VERTEX_POINT('',#663);
#663 = CARTESIAN_POINT('',(-5.629165114594,3.250000017329,8.1));
#664 = SURFACE_CURVE('',#665,(#670,#677),.PCURVE_S1.);
#665 = HYPERBOLA('',#666,1.741669750802,6.5);
#666 = AXIS2_PLACEMENT_3D('',#667,#668,#669);
#667 = CARTESIAN_POINT('',(-5.629165124599,3.25,9.841669750802));
#668 = DIRECTION('',(0.866025403784,-0.5,0.));
#669 = DIRECTION('',(0.,-0.,-1.));
#670 = PCURVE('',#365,#671);
#671 = DEFINITIONAL_REPRESENTATION('',(#672),#676);
#672 = HYPERBOLA('',#673,1.741669750802,6.5);
#673 = AXIS2_PLACEMENT_2D('',#674,#675);
#674 = CARTESIAN_POINT('',(3.752776749733,-9.841669750802));
#675 = DIRECTION('',(-0.,1.));
#676 = ( GEOMETRIC_REPRESENTATION_CONTEXT(2) 
PARAMETRIC_REPRESENTATION_CONTEXT() REPRESENTATION_CONTEXT('2D SPACE',''
  ) );
#677 = PCURVE('',#619,#678);
#678 = DEFINITIONAL_REPRESENTATION('',(#679),#687);
#679 = B_SPLINE_CURVE_WITH_KNOTS('',6,(#680,#681,#682,#683,#684,#685,
    #686),.UNSPECIFIED.,.F.,.F.,(7,7),(6.832141690001E-17,0.549306144334
    ),.PIECEWISE_BEZIER_KNOTS.);
#680 = CARTESIAN_POINT('',(-2.617993877991,-0.269437248128));
#681 = CARTESIAN_POINT('',(-2.526442853936,-0.269437248128));
#682 = CARTESIAN_POINT('',(-2.434892257009,-0.251919686347));
#683 = CARTESIAN_POINT('',(-2.344719912093,-0.216884616431));
#684 = CARTESIAN_POINT('',(-2.257321091577,-0.163891385271));
#685 = CARTESIAN_POINT('',(-2.173680614968,-9.20594526188E-02));
#686 = CARTESIAN_POINT('',(-2.094395102393,2.815412774984E-16));
#687 = ( GEOMETRIC_REPRESENTATION_CONTEXT(2) 
PARAMETRIC_REPRESENTATION_CONTEXT() REPRESENTATION_CONTEXT('2D SPACE',''
  ) );
#688 = ORIENTED_EDGE('',*,*,#689,.F.);
#689 = EDGE_CURVE('',#690,#662,#692,.T.);
#690 = VERTEX_POINT('',#691);
#691 = CARTESIAN_POINT('',(-7.505553499465,-3.390606377457E-13,
    7.830562751872));
#692 = SURFACE_CURVE('',#693,(#698,#705),.PCURVE_S1.);
#693 = HYPERBOLA('',#694,1.741669750802,6.5);
#694 = AXIS2_PLACEMENT_3D('',#695,#696,#697);
#695 = CARTESIAN_POINT('',(-5.629165124599,3.25,9.841669750802));
#696 = DIRECTION('',(0.866025403784,-0.5,0.));
#697 = DIRECTION('',(0.,-0.,-1.));
#698 = PCURVE('',#365,#699);
#699 = DEFINITIONAL_REPRESENTATION('',(#700),#704);
#700 = HYPERBOLA('',#701,1.741669750802,6.5);
#701 = AXIS2_PLACEMENT_2D('',#702,#703);
#702 = CARTESIAN_POINT('',(3.752776749733,-9.841669750802));
#703 = DIRECTION('',(-0.,1.));
#704 = ( GEOMETRIC_REPRESENTATION_CONTEXT(2) 
PARAMETRIC_REPRESENTATION_CONTEXT() REPRESENTATION_CONTEXT('2D SPACE',''
  ) );
#705 = PCURVE('',#706,#711);
#706 = CONICAL_SURFACE('',#707,7.505553499465,1.308996938996);
#707 = AXIS2_PLACEMENT_3D('',#708,#709,#710);
#708 = CARTESIAN_POINT('',(0.,0.,7.830562751872));
#709 = DIRECTION('',(-0.,-0.,-1.));
#710 = DIRECTION('',(1.,0.,-0.));
#711 = DEFINITIONAL_REPRESENTATION('',(#712),#720);
#712 = B_SPLINE_CURVE_WITH_KNOTS('',6,(#713,#714,#715,#716,#717,#718,
    #719),.UNSPECIFIED.,.F.,.F.,(7,7),(-0.549306144334,
    6.832141690001E-17),.PIECEWISE_BEZIER_KNOTS.);
#713 = CARTESIAN_POINT('',(-3.14159265359,2.815412774984E-16));
#714 = CARTESIAN_POINT('',(-3.062307141015,-9.20594526188E-02));
#715 = CARTESIAN_POINT('',(-2.978666664406,-0.163891385271));
#716 = CARTESIAN_POINT('',(-2.891267843889,-0.216884616431));
#717 = CARTESIAN_POINT('',(-2.801095498974,-0.251919686347));
#718 = CARTESIAN_POINT('',(-2.709544902047,-0.269437248128));
#719 = CARTESIAN_POINT('',(-2.617993877991,-0.269437248128));
#720 = ( GEOMETRIC_REPRESENTATION_CONTEXT(2) 
PARAMETRIC_REPRESENTATION_CONTEXT() REPRESENTATION_CONTEXT('2D SPACE',''
  ) );
#721 = ORIENTED_EDGE('',*,*,#722,.F.);
#722 = EDGE_CURVE('',#302,#690,#723,.T.);
#723 = SURFACE_CURVE('',#724,(#728,#735),.PCURVE_S1.);
#724 = LINE('',#725,#726);
#725 = CARTESIAN_POINT('',(-7.505553499465,9.191652068949E-16,0.));
#726 = VECTOR('',#727,1.);
#727 = DIRECTION('',(0.,0.,1.));
#728 = PCURVE('',#365,#729);
#729 = DEFINITIONAL_REPRESENTATION('',(#730),#734);
#730 = LINE('',#731,#732);
#731 = CARTESIAN_POINT('',(7.505553499465,0.));
#732 = VECTOR('',#733,1.);
#733 = DIRECTION('',(0.,-1.));
#734 = ( GEOMETRIC_REPRESENTATION_CONTEXT(2) 
PARAMETRIC_REPRESENTATION_CONTEXT() REPRESENTATION_CONTEXT('2D SPACE',''
  ) );
#735 = PCURVE('',#327,#736);
#736 = DEFINITIONAL_REPRESENTATION('',(#737),#741);
#737 = LINE('',#738,#739);
#738 = CARTESIAN_POINT('',(0.,0.));
#739 = VECTOR('',#740,1.);
#740 = DIRECTION('',(0.,-1.));
#741 = ( GEOMETRIC_REPRESENTATION_CONTEXT(2) 
PARAMETRIC_REPRESENTATION_CONTEXT() REPRESENTATION_CONTEXT('2D SPACE',''
  ) );
#742 = ADVANCED_FACE('',(#743),#327,.F.);
#743 = FACE_BOUND('',#744,.F.);
#744 = EDGE_LOOP('',(#745,#746,#747,#775,#808));
#745 = ORIENTED_EDGE('',*,*,#301,.T.);
#746 = ORIENTED_EDGE('',*,*,#722,.T.);
#747 = ORIENTED_EDGE('',*,*,#748,.F.);
#748 = EDGE_CURVE('',#749,#690,#751,.T.);
#749 = VERTEX_POINT('',#750);
#750 = CARTESIAN_POINT('',(-5.629165108067,-3.250000028635,8.1));
#751 = SURFACE_CURVE('',#752,(#757,#764),.PCURVE_S1.);
#752 = HYPERBOLA('',#753,1.741669750802,6.5);
#753 = AXIS2_PLACEMENT_3D('',#754,#755,#756);
#754 = CARTESIAN_POINT('',(-5.629165124599,-3.25,9.841669750802));
#755 = DIRECTION('',(0.866025403784,0.5,0.));
#756 = DIRECTION('',(0.,0.,-1.));
#757 = PCURVE('',#327,#758);
#758 = DEFINITIONAL_REPRESENTATION('',(#759),#763);
#759 = HYPERBOLA('',#760,1.741669750802,6.5);
#760 = AXIS2_PLACEMENT_2D('',#761,#762);
#761 = CARTESIAN_POINT('',(3.752776749733,-9.841669750802));
#762 = DIRECTION('',(0.,1.));
#763 = ( GEOMETRIC_REPRESENTATION_CONTEXT(2) 
PARAMETRIC_REPRESENTATION_CONTEXT() REPRESENTATION_CONTEXT('2D SPACE',''
  ) );
#764 = PCURVE('',#706,#765);
#765 = DEFINITIONAL_REPRESENTATION('',(#766),#774);
#766 = B_SPLINE_CURVE_WITH_KNOTS('',6,(#767,#768,#769,#770,#771,#772,
    #773),.UNSPECIFIED.,.F.,.F.,(7,7),(5.733051333898E-11,0.549306144334
    ),.PIECEWISE_BEZIER_KNOTS.);
#767 = CARTESIAN_POINT('',(-3.665191429131,-0.269437248128));
#768 = CARTESIAN_POINT('',(-3.573640405085,-0.269437248119));
#769 = CARTESIAN_POINT('',(-3.482089808168,-0.251919686332));
#770 = CARTESIAN_POINT('',(-3.391917463263,-0.216884616414));
#771 = CARTESIAN_POINT('',(-3.304518642756,-0.163891385256));
#772 = CARTESIAN_POINT('',(-3.220878166156,-9.205945260919E-02));
#773 = CARTESIAN_POINT('',(-3.14159265359,-2.22044604925E-16));
#774 = ( GEOMETRIC_REPRESENTATION_CONTEXT(2) 
PARAMETRIC_REPRESENTATION_CONTEXT() REPRESENTATION_CONTEXT('2D SPACE',''
  ) );
#775 = ORIENTED_EDGE('',*,*,#776,.F.);
#776 = EDGE_CURVE('',#777,#749,#779,.T.);
#777 = VERTEX_POINT('',#778);
#778 = CARTESIAN_POINT('',(-3.752776749733,-6.5,7.830562751872));
#779 = SURFACE_CURVE('',#780,(#785,#792),.PCURVE_S1.);
#780 = HYPERBOLA('',#781,1.741669750802,6.5);
#781 = AXIS2_PLACEMENT_3D('',#782,#783,#784);
#782 = CARTESIAN_POINT('',(-5.629165124599,-3.25,9.841669750802));
#783 = DIRECTION('',(0.866025403784,0.5,0.));
#784 = DIRECTION('',(0.,0.,-1.));
#785 = PCURVE('',#327,#786);
#786 = DEFINITIONAL_REPRESENTATION('',(#787),#791);
#787 = HYPERBOLA('',#788,1.741669750802,6.5);
#788 = AXIS2_PLACEMENT_2D('',#789,#790);
#789 = CARTESIAN_POINT('',(3.752776749733,-9.841669750802));
#790 = DIRECTION('',(0.,1.));
#791 = ( GEOMETRIC_REPRESENTATION_CONTEXT(2) 
PARAMETRIC_REPRESENTATION_CONTEXT() REPRESENTATION_CONTEXT('2D SPACE',''
  ) );
#792 = PCURVE('',#793,#798);
#793 = CONICAL_SURFACE('',#794,7.505553499465,1.308996938996);
#794 = AXIS2_PLACEMENT_3D('',#795,#796,#797);
#795 = CARTESIAN_POINT('',(0.,0.,7.830562751872));
#796 = DIRECTION('',(-0.,-0.,-1.));
#797 = DIRECTION('',(1.,0.,-0.));
#798 = DEFINITIONAL_REPRESENTATION('',(#799),#807);
#799 = B_SPLINE_CURVE_WITH_KNOTS('',6,(#800,#801,#802,#803,#804,#805,
    #806),.UNSPECIFIED.,.F.,.F.,(7,7),(-0.549306144334,
    5.733051333898E-11),.PIECEWISE_BEZIER_KNOTS.);
#800 = CARTESIAN_POINT('',(-4.188790204786,-4.440892098501E-16));
#801 = CARTESIAN_POINT('',(-4.109504692203,-9.205945262841E-02));
#802 = CARTESIAN_POINT('',(-4.025864215586,-0.163891385286));
#803 = CARTESIAN_POINT('',(-3.938465395058,-0.216884616447));
#804 = CARTESIAN_POINT('',(-3.848293050133,-0.251919686362));
#805 = CARTESIAN_POINT('',(-3.756742453196,-0.269437248137));
#806 = CARTESIAN_POINT('',(-3.665191429131,-0.269437248128));
#807 = ( GEOMETRIC_REPRESENTATION_CONTEXT(2) 
PARAMETRIC_REPRESENTATION_CONTEXT() REPRESENTATION_CONTEXT('2D SPACE',''
  ) );
#808 = ORIENTED_EDGE('',*,*,#809,.F.);
#809 = EDGE_CURVE('',#264,#777,#810,.T.);
#810 = SURFACE_CURVE('',#811,(#815,#822),.PCURVE_S1.);
#811 = LINE('',#812,#813);
#812 = CARTESIAN_POINT('',(-3.752776749733,-6.5,0.));
#813 = VECTOR('',#814,1.);
#814 = DIRECTION('',(0.,0.,1.));
#815 = PCURVE('',#327,#816);
#816 = DEFINITIONAL_REPRESENTATION('',(#817),#821);
#817 = LINE('',#818,#819);
#818 = CARTESIAN_POINT('',(7.505553499465,0.));
#819 = VECTOR('',#820,1.);
#820 = DIRECTION('',(0.,-1.));
#821 = ( GEOMETRIC_REPRESENTATION_CONTEXT(2) 
PARAMETRIC_REPRESENTATION_CONTEXT() REPRESENTATION_CONTEXT('2D SPACE',''
  ) );
#822 = PCURVE('',#289,#823);
#823 = DEFINITIONAL_REPRESENTATION('',(#824),#828);
#824 = LINE('',#825,#826);
#825 = CARTESIAN_POINT('',(0.,0.));
#826 = VECTOR('',#827,1.);
#827 = DIRECTION('',(0.,-1.));
#828 = ( GEOMETRIC_REPRESENTATION_CONTEXT(2) 
PARAMETRIC_REPRESENTATION_CONTEXT() REPRESENTATION_CONTEXT('2D SPACE',''
  ) );
#829 = ADVANCED_FACE('',(#830),#289,.F.);
#830 = FACE_BOUND('',#831,.F.);
#831 = EDGE_LOOP('',(#832,#833,#834,#862,#895));
#832 = ORIENTED_EDGE('',*,*,#263,.T.);
#833 = ORIENTED_EDGE('',*,*,#809,.T.);
#834 = ORIENTED_EDGE('',*,*,#835,.F.);
#835 = EDGE_CURVE('',#836,#777,#838,.T.);
#836 = VERTEX_POINT('',#837);
#837 = CARTESIAN_POINT('',(-6.709496775833E-13,-6.5,8.1));
#838 = SURFACE_CURVE('',#839,(#844,#851),.PCURVE_S1.);
#839 = HYPERBOLA('',#840,1.741669750802,6.5);
#840 = AXIS2_PLACEMENT_3D('',#841,#842,#843);
#841 = CARTESIAN_POINT('',(-3.076740298214E-15,-6.5,9.841669750802));
#842 = DIRECTION('',(4.733446612636E-16,1.,0.));
#843 = DIRECTION('',(0.,0.,-1.));
#844 = PCURVE('',#289,#845);
#845 = DEFINITIONAL_REPRESENTATION('',(#846),#850);
#846 = HYPERBOLA('',#847,1.741669750802,6.5);
#847 = AXIS2_PLACEMENT_2D('',#848,#849);
#848 = CARTESIAN_POINT('',(3.752776749733,-9.841669750802));
#849 = DIRECTION('',(0.,1.));
#850 = ( GEOMETRIC_REPRESENTATION_CONTEXT(2) 
PARAMETRIC_REPRESENTATION_CONTEXT() REPRESENTATION_CONTEXT('2D SPACE',''
  ) );
#851 = PCURVE('',#793,#852);
#852 = DEFINITIONAL_REPRESENTATION('',(#853),#861);
#853 = B_SPLINE_CURVE_WITH_KNOTS('',6,(#854,#855,#856,#857,#858,#859,
    #860),.UNSPECIFIED.,.F.,.F.,(7,7),(-2.896476413915E-16,
    0.549306144334),.PIECEWISE_BEZIER_KNOTS.);
#854 = CARTESIAN_POINT('',(-4.712388980385,-0.269437248128));
#855 = CARTESIAN_POINT('',(-4.620837956329,-0.269437248128));
#856 = CARTESIAN_POINT('',(-4.529287359402,-0.251919686347));
#857 = CARTESIAN_POINT('',(-4.439115014486,-0.216884616431));
#858 = CARTESIAN_POINT('',(-4.35171619397,-0.163891385271));
#859 = CARTESIAN_POINT('',(-4.268075717361,-9.20594526188E-02));
#860 = CARTESIAN_POINT('',(-4.188790204786,2.815412774984E-16));
#861 = ( GEOMETRIC_REPRESENTATION_CONTEXT(2) 
PARAMETRIC_REPRESENTATION_CONTEXT() REPRESENTATION_CONTEXT('2D SPACE',''
  ) );
#862 = ORIENTED_EDGE('',*,*,#863,.F.);
#863 = EDGE_CURVE('',#864,#836,#866,.T.);
#864 = VERTEX_POINT('',#865);
#865 = CARTESIAN_POINT('',(3.752776749732,-6.5,7.830562751872));
#866 = SURFACE_CURVE('',#867,(#872,#879),.PCURVE_S1.);
#867 = HYPERBOLA('',#868,1.741669750802,6.5);
#868 = AXIS2_PLACEMENT_3D('',#869,#870,#871);
#869 = CARTESIAN_POINT('',(-3.076740298214E-15,-6.5,9.841669750802));
#870 = DIRECTION('',(4.733446612636E-16,1.,0.));
#871 = DIRECTION('',(0.,0.,-1.));
#872 = PCURVE('',#289,#873);
#873 = DEFINITIONAL_REPRESENTATION('',(#874),#878);
#874 = HYPERBOLA('',#875,1.741669750802,6.5);
#875 = AXIS2_PLACEMENT_2D('',#876,#877);
#876 = CARTESIAN_POINT('',(3.752776749733,-9.841669750802));
#877 = DIRECTION('',(0.,1.));
#878 = ( GEOMETRIC_REPRESENTATION_CONTEXT(2) 
PARAMETRIC_REPRESENTATION_CONTEXT() REPRESENTATION_CONTEXT('2D SPACE',''
  ) );
#879 = PCURVE('',#880,#885);
#880 = CONICAL_SURFACE('',#881,7.505553499465,1.308996938996);
#881 = AXIS2_PLACEMENT_3D('',#882,#883,#884);
#882 = CARTESIAN_POINT('',(0.,0.,7.830562751872));
#883 = DIRECTION('',(-0.,-0.,-1.));
#884 = DIRECTION('',(1.,0.,-0.));
#885 = DEFINITIONAL_REPRESENTATION('',(#886),#894);
#886 = B_SPLINE_CURVE_WITH_KNOTS('',6,(#887,#888,#889,#890,#891,#892,
    #893),.UNSPECIFIED.,.F.,.F.,(7,7),(-0.549306144334,
    -2.896476413915E-16),.PIECEWISE_BEZIER_KNOTS.);
#887 = CARTESIAN_POINT('',(-5.235987755983,5.949667257335E-17));
#888 = CARTESIAN_POINT('',(-5.156702243408,-9.20594526188E-02));
#889 = CARTESIAN_POINT('',(-5.073061766799,-0.163891385271));
#890 = CARTESIAN_POINT('',(-4.985662946282,-0.216884616431));
#891 = CARTESIAN_POINT('',(-4.895490601367,-0.251919686347));
#892 = CARTESIAN_POINT('',(-4.80394000444,-0.269437248128));
#893 = CARTESIAN_POINT('',(-4.712388980385,-0.269437248128));
#894 = ( GEOMETRIC_REPRESENTATION_CONTEXT(2) 
PARAMETRIC_REPRESENTATION_CONTEXT() REPRESENTATION_CONTEXT('2D SPACE',''
  ) );
#895 = ORIENTED_EDGE('',*,*,#896,.F.);
#896 = EDGE_CURVE('',#226,#864,#897,.T.);
#897 = SURFACE_CURVE('',#898,(#902,#909),.PCURVE_S1.);
#898 = LINE('',#899,#900);
#899 = CARTESIAN_POINT('',(3.752776749733,-6.5,0.));
#900 = VECTOR('',#901,1.);
#901 = DIRECTION('',(0.,0.,1.));
#902 = PCURVE('',#289,#903);
#903 = DEFINITIONAL_REPRESENTATION('',(#904),#908);
#904 = LINE('',#905,#906);
#905 = CARTESIAN_POINT('',(7.505553499465,0.));
#906 = VECTOR('',#907,1.);
#907 = DIRECTION('',(0.,-1.));
#908 = ( GEOMETRIC_REPRESENTATION_CONTEXT(2) 
PARAMETRIC_REPRESENTATION_CONTEXT() REPRESENTATION_CONTEXT('2D SPACE',''
  ) );
#909 = PCURVE('',#251,#910);
#910 = DEFINITIONAL_REPRESENTATION('',(#911),#915);
#911 = LINE('',#912,#913);
#912 = CARTESIAN_POINT('',(0.,0.));
#913 = VECTOR('',#914,1.);
#914 = DIRECTION('',(0.,-1.));
#915 = ( GEOMETRIC_REPRESENTATION_CONTEXT(2) 
PARAMETRIC_REPRESENTATION_CONTEXT() REPRESENTATION_CONTEXT('2D SPACE',''
  ) );
#916 = ADVANCED_FACE('',(#917),#251,.F.);
#917 = FACE_BOUND('',#918,.F.);
#918 = EDGE_LOOP('',(#919,#920,#921,#949,#975));
#919 = ORIENTED_EDGE('',*,*,#225,.T.);
#920 = ORIENTED_EDGE('',*,*,#896,.T.);
#921 = ORIENTED_EDGE('',*,*,#922,.F.);
#922 = EDGE_CURVE('',#923,#864,#925,.T.);
#923 = VERTEX_POINT('',#924);
#924 = CARTESIAN_POINT('',(5.629165135718,-3.249999980741,8.1));
#925 = SURFACE_CURVE('',#926,(#931,#938),.PCURVE_S1.);
#926 = HYPERBOLA('',#927,1.741669750802,6.5);
#927 = AXIS2_PLACEMENT_3D('',#928,#929,#930);
#928 = CARTESIAN_POINT('',(5.629165124599,-3.25,9.841669750802));
#929 = DIRECTION('',(-0.866025403784,0.5,0.));
#930 = DIRECTION('',(0.,0.,-1.));
#931 = PCURVE('',#251,#932);
#932 = DEFINITIONAL_REPRESENTATION('',(#933),#937);
#933 = HYPERBOLA('',#934,1.741669750802,6.5);
#934 = AXIS2_PLACEMENT_2D('',#935,#936);
#935 = CARTESIAN_POINT('',(3.752776749733,-9.841669750802));
#936 = DIRECTION('',(0.,1.));
#937 = ( GEOMETRIC_REPRESENTATION_CONTEXT(2) 
PARAMETRIC_REPRESENTATION_CONTEXT() REPRESENTATION_CONTEXT('2D SPACE',''
  ) );
#938 = PCURVE('',#880,#939);
#939 = DEFINITIONAL_REPRESENTATION('',(#940),#948);
#940 = B_SPLINE_CURVE_WITH_KNOTS('',6,(#941,#942,#943,#944,#945,#946,
    #947),.UNSPECIFIED.,.F.,.F.,(7,7),(-2.246168653295E-08,
    0.549306144334),.PIECEWISE_BEZIER_KNOTS.);
#941 = CARTESIAN_POINT('',(-5.759586554043,-0.269437248128));
#942 = CARTESIAN_POINT('',(-5.668035526244,-0.26943725171));
#943 = CARTESIAN_POINT('',(-5.576484925347,-0.251919692077));
#944 = CARTESIAN_POINT('',(-5.486312576405,-0.216884622932));
#945 = CARTESIAN_POINT('',(-5.398913752007,-0.163891391146));
#946 = CARTESIAN_POINT('',(-5.3152732718,-9.205945638321E-02));
#947 = CARTESIAN_POINT('',(-5.235987755983,5.949667257335E-17));
#948 = ( GEOMETRIC_REPRESENTATION_CONTEXT(2) 
PARAMETRIC_REPRESENTATION_CONTEXT() REPRESENTATION_CONTEXT('2D SPACE',''
  ) );
#949 = ORIENTED_EDGE('',*,*,#950,.F.);
#950 = EDGE_CURVE('',#460,#923,#951,.T.);
#951 = SURFACE_CURVE('',#952,(#957,#964),.PCURVE_S1.);
#952 = HYPERBOLA('',#953,1.741669750802,6.5);
#953 = AXIS2_PLACEMENT_3D('',#954,#955,#956);
#954 = CARTESIAN_POINT('',(5.629165124599,-3.25,9.841669750802));
#955 = DIRECTION('',(-0.866025403784,0.5,0.));
#956 = DIRECTION('',(0.,0.,-1.));
#957 = PCURVE('',#251,#958);
#958 = DEFINITIONAL_REPRESENTATION('',(#959),#963);
#959 = HYPERBOLA('',#960,1.741669750802,6.5);
#960 = AXIS2_PLACEMENT_2D('',#961,#962);
#961 = CARTESIAN_POINT('',(3.752776749733,-9.841669750802));
#962 = DIRECTION('',(0.,1.));
#963 = ( GEOMETRIC_REPRESENTATION_CONTEXT(2) 
PARAMETRIC_REPRESENTATION_CONTEXT() REPRESENTATION_CONTEXT('2D SPACE',''
  ) );
#964 = PCURVE('',#499,#965);
#965 = DEFINITIONAL_REPRESENTATION('',(#966),#974);
#966 = B_SPLINE_CURVE_WITH_KNOTS('',6,(#967,#968,#969,#970,#971,#972,
    #973),.UNSPECIFIED.,.F.,.F.,(7,7),(-0.549306144334,
    -2.246168653295E-08),.PIECEWISE_BEZIER_KNOTS.);
#967 = CARTESIAN_POINT('',(-6.28318530718,5.949667257335E-17));
#968 = CARTESIAN_POINT('',(-6.203899797847,-9.20594488544E-02));
#969 = CARTESIAN_POINT('',(-6.120259324836,-0.163891379396));
#970 = CARTESIAN_POINT('',(-6.032860508201,-0.21688460993));
#971 = CARTESIAN_POINT('',(-5.942688167313,-0.251919680616));
#972 = CARTESIAN_POINT('',(-5.851137574355,-0.269437244546));
#973 = CARTESIAN_POINT('',(-5.759586554043,-0.269437248128));
#974 = ( GEOMETRIC_REPRESENTATION_CONTEXT(2) 
PARAMETRIC_REPRESENTATION_CONTEXT() REPRESENTATION_CONTEXT('2D SPACE',''
  ) );
#975 = ORIENTED_EDGE('',*,*,#459,.F.);
#976 = ADVANCED_FACE('',(#977),#532,.T.);
#977 = FACE_BOUND('',#978,.T.);
#978 = EDGE_LOOP('',(#979,#980,#981));
#979 = ORIENTED_EDGE('',*,*,#515,.F.);
#980 = ORIENTED_EDGE('',*,*,#574,.F.);
#981 = ORIENTED_EDGE('',*,*,#982,.F.);
#982 = EDGE_CURVE('',#483,#575,#983,.T.);
#983 = SURFACE_CURVE('',#984,(#989,#996),.PCURVE_S1.);
#984 = CIRCLE('',#985,6.5);
#985 = AXIS2_PLACEMENT_3D('',#986,#987,#988);
#986 = CARTESIAN_POINT('',(0.,0.,8.1));
#987 = DIRECTION('',(0.,0.,1.));
#988 = DIRECTION('',(1.,0.,-0.));
#989 = PCURVE('',#532,#990);
#990 = DEFINITIONAL_REPRESENTATION('',(#991),#995);
#991 = LINE('',#992,#993);
#992 = CARTESIAN_POINT('',(-0.,-0.269437248128));
#993 = VECTOR('',#994,1.);
#994 = DIRECTION('',(-1.,-0.));
#995 = ( GEOMETRIC_REPRESENTATION_CONTEXT(2) 
PARAMETRIC_REPRESENTATION_CONTEXT() REPRESENTATION_CONTEXT('2D SPACE',''
  ) );
#996 = PCURVE('',#997,#1002);
#997 = PLANE('',#998);
#998 = AXIS2_PLACEMENT_3D('',#999,#1000,#1001);
#999 = CARTESIAN_POINT('',(0.,0.,8.1));
#1000 = DIRECTION('',(0.,0.,1.));
#1001 = DIRECTION('',(1.,0.,-0.));
#1002 = DEFINITIONAL_REPRESENTATION('',(#1003),#1007);
#1003 = CIRCLE('',#1004,6.5);
#1004 = AXIS2_PLACEMENT_2D('',#1005,#1006);
#1005 = CARTESIAN_POINT('',(0.,0.));
#1006 = DIRECTION('',(1.,0.));
#1007 = ( GEOMETRIC_REPRESENTATION_CONTEXT(2) 
PARAMETRIC_REPRESENTATION_CONTEXT() REPRESENTATION_CONTEXT('2D SPACE',''
  ) );
#1008 = ADVANCED_FACE('',(#1009),#499,.T.);
#1009 = FACE_BOUND('',#1010,.T.);
#1010 = EDGE_LOOP('',(#1011,#1037,#1038));
#1011 = ORIENTED_EDGE('',*,*,#1012,.T.);
#1012 = EDGE_CURVE('',#483,#923,#1013,.T.);
#1013 = SURFACE_CURVE('',#1014,(#1019,#1026),.PCURVE_S1.);
#1014 = CIRCLE('',#1015,6.5);
#1015 = AXIS2_PLACEMENT_3D('',#1016,#1017,#1018);
#1016 = CARTESIAN_POINT('',(0.,0.,8.1));
#1017 = DIRECTION('',(0.,0.,-1.));
#1018 = DIRECTION('',(0.866025401241,0.500000004405,0.));
#1019 = PCURVE('',#499,#1020);
#1020 = DEFINITIONAL_REPRESENTATION('',(#1021),#1025);
#1021 = LINE('',#1022,#1023);
#1022 = CARTESIAN_POINT('',(-6.806784087865,-0.269437248128));
#1023 = VECTOR('',#1024,1.);
#1024 = DIRECTION('',(1.,-0.));
#1025 = ( GEOMETRIC_REPRESENTATION_CONTEXT(2) 
PARAMETRIC_REPRESENTATION_CONTEXT() REPRESENTATION_CONTEXT('2D SPACE',''
  ) );
#1026 = PCURVE('',#997,#1027);
#1027 = DEFINITIONAL_REPRESENTATION('',(#1028),#1036);
#1028 = ( BOUNDED_CURVE() B_SPLINE_CURVE(2,(#1029,#1030,#1031,#1032,
#1033,#1034,#1035),.UNSPECIFIED.,.T.,.F.) B_SPLINE_CURVE_WITH_KNOTS((1,2
    ,2,2,2,1),(-2.094395102393,0.,2.094395102393,4.188790204786,
6.28318530718,8.377580409573),.UNSPECIFIED.) CURVE() 
GEOMETRIC_REPRESENTATION_ITEM() RATIONAL_B_SPLINE_CURVE((1.,0.5,1.,0.5,
1.,0.5,1.)) REPRESENTATION_ITEM('') );
#1029 = CARTESIAN_POINT('',(5.629165108067,3.250000028634));
#1030 = CARTESIAN_POINT('',(11.258330282261,-6.499999942733));
#1031 = CARTESIAN_POINT('',(3.306328810737E-08,-6.5));
#1032 = CARTESIAN_POINT('',(-11.25833021613,-6.500000057267));
#1033 = CARTESIAN_POINT('',(-5.62916514113,3.249999971366));
#1034 = CARTESIAN_POINT('',(-6.612658243199E-08,13.));
#1035 = CARTESIAN_POINT('',(5.629165108067,3.250000028634));
#1036 = ( GEOMETRIC_REPRESENTATION_CONTEXT(2) 
PARAMETRIC_REPRESENTATION_CONTEXT() REPRESENTATION_CONTEXT('2D SPACE',''
  ) );
#1037 = ORIENTED_EDGE('',*,*,#950,.F.);
#1038 = ORIENTED_EDGE('',*,*,#482,.F.);
#1039 = ADVANCED_FACE('',(#1040),#619,.T.);
#1040 = FACE_BOUND('',#1041,.T.);
#1041 = EDGE_LOOP('',(#1042,#1043,#1044));
#1042 = ORIENTED_EDGE('',*,*,#602,.F.);
#1043 = ORIENTED_EDGE('',*,*,#661,.F.);
#1044 = ORIENTED_EDGE('',*,*,#1045,.F.);
#1045 = EDGE_CURVE('',#575,#662,#1046,.T.);
#1046 = SURFACE_CURVE('',#1047,(#1052,#1059),.PCURVE_S1.);
#1047 = CIRCLE('',#1048,6.5);
#1048 = AXIS2_PLACEMENT_3D('',#1049,#1050,#1051);
#1049 = CARTESIAN_POINT('',(0.,0.,8.1));
#1050 = DIRECTION('',(0.,0.,1.));
#1051 = DIRECTION('',(1.,0.,-0.));
#1052 = PCURVE('',#619,#1053);
#1053 = DEFINITIONAL_REPRESENTATION('',(#1054),#1058);
#1054 = LINE('',#1055,#1056);
#1055 = CARTESIAN_POINT('',(-0.,-0.269437248128));
#1056 = VECTOR('',#1057,1.);
#1057 = DIRECTION('',(-1.,-0.));
#1058 = ( GEOMETRIC_REPRESENTATION_CONTEXT(2) 
PARAMETRIC_REPRESENTATION_CONTEXT() REPRESENTATION_CONTEXT('2D SPACE',''
  ) );
#1059 = PCURVE('',#997,#1060);
#1060 = DEFINITIONAL_REPRESENTATION('',(#1061),#1065);
#1061 = CIRCLE('',#1062,6.5);
#1062 = AXIS2_PLACEMENT_2D('',#1063,#1064);
#1063 = CARTESIAN_POINT('',(0.,0.));
#1064 = DIRECTION('',(1.,0.));
#1065 = ( GEOMETRIC_REPRESENTATION_CONTEXT(2) 
PARAMETRIC_REPRESENTATION_CONTEXT() REPRESENTATION_CONTEXT('2D SPACE',''
  ) );
#1066 = ADVANCED_FACE('',(#1067),#706,.T.);
#1067 = FACE_BOUND('',#1068,.T.);
#1068 = EDGE_LOOP('',(#1069,#1070,#1071));
#1069 = ORIENTED_EDGE('',*,*,#689,.F.);
#1070 = ORIENTED_EDGE('',*,*,#748,.F.);
#1071 = ORIENTED_EDGE('',*,*,#1072,.F.);
#1072 = EDGE_CURVE('',#662,#749,#1073,.T.);
#1073 = SURFACE_CURVE('',#1074,(#1079,#1086),.PCURVE_S1.);
#1074 = CIRCLE('',#1075,6.5);
#1075 = AXIS2_PLACEMENT_3D('',#1076,#1077,#1078);
#1076 = CARTESIAN_POINT('',(0.,0.,8.1));
#1077 = DIRECTION('',(0.,0.,1.));
#1078 = DIRECTION('',(1.,0.,-0.));
#1079 = PCURVE('',#706,#1080);
#1080 = DEFINITIONAL_REPRESENTATION('',(#1081),#1085);
#1081 = LINE('',#1082,#1083);
#1082 = CARTESIAN_POINT('',(-0.,-0.269437248128));
#1083 = VECTOR('',#1084,1.);
#1084 = DIRECTION('',(-1.,-0.));
#1085 = ( GEOMETRIC_REPRESENTATION_CONTEXT(2) 
PARAMETRIC_REPRESENTATION_CONTEXT() REPRESENTATION_CONTEXT('2D SPACE',''
  ) );
#1086 = PCURVE('',#997,#1087);
#1087 = DEFINITIONAL_REPRESENTATION('',(#1088),#1092);
#1088 = CIRCLE('',#1089,6.5);
#1089 = AXIS2_PLACEMENT_2D('',#1090,#1091);
#1090 = CARTESIAN_POINT('',(0.,0.));
#1091 = DIRECTION('',(1.,0.));
#1092 = ( GEOMETRIC_REPRESENTATION_CONTEXT(2) 
PARAMETRIC_REPRESENTATION_CONTEXT() REPRESENTATION_CONTEXT('2D SPACE',''
  ) );
#1093 = ADVANCED_FACE('',(#1094),#793,.T.);
#1094 = FACE_BOUND('',#1095,.T.);
#1095 = EDGE_LOOP('',(#1096,#1097,#1098));
#1096 = ORIENTED_EDGE('',*,*,#776,.F.);
#1097 = ORIENTED_EDGE('',*,*,#835,.F.);
#1098 = ORIENTED_EDGE('',*,*,#1099,.F.);
#1099 = EDGE_CURVE('',#749,#836,#1100,.T.);
#1100 = SURFACE_CURVE('',#1101,(#1106,#1113),.PCURVE_S1.);
#1101 = CIRCLE('',#1102,6.5);
#1102 = AXIS2_PLACEMENT_3D('',#1103,#1104,#1105);
#1103 = CARTESIAN_POINT('',(0.,0.,8.1));
#1104 = DIRECTION('',(0.,0.,1.));
#1105 = DIRECTION('',(1.,0.,-0.));
#1106 = PCURVE('',#793,#1107);
#1107 = DEFINITIONAL_REPRESENTATION('',(#1108),#1112);
#1108 = LINE('',#1109,#1110);
#1109 = CARTESIAN_POINT('',(-0.,-0.269437248128));
#1110 = VECTOR('',#1111,1.);
#1111 = DIRECTION('',(-1.,-0.));
#1112 = ( GEOMETRIC_REPRESENTATION_CONTEXT(2) 
PARAMETRIC_REPRESENTATION_CONTEXT() REPRESENTATION_CONTEXT('2D SPACE',''
  ) );
#1113 = PCURVE('',#997,#1114);
#1114 = DEFINITIONAL_REPRESENTATION('',(#1115),#1119);
#1115 = CIRCLE('',#1116,6.5);
#1116 = AXIS2_PLACEMENT_2D('',#1117,#1118);
#1117 = CARTESIAN_POINT('',(0.,0.));
#1118 = DIRECTION('',(1.,0.));
#1119 = ( GEOMETRIC_REPRESENTATION_CONTEXT(2) 
PARAMETRIC_REPRESENTATION_CONTEXT() REPRESENTATION_CONTEXT('2D SPACE',''
  ) );
#1120 = ADVANCED_FACE('',(#1121),#880,.T.);
#1121 = FACE_BOUND('',#1122,.T.);
#1122 = EDGE_LOOP('',(#1123,#1124,#1125));
#1123 = ORIENTED_EDGE('',*,*,#863,.F.);
#1124 = ORIENTED_EDGE('',*,*,#922,.F.);
#1125 = ORIENTED_EDGE('',*,*,#1126,.F.);
#1126 = EDGE_CURVE('',#836,#923,#1127,.T.);
#1127 = SURFACE_CURVE('',#1128,(#1133,#1140),.PCURVE_S1.);
#1128 = CIRCLE('',#1129,6.5);
#1129 = AXIS2_PLACEMENT_3D('',#1130,#1131,#1132);
#1130 = CARTESIAN_POINT('',(0.,0.,8.1));
#1131 = DIRECTION('',(0.,0.,1.));
#1132 = DIRECTION('',(1.,0.,-0.));
#1133 = PCURVE('',#880,#1134);
#1134 = DEFINITIONAL_REPRESENTATION('',(#1135),#1139);
#1135 = LINE('',#1136,#1137);
#1136 = CARTESIAN_POINT('',(-0.,-0.269437248128));
#1137 = VECTOR('',#1138,1.);
#1138 = DIRECTION('',(-1.,-0.));
#1139 = ( GEOMETRIC_REPRESENTATION_CONTEXT(2) 
PARAMETRIC_REPRESENTATION_CONTEXT() REPRESENTATION_CONTEXT('2D SPACE',''
  ) );
#1140 = PCURVE('',#997,#1141);
#1141 = DEFINITIONAL_REPRESENTATION('',(#1142),#1146);
#1142 = CIRCLE('',#1143,6.5);
#1143 = AXIS2_PLACEMENT_2D('',#1144,#1145);
#1144 = CARTESIAN_POINT('',(0.,0.));
#1145 = DIRECTION('',(1.,0.));
#1146 = ( GEOMETRIC_REPRESENTATION_CONTEXT(2) 
PARAMETRIC_REPRESENTATION_CONTEXT() REPRESENTATION_CONTEXT('2D SPACE',''
  ) );
#1147 = ADVANCED_FACE('',(#1148),#997,.T.);
#1148 = FACE_BOUND('',#1149,.T.);
#1149 = EDGE_LOOP('',(#1150,#1151,#1152,#1153,#1154,#1155));
#1150 = ORIENTED_EDGE('',*,*,#1012,.F.);
#1151 = ORIENTED_EDGE('',*,*,#982,.T.);
#1152 = ORIENTED_EDGE('',*,*,#1045,.T.);
#1153 = ORIENTED_EDGE('',*,*,#1072,.T.);
#1154 = ORIENTED_EDGE('',*,*,#1099,.T.);
#1155 = ORIENTED_EDGE('',*,*,#1126,.T.);
#1156 = ( GEOMETRIC_REPRESENTATION_CONTEXT(3) 
GLOBAL_UNCERTAINTY_ASSIGNED_CONTEXT((#1160)) 
GLOBAL_UNIT_ASSIGNED_CONTEXT((#1157,#1158,#1159)) REPRESENTATION_CONTEXT
('Context #1','3D Context with UNIT and UNCERTAINTY') );
#1157 = ( LENGTH_UNIT() NAMED_UNIT(*) SI_UNIT(.MILLI.,.METRE.) );
#1158 = ( NAMED_UNIT(*) PLANE_ANGLE_UNIT() SI_UNIT($,.RADIAN.) );
#1159 = ( NAMED_UNIT(*) SI_UNIT($,.STERADIAN.) SOLID_ANGLE_UNIT() );
#1160 = UNCERTAINTY_MEASURE_WITH_UNIT(LENGTH_MEASURE(2.E-07),#1157,
  'distance_accuracy_value','confusion accuracy');
#1161 = PRODUCT_RELATED_PRODUCT_CATEGORY('part',$,(#7));
ENDSEC;
END-ISO-10303-21;
