ISO-10303-21;
HEADER;
FILE_DESCRIPTION(('Open CASCADE Model'),'2;1');
FILE_NAME('Open CASCADE Shape Model','2026-09-14T17:55:02',('Author'),(
    'Open CASCADE'),'Open CASCADE STEP processor 7.9','Open CASCADE 7.9'
  ,'Unknown');
FILE_SCHEMA(('AUTOMOTIVE_DESIGN { 1 0 10303 214 1 1 1 1 }'));
ENDSEC;
DATA;
#1 = APPLICATION_PROTOCOL_DEFINITION('international standard',
  'automotive_design',2000,#2);
#2 = APPLICATION_CONTEXT(
  'core data for automotive mechanical design processes');
#3 = SHAPE_DEFINITION_REPRESENTATION(#4,#10);
#4 = PRODUCT_DEFINITION_SHAPE('','',#5);
#5 = PRODUCT_DEFINITION('design','',#6,#9);
#6 = PRODUCT_DEFINITION_FORMATION('','',#7);
#7 = PRODUCT('Open CASCADE STEP translator 7.9 19',
  'Open CASCADE STEP translator 7.9 19','',(#8));
#8 = PRODUCT_CONTEXT('',#2,'mechanical');
#9 = PRODUCT_DEFINITION_CONTEXT('part definition',#2,'design');
#10 = ADVANCED_BREP_SHAPE_REPRESENTATION('',(#11,#15),#725);
#11 = AXIS2_PLACEMENT_3D('',#12,#13,#14);
#12 = CARTESIAN_POINT('',(0.,0.,0.));
#13 = DIRECTION('',(0.,0.,1.));
#14 = DIRECTION('',(1.,0.,-0.));
#15 = MANIFOLD_SOLID_BREP('',#16);
#16 = CLOSED_SHELL('',(#17,#89,#554,#609,#657,#684,#689,#716,#721));
#17 = ADVANCED_FACE('',(#18,#58),#31,.F.);
#18 = FACE_BOUND('',#19,.T.);
#19 = EDGE_LOOP('',(#20));
#20 = ORIENTED_EDGE('',*,*,#21,.F.);
#21 = EDGE_CURVE('',#22,#22,#24,.T.);
#22 = VERTEX_POINT('',#23);
#23 = CARTESIAN_POINT('',(4.,0.,0.));
#24 = SURFACE_CURVE('',#25,(#30,#42),.PCURVE_S1.);
#25 = CIRCLE('',#26,4.);
#26 = AXIS2_PLACEMENT_3D('',#27,#28,#29);
#27 = CARTESIAN_POINT('',(0.,0.,0.));
#28 = DIRECTION('',(0.,0.,1.));
#29 = DIRECTION('',(1.,0.,-0.));
#30 = PCURVE('',#31,#36);
#31 = PLANE('',#32);
#32 = AXIS2_PLACEMENT_3D('',#33,#34,#35);
#33 = CARTESIAN_POINT('',(0.,0.,0.));
#34 = DIRECTION('',(0.,0.,1.));
#35 = DIRECTION('',(1.,0.,-0.));
#36 = DEFINITIONAL_REPRESENTATION('',(#37),#41);
#37 = CIRCLE('',#38,4.);
#38 = AXIS2_PLACEMENT_2D('',#39,#40);
#39 = CARTESIAN_POINT('',(0.,0.));
#40 = DIRECTION('',(1.,-0.));
#41 = ( GEOMETRIC_REPRESENTATION_CONTEXT(2) 
PARAMETRIC_REPRESENTATION_CONTEXT() REPRESENTATION_CONTEXT('2D SPACE',''
  ) );
#42 = PCURVE('',#43,#52);
#43 = SURFACE_OF_REVOLUTION('',#44,#49);
#44 = B_SPLINE_CURVE_WITH_KNOTS('',3,(#45,#46,#47,#48),.UNSPECIFIED.,.F.
  ,.F.,(4,4),(0.,3.124099870363),.PIECEWISE_BEZIER_KNOTS.);
#45 = CARTESIAN_POINT('',(4.,0.,0.));
#46 = CARTESIAN_POINT('',(3.882006396197,0.,1.348673062863));
#47 = CARTESIAN_POINT('',(3.466666666667,0.,2.4));
#48 = CARTESIAN_POINT('',(2.,0.,2.4));
#49 = AXIS1_PLACEMENT('',#50,#51);
#50 = CARTESIAN_POINT('',(0.,0.,0.));
#51 = DIRECTION('',(0.,0.,1.));
#52 = DEFINITIONAL_REPRESENTATION('',(#53),#57);
#53 = LINE('',#54,#55);
#54 = CARTESIAN_POINT('',(0.,0.));
#55 = VECTOR('',#56,1.);
#56 = DIRECTION('',(1.,0.));
#57 = ( GEOMETRIC_REPRESENTATION_CONTEXT(2) 
PARAMETRIC_REPRESENTATION_CONTEXT() REPRESENTATION_CONTEXT('2D SPACE',''
  ) );
#58 = FACE_BOUND('',#59,.T.);
#59 = EDGE_LOOP('',(#60));
#60 = ORIENTED_EDGE('',*,*,#61,.T.);
#61 = EDGE_CURVE('',#62,#62,#64,.T.);
#62 = VERTEX_POINT('',#63);
#63 = CARTESIAN_POINT('',(1.621113885844,0.,0.));
#64 = SURFACE_CURVE('',#65,(#70,#77),.PCURVE_S1.);
#65 = CIRCLE('',#66,1.621113885844);
#66 = AXIS2_PLACEMENT_3D('',#67,#68,#69);
#67 = CARTESIAN_POINT('',(0.,0.,0.));
#68 = DIRECTION('',(0.,0.,1.));
#69 = DIRECTION('',(1.,0.,-0.));
#70 = PCURVE('',#31,#71);
#71 = DEFINITIONAL_REPRESENTATION('',(#72),#76);
#72 = CIRCLE('',#73,1.621113885844);
#73 = AXIS2_PLACEMENT_2D('',#74,#75);
#74 = CARTESIAN_POINT('',(0.,0.));
#75 = DIRECTION('',(1.,-0.));
#76 = ( GEOMETRIC_REPRESENTATION_CONTEXT(2) 
PARAMETRIC_REPRESENTATION_CONTEXT() REPRESENTATION_CONTEXT('2D SPACE',''
  ) );
#77 = PCURVE('',#78,#83);
#78 = CYLINDRICAL_SURFACE('',#79,1.621113885844);
#79 = AXIS2_PLACEMENT_3D('',#80,#81,#82);
#80 = CARTESIAN_POINT('',(0.,0.,-16.));
#81 = DIRECTION('',(-0.,-0.,-1.));
#82 = DIRECTION('',(1.,0.,0.));
#83 = DEFINITIONAL_REPRESENTATION('',(#84),#88);
#84 = LINE('',#85,#86);
#85 = CARTESIAN_POINT('',(-0.,-16.));
#86 = VECTOR('',#87,1.);
#87 = DIRECTION('',(-1.,0.));
#88 = ( GEOMETRIC_REPRESENTATION_CONTEXT(2) 
PARAMETRIC_REPRESENTATION_CONTEXT() REPRESENTATION_CONTEXT('2D SPACE',''
  ) );
#89 = ADVANCED_FACE('',(#90),#43,.T.);
#90 = FACE_BOUND('',#91,.T.);
#91 = EDGE_LOOP('',(#92,#116,#117,#118,#152,#225,#254,#322,#357,#430,
    #459,#527));
#92 = ORIENTED_EDGE('',*,*,#93,.F.);
#93 = EDGE_CURVE('',#22,#94,#96,.T.);
#94 = VERTEX_POINT('',#95);
#95 = CARTESIAN_POINT('',(3.680402166446,0.,1.4));
#96 = SEAM_CURVE('',#97,(#102,#109),.PCURVE_S1.);
#97 = B_SPLINE_CURVE_WITH_KNOTS('',3,(#98,#99,#100,#101),.UNSPECIFIED.,
  .F.,.F.,(4,4),(0.,3.124099870363),.PIECEWISE_BEZIER_KNOTS.);
#98 = CARTESIAN_POINT('',(4.,0.,0.));
#99 = CARTESIAN_POINT('',(3.882006396197,0.,1.348673062863));
#100 = CARTESIAN_POINT('',(3.466666666667,0.,2.4));
#101 = CARTESIAN_POINT('',(2.,0.,2.4));
#102 = PCURVE('',#43,#103);
#103 = DEFINITIONAL_REPRESENTATION('',(#104),#108);
#104 = LINE('',#105,#106);
#105 = CARTESIAN_POINT('',(0.,0.));
#106 = VECTOR('',#107,1.);
#107 = DIRECTION('',(0.,1.));
#108 = ( GEOMETRIC_REPRESENTATION_CONTEXT(2) 
PARAMETRIC_REPRESENTATION_CONTEXT() REPRESENTATION_CONTEXT('2D SPACE',''
  ) );
#109 = PCURVE('',#43,#110);
#110 = DEFINITIONAL_REPRESENTATION('',(#111),#115);
#111 = LINE('',#112,#113);
#112 = CARTESIAN_POINT('',(6.28318530718,0.));
#113 = VECTOR('',#114,1.);
#114 = DIRECTION('',(0.,1.));
#115 = ( GEOMETRIC_REPRESENTATION_CONTEXT(2) 
PARAMETRIC_REPRESENTATION_CONTEXT() REPRESENTATION_CONTEXT('2D SPACE',''
  ) );
#116 = ORIENTED_EDGE('',*,*,#21,.T.);
#117 = ORIENTED_EDGE('',*,*,#93,.T.);
#118 = ORIENTED_EDGE('',*,*,#119,.T.);
#119 = EDGE_CURVE('',#94,#120,#122,.T.);
#120 = VERTEX_POINT('',#121);
#121 = CARTESIAN_POINT('',(3.602129246263,-0.755,1.4));
#122 = SURFACE_CURVE('',#123,(#129,#138),.PCURVE_S1.);
#123 = B_SPLINE_CURVE_WITH_KNOTS('',4,(#124,#125,#126,#127,#128),
  .UNSPECIFIED.,.F.,.F.,(5,5),(0.,1.),.PIECEWISE_BEZIER_KNOTS.);
#124 = CARTESIAN_POINT('',(3.680402166446,-8.881784197001E-16,1.4));
#125 = CARTESIAN_POINT('',(3.680402166446,-0.190099348573,1.4));
#126 = CARTESIAN_POINT('',(3.667310131347,-0.380200089832,1.4));
#127 = CARTESIAN_POINT('',(3.641126340658,-0.568943610281,1.4));
#128 = CARTESIAN_POINT('',(3.602129246263,-0.755,1.4));
#129 = PCURVE('',#43,#130);
#130 = DEFINITIONAL_REPRESENTATION('',(#131),#137);
#131 = B_SPLINE_CURVE_WITH_KNOTS('',4,(#132,#133,#134,#135,#136),
  .UNSPECIFIED.,.F.,.F.,(5,5),(0.,1.),.PIECEWISE_BEZIER_KNOTS.);
#132 = CARTESIAN_POINT('',(6.28318530718,1.220953492927));
#133 = CARTESIAN_POINT('',(6.231533520235,1.220953492927));
#134 = CARTESIAN_POINT('',(6.17988161631,1.220953492927));
#135 = CARTESIAN_POINT('',(6.128229702196,1.220953492927));
#136 = CARTESIAN_POINT('',(6.076577921541,1.220953492927));
#137 = ( GEOMETRIC_REPRESENTATION_CONTEXT(2) 
PARAMETRIC_REPRESENTATION_CONTEXT() REPRESENTATION_CONTEXT('2D SPACE',''
  ) );
#138 = PCURVE('',#139,#144);
#139 = PLANE('',#140);
#140 = AXIS2_PLACEMENT_3D('',#141,#142,#143);
#141 = CARTESIAN_POINT('',(-4.669707779706E-17,0.,1.4));
#142 = DIRECTION('',(0.,0.,1.));
#143 = DIRECTION('',(1.,0.,-0.));
#144 = DEFINITIONAL_REPRESENTATION('',(#145),#151);
#145 = B_SPLINE_CURVE_WITH_KNOTS('',4,(#146,#147,#148,#149,#150),
  .UNSPECIFIED.,.F.,.F.,(5,5),(0.,1.),.PIECEWISE_BEZIER_KNOTS.);
#146 = CARTESIAN_POINT('',(3.680402166446,-8.881784197001E-16));
#147 = CARTESIAN_POINT('',(3.680402166446,-0.190099348573));
#148 = CARTESIAN_POINT('',(3.667310131347,-0.380200089832));
#149 = CARTESIAN_POINT('',(3.641126340658,-0.568943610281));
#150 = CARTESIAN_POINT('',(3.602129246263,-0.755));
#151 = ( GEOMETRIC_REPRESENTATION_CONTEXT(2) 
PARAMETRIC_REPRESENTATION_CONTEXT() REPRESENTATION_CONTEXT('2D SPACE',''
  ) );
#152 = ORIENTED_EDGE('',*,*,#153,.T.);
#153 = EDGE_CURVE('',#120,#154,#156,.T.);
#154 = VERTEX_POINT('',#155);
#155 = CARTESIAN_POINT('',(1.852019168367,-0.755,2.4));
#156 = SURFACE_CURVE('',#157,(#176,#198),.PCURVE_S1.);
#157 = B_SPLINE_CURVE_WITH_KNOTS('',5,(#158,#159,#160,#161,#162,#163,
    #164,#165,#166,#167,#168,#169,#170,#171,#172,#173,#174,#175),
  .UNSPECIFIED.,.F.,.F.,(6,4,4,4,6),(0.,0.177038648641,0.499394553513,
    0.78003898692,1.),.UNSPECIFIED.);
#158 = CARTESIAN_POINT('',(3.602129246263,-0.755,1.4));
#159 = CARTESIAN_POINT('',(3.570231582786,-0.755,1.467129212311));
#160 = CARTESIAN_POINT('',(3.535819919507,-0.755,1.532529453504));
#161 = CARTESIAN_POINT('',(3.498737335424,-0.755,1.595985709158));
#162 = CARTESIAN_POINT('',(3.458840422015,-0.755,1.657250634049));
#163 = CARTESIAN_POINT('',(3.338095680231,-0.755,1.823178361775));
#164 = CARTESIAN_POINT('',(3.250483833107,-0.755,1.922229138331));
#165 = CARTESIAN_POINT('',(3.15270142589,-0.755,2.011591158195));
#166 = CARTESIAN_POINT('',(3.044764000401,-0.755,2.089835465054));
#167 = CARTESIAN_POINT('',(2.826030230443,-0.755,2.214360532793));
#168 = CARTESIAN_POINT('',(2.717368406996,-0.755,2.263491087859));
#169 = CARTESIAN_POINT('',(2.602575535195,-0.755,2.303426980839));
#170 = CARTESIAN_POINT('',(2.482654970032,-0.755,2.334485157494));
#171 = CARTESIAN_POINT('',(2.261464264109,-0.755,2.375214948738));
#172 = CARTESIAN_POINT('',(2.161756110077,-0.755,2.388060868719));
#173 = CARTESIAN_POINT('',(2.0599919326,-0.755,2.396178759374));
#174 = CARTESIAN_POINT('',(1.956616357514,-0.755,2.4));
#175 = CARTESIAN_POINT('',(1.852019168367,-0.755,2.4));
#176 = PCURVE('',#43,#177);
#177 = DEFINITIONAL_REPRESENTATION('',(#178),#197);
#178 = B_SPLINE_CURVE_WITH_KNOTS('',5,(#179,#180,#181,#182,#183,#184,
    #185,#186,#187,#188,#189,#190,#191,#192,#193,#194,#195,#196),
  .UNSPECIFIED.,.F.,.F.,(6,4,4,4,6),(0.,0.177038648641,0.499394553513,
    0.78003898692,1.),.UNSPECIFIED.);
#179 = CARTESIAN_POINT('',(6.076577921541,1.220953492927));
#180 = CARTESIAN_POINT('',(6.074799989043,1.290783154908));
#181 = CARTESIAN_POINT('',(6.072844228973,1.361121918137));
#182 = CARTESIAN_POINT('',(6.070688413415,1.43192246649));
#183 = CARTESIAN_POINT('',(6.068306177273,1.503103793773));
#184 = CARTESIAN_POINT('',(6.060857867425,1.704627554647));
#185 = CARTESIAN_POINT('',(6.055191818047,1.835624611528));
#186 = CARTESIAN_POINT('',(6.048479699865,1.966678478594));
#187 = CARTESIAN_POINT('',(6.040470116504,2.096694361027));
#188 = CARTESIAN_POINT('',(6.022406241733,2.335496282111));
#189 = CARTESIAN_POINT('',(6.012747866052,2.444899006383));
#190 = CARTESIAN_POINT('',(6.001601037727,2.551715879766));
#191 = CARTESIAN_POINT('',(5.988658040019,2.655372911042));
#192 = CARTESIAN_POINT('',(5.961429664325,2.833866349184));
#193 = CARTESIAN_POINT('',(5.948038334845,2.910097850575));
#194 = CARTESIAN_POINT('',(5.93295545448,2.983955528744));
#195 = CARTESIAN_POINT('',(5.91583297682,3.055328492162));
#196 = CARTESIAN_POINT('',(5.896090257369,3.124099870363));
#197 = ( GEOMETRIC_REPRESENTATION_CONTEXT(2) 
PARAMETRIC_REPRESENTATION_CONTEXT() REPRESENTATION_CONTEXT('2D SPACE',''
  ) );
#198 = PCURVE('',#199,#204);
#199 = PLANE('',#200);
#200 = AXIS2_PLACEMENT_3D('',#201,#202,#203);
#201 = CARTESIAN_POINT('',(-4.,-0.755,2.4));
#202 = DIRECTION('',(0.,-1.,0.));
#203 = DIRECTION('',(1.,0.,0.));
#204 = DEFINITIONAL_REPRESENTATION('',(#205),#224);
#205 = B_SPLINE_CURVE_WITH_KNOTS('',5,(#206,#207,#208,#209,#210,#211,
    #212,#213,#214,#215,#216,#217,#218,#219,#220,#221,#222,#223),
  .UNSPECIFIED.,.F.,.F.,(6,4,4,4,6),(0.,0.177038648641,0.499394553513,
    0.78003898692,1.),.UNSPECIFIED.);
#206 = CARTESIAN_POINT('',(7.602129246263,-1.));
#207 = CARTESIAN_POINT('',(7.570231582786,-0.932870787689));
#208 = CARTESIAN_POINT('',(7.535819919507,-0.867470546496));
#209 = CARTESIAN_POINT('',(7.498737335424,-0.804014290842));
#210 = CARTESIAN_POINT('',(7.458840422015,-0.742749365951));
#211 = CARTESIAN_POINT('',(7.338095680231,-0.576821638225));
#212 = CARTESIAN_POINT('',(7.250483833107,-0.477770861669));
#213 = CARTESIAN_POINT('',(7.15270142589,-0.388408841805));
#214 = CARTESIAN_POINT('',(7.044764000401,-0.310164534946));
#215 = CARTESIAN_POINT('',(6.826030230443,-0.185639467207));
#216 = CARTESIAN_POINT('',(6.717368406996,-0.136508912141));
#217 = CARTESIAN_POINT('',(6.602575535195,-9.657301916112E-02));
#218 = CARTESIAN_POINT('',(6.482654970032,-6.551484250577E-02));
#219 = CARTESIAN_POINT('',(6.261464264109,-2.478505126183E-02));
#220 = CARTESIAN_POINT('',(6.161756110077,-1.193913128138E-02));
#221 = CARTESIAN_POINT('',(6.0599919326,-3.821240625843E-03));
#222 = CARTESIAN_POINT('',(5.956616357514,0.));
#223 = CARTESIAN_POINT('',(5.852019168367,0.));
#224 = ( GEOMETRIC_REPRESENTATION_CONTEXT(2) 
PARAMETRIC_REPRESENTATION_CONTEXT() REPRESENTATION_CONTEXT('2D SPACE',''
  ) );
#225 = ORIENTED_EDGE('',*,*,#226,.F.);
#226 = EDGE_CURVE('',#227,#154,#229,.T.);
#227 = VERTEX_POINT('',#228);
#228 = CARTESIAN_POINT('',(-1.852019168367,-0.755,2.4));
#229 = SURFACE_CURVE('',#230,(#235,#242),.PCURVE_S1.);
#230 = CIRCLE('',#231,2.);
#231 = AXIS2_PLACEMENT_3D('',#232,#233,#234);
#232 = CARTESIAN_POINT('',(0.,0.,2.4));
#233 = DIRECTION('',(0.,0.,1.));
#234 = DIRECTION('',(1.,0.,-0.));
#235 = PCURVE('',#43,#236);
#236 = DEFINITIONAL_REPRESENTATION('',(#237),#241);
#237 = LINE('',#238,#239);
#238 = CARTESIAN_POINT('',(0.,3.124099870363));
#239 = VECTOR('',#240,1.);
#240 = DIRECTION('',(1.,0.));
#241 = ( GEOMETRIC_REPRESENTATION_CONTEXT(2) 
PARAMETRIC_REPRESENTATION_CONTEXT() REPRESENTATION_CONTEXT('2D SPACE',''
  ) );
#242 = PCURVE('',#243,#248);
#243 = PLANE('',#244);
#244 = AXIS2_PLACEMENT_3D('',#245,#246,#247);
#245 = CARTESIAN_POINT('',(0.,0.,2.4));
#246 = DIRECTION('',(0.,0.,1.));
#247 = DIRECTION('',(1.,0.,-0.));
#248 = DEFINITIONAL_REPRESENTATION('',(#249),#253);
#249 = CIRCLE('',#250,2.);
#250 = AXIS2_PLACEMENT_2D('',#251,#252);
#251 = CARTESIAN_POINT('',(0.,0.));
#252 = DIRECTION('',(1.,0.));
#253 = ( GEOMETRIC_REPRESENTATION_CONTEXT(2) 
PARAMETRIC_REPRESENTATION_CONTEXT() REPRESENTATION_CONTEXT('2D SPACE',''
  ) );
#254 = ORIENTED_EDGE('',*,*,#255,.F.);
#255 = EDGE_CURVE('',#256,#227,#258,.T.);
#256 = VERTEX_POINT('',#257);
#257 = CARTESIAN_POINT('',(-3.602129246263,-0.755,1.4));
#258 = SURFACE_CURVE('',#259,(#278,#300),.PCURVE_S1.);
#259 = B_SPLINE_CURVE_WITH_KNOTS('',5,(#260,#261,#262,#263,#264,#265,
    #266,#267,#268,#269,#270,#271,#272,#273,#274,#275,#276,#277),
  .UNSPECIFIED.,.F.,.F.,(6,4,4,4,6),(0.,0.177038648641,0.499394553513,
    0.78003898692,1.),.UNSPECIFIED.);
#260 = CARTESIAN_POINT('',(-3.602129246263,-0.755,1.4));
#261 = CARTESIAN_POINT('',(-3.570231582786,-0.755,1.467129212311));
#262 = CARTESIAN_POINT('',(-3.535819919507,-0.755,1.532529453504));
#263 = CARTESIAN_POINT('',(-3.498737335424,-0.755,1.595985709158));
#264 = CARTESIAN_POINT('',(-3.458840422015,-0.755,1.657250634049));
#265 = CARTESIAN_POINT('',(-3.338095680231,-0.755,1.823178361775));
#266 = CARTESIAN_POINT('',(-3.250483833107,-0.755,1.922229138331));
#267 = CARTESIAN_POINT('',(-3.15270142589,-0.755,2.011591158195));
#268 = CARTESIAN_POINT('',(-3.044764000401,-0.755,2.089835465054));
#269 = CARTESIAN_POINT('',(-2.826030230443,-0.755,2.214360532793));
#270 = CARTESIAN_POINT('',(-2.717368406996,-0.755,2.263491087859));
#271 = CARTESIAN_POINT('',(-2.602575535195,-0.755,2.303426980839));
#272 = CARTESIAN_POINT('',(-2.482654970032,-0.755,2.334485157494));
#273 = CARTESIAN_POINT('',(-2.261464264109,-0.755,2.375214948738));
#274 = CARTESIAN_POINT('',(-2.161756110077,-0.755,2.388060868719));
#275 = CARTESIAN_POINT('',(-2.0599919326,-0.755,2.396178759374));
#276 = CARTESIAN_POINT('',(-1.956616357514,-0.755,2.4));
#277 = CARTESIAN_POINT('',(-1.852019168367,-0.755,2.4));
#278 = PCURVE('',#43,#279);
#279 = DEFINITIONAL_REPRESENTATION('',(#280),#299);
#280 = B_SPLINE_CURVE_WITH_KNOTS('',5,(#281,#282,#283,#284,#285,#286,
    #287,#288,#289,#290,#291,#292,#293,#294,#295,#296,#297,#298),
  .UNSPECIFIED.,.F.,.F.,(6,4,4,4,6),(0.,0.177038648641,0.499394553513,
    0.78003898692,1.),.UNSPECIFIED.);
#281 = CARTESIAN_POINT('',(3.348200039229,1.220953492927));
#282 = CARTESIAN_POINT('',(3.349977971726,1.290783154908));
#283 = CARTESIAN_POINT('',(3.351933731796,1.361121918137));
#284 = CARTESIAN_POINT('',(3.354089547355,1.43192246649));
#285 = CARTESIAN_POINT('',(3.356471783497,1.503103793773));
#286 = CARTESIAN_POINT('',(3.363920093345,1.704627554647));
#287 = CARTESIAN_POINT('',(3.369586142722,1.835624611528));
#288 = CARTESIAN_POINT('',(3.376298260904,1.966678478594));
#289 = CARTESIAN_POINT('',(3.384307844266,2.096694361027));
#290 = CARTESIAN_POINT('',(3.402371719036,2.335496282111));
#291 = CARTESIAN_POINT('',(3.412030094717,2.444899006383));
#292 = CARTESIAN_POINT('',(3.423176923042,2.551715879767));
#293 = CARTESIAN_POINT('',(3.436119920751,2.655372911042));
#294 = CARTESIAN_POINT('',(3.463348296444,2.833866349184));
#295 = CARTESIAN_POINT('',(3.476739625924,2.910097850575));
#296 = CARTESIAN_POINT('',(3.491822506289,2.983955528744));
#297 = CARTESIAN_POINT('',(3.508944983949,3.055328492162));
#298 = CARTESIAN_POINT('',(3.528687703401,3.124099870363));
#299 = ( GEOMETRIC_REPRESENTATION_CONTEXT(2) 
PARAMETRIC_REPRESENTATION_CONTEXT() REPRESENTATION_CONTEXT('2D SPACE',''
  ) );
#300 = PCURVE('',#199,#301);
#301 = DEFINITIONAL_REPRESENTATION('',(#302),#321);
#302 = B_SPLINE_CURVE_WITH_KNOTS('',5,(#303,#304,#305,#306,#307,#308,
    #309,#310,#311,#312,#313,#314,#315,#316,#317,#318,#319,#320),
  .UNSPECIFIED.,.F.,.F.,(6,4,4,4,6),(0.,0.177038648641,0.499394553513,
    0.78003898692,1.),.UNSPECIFIED.);
#303 = CARTESIAN_POINT('',(0.397870753737,-1.));
#304 = CARTESIAN_POINT('',(0.429768417214,-0.932870787689));
#305 = CARTESIAN_POINT('',(0.464180080493,-0.867470546496));
#306 = CARTESIAN_POINT('',(0.501262664576,-0.804014290842));
#307 = CARTESIAN_POINT('',(0.541159577985,-0.742749365951));
#308 = CARTESIAN_POINT('',(0.661904319769,-0.576821638225));
#309 = CARTESIAN_POINT('',(0.749516166893,-0.477770861669));
#310 = CARTESIAN_POINT('',(0.84729857411,-0.388408841805));
#311 = CARTESIAN_POINT('',(0.955235999599,-0.310164534946));
#312 = CARTESIAN_POINT('',(1.173969769557,-0.185639467207));
#313 = CARTESIAN_POINT('',(1.282631593004,-0.136508912141));
#314 = CARTESIAN_POINT('',(1.397424464805,-9.657301916111E-02));
#315 = CARTESIAN_POINT('',(1.517345029968,-6.551484250577E-02));
#316 = CARTESIAN_POINT('',(1.738535735891,-2.478505126183E-02));
#317 = CARTESIAN_POINT('',(1.838243889923,-1.193913128141E-02));
#318 = CARTESIAN_POINT('',(1.9400080674,-3.821240625824E-03));
#319 = CARTESIAN_POINT('',(2.043383642486,0.));
#320 = CARTESIAN_POINT('',(2.147980831633,0.));
#321 = ( GEOMETRIC_REPRESENTATION_CONTEXT(2) 
PARAMETRIC_REPRESENTATION_CONTEXT() REPRESENTATION_CONTEXT('2D SPACE',''
  ) );
#322 = ORIENTED_EDGE('',*,*,#323,.T.);
#323 = EDGE_CURVE('',#256,#324,#326,.T.);
#324 = VERTEX_POINT('',#325);
#325 = CARTESIAN_POINT('',(-3.602129246263,0.755,1.4));
#326 = SURFACE_CURVE('',#327,(#335,#346),.PCURVE_S1.);
#327 = B_SPLINE_CURVE_WITH_KNOTS('',6,(#328,#329,#330,#331,#332,#333,
    #334),.UNSPECIFIED.,.F.,.F.,(7,7),(0.,1.),.PIECEWISE_BEZIER_KNOTS.);
#328 = CARTESIAN_POINT('',(-3.602129246263,-0.755,1.4));
#329 = CARTESIAN_POINT('',(-3.65412448264,-0.506929057455,1.4));
#330 = CARTESIAN_POINT('',(-3.685622237042,-0.254544567774,1.4));
#331 = CARTESIAN_POINT('',(-3.696165961602,4.107825191113E-15,1.4));
#332 = CARTESIAN_POINT('',(-3.685622237042,0.254544567774,1.4));
#333 = CARTESIAN_POINT('',(-3.65412448264,0.506929057455,1.4));
#334 = CARTESIAN_POINT('',(-3.602129246263,0.755,1.4));
#335 = PCURVE('',#43,#336);
#336 = DEFINITIONAL_REPRESENTATION('',(#337),#345);
#337 = B_SPLINE_CURVE_WITH_KNOTS('',6,(#338,#339,#340,#341,#342,#343,
    #344),.UNSPECIFIED.,.F.,.F.,(7,7),(0.,1.),.PIECEWISE_BEZIER_KNOTS.);
#338 = CARTESIAN_POINT('',(3.348200039229,1.220953492927));
#339 = CARTESIAN_POINT('',(3.279332176477,1.220953492927));
#340 = CARTESIAN_POINT('',(3.210459757099,1.220953492927));
#341 = CARTESIAN_POINT('',(3.14159265359,1.220953492927));
#342 = CARTESIAN_POINT('',(3.07272555008,1.220953492927));
#343 = CARTESIAN_POINT('',(3.003853130702,1.220953492927));
#344 = CARTESIAN_POINT('',(2.934985267951,1.220953492927));
#345 = ( GEOMETRIC_REPRESENTATION_CONTEXT(2) 
PARAMETRIC_REPRESENTATION_CONTEXT() REPRESENTATION_CONTEXT('2D SPACE',''
  ) );
#346 = PCURVE('',#139,#347);
#347 = DEFINITIONAL_REPRESENTATION('',(#348),#356);
#348 = B_SPLINE_CURVE_WITH_KNOTS('',6,(#349,#350,#351,#352,#353,#354,
    #355),.UNSPECIFIED.,.F.,.F.,(7,7),(0.,1.),.PIECEWISE_BEZIER_KNOTS.);
#349 = CARTESIAN_POINT('',(-3.602129246263,-0.755));
#350 = CARTESIAN_POINT('',(-3.65412448264,-0.506929057455));
#351 = CARTESIAN_POINT('',(-3.685622237042,-0.254544567774));
#352 = CARTESIAN_POINT('',(-3.696165961602,4.107825191113E-15));
#353 = CARTESIAN_POINT('',(-3.685622237042,0.254544567774));
#354 = CARTESIAN_POINT('',(-3.65412448264,0.506929057455));
#355 = CARTESIAN_POINT('',(-3.602129246263,0.755));
#356 = ( GEOMETRIC_REPRESENTATION_CONTEXT(2) 
PARAMETRIC_REPRESENTATION_CONTEXT() REPRESENTATION_CONTEXT('2D SPACE',''
  ) );
#357 = ORIENTED_EDGE('',*,*,#358,.T.);
#358 = EDGE_CURVE('',#324,#359,#361,.T.);
#359 = VERTEX_POINT('',#360);
#360 = CARTESIAN_POINT('',(-1.852019168367,0.755,2.4));
#361 = SURFACE_CURVE('',#362,(#381,#403),.PCURVE_S1.);
#362 = B_SPLINE_CURVE_WITH_KNOTS('',5,(#363,#364,#365,#366,#367,#368,
    #369,#370,#371,#372,#373,#374,#375,#376,#377,#378,#379,#380),
  .UNSPECIFIED.,.F.,.F.,(6,4,4,4,6),(0.,0.177038648641,0.499394553513,
    0.78003898692,1.),.UNSPECIFIED.);
#363 = CARTESIAN_POINT('',(-3.602129246263,0.755,1.4));
#364 = CARTESIAN_POINT('',(-3.570231582786,0.755,1.467129212311));
#365 = CARTESIAN_POINT('',(-3.535819919507,0.755,1.532529453504));
#366 = CARTESIAN_POINT('',(-3.498737335424,0.755,1.595985709158));
#367 = CARTESIAN_POINT('',(-3.458840422015,0.755,1.657250634049));
#368 = CARTESIAN_POINT('',(-3.338095680231,0.755,1.823178361775));
#369 = CARTESIAN_POINT('',(-3.250483833107,0.755,1.922229138331));
#370 = CARTESIAN_POINT('',(-3.15270142589,0.755,2.011591158195));
#371 = CARTESIAN_POINT('',(-3.044764000401,0.755,2.089835465054));
#372 = CARTESIAN_POINT('',(-2.826030230443,0.755,2.214360532793));
#373 = CARTESIAN_POINT('',(-2.717368406996,0.755,2.263491087859));
#374 = CARTESIAN_POINT('',(-2.602575535195,0.755,2.303426980839));
#375 = CARTESIAN_POINT('',(-2.482654970032,0.755,2.334485157494));
#376 = CARTESIAN_POINT('',(-2.261464264109,0.755,2.375214948738));
#377 = CARTESIAN_POINT('',(-2.161756110077,0.755,2.388060868719));
#378 = CARTESIAN_POINT('',(-2.0599919326,0.755,2.396178759374));
#379 = CARTESIAN_POINT('',(-1.956616357514,0.755,2.4));
#380 = CARTESIAN_POINT('',(-1.852019168367,0.755,2.4));
#381 = PCURVE('',#43,#382);
#382 = DEFINITIONAL_REPRESENTATION('',(#383),#402);
#383 = B_SPLINE_CURVE_WITH_KNOTS('',5,(#384,#385,#386,#387,#388,#389,
    #390,#391,#392,#393,#394,#395,#396,#397,#398,#399,#400,#401),
  .UNSPECIFIED.,.F.,.F.,(6,4,4,4,6),(0.,0.177038648641,0.499394553513,
    0.78003898692,1.),.UNSPECIFIED.);
#384 = CARTESIAN_POINT('',(2.934985267951,1.220953492927));
#385 = CARTESIAN_POINT('',(2.933207335453,1.290783154908));
#386 = CARTESIAN_POINT('',(2.931251575383,1.361121918137));
#387 = CARTESIAN_POINT('',(2.929095759825,1.43192246649));
#388 = CARTESIAN_POINT('',(2.926713523683,1.503103793773));
#389 = CARTESIAN_POINT('',(2.919265213835,1.704627554647));
#390 = CARTESIAN_POINT('',(2.913599164457,1.835624611528));
#391 = CARTESIAN_POINT('',(2.906887046275,1.966678478594));
#392 = CARTESIAN_POINT('',(2.898877462914,2.096694361027));
#393 = CARTESIAN_POINT('',(2.880813588143,2.335496282111));
#394 = CARTESIAN_POINT('',(2.871155212462,2.444899006383));
#395 = CARTESIAN_POINT('',(2.860008384137,2.551715879766));
#396 = CARTESIAN_POINT('',(2.847065386429,2.655372911042));
#397 = CARTESIAN_POINT('',(2.819837010735,2.833866349184));
#398 = CARTESIAN_POINT('',(2.806445681255,2.910097850575));
#399 = CARTESIAN_POINT('',(2.791362800891,2.983955528744));
#400 = CARTESIAN_POINT('',(2.77424032323,3.055328492162));
#401 = CARTESIAN_POINT('',(2.754497603779,3.124099870363));
#402 = ( GEOMETRIC_REPRESENTATION_CONTEXT(2) 
PARAMETRIC_REPRESENTATION_CONTEXT() REPRESENTATION_CONTEXT('2D SPACE',''
  ) );
#403 = PCURVE('',#404,#409);
#404 = PLANE('',#405);
#405 = AXIS2_PLACEMENT_3D('',#406,#407,#408);
#406 = CARTESIAN_POINT('',(4.,0.755,2.4));
#407 = DIRECTION('',(0.,1.,0.));
#408 = DIRECTION('',(-1.,0.,0.));
#409 = DEFINITIONAL_REPRESENTATION('',(#410),#429);
#410 = B_SPLINE_CURVE_WITH_KNOTS('',5,(#411,#412,#413,#414,#415,#416,
    #417,#418,#419,#420,#421,#422,#423,#424,#425,#426,#427,#428),
  .UNSPECIFIED.,.F.,.F.,(6,4,4,4,6),(0.,0.177038648641,0.499394553513,
    0.78003898692,1.),.UNSPECIFIED.);
#411 = CARTESIAN_POINT('',(7.602129246263,-1.));
#412 = CARTESIAN_POINT('',(7.570231582786,-0.932870787689));
#413 = CARTESIAN_POINT('',(7.535819919507,-0.867470546496));
#414 = CARTESIAN_POINT('',(7.498737335424,-0.804014290842));
#415 = CARTESIAN_POINT('',(7.458840422015,-0.742749365951));
#416 = CARTESIAN_POINT('',(7.338095680231,-0.576821638225));
#417 = CARTESIAN_POINT('',(7.250483833107,-0.477770861669));
#418 = CARTESIAN_POINT('',(7.15270142589,-0.388408841805));
#419 = CARTESIAN_POINT('',(7.044764000401,-0.310164534946));
#420 = CARTESIAN_POINT('',(6.826030230443,-0.185639467207));
#421 = CARTESIAN_POINT('',(6.717368406996,-0.136508912141));
#422 = CARTESIAN_POINT('',(6.602575535195,-9.657301916114E-02));
#423 = CARTESIAN_POINT('',(6.482654970032,-6.551484250577E-02));
#424 = CARTESIAN_POINT('',(6.261464264109,-2.478505126183E-02));
#425 = CARTESIAN_POINT('',(6.161756110077,-1.19391312814E-02));
#426 = CARTESIAN_POINT('',(6.0599919326,-3.82124062583E-03));
#427 = CARTESIAN_POINT('',(5.956616357514,0.));
#428 = CARTESIAN_POINT('',(5.852019168367,0.));
#429 = ( GEOMETRIC_REPRESENTATION_CONTEXT(2) 
PARAMETRIC_REPRESENTATION_CONTEXT() REPRESENTATION_CONTEXT('2D SPACE',''
  ) );
#430 = ORIENTED_EDGE('',*,*,#431,.F.);
#431 = EDGE_CURVE('',#432,#359,#434,.T.);
#432 = VERTEX_POINT('',#433);
#433 = CARTESIAN_POINT('',(1.852019168367,0.755,2.4));
#434 = SURFACE_CURVE('',#435,(#440,#447),.PCURVE_S1.);
#435 = CIRCLE('',#436,2.);
#436 = AXIS2_PLACEMENT_3D('',#437,#438,#439);
#437 = CARTESIAN_POINT('',(0.,0.,2.4));
#438 = DIRECTION('',(0.,0.,1.));
#439 = DIRECTION('',(1.,0.,-0.));
#440 = PCURVE('',#43,#441);
#441 = DEFINITIONAL_REPRESENTATION('',(#442),#446);
#442 = LINE('',#443,#444);
#443 = CARTESIAN_POINT('',(0.,3.124099870363));
#444 = VECTOR('',#445,1.);
#445 = DIRECTION('',(1.,0.));
#446 = ( GEOMETRIC_REPRESENTATION_CONTEXT(2) 
PARAMETRIC_REPRESENTATION_CONTEXT() REPRESENTATION_CONTEXT('2D SPACE',''
  ) );
#447 = PCURVE('',#448,#453);
#448 = PLANE('',#449);
#449 = AXIS2_PLACEMENT_3D('',#450,#451,#452);
#450 = CARTESIAN_POINT('',(0.,0.,2.4));
#451 = DIRECTION('',(0.,0.,1.));
#452 = DIRECTION('',(1.,0.,-0.));
#453 = DEFINITIONAL_REPRESENTATION('',(#454),#458);
#454 = CIRCLE('',#455,2.);
#455 = AXIS2_PLACEMENT_2D('',#456,#457);
#456 = CARTESIAN_POINT('',(0.,0.));
#457 = DIRECTION('',(1.,0.));
#458 = ( GEOMETRIC_REPRESENTATION_CONTEXT(2) 
PARAMETRIC_REPRESENTATION_CONTEXT() REPRESENTATION_CONTEXT('2D SPACE',''
  ) );
#459 = ORIENTED_EDGE('',*,*,#460,.F.);
#460 = EDGE_CURVE('',#461,#432,#463,.T.);
#461 = VERTEX_POINT('',#462);
#462 = CARTESIAN_POINT('',(3.602129246263,0.755,1.4));
#463 = SURFACE_CURVE('',#464,(#483,#505),.PCURVE_S1.);
#464 = B_SPLINE_CURVE_WITH_KNOTS('',5,(#465,#466,#467,#468,#469,#470,
    #471,#472,#473,#474,#475,#476,#477,#478,#479,#480,#481,#482),
  .UNSPECIFIED.,.F.,.F.,(6,4,4,4,6),(0.,0.177038648641,0.499394553513,
    0.78003898692,1.),.UNSPECIFIED.);
#465 = CARTESIAN_POINT('',(3.602129246263,0.755,1.4));
#466 = CARTESIAN_POINT('',(3.570231582786,0.755,1.467129212311));
#467 = CARTESIAN_POINT('',(3.535819919507,0.755,1.532529453504));
#468 = CARTESIAN_POINT('',(3.498737335424,0.755,1.595985709158));
#469 = CARTESIAN_POINT('',(3.458840422015,0.755,1.657250634049));
#470 = CARTESIAN_POINT('',(3.338095680231,0.755,1.823178361775));
#471 = CARTESIAN_POINT('',(3.250483833107,0.755,1.922229138331));
#472 = CARTESIAN_POINT('',(3.15270142589,0.755,2.011591158195));
#473 = CARTESIAN_POINT('',(3.044764000401,0.755,2.089835465054));
#474 = CARTESIAN_POINT('',(2.826030230443,0.755,2.214360532793));
#475 = CARTESIAN_POINT('',(2.717368406996,0.755,2.263491087859));
#476 = CARTESIAN_POINT('',(2.602575535195,0.755,2.303426980839));
#477 = CARTESIAN_POINT('',(2.482654970032,0.755,2.334485157494));
#478 = CARTESIAN_POINT('',(2.261464264109,0.755,2.375214948738));
#479 = CARTESIAN_POINT('',(2.161756110077,0.755,2.388060868719));
#480 = CARTESIAN_POINT('',(2.0599919326,0.755,2.396178759374));
#481 = CARTESIAN_POINT('',(1.956616357514,0.755,2.4));
#482 = CARTESIAN_POINT('',(1.852019168367,0.755,2.4));
#483 = PCURVE('',#43,#484);
#484 = DEFINITIONAL_REPRESENTATION('',(#485),#504);
#485 = B_SPLINE_CURVE_WITH_KNOTS('',5,(#486,#487,#488,#489,#490,#491,
    #492,#493,#494,#495,#496,#497,#498,#499,#500,#501,#502,#503),
  .UNSPECIFIED.,.F.,.F.,(6,4,4,4,6),(0.,0.177038648641,0.499394553513,
    0.78003898692,1.),.UNSPECIFIED.);
#486 = CARTESIAN_POINT('',(0.206607385639,1.220953492927));
#487 = CARTESIAN_POINT('',(0.208385318137,1.290783154908));
#488 = CARTESIAN_POINT('',(0.210341078207,1.361121918137));
#489 = CARTESIAN_POINT('',(0.212496893765,1.43192246649));
#490 = CARTESIAN_POINT('',(0.214879129907,1.503103793773));
#491 = CARTESIAN_POINT('',(0.222327439755,1.704627554647));
#492 = CARTESIAN_POINT('',(0.227993489132,1.835624611528));
#493 = CARTESIAN_POINT('',(0.234705607314,1.966678478594));
#494 = CARTESIAN_POINT('',(0.242715190676,2.096694361027));
#495 = CARTESIAN_POINT('',(0.260779065446,2.335496282111));
#496 = CARTESIAN_POINT('',(0.270437441128,2.444899006383));
#497 = CARTESIAN_POINT('',(0.281584269452,2.551715879767));
#498 = CARTESIAN_POINT('',(0.294527267161,2.655372911042));
#499 = CARTESIAN_POINT('',(0.321755642855,2.833866349184));
#500 = CARTESIAN_POINT('',(0.335146972334,2.910097850575));
#501 = CARTESIAN_POINT('',(0.350229852699,2.983955528744));
#502 = CARTESIAN_POINT('',(0.367352330359,3.055328492162));
#503 = CARTESIAN_POINT('',(0.387095049811,3.124099870363));
#504 = ( GEOMETRIC_REPRESENTATION_CONTEXT(2) 
PARAMETRIC_REPRESENTATION_CONTEXT() REPRESENTATION_CONTEXT('2D SPACE',''
  ) );
#505 = PCURVE('',#404,#506);
#506 = DEFINITIONAL_REPRESENTATION('',(#507),#526);
#507 = B_SPLINE_CURVE_WITH_KNOTS('',5,(#508,#509,#510,#511,#512,#513,
    #514,#515,#516,#517,#518,#519,#520,#521,#522,#523,#524,#525),
  .UNSPECIFIED.,.F.,.F.,(6,4,4,4,6),(0.,0.177038648641,0.499394553513,
    0.78003898692,1.),.UNSPECIFIED.);
#508 = CARTESIAN_POINT('',(0.397870753737,-1.));
#509 = CARTESIAN_POINT('',(0.429768417214,-0.932870787689));
#510 = CARTESIAN_POINT('',(0.464180080493,-0.867470546496));
#511 = CARTESIAN_POINT('',(0.501262664576,-0.804014290842));
#512 = CARTESIAN_POINT('',(0.541159577985,-0.742749365951));
#513 = CARTESIAN_POINT('',(0.661904319769,-0.576821638225));
#514 = CARTESIAN_POINT('',(0.749516166893,-0.477770861669));
#515 = CARTESIAN_POINT('',(0.84729857411,-0.388408841805));
#516 = CARTESIAN_POINT('',(0.955235999599,-0.310164534946));
#517 = CARTESIAN_POINT('',(1.173969769557,-0.185639467207));
#518 = CARTESIAN_POINT('',(1.282631593004,-0.136508912141));
#519 = CARTESIAN_POINT('',(1.397424464805,-9.657301916113E-02));
#520 = CARTESIAN_POINT('',(1.517345029968,-6.551484250577E-02));
#521 = CARTESIAN_POINT('',(1.738535735891,-2.478505126183E-02));
#522 = CARTESIAN_POINT('',(1.838243889923,-1.193913128138E-02));
#523 = CARTESIAN_POINT('',(1.9400080674,-3.821240625846E-03));
#524 = CARTESIAN_POINT('',(2.043383642486,0.));
#525 = CARTESIAN_POINT('',(2.147980831633,0.));
#526 = ( GEOMETRIC_REPRESENTATION_CONTEXT(2) 
PARAMETRIC_REPRESENTATION_CONTEXT() REPRESENTATION_CONTEXT('2D SPACE',''
  ) );
#527 = ORIENTED_EDGE('',*,*,#528,.T.);
#528 = EDGE_CURVE('',#461,#94,#529,.T.);
#529 = SURFACE_CURVE('',#530,(#536,#545),.PCURVE_S1.);
#530 = B_SPLINE_CURVE_WITH_KNOTS('',4,(#531,#532,#533,#534,#535),
  .UNSPECIFIED.,.F.,.F.,(5,5),(0.,1.),.PIECEWISE_BEZIER_KNOTS.);
#531 = CARTESIAN_POINT('',(3.602129246263,0.755,1.4));
#532 = CARTESIAN_POINT('',(3.641126340658,0.568943610281,1.4));
#533 = CARTESIAN_POINT('',(3.667310131347,0.380200089832,1.4));
#534 = CARTESIAN_POINT('',(3.680402166446,0.190099348573,1.4));
#535 = CARTESIAN_POINT('',(3.680402166446,0.,1.4));
#536 = PCURVE('',#43,#537);
#537 = DEFINITIONAL_REPRESENTATION('',(#538),#544);
#538 = B_SPLINE_CURVE_WITH_KNOTS('',4,(#539,#540,#541,#542,#543),
  .UNSPECIFIED.,.F.,.F.,(5,5),(0.,1.),.PIECEWISE_BEZIER_KNOTS.);
#539 = CARTESIAN_POINT('',(0.206607385639,1.220953492927));
#540 = CARTESIAN_POINT('',(0.154955604984,1.220953492927));
#541 = CARTESIAN_POINT('',(0.10330369087,1.220953492927));
#542 = CARTESIAN_POINT('',(5.165178694481E-02,1.220953492927));
#543 = CARTESIAN_POINT('',(0.,1.220953492927));
#544 = ( GEOMETRIC_REPRESENTATION_CONTEXT(2) 
PARAMETRIC_REPRESENTATION_CONTEXT() REPRESENTATION_CONTEXT('2D SPACE',''
  ) );
#545 = PCURVE('',#139,#546);
#546 = DEFINITIONAL_REPRESENTATION('',(#547),#553);
#547 = B_SPLINE_CURVE_WITH_KNOTS('',4,(#548,#549,#550,#551,#552),
  .UNSPECIFIED.,.F.,.F.,(5,5),(0.,1.),.PIECEWISE_BEZIER_KNOTS.);
#548 = CARTESIAN_POINT('',(3.602129246263,0.755));
#549 = CARTESIAN_POINT('',(3.641126340658,0.568943610281));
#550 = CARTESIAN_POINT('',(3.667310131347,0.380200089832));
#551 = CARTESIAN_POINT('',(3.680402166446,0.190099348573));
#552 = CARTESIAN_POINT('',(3.680402166446,0.));
#553 = ( GEOMETRIC_REPRESENTATION_CONTEXT(2) 
PARAMETRIC_REPRESENTATION_CONTEXT() REPRESENTATION_CONTEXT('2D SPACE',''
  ) );
#554 = ADVANCED_FACE('',(#555),#78,.T.);
#555 = FACE_BOUND('',#556,.F.);
#556 = EDGE_LOOP('',(#557,#580,#581,#582));
#557 = ORIENTED_EDGE('',*,*,#558,.T.);
#558 = EDGE_CURVE('',#559,#62,#561,.T.);
#559 = VERTEX_POINT('',#560);
#560 = CARTESIAN_POINT('',(1.621113885844,0.,-16.));
#561 = SEAM_CURVE('',#562,(#566,#573),.PCURVE_S1.);
#562 = LINE('',#563,#564);
#563 = CARTESIAN_POINT('',(1.621113885844,0.,-16.));
#564 = VECTOR('',#565,1.);
#565 = DIRECTION('',(0.,0.,1.));
#566 = PCURVE('',#78,#567);
#567 = DEFINITIONAL_REPRESENTATION('',(#568),#572);
#568 = LINE('',#569,#570);
#569 = CARTESIAN_POINT('',(-0.,0.));
#570 = VECTOR('',#571,1.);
#571 = DIRECTION('',(-0.,-1.));
#572 = ( GEOMETRIC_REPRESENTATION_CONTEXT(2) 
PARAMETRIC_REPRESENTATION_CONTEXT() REPRESENTATION_CONTEXT('2D SPACE',''
  ) );
#573 = PCURVE('',#78,#574);
#574 = DEFINITIONAL_REPRESENTATION('',(#575),#579);
#575 = LINE('',#576,#577);
#576 = CARTESIAN_POINT('',(-6.28318530718,0.));
#577 = VECTOR('',#578,1.);
#578 = DIRECTION('',(-0.,-1.));
#579 = ( GEOMETRIC_REPRESENTATION_CONTEXT(2) 
PARAMETRIC_REPRESENTATION_CONTEXT() REPRESENTATION_CONTEXT('2D SPACE',''
  ) );
#580 = ORIENTED_EDGE('',*,*,#61,.T.);
#581 = ORIENTED_EDGE('',*,*,#558,.F.);
#582 = ORIENTED_EDGE('',*,*,#583,.F.);
#583 = EDGE_CURVE('',#559,#559,#584,.T.);
#584 = SURFACE_CURVE('',#585,(#590,#597),.PCURVE_S1.);
#585 = CIRCLE('',#586,1.621113885844);
#586 = AXIS2_PLACEMENT_3D('',#587,#588,#589);
#587 = CARTESIAN_POINT('',(0.,0.,-16.));
#588 = DIRECTION('',(0.,0.,1.));
#589 = DIRECTION('',(1.,0.,-0.));
#590 = PCURVE('',#78,#591);
#591 = DEFINITIONAL_REPRESENTATION('',(#592),#596);
#592 = LINE('',#593,#594);
#593 = CARTESIAN_POINT('',(-0.,0.));
#594 = VECTOR('',#595,1.);
#595 = DIRECTION('',(-1.,0.));
#596 = ( GEOMETRIC_REPRESENTATION_CONTEXT(2) 
PARAMETRIC_REPRESENTATION_CONTEXT() REPRESENTATION_CONTEXT('2D SPACE',''
  ) );
#597 = PCURVE('',#598,#603);
#598 = PLANE('',#599);
#599 = AXIS2_PLACEMENT_3D('',#600,#601,#602);
#600 = CARTESIAN_POINT('',(-1.054398571624E-16,3.926345945066E-17,-16.)
  );
#601 = DIRECTION('',(0.,0.,1.));
#602 = DIRECTION('',(1.,0.,-0.));
#603 = DEFINITIONAL_REPRESENTATION('',(#604),#608);
#604 = CIRCLE('',#605,1.621113885844);
#605 = AXIS2_PLACEMENT_2D('',#606,#607);
#606 = CARTESIAN_POINT('',(1.054398571624E-16,-3.926345945066E-17));
#607 = DIRECTION('',(1.,0.));
#608 = ( GEOMETRIC_REPRESENTATION_CONTEXT(2) 
PARAMETRIC_REPRESENTATION_CONTEXT() REPRESENTATION_CONTEXT('2D SPACE',''
  ) );
#609 = ADVANCED_FACE('',(#610),#139,.T.);
#610 = FACE_BOUND('',#611,.T.);
#611 = EDGE_LOOP('',(#612,#613,#634,#635,#636));
#612 = ORIENTED_EDGE('',*,*,#323,.F.);
#613 = ORIENTED_EDGE('',*,*,#614,.T.);
#614 = EDGE_CURVE('',#256,#120,#615,.T.);
#615 = SURFACE_CURVE('',#616,(#620,#627),.PCURVE_S1.);
#616 = LINE('',#617,#618);
#617 = CARTESIAN_POINT('',(-4.,-0.755,1.4));
#618 = VECTOR('',#619,1.);
#619 = DIRECTION('',(1.,0.,0.));
#620 = PCURVE('',#139,#621);
#621 = DEFINITIONAL_REPRESENTATION('',(#622),#626);
#622 = LINE('',#623,#624);
#623 = CARTESIAN_POINT('',(-4.,-0.755));
#624 = VECTOR('',#625,1.);
#625 = DIRECTION('',(1.,0.));
#626 = ( GEOMETRIC_REPRESENTATION_CONTEXT(2) 
PARAMETRIC_REPRESENTATION_CONTEXT() REPRESENTATION_CONTEXT('2D SPACE',''
  ) );
#627 = PCURVE('',#199,#628);
#628 = DEFINITIONAL_REPRESENTATION('',(#629),#633);
#629 = LINE('',#630,#631);
#630 = CARTESIAN_POINT('',(0.,-1.));
#631 = VECTOR('',#632,1.);
#632 = DIRECTION('',(1.,0.));
#633 = ( GEOMETRIC_REPRESENTATION_CONTEXT(2) 
PARAMETRIC_REPRESENTATION_CONTEXT() REPRESENTATION_CONTEXT('2D SPACE',''
  ) );
#634 = ORIENTED_EDGE('',*,*,#119,.F.);
#635 = ORIENTED_EDGE('',*,*,#528,.F.);
#636 = ORIENTED_EDGE('',*,*,#637,.T.);
#637 = EDGE_CURVE('',#461,#324,#638,.T.);
#638 = SURFACE_CURVE('',#639,(#643,#650),.PCURVE_S1.);
#639 = LINE('',#640,#641);
#640 = CARTESIAN_POINT('',(4.,0.755,1.4));
#641 = VECTOR('',#642,1.);
#642 = DIRECTION('',(-1.,0.,0.));
#643 = PCURVE('',#139,#644);
#644 = DEFINITIONAL_REPRESENTATION('',(#645),#649);
#645 = LINE('',#646,#647);
#646 = CARTESIAN_POINT('',(4.,0.755));
#647 = VECTOR('',#648,1.);
#648 = DIRECTION('',(-1.,0.));
#649 = ( GEOMETRIC_REPRESENTATION_CONTEXT(2) 
PARAMETRIC_REPRESENTATION_CONTEXT() REPRESENTATION_CONTEXT('2D SPACE',''
  ) );
#650 = PCURVE('',#404,#651);
#651 = DEFINITIONAL_REPRESENTATION('',(#652),#656);
#652 = LINE('',#653,#654);
#653 = CARTESIAN_POINT('',(0.,-1.));
#654 = VECTOR('',#655,1.);
#655 = DIRECTION('',(1.,0.));
#656 = ( GEOMETRIC_REPRESENTATION_CONTEXT(2) 
PARAMETRIC_REPRESENTATION_CONTEXT() REPRESENTATION_CONTEXT('2D SPACE',''
  ) );
#657 = ADVANCED_FACE('',(#658),#404,.F.);
#658 = FACE_BOUND('',#659,.F.);
#659 = EDGE_LOOP('',(#660,#681,#682,#683));
#660 = ORIENTED_EDGE('',*,*,#661,.F.);
#661 = EDGE_CURVE('',#432,#359,#662,.T.);
#662 = SURFACE_CURVE('',#663,(#667,#674),.PCURVE_S1.);
#663 = LINE('',#664,#665);
#664 = CARTESIAN_POINT('',(4.,0.755,2.4));
#665 = VECTOR('',#666,1.);
#666 = DIRECTION('',(-1.,0.,0.));
#667 = PCURVE('',#404,#668);
#668 = DEFINITIONAL_REPRESENTATION('',(#669),#673);
#669 = LINE('',#670,#671);
#670 = CARTESIAN_POINT('',(0.,0.));
#671 = VECTOR('',#672,1.);
#672 = DIRECTION('',(1.,0.));
#673 = ( GEOMETRIC_REPRESENTATION_CONTEXT(2) 
PARAMETRIC_REPRESENTATION_CONTEXT() REPRESENTATION_CONTEXT('2D SPACE',''
  ) );
#674 = PCURVE('',#448,#675);
#675 = DEFINITIONAL_REPRESENTATION('',(#676),#680);
#676 = LINE('',#677,#678);
#677 = CARTESIAN_POINT('',(4.,0.755));
#678 = VECTOR('',#679,1.);
#679 = DIRECTION('',(-1.,0.));
#680 = ( GEOMETRIC_REPRESENTATION_CONTEXT(2) 
PARAMETRIC_REPRESENTATION_CONTEXT() REPRESENTATION_CONTEXT('2D SPACE',''
  ) );
#681 = ORIENTED_EDGE('',*,*,#460,.F.);
#682 = ORIENTED_EDGE('',*,*,#637,.T.);
#683 = ORIENTED_EDGE('',*,*,#358,.T.);
#684 = ADVANCED_FACE('',(#685),#448,.T.);
#685 = FACE_BOUND('',#686,.T.);
#686 = EDGE_LOOP('',(#687,#688));
#687 = ORIENTED_EDGE('',*,*,#661,.F.);
#688 = ORIENTED_EDGE('',*,*,#431,.T.);
#689 = ADVANCED_FACE('',(#690),#199,.F.);
#690 = FACE_BOUND('',#691,.F.);
#691 = EDGE_LOOP('',(#692,#713,#714,#715));
#692 = ORIENTED_EDGE('',*,*,#693,.F.);
#693 = EDGE_CURVE('',#227,#154,#694,.T.);
#694 = SURFACE_CURVE('',#695,(#699,#706),.PCURVE_S1.);
#695 = LINE('',#696,#697);
#696 = CARTESIAN_POINT('',(-4.,-0.755,2.4));
#697 = VECTOR('',#698,1.);
#698 = DIRECTION('',(1.,0.,0.));
#699 = PCURVE('',#199,#700);
#700 = DEFINITIONAL_REPRESENTATION('',(#701),#705);
#701 = LINE('',#702,#703);
#702 = CARTESIAN_POINT('',(0.,0.));
#703 = VECTOR('',#704,1.);
#704 = DIRECTION('',(1.,0.));
#705 = ( GEOMETRIC_REPRESENTATION_CONTEXT(2) 
PARAMETRIC_REPRESENTATION_CONTEXT() REPRESENTATION_CONTEXT('2D SPACE',''
  ) );
#706 = PCURVE('',#243,#707);
#707 = DEFINITIONAL_REPRESENTATION('',(#708),#712);
#708 = LINE('',#709,#710);
#709 = CARTESIAN_POINT('',(-4.,-0.755));
#710 = VECTOR('',#711,1.);
#711 = DIRECTION('',(1.,0.));
#712 = ( GEOMETRIC_REPRESENTATION_CONTEXT(2) 
PARAMETRIC_REPRESENTATION_CONTEXT() REPRESENTATION_CONTEXT('2D SPACE',''
  ) );
#713 = ORIENTED_EDGE('',*,*,#255,.F.);
#714 = ORIENTED_EDGE('',*,*,#614,.T.);
#715 = ORIENTED_EDGE('',*,*,#153,.T.);
#716 = ADVANCED_FACE('',(#717),#243,.T.);
#717 = FACE_BOUND('',#718,.T.);
#718 = EDGE_LOOP('',(#719,#720));
#719 = ORIENTED_EDGE('',*,*,#226,.T.);
#720 = ORIENTED_EDGE('',*,*,#693,.F.);
#721 = ADVANCED_FACE('',(#722),#598,.F.);
#722 = FACE_BOUND('',#723,.F.);
#723 = EDGE_LOOP('',(#724));
#724 = ORIENTED_EDGE('',*,*,#583,.T.);
#725 = ( GEOMETRIC_REPRESENTATION_CONTEXT(3) 
GLOBAL_UNCERTAINTY_ASSIGNED_CONTEXT((#729)) GLOBAL_UNIT_ASSIGNED_CONTEXT
((#726,#727,#728)) REPRESENTATION_CONTEXT('Context #1',
  '3D Context with UNIT and UNCERTAINTY') );
#726 = ( LENGTH_UNIT() NAMED_UNIT(*) SI_UNIT(.MILLI.,.METRE.) );
#727 = ( NAMED_UNIT(*) PLANE_ANGLE_UNIT() SI_UNIT($,.RADIAN.) );
#728 = ( NAMED_UNIT(*) SI_UNIT($,.STERADIAN.) SOLID_ANGLE_UNIT() );
#729 = UNCERTAINTY_MEASURE_WITH_UNIT(LENGTH_MEASURE(2.E-06),#726,
  'distance_accuracy_value','confusion accuracy');
#730 = PRODUCT_RELATED_PRODUCT_CATEGORY('part',$,(#7));
ENDSEC;
END-ISO-10303-21;
